<?xml version="1.0" encoding="UTF-8" ?>
<!DOCTYPE svg PUBLIC "-//W3C//DTD SVG 1.1//EN" "http://www.w3.org/Graphics/SVG/1.1/DTD/svg11.dtd">
<svg width="516pt" height="516pt" viewBox="0 0 516 516" version="1.1" xmlns="http://www.w3.org/2000/svg">
<g id="#7b7f7aff">
<path fill="#7b7f7a" opacity="1.00" d=" M 0.00 0.00 L 131.31 0.00 C 128.48 0.55 125.67 1.22 122.87 1.90 C 122.38 3.58 121.88 5.26 121.39 6.94 C 83.11 7.11 44.83 6.82 6.54 7.07 C 6.48 45.88 6.44 84.70 6.57 123.51 L 5.68 123.55 C 3.68 124.35 1.77 125.37 0.00 126.59 L 0.00 0.00 Z" />
<path fill="#7b7f7a" opacity="1.00" d=" M 257.87 0.00 L 389.27 0.00 C 386.45 0.55 383.66 1.21 380.88 1.89 C 380.38 3.57 379.88 5.26 379.39 6.95 C 341.11 7.14 302.83 6.91 264.55 6.98 C 264.33 45.80 264.72 84.64 264.37 123.45 L 263.77 123.74 C 261.80 124.74 259.81 125.69 257.77 126.51 C 257.94 86.65 257.81 46.79 257.83 6.92 C 257.83 4.62 257.85 2.31 257.87 0.00 Z" />
<path fill="#7b7f7a" opacity="1.00" d=" M 128.65 128.64 C 130.94 128.70 133.23 128.76 135.52 128.80 C 176.23 128.91 216.94 128.81 257.65 128.85 L 257.54 130.02 C 255.65 130.33 253.74 130.56 251.84 130.79 C 251.35 132.50 250.88 134.21 250.41 135.93 C 233.94 136.34 217.48 135.89 201.02 135.92 C 179.20 136.37 157.37 135.67 135.55 135.99 C 135.47 174.86 135.45 213.73 135.56 252.60 L 134.66 252.68 C 132.72 253.66 130.80 254.67 128.78 255.47 C 128.90 215.62 128.86 175.76 128.80 135.91 C 128.76 133.49 128.70 131.06 128.65 128.64 Z" />
<path fill="#7b7f7a" opacity="1.00" d=" M 386.65 128.64 C 388.94 128.70 391.22 128.76 393.52 128.80 C 431.99 128.89 470.45 128.84 508.92 128.82 C 508.65 131.21 508.40 133.60 508.13 135.99 C 469.94 136.21 431.75 135.89 393.55 135.95 C 393.33 174.78 393.72 213.62 393.37 252.44 L 392.77 252.75 C 390.83 253.77 388.84 254.68 386.78 255.40 C 386.91 215.61 386.85 175.83 386.81 136.05 C 386.77 133.58 386.70 131.10 386.65 128.64 Z" />
<path fill="#7b7f7a" opacity="1.00" d=" M 0.00 257.66 C 2.24 257.71 4.49 257.77 6.73 257.81 C 47.38 257.89 88.02 257.81 128.66 257.85 L 128.56 259.02 C 126.66 259.34 124.74 259.56 122.83 259.79 C 122.36 261.48 121.90 263.19 121.44 264.89 C 83.14 265.11 44.84 264.97 6.55 265.06 C 6.48 303.88 6.44 342.69 6.57 381.51 L 5.68 381.56 C 3.73 382.44 1.83 383.43 0.00 384.55 L 0.00 257.66 Z" />
<path fill="#7b7f7a" opacity="1.00" d=" M 257.65 257.64 C 259.94 257.69 262.23 257.75 264.53 257.80 C 305.24 257.90 345.95 257.81 386.66 257.85 L 386.56 259.03 C 384.65 259.34 382.74 259.56 380.83 259.79 C 380.37 261.49 379.91 263.20 379.46 264.92 C 366.64 265.24 353.82 265.03 341.00 264.97 C 315.51 265.09 290.03 264.95 264.55 264.98 C 264.33 303.80 264.72 342.64 264.37 381.46 L 263.78 381.76 C 261.85 382.78 259.86 383.67 257.78 384.35 C 257.90 344.54 257.86 304.74 257.80 264.93 C 257.76 262.50 257.70 260.06 257.65 257.64 Z" />
<path fill="#7b7f7a" opacity="1.00" d=" M 128.65 386.64 C 130.94 386.69 133.22 386.75 135.51 386.80 C 176.23 386.91 216.95 386.81 257.66 386.85 L 257.56 388.02 C 255.66 388.34 253.75 388.56 251.84 388.79 C 251.36 390.49 250.90 392.20 250.43 393.92 C 230.62 394.32 210.81 393.79 191.00 394.01 C 172.52 393.85 154.04 394.19 135.55 393.95 C 135.52 432.82 135.35 471.70 135.64 510.57 L 135.23 510.58 C 133.09 510.62 130.95 510.68 128.80 510.75 C 128.87 471.82 128.87 432.89 128.80 393.96 C 128.76 391.51 128.70 389.07 128.65 386.64 Z" />
<path fill="#7b7f7a" opacity="1.00" d=" M 386.65 386.63 C 388.94 386.69 391.23 386.75 393.53 386.80 C 431.99 386.89 470.46 386.84 508.92 386.82 C 508.65 389.24 508.39 391.65 508.12 394.07 C 469.93 393.92 431.74 394.02 393.55 393.97 C 393.53 432.84 393.34 471.71 393.64 510.58 L 393.24 510.58 C 391.09 510.62 388.95 510.68 386.80 510.74 C 386.87 471.80 386.87 432.87 386.80 393.94 C 386.76 391.50 386.70 389.06 386.65 386.63 Z" />
</g>
<g id="#5d615cff">
<path fill="#5d615c" opacity="1.00" d=" M 131.31 0.00 L 251.31 0.00 C 250.73 2.32 250.32 4.68 249.89 7.04 C 211.78 6.84 173.67 7.10 135.56 6.95 C 135.52 45.83 135.35 84.71 135.64 123.59 L 135.28 123.59 C 133.03 123.61 130.78 123.64 128.53 123.67 C 128.20 84.87 128.50 46.06 128.40 7.26 C 126.17 7.18 123.94 7.11 121.71 7.04 C 121.27 45.86 121.75 84.68 121.48 123.49 C 83.18 123.60 44.87 123.54 6.57 123.51 C 6.44 84.70 6.48 45.88 6.54 7.07 C 44.83 6.82 83.11 7.11 121.39 6.94 C 121.88 5.26 122.38 3.58 122.87 1.90 C 125.67 1.22 128.48 0.55 131.31 0.00 Z" />
<path fill="#5d615c" opacity="1.00" d=" M 389.27 0.00 L 509.23 0.00 C 508.69 2.33 508.32 4.70 507.92 7.06 C 469.80 6.91 431.67 7.04 393.55 6.99 C 393.52 45.85 393.35 84.72 393.64 123.59 L 393.29 123.59 C 391.02 123.62 388.77 123.65 386.51 123.69 C 386.23 84.88 386.47 46.07 386.41 7.26 C 384.17 7.19 381.93 7.12 379.70 7.06 C 379.28 45.86 379.73 84.68 379.49 123.49 C 341.12 123.57 302.74 123.62 264.37 123.45 C 264.72 84.64 264.33 45.80 264.55 6.98 C 302.83 6.91 341.11 7.14 379.39 6.95 C 379.88 5.26 380.38 3.57 380.88 1.89 C 383.66 1.21 386.45 0.55 389.27 0.00 Z" />
<path fill="#5d615c" opacity="1.00" d=" M 0.00 126.59 C 1.77 125.37 3.68 124.35 5.68 123.55 C 6.38 125.14 7.05 126.75 7.71 128.36 C 45.79 128.56 83.86 128.17 121.93 128.53 C 121.70 131.02 121.46 133.52 121.22 136.01 C 83.00 136.00 44.77 136.01 6.55 135.97 C 6.51 174.83 6.36 213.69 6.63 252.55 L 6.16 252.54 C 4.11 252.47 2.05 252.37 0.00 252.26 L 0.00 126.59 Z" />
<path fill="#5d615c" opacity="1.00" d=" M 257.77 126.51 C 259.81 125.69 261.80 124.74 263.77 123.74 C 264.42 125.27 265.05 126.81 265.65 128.36 C 303.75 128.57 341.86 128.14 379.95 128.56 C 379.70 131.06 379.45 133.57 379.19 136.07 C 340.98 135.72 302.76 136.19 264.55 135.95 C 264.52 174.83 264.35 213.70 264.64 252.58 L 264.28 252.58 C 262.01 252.57 259.75 252.55 257.50 252.55 C 257.25 213.78 257.48 175.01 257.40 136.25 C 255.16 136.18 252.93 136.12 250.70 136.06 C 250.29 174.87 250.72 213.69 250.50 252.50 C 212.19 252.65 173.87 252.42 135.56 252.60 C 135.45 213.73 135.47 174.86 135.55 135.99 C 157.37 135.67 179.20 136.37 201.02 135.92 C 217.48 135.89 233.94 136.34 250.41 135.93 C 250.88 134.21 251.35 132.50 251.84 130.79 C 253.74 130.56 255.65 130.33 257.54 130.02 L 257.65 128.85 C 257.68 128.27 257.74 127.09 257.77 126.51 Z" />
<path fill="#5d615c" opacity="1.00" d=" M 393.55 135.95 C 431.75 135.89 469.94 136.21 508.13 135.99 L 508.72 136.00 C 508.27 174.82 508.72 213.66 508.50 252.49 C 470.13 252.57 431.75 252.62 393.37 252.44 C 393.72 213.62 393.33 174.78 393.55 135.95 Z" />
<path fill="#5d615c" opacity="1.00" d=" M 128.78 255.47 C 130.80 254.67 132.72 253.66 134.66 252.68 C 135.36 254.23 136.05 255.79 136.72 257.35 C 174.80 257.57 212.88 257.16 250.96 257.54 C 250.70 260.04 250.44 262.55 250.18 265.05 C 211.97 265.00 173.76 265.05 135.55 264.96 C 135.52 303.83 135.36 342.71 135.64 381.58 L 135.29 381.58 C 133.02 381.57 130.76 381.55 128.49 381.54 C 128.26 342.77 128.47 304.00 128.40 265.23 C 126.16 265.18 123.93 265.12 121.69 265.07 C 121.30 303.88 121.72 342.69 121.49 381.50 C 83.19 381.60 44.88 381.54 6.57 381.51 C 6.44 342.69 6.48 303.88 6.55 265.06 C 44.84 264.97 83.14 265.11 121.44 264.89 C 121.90 263.19 122.36 261.48 122.83 259.79 C 124.74 259.56 126.66 259.34 128.56 259.02 L 128.66 257.85 C 128.69 257.25 128.75 256.06 128.78 255.47 Z" />
<path fill="#5d615c" opacity="1.00" d=" M 386.78 255.40 C 388.84 254.68 390.83 253.77 392.77 252.75 C 393.41 254.27 394.04 255.80 394.65 257.35 C 432.74 257.58 470.84 257.15 508.94 257.54 C 508.69 260.03 508.46 262.52 508.22 265.01 C 470.00 264.96 431.78 265.09 393.56 264.92 C 393.51 303.81 393.36 342.70 393.64 381.58 L 393.28 381.58 C 391.01 381.57 388.75 381.55 386.50 381.54 C 386.24 342.78 386.49 304.01 386.39 265.25 C 384.16 265.18 381.93 265.12 379.71 265.06 C 379.28 303.86 379.73 342.68 379.50 381.48 C 341.12 381.59 302.74 381.60 264.37 381.46 C 264.72 342.64 264.33 303.80 264.55 264.98 C 290.03 264.95 315.51 265.09 341.00 264.97 C 353.82 265.03 366.64 265.24 379.46 264.92 C 379.91 263.20 380.37 261.49 380.83 259.79 C 382.74 259.56 384.65 259.34 386.56 259.03 L 386.66 257.85 C 386.69 257.23 386.75 256.01 386.78 255.40 Z" />
<path fill="#5d615c" opacity="1.00" d=" M 0.00 384.55 C 1.83 383.43 3.73 382.44 5.68 381.56 C 6.37 383.14 7.03 384.74 7.69 386.34 C 45.77 386.59 83.86 386.15 121.94 386.55 C 121.70 389.02 121.45 391.51 121.20 393.99 C 82.98 394.04 44.77 393.95 6.55 393.99 C 6.52 432.84 6.36 471.70 6.63 510.55 L 6.17 510.54 C 4.11 510.47 2.06 510.37 0.00 510.28 L 0.00 384.55 Z" />
<path fill="#5d615c" opacity="1.00" d=" M 257.78 384.35 C 259.86 383.67 261.85 382.78 263.78 381.76 C 264.43 383.27 265.05 384.81 265.66 386.35 C 303.75 386.57 341.85 386.15 379.95 386.54 C 379.70 389.04 379.46 391.53 379.21 394.03 C 340.99 393.94 302.77 394.05 264.55 393.99 C 264.54 432.85 264.32 471.71 264.66 510.57 L 264.40 510.57 C 262.10 510.56 259.80 510.55 257.50 510.55 C 257.24 471.78 257.48 433.01 257.40 394.24 C 255.17 394.18 252.93 394.12 250.70 394.07 C 250.30 432.87 250.72 471.68 250.50 510.49 C 212.22 510.65 173.93 510.46 135.64 510.57 C 135.35 471.70 135.52 432.82 135.55 393.95 C 154.04 394.19 172.52 393.85 191.00 394.01 C 210.81 393.79 230.62 394.32 250.43 393.92 C 250.90 392.20 251.36 390.49 251.84 388.79 C 253.75 388.56 255.66 388.34 257.56 388.02 L 257.66 386.85 C 257.69 386.22 257.75 384.97 257.78 384.35 Z" />
<path fill="#5d615c" opacity="1.00" d=" M 393.55 393.97 C 431.74 394.02 469.93 393.92 508.12 394.07 L 508.71 394.08 C 508.29 432.88 508.71 471.69 508.50 510.50 C 470.22 510.64 431.93 510.46 393.64 510.58 C 393.34 471.71 393.53 432.84 393.55 393.97 Z" />
</g>
<g id="#4c504bff">
<path fill="#4c504b" opacity="1.00" d=" M 251.31 0.00 L 257.87 0.00 C 257.85 2.31 257.83 4.62 257.83 6.92 C 255.45 6.97 253.07 7.01 250.70 7.03 L 249.89 7.04 C 250.32 4.68 250.73 2.32 251.31 0.00 Z" />
<path fill="#4c504b" opacity="1.00" d=" M 509.23 0.00 L 516.00 0.00 L 516.00 7.25 C 513.57 7.18 511.14 7.12 508.72 7.07 L 507.92 7.06 C 508.32 4.70 508.69 2.33 509.23 0.00 Z" />
<path fill="#4c504b" opacity="1.00" d=" M 121.71 7.04 C 123.94 7.11 126.17 7.18 128.40 7.26 C 128.50 46.06 128.20 84.87 128.53 123.67 C 130.78 123.64 133.03 123.61 135.28 123.59 C 135.36 125.33 135.44 127.06 135.52 128.80 C 133.23 128.76 130.94 128.70 128.65 128.64 C 128.70 131.06 128.76 133.49 128.80 135.91 C 126.45 135.94 124.09 135.98 121.74 136.01 L 121.22 136.01 C 121.46 133.52 121.70 131.02 121.93 128.53 C 83.86 128.17 45.79 128.56 7.71 128.36 C 7.05 126.75 6.38 125.14 5.68 123.55 L 6.57 123.51 C 44.87 123.54 83.18 123.60 121.48 123.49 C 121.75 84.68 121.27 45.86 121.71 7.04 Z" />
<path fill="#4c504b" opacity="1.00" d=" M 379.70 7.06 C 381.93 7.12 384.17 7.19 386.41 7.26 C 386.47 46.07 386.23 84.88 386.51 123.69 C 388.77 123.65 391.02 123.62 393.29 123.59 C 393.36 125.33 393.44 127.06 393.52 128.80 C 391.22 128.76 388.94 128.70 386.65 128.64 C 386.70 131.10 386.77 133.58 386.81 136.05 C 384.44 136.06 382.08 136.07 379.73 136.07 L 379.19 136.07 C 379.45 133.57 379.70 131.06 379.95 128.56 C 341.86 128.14 303.75 128.57 265.65 128.36 C 265.05 126.81 264.42 125.27 263.77 123.74 L 264.37 123.45 C 302.74 123.62 341.12 123.57 379.49 123.49 C 379.73 84.68 379.28 45.86 379.70 7.06 Z" />
<path fill="#4c504b" opacity="1.00" d=" M 250.70 136.06 C 252.93 136.12 255.16 136.18 257.40 136.25 C 257.48 175.01 257.25 213.78 257.50 252.55 C 259.75 252.55 262.01 252.57 264.28 252.58 C 264.36 254.32 264.44 256.06 264.53 257.80 C 262.23 257.75 259.94 257.69 257.65 257.64 C 257.70 260.06 257.76 262.50 257.80 264.93 C 255.45 264.97 253.09 265.02 250.74 265.05 L 250.18 265.05 C 250.44 262.55 250.70 260.04 250.96 257.54 C 212.88 257.16 174.80 257.57 136.72 257.35 C 136.05 255.79 135.36 254.23 134.66 252.68 L 135.56 252.60 C 173.87 252.42 212.19 252.65 250.50 252.50 C 250.72 213.69 250.29 174.87 250.70 136.06 Z" />
<path fill="#4c504b" opacity="1.00" d=" M 508.72 136.00 C 511.14 136.06 513.57 136.17 516.00 136.27 L 516.00 265.27 C 513.58 265.17 511.16 265.08 508.74 265.02 L 508.22 265.01 C 508.46 262.52 508.69 260.03 508.94 257.54 C 470.84 257.15 432.74 257.58 394.65 257.35 C 394.04 255.80 393.41 254.27 392.77 252.75 L 393.37 252.44 C 431.75 252.62 470.13 252.57 508.50 252.49 C 508.72 213.66 508.27 174.82 508.72 136.00 Z" />
<path fill="#4c504b" opacity="1.00" d=" M 0.00 252.26 C 2.05 252.37 4.11 252.47 6.16 252.54 C 6.35 254.29 6.54 256.05 6.73 257.81 C 4.49 257.77 2.24 257.71 0.00 257.66 L 0.00 252.26 Z" />
<path fill="#4c504b" opacity="1.00" d=" M 121.69 265.07 C 123.93 265.12 126.16 265.18 128.40 265.23 C 128.47 304.00 128.26 342.77 128.49 381.54 C 130.76 381.55 133.02 381.57 135.29 381.58 C 135.36 383.31 135.44 385.05 135.51 386.80 C 133.22 386.75 130.94 386.69 128.65 386.64 C 128.70 389.07 128.76 391.51 128.80 393.96 C 126.44 393.97 124.09 393.99 121.73 393.99 L 121.20 393.99 C 121.45 391.51 121.70 389.02 121.94 386.55 C 83.86 386.15 45.77 386.59 7.69 386.34 C 7.03 384.74 6.37 383.14 5.68 381.56 L 6.57 381.51 C 44.88 381.54 83.19 381.60 121.49 381.50 C 121.72 342.69 121.30 303.88 121.69 265.07 Z" />
<path fill="#4c504b" opacity="1.00" d=" M 379.71 265.06 C 381.93 265.12 384.16 265.18 386.39 265.25 C 386.49 304.01 386.24 342.78 386.50 381.54 C 388.75 381.55 391.01 381.57 393.28 381.58 C 393.35 383.31 393.44 385.06 393.53 386.80 C 391.23 386.75 388.94 386.69 386.65 386.63 C 386.70 389.06 386.76 391.50 386.80 393.94 C 384.44 393.96 382.08 393.99 379.73 394.02 L 379.21 394.03 C 379.46 391.53 379.70 389.04 379.95 386.54 C 341.85 386.15 303.75 386.57 265.66 386.35 C 265.05 384.81 264.43 383.27 263.78 381.76 L 264.37 381.46 C 302.74 381.60 341.12 381.59 379.50 381.48 C 379.73 342.68 379.28 303.86 379.71 265.06 Z" />
<path fill="#4c504b" opacity="1.00" d=" M 250.70 394.07 C 252.93 394.12 255.17 394.18 257.40 394.24 C 257.48 433.01 257.24 471.78 257.50 510.55 C 259.80 510.55 262.10 510.56 264.40 510.57 C 264.35 512.37 264.31 514.18 264.27 516.00 L 135.66 516.00 C 135.51 514.19 135.37 512.38 135.23 510.58 L 135.64 510.57 C 173.93 510.46 212.22 510.65 250.50 510.49 C 250.72 471.68 250.30 432.87 250.70 394.07 Z" />
<path fill="#4c504b" opacity="1.00" d=" M 508.71 394.08 C 511.13 394.11 513.56 394.17 516.00 394.23 L 516.00 516.00 L 393.64 516.00 C 393.50 514.19 393.36 512.38 393.24 510.58 L 393.64 510.58 C 431.93 510.46 470.22 510.64 508.50 510.50 C 508.71 471.69 508.29 432.88 508.71 394.08 Z" />
<path fill="#4c504b" opacity="1.00" d=" M 0.00 510.28 C 2.06 510.37 4.11 510.47 6.17 510.54 C 6.37 512.35 6.56 514.18 6.76 516.00 L 0.00 516.00 L 0.00 510.28 Z" />
</g>
<g id="#3f433eff">
<path fill="#3f433e" opacity="1.00" d=" M 135.56 6.95 C 173.67 7.10 211.78 6.84 249.89 7.04 L 250.70 7.03 C 250.31 45.85 250.70 84.68 250.51 123.50 C 212.22 123.64 173.93 123.45 135.64 123.59 C 135.35 84.71 135.52 45.83 135.56 6.95 Z" />
<path fill="#3f433e" opacity="1.00" d=" M 393.55 6.99 C 431.67 7.04 469.80 6.91 507.92 7.06 L 508.72 7.07 C 508.28 45.88 508.73 84.69 508.50 123.49 C 470.21 123.65 431.93 123.44 393.64 123.59 C 393.35 84.72 393.52 45.85 393.55 6.99 Z" />
<path fill="#3f433e" opacity="1.00" d=" M 6.55 135.97 C 44.77 136.01 83.00 136.00 121.22 136.01 L 121.74 136.01 C 121.24 174.83 121.75 213.65 121.50 252.48 C 83.21 252.65 44.92 252.48 6.63 252.55 C 6.36 213.69 6.51 174.83 6.55 135.97 Z" />
<path fill="#3f433e" opacity="1.00" d=" M 264.55 135.95 C 302.76 136.19 340.98 135.72 379.19 136.07 L 379.73 136.07 C 379.26 174.88 379.73 213.69 379.50 252.50 C 341.21 252.64 302.92 252.46 264.64 252.58 C 264.35 213.70 264.52 174.83 264.55 135.95 Z" />
<path fill="#3f433e" opacity="1.00" d=" M 135.55 264.96 C 173.76 265.05 211.97 265.00 250.18 265.05 L 250.74 265.05 C 250.25 303.85 250.73 342.67 250.51 381.48 C 212.22 381.66 173.93 381.45 135.64 381.58 C 135.36 342.71 135.52 303.83 135.55 264.96 Z" />
<path fill="#3f433e" opacity="1.00" d=" M 393.56 264.92 C 431.78 265.09 470.00 264.96 508.22 265.01 L 508.74 265.02 C 508.25 303.84 508.72 342.67 508.51 381.49 C 470.22 381.64 431.93 381.46 393.64 381.58 C 393.36 342.70 393.51 303.81 393.56 264.92 Z" />
<path fill="#3f433e" opacity="1.00" d=" M 6.55 393.99 C 44.77 393.95 82.98 394.04 121.20 393.99 L 121.73 393.99 C 121.26 432.82 121.73 471.66 121.51 510.49 C 83.22 510.63 44.92 510.49 6.63 510.55 C 6.36 471.70 6.52 432.84 6.55 393.99 Z" />
<path fill="#3f433e" opacity="1.00" d=" M 264.55 393.99 C 302.77 394.05 340.99 393.94 379.21 394.03 L 379.73 394.02 C 379.28 432.84 379.71 471.67 379.52 510.49 C 341.23 510.65 302.95 510.46 264.66 510.57 C 264.32 471.71 264.54 432.85 264.55 393.99 Z" />
</g>
<g id="#2e322dff">
<path fill="#2e322d" opacity="1.00" d=" M 250.70 7.03 C 253.07 7.01 255.45 6.97 257.83 6.92 C 257.81 46.79 257.94 86.65 257.77 126.51 C 257.74 127.09 257.68 128.27 257.65 128.85 C 216.94 128.81 176.23 128.91 135.52 128.80 C 135.44 127.06 135.36 125.33 135.28 123.59 L 135.64 123.59 C 173.93 123.45 212.22 123.64 250.51 123.50 C 250.70 84.68 250.31 45.85 250.70 7.03 Z" />
<path fill="#2e322d" opacity="1.00" d=" M 508.72 7.07 C 511.14 7.12 513.57 7.18 516.00 7.25 L 516.00 128.79 C 513.64 128.80 511.28 128.81 508.92 128.82 C 470.45 128.84 431.99 128.89 393.52 128.80 C 393.44 127.06 393.36 125.33 393.29 123.59 L 393.64 123.59 C 431.93 123.44 470.21 123.65 508.50 123.49 C 508.73 84.69 508.28 45.88 508.72 7.07 Z" />
<path fill="#2e322d" opacity="1.00" d=" M 121.74 136.01 C 124.09 135.98 126.45 135.94 128.80 135.91 C 128.86 175.76 128.90 215.62 128.78 255.47 C 128.75 256.06 128.69 257.25 128.66 257.85 C 88.02 257.81 47.38 257.89 6.73 257.81 C 6.54 256.05 6.35 254.29 6.16 252.54 L 6.63 252.55 C 44.92 252.48 83.21 252.65 121.50 252.48 C 121.75 213.65 121.24 174.83 121.74 136.01 Z" />
<path fill="#2e322d" opacity="1.00" d=" M 379.73 136.07 C 382.08 136.07 384.44 136.06 386.81 136.05 C 386.85 175.83 386.91 215.61 386.78 255.40 C 386.75 256.01 386.69 257.23 386.66 257.85 C 345.95 257.81 305.24 257.90 264.53 257.80 C 264.44 256.06 264.36 254.32 264.28 252.58 L 264.64 252.58 C 302.92 252.46 341.21 252.64 379.50 252.50 C 379.73 213.69 379.26 174.88 379.73 136.07 Z" />
<path fill="#2e322d" opacity="1.00" d=" M 250.74 265.05 C 253.09 265.02 255.45 264.97 257.80 264.93 C 257.86 304.74 257.90 344.54 257.78 384.35 C 257.75 384.97 257.69 386.22 257.66 386.85 C 216.95 386.81 176.23 386.91 135.51 386.80 C 135.44 385.05 135.36 383.31 135.29 381.58 L 135.64 381.58 C 173.93 381.45 212.22 381.66 250.51 381.48 C 250.73 342.67 250.25 303.85 250.74 265.05 Z" />
<path fill="#2e322d" opacity="1.00" d=" M 508.74 265.02 C 511.16 265.08 513.58 265.17 516.00 265.27 L 516.00 386.79 C 513.64 386.80 511.28 386.81 508.92 386.82 C 470.46 386.84 431.99 386.89 393.53 386.80 C 393.44 385.06 393.35 383.31 393.28 381.58 L 393.64 381.58 C 431.93 381.46 470.22 381.64 508.51 381.49 C 508.72 342.67 508.25 303.84 508.74 265.02 Z" />
<path fill="#2e322d" opacity="1.00" d=" M 121.73 393.99 C 124.09 393.99 126.44 393.97 128.80 393.96 C 128.87 432.89 128.87 471.82 128.80 510.75 C 128.77 512.49 128.74 514.24 128.71 516.00 L 6.76 516.00 C 6.56 514.18 6.37 512.35 6.17 510.54 L 6.63 510.55 C 44.92 510.49 83.22 510.63 121.51 510.49 C 121.73 471.66 121.26 432.82 121.73 393.99 Z" />
<path fill="#2e322d" opacity="1.00" d=" M 379.73 394.02 C 382.08 393.99 384.44 393.96 386.80 393.94 C 386.87 432.87 386.87 471.80 386.80 510.74 C 386.77 512.48 386.74 514.24 386.71 516.00 L 264.27 516.00 C 264.31 514.18 264.35 512.37 264.40 510.57 L 264.66 510.57 C 302.95 510.46 341.23 510.65 379.52 510.49 C 379.71 471.67 379.28 432.84 379.73 394.02 Z" />
</g>
<g id="#6a6e69ff">
<path fill="#6a6e69" opacity="1.00" d=" M 508.92 128.82 C 511.28 128.81 513.64 128.80 516.00 128.79 L 516.00 136.27 C 513.57 136.17 511.14 136.06 508.72 136.00 L 508.13 135.99 C 508.40 133.60 508.65 131.21 508.92 128.82 Z" />
<path fill="#6a6e69" opacity="1.00" d=" M 508.92 386.82 C 511.28 386.81 513.64 386.80 516.00 386.79 L 516.00 394.23 C 513.56 394.17 511.13 394.11 508.71 394.08 L 508.12 394.07 C 508.39 391.65 508.65 389.24 508.92 386.82 Z" />
<path fill="#6a6e69" opacity="1.00" d=" M 128.80 510.75 C 130.95 510.68 133.09 510.62 135.23 510.58 C 135.37 512.38 135.51 514.19 135.66 516.00 L 128.71 516.00 C 128.74 514.24 128.77 512.49 128.80 510.75 Z" />
<path fill="#6a6e69" opacity="1.00" d=" M 386.80 510.74 C 388.95 510.68 391.09 510.62 393.24 510.58 C 393.36 512.38 393.50 514.19 393.64 516.00 L 386.71 516.00 C 386.74 514.24 386.77 512.48 386.80 510.74 Z" />
</g>
</svg>
