<?xml version="1.0" encoding="UTF-8" ?>
<!DOCTYPE svg PUBLIC "-//W3C//DTD SVG 1.1//EN" "http://www.w3.org/Graphics/SVG/1.1/DTD/svg11.dtd">
<svg width="400pt" height="400pt" viewBox="0 0 400 400" version="1.1" xmlns="http://www.w3.org/2000/svg">
<g id="#70756fff">
<path fill="#70756f" opacity="1.00" d=" M 0.00 0.00 L 88.99 0.00 C 89.00 2.75 89.01 8.24 89.01 10.99 C 63.01 11.03 37.01 10.97 11.01 11.00 C 10.97 37.00 11.03 63.00 11.00 89.00 C 8.25 89.00 2.75 89.00 0.00 88.99 L 0.00 0.00 Z" />
<path fill="#70756f" opacity="1.00" d=" M 200.00 0.00 L 288.99 0.00 C 289.00 2.75 289.01 8.24 289.01 10.99 C 263.01 11.03 237.01 10.97 211.01 11.00 C 210.97 37.00 211.02 63.00 211.00 89.00 C 208.25 89.00 202.75 89.00 200.01 89.00 C 199.97 59.33 200.02 29.67 200.00 0.00 Z" />
<path fill="#70756f" opacity="1.00" d=" M 100.00 100.00 C 129.67 100.02 159.33 99.97 189.00 100.01 C 189.00 102.76 189.00 108.25 189.00 111.00 C 163.00 111.03 137.00 110.97 111.00 111.01 C 110.97 137.01 111.03 163.01 110.99 189.01 C 108.25 189.01 102.75 189.00 100.01 189.00 C 99.98 159.33 100.02 129.66 100.00 100.00 Z" />
<path fill="#70756f" opacity="1.00" d=" M 300.00 100.00 C 329.67 100.00 359.33 100.00 389.00 100.00 C 389.00 102.75 389.01 108.24 389.01 110.99 C 363.01 111.03 337.01 110.97 311.01 111.00 C 310.97 137.00 311.02 163.00 311.00 189.00 C 308.25 189.00 302.75 189.00 300.01 189.00 C 299.98 159.33 300.01 129.67 300.00 100.00 Z" />
<path fill="#70756f" opacity="1.00" d=" M 0.00 200.00 C 29.67 200.03 59.33 199.97 89.00 200.01 C 89.00 202.76 89.00 208.25 89.00 211.00 C 63.00 211.03 37.00 210.97 11.00 211.01 C 10.97 237.01 11.03 263.01 10.99 289.01 C 8.24 289.01 2.75 289.00 0.00 288.99 L 0.00 200.00 Z" />
<path fill="#70756f" opacity="1.00" d=" M 200.00 200.00 C 229.67 200.02 259.33 199.97 289.00 200.01 C 289.00 202.76 289.00 208.25 289.00 211.00 C 263.00 211.03 237.00 210.97 211.00 211.01 C 210.97 237.01 211.03 263.01 210.99 289.01 C 208.25 289.01 202.75 289.00 200.01 289.00 C 199.98 259.33 200.02 229.66 200.00 200.00 Z" />
<path fill="#70756f" opacity="1.00" d=" M 100.00 300.00 C 129.67 300.02 159.33 299.97 189.00 300.01 C 189.00 302.76 189.00 308.25 189.00 311.00 C 163.00 311.02 137.00 310.97 111.00 311.01 C 110.97 337.01 111.03 363.01 110.99 389.01 C 108.24 389.01 102.75 389.00 100.00 389.00 C 100.00 359.33 100.00 329.66 100.00 300.00 Z" />
<path fill="#70756f" opacity="1.00" d=" M 300.00 300.00 C 329.67 300.00 359.33 300.00 389.00 300.00 C 389.00 302.75 389.01 308.24 389.01 310.99 C 363.01 311.03 337.01 310.97 311.01 311.00 C 310.97 337.00 311.02 363.00 311.00 389.00 C 308.25 389.00 302.75 389.00 300.00 389.00 C 300.00 359.33 299.99 329.67 300.00 300.00 Z" />
</g>
<g id="#595d58ff">
<path fill="#595d58" opacity="1.00" d=" M 88.99 0.00 L 188.99 0.00 C 189.00 2.75 189.01 8.24 189.01 10.99 C 163.01 11.03 137.01 10.97 111.01 11.00 C 110.95 36.99 111.06 62.97 110.97 88.95 C 108.53 89.05 103.64 89.25 101.20 89.34 C 100.53 91.64 99.19 96.23 98.52 98.53 C 96.29 99.32 91.84 100.90 89.61 101.70 C 89.44 104.01 89.09 108.63 88.92 110.94 C 62.95 111.09 36.98 110.94 11.01 111.01 C 10.97 137.01 11.03 163.00 11.00 189.00 C 8.25 189.00 2.75 189.00 0.00 188.99 L 0.00 88.99 C 2.75 89.00 8.25 89.00 11.00 89.00 C 11.03 63.00 10.97 37.00 11.01 11.00 C 37.01 10.97 63.01 11.03 89.01 10.99 C 89.01 8.24 89.00 2.75 88.99 0.00 Z" />
<path fill="#595d58" opacity="1.00" d=" M 288.99 0.00 L 388.99 0.00 C 389.00 2.75 389.01 8.24 389.01 10.99 C 363.01 11.03 337.01 10.97 311.01 11.00 C 310.95 36.99 311.06 62.97 310.97 88.95 C 308.53 89.05 303.64 89.25 301.20 89.34 C 300.53 91.64 299.19 96.23 298.52 98.53 C 296.29 99.32 291.84 100.90 289.61 101.70 C 289.44 104.01 289.09 108.63 288.92 110.94 C 262.95 111.09 236.98 110.94 211.01 111.01 C 210.95 136.99 211.06 162.97 210.97 188.95 C 208.53 189.05 203.64 189.25 201.20 189.34 C 200.53 191.64 199.19 196.23 198.52 198.53 C 196.29 199.32 191.84 200.90 189.61 201.70 C 189.44 204.01 189.09 208.63 188.92 210.94 C 162.95 211.08 136.98 210.94 111.01 211.01 C 110.95 236.99 111.06 262.97 110.97 288.95 C 108.53 289.05 103.64 289.25 101.20 289.34 C 100.53 291.64 99.19 296.23 98.52 298.53 C 96.29 299.32 91.84 300.90 89.61 301.70 C 89.44 304.01 89.09 308.63 88.92 310.94 C 62.95 311.08 36.98 310.94 11.01 311.01 C 10.97 337.01 11.03 363.00 11.00 389.00 C 8.25 389.00 2.75 389.00 0.00 388.99 L 0.00 288.99 C 2.75 289.00 8.24 289.01 10.99 289.01 C 11.03 263.01 10.97 237.01 11.00 211.01 C 37.00 210.97 63.00 211.03 89.00 211.00 C 89.00 208.25 89.00 202.76 89.00 200.01 C 91.74 200.00 97.24 199.99 99.99 199.98 C 100.00 197.24 100.00 191.74 100.01 189.00 C 102.75 189.00 108.25 189.01 110.99 189.01 C 111.03 163.01 110.97 137.01 111.00 111.01 C 137.00 110.97 163.00 111.03 189.00 111.00 C 189.00 108.25 189.00 102.76 189.00 100.01 C 191.74 100.00 197.24 99.99 199.99 99.99 C 199.99 97.24 200.00 91.75 200.01 89.00 C 202.75 89.00 208.25 89.00 211.00 89.00 C 211.02 63.00 210.97 37.00 211.01 11.00 C 237.01 10.97 263.01 11.03 289.01 10.99 C 289.01 8.24 289.00 2.75 288.99 0.00 Z" />
<path fill="#595d58" opacity="1.00" d=" M 389.00 100.00 C 392.67 100.00 396.31 100.00 400.00 100.00 L 400.00 199.56 C 397.26 199.81 391.77 200.32 389.03 200.57 C 389.02 203.17 389.01 208.37 389.01 210.98 C 363.01 211.05 337.01 210.96 311.01 211.01 C 310.95 236.99 311.06 262.97 310.97 288.95 C 308.53 289.05 303.64 289.25 301.20 289.34 C 300.53 291.64 299.19 296.23 298.52 298.53 C 296.29 299.32 291.84 300.90 289.61 301.70 C 289.44 304.01 289.09 308.63 288.92 310.94 C 262.95 311.08 236.98 310.94 211.01 311.01 C 210.96 337.01 211.03 363.01 211.00 389.01 C 208.25 389.00 202.74 388.99 199.99 388.99 C 199.99 391.74 200.00 397.25 200.01 400.00 L 100.00 400.00 C 100.00 396.34 99.99 392.64 100.00 389.00 C 102.75 389.00 108.24 389.01 110.99 389.01 C 111.03 363.01 110.97 337.01 111.00 311.01 C 137.00 310.97 163.00 311.02 189.00 311.00 C 189.00 308.25 189.00 302.76 189.00 300.01 C 191.74 300.00 197.24 299.99 199.99 299.99 C 200.00 297.24 200.00 291.74 200.01 289.00 C 202.75 289.00 208.25 289.01 210.99 289.01 C 211.03 263.01 210.97 237.01 211.00 211.01 C 237.00 210.97 263.00 211.03 289.00 211.00 C 289.00 208.25 289.00 202.76 289.00 200.01 C 291.75 200.00 297.24 199.99 299.99 199.99 C 300.00 197.24 300.00 191.74 300.01 189.00 C 302.75 189.00 308.25 189.00 311.00 189.00 C 311.02 163.00 310.97 137.00 311.01 111.00 C 337.01 110.97 363.01 111.03 389.01 110.99 C 389.01 108.24 389.00 102.75 389.00 100.00 Z" />
<path fill="#595d58" opacity="1.00" d=" M 389.00 300.00 C 392.67 300.01 396.31 299.99 400.00 300.00 L 400.00 400.00 L 300.00 400.00 C 300.01 396.34 299.98 392.64 300.00 389.00 C 302.75 389.00 308.25 389.00 311.00 389.00 C 311.02 363.00 310.97 337.00 311.01 311.00 C 337.01 310.97 363.01 311.03 389.01 310.99 C 389.01 308.24 389.00 302.75 389.00 300.00 Z" />
</g>
<g id="#3f433eff">
<path fill="#3f433e" opacity="1.00" d=" M 188.99 0.00 L 200.00 0.00 C 200.02 29.67 199.97 59.33 200.01 89.00 C 200.00 91.75 199.99 97.24 199.99 99.99 C 197.24 99.99 191.74 100.00 189.00 100.01 C 159.33 99.97 129.67 100.02 100.00 100.00 C 100.02 129.66 99.98 159.33 100.01 189.00 C 100.00 191.74 100.00 197.24 99.99 199.98 C 97.24 199.99 91.74 200.00 89.00 200.01 C 59.33 199.97 29.67 200.03 0.00 200.00 L 0.00 188.99 C 2.75 189.00 8.25 189.00 11.00 189.00 C 11.03 163.00 10.97 137.01 11.01 111.01 C 36.98 110.94 62.95 111.09 88.92 110.94 C 89.09 108.63 89.44 104.01 89.61 101.70 C 91.84 100.90 96.29 99.32 98.52 98.53 C 99.19 96.23 100.53 91.64 101.20 89.34 C 103.64 89.25 108.53 89.05 110.97 88.95 C 111.06 62.97 110.95 36.99 111.01 11.00 C 137.01 10.97 163.01 11.03 189.01 10.99 C 189.01 8.24 189.00 2.75 188.99 0.00 Z" />
<path fill="#3f433e" opacity="1.00" d=" M 388.99 0.00 L 400.00 0.00 L 400.00 100.00 C 396.31 100.00 392.67 100.00 389.00 100.00 C 359.33 100.00 329.67 100.00 300.00 100.00 C 300.01 129.67 299.98 159.33 300.01 189.00 C 300.00 191.74 300.00 197.24 299.99 199.99 C 297.24 199.99 291.75 200.00 289.00 200.01 C 259.33 199.97 229.67 200.02 200.00 200.00 C 200.02 229.66 199.98 259.33 200.01 289.00 C 200.00 291.74 200.00 297.24 199.99 299.99 C 197.24 299.99 191.74 300.00 189.00 300.01 C 159.33 299.97 129.67 300.02 100.00 300.00 C 100.00 329.66 100.00 359.33 100.00 389.00 C 99.99 392.64 100.00 396.34 100.00 400.00 L 0.00 400.00 L 0.00 388.99 C 2.75 389.00 8.25 389.00 11.00 389.00 C 11.03 363.00 10.97 337.01 11.01 311.01 C 36.98 310.94 62.95 311.08 88.92 310.94 C 89.09 308.63 89.44 304.01 89.61 301.70 C 91.84 300.90 96.29 299.32 98.52 298.53 C 99.19 296.23 100.53 291.64 101.20 289.34 C 103.64 289.25 108.53 289.05 110.97 288.95 C 111.06 262.97 110.95 236.99 111.01 211.01 C 136.98 210.94 162.95 211.08 188.92 210.94 C 189.09 208.63 189.44 204.01 189.61 201.70 C 191.84 200.90 196.29 199.32 198.52 198.53 C 199.19 196.23 200.53 191.64 201.20 189.34 C 203.64 189.25 208.53 189.05 210.97 188.95 C 211.06 162.97 210.95 136.99 211.01 111.01 C 236.98 110.94 262.95 111.09 288.92 110.94 C 289.09 108.63 289.44 104.01 289.61 101.70 C 291.84 100.90 296.29 99.32 298.52 98.53 C 299.19 96.23 300.53 91.64 301.20 89.34 C 303.64 89.25 308.53 89.05 310.97 88.95 C 311.06 62.97 310.95 36.99 311.01 11.00 C 337.01 10.97 363.01 11.03 389.01 10.99 C 389.01 8.24 389.00 2.75 388.99 0.00 Z" />
<path fill="#3f433e" opacity="1.00" d=" M 389.03 200.57 C 391.77 200.32 397.26 199.81 400.00 199.56 L 400.00 300.00 C 396.31 299.99 392.67 300.01 389.00 300.00 C 359.33 300.00 329.67 300.00 300.00 300.00 C 299.99 329.67 300.00 359.33 300.00 389.00 C 299.98 392.64 300.01 396.34 300.00 400.00 L 200.01 400.00 C 200.00 397.25 199.99 391.74 199.99 388.99 C 202.74 388.99 208.25 389.00 211.00 389.01 C 211.03 363.01 210.96 337.01 211.01 311.01 C 236.98 310.94 262.95 311.08 288.92 310.94 C 289.09 308.63 289.44 304.01 289.61 301.70 C 291.84 300.90 296.29 299.32 298.52 298.53 C 299.19 296.23 300.53 291.64 301.20 289.34 C 303.64 289.25 308.53 289.05 310.97 288.95 C 311.06 262.97 310.95 236.99 311.01 211.01 C 337.01 210.96 363.01 211.05 389.01 210.98 C 389.01 208.37 389.02 203.17 389.03 200.57 Z" />
</g>
</svg>
