<?xml version="1.0" encoding="UTF-8" ?>
<!DOCTYPE svg PUBLIC "-//W3C//DTD SVG 1.1//EN" "http://www.w3.org/Graphics/SVG/1.1/DTD/svg11.dtd">
<svg width="473pt" height="473pt" viewBox="0 0 473 473" version="1.1" xmlns="http://www.w3.org/2000/svg">
<g id="#0e0905ff">
<path fill="#0e0905" opacity="1.00" d=" M 0.00 0.00 L 0.77 0.00 C 2.59 1.67 4.25 3.50 6.05 5.19 C 6.29 5.39 6.77 5.79 7.02 5.99 C 9.09 6.29 11.17 6.54 13.26 6.68 C 12.54 6.68 11.10 6.67 10.39 6.67 C 9.71 7.06 9.03 7.46 8.37 7.87 C 19.74 18.35 30.20 29.79 41.43 40.42 C 42.64 41.57 43.83 42.73 45.01 43.91 C 50.29 49.29 55.70 54.54 60.96 59.93 C 178.91 60.03 296.86 60.06 414.80 59.90 C 423.07 51.59 431.37 43.31 439.63 34.99 C 441.22 33.42 442.81 31.84 444.40 30.26 C 453.99 20.61 463.36 10.74 473.00 1.14 L 473.00 4.21 C 464.78 12.64 456.27 20.79 447.90 29.08 C 444.99 31.98 442.09 34.89 439.21 37.81 C 431.15 45.84 423.09 53.87 415.06 61.94 C 414.94 78.67 415.03 95.40 415.00 112.13 C 415.03 117.18 414.98 122.22 415.01 127.27 C 415.02 142.30 414.98 157.33 415.01 172.36 C 415.00 174.88 414.99 177.40 415.00 179.93 C 415.00 191.41 415.00 202.90 415.00 214.39 C 415.01 217.58 415.05 220.77 415.04 223.96 C 414.99 230.35 414.99 236.75 415.00 243.14 C 415.00 244.40 415.00 245.67 415.01 246.94 C 415.01 247.66 415.01 249.10 415.01 249.82 C 414.83 255.61 415.47 261.44 414.52 267.18 C 429.35 267.62 444.19 267.30 459.02 267.40 C 463.71 267.45 468.32 266.46 473.00 266.28 L 473.00 266.73 C 472.08 266.98 471.16 267.23 470.26 267.50 C 454.20 267.44 438.09 267.80 422.01 267.50 C 419.47 267.41 416.91 267.76 414.52 268.64 C 415.24 272.76 415.01 276.94 415.00 281.10 C 415.00 281.63 415.00 282.68 415.00 283.20 C 415.00 312.23 415.00 341.26 415.00 370.30 C 414.99 371.38 414.99 372.46 415.00 373.55 C 414.99 385.02 415.03 396.50 414.99 407.97 C 415.26 410.48 414.17 413.67 416.38 415.56 C 422.09 421.20 427.76 426.88 433.42 432.59 C 446.47 445.86 459.97 458.69 473.00 471.98 L 473.00 473.00 L 471.22 473.00 C 467.71 469.78 464.54 466.22 461.09 462.94 C 459.28 461.16 457.53 459.32 455.80 457.47 C 447.14 448.42 438.15 439.67 429.27 430.84 C 424.24 425.51 418.78 420.61 413.95 415.10 C 406.06 414.96 398.16 414.96 390.27 415.06 C 320.63 415.01 250.99 414.89 181.35 415.11 C 176.99 415.02 172.63 414.98 168.26 415.02 C 165.30 415.01 162.35 414.97 159.39 415.02 C 126.61 415.01 93.82 414.95 61.04 415.05 C 44.33 432.13 27.08 448.65 10.31 465.67 C 9.05 466.93 7.79 468.20 6.54 469.48 C 5.36 470.68 4.17 471.86 2.93 473.00 L 0.71 473.00 C 2.64 471.17 4.42 469.21 6.30 467.33 C 16.35 457.38 26.32 447.33 36.34 437.34 C 43.89 429.13 51.85 421.30 59.87 413.56 C 59.90 413.14 59.95 412.29 59.98 411.87 C 59.98 411.36 60.00 410.33 60.01 409.82 C 60.00 408.48 60.00 407.15 60.00 405.82 C 60.00 396.94 59.99 388.06 59.98 379.18 C 59.98 376.15 60.00 373.12 60.00 370.10 C 59.98 363.43 59.92 356.76 59.98 350.10 C 60.01 346.43 59.97 342.77 59.98 339.11 L 60.00 338.03 C 60.01 329.19 59.99 320.36 59.95 311.52 C 59.96 310.96 59.97 309.86 59.98 309.30 C 60.03 299.11 59.98 288.91 60.00 278.72 C 60.00 278.10 60.00 276.85 60.00 276.23 C 60.00 271.25 60.00 266.28 59.97 261.31 C 59.97 258.97 59.99 256.64 60.00 254.31 C 60.17 248.48 59.52 242.61 60.48 236.82 C 50.62 236.73 40.75 236.34 30.89 236.79 C 38.93 235.91 47.03 236.61 55.10 236.43 C 56.95 236.36 58.77 235.95 60.51 235.35 C 59.99 232.40 59.90 229.41 59.97 226.44 C 60.02 220.83 60.00 215.22 59.99 209.61 C 59.98 208.92 59.98 207.53 59.97 206.84 C 59.99 199.90 60.01 192.96 60.00 186.03 C 60.00 185.29 60.00 183.80 60.00 183.06 C 59.96 174.92 60.04 166.79 59.97 158.65 C 52.61 158.67 45.25 158.46 37.90 158.80 C 45.25 158.11 52.63 158.51 60.00 158.44 C 60.00 157.04 60.00 155.63 60.00 154.23 C 60.00 153.39 60.00 151.71 60.00 150.87 C 60.00 150.17 60.00 148.75 60.00 148.05 C 60.00 134.00 59.97 119.94 60.00 105.89 C 60.00 103.24 59.98 100.60 59.99 97.96 C 60.00 95.23 60.00 92.51 60.00 89.79 C 60.01 85.50 59.98 81.20 59.98 76.91 C 59.73 71.79 60.56 66.50 59.55 61.49 C 53.40 55.02 46.87 48.88 40.66 42.44 C 39.72 41.43 38.81 40.40 37.86 39.39 C 25.36 26.58 12.36 14.25 0.00 1.30 L 0.00 0.00 M 62.01 62.01 C 62.01 67.19 62.01 72.38 62.01 77.57 C 62.03 79.58 62.04 81.58 62.08 83.59 C 62.11 88.34 61.95 93.09 62.03 97.84 C 62.04 100.94 62.00 104.04 62.00 107.15 C 62.02 120.85 62.01 134.54 62.00 148.24 C 62.00 148.90 62.00 150.22 62.00 150.89 C 62.00 151.75 62.00 153.46 62.00 154.32 C 62.01 155.91 62.02 157.50 62.03 159.10 C 61.97 167.13 62.00 175.17 62.01 183.21 C 62.02 183.82 62.04 185.05 62.05 185.66 C 61.97 191.73 62.02 197.80 62.00 203.87 C 62.01 205.59 62.02 207.32 62.04 209.04 C 61.98 215.05 61.99 221.06 62.03 227.06 C 62.03 230.00 62.02 232.93 62.02 235.86 L 62.02 236.98 C 62.00 242.96 61.99 248.94 62.02 254.91 C 62.01 257.23 62.03 259.54 62.04 261.86 C 61.93 266.66 62.10 271.46 61.91 276.26 C 61.97 276.68 62.08 277.54 62.14 277.96 C 61.83 288.40 62.08 298.85 62.00 309.29 C 62.00 310.46 62.00 311.64 61.99 312.83 C 62.00 313.63 62.01 315.24 62.02 316.05 C 61.97 323.45 62.04 330.85 62.00 338.26 C 62.05 351.82 61.96 365.39 62.05 378.96 C 62.10 389.32 61.72 399.70 62.26 410.05 L 61.76 411.05 C 61.84 411.53 61.99 412.50 62.07 412.98 C 101.63 412.96 141.20 413.12 180.75 412.90 C 186.02 412.95 191.32 413.24 196.57 412.80 C 205.05 413.11 213.53 412.91 222.01 413.00 C 279.78 412.89 337.56 413.20 395.33 412.83 C 401.22 413.15 407.11 412.93 413.00 413.00 C 412.99 411.52 412.98 410.04 412.96 408.57 C 413.02 396.74 413.00 384.91 412.98 373.09 C 412.98 372.40 412.99 371.02 413.00 370.33 C 413.00 341.11 413.00 311.89 413.00 282.67 C 413.00 282.32 413.00 281.62 413.00 281.27 C 412.99 276.76 413.00 272.25 413.00 267.75 C 413.00 267.37 413.00 266.62 413.00 266.25 C 413.00 260.81 412.98 255.38 413.00 249.95 C 412.99 248.46 413.00 246.97 413.00 245.49 C 413.00 244.89 413.00 243.70 413.00 243.10 C 413.01 236.70 412.98 230.31 412.99 223.92 C 413.00 221.12 413.00 218.32 413.00 215.52 C 412.98 188.14 412.99 160.76 413.00 133.38 C 413.04 126.25 412.89 119.13 413.00 112.00 C 412.92 95.37 413.14 78.74 412.88 62.11 C 295.92 61.86 178.96 62.07 62.01 62.01 Z" />
</g>
<g id="#d78c54ff">
<path fill="#d78c54" opacity="1.00" d=" M 0.77 0.00 L 75.45 0.00 C 72.68 0.79 69.87 1.53 66.97 1.55 C 46.69 3.08 26.38 4.22 6.05 5.19 C 4.25 3.50 2.59 1.67 0.77 0.00 Z" />
</g>
<g id="#bd6d3dff">
<path fill="#bd6d3d" opacity="1.00" d=" M 75.45 0.00 L 117.11 0.00 C 117.48 4.26 122.45 2.93 125.07 4.98 C 127.61 6.84 131.20 5.67 133.55 7.93 C 125.86 10.60 117.60 8.12 109.81 10.11 C 109.25 11.81 108.67 13.51 108.10 15.21 C 110.25 14.72 112.36 13.91 114.57 13.82 C 117.38 14.35 120.05 15.59 122.95 15.66 C 129.66 15.89 136.38 16.47 143.10 16.14 C 143.72 17.12 144.34 18.11 144.95 19.10 C 140.67 20.90 135.87 21.84 131.37 20.18 C 133.66 19.64 135.92 18.99 138.18 18.34 C 123.82 16.54 109.14 18.59 94.95 15.39 C 94.65 14.53 94.35 13.68 94.05 12.83 C 91.67 12.01 89.30 11.18 86.94 10.30 C 95.11 6.86 104.22 9.10 112.67 6.85 C 112.62 5.47 112.60 4.08 112.34 2.72 C 109.52 1.08 106.15 1.25 103.00 1.15 C 92.99 0.95 83.00 1.91 73.05 2.96 C 63.44 4.48 53.70 4.23 44.03 5.00 C 33.75 5.19 23.54 6.76 13.26 6.68 C 11.17 6.54 9.09 6.29 7.02 5.99 C 6.77 5.79 6.29 5.39 6.05 5.19 C 26.38 4.22 46.69 3.08 66.97 1.55 C 69.87 1.53 72.68 0.79 75.45 0.00 Z" />
<path fill="#bd6d3d" opacity="1.00" d=" M 214.05 310.33 C 220.42 310.11 226.59 308.07 233.00 308.28 C 245.35 308.46 257.69 309.22 270.05 309.13 C 282.39 309.71 294.66 307.56 307.00 308.14 C 319.04 308.21 331.13 308.41 343.07 310.13 C 344.21 310.31 346.59 310.71 345.35 312.35 C 342.34 314.56 338.31 314.84 335.25 317.05 C 338.88 318.19 342.60 318.94 346.34 319.62 C 346.47 320.04 346.74 320.89 346.87 321.31 C 344.20 321.83 341.08 321.84 339.42 324.37 C 343.52 325.12 347.65 325.64 351.80 326.04 C 350.68 326.87 349.64 328.21 348.06 327.98 C 343.67 327.92 339.39 326.65 334.99 326.63 C 329.16 326.22 323.17 327.14 317.52 325.27 C 319.06 323.57 320.46 321.13 323.06 321.10 C 325.56 320.66 327.36 322.81 329.32 323.97 C 329.53 322.75 330.30 321.52 329.86 320.28 C 324.78 318.73 319.31 320.51 314.31 318.62 C 308.50 316.32 302.29 319.32 296.29 318.19 C 291.47 317.21 286.65 318.12 281.84 318.53 C 271.57 318.19 261.30 318.86 251.03 318.45 C 243.73 318.02 236.43 319.31 229.14 318.57 C 226.22 318.26 223.48 317.08 220.57 316.75 C 218.37 316.98 216.26 317.83 214.05 317.99 C 209.37 318.32 204.79 316.44 200.12 317.04 C 194.66 317.70 189.15 317.27 183.66 317.52 C 176.63 317.79 169.87 315.19 162.84 315.54 C 157.08 315.79 151.43 314.21 145.67 314.49 C 124.36 313.23 102.82 315.01 81.66 311.64 C 77.44 311.71 73.21 312.93 68.99 311.97 C 66.60 311.29 64.21 311.89 61.99 312.83 C 62.00 311.64 62.00 310.46 62.00 309.29 C 72.87 309.08 83.70 309.69 94.53 310.68 C 114.31 312.60 134.21 312.01 154.06 312.37 C 161.04 312.89 168.03 313.34 175.04 313.35 C 188.13 314.04 201.03 311.10 214.05 310.33 Z" />
<path fill="#bd6d3d" opacity="1.00" d=" M 273.09 366.42 C 276.49 365.89 279.90 365.46 283.33 365.19 C 283.74 367.83 283.82 371.66 287.38 371.73 C 290.08 372.33 292.79 372.91 295.45 373.69 C 291.79 375.98 287.21 375.47 283.09 375.74 C 283.23 374.98 283.37 374.22 283.52 373.46 C 280.28 373.41 277.12 372.72 274.09 371.63 C 275.34 370.87 276.59 370.12 277.84 369.38 C 276.26 368.39 274.67 367.41 273.09 366.42 Z" />
</g>
<g id="#cd7e4aff">
<path fill="#cd7e4a" opacity="1.00" d=" M 117.11 0.00 L 218.47 0.00 C 211.12 1.96 203.47 1.64 196.01 2.82 C 189.40 3.97 182.63 2.18 176.10 4.01 C 172.48 5.19 167.98 2.87 165.14 6.05 C 168.31 9.18 172.94 7.99 176.92 8.56 C 181.61 9.18 186.32 9.34 191.04 9.45 C 192.79 9.32 193.94 10.79 195.22 11.73 C 189.96 13.13 184.47 12.73 179.10 13.08 C 171.03 13.46 163.06 11.71 155.00 11.73 C 148.91 11.81 142.67 10.23 136.71 12.17 C 140.82 15.54 146.49 13.82 151.35 14.61 C 161.87 16.10 172.54 16.03 183.04 17.76 C 186.81 18.58 191.83 16.90 194.40 20.55 C 179.22 22.17 163.26 19.52 148.80 25.57 C 153.83 27.50 159.28 28.26 164.63 27.54 C 178.86 26.24 193.10 28.92 207.34 27.92 C 214.24 28.29 221.05 29.70 227.95 30.11 C 233.87 30.17 239.80 30.26 245.72 29.95 C 246.67 29.03 247.64 28.11 248.61 27.20 C 249.14 27.68 249.70 28.13 250.27 28.57 C 255.32 29.13 260.02 25.62 265.06 26.92 C 268.00 27.58 271.01 27.42 273.97 26.96 C 278.08 26.13 282.07 28.19 286.21 27.47 C 289.27 26.84 292.00 28.40 294.15 30.43 C 295.01 30.18 295.87 29.93 296.73 29.67 C 301.90 31.83 307.55 30.81 312.97 31.20 C 316.42 31.49 319.87 31.12 323.31 30.87 C 342.21 30.85 361.18 31.72 380.02 29.78 C 393.12 28.47 406.30 29.03 419.44 28.77 C 420.51 29.50 421.45 30.51 422.69 30.95 C 423.66 30.24 424.61 29.50 425.53 28.73 C 431.75 29.96 438.10 29.95 444.40 30.26 C 442.81 31.84 441.22 33.42 439.63 34.99 C 436.69 34.45 433.72 33.83 430.71 33.91 C 418.57 34.44 406.41 34.41 394.28 33.79 C 386.79 33.62 379.40 35.09 371.99 35.91 C 369.51 36.09 367.22 37.05 365.03 38.15 C 360.19 36.08 354.98 37.97 349.95 37.70 C 343.27 37.45 336.64 38.81 329.96 38.14 C 325.88 37.77 321.94 39.14 317.90 39.34 C 304.59 39.21 291.27 39.41 277.96 38.75 C 268.27 38.23 258.68 39.98 248.99 39.80 C 242.33 41.04 235.62 39.42 228.97 40.48 C 224.66 40.91 220.33 41.25 216.12 42.29 C 217.05 42.95 217.99 43.61 218.92 44.28 C 215.52 42.85 212.10 41.06 208.30 41.26 C 200.98 41.34 193.66 41.20 186.39 40.31 C 180.27 39.37 174.17 41.00 168.04 40.61 C 161.33 40.26 154.69 41.39 148.02 41.82 C 143.80 41.93 140.10 44.41 135.87 44.54 C 117.09 46.95 98.17 44.86 79.34 44.55 C 73.63 44.19 67.90 44.19 62.19 43.83 C 62.58 43.43 63.35 42.63 63.74 42.23 C 68.83 42.54 73.94 42.38 79.03 42.86 C 83.47 43.25 87.98 43.52 92.37 42.51 C 92.07 41.96 91.48 40.87 91.18 40.32 C 91.69 40.31 92.71 40.30 93.22 40.29 C 96.36 43.94 101.03 41.29 105.00 41.45 C 108.42 41.57 111.81 41.20 115.16 40.57 C 129.42 39.41 143.75 39.83 158.05 39.17 C 161.00 39.18 163.70 37.89 166.25 36.54 C 160.77 32.54 153.69 36.05 147.50 35.37 C 136.67 33.89 125.72 34.78 114.85 34.00 C 112.94 31.55 109.81 32.26 107.13 32.29 C 106.05 32.21 104.42 32.79 104.18 31.25 C 107.27 27.53 112.06 29.63 116.10 29.06 C 120.87 28.45 125.76 29.23 130.45 27.93 C 130.14 27.02 129.82 26.11 129.51 25.20 C 137.15 23.70 144.48 20.60 152.33 20.21 C 159.24 19.49 166.35 20.36 173.13 18.66 C 163.18 17.33 153.14 16.24 143.10 16.14 C 136.38 16.47 129.66 15.89 122.95 15.66 C 120.05 15.59 117.38 14.35 114.57 13.82 C 112.36 13.91 110.25 14.72 108.10 15.21 C 108.67 13.51 109.25 11.81 109.81 10.11 C 117.60 8.12 125.86 10.60 133.55 7.93 C 131.20 5.67 127.61 6.84 125.07 4.98 C 122.45 2.93 117.48 4.26 117.11 0.00 M 177.31 31.24 C 173.19 31.64 169.97 34.42 166.78 36.79 C 170.99 39.52 175.59 35.77 180.07 37.07 C 183.01 37.98 185.80 36.84 187.55 34.38 C 190.85 36.71 194.96 36.23 198.76 36.00 C 198.28 35.31 197.79 34.63 197.31 33.95 C 198.22 33.01 199.13 32.08 200.04 31.13 C 196.72 30.42 193.34 30.64 190.05 31.40 C 186.14 29.02 181.50 30.70 177.31 31.24 M 321.05 33.04 C 311.93 33.00 302.81 33.62 293.69 33.57 C 292.49 33.92 291.73 35.00 290.82 35.77 C 296.11 36.57 301.89 37.84 306.93 35.37 C 308.83 36.32 310.84 37.19 313.03 36.96 C 326.33 36.63 339.68 37.22 352.94 35.85 C 356.92 35.26 362.48 37.26 365.22 33.48 C 355.92 31.78 346.39 32.17 337.02 32.85 C 331.70 32.06 326.37 32.47 321.05 33.04 Z" />
</g>
<g id="#d88a52ff">
<path fill="#d88a52" opacity="1.00" d=" M 218.47 0.00 L 473.00 0.00 L 473.00 1.14 C 463.36 10.74 453.99 20.61 444.40 30.26 C 438.10 29.95 431.75 29.96 425.53 28.73 C 424.65 27.81 423.78 26.86 422.81 26.03 C 421.30 26.15 420.55 27.91 419.44 28.77 C 406.30 29.03 393.12 28.47 380.02 29.78 C 361.18 31.72 342.21 30.85 323.31 30.87 C 319.87 31.12 316.42 31.49 312.97 31.20 C 307.55 30.81 301.90 31.83 296.73 29.67 C 295.87 29.93 295.01 30.18 294.15 30.43 C 292.00 28.40 289.27 26.84 286.21 27.47 C 282.07 28.19 278.08 26.13 273.97 26.96 C 271.01 27.42 268.00 27.58 265.06 26.92 C 260.02 25.62 255.32 29.13 250.27 28.57 C 249.70 28.13 249.14 27.68 248.61 27.20 C 247.64 28.11 246.67 29.03 245.72 29.95 C 239.80 30.26 233.87 30.17 227.95 30.11 C 221.05 29.70 214.24 28.29 207.34 27.92 C 193.10 28.92 178.86 26.24 164.63 27.54 C 159.28 28.26 153.83 27.50 148.80 25.57 C 163.26 19.52 179.22 22.17 194.40 20.55 C 191.83 16.90 186.81 18.58 183.04 17.76 C 172.54 16.03 161.87 16.10 151.35 14.61 C 146.49 13.82 140.82 15.54 136.71 12.17 C 142.67 10.23 148.91 11.81 155.00 11.73 C 163.06 11.71 171.03 13.46 179.10 13.08 C 184.47 12.73 189.96 13.13 195.22 11.73 C 193.94 10.79 192.79 9.32 191.04 9.45 C 186.32 9.34 181.61 9.18 176.92 8.56 C 172.94 7.99 168.31 9.18 165.14 6.05 C 167.98 2.87 172.48 5.19 176.10 4.01 C 182.63 2.18 189.40 3.97 196.01 2.82 C 203.47 1.64 211.12 1.96 218.47 0.00 M 434.66 14.79 C 435.68 15.47 436.46 16.73 437.75 16.94 C 438.63 16.25 439.48 15.53 440.32 14.77 C 439.53 13.81 438.78 12.82 437.85 12.00 C 436.29 12.09 435.64 13.83 434.66 14.79 Z" />
</g>
<g id="#d8844bff">
<path fill="#d8844b" opacity="1.00" d=" M 73.05 2.96 C 83.00 1.91 92.99 0.95 103.00 1.15 C 106.15 1.25 109.52 1.08 112.34 2.72 C 112.60 4.08 112.62 5.47 112.67 6.85 C 104.22 9.10 95.11 6.86 86.94 10.30 C 89.30 11.18 91.67 12.01 94.05 12.83 C 94.35 13.68 94.65 14.53 94.95 15.39 C 109.14 18.59 123.82 16.54 138.18 18.34 C 135.92 18.99 133.66 19.64 131.37 20.18 C 123.49 20.06 115.82 22.22 107.99 22.81 C 96.62 23.73 85.50 26.43 74.12 27.21 C 66.63 28.46 59.04 28.83 51.46 28.93 C 50.43 27.87 49.67 26.33 48.18 25.87 C 47.29 26.83 46.51 27.86 45.72 28.90 C 43.40 29.58 41.07 30.21 38.74 30.87 C 43.06 32.66 47.52 34.08 51.92 35.60 C 66.89 37.02 81.94 34.71 96.93 35.54 C 102.27 35.86 107.61 35.81 112.95 36.00 C 117.40 36.16 122.01 35.79 126.22 37.54 C 115.26 38.84 104.26 40.08 93.22 40.29 C 92.71 40.30 91.69 40.31 91.18 40.32 C 81.50 41.22 71.78 40.58 62.08 41.02 C 61.42 40.63 60.75 40.27 60.06 39.93 C 53.86 40.57 47.64 40.17 41.43 40.42 C 30.20 29.79 19.74 18.35 8.37 7.87 C 9.03 7.46 9.71 7.06 10.39 6.67 C 11.10 6.67 12.54 6.68 13.26 6.68 C 23.54 6.76 33.75 5.19 44.03 5.00 C 53.70 4.23 63.44 4.48 73.05 2.96 M 30.71 14.24 C 31.55 15.28 32.40 16.31 33.25 17.34 C 34.35 16.43 35.37 15.43 36.28 14.33 C 35.41 13.48 34.54 12.63 33.67 11.78 C 32.68 12.59 31.69 13.42 30.71 14.24 Z" />
<path fill="#d8844b" opacity="1.00" d=" M 0.00 1.30 C 12.36 14.25 25.36 26.58 37.86 39.39 C 25.32 41.40 12.62 38.31 0.00 39.24 L 0.00 1.30 M 11.31 29.74 C 10.46 30.60 9.60 31.46 8.75 32.31 C 9.50 33.23 10.20 34.21 11.14 34.96 C 12.52 34.87 13.28 33.43 14.36 32.74 C 13.44 31.64 12.43 30.64 11.31 29.74 Z" />
<path fill="#d8844b" opacity="1.00" d=" M 415.01 127.27 C 419.27 127.90 423.79 127.97 427.58 125.59 C 427.60 126.84 427.58 128.10 427.75 129.34 C 430.68 130.29 433.95 129.43 437.01 129.86 C 443.08 130.57 449.14 129.40 455.22 129.73 C 461.15 129.99 467.14 128.54 473.00 129.97 L 473.00 157.32 C 467.39 156.91 461.56 157.17 456.79 160.49 C 446.76 161.65 436.64 163.40 427.24 167.24 C 423.29 169.25 419.38 171.42 415.01 172.36 C 414.98 157.33 415.02 142.30 415.01 127.27 Z" />
<path fill="#d8844b" opacity="1.00" d=" M 415.00 179.93 C 418.65 181.21 422.29 182.52 425.87 183.97 C 433.70 187.75 442.48 188.81 450.99 190.00 C 458.35 189.81 465.62 188.26 473.00 188.02 L 473.00 217.47 C 460.66 217.01 448.38 214.94 436.00 215.29 C 428.99 215.38 421.99 214.83 415.00 214.39 C 415.00 202.90 415.00 191.41 415.00 179.93 Z" />
<path fill="#d8844b" opacity="1.00" d=" M 62.14 277.96 C 74.06 279.55 86.06 280.54 98.07 281.12 C 104.98 281.25 111.92 281.17 118.80 281.67 C 125.93 284.37 133.26 287.55 141.06 287.17 C 153.81 287.25 166.57 286.83 179.28 287.93 C 186.10 288.15 192.90 288.89 199.73 288.89 C 202.73 288.93 205.63 290.13 208.65 289.64 C 208.28 288.97 207.53 287.63 207.16 286.97 C 217.87 286.76 228.61 286.50 239.29 287.33 C 231.55 288.11 223.78 287.78 216.02 287.56 C 213.58 287.39 211.18 287.98 208.98 289.01 C 214.01 291.99 219.69 289.10 225.07 289.91 C 230.70 290.81 236.34 289.31 241.99 289.88 C 247.69 290.43 253.37 289.22 259.08 289.74 C 271.04 289.37 283.05 289.52 294.93 287.86 C 300.12 286.99 305.53 286.88 310.36 284.58 L 310.59 284.57 C 318.66 287.49 326.89 283.72 335.05 283.49 C 343.35 283.29 351.67 283.66 359.97 283.10 C 377.61 281.63 395.33 282.91 413.00 282.67 C 413.00 311.89 413.00 341.11 413.00 370.33 C 406.35 371.23 399.60 370.78 392.95 371.74 C 386.28 372.57 379.77 374.45 373.04 374.86 C 365.32 375.19 357.64 376.02 349.93 376.52 C 353.57 377.57 357.18 378.72 360.74 380.02 C 356.28 381.89 351.45 382.34 346.66 382.15 C 345.46 382.18 344.27 382.26 343.09 382.39 C 333.05 384.02 322.93 385.12 312.97 387.16 C 304.97 388.85 296.73 388.91 288.78 390.78 C 284.34 391.79 280.22 393.89 275.73 394.72 C 268.58 396.08 261.28 396.15 254.06 396.84 C 248.12 397.41 242.07 397.01 236.24 398.45 C 234.06 398.89 233.19 401.48 231.06 401.96 C 222.19 403.73 212.97 403.48 204.26 406.13 C 196.47 408.54 188.76 411.28 180.75 412.90 C 141.20 413.12 101.63 412.96 62.07 412.98 C 61.99 412.50 61.84 411.53 61.76 411.05 C 73.56 410.89 85.34 409.91 97.07 408.66 C 108.27 407.85 119.52 407.74 130.70 406.64 C 135.40 406.12 139.53 403.75 143.68 401.68 C 148.61 399.24 154.24 399.05 159.38 397.24 C 163.55 395.82 167.40 393.32 171.88 392.88 C 178.18 392.14 184.57 391.58 190.59 389.44 C 199.95 385.98 210.13 386.33 219.68 383.66 C 231.32 380.69 243.63 381.77 255.14 378.19 C 263.74 376.05 272.72 376.59 281.49 375.73 C 281.89 375.74 282.69 375.74 283.09 375.74 C 287.21 375.47 291.79 375.98 295.45 373.69 C 292.79 372.91 290.08 372.33 287.38 371.73 C 289.01 369.78 290.86 367.98 293.13 366.79 C 294.53 366.43 295.94 366.09 297.35 365.74 L 297.43 365.72 C 300.55 365.42 303.69 365.25 306.82 365.05 C 309.00 364.92 311.17 364.72 313.35 364.52 C 323.20 363.98 333.07 363.06 342.94 363.82 C 352.36 363.63 362.03 364.20 371.18 361.61 C 365.04 359.63 358.42 360.21 352.33 358.03 C 360.80 352.19 371.63 352.83 381.37 351.21 C 377.32 349.46 372.72 350.02 368.63 348.40 C 366.73 347.90 367.01 345.63 366.58 344.15 C 376.46 339.90 387.45 340.51 397.65 337.52 C 397.63 336.22 397.61 334.92 397.61 333.63 C 391.66 333.24 385.67 332.79 379.91 331.19 C 372.46 329.14 364.73 328.52 357.22 326.77 C 355.43 326.43 353.61 326.21 351.80 326.04 C 347.65 325.64 343.52 325.12 339.42 324.37 C 341.08 321.84 344.20 321.83 346.87 321.31 C 346.74 320.89 346.47 320.04 346.34 319.62 C 342.60 318.94 338.88 318.19 335.25 317.05 C 338.31 314.84 342.34 314.56 345.35 312.35 C 346.59 310.71 344.21 310.31 343.07 310.13 C 331.13 308.41 319.04 308.21 307.00 308.14 C 294.66 307.56 282.39 309.71 270.05 309.13 C 257.69 309.22 245.35 308.46 233.00 308.28 C 226.59 308.07 220.42 310.11 214.05 310.33 C 201.03 311.10 188.13 314.04 175.04 313.35 C 168.03 313.34 161.04 312.89 154.06 312.37 C 134.21 312.01 114.31 312.60 94.53 310.68 C 83.70 309.69 72.87 309.08 62.00 309.29 C 62.08 298.85 61.83 288.40 62.14 277.96 Z" />
<path fill="#d8844b" opacity="1.00" d=" M 34.00 279.69 C 42.62 278.52 51.32 278.47 60.00 278.72 C 59.98 288.91 60.03 299.11 59.98 309.30 C 55.15 309.85 50.28 309.89 45.46 310.56 C 39.31 311.57 33.32 313.62 27.05 313.87 C 18.04 314.32 9.02 314.27 0.00 314.15 L 0.00 280.51 C 11.33 280.46 22.73 281.27 34.00 279.69 Z" />
<path fill="#d8844b" opacity="1.00" d=" M 439.03 282.22 C 450.10 282.70 461.19 280.71 472.22 282.34 C 472.42 282.16 472.81 281.81 473.00 281.64 L 473.00 282.14 L 472.58 286.28 C 470.81 285.47 469.01 284.20 466.97 284.84 C 461.78 286.01 456.48 286.48 451.21 287.11 C 443.75 288.45 435.88 286.67 428.70 289.61 C 435.03 291.21 441.63 290.33 448.04 291.53 C 456.34 292.00 464.68 291.72 473.00 292.14 L 473.00 358.40 C 462.86 361.51 452.14 361.25 441.84 363.44 C 444.51 364.73 447.25 365.88 449.97 367.08 C 445.01 369.49 439.37 369.56 433.98 369.95 C 427.65 369.99 421.33 370.44 415.00 370.30 C 415.00 341.26 415.00 312.23 415.00 283.20 C 423.01 282.95 430.99 281.88 439.03 282.22 Z" />
<path fill="#d8844b" opacity="1.00" d=" M 61.04 415.05 C 93.82 414.95 126.61 415.01 159.39 415.02 C 153.79 417.47 147.68 419.01 142.71 422.69 C 150.74 427.96 160.87 425.44 169.58 428.52 C 170.53 429.12 171.37 429.89 172.25 430.61 C 168.32 431.59 164.30 432.08 160.28 432.33 C 158.83 432.41 157.38 432.49 155.93 432.64 C 152.00 433.14 148.12 434.00 144.27 434.94 C 138.88 435.38 133.39 436.13 128.58 438.81 C 128.86 439.64 129.13 440.48 129.41 441.32 C 128.50 441.94 127.59 442.57 126.66 443.18 C 119.10 442.53 111.51 443.17 103.94 443.02 C 96.91 443.25 89.81 442.82 82.85 444.07 C 88.21 447.61 94.50 449.06 100.63 450.61 C 102.96 451.06 102.43 454.77 105.12 454.82 C 114.91 457.13 125.08 455.85 135.04 456.16 C 145.89 455.49 156.80 455.26 167.62 456.55 C 177.09 457.73 186.78 457.43 196.03 460.03 C 209.70 461.51 223.49 458.80 237.15 460.62 C 230.60 462.64 223.70 462.27 216.94 462.28 C 199.30 463.21 181.61 462.66 163.99 464.06 C 136.62 464.04 109.40 468.40 82.00 467.18 C 73.00 466.68 63.99 467.48 54.99 467.02 C 42.02 465.93 28.99 466.29 15.99 466.30 C 14.08 466.24 12.20 465.96 10.31 465.67 C 27.08 448.65 44.33 432.13 61.04 415.05 M 59.21 431.10 C 58.34 431.76 57.49 432.46 56.68 433.20 C 57.64 434.16 58.28 435.94 59.85 435.98 C 60.68 435.19 61.98 434.43 61.98 433.15 C 61.19 432.38 60.48 430.97 59.21 431.10 M 45.06 444.13 C 44.96 445.71 46.87 446.34 47.79 447.33 C 48.53 446.51 49.23 445.66 49.89 444.79 C 50.05 443.52 48.63 442.79 47.84 442.05 C 46.55 441.92 45.83 443.34 45.06 444.13 M 32.05 457.15 C 31.98 458.70 33.86 459.33 34.76 460.33 C 35.51 459.51 36.23 458.66 36.91 457.79 C 37.03 456.51 35.63 455.79 34.84 455.03 C 33.55 454.99 32.81 456.31 32.05 457.15 Z" />
</g>
<g id="#d98952ff">
<path fill="#d98952" opacity="1.00" d=" M 447.90 29.08 C 456.27 20.79 464.78 12.64 473.00 4.21 L 473.00 30.81 C 467.68 30.90 462.36 30.89 457.04 31.08 C 453.89 31.11 450.28 31.67 447.90 29.08 Z" />
</g>
<g id="#080503ff">
<path fill="#080503" opacity="1.00" d=" M 30.71 14.24 C 31.69 13.42 32.68 12.59 33.67 11.78 C 34.54 12.63 35.41 13.48 36.28 14.33 C 35.37 15.43 34.35 16.43 33.25 17.34 C 32.40 16.31 31.55 15.28 30.71 14.24 Z" />
<path fill="#080503" opacity="1.00" d=" M 434.66 14.79 C 435.64 13.83 436.29 12.09 437.85 12.00 C 438.78 12.82 439.53 13.81 440.32 14.77 C 439.48 15.53 438.63 16.25 437.75 16.94 C 436.46 16.73 435.68 15.47 434.66 14.79 Z" />
<path fill="#080503" opacity="1.00" d=" M 11.31 29.74 C 12.43 30.64 13.44 31.64 14.36 32.74 C 13.28 33.43 12.52 34.87 11.14 34.96 C 10.20 34.21 9.50 33.23 8.75 32.31 C 9.60 31.46 10.46 30.60 11.31 29.74 Z" />
<path fill="#080503" opacity="1.00" d=" M 444.73 52.64 C 445.63 51.61 446.60 50.63 447.63 49.72 C 448.50 50.60 449.39 51.48 450.28 52.36 C 449.36 53.40 448.38 54.37 447.35 55.28 C 446.47 54.40 445.60 53.52 444.73 52.64 Z" />
<path fill="#080503" opacity="1.00" d=" M 27.22 422.70 C 28.25 423.53 29.27 424.36 30.29 425.21 C 29.46 426.24 28.62 427.27 27.78 428.30 C 26.76 427.47 25.74 426.63 24.72 425.79 C 25.55 424.75 26.38 423.72 27.22 422.70 Z" />
<path fill="#080503" opacity="1.00" d=" M 59.21 431.10 C 60.48 430.97 61.19 432.38 61.98 433.15 C 61.98 434.43 60.68 435.19 59.85 435.98 C 58.28 435.94 57.64 434.16 56.68 433.20 C 57.49 432.46 58.34 431.76 59.21 431.10 Z" />
<path fill="#080503" opacity="1.00" d=" M 14.21 435.66 C 15.38 436.56 16.44 437.61 17.36 438.79 C 16.30 439.50 15.48 440.72 14.17 441.00 C 13.38 440.36 12.67 439.65 12.06 438.85 C 12.16 437.50 13.54 436.72 14.21 435.66 Z" />
<path fill="#080503" opacity="1.00" d=" M 45.06 444.13 C 45.83 443.34 46.55 441.92 47.84 442.05 C 48.63 442.79 50.05 443.52 49.89 444.79 C 49.23 445.66 48.53 446.51 47.79 447.33 C 46.87 446.34 44.96 445.71 45.06 444.13 Z" />
<path fill="#080503" opacity="1.00" d=" M 32.05 457.15 C 32.81 456.31 33.55 454.99 34.84 455.03 C 35.63 455.79 37.03 456.51 36.91 457.79 C 36.23 458.66 35.51 459.51 34.76 460.33 C 33.86 459.33 31.98 458.70 32.05 457.15 Z" />
</g>
<g id="#c27544ff">
<path fill="#c27544" opacity="1.00" d=" M 143.10 16.14 C 153.14 16.24 163.18 17.33 173.13 18.66 C 166.35 20.36 159.24 19.49 152.33 20.21 C 144.48 20.60 137.15 23.70 129.51 25.20 C 129.82 26.11 130.14 27.02 130.45 27.93 C 125.76 29.23 120.87 28.45 116.10 29.06 C 112.06 29.63 107.27 27.53 104.18 31.25 C 104.42 32.79 106.05 32.21 107.13 32.29 C 109.81 32.26 112.94 31.55 114.85 34.00 C 108.81 34.07 102.73 33.89 96.87 32.33 C 91.86 30.87 86.63 32.96 81.65 31.37 C 78.58 30.45 75.37 30.68 72.23 31.02 C 72.86 29.75 73.49 28.48 74.12 27.21 C 85.50 26.43 96.62 23.73 107.99 22.81 C 115.82 22.22 123.49 20.06 131.37 20.18 C 135.87 21.84 140.67 20.90 144.95 19.10 C 144.34 18.11 143.72 17.12 143.10 16.14 Z" />
</g>
<g id="#160c07ff">
<path fill="#160c07" opacity="1.00" d=" M 48.18 25.87 C 49.67 26.33 50.43 27.87 51.46 28.93 C 50.40 29.67 49.34 30.43 48.27 31.18 C 47.42 30.42 46.57 29.66 45.72 28.90 C 46.51 27.86 47.29 26.83 48.18 25.87 Z" />
</g>
<g id="#170e09ff">
<path fill="#170e09" opacity="1.00" d=" M 419.44 28.77 C 420.55 27.91 421.30 26.15 422.81 26.03 C 423.78 26.86 424.65 27.81 425.53 28.73 C 424.61 29.50 423.66 30.24 422.69 30.95 C 421.45 30.51 420.51 29.50 419.44 28.77 Z" />
</g>
<g id="#bb6a3bff">
<path fill="#bb6a3b" opacity="1.00" d=" M 51.46 28.93 C 59.04 28.83 66.63 28.46 74.12 27.21 C 73.49 28.48 72.86 29.75 72.23 31.02 C 75.37 30.68 78.58 30.45 81.65 31.37 C 86.63 32.96 91.86 30.87 96.87 32.33 C 102.73 33.89 108.81 34.07 114.85 34.00 C 125.72 34.78 136.67 33.89 147.50 35.37 C 153.69 36.05 160.77 32.54 166.25 36.54 C 163.70 37.89 161.00 39.18 158.05 39.17 C 143.75 39.83 129.42 39.41 115.16 40.57 C 111.81 41.20 108.42 41.57 105.00 41.45 C 101.03 41.29 96.36 43.94 93.22 40.29 C 104.26 40.08 115.26 38.84 126.22 37.54 C 122.01 35.79 117.40 36.16 112.95 36.00 C 107.61 35.81 102.27 35.86 96.93 35.54 C 81.94 34.71 66.89 37.02 51.92 35.60 C 47.52 34.08 43.06 32.66 38.74 30.87 C 41.07 30.21 43.40 29.58 45.72 28.90 C 46.57 29.66 47.42 30.42 48.27 31.18 C 49.34 30.43 50.40 29.67 51.46 28.93 Z" />
</g>
<g id="#ca7d49ff">
<path fill="#ca7d49" opacity="1.00" d=" M 439.21 37.81 C 442.09 34.89 444.99 31.98 447.90 29.08 C 450.28 31.67 453.89 31.11 457.04 31.08 C 462.36 30.89 467.68 30.90 473.00 30.81 L 473.00 38.65 C 470.20 38.33 467.38 38.30 464.56 38.25 C 464.69 38.00 464.94 37.50 465.06 37.25 C 464.28 36.35 463.48 35.46 462.68 34.59 C 461.74 35.43 460.80 36.27 459.90 37.14 C 460.03 37.47 460.29 38.14 460.41 38.47 C 457.30 38.97 454.14 39.42 451.00 38.96 C 447.08 38.43 443.04 39.02 439.21 37.81 Z" />
</g>
<g id="#bc6c3cff">
<path fill="#bc6c3c" opacity="1.00" d=" M 177.31 31.24 C 181.50 30.70 186.14 29.02 190.05 31.40 C 193.34 30.64 196.72 30.42 200.04 31.13 C 199.13 32.08 198.22 33.01 197.31 33.95 C 197.79 34.63 198.28 35.31 198.76 36.00 C 194.96 36.23 190.85 36.71 187.55 34.38 C 185.80 36.84 183.01 37.98 180.07 37.07 C 175.59 35.77 170.99 39.52 166.78 36.79 C 169.97 34.42 173.19 31.64 177.31 31.24 Z" />
</g>
<g id="#c06e3eff">
<path fill="#c06e3e" opacity="1.00" d=" M 321.05 33.04 C 326.37 32.47 331.70 32.06 337.02 32.85 C 346.39 32.17 355.92 31.78 365.22 33.48 C 362.48 37.26 356.92 35.26 352.94 35.85 C 339.68 37.22 326.33 36.63 313.03 36.96 C 310.84 37.19 308.83 36.32 306.93 35.37 C 301.89 37.84 296.11 36.57 290.82 35.77 C 291.73 35.00 292.49 33.92 293.69 33.57 C 302.81 33.62 311.93 33.00 321.05 33.04 Z" />
</g>
<g id="#d88b53ff">
<path fill="#d88b53" opacity="1.00" d=" M 371.99 35.91 C 379.40 35.09 386.79 33.62 394.28 33.79 C 406.41 34.41 418.57 34.44 430.71 33.91 C 433.72 33.83 436.69 34.45 439.63 34.99 C 431.37 43.31 423.07 51.59 414.80 59.90 C 296.86 60.06 178.91 60.03 60.96 59.93 C 55.70 54.54 50.29 49.29 45.01 43.91 C 49.03 42.48 53.32 42.75 57.51 42.94 C 58.92 43.96 60.74 45.96 62.19 43.83 C 67.90 44.19 73.63 44.19 79.34 44.55 C 98.17 44.86 117.09 46.95 135.87 44.54 C 140.10 44.41 143.80 41.93 148.02 41.82 C 154.69 41.39 161.33 40.26 168.04 40.61 C 174.17 41.00 180.27 39.37 186.39 40.31 C 193.66 41.20 200.98 41.34 208.30 41.26 C 212.10 41.06 215.52 42.85 218.92 44.28 C 217.99 43.61 217.05 42.95 216.12 42.29 C 220.33 41.25 224.66 40.91 228.97 40.48 C 235.62 39.42 242.33 41.04 248.99 39.80 C 258.68 39.98 268.27 38.23 277.96 38.75 C 291.27 39.41 304.59 39.21 317.90 39.34 C 321.94 39.14 325.88 37.77 329.96 38.14 C 336.64 38.81 343.27 37.45 349.95 37.70 C 354.98 37.97 360.19 36.08 365.03 38.15 C 367.22 37.05 369.51 36.09 371.99 35.91 M 407.60 41.73 C 408.63 42.58 409.68 43.43 410.73 44.26 C 411.59 43.38 412.46 42.49 413.33 41.61 C 412.55 40.69 411.78 39.75 410.87 38.96 C 409.29 38.86 408.63 40.84 407.60 41.73 Z" />
<path fill="#d88b53" opacity="1.00" d=" M 0.00 157.79 C 7.00 158.11 14.01 158.17 21.02 158.23 C 26.65 158.26 32.26 159.24 37.90 158.80 C 45.25 158.46 52.61 158.67 59.97 158.65 C 60.04 166.79 59.96 174.92 60.00 183.06 C 54.28 183.73 48.42 183.56 42.84 185.17 C 44.68 185.61 46.52 186.03 48.37 186.38 C 37.68 188.32 26.74 187.65 16.01 189.28 C 10.69 190.12 5.33 189.39 0.00 189.03 L 0.00 157.79 Z" />
</g>
<g id="#170f09ff">
<path fill="#170f09" opacity="1.00" d=" M 459.90 37.14 C 460.80 36.27 461.74 35.43 462.68 34.59 C 463.48 35.46 464.28 36.35 465.06 37.25 C 464.94 37.50 464.69 38.00 464.56 38.25 C 464.12 38.78 463.22 39.84 462.78 40.37 C 461.97 39.75 461.19 39.12 460.41 38.47 C 460.29 38.14 460.03 37.47 459.90 37.14 Z" />
<path fill="#170f09" opacity="1.00" d=" M 407.60 41.73 C 408.63 40.84 409.29 38.86 410.87 38.96 C 411.78 39.75 412.55 40.69 413.33 41.61 C 412.46 42.49 411.59 43.38 410.73 44.26 C 409.68 43.43 408.63 42.58 407.60 41.73 Z" />
</g>
<g id="#d78951ff">
<path fill="#d78951" opacity="1.00" d=" M 415.06 61.94 C 423.09 53.87 431.15 45.84 439.21 37.81 C 443.04 39.02 447.08 38.43 451.00 38.96 C 454.14 39.42 457.30 38.97 460.41 38.47 C 461.19 39.12 461.97 39.75 462.78 40.37 C 463.22 39.84 464.12 38.78 464.56 38.25 C 467.38 38.30 470.20 38.33 473.00 38.65 L 473.00 125.39 C 462.78 125.51 452.54 125.17 442.42 123.70 C 442.83 122.87 443.25 122.04 443.68 121.22 C 439.70 120.24 435.62 119.76 431.69 118.61 C 434.06 117.29 436.56 116.22 439.09 115.22 C 431.68 111.44 423.01 112.90 415.00 112.13 C 415.03 95.40 414.94 78.67 415.06 61.94 M 444.73 52.64 C 445.60 53.52 446.47 54.40 447.35 55.28 C 448.38 54.37 449.36 53.40 450.28 52.36 C 449.39 51.48 448.50 50.60 447.63 49.72 C 446.60 50.63 445.63 51.61 444.73 52.64 M 434.21 62.66 C 433.47 63.71 432.24 64.53 431.99 65.85 C 432.82 66.77 433.80 67.54 434.76 68.32 C 435.40 67.24 436.99 66.50 436.92 65.09 C 436.15 64.14 435.14 63.43 434.21 62.66 Z" />
<path fill="#d78951" opacity="1.00" d=" M 392.41 374.61 C 399.30 374.43 406.06 371.86 412.98 373.09 C 413.00 384.91 413.02 396.74 412.96 408.57 C 406.93 408.90 400.55 409.51 395.33 412.83 C 337.56 413.20 279.78 412.89 222.01 413.00 C 213.53 412.91 205.05 413.11 196.57 412.80 C 203.31 410.95 210.51 411.05 217.00 408.23 C 218.84 407.24 219.68 404.54 222.07 404.63 C 226.35 404.44 230.66 404.56 234.92 403.91 C 240.34 403.00 246.25 405.22 251.16 401.95 C 249.12 401.20 247.05 400.57 244.97 400.00 C 248.47 398.30 252.25 398.95 255.95 399.23 C 264.29 398.44 272.66 398.07 280.94 396.72 C 289.14 396.72 296.89 393.91 304.95 392.84 C 309.37 392.02 313.27 389.43 317.78 388.87 C 323.27 387.62 329.08 388.38 334.41 386.37 C 337.86 385.02 342.38 387.13 344.82 383.50 C 344.38 383.22 343.52 382.67 343.09 382.39 C 344.27 382.26 345.46 382.18 346.66 382.15 C 346.57 382.67 346.39 383.71 346.29 384.23 C 351.27 384.58 356.31 384.69 361.20 383.52 C 364.33 382.68 367.55 382.96 370.75 382.88 C 372.75 382.17 373.71 380.03 375.03 378.51 C 372.32 378.28 369.62 377.92 366.95 377.42 C 369.91 376.69 372.95 376.42 376.00 376.41 C 381.53 376.42 386.89 374.75 392.41 374.61 Z" />
<path fill="#d78951" opacity="1.00" d=" M 44.06 382.02 C 49.46 381.71 54.78 380.65 59.98 379.18 C 59.99 388.06 60.00 396.94 60.00 405.82 C 57.88 405.04 55.70 404.17 53.40 404.43 C 47.21 404.91 41.01 405.36 34.79 405.31 C 28.97 405.36 23.42 407.52 17.58 407.51 C 16.49 408.74 15.57 410.44 13.75 410.64 C 9.20 411.63 4.52 411.93 0.00 413.06 L 0.00 392.33 C 14.07 386.78 28.91 382.83 44.06 382.02 Z" />
<path fill="#d78951" opacity="1.00" d=" M 181.35 415.11 C 250.99 414.89 320.63 415.01 390.27 415.06 C 387.25 415.61 384.27 416.43 381.51 417.80 C 388.94 420.31 397.04 419.57 404.37 422.48 C 403.30 423.10 402.38 424.16 401.08 424.22 C 393.18 424.94 384.89 424.73 377.47 427.83 C 386.03 430.48 395.08 428.48 403.79 430.16 C 404.61 431.25 405.44 432.33 406.29 433.41 C 407.33 432.35 408.37 431.29 409.40 430.23 C 416.03 429.85 422.70 429.61 429.27 430.84 C 438.15 439.67 447.14 448.42 455.80 457.47 C 449.93 460.26 443.02 457.02 437.03 459.75 C 437.37 460.87 437.72 461.99 438.06 463.12 C 443.68 463.67 449.20 462.43 454.73 461.68 C 456.94 461.25 459.11 462.02 461.09 462.94 C 464.54 466.22 467.71 469.78 471.22 473.00 L 2.93 473.00 C 4.17 471.86 5.36 470.68 6.54 469.48 C 19.75 469.78 32.99 468.27 46.19 469.44 C 62.76 469.53 79.33 469.87 95.89 469.89 C 110.61 469.92 125.27 468.42 139.98 468.32 C 149.54 467.64 159.19 468.19 168.69 466.71 C 174.79 466.39 180.87 465.23 187.00 465.80 C 197.33 466.64 207.66 465.14 218.00 465.69 C 223.18 466.05 228.22 464.38 233.39 464.52 C 237.40 464.60 241.32 463.39 245.34 463.57 C 252.02 463.91 258.65 462.77 265.32 462.45 C 268.96 462.32 271.02 458.99 273.23 456.59 C 260.46 456.25 247.73 455.03 234.95 454.77 C 224.44 454.56 213.86 453.47 203.40 455.03 C 198.12 454.98 192.84 454.38 187.55 454.50 C 181.60 454.08 175.61 454.14 169.70 453.24 C 172.68 451.08 176.50 451.74 179.92 451.04 C 182.77 450.67 185.37 449.34 187.81 447.87 C 184.79 447.45 181.77 447.09 178.78 446.50 C 182.04 443.84 186.39 444.15 190.34 444.14 C 193.26 444.25 195.74 442.50 198.22 441.22 C 193.32 440.22 188.11 439.65 184.10 436.36 C 189.41 436.66 194.74 435.60 199.23 432.65 C 197.39 430.42 194.54 429.79 192.04 428.66 C 189.86 427.60 188.60 424.86 185.95 424.85 C 178.93 424.59 172.09 422.83 165.08 422.45 C 165.27 422.07 165.65 421.32 165.84 420.94 C 171.08 419.17 176.06 416.73 181.35 415.11 M 415.40 438.68 C 414.50 439.55 413.62 440.41 412.73 441.29 C 413.56 442.31 414.41 443.32 415.26 444.34 C 416.30 443.47 417.34 442.59 418.38 441.72 C 417.44 440.65 416.44 439.63 415.40 438.68 M 425.06 452.13 C 425.06 453.48 426.54 454.22 427.19 455.29 C 428.22 454.45 429.26 453.61 430.29 452.77 C 429.45 451.73 428.59 450.69 427.74 449.67 C 426.81 450.45 425.81 451.17 425.06 452.13 M 391.27 458.81 C 394.46 462.74 400.14 462.11 404.66 461.94 C 412.77 462.82 420.96 462.12 429.06 463.12 C 431.52 462.63 433.61 461.15 435.73 459.88 C 432.91 457.60 429.42 460.12 426.37 458.53 C 420.33 456.00 414.05 459.55 407.96 457.90 C 404.26 457.08 400.61 458.58 396.90 458.44 C 395.01 458.38 393.11 458.32 391.27 458.81 Z" />
</g>
<g id="#c07443ff">
<path fill="#c07443" opacity="1.00" d=" M 0.00 39.24 C 12.62 38.31 25.32 41.40 37.86 39.39 C 38.81 40.40 39.72 41.43 40.66 42.44 C 35.74 42.22 30.70 41.27 25.88 42.79 C 25.36 42.42 24.83 42.05 24.30 41.70 C 24.00 42.00 23.40 42.61 23.10 42.91 C 15.65 40.50 7.69 42.02 0.00 41.61 L 0.00 39.24 Z" />
</g>
<g id="#bf7643ff">
<path fill="#bf7643" opacity="1.00" d=" M 41.43 40.42 C 47.64 40.17 53.86 40.57 60.06 39.93 C 59.20 40.93 58.35 41.93 57.51 42.94 C 53.32 42.75 49.03 42.48 45.01 43.91 C 43.83 42.73 42.64 41.57 41.43 40.42 Z" />
</g>
<g id="#22150cff">
<path fill="#22150c" opacity="1.00" d=" M 60.06 39.93 C 60.75 40.27 61.42 40.63 62.08 41.02 L 63.74 42.23 C 63.35 42.63 62.58 43.43 62.19 43.83 C 60.74 45.96 58.92 43.96 57.51 42.94 C 58.35 41.93 59.20 40.93 60.06 39.93 Z" />
</g>
<g id="#ba7041ff">
<path fill="#ba7041" opacity="1.00" d=" M 62.08 41.02 C 71.78 40.58 81.50 41.22 91.18 40.32 C 91.48 40.87 92.07 41.96 92.37 42.51 C 87.98 43.52 83.47 43.25 79.03 42.86 C 73.94 42.38 68.83 42.54 63.74 42.23 L 62.08 41.02 Z" />
</g>
<g id="#d88851ff">
<path fill="#d88851" opacity="1.00" d=" M 0.00 41.61 C 7.69 42.02 15.65 40.50 23.10 42.91 C 22.77 43.37 22.10 44.29 21.77 44.75 C 22.73 45.64 23.72 46.51 24.72 47.37 C 25.53 46.48 26.33 45.57 27.11 44.65 C 26.81 44.19 26.19 43.26 25.88 42.79 C 30.70 41.27 35.74 42.22 40.66 42.44 C 46.87 48.88 53.40 55.02 59.55 61.49 C 60.56 66.50 59.73 71.79 59.98 76.91 C 52.00 76.08 43.96 76.48 35.95 76.34 C 23.76 75.91 12.10 80.45 0.00 81.05 L 0.00 41.61 M 37.40 56.43 C 37.35 57.82 37.34 59.22 37.38 60.62 C 38.78 60.66 40.18 60.67 41.58 60.64 C 41.71 59.30 42.03 57.90 41.37 56.65 C 40.12 55.97 38.72 56.28 37.40 56.43 Z" />
</g>
<g id="#180f09ff">
<path fill="#180f09" opacity="1.00" d=" M 24.30 41.70 C 24.83 42.05 25.36 42.42 25.88 42.79 C 26.19 43.26 26.81 44.19 27.11 44.65 C 26.33 45.57 25.53 46.48 24.72 47.37 C 23.72 46.51 22.73 45.64 21.77 44.75 C 22.10 44.29 22.77 43.37 23.10 42.91 C 23.40 42.61 24.00 42.00 24.30 41.70 Z" />
<path fill="#180f09" opacity="1.00" d=" M 453.39 432.39 C 454.11 432.37 454.84 432.35 455.58 432.36 C 456.02 432.96 456.91 434.16 457.35 434.76 C 456.32 435.59 455.30 436.43 454.28 437.27 C 453.43 436.40 452.59 435.52 451.74 434.66 C 452.16 434.09 452.98 432.95 453.39 432.39 Z" />
</g>
<g id="#000000ff">
<path fill="#000000" opacity="1.00" d=" M 37.40 56.43 C 38.72 56.28 40.12 55.97 41.37 56.65 C 42.03 57.90 41.71 59.30 41.58 60.64 C 40.18 60.67 38.78 60.66 37.38 60.62 C 37.34 59.22 37.35 57.82 37.40 56.43 Z" />
</g>
<g id="#d88850ff">
<path fill="#d88850" opacity="1.00" d=" M 62.01 62.01 C 178.96 62.07 295.92 61.86 412.88 62.11 C 413.14 78.74 412.92 95.37 413.00 112.00 C 404.32 111.75 395.66 110.98 386.98 110.92 C 374.99 110.23 363.04 109.07 351.07 108.20 C 341.03 107.92 331.01 107.09 321.05 105.73 C 309.53 104.56 297.93 105.11 286.39 104.37 C 262.32 102.32 238.17 104.23 214.06 103.56 C 209.01 103.27 203.99 104.47 198.96 103.91 C 193.66 103.38 188.32 103.73 183.05 102.96 C 164.37 100.64 145.62 99.04 126.87 97.44 C 132.21 96.45 137.65 96.11 142.98 95.03 C 155.28 92.76 167.97 94.04 180.20 91.41 C 173.39 90.29 166.47 91.21 159.64 90.32 C 152.45 89.46 145.21 90.11 138.00 89.71 C 132.07 89.24 126.16 90.08 120.26 90.43 C 112.57 92.30 104.54 90.92 96.86 92.84 C 91.98 94.06 86.91 93.89 81.97 94.64 C 79.12 95.03 76.67 96.64 73.95 97.42 C 70.01 98.02 66.00 97.68 62.03 97.84 C 61.95 93.09 62.11 88.34 62.08 83.59 C 65.13 85.20 67.89 88.35 71.64 87.75 C 80.78 87.18 89.90 84.79 99.07 86.19 C 100.78 86.39 102.02 84.87 103.42 84.15 C 111.63 84.35 119.77 82.55 127.99 82.49 C 133.66 82.56 139.35 82.92 145.00 82.27 C 146.76 82.12 148.20 81.00 149.68 80.14 C 147.29 79.05 144.72 78.42 142.09 78.34 C 133.56 77.89 124.90 76.65 116.43 78.47 C 112.84 79.40 109.23 78.22 105.68 77.74 C 106.69 78.49 107.70 79.24 108.72 79.98 C 108.22 80.08 107.72 80.19 107.22 80.29 C 101.22 79.06 95.15 77.36 88.97 77.91 C 79.98 78.44 71.00 77.28 62.01 77.57 C 62.01 72.38 62.01 67.19 62.01 62.01 Z" />
<path fill="#d88850" opacity="1.00" d=" M 0.00 106.71 C 6.31 106.99 12.63 106.90 18.93 106.45 C 26.99 106.31 35.09 107.15 43.13 106.25 C 48.73 105.59 54.38 105.76 60.00 105.89 C 59.97 119.94 60.00 134.00 60.00 148.05 C 50.29 148.28 40.54 147.64 30.86 148.61 C 40.38 150.99 50.31 149.82 60.00 150.87 C 60.00 151.71 60.00 153.39 60.00 154.23 C 40.00 154.92 19.91 152.89 0.00 155.48 L 0.00 106.71 Z" />
<path fill="#d88850" opacity="1.00" d=" M 433.42 432.59 C 440.02 431.26 446.73 432.29 453.39 432.39 C 452.98 432.95 452.16 434.09 451.74 434.66 C 452.59 435.52 453.43 436.40 454.28 437.27 C 455.30 436.43 456.32 435.59 457.35 434.76 C 456.91 434.16 456.02 432.96 455.58 432.36 C 461.38 431.99 467.19 432.19 473.00 432.10 L 473.00 471.98 C 459.97 458.69 446.47 445.86 433.42 432.59 Z" />
</g>
<g id="#070503ff">
<path fill="#070503" opacity="1.00" d=" M 434.21 62.66 C 435.14 63.43 436.15 64.14 436.92 65.09 C 436.99 66.50 435.40 67.24 434.76 68.32 C 433.80 67.54 432.82 66.77 431.99 65.85 C 432.24 64.53 433.47 63.71 434.21 62.66 Z" />
<path fill="#070503" opacity="1.00" d=" M 425.06 452.13 C 425.81 451.17 426.81 450.45 427.74 449.67 C 428.59 450.69 429.45 451.73 430.29 452.77 C 429.26 453.61 428.22 454.45 427.19 455.29 C 426.54 454.22 425.06 453.48 425.06 452.13 Z" />
</g>
<g id="#c17241ff">
<path fill="#c17241" opacity="1.00" d=" M 0.00 81.05 C 12.10 80.45 23.76 75.91 35.95 76.34 C 43.96 76.48 52.00 76.08 59.98 76.91 C 59.98 81.20 60.01 85.50 60.00 89.79 C 50.67 89.36 41.34 89.70 32.04 90.48 C 21.32 90.61 10.70 92.17 0.00 92.66 L 0.00 81.05 Z" />
</g>
<g id="#ba693aff">
<path fill="#ba693a" opacity="1.00" d=" M 62.01 77.57 C 71.00 77.28 79.98 78.44 88.97 77.91 C 95.15 77.36 101.22 79.06 107.22 80.29 C 107.72 80.19 108.22 80.08 108.72 79.98 C 107.70 79.24 106.69 78.49 105.68 77.74 C 109.23 78.22 112.84 79.40 116.43 78.47 C 124.90 76.65 133.56 77.89 142.09 78.34 C 144.72 78.42 147.29 79.05 149.68 80.14 C 148.20 81.00 146.76 82.12 145.00 82.27 C 139.35 82.92 133.66 82.56 127.99 82.49 C 119.77 82.55 111.63 84.35 103.42 84.15 C 102.02 84.87 100.78 86.39 99.07 86.19 C 89.90 84.79 80.78 87.18 71.64 87.75 C 67.89 88.35 65.13 85.20 62.08 83.59 C 62.04 81.58 62.03 79.58 62.01 77.57 Z" />
</g>
<g id="#c67846ff">
<path fill="#c67846" opacity="1.00" d=" M 120.26 90.43 C 126.16 90.08 132.07 89.24 138.00 89.71 C 145.21 90.11 152.45 89.46 159.64 90.32 C 166.47 91.21 173.39 90.29 180.20 91.41 C 167.97 94.04 155.28 92.76 142.98 95.03 C 137.65 96.11 132.21 96.45 126.87 97.44 C 145.62 99.04 164.37 100.64 183.05 102.96 C 188.32 103.73 193.66 103.38 198.96 103.91 C 203.99 104.47 209.01 103.27 214.06 103.56 C 238.17 104.23 262.32 102.32 286.39 104.37 C 297.93 105.11 309.53 104.56 321.05 105.73 C 331.01 107.09 341.03 107.92 351.07 108.20 C 363.04 109.07 374.99 110.23 386.98 110.92 C 395.66 110.98 404.32 111.75 413.00 112.00 C 412.89 119.13 413.04 126.25 413.00 133.38 C 412.13 133.33 411.27 133.28 410.41 133.23 C 410.74 132.74 411.41 131.75 411.74 131.26 C 410.01 130.09 408.18 128.94 406.04 128.81 C 400.53 128.12 395.09 126.90 389.87 125.02 C 384.16 122.74 377.85 123.30 371.98 121.67 C 369.74 121.35 368.39 119.39 366.85 117.96 C 359.53 117.59 352.44 115.17 345.07 115.61 C 337.11 116.00 329.28 114.09 321.33 114.35 C 304.93 112.57 288.26 115.08 271.98 112.00 C 265.02 111.78 258.19 109.94 251.20 110.34 C 229.14 110.77 207.08 110.65 185.01 110.61 C 180.68 110.60 176.39 109.83 172.05 109.76 C 156.37 109.68 140.67 109.91 125.02 108.89 C 115.02 108.16 104.96 109.17 95.00 107.94 C 84.02 106.98 72.98 107.83 62.00 107.15 C 62.00 104.04 62.04 100.94 62.03 97.84 C 66.00 97.68 70.01 98.02 73.95 97.42 C 76.67 96.64 79.12 95.03 81.97 94.64 C 86.91 93.89 91.98 94.06 96.86 92.84 C 104.54 90.92 112.57 92.30 120.26 90.43 Z" />
</g>
<g id="#d98850ff">
<path fill="#d98850" opacity="1.00" d=" M 32.04 90.48 C 41.34 89.70 50.67 89.36 60.00 89.79 C 60.00 92.51 60.00 95.23 59.99 97.96 C 39.99 97.96 19.99 96.96 0.00 97.90 L 0.00 92.66 C 10.70 92.17 21.32 90.61 32.04 90.48 Z" />
</g>
<g id="#c07342ff">
<path fill="#c07342" opacity="1.00" d=" M 0.00 97.90 C 19.99 96.96 39.99 97.96 59.99 97.96 C 59.98 100.60 60.00 103.24 60.00 105.89 C 54.38 105.76 48.73 105.59 43.13 106.25 C 35.09 107.15 26.99 106.31 18.93 106.45 C 12.63 106.90 6.31 106.99 0.00 106.71 L 0.00 97.90 Z" />
<path fill="#c07342" opacity="1.00" d=" M 62.02 254.91 C 63.62 255.28 65.22 255.66 66.82 256.03 C 65.97 256.92 65.11 257.81 64.26 258.70 C 69.89 261.37 76.23 261.27 82.22 262.55 C 88.24 263.83 94.42 263.52 100.49 264.26 C 104.70 264.69 108.91 265.69 113.15 265.09 C 119.10 264.32 125.14 264.85 131.06 263.80 C 132.78 263.08 133.68 264.39 134.46 265.69 C 120.23 266.50 105.89 268.12 91.67 266.36 C 81.86 264.49 71.98 262.93 62.04 261.86 C 62.03 259.54 62.01 257.23 62.02 254.91 Z" />
</g>
<g id="#d8864eff">
<path fill="#d8864e" opacity="1.00" d=" M 62.00 107.15 C 72.98 107.83 84.02 106.98 95.00 107.94 C 104.96 109.17 115.02 108.16 125.02 108.89 C 140.67 109.91 156.37 109.68 172.05 109.76 C 176.39 109.83 180.68 110.60 185.01 110.61 C 207.08 110.65 229.14 110.77 251.20 110.34 C 258.19 109.94 265.02 111.78 271.98 112.00 C 288.26 115.08 304.93 112.57 321.33 114.35 C 329.28 114.09 337.11 116.00 345.07 115.61 C 352.44 115.17 359.53 117.59 366.85 117.96 C 368.39 119.39 369.74 121.35 371.98 121.67 C 377.85 123.30 384.16 122.74 389.87 125.02 C 395.09 126.90 400.53 128.12 406.04 128.81 C 408.18 128.94 410.01 130.09 411.74 131.26 C 411.41 131.75 410.74 132.74 410.41 133.23 C 411.27 133.28 412.13 133.33 413.00 133.38 C 412.99 160.76 412.98 188.14 413.00 215.52 C 403.78 215.01 394.55 214.60 385.32 215.28 C 375.99 213.61 366.47 214.39 357.03 214.00 C 352.75 213.46 348.50 216.93 344.44 214.62 C 342.76 213.76 340.87 214.02 339.08 214.19 C 329.71 215.20 320.30 212.41 312.23 207.75 C 310.92 208.44 309.61 209.13 308.31 209.81 C 306.85 208.62 305.70 206.64 303.65 206.52 C 301.03 206.07 297.90 206.90 295.93 204.64 C 293.53 204.90 290.64 206.53 288.67 204.39 C 286.19 202.04 282.66 202.11 279.49 201.77 C 274.54 201.45 269.66 199.91 264.67 200.61 C 259.40 201.52 254.56 197.63 249.29 199.52 C 246.93 197.91 243.96 198.34 241.30 198.63 C 237.00 199.34 232.92 197.17 228.64 197.26 C 214.84 196.95 201.00 195.40 187.23 196.88 C 174.16 195.32 161.04 197.07 147.96 197.38 C 139.63 197.77 131.32 198.54 122.98 198.34 C 108.52 198.28 94.25 200.86 79.86 201.74 C 73.90 202.38 67.95 203.12 62.00 203.87 C 62.02 197.80 61.97 191.73 62.05 185.66 C 72.39 184.31 82.87 184.50 93.12 182.41 C 90.08 181.98 87.01 181.72 83.94 181.91 C 76.63 182.38 69.26 182.01 62.01 183.21 C 62.00 175.17 61.97 167.13 62.03 159.10 C 68.37 159.62 74.77 159.85 81.10 159.02 C 82.66 158.86 84.04 158.08 85.41 157.37 C 78.27 153.29 69.87 154.13 62.00 154.32 C 62.00 153.46 62.00 151.75 62.00 150.89 C 69.68 151.60 77.71 152.84 85.24 150.67 C 77.78 148.08 69.79 148.13 62.00 148.24 C 62.01 134.54 62.02 120.85 62.00 107.15 M 190.01 168.01 C 185.08 168.80 179.93 167.68 175.13 169.31 C 173.36 170.41 171.75 171.74 170.06 172.94 C 180.43 172.80 190.53 170.16 200.75 168.68 C 202.43 168.46 204.08 167.97 205.49 166.98 C 200.30 166.32 195.17 167.73 190.01 168.01 Z" />
<path fill="#d8864e" opacity="1.00" d=" M 62.02 236.98 C 70.28 238.28 78.68 237.79 86.97 238.82 C 101.35 240.43 115.93 240.11 130.26 238.18 C 134.79 237.51 139.31 236.74 143.90 236.74 C 146.43 237.22 148.90 237.99 151.41 238.57 C 145.80 239.39 139.98 239.35 134.62 241.43 C 138.65 243.91 143.55 243.71 148.08 244.20 C 158.02 245.07 167.99 245.00 177.96 245.11 C 186.32 245.12 194.65 244.12 203.02 244.28 C 209.60 244.36 216.18 244.11 222.76 243.95 C 229.95 243.56 237.16 244.50 244.34 243.71 C 262.80 245.01 281.38 245.37 299.66 248.46 C 308.98 250.73 318.57 251.33 328.09 252.34 C 337.68 253.38 347.34 253.48 356.98 253.36 C 365.42 253.34 373.65 251.20 382.07 250.92 C 392.37 250.51 402.69 250.43 413.00 249.95 C 412.98 255.38 413.00 260.81 413.00 266.25 C 407.66 265.81 402.29 265.94 396.95 265.52 C 371.69 262.46 346.14 265.09 320.85 262.47 C 308.57 262.50 296.23 261.84 284.00 263.27 C 276.23 263.71 268.28 263.86 260.81 266.29 C 252.56 267.52 244.29 265.48 236.02 265.67 C 230.42 266.25 225.13 263.05 219.53 264.81 C 219.86 263.71 220.19 262.61 220.53 261.52 C 217.05 260.86 213.51 260.76 209.98 260.96 C 204.33 261.27 198.68 259.75 193.05 260.85 C 189.60 261.65 186.45 259.35 182.99 259.64 C 168.98 259.60 154.90 259.91 141.03 262.09 C 138.65 262.35 136.56 263.55 134.70 265.00 C 144.80 265.10 154.86 263.31 164.98 264.10 C 187.26 265.99 209.63 266.46 231.96 267.33 C 253.88 269.47 275.93 267.04 297.88 268.49 C 305.43 268.71 313.32 270.17 320.59 267.41 C 325.21 265.77 330.17 265.69 335.02 265.43 C 353.02 264.89 371.02 265.86 389.01 266.46 C 396.98 267.26 405.03 266.83 413.00 267.75 C 413.00 272.25 412.99 276.76 413.00 281.27 C 395.67 281.07 378.32 279.97 360.99 281.02 C 344.16 281.46 327.23 281.83 310.59 284.57 L 310.36 284.58 C 301.15 283.70 292.19 286.44 283.10 287.23 C 268.50 287.52 253.90 287.32 239.29 287.33 C 228.61 286.50 217.87 286.76 207.16 286.97 C 202.08 287.12 197.00 286.52 192.11 285.10 C 202.31 280.72 213.82 283.02 224.26 279.52 C 206.51 275.35 188.20 274.85 170.06 274.39 C 148.18 274.22 126.30 273.71 104.43 274.30 C 96.75 272.72 89.62 276.97 81.99 276.48 C 75.29 276.47 68.61 276.31 61.91 276.26 C 62.10 271.46 61.93 266.66 62.04 261.86 C 71.98 262.93 81.86 264.49 91.67 266.36 C 105.89 268.12 120.23 266.50 134.46 265.69 C 133.68 264.39 132.78 263.08 131.06 263.80 C 125.14 264.85 119.10 264.32 113.15 265.09 C 108.91 265.69 104.70 264.69 100.49 264.26 C 94.42 263.52 88.24 263.83 82.22 262.55 C 76.23 261.27 69.89 261.37 64.26 258.70 C 65.11 257.81 65.97 256.92 66.82 256.03 C 65.22 255.66 63.62 255.28 62.02 254.91 C 61.99 248.94 62.00 242.96 62.02 236.98 Z" />
</g>
<g id="#c07343ff">
<path fill="#c07343" opacity="1.00" d=" M 415.00 112.13 C 423.01 112.90 431.68 111.44 439.09 115.22 C 436.56 116.22 434.06 117.29 431.69 118.61 C 435.62 119.76 439.70 120.24 443.68 121.22 C 443.25 122.04 442.83 122.87 442.42 123.70 C 452.54 125.17 462.78 125.51 473.00 125.39 L 473.00 129.97 C 467.14 128.54 461.15 129.99 455.22 129.73 C 449.14 129.40 443.08 130.57 437.01 129.86 C 433.95 129.43 430.68 130.29 427.75 129.34 C 427.58 128.10 427.60 126.84 427.58 125.59 C 423.79 127.97 419.27 127.90 415.01 127.27 C 414.98 122.22 415.03 117.18 415.00 112.13 Z" />
</g>
<g id="#b86a3aff">
<path fill="#b86a3a" opacity="1.00" d=" M 30.86 148.61 C 40.54 147.64 50.29 148.28 60.00 148.05 C 60.00 148.75 60.00 150.17 60.00 150.87 C 50.31 149.82 40.38 150.99 30.86 148.61 Z" />
</g>
<g id="#bd6c3eff">
<path fill="#bd6c3e" opacity="1.00" d=" M 62.00 148.24 C 69.79 148.13 77.78 148.08 85.24 150.67 C 77.71 152.84 69.68 151.60 62.00 150.89 C 62.00 150.22 62.00 148.90 62.00 148.24 Z" />
</g>
<g id="#c27442ff">
<path fill="#c27442" opacity="1.00" d=" M 0.00 155.48 C 19.91 152.89 40.00 154.92 60.00 154.23 C 60.00 155.63 60.00 157.04 60.00 158.44 C 52.63 158.51 45.25 158.11 37.90 158.80 C 32.26 159.24 26.65 158.26 21.02 158.23 C 14.01 158.17 7.00 158.11 0.00 157.79 L 0.00 155.48 Z" />
</g>
<g id="#be7142ff">
<path fill="#be7142" opacity="1.00" d=" M 62.00 154.32 C 69.87 154.13 78.27 153.29 85.41 157.37 C 84.04 158.08 82.66 158.86 81.10 159.02 C 74.77 159.85 68.37 159.62 62.03 159.10 C 62.02 157.50 62.01 155.91 62.00 154.32 Z" />
</g>
<g id="#d88a53ff">
<path fill="#d88a53" opacity="1.00" d=" M 456.79 160.49 C 461.56 157.17 467.39 156.91 473.00 157.32 L 473.00 186.76 C 457.27 186.27 441.55 185.39 425.87 183.97 C 422.29 182.52 418.65 181.21 415.00 179.93 C 414.99 177.40 415.00 174.88 415.01 172.36 C 419.38 171.42 423.29 169.25 427.24 167.24 C 436.64 163.40 446.76 161.65 456.79 160.49 Z" />
</g>
<g id="#c67442ff">
<path fill="#c67442" opacity="1.00" d=" M 190.01 168.01 C 195.17 167.73 200.30 166.32 205.49 166.98 C 204.08 167.97 202.43 168.46 200.75 168.68 C 190.53 170.16 180.43 172.80 170.06 172.94 C 171.75 171.74 173.36 170.41 175.13 169.31 C 179.93 167.68 185.08 168.80 190.01 168.01 Z" />
</g>
<g id="#bc703fff">
<path fill="#bc703f" opacity="1.00" d=" M 62.01 183.21 C 69.26 182.01 76.63 182.38 83.94 181.91 C 87.01 181.72 90.08 181.98 93.12 182.41 C 82.87 184.50 72.39 184.31 62.05 185.66 C 62.04 185.05 62.02 183.82 62.01 183.21 Z" />
</g>
<g id="#c67643ff">
<path fill="#c67643" opacity="1.00" d=" M 42.84 185.17 C 48.42 183.56 54.28 183.73 60.00 183.06 C 60.00 183.80 60.00 185.29 60.00 186.03 C 56.12 186.04 52.24 186.09 48.37 186.38 C 46.52 186.03 44.68 185.61 42.84 185.17 Z" />
</g>
<g id="#c57442ff">
<path fill="#c57442" opacity="1.00" d=" M 425.87 183.97 C 441.55 185.39 457.27 186.27 473.00 186.76 L 473.00 188.02 C 465.62 188.26 458.35 189.81 450.99 190.00 C 442.48 188.81 433.70 187.75 425.87 183.97 Z" />
</g>
<g id="#d8854bff">
<path fill="#d8854b" opacity="1.00" d=" M 48.37 186.38 C 52.24 186.09 56.12 186.04 60.00 186.03 C 60.01 192.96 59.99 199.90 59.97 206.84 C 51.98 207.45 44.04 208.70 36.06 209.30 C 27.67 208.22 19.42 210.83 11.03 210.46 C 7.93 210.61 4.07 209.75 2.09 212.84 C 1.57 212.95 0.52 213.19 0.00 213.31 L 0.00 189.03 C 5.33 189.39 10.69 190.12 16.01 189.28 C 26.74 187.65 37.68 188.32 48.37 186.38 Z" />
</g>
<g id="#c27342ff">
<path fill="#c27342" opacity="1.00" d=" M 147.96 197.38 C 161.04 197.07 174.16 195.32 187.23 196.88 C 201.00 195.40 214.84 196.95 228.64 197.26 C 232.92 197.17 237.00 199.34 241.30 198.63 C 243.96 198.34 246.93 197.91 249.29 199.52 C 254.56 197.63 259.40 201.52 264.67 200.61 C 269.66 199.91 274.54 201.45 279.49 201.77 C 282.66 202.11 286.19 202.04 288.67 204.39 C 290.64 206.53 293.53 204.90 295.93 204.64 C 297.90 206.90 301.03 206.07 303.65 206.52 C 305.70 206.64 306.85 208.62 308.31 209.81 C 309.61 209.13 310.92 208.44 312.23 207.75 C 320.30 212.41 329.71 215.20 339.08 214.19 C 340.87 214.02 342.76 213.76 344.44 214.62 C 348.50 216.93 352.75 213.46 357.03 214.00 C 366.47 214.39 375.99 213.61 385.32 215.28 C 394.55 214.60 403.78 215.01 413.00 215.52 C 413.00 218.32 413.00 221.12 412.99 223.92 C 391.02 222.29 369.01 220.94 346.96 220.99 C 324.45 219.89 301.91 219.37 279.43 217.74 C 279.99 217.01 280.55 216.28 281.12 215.56 C 272.72 212.60 263.69 212.77 254.99 211.29 C 246.97 210.21 239.08 208.11 230.97 207.73 C 221.67 207.22 212.43 205.84 203.12 205.45 C 193.39 204.91 183.76 203.03 174.00 203.10 C 161.32 203.15 148.64 202.92 135.97 203.23 C 125.27 203.51 114.69 205.28 104.03 206.01 C 90.01 206.75 76.02 207.86 62.04 209.04 C 62.02 207.32 62.01 205.59 62.00 203.87 C 67.95 203.12 73.90 202.38 79.86 201.74 C 94.25 200.86 108.52 198.28 122.98 198.34 C 131.32 198.54 139.63 197.77 147.96 197.38 Z" />
</g>
<g id="#d88951ff">
<path fill="#d88951" opacity="1.00" d=" M 104.03 206.01 C 114.69 205.28 125.27 203.51 135.97 203.23 C 148.64 202.92 161.32 203.15 174.00 203.10 C 183.76 203.03 193.39 204.91 203.12 205.45 C 212.43 205.84 221.67 207.22 230.97 207.73 C 239.08 208.11 246.97 210.21 254.99 211.29 C 263.69 212.77 272.72 212.60 281.12 215.56 C 280.55 216.28 279.99 217.01 279.43 217.74 C 301.91 219.37 324.45 219.89 346.96 220.99 C 369.01 220.94 391.02 222.29 412.99 223.92 C 412.98 230.31 413.01 236.70 413.00 243.10 C 401.74 243.73 390.50 242.74 379.28 241.85 C 365.84 242.31 352.37 242.07 338.94 243.07 C 319.66 241.84 300.27 242.88 281.02 240.98 C 264.16 239.36 247.20 239.74 230.33 238.50 C 225.32 237.85 220.28 237.59 215.24 237.80 C 215.28 236.44 215.33 235.09 215.38 233.74 C 210.90 234.15 206.50 232.90 202.03 233.06 C 192.55 233.21 183.05 233.55 173.60 232.57 C 165.04 232.65 156.57 231.03 148.01 231.12 C 130.67 231.01 113.32 231.12 95.98 231.17 C 93.74 231.51 92.11 230.22 90.88 228.52 C 92.96 228.14 95.04 227.78 97.12 227.40 C 92.60 223.97 86.60 225.40 81.34 224.76 C 74.80 224.17 68.20 224.68 62.03 227.06 C 61.99 221.06 61.98 215.05 62.04 209.04 C 76.02 207.86 90.01 206.75 104.03 206.01 Z" />
<path fill="#d88951" opacity="1.00" d=" M 2.09 212.84 C 21.42 212.24 40.78 212.03 59.99 209.61 C 60.00 215.22 60.02 220.83 59.97 226.44 C 48.14 228.34 36.08 226.91 24.16 227.64 C 16.14 228.83 8.06 227.47 0.00 228.22 L 0.00 213.31 C 0.52 213.19 1.57 212.95 2.09 212.84 Z" />
<path fill="#d88951" opacity="1.00" d=" M 415.04 223.96 C 422.65 224.79 430.32 225.45 437.98 224.93 C 449.63 223.97 461.33 224.37 473.00 224.01 L 473.00 243.99 C 466.92 243.43 460.81 244.35 454.75 243.50 C 447.86 243.53 440.99 242.89 434.12 243.43 C 427.75 243.15 421.38 243.06 415.00 243.14 C 414.99 236.75 414.99 230.35 415.04 223.96 Z" />
<path fill="#d88951" opacity="1.00" d=" M 0.00 255.14 C 7.98 254.94 15.97 254.33 23.95 254.76 C 31.27 255.14 38.70 254.82 45.91 256.31 C 48.61 256.85 49.57 260.24 52.31 260.68 C 54.83 261.17 57.41 261.18 59.97 261.31 C 60.00 266.28 60.00 271.25 60.00 276.23 C 40.01 275.87 19.93 278.30 0.00 276.09 L 0.00 261.15 C 4.06 261.23 8.13 261.12 12.16 260.56 C 8.20 259.42 4.10 259.00 0.00 258.82 L 0.00 255.14 Z" />
</g>
<g id="#ba6c3bff">
<path fill="#ba6c3b" opacity="1.00" d=" M 36.06 209.30 C 44.04 208.70 51.98 207.45 59.97 206.84 C 59.98 207.53 59.98 208.92 59.99 209.61 C 40.78 212.03 21.42 212.24 2.09 212.84 C 4.07 209.75 7.93 210.61 11.03 210.46 C 19.42 210.83 27.67 208.22 36.06 209.30 Z" />
</g>
<g id="#c87946ff">
<path fill="#c87946" opacity="1.00" d=" M 415.00 214.39 C 421.99 214.83 428.99 215.38 436.00 215.29 C 448.38 214.94 460.66 217.01 473.00 217.47 L 473.00 224.01 C 461.33 224.37 449.63 223.97 437.98 224.93 C 430.32 225.45 422.65 224.79 415.04 223.96 C 415.05 220.77 415.01 217.58 415.00 214.39 Z" />
</g>
<g id="#cb7e4bff">
<path fill="#cb7e4b" opacity="1.00" d=" M 62.03 227.06 C 68.20 224.68 74.80 224.17 81.34 224.76 C 86.60 225.40 92.60 223.97 97.12 227.40 C 95.04 227.78 92.96 228.14 90.88 228.52 C 92.11 230.22 93.74 231.51 95.98 231.17 C 113.32 231.12 130.67 231.01 148.01 231.12 C 156.57 231.03 165.04 232.65 173.60 232.57 C 183.05 233.55 192.55 233.21 202.03 233.06 C 206.50 232.90 210.90 234.15 215.38 233.74 C 215.33 235.09 215.28 236.44 215.24 237.80 C 220.28 237.59 225.32 237.85 230.33 238.50 C 247.20 239.74 264.16 239.36 281.02 240.98 C 300.27 242.88 319.66 241.84 338.94 243.07 C 352.37 242.07 365.84 242.31 379.28 241.85 C 390.50 242.74 401.74 243.73 413.00 243.10 C 413.00 243.70 413.00 244.89 413.00 245.49 C 409.10 245.57 405.64 247.41 402.02 248.56 C 395.01 249.27 387.94 248.98 380.91 249.31 C 370.58 249.89 360.20 249.33 349.93 250.79 C 340.31 250.44 330.63 250.55 321.03 249.73 C 314.75 248.07 308.18 248.38 301.89 246.82 C 297.27 245.78 292.91 243.09 288.01 243.94 C 278.93 245.00 270.04 241.86 260.97 242.51 C 255.86 243.03 251.12 240.55 246.05 240.61 C 240.90 240.60 235.67 239.96 230.57 241.02 C 234.32 244.14 239.84 242.59 244.34 243.71 C 237.16 244.50 229.95 243.56 222.76 243.95 C 225.18 243.54 227.55 242.80 229.88 242.02 C 225.89 239.38 220.90 240.29 216.42 240.44 C 212.70 241.61 208.92 242.78 204.95 242.58 C 202.25 243.03 201.37 239.48 198.95 239.10 C 197.66 238.86 196.37 238.67 195.08 238.52 C 194.26 239.91 193.43 241.31 192.61 242.70 C 191.47 242.76 190.33 242.83 189.20 242.90 C 187.81 240.69 186.18 237.63 183.01 238.74 C 181.94 240.13 181.41 241.82 180.48 243.29 C 177.99 243.40 175.52 242.90 173.05 242.68 C 175.68 242.22 178.24 241.46 180.63 240.27 C 177.01 239.77 174.10 237.62 171.11 235.71 C 169.10 234.52 167.20 236.46 165.45 237.25 C 162.28 233.62 157.39 234.70 153.29 235.73 C 153.63 236.31 154.30 237.47 154.64 238.06 C 153.56 238.24 152.49 238.43 151.41 238.57 C 148.90 237.99 146.43 237.22 143.90 236.74 C 145.53 236.36 147.01 235.56 148.44 234.72 C 145.39 234.34 142.34 233.98 139.28 233.77 C 135.43 233.37 131.90 235.54 128.06 235.47 C 124.01 235.47 120.06 236.70 115.99 236.36 C 112.41 236.09 109.01 237.76 105.44 237.46 C 102.62 237.26 99.81 236.92 96.99 236.98 C 85.32 237.16 73.69 235.65 62.02 235.86 C 62.02 232.93 62.03 230.00 62.03 227.06 Z" />
</g>
<g id="#c47544ff">
<path fill="#c47544" opacity="1.00" d=" M 24.16 227.64 C 36.08 226.91 48.14 228.34 59.97 226.44 C 59.90 229.41 59.99 232.40 60.51 235.35 C 58.77 235.95 56.95 236.36 55.10 236.43 C 47.03 236.61 38.93 235.91 30.89 236.79 C 20.54 238.03 9.95 237.08 0.00 233.98 L 0.00 228.22 C 8.06 227.47 16.14 228.83 24.16 227.64 Z" />
</g>
<g id="#b56639ff">
<path fill="#b56639" opacity="1.00" d=" M 128.06 235.47 C 131.90 235.54 135.43 233.37 139.28 233.77 C 142.34 233.98 145.39 234.34 148.44 234.72 C 147.01 235.56 145.53 236.36 143.90 236.74 C 139.31 236.74 134.79 237.51 130.26 238.18 C 115.93 240.11 101.35 240.43 86.97 238.82 C 78.68 237.79 70.28 238.28 62.02 236.98 L 62.02 235.86 C 73.69 235.65 85.32 237.16 96.99 236.98 C 99.81 236.92 102.62 237.26 105.44 237.46 C 109.01 237.76 112.41 236.09 115.99 236.36 C 120.06 236.70 124.01 235.47 128.06 235.47 Z" />
<path fill="#b56639" opacity="1.00" d=" M 310.59 284.57 C 327.23 281.83 344.16 281.46 360.99 281.02 C 378.32 279.97 395.67 281.07 413.00 281.27 C 413.00 281.62 413.00 282.32 413.00 282.67 C 395.33 282.91 377.61 281.63 359.97 283.10 C 351.67 283.66 343.35 283.29 335.05 283.49 C 326.89 283.72 318.66 287.49 310.59 284.57 Z" />
</g>
<g id="#d8854cff">
<path fill="#d8854c" opacity="1.00" d=" M 0.00 233.98 C 9.95 237.08 20.54 238.03 30.89 236.79 C 40.75 236.34 50.62 236.73 60.48 236.82 C 59.52 242.61 60.17 248.48 60.00 254.31 C 55.28 254.22 50.55 254.69 45.83 254.32 C 30.65 252.13 15.27 253.42 0.00 253.03 L 0.00 233.98 Z" />
<path fill="#d8854c" opacity="1.00" d=" M 415.01 249.82 C 432.22 247.48 449.64 248.89 466.90 247.22 C 468.99 247.36 472.12 246.40 473.00 249.13 L 473.00 266.28 C 468.32 266.46 463.71 267.45 459.02 267.40 C 444.19 267.30 429.35 267.62 414.52 267.18 C 415.47 261.44 414.83 255.61 415.01 249.82 Z" />
<path fill="#d8854c" opacity="1.00" d=" M 42.45 413.71 C 48.25 412.70 54.11 412.24 59.98 411.87 C 59.95 412.29 59.90 413.14 59.87 413.56 C 51.85 421.30 43.89 429.13 36.34 437.34 C 26.32 447.33 16.35 457.38 6.30 467.33 C 4.19 467.02 2.09 466.72 0.00 466.33 L 0.00 418.84 C 8.12 417.83 15.70 414.00 23.98 414.13 C 28.73 414.11 33.46 413.59 38.20 413.38 C 38.40 413.83 38.81 414.74 39.02 415.19 C 39.69 416.38 40.60 417.40 41.50 418.42 C 42.44 417.48 43.38 416.54 44.32 415.61 C 43.86 415.13 42.92 414.19 42.45 413.71 M 27.22 422.70 C 26.38 423.72 25.55 424.75 24.72 425.79 C 25.74 426.63 26.76 427.47 27.78 428.30 C 28.62 427.27 29.46 426.24 30.29 425.21 C 29.27 424.36 28.25 423.53 27.22 422.70 M 14.21 435.66 C 13.54 436.72 12.16 437.50 12.06 438.85 C 12.67 439.65 13.38 440.36 14.17 441.00 C 15.48 440.72 16.30 439.50 17.36 438.79 C 16.44 437.61 15.38 436.56 14.21 435.66 Z" />
</g>
<g id="#ba693bff">
<path fill="#ba693b" opacity="1.00" d=" M 153.29 235.73 C 157.39 234.70 162.28 233.62 165.45 237.25 C 167.20 236.46 169.10 234.52 171.11 235.71 C 174.10 237.62 177.01 239.77 180.63 240.27 C 178.24 241.46 175.68 242.22 173.05 242.68 C 175.52 242.90 177.99 243.40 180.48 243.29 C 181.41 241.82 181.94 240.13 183.01 238.74 C 186.18 237.63 187.81 240.69 189.20 242.90 C 190.33 242.83 191.47 242.76 192.61 242.70 C 193.43 241.31 194.26 239.91 195.08 238.52 C 196.37 238.67 197.66 238.86 198.95 239.10 C 201.37 239.48 202.25 243.03 204.95 242.58 C 208.92 242.78 212.70 241.61 216.42 240.44 C 220.90 240.29 225.89 239.38 229.88 242.02 C 227.55 242.80 225.18 243.54 222.76 243.95 C 216.18 244.11 209.60 244.36 203.02 244.28 C 194.65 244.12 186.32 245.12 177.96 245.11 C 167.99 245.00 158.02 245.07 148.08 244.20 C 143.55 243.71 138.65 243.91 134.62 241.43 C 139.98 239.35 145.80 239.39 151.41 238.57 C 152.49 238.43 153.56 238.24 154.64 238.06 C 154.30 237.47 153.63 236.31 153.29 235.73 Z" />
<path fill="#ba693b" opacity="1.00" d=" M 144.27 434.94 C 148.12 434.00 152.00 433.14 155.93 432.64 C 157.12 433.17 158.31 433.73 159.50 434.28 C 159.51 435.95 159.51 437.63 159.51 439.32 C 160.03 439.68 161.07 440.39 161.59 440.74 C 160.93 441.74 160.27 442.73 159.61 443.74 C 157.11 443.69 154.60 443.58 152.11 443.32 C 150.95 441.70 150.25 439.40 148.17 438.74 C 145.55 437.56 142.92 439.18 140.51 440.11 C 140.49 441.63 140.46 443.15 140.43 444.68 C 138.23 444.87 136.01 444.86 133.81 444.61 C 134.93 443.24 136.06 441.90 137.20 440.57 C 137.06 439.77 136.91 438.97 136.77 438.19 C 139.30 437.19 141.79 436.06 144.27 434.94 Z" />
</g>
<g id="#b56a3cff">
<path fill="#b56a3c" opacity="1.00" d=" M 230.57 241.02 C 235.67 239.96 240.90 240.60 246.05 240.61 C 251.12 240.55 255.86 243.03 260.97 242.51 C 270.04 241.86 278.93 245.00 288.01 243.94 C 292.91 243.09 297.27 245.78 301.89 246.82 C 308.18 248.38 314.75 248.07 321.03 249.73 C 330.63 250.55 340.31 250.44 349.93 250.79 C 360.20 249.33 370.58 249.89 380.91 249.31 C 387.94 248.98 395.01 249.27 402.02 248.56 C 405.64 247.41 409.10 245.57 413.00 245.49 C 413.00 246.97 412.99 248.46 413.00 249.95 C 402.69 250.43 392.37 250.51 382.07 250.92 C 373.65 251.20 365.42 253.34 356.98 253.36 C 347.34 253.48 337.68 253.38 328.09 252.34 C 318.57 251.33 308.98 250.73 299.66 248.46 C 281.38 245.37 262.80 245.01 244.34 243.71 C 239.84 242.59 234.32 244.14 230.57 241.02 Z" />
</g>
<g id="#cb7d49ff">
<path fill="#cb7d49" opacity="1.00" d=" M 415.00 243.14 C 421.38 243.06 427.75 243.15 434.12 243.43 C 440.99 242.89 447.86 243.53 454.75 243.50 C 460.81 244.35 466.92 243.43 473.00 243.99 L 473.00 245.79 C 466.86 245.44 460.74 245.90 454.62 246.39 C 446.74 246.42 438.85 246.34 430.97 246.70 C 425.64 247.03 420.30 245.94 415.01 246.94 C 415.00 245.67 415.00 244.40 415.00 243.14 Z" />
</g>
<g id="#ba6d3fff">
<path fill="#ba6d3f" opacity="1.00" d=" M 415.01 246.94 C 420.30 245.94 425.64 247.03 430.97 246.70 C 438.85 246.34 446.74 246.42 454.62 246.39 C 460.74 245.90 466.86 245.44 473.00 245.79 L 473.00 249.13 C 472.12 246.40 468.99 247.36 466.90 247.22 C 449.64 248.89 432.22 247.48 415.01 249.82 C 415.01 249.10 415.01 247.66 415.01 246.94 Z" />
</g>
<g id="#c07241ff">
<path fill="#c07241" opacity="1.00" d=" M 0.00 253.03 C 15.27 253.42 30.65 252.13 45.83 254.32 C 50.55 254.69 55.28 254.22 60.00 254.31 C 59.99 256.64 59.97 258.97 59.97 261.31 C 57.41 261.18 54.83 261.17 52.31 260.68 C 49.57 260.24 48.61 256.85 45.91 256.31 C 38.70 254.82 31.27 255.14 23.95 254.76 C 15.97 254.33 7.98 254.94 0.00 255.14 L 0.00 253.03 Z" />
</g>
<g id="#c87a47ff">
<path fill="#c87a47" opacity="1.00" d=" M 0.00 258.82 C 4.10 259.00 8.20 259.42 12.16 260.56 C 8.13 261.12 4.06 261.23 0.00 261.15 L 0.00 258.82 Z" />
</g>
<g id="#c27040ff">
<path fill="#c27040" opacity="1.00" d=" M 141.03 262.09 C 154.90 259.91 168.98 259.60 182.99 259.64 C 186.45 259.35 189.60 261.65 193.05 260.85 C 198.68 259.75 204.33 261.27 209.98 260.96 C 213.51 260.76 217.05 260.86 220.53 261.52 C 220.19 262.61 219.86 263.71 219.53 264.81 C 225.13 263.05 230.42 266.25 236.02 265.67 C 244.29 265.48 252.56 267.52 260.81 266.29 C 268.28 263.86 276.23 263.71 284.00 263.27 C 296.23 261.84 308.57 262.50 320.85 262.47 C 346.14 265.09 371.69 262.46 396.95 265.52 C 402.29 265.94 407.66 265.81 413.00 266.25 C 413.00 266.62 413.00 267.37 413.00 267.75 C 405.03 266.83 396.98 267.26 389.01 266.46 C 371.02 265.86 353.02 264.89 335.02 265.43 C 330.17 265.69 325.21 265.77 320.59 267.41 C 313.32 270.17 305.43 268.71 297.88 268.49 C 275.93 267.04 253.88 269.47 231.96 267.33 C 209.63 266.46 187.26 265.99 164.98 264.10 C 154.86 263.31 144.80 265.10 134.70 265.00 C 136.56 263.55 138.65 262.35 141.03 262.09 Z" />
</g>
<g id="#d8874fff">
<path fill="#d8874f" opacity="1.00" d=" M 470.26 267.50 C 471.16 267.23 472.08 266.98 473.00 266.73 L 473.00 279.09 C 463.30 278.67 453.66 280.04 443.98 280.02 C 434.31 280.14 424.67 280.92 415.00 281.10 C 415.01 276.94 415.24 272.76 414.52 268.64 C 416.91 267.76 419.47 267.41 422.01 267.50 C 438.09 267.80 454.20 267.44 470.26 267.50 Z" />
</g>
<g id="#c37544ff">
<path fill="#c37544" opacity="1.00" d=" M 81.99 276.48 C 89.62 276.97 96.75 272.72 104.43 274.30 C 108.61 276.57 113.48 275.92 118.05 275.90 C 123.61 275.85 129.15 274.69 134.71 275.24 C 136.92 275.29 138.20 277.32 139.66 278.69 C 141.90 278.36 143.89 277.32 145.86 276.28 C 148.66 276.97 151.35 278.13 154.26 278.30 C 151.73 278.82 149.15 279.18 146.67 279.91 C 145.03 282.21 148.78 282.59 150.29 282.86 C 155.08 284.41 160.67 279.90 164.74 283.96 C 166.45 283.47 168.17 282.86 169.98 282.97 C 174.78 283.20 179.58 282.58 184.39 283.00 C 181.18 284.19 177.55 283.85 174.48 285.35 C 173.92 287.43 177.91 287.08 179.28 287.93 C 166.57 286.83 153.81 287.25 141.06 287.17 C 133.26 287.55 125.93 284.37 118.80 281.67 C 111.92 281.17 104.98 281.25 98.07 281.12 C 86.06 280.54 74.06 279.55 62.14 277.96 C 62.08 277.54 61.97 276.68 61.91 276.26 C 68.61 276.31 75.29 276.47 81.99 276.48 Z" />
</g>
<g id="#b96d3eff">
<path fill="#b96d3e" opacity="1.00" d=" M 104.43 274.30 C 126.30 273.71 148.18 274.22 170.06 274.39 C 188.20 274.85 206.51 275.35 224.26 279.52 C 213.82 283.02 202.31 280.72 192.11 285.10 C 197.00 286.52 202.08 287.12 207.16 286.97 C 207.53 287.63 208.28 288.97 208.65 289.64 C 205.63 290.13 202.73 288.93 199.73 288.89 C 192.90 288.89 186.10 288.15 179.28 287.93 C 177.91 287.08 173.92 287.43 174.48 285.35 C 177.55 283.85 181.18 284.19 184.39 283.00 C 186.88 282.35 189.41 281.82 191.99 281.67 C 198.67 281.28 205.28 280.15 211.93 279.42 C 204.30 278.47 196.70 276.44 188.97 277.07 C 182.60 277.31 176.24 275.91 169.87 276.74 C 164.69 277.49 159.40 277.26 154.26 278.30 C 151.35 278.13 148.66 276.97 145.86 276.28 C 143.89 277.32 141.90 278.36 139.66 278.69 C 138.20 277.32 136.92 275.29 134.71 275.24 C 129.15 274.69 123.61 275.85 118.05 275.90 C 113.48 275.92 108.61 276.57 104.43 274.30 Z" />
</g>
<g id="#c17645ff">
<path fill="#c17645" opacity="1.00" d=" M 0.00 276.09 C 19.93 278.30 40.01 275.87 60.00 276.23 C 60.00 276.85 60.00 278.10 60.00 278.72 C 51.32 278.47 42.62 278.52 34.00 279.69 C 22.73 281.27 11.33 280.46 0.00 280.51 L 0.00 276.09 Z" />
</g>
<g id="#d3854eff">
<path fill="#d3854e" opacity="1.00" d=" M 169.87 276.74 C 176.24 275.91 182.60 277.31 188.97 277.07 C 196.70 276.44 204.30 278.47 211.93 279.42 C 205.28 280.15 198.67 281.28 191.99 281.67 C 189.41 281.82 186.88 282.35 184.39 283.00 C 179.58 282.58 174.78 283.20 169.98 282.97 C 168.17 282.86 166.45 283.47 164.74 283.96 C 160.67 279.90 155.08 284.41 150.29 282.86 C 148.78 282.59 145.03 282.21 146.67 279.91 C 149.15 279.18 151.73 278.82 154.26 278.30 C 159.40 277.26 164.69 277.49 169.87 276.74 Z" />
</g>
<g id="#c17543ff">
<path fill="#c17543" opacity="1.00" d=" M 443.98 280.02 C 453.66 280.04 463.30 278.67 473.00 279.09 L 473.00 281.64 C 472.81 281.81 472.42 282.16 472.22 282.34 C 461.19 280.71 450.10 282.70 439.03 282.22 C 430.99 281.88 423.01 282.95 415.00 283.20 C 415.00 282.68 415.00 281.63 415.00 281.10 C 424.67 280.92 434.31 280.14 443.98 280.02 Z" />
</g>
<g id="#b56737ff">
<path fill="#b56737" opacity="1.00" d=" M 283.10 287.23 C 292.19 286.44 301.15 283.70 310.36 284.58 C 305.53 286.88 300.12 286.99 294.93 287.86 C 283.05 289.52 271.04 289.37 259.08 289.74 C 253.37 289.22 247.69 290.43 241.99 289.88 C 236.34 289.31 230.70 290.81 225.07 289.91 C 219.69 289.10 214.01 291.99 208.98 289.01 C 211.18 287.98 213.58 287.39 216.02 287.56 C 223.78 287.78 231.55 288.11 239.29 287.33 C 253.90 287.32 268.50 287.52 283.10 287.23 Z" />
</g>
<g id="#bb6d3eff">
<path fill="#bb6d3e" opacity="1.00" d=" M 466.97 284.84 C 469.01 284.20 470.81 285.47 472.58 286.28 L 473.00 282.14 L 473.00 292.14 C 464.68 291.72 456.34 292.00 448.04 291.53 C 441.63 290.33 435.03 291.21 428.70 289.61 C 435.88 286.67 443.75 288.45 451.21 287.11 C 456.48 286.48 461.78 286.01 466.97 284.84 Z" />
</g>
<g id="#bf6f3fff">
<path fill="#bf6f3f" opacity="1.00" d=" M 45.46 310.56 C 50.28 309.89 55.15 309.85 59.98 309.30 C 59.97 309.86 59.96 310.96 59.95 311.52 C 56.13 313.41 52.49 316.15 48.03 316.07 C 37.88 316.48 27.71 316.60 17.56 316.54 C 11.72 317.03 5.79 317.77 0.00 316.36 L 0.00 314.15 C 9.02 314.27 18.04 314.32 27.05 313.87 C 33.32 313.62 39.31 311.57 45.46 310.56 Z" />
</g>
<g id="#cb7c49ff">
<path fill="#cb7c49" opacity="1.00" d=" M 61.99 312.83 C 64.21 311.89 66.60 311.29 68.99 311.97 C 73.21 312.93 77.44 311.71 81.66 311.64 C 102.82 315.01 124.36 313.23 145.67 314.49 C 151.43 314.21 157.08 315.79 162.84 315.54 C 169.87 315.19 176.63 317.79 183.66 317.52 C 189.15 317.27 194.66 317.70 200.12 317.04 C 204.79 316.44 209.37 318.32 214.05 317.99 C 216.26 317.83 218.37 316.98 220.57 316.75 C 223.48 317.08 226.22 318.26 229.14 318.57 C 236.43 319.31 243.73 318.02 251.03 318.45 C 261.30 318.86 271.57 318.19 281.84 318.53 C 286.65 318.12 291.47 317.21 296.29 318.19 C 302.29 319.32 308.50 316.32 314.31 318.62 C 319.31 320.51 324.78 318.73 329.86 320.28 C 330.30 321.52 329.53 322.75 329.32 323.97 C 327.36 322.81 325.56 320.66 323.06 321.10 C 320.46 321.13 319.06 323.57 317.52 325.27 C 323.17 327.14 329.16 326.22 334.99 326.63 C 339.39 326.65 343.67 327.92 348.06 327.98 C 349.64 328.21 350.68 326.87 351.80 326.04 C 353.61 326.21 355.43 326.43 357.22 326.77 C 355.83 326.98 354.45 327.23 353.07 327.51 C 359.33 330.35 366.32 330.09 372.85 331.93 C 368.67 335.31 362.88 334.45 357.92 335.61 C 365.04 336.02 372.48 335.32 379.10 338.53 C 373.10 338.92 367.25 340.71 361.21 340.57 C 357.81 340.37 354.39 341.18 351.79 343.46 C 352.28 344.41 352.80 345.37 353.31 346.33 C 352.30 347.05 351.29 347.79 350.30 348.53 C 352.49 350.22 355.27 349.59 357.80 349.33 C 357.35 348.24 356.92 347.17 356.48 346.10 C 357.19 345.45 357.90 344.82 358.62 344.19 C 360.00 346.90 362.00 349.21 365.00 350.15 C 363.11 351.94 360.73 350.43 358.54 350.37 C 356.38 351.25 354.71 352.93 352.92 354.37 C 348.11 351.67 343.02 354.26 338.19 355.40 C 335.00 356.31 331.27 354.64 328.46 356.87 C 331.32 357.99 334.50 357.40 337.37 358.45 C 327.48 359.82 316.71 358.73 307.66 363.59 C 309.55 363.94 311.44 364.27 313.35 364.52 C 311.17 364.72 309.00 364.92 306.82 365.05 C 305.44 363.61 303.80 362.16 301.66 362.34 C 299.53 362.02 298.77 364.57 297.43 365.72 L 297.35 365.74 C 296.17 364.48 295.04 362.60 293.01 363.15 C 289.61 363.06 287.49 365.96 285.77 368.45 C 288.23 367.92 290.68 367.37 293.13 366.79 C 290.86 367.98 289.01 369.78 287.38 371.73 C 283.82 371.66 283.74 367.83 283.33 365.19 C 279.90 365.46 276.49 365.89 273.09 366.42 C 274.67 367.41 276.26 368.39 277.84 369.38 C 276.59 370.12 275.34 370.87 274.09 371.63 C 277.12 372.72 280.28 373.41 283.52 373.46 C 283.37 374.22 283.23 374.98 283.09 375.74 C 282.69 375.74 281.89 375.74 281.49 375.73 C 271.77 373.58 261.76 375.01 251.98 375.88 C 246.53 376.38 241.03 375.89 235.60 376.59 C 233.35 376.74 232.06 378.88 230.07 379.62 C 226.99 380.06 223.70 379.46 220.84 380.93 C 216.59 383.17 211.62 382.59 207.12 384.01 C 202.74 385.34 198.16 385.61 193.61 385.67 C 198.79 384.49 203.64 382.31 208.55 380.37 C 213.35 378.48 218.61 378.73 223.55 377.46 C 234.32 374.20 245.70 374.25 256.69 372.02 C 251.56 368.45 245.28 367.77 239.22 367.53 C 239.23 367.24 239.25 366.67 239.25 366.38 C 245.89 366.39 252.45 365.30 259.07 365.09 C 267.23 364.73 275.03 362.20 282.40 358.83 C 280.40 357.88 278.35 357.07 276.25 356.43 C 283.84 356.00 291.35 354.37 298.98 354.78 C 311.27 354.19 323.59 354.25 335.88 353.43 C 337.28 353.50 338.27 352.44 339.31 351.68 C 332.12 350.45 324.79 349.88 317.75 347.85 C 319.59 346.07 321.61 344.49 323.76 343.11 C 321.48 342.63 319.21 342.11 316.95 341.58 C 319.02 339.05 321.36 336.45 324.66 335.62 C 335.56 333.27 347.09 335.62 357.78 332.03 C 356.77 331.56 355.74 331.15 354.69 330.80 C 337.74 327.35 320.19 328.74 303.29 325.15 C 305.48 323.93 307.76 322.89 310.08 321.93 C 308.65 321.46 307.23 320.98 305.82 320.49 C 305.64 320.84 305.29 321.54 305.11 321.88 C 301.82 320.98 298.46 320.07 295.01 320.21 C 283.02 320.81 271.03 319.76 259.03 320.16 C 244.68 319.89 230.32 320.56 215.97 320.01 C 202.05 318.45 188.01 319.53 174.07 318.34 C 163.70 317.94 153.36 317.00 143.02 316.16 C 121.37 315.40 99.71 314.73 78.04 314.90 C 72.68 315.06 67.38 315.99 62.02 316.05 C 62.01 315.24 62.00 313.63 61.99 312.83 Z" />
</g>
<g id="#d78850ff">
<path fill="#d78850" opacity="1.00" d=" M 48.03 316.07 C 52.49 316.15 56.13 313.41 59.95 311.52 C 59.99 320.36 60.01 329.19 60.00 338.03 C 48.33 338.27 36.65 338.13 25.02 339.20 C 20.89 339.59 17.12 341.57 13.01 342.10 C 8.70 342.67 4.33 342.44 0.00 342.27 L 0.00 316.36 C 5.79 317.77 11.72 317.03 17.56 316.54 C 27.71 316.60 37.88 316.48 48.03 316.07 Z" />
<path fill="#d78850" opacity="1.00" d=" M 457.97 371.86 C 463.04 371.51 467.87 369.48 473.00 369.71 L 473.00 391.13 C 461.02 392.07 448.81 391.52 437.06 394.33 C 439.27 395.71 441.39 397.24 443.39 398.93 C 438.10 400.39 432.47 400.54 427.42 402.84 C 428.29 403.92 429.18 404.99 430.06 406.08 C 425.05 406.80 420.01 407.30 414.99 407.97 C 415.03 396.50 414.99 385.02 415.00 373.55 C 429.24 371.68 443.69 373.47 457.97 371.86 Z" />
</g>
<g id="#d88952ff">
<path fill="#d88952" opacity="1.00" d=" M 62.02 316.05 C 67.38 315.99 72.68 315.06 78.04 314.90 C 99.71 314.73 121.37 315.40 143.02 316.16 C 153.36 317.00 163.70 317.94 174.07 318.34 C 188.01 319.53 202.05 318.45 215.97 320.01 C 230.32 320.56 244.68 319.89 259.03 320.16 C 271.03 319.76 283.02 320.81 295.01 320.21 C 298.46 320.07 301.82 320.98 305.11 321.88 C 305.29 321.54 305.64 320.84 305.82 320.49 C 307.23 320.98 308.65 321.46 310.08 321.93 C 307.76 322.89 305.48 323.93 303.29 325.15 C 320.19 328.74 337.74 327.35 354.69 330.80 C 355.74 331.15 356.77 331.56 357.78 332.03 C 347.09 335.62 335.56 333.27 324.66 335.62 C 321.36 336.45 319.02 339.05 316.95 341.58 C 319.21 342.11 321.48 342.63 323.76 343.11 C 321.61 344.49 319.59 346.07 317.75 347.85 C 324.79 349.88 332.12 350.45 339.31 351.68 C 338.27 352.44 337.28 353.50 335.88 353.43 C 323.59 354.25 311.27 354.19 298.98 354.78 C 291.35 354.37 283.84 356.00 276.25 356.43 C 278.35 357.07 280.40 357.88 282.40 358.83 C 275.03 362.20 267.23 364.73 259.07 365.09 C 252.45 365.30 245.89 366.39 239.25 366.38 C 239.25 366.67 239.23 367.24 239.22 367.53 C 245.28 367.77 251.56 368.45 256.69 372.02 C 245.70 374.25 234.32 374.20 223.55 377.46 C 218.61 378.73 213.35 378.48 208.55 380.37 C 203.64 382.31 198.79 384.49 193.61 385.67 C 191.18 386.05 188.76 386.48 186.32 386.80 C 179.49 386.38 172.84 388.26 166.10 388.97 C 160.37 390.65 154.37 387.40 148.77 389.67 C 145.55 390.88 143.53 393.85 140.71 395.66 C 138.41 396.59 135.81 396.41 133.53 397.40 C 131.17 398.68 130.48 401.75 128.04 402.94 C 125.04 404.29 121.78 404.96 118.59 405.70 C 108.37 406.80 98.07 406.47 87.87 407.77 C 79.37 408.96 70.66 408.09 62.26 410.05 C 61.72 399.70 62.10 389.32 62.05 378.96 C 67.04 378.25 72.02 377.40 76.86 375.96 C 75.07 375.19 73.30 374.36 71.61 373.38 C 79.20 370.36 87.50 370.33 95.40 368.55 C 99.77 367.52 104.53 367.61 108.60 365.57 C 112.37 362.46 116.51 359.90 120.77 357.51 C 117.88 356.18 115.10 354.57 112.81 352.35 C 119.14 350.61 125.68 350.03 132.18 349.25 C 127.84 348.08 123.36 347.69 118.94 347.02 C 113.29 346.18 107.76 344.52 102.02 344.27 C 94.70 343.87 87.38 343.50 80.09 342.70 C 81.83 341.64 83.55 340.57 85.25 339.46 C 77.86 336.65 69.72 338.24 62.00 338.26 C 62.04 330.85 61.97 323.45 62.02 316.05 Z" />
</g>
<g id="#bc6b3cff">
<path fill="#bc6b3c" opacity="1.00" d=" M 353.07 327.51 C 354.45 327.23 355.83 326.98 357.22 326.77 C 364.73 328.52 372.46 329.14 379.91 331.19 C 385.67 332.79 391.66 333.24 397.61 333.63 C 397.61 334.92 397.63 336.22 397.65 337.52 C 387.45 340.51 376.46 339.90 366.58 344.15 C 367.01 345.63 366.73 347.90 368.63 348.40 C 372.72 350.02 377.32 349.46 381.37 351.21 C 371.63 352.83 360.80 352.19 352.33 358.03 C 358.42 360.21 365.04 359.63 371.18 361.61 C 362.03 364.20 352.36 363.63 342.94 363.82 C 333.07 363.06 323.20 363.98 313.35 364.52 C 311.44 364.27 309.55 363.94 307.66 363.59 C 316.71 358.73 327.48 359.82 337.37 358.45 C 334.50 357.40 331.32 357.99 328.46 356.87 C 331.27 354.64 335.00 356.31 338.19 355.40 C 343.02 354.26 348.11 351.67 352.92 354.37 C 354.71 352.93 356.38 351.25 358.54 350.37 C 360.73 350.43 363.11 351.94 365.00 350.15 C 362.00 349.21 360.00 346.90 358.62 344.19 C 357.90 344.82 357.19 345.45 356.48 346.10 C 356.92 347.17 357.35 348.24 357.80 349.33 C 355.27 349.59 352.49 350.22 350.30 348.53 C 351.29 347.79 352.30 347.05 353.31 346.33 C 352.80 345.37 352.28 344.41 351.79 343.46 C 354.39 341.18 357.81 340.37 361.21 340.57 C 367.25 340.71 373.10 338.92 379.10 338.53 C 372.48 335.32 365.04 336.02 357.92 335.61 C 362.88 334.45 368.67 335.31 372.85 331.93 C 366.32 330.09 359.33 330.35 353.07 327.51 Z" />
</g>
<g id="#ca7944ff">
<path fill="#ca7944" opacity="1.00" d=" M 25.02 339.20 C 36.65 338.13 48.33 338.27 60.00 338.03 L 59.98 339.11 C 55.14 340.52 50.13 339.52 45.22 339.63 C 41.90 341.07 38.45 342.40 35.54 344.60 C 33.21 346.59 29.89 345.85 27.07 346.28 C 22.87 346.80 18.71 345.94 14.56 345.41 C 11.33 344.81 8.79 347.26 6.27 348.84 C 5.77 347.68 5.27 346.53 4.77 345.37 C 3.18 345.22 1.59 345.07 0.00 344.93 L 0.00 342.27 C 4.33 342.44 8.70 342.67 13.01 342.10 C 17.12 341.57 20.89 339.59 25.02 339.20 Z" />
</g>
<g id="#c37442ff">
<path fill="#c37442" opacity="1.00" d=" M 62.00 338.26 C 69.72 338.24 77.86 336.65 85.25 339.46 C 83.55 340.57 81.83 341.64 80.09 342.70 C 87.38 343.50 94.70 343.87 102.02 344.27 C 107.76 344.52 113.29 346.18 118.94 347.02 C 123.36 347.69 127.84 348.08 132.18 349.25 C 125.68 350.03 119.14 350.61 112.81 352.35 C 115.10 354.57 117.88 356.18 120.77 357.51 C 116.51 359.90 112.37 362.46 108.60 365.57 C 104.53 367.61 99.77 367.52 95.40 368.55 C 87.50 370.33 79.20 370.36 71.61 373.38 C 73.30 374.36 75.07 375.19 76.86 375.96 C 72.02 377.40 67.04 378.25 62.05 378.96 C 61.96 365.39 62.05 351.82 62.00 338.26 Z" />
</g>
<g id="#bc6b3bff">
<path fill="#bc6b3b" opacity="1.00" d=" M 35.54 344.60 C 38.45 342.40 41.90 341.07 45.22 339.63 C 50.13 339.52 55.14 340.52 59.98 339.11 C 59.97 342.77 60.01 346.43 59.98 350.10 C 54.28 351.51 47.74 353.04 42.39 349.78 C 38.70 350.50 34.93 351.55 31.15 350.88 C 29.63 350.53 28.13 350.96 26.67 351.33 C 24.62 351.02 22.54 350.98 20.48 351.25 C 16.88 351.70 13.33 349.74 9.77 350.88 C 6.59 351.91 3.25 351.58 0.00 351.15 L 0.00 344.93 C 1.59 345.07 3.18 345.22 4.77 345.37 C 5.27 346.53 5.77 347.68 6.27 348.84 C 8.79 347.26 11.33 344.81 14.56 345.41 C 18.71 345.94 22.87 346.80 27.07 346.28 C 29.89 345.85 33.21 346.59 35.54 344.60 Z" />
</g>
<g id="#ce7f4aff">
<path fill="#ce7f4a" opacity="1.00" d=" M 42.39 349.78 C 47.74 353.04 54.28 351.51 59.98 350.10 C 59.92 356.76 59.98 363.43 60.00 370.10 C 59.12 370.58 58.24 371.08 57.37 371.57 C 55.89 371.05 54.42 370.54 52.95 370.03 C 52.72 370.43 52.26 371.23 52.03 371.63 C 42.66 367.40 33.09 375.07 23.59 371.67 C 25.14 378.05 33.63 374.77 36.40 379.90 C 34.13 379.65 31.90 379.14 29.73 378.44 C 27.43 379.21 25.01 379.74 22.63 378.93 C 20.42 381.39 17.17 381.91 14.03 381.51 C 9.34 381.10 4.61 383.02 0.00 381.57 L 0.00 351.15 C 3.25 351.58 6.59 351.91 9.77 350.88 C 13.33 349.74 16.88 351.70 20.48 351.25 C 22.54 350.98 24.62 351.02 26.67 351.33 C 28.13 350.96 29.63 350.53 31.15 350.88 C 34.93 351.55 38.70 350.50 42.39 349.78 Z" />
</g>
<g id="#bf7040ff">
<path fill="#bf7040" opacity="1.00" d=" M 441.84 363.44 C 452.14 361.25 462.86 361.51 473.00 358.40 L 473.00 369.71 C 467.87 369.48 463.04 371.51 457.97 371.86 C 443.69 373.47 429.24 371.68 415.00 373.55 C 414.99 372.46 414.99 371.38 415.00 370.30 C 421.33 370.44 427.65 369.99 433.98 369.95 C 439.37 369.56 445.01 369.49 449.97 367.08 C 447.25 365.88 444.51 364.73 441.84 363.44 Z" />
</g>
<g id="#b76739ff">
<path fill="#b76739" opacity="1.00" d=" M 297.43 365.72 C 298.77 364.57 299.53 362.02 301.66 362.34 C 303.80 362.16 305.44 363.61 306.82 365.05 C 303.69 365.25 300.55 365.42 297.43 365.72 Z" />
</g>
<g id="#b46737ff">
<path fill="#b46737" opacity="1.00" d=" M 285.77 368.45 C 287.49 365.96 289.61 363.06 293.01 363.15 C 295.04 362.60 296.17 364.48 297.35 365.74 C 295.94 366.09 294.53 366.43 293.13 366.79 C 290.68 367.37 288.23 367.92 285.77 368.45 Z" />
</g>
<g id="#be6f3fff">
<path fill="#be6f3f" opacity="1.00" d=" M 23.59 371.67 C 33.09 375.07 42.66 367.40 52.03 371.63 C 52.26 371.23 52.72 370.43 52.95 370.03 C 54.42 370.54 55.89 371.05 57.37 371.57 C 58.24 371.08 59.12 370.58 60.00 370.10 C 60.00 373.12 59.98 376.15 59.98 379.18 C 54.78 380.65 49.46 381.71 44.06 382.02 C 28.91 382.83 14.07 386.78 0.00 392.33 L 0.00 381.57 C 4.61 383.02 9.34 381.10 14.03 381.51 C 17.17 381.91 20.42 381.39 22.63 378.93 C 25.01 379.74 27.43 379.21 29.73 378.44 C 31.90 379.14 34.13 379.65 36.40 379.90 C 33.63 374.77 25.14 378.05 23.59 371.67 Z" />
<path fill="#be6f3f" opacity="1.00" d=" M 312.97 387.16 C 322.93 385.12 333.05 384.02 343.09 382.39 C 343.52 382.67 344.38 383.22 344.82 383.50 C 342.38 387.13 337.86 385.02 334.41 386.37 C 329.08 388.38 323.27 387.62 317.78 388.87 C 313.27 389.43 309.37 392.02 304.95 392.84 C 296.89 393.91 289.14 396.72 280.94 396.72 C 272.66 398.07 264.29 398.44 255.95 399.23 C 252.25 398.95 248.47 398.30 244.97 400.00 C 247.05 400.57 249.12 401.20 251.16 401.95 C 246.25 405.22 240.34 403.00 234.92 403.91 C 230.66 404.56 226.35 404.44 222.07 404.63 C 219.68 404.54 218.84 407.24 217.00 408.23 C 210.51 411.05 203.31 410.95 196.57 412.80 C 191.32 413.24 186.02 412.95 180.75 412.90 C 188.76 411.28 196.47 408.54 204.26 406.13 C 212.97 403.48 222.19 403.73 231.06 401.96 C 233.19 401.48 234.06 398.89 236.24 398.45 C 242.07 397.01 248.12 397.41 254.06 396.84 C 261.28 396.15 268.58 396.08 275.73 394.72 C 280.22 393.89 284.34 391.79 288.78 390.78 C 296.73 388.91 304.97 388.85 312.97 387.16 Z" />
</g>
<g id="#bf6e3cff">
<path fill="#bf6e3c" opacity="1.00" d=" M 392.95 371.74 C 399.60 370.78 406.35 371.23 413.00 370.33 C 412.99 371.02 412.98 372.40 412.98 373.09 C 406.06 371.86 399.30 374.43 392.41 374.61 C 386.89 374.75 381.53 376.42 376.00 376.41 C 372.95 376.42 369.91 376.69 366.95 377.42 C 369.62 377.92 372.32 378.28 375.03 378.51 C 373.71 380.03 372.75 382.17 370.75 382.88 C 367.55 382.96 364.33 382.68 361.20 383.52 C 356.31 384.69 351.27 384.58 346.29 384.23 C 346.39 383.71 346.57 382.67 346.66 382.15 C 351.45 382.34 356.28 381.89 360.74 380.02 C 357.18 378.72 353.57 377.57 349.93 376.52 C 357.64 376.02 365.32 375.19 373.04 374.86 C 379.77 374.45 386.28 372.57 392.95 371.74 Z" />
</g>
<g id="#b76839ff">
<path fill="#b76839" opacity="1.00" d=" M 251.98 375.88 C 261.76 375.01 271.77 373.58 281.49 375.73 C 272.72 376.59 263.74 376.05 255.14 378.19 C 243.63 381.77 231.32 380.69 219.68 383.66 C 210.13 386.33 199.95 385.98 190.59 389.44 C 184.57 391.58 178.18 392.14 171.88 392.88 C 167.40 393.32 163.55 395.82 159.38 397.24 C 154.24 399.05 148.61 399.24 143.68 401.68 C 139.53 403.75 135.40 406.12 130.70 406.64 C 119.52 407.74 108.27 407.85 97.07 408.66 C 85.34 409.91 73.56 410.89 61.76 411.05 L 62.26 410.05 C 70.66 408.09 79.37 408.96 87.87 407.77 C 98.07 406.47 108.37 406.80 118.59 405.70 C 124.90 405.98 131.66 405.77 137.18 402.31 C 138.66 401.53 139.44 400.02 140.29 398.66 C 147.83 397.58 155.63 396.16 161.84 391.41 C 162.59 391.81 163.34 392.21 164.10 392.62 C 167.40 390.17 171.47 390.10 175.39 390.50 C 179.51 391.10 182.44 387.45 186.32 386.80 C 188.76 386.48 191.18 386.05 193.61 385.67 C 198.16 385.61 202.74 385.34 207.12 384.01 C 211.62 382.59 216.59 383.17 220.84 380.93 C 223.70 379.46 226.99 380.06 230.07 379.62 C 232.06 378.88 233.35 376.74 235.60 376.59 C 241.03 375.89 246.53 376.38 251.98 375.88 Z" />
</g>
<g id="#c97946ff">
<path fill="#c97946" opacity="1.00" d=" M 166.10 388.97 C 172.84 388.26 179.49 386.38 186.32 386.80 C 182.44 387.45 179.51 391.10 175.39 390.50 C 171.47 390.10 167.40 390.17 164.10 392.62 C 163.34 392.21 162.59 391.81 161.84 391.41 C 155.63 396.16 147.83 397.58 140.29 398.66 C 139.44 400.02 138.66 401.53 137.18 402.31 C 131.66 405.77 124.90 405.98 118.59 405.70 C 121.78 404.96 125.04 404.29 128.04 402.94 C 130.48 401.75 131.17 398.68 133.53 397.40 C 135.81 396.41 138.41 396.59 140.71 395.66 C 143.53 393.85 145.55 390.88 148.77 389.67 C 154.37 387.40 160.37 390.65 166.10 388.97 Z" />
</g>
<g id="#be7040ff">
<path fill="#be7040" opacity="1.00" d=" M 437.06 394.33 C 448.81 391.52 461.02 392.07 473.00 391.13 L 473.00 404.85 C 468.01 407.12 462.43 407.36 457.32 409.26 C 457.84 408.32 458.37 407.39 458.89 406.47 C 457.90 406.07 456.92 405.66 455.91 405.36 C 453.95 406.57 453.43 409.39 451.20 410.34 C 447.07 412.49 442.33 411.43 438.01 410.60 C 438.10 411.40 438.20 412.21 438.31 413.02 C 441.20 414.33 444.02 415.81 446.94 417.08 C 450.39 418.61 454.34 418.26 457.75 419.96 C 454.04 423.05 449.09 420.59 444.84 421.93 C 444.31 421.48 443.78 421.06 443.25 420.65 C 442.39 421.69 441.54 422.74 440.69 423.79 C 441.68 424.63 442.68 425.47 443.69 426.31 C 444.60 425.38 445.51 424.45 446.43 423.53 C 450.65 424.47 454.77 425.99 459.06 426.54 C 460.90 425.86 462.00 423.82 463.42 422.49 C 462.35 421.86 461.28 421.22 460.23 420.59 C 463.03 418.71 466.71 420.88 469.85 419.60 C 470.11 419.81 470.64 420.23 470.91 420.44 C 469.24 421.13 467.58 421.82 465.92 422.51 C 467.01 422.95 468.09 423.40 469.19 423.87 C 469.67 425.72 471.28 426.42 473.00 426.80 L 473.00 432.10 C 467.19 432.19 461.38 431.99 455.58 432.36 C 454.84 432.35 454.11 432.37 453.39 432.39 C 446.73 432.29 440.02 431.26 433.42 432.59 C 427.76 426.88 422.09 421.20 416.38 415.56 C 414.17 413.67 415.26 410.48 414.99 407.97 C 420.01 407.30 425.05 406.80 430.06 406.08 C 429.18 404.99 428.29 403.92 427.42 402.84 C 432.47 400.54 438.10 400.39 443.39 398.93 C 441.39 397.24 439.27 395.71 437.06 394.33 M 428.97 410.16 C 428.99 411.71 430.83 412.33 431.75 413.35 C 432.61 412.29 433.47 411.24 434.33 410.19 C 433.23 409.56 432.49 407.97 431.11 408.05 C 430.29 408.65 429.58 409.35 428.97 410.16 Z" />
</g>
<g id="#cd7c49ff">
<path fill="#cd7c49" opacity="1.00" d=" M 34.79 405.31 C 41.01 405.36 47.21 404.91 53.40 404.43 C 55.70 404.17 57.88 405.04 60.00 405.82 C 60.00 407.15 60.00 408.48 60.01 409.82 C 54.49 410.52 48.93 410.41 43.38 410.20 C 40.17 409.95 37.16 411.24 34.03 411.69 C 27.70 412.45 21.32 412.71 14.95 412.82 C 9.89 413.50 4.99 415.00 0.00 416.05 L 0.00 413.06 C 4.52 411.93 9.20 411.63 13.75 410.64 C 15.57 410.44 16.49 408.74 17.58 407.51 C 23.42 407.52 28.97 405.36 34.79 405.31 Z" />
</g>
<g id="#ca7b48ff">
<path fill="#ca7b48" opacity="1.00" d=" M 451.20 410.34 C 453.43 409.39 453.95 406.57 455.91 405.36 C 456.92 405.66 457.90 406.07 458.89 406.47 C 458.37 407.39 457.84 408.32 457.32 409.26 C 462.43 407.36 468.01 407.12 473.00 404.85 L 473.00 426.80 C 471.28 426.42 469.67 425.72 469.19 423.87 C 468.09 423.40 467.01 422.95 465.92 422.51 C 467.58 421.82 469.24 421.13 470.91 420.44 C 470.64 420.23 470.11 419.81 469.85 419.60 C 466.71 420.88 463.03 418.71 460.23 420.59 C 461.28 421.22 462.35 421.86 463.42 422.49 C 462.00 423.82 460.90 425.86 459.06 426.54 C 454.77 425.99 450.65 424.47 446.43 423.53 C 446.03 423.13 445.24 422.33 444.84 421.93 C 449.09 420.59 454.04 423.05 457.75 419.96 C 454.34 418.26 450.39 418.61 446.94 417.08 C 444.02 415.81 441.20 414.33 438.31 413.02 C 438.20 412.21 438.10 411.40 438.01 410.60 C 442.33 411.43 447.07 412.49 451.20 410.34 Z" />
</g>
<g id="#160d07ff">
<path fill="#160d07" opacity="1.00" d=" M 428.97 410.16 C 429.58 409.35 430.29 408.65 431.11 408.05 C 432.49 407.97 433.23 409.56 434.33 410.19 C 433.47 411.24 432.61 412.29 431.75 413.35 C 430.83 412.33 428.99 411.71 428.97 410.16 Z" />
</g>
<g id="#ba6d3eff">
<path fill="#ba6d3e" opacity="1.00" d=" M 395.33 412.83 C 400.55 409.51 406.93 408.90 412.96 408.57 C 412.98 410.04 412.99 411.52 413.00 413.00 C 407.11 412.93 401.22 413.15 395.33 412.83 Z" />
</g>
<g id="#b76a3eff">
<path fill="#b76a3e" opacity="1.00" d=" M 34.03 411.69 C 37.16 411.24 40.17 409.95 43.38 410.20 C 48.93 410.41 54.49 410.52 60.01 409.82 C 60.00 410.33 59.98 411.36 59.98 411.87 C 54.11 412.24 48.25 412.70 42.45 413.71 C 42.19 413.47 41.65 412.98 41.38 412.74 C 40.59 413.55 39.81 414.37 39.02 415.19 C 38.81 414.74 38.40 413.83 38.20 413.38 C 33.46 413.59 28.73 414.11 23.98 414.13 C 15.70 414.00 8.12 417.83 0.00 418.84 L 0.00 416.05 C 4.99 415.00 9.89 413.50 14.95 412.82 C 21.32 412.71 27.70 412.45 34.03 411.69 Z" />
</g>
<g id="#100a06ff">
<path fill="#100a06" opacity="1.00" d=" M 41.38 412.74 C 41.65 412.98 42.19 413.47 42.45 413.71 C 42.92 414.19 43.86 415.13 44.32 415.61 C 43.38 416.54 42.44 417.48 41.50 418.42 C 40.60 417.40 39.69 416.38 39.02 415.19 C 39.81 414.37 40.59 413.55 41.38 412.74 Z" />
<path fill="#100a06" opacity="1.00" d=" M 415.40 438.68 C 416.44 439.63 417.44 440.65 418.38 441.72 C 417.34 442.59 416.30 443.47 415.26 444.34 C 414.41 443.32 413.56 442.31 412.73 441.29 C 413.62 440.41 414.50 439.55 415.40 438.68 Z" />
</g>
<g id="#bb6c3cff">
<path fill="#bb6c3c" opacity="1.00" d=" M 159.39 415.02 C 162.35 414.97 165.30 415.01 168.26 415.02 C 165.99 416.73 163.89 418.97 161.03 419.66 C 158.22 420.34 155.41 421.03 152.74 422.14 C 156.48 425.51 161.73 424.35 166.25 425.48 C 172.23 426.77 178.45 425.31 184.40 426.68 C 186.29 428.67 187.47 431.21 188.94 433.52 C 185.98 433.21 182.97 433.18 180.08 433.97 C 176.12 435.04 171.99 434.61 167.96 434.31 C 169.09 435.66 170.21 437.00 171.35 438.35 C 169.72 440.72 168.02 443.26 165.15 444.22 C 163.75 441.46 164.71 438.60 165.99 436.02 C 163.92 435.07 161.89 433.98 160.28 432.33 C 164.30 432.08 168.32 431.59 172.25 430.61 C 171.37 429.89 170.53 429.12 169.58 428.52 C 160.87 425.44 150.74 427.96 142.71 422.69 C 147.68 419.01 153.79 417.47 159.39 415.02 Z" />
</g>
<g id="#c67745ff">
<path fill="#c67745" opacity="1.00" d=" M 168.26 415.02 C 172.63 414.98 176.99 415.02 181.35 415.11 C 176.06 416.73 171.08 419.17 165.84 420.94 C 165.65 421.32 165.27 422.07 165.08 422.45 C 172.09 422.83 178.93 424.59 185.95 424.85 C 188.60 424.86 189.86 427.60 192.04 428.66 C 194.54 429.79 197.39 430.42 199.23 432.65 C 194.74 435.60 189.41 436.66 184.10 436.36 C 188.11 439.65 193.32 440.22 198.22 441.22 C 195.74 442.50 193.26 444.25 190.34 444.14 C 186.39 444.15 182.04 443.84 178.78 446.50 C 181.77 447.09 184.79 447.45 187.81 447.87 C 185.37 449.34 182.77 450.67 179.92 451.04 C 176.50 451.74 172.68 451.08 169.70 453.24 C 175.61 454.14 181.60 454.08 187.55 454.50 C 185.37 454.99 183.21 455.71 180.95 455.75 C 170.37 455.57 159.96 452.24 149.35 453.31 C 146.11 453.71 142.97 451.19 139.82 452.81 C 136.15 454.35 132.17 453.14 128.40 452.77 C 128.80 451.80 129.20 450.84 129.61 449.88 C 125.01 451.16 120.91 453.87 116.14 454.56 C 115.86 453.46 115.58 452.36 115.31 451.27 C 117.43 450.48 119.54 449.65 121.62 448.76 C 119.78 448.51 117.95 448.30 116.11 448.12 C 115.62 447.28 115.12 446.45 114.63 445.62 C 118.12 442.55 123.22 446.46 126.66 443.18 C 127.59 442.57 128.50 441.94 129.41 441.32 C 129.13 440.48 128.86 439.64 128.58 438.81 C 133.39 436.13 138.88 435.38 144.27 434.94 C 141.79 436.06 139.30 437.19 136.77 438.19 C 136.91 438.97 137.06 439.77 137.20 440.57 C 136.06 441.90 134.93 443.24 133.81 444.61 C 136.01 444.86 138.23 444.87 140.43 444.68 C 140.46 443.15 140.49 441.63 140.51 440.11 C 142.92 439.18 145.55 437.56 148.17 438.74 C 150.25 439.40 150.95 441.70 152.11 443.32 C 154.60 443.58 157.11 443.69 159.61 443.74 C 160.27 442.73 160.93 441.74 161.59 440.74 C 161.07 440.39 160.03 439.68 159.51 439.32 C 159.51 437.63 159.51 435.95 159.50 434.28 C 158.31 433.73 157.12 433.17 155.93 432.64 C 157.38 432.49 158.83 432.41 160.28 432.33 C 161.89 433.98 163.92 435.07 165.99 436.02 C 164.71 438.60 163.75 441.46 165.15 444.22 C 168.02 443.26 169.72 440.72 171.35 438.35 C 170.21 437.00 169.09 435.66 167.96 434.31 C 171.99 434.61 176.12 435.04 180.08 433.97 C 182.97 433.18 185.98 433.21 188.94 433.52 C 187.47 431.21 186.29 428.67 184.40 426.68 C 178.45 425.31 172.23 426.77 166.25 425.48 C 161.73 424.35 156.48 425.51 152.74 422.14 C 155.41 421.03 158.22 420.34 161.03 419.66 C 163.89 418.97 165.99 416.73 168.26 415.02 Z" />
</g>
<g id="#be6e3eff">
<path fill="#be6e3e" opacity="1.00" d=" M 390.27 415.06 C 398.16 414.96 406.06 414.96 413.95 415.10 C 418.78 420.61 424.24 425.51 429.27 430.84 C 422.70 429.61 416.03 429.85 409.40 430.23 C 408.36 429.41 407.34 428.60 406.31 427.79 C 405.47 428.58 404.62 429.37 403.79 430.16 C 395.08 428.48 386.03 430.48 377.47 427.83 C 384.89 424.73 393.18 424.94 401.08 424.22 C 402.38 424.16 403.30 423.10 404.37 422.48 C 397.04 419.57 388.94 420.31 381.51 417.80 C 384.27 416.43 387.25 415.61 390.27 415.06 Z" />
</g>
<g id="#160d08ff">
<path fill="#160d08" opacity="1.00" d=" M 443.25 420.65 C 443.78 421.06 444.31 421.48 444.84 421.93 C 445.24 422.33 446.03 423.13 446.43 423.53 C 445.51 424.45 444.60 425.38 443.69 426.31 C 442.68 425.47 441.68 424.63 440.69 423.79 C 441.54 422.74 442.39 421.69 443.25 420.65 Z" />
</g>
<g id="#070403ff">
<path fill="#070403" opacity="1.00" d=" M 406.31 427.79 C 407.34 428.60 408.36 429.41 409.40 430.23 C 408.37 431.29 407.33 432.35 406.29 433.41 C 405.44 432.33 404.61 431.25 403.79 430.16 C 404.62 429.37 405.47 428.58 406.31 427.79 Z" />
</g>
<g id="#bd6e3eff">
<path fill="#bd6e3e" opacity="1.00" d=" M 82.85 444.07 C 89.81 442.82 96.91 443.25 103.94 443.02 C 111.51 443.17 119.10 442.53 126.66 443.18 C 123.22 446.46 118.12 442.55 114.63 445.62 C 115.12 446.45 115.62 447.28 116.11 448.12 C 117.95 448.30 119.78 448.51 121.62 448.76 C 119.54 449.65 117.43 450.48 115.31 451.27 C 115.58 452.36 115.86 453.46 116.14 454.56 C 120.91 453.87 125.01 451.16 129.61 449.88 C 129.20 450.84 128.80 451.80 128.40 452.77 C 132.17 453.14 136.15 454.35 139.82 452.81 C 142.97 451.19 146.11 453.71 149.35 453.31 C 159.96 452.24 170.37 455.57 180.95 455.75 C 183.21 455.71 185.37 454.99 187.55 454.50 C 192.84 454.38 198.12 454.98 203.40 455.03 C 213.86 453.47 224.44 454.56 234.95 454.77 C 247.73 455.03 260.46 456.25 273.23 456.59 C 271.02 458.99 268.96 462.32 265.32 462.45 C 258.65 462.77 252.02 463.91 245.34 463.57 C 241.32 463.39 237.40 464.60 233.39 464.52 C 228.22 464.38 223.18 466.05 218.00 465.69 C 207.66 465.14 197.33 466.64 187.00 465.80 C 180.87 465.23 174.79 466.39 168.69 466.71 C 159.19 468.19 149.54 467.64 139.98 468.32 C 125.27 468.42 110.61 469.92 95.89 469.89 C 79.33 469.87 62.76 469.53 46.19 469.44 C 32.99 468.27 19.75 469.78 6.54 469.48 C 7.79 468.20 9.05 466.93 10.31 465.67 C 12.20 465.96 14.08 466.24 15.99 466.30 C 28.99 466.29 42.02 465.93 54.99 467.02 C 63.99 467.48 73.00 466.68 82.00 467.18 C 109.40 468.40 136.62 464.04 163.99 464.06 C 181.61 462.66 199.30 463.21 216.94 462.28 C 223.70 462.27 230.60 462.64 237.15 460.62 C 223.49 458.80 209.70 461.51 196.03 460.03 C 186.78 457.43 177.09 457.73 167.62 456.55 C 156.80 455.26 145.89 455.49 135.04 456.16 C 125.08 455.85 114.91 457.13 105.12 454.82 C 102.43 454.77 102.96 451.06 100.63 450.61 C 94.50 449.06 88.21 447.61 82.85 444.07 Z" />
</g>
<g id="#c27443ff">
<path fill="#c27443" opacity="1.00" d=" M 455.80 457.47 C 457.53 459.32 459.28 461.16 461.09 462.94 C 459.11 462.02 456.94 461.25 454.73 461.68 C 449.20 462.43 443.68 463.67 438.06 463.12 C 437.72 461.99 437.37 460.87 437.03 459.75 C 443.02 457.02 449.93 460.26 455.80 457.47 Z" />
</g>
<g id="#c37643ff">
<path fill="#c37643" opacity="1.00" d=" M 391.27 458.81 C 393.11 458.32 395.01 458.38 396.90 458.44 C 400.61 458.58 404.26 457.08 407.96 457.90 C 414.05 459.55 420.33 456.00 426.37 458.53 C 429.42 460.12 432.91 457.60 435.73 459.88 C 433.61 461.15 431.52 462.63 429.06 463.12 C 420.96 462.12 412.77 462.82 404.66 461.94 C 400.14 462.11 394.46 462.74 391.27 458.81 Z" />
</g>
<g id="#c57b49ff">
<path fill="#c57b49" opacity="1.00" d=" M 0.00 466.33 C 2.09 466.72 4.19 467.02 6.30 467.33 C 4.42 469.21 2.64 471.17 0.71 473.00 L 0.00 473.00 L 0.00 466.33 Z" />
</g>
</svg>
