<?xml version="1.0" encoding="UTF-8" ?>
<!DOCTYPE svg PUBLIC "-//W3C//DTD SVG 1.1//EN" "http://www.w3.org/Graphics/SVG/1.1/DTD/svg11.dtd">
<svg width="256pt" height="256pt" viewBox="0 0 256 256" version="1.1" xmlns="http://www.w3.org/2000/svg">
<g id="#4b944aff">
<path fill="#4b944a" opacity="1.00" d=" M 0.00 0.00 L 256.00 0.00 L 256.00 256.00 L 0.00 256.00 L 0.00 0.00 M 108.08 6.30 C 111.26 14.10 113.19 22.29 114.23 30.64 C 113.96 35.21 113.97 39.80 114.28 44.37 C 113.31 51.06 112.69 57.81 111.07 64.38 C 108.16 77.23 101.41 88.95 92.82 98.83 C 75.75 118.39 50.00 127.42 32.63 146.64 C 21.84 158.51 17.44 175.18 18.56 190.96 C 19.13 206.05 24.56 220.36 31.15 233.76 C 26.83 233.80 22.52 233.82 18.21 234.01 C 18.18 239.64 18.21 245.28 18.17 250.91 C 91.12 251.10 164.08 250.98 237.03 250.97 L 237.99 250.93 C 238.17 245.03 238.22 239.14 237.81 233.25 C 232.21 233.23 226.59 232.93 220.99 233.17 C 222.51 230.01 224.17 226.92 225.81 223.82 C 231.19 212.93 234.56 201.19 237.46 189.45 C 240.79 172.15 237.61 154.14 231.08 137.96 C 227.28 128.82 222.40 119.86 215.27 112.89 C 211.10 123.15 207.64 133.73 202.61 143.62 C 199.83 149.14 197.25 154.93 192.92 159.46 C 192.67 152.42 193.40 145.37 192.74 138.35 C 193.05 135.48 193.03 132.54 192.12 129.77 C 191.16 116.92 187.81 104.27 182.52 92.53 C 179.62 86.47 176.10 80.61 171.33 75.83 C 171.21 78.01 171.09 80.19 171.11 82.38 C 169.04 82.63 169.13 86.56 170.44 87.82 C 169.07 94.18 168.53 100.71 166.73 106.99 C 165.16 113.41 162.33 119.42 159.21 125.21 C 158.81 124.71 158.00 123.71 157.60 123.21 C 158.83 119.86 159.15 116.27 159.56 112.75 C 160.91 97.54 160.16 82.10 156.84 67.18 C 152.66 48.25 145.22 28.83 130.06 15.96 C 124.42 11.35 117.93 6.78 110.50 6.10 C 111.31 3.73 106.07 4.55 108.08 6.30 Z" />
</g>
<g id="#bc6458ff">
<path fill="#bc6458" opacity="1.00" d=" M 108.08 6.30 C 106.07 4.55 111.31 3.73 110.50 6.10 C 109.90 6.15 108.68 6.25 108.08 6.30 Z" />
</g>
<g id="#fe1414ff">
<path fill="#fe1414" opacity="1.00" d=" M 108.08 6.30 C 108.68 6.25 109.90 6.15 110.50 6.10 C 117.93 6.78 124.42 11.35 130.06 15.96 C 145.22 28.83 152.66 48.25 156.84 67.18 C 160.16 82.10 160.91 97.54 159.56 112.75 C 159.15 116.27 158.83 119.86 157.60 123.21 C 157.11 124.11 156.86 125.05 156.84 126.05 C 157.24 127.76 159.12 126.29 159.21 125.21 C 162.33 119.42 165.16 113.41 166.73 106.99 C 168.53 100.71 169.07 94.18 170.44 87.82 C 170.95 86.05 171.21 84.22 171.11 82.38 C 171.09 80.19 171.21 78.01 171.33 75.83 C 176.10 80.61 179.62 86.47 182.52 92.53 C 187.81 104.27 191.16 116.92 192.12 129.77 C 192.24 132.64 192.45 135.50 192.74 138.35 C 193.40 145.37 192.67 152.42 192.92 159.46 C 197.25 154.93 199.83 149.14 202.61 143.62 C 207.64 133.73 211.10 123.15 215.27 112.89 C 222.40 119.86 227.28 128.82 231.08 137.96 C 237.61 154.14 240.79 172.15 237.46 189.45 C 234.56 201.19 231.19 212.93 225.81 223.82 C 224.17 226.92 222.51 230.01 220.99 233.17 L 220.53 233.99 C 226.01 234.00 231.50 234.07 236.99 234.08 C 237.14 239.71 237.17 245.34 237.03 250.97 C 164.08 250.98 91.12 251.10 18.17 250.91 C 18.21 245.28 18.18 239.64 18.21 234.01 C 22.52 233.82 26.83 233.80 31.15 233.76 C 24.56 220.36 19.13 206.05 18.56 190.96 C 17.44 175.18 21.84 158.51 32.63 146.64 C 50.00 127.42 75.75 118.39 92.82 98.83 C 101.41 88.95 108.16 77.23 111.07 64.38 C 112.69 57.81 113.31 51.06 114.28 44.37 C 115.24 39.84 115.23 35.16 114.23 30.64 C 113.19 22.29 111.26 14.10 108.08 6.30 Z" />
</g>
<g id="#e84948ff">
<path fill="#e84948" opacity="1.00" d=" M 114.23 30.64 C 115.23 35.16 115.24 39.84 114.28 44.37 C 113.97 39.80 113.96 35.21 114.23 30.64 Z" />
</g>
<g id="#ca645aff">
<path fill="#ca645a" opacity="1.00" d=" M 170.44 87.82 C 169.13 86.56 169.04 82.63 171.11 82.38 C 171.21 84.22 170.95 86.05 170.44 87.82 Z" />
</g>
<g id="#c7594bff">
<path fill="#c7594b" opacity="1.00" d=" M 156.84 126.05 C 156.86 125.05 157.11 124.11 157.60 123.21 C 158.00 123.71 158.81 124.71 159.21 125.21 C 159.12 126.29 157.24 127.76 156.84 126.05 Z" />
</g>
<g id="#d25a52ff">
<path fill="#d25a52" opacity="1.00" d=" M 192.12 129.77 C 193.03 132.54 193.05 135.48 192.74 138.35 C 192.45 135.50 192.24 132.64 192.12 129.77 Z" />
</g>
<g id="#5a5a30ff">
<path fill="#5a5a30" opacity="1.00" d=" M 220.99 233.17 C 226.59 232.93 232.21 233.23 237.81 233.25 C 238.22 239.14 238.17 245.03 237.99 250.93 L 237.03 250.97 C 237.17 245.34 237.14 239.71 236.99 234.08 C 231.50 234.07 226.01 234.00 220.53 233.99 L 220.99 233.17 Z" />
</g>
</svg>
