<?xml version="1.0" encoding="UTF-8" ?>
<!DOCTYPE svg PUBLIC "-//W3C//DTD SVG 1.1//EN" "http://www.w3.org/Graphics/SVG/1.1/DTD/svg11.dtd">
<svg width="256pt" height="256pt" viewBox="0 0 256 256" version="1.1" xmlns="http://www.w3.org/2000/svg">
<g id="#4b944aff">
<path fill="#4b944a" opacity="1.00" d=" M 0.00 0.00 L 256.00 0.00 L 256.00 256.00 L 0.00 256.00 L 0.00 0.00 M 138.38 5.47 L 138.36 6.14 C 136.84 6.04 135.27 6.17 133.91 6.89 C 127.60 9.84 122.58 15.56 120.79 22.32 C 119.66 26.32 119.64 30.58 120.87 34.56 C 123.16 43.23 131.05 50.18 140.00 51.18 C 148.08 52.52 156.49 48.90 161.55 42.56 C 163.19 40.34 165.14 37.85 165.10 34.96 L 165.97 34.73 L 166.32 33.71 L 165.78 32.97 L 165.89 31.39 C 167.94 31.27 168.11 26.64 166.06 26.42 C 166.30 20.33 162.76 14.69 158.38 10.73 C 155.57 8.46 152.34 5.92 148.51 6.21 C 148.67 4.23 145.23 4.02 144.27 5.38 L 142.86 4.73 L 141.75 5.38 C 140.62 4.22 139.50 4.24 138.38 5.47 M 91.24 42.10 C 85.58 44.65 81.38 49.38 77.21 53.83 C 74.02 56.19 71.21 59.03 69.01 62.34 C 63.00 68.53 57.08 74.82 51.02 80.97 C 46.46 85.79 41.06 91.28 41.11 98.37 L 40.65 98.30 C 39.00 99.53 39.20 102.44 40.57 103.82 L 40.53 105.22 C 39.06 106.42 38.95 110.44 41.22 110.51 C 41.32 115.01 43.98 118.92 46.76 122.24 C 51.76 128.10 59.33 131.36 66.98 131.59 C 74.02 131.87 80.35 135.90 87.43 135.87 C 87.05 137.74 90.27 138.07 90.88 136.53 L 92.39 136.77 C 92.00 138.64 95.22 139.15 95.85 137.54 C 96.48 137.63 97.74 137.80 98.37 137.89 C 98.01 139.77 101.26 140.08 101.85 138.50 C 102.50 138.58 103.81 138.74 104.46 138.81 L 104.38 139.26 C 105.50 141.00 108.44 140.83 109.79 139.46 L 111.47 139.67 C 111.64 141.90 115.52 141.93 116.81 140.52 C 119.36 141.30 122.57 141.17 124.31 143.55 C 132.35 152.91 139.96 162.63 147.99 171.99 C 150.61 174.98 153.68 178.35 157.98 178.42 C 166.02 179.53 174.38 172.26 173.60 163.99 C 173.35 158.90 169.30 155.29 166.30 151.58 L 165.48 151.22 C 166.53 149.81 164.32 147.35 162.83 148.35 C 161.41 145.22 158.95 142.76 156.78 140.15 C 152.89 135.69 149.24 131.03 145.42 126.51 C 143.41 124.26 140.90 121.71 137.57 122.20 L 137.63 121.65 C 136.84 120.18 134.40 120.09 133.37 121.33 C 126.82 118.82 120.14 116.38 113.27 114.96 L 113.02 114.08 L 111.98 113.74 L 111.24 114.30 C 107.75 112.59 103.90 111.80 100.21 110.64 C 100.60 109.85 101.38 108.27 101.78 107.49 C 103.58 108.39 106.34 105.57 105.44 103.77 C 112.00 98.78 117.04 92.06 123.04 86.43 C 123.45 86.79 124.29 87.50 124.70 87.86 C 126.46 89.70 128.34 91.43 130.35 93.01 C 133.79 96.34 137.59 99.31 140.63 103.03 C 141.00 103.25 141.75 103.69 142.12 103.91 C 146.55 105.72 151.39 104.96 156.03 105.01 C 168.37 105.03 180.71 104.96 193.05 105.13 C 195.26 105.03 197.85 105.05 199.68 103.70 L 199.93 103.40 C 207.10 102.16 211.19 93.18 208.34 86.65 C 206.60 81.56 201.29 78.39 196.02 78.62 C 182.04 78.64 168.05 78.54 154.07 78.71 C 152.74 78.61 151.28 78.91 150.05 78.30 C 147.37 74.83 144.32 71.65 140.94 68.85 C 135.77 62.80 129.52 57.66 125.20 50.92 C 117.97 40.25 102.76 36.67 91.24 42.10 M 15.14 235.15 C 14.95 240.42 14.89 245.69 14.99 250.96 L 16.00 251.00 C 91.00 251.00 166.00 251.00 241.00 251.00 L 241.98 250.98 C 242.09 245.71 242.03 240.45 241.83 235.18 C 209.89 234.84 177.94 235.14 146.00 235.03 C 102.38 235.11 58.76 234.86 15.14 235.15 Z" />
</g>
<g id="#c679e0ff">
<path fill="#c679e0" opacity="1.00" d=" M 138.38 5.47 C 139.50 4.24 140.62 4.22 141.75 5.38 C 140.78 6.14 139.54 6.29 138.36 6.14 L 138.38 5.47 Z" />
</g>
<g id="#9e3dffff">
<path fill="#9e3dff" opacity="1.00" d=" M 141.75 5.38 L 142.86 4.73 L 144.27 5.38 C 145.56 6.10 147.05 6.29 148.51 6.21 C 152.34 5.92 155.57 8.46 158.38 10.73 C 162.76 14.69 166.30 20.33 166.06 26.42 C 165.97 28.08 165.91 29.73 165.89 31.39 L 165.78 32.97 C 165.61 33.47 165.27 34.47 165.10 34.96 C 165.14 37.85 163.19 40.34 161.55 42.56 C 156.49 48.90 148.08 52.52 140.00 51.18 C 131.05 50.18 123.16 43.23 120.87 34.56 C 120.68 30.48 120.66 26.40 120.79 22.32 C 122.58 15.56 127.60 9.84 133.91 6.89 C 135.27 6.17 136.84 6.04 138.36 6.14 C 139.54 6.29 140.78 6.14 141.75 5.38 Z" />
<path fill="#9e3dff" opacity="1.00" d=" M 91.24 42.10 C 102.76 36.67 117.97 40.25 125.20 50.92 C 129.52 57.66 135.77 62.80 140.94 68.85 C 143.73 72.22 146.52 75.66 150.05 78.30 C 151.28 78.91 152.74 78.61 154.07 78.71 C 168.05 78.54 182.04 78.64 196.02 78.62 C 201.29 78.39 206.60 81.56 208.34 86.65 C 211.19 93.18 207.10 102.16 199.93 103.40 C 180.18 102.59 160.39 103.22 140.63 103.03 C 137.59 99.31 133.79 96.34 130.35 93.01 C 128.52 91.23 126.64 89.51 124.70 87.86 C 124.29 87.50 123.45 86.79 123.04 86.43 C 117.04 92.06 112.00 98.78 105.44 103.77 C 103.95 104.69 102.44 105.79 101.78 107.49 C 101.38 108.27 100.60 109.85 100.21 110.64 C 103.90 111.80 107.75 112.59 111.24 114.30 C 111.75 114.47 112.76 114.80 113.27 114.96 C 120.14 116.38 126.82 118.82 133.37 121.33 C 134.67 122.00 136.11 122.30 137.57 122.20 C 140.90 121.71 143.41 124.26 145.42 126.51 C 149.24 131.03 152.89 135.69 156.78 140.15 C 158.95 142.76 161.41 145.22 162.83 148.35 C 163.33 149.59 164.10 150.85 165.48 151.22 L 166.30 151.58 C 169.30 155.29 173.35 158.90 173.60 163.99 C 174.38 172.26 166.02 179.53 157.98 178.42 C 153.68 178.35 150.61 174.98 147.99 171.99 C 139.96 162.63 132.35 152.91 124.31 143.55 C 122.57 141.17 119.36 141.30 116.81 140.52 C 115.06 140.05 113.27 139.79 111.47 139.67 L 109.79 139.46 C 108.03 139.11 106.26 138.85 104.46 138.81 C 103.81 138.74 102.50 138.58 101.85 138.50 C 100.73 138.08 99.57 137.80 98.37 137.89 C 97.74 137.80 96.48 137.63 95.85 137.54 C 94.75 137.09 93.59 136.78 92.39 136.77 L 90.88 136.53 C 89.78 136.07 88.63 135.75 87.43 135.87 C 80.35 135.90 74.02 131.87 66.98 131.59 C 59.33 131.36 51.76 128.10 46.76 122.24 C 43.98 118.92 41.32 115.01 41.22 110.51 C 41.17 108.73 40.86 106.97 40.53 105.22 L 40.57 103.82 C 40.87 102.01 41.13 100.20 41.11 98.37 C 41.06 91.28 46.46 85.79 51.02 80.97 C 57.08 74.82 63.00 68.53 69.01 62.34 C 71.83 59.59 74.59 56.77 77.21 53.83 C 81.38 49.38 85.58 44.65 91.24 42.10 Z" />
<path fill="#9e3dff" opacity="1.00" d=" M 16.00 236.98 C 91.00 237.01 166.00 236.98 241.00 237.00 C 240.99 241.66 240.99 246.33 241.00 251.00 C 166.00 251.00 91.00 251.00 16.00 251.00 C 16.00 246.33 16.00 241.66 16.00 236.98 Z" />
</g>
<g id="#bf7ad9ff">
<path fill="#bf7ad9" opacity="1.00" d=" M 144.27 5.38 C 145.23 4.02 148.67 4.23 148.51 6.21 C 147.05 6.29 145.56 6.10 144.27 5.38 Z" />
</g>
<g id="#b772daff">
<path fill="#b772da" opacity="1.00" d=" M 120.87 34.56 C 119.64 30.58 119.66 26.32 120.79 22.32 C 120.66 26.40 120.68 30.48 120.87 34.56 Z" />
</g>
<g id="#968c9bff">
<path fill="#968c9b" opacity="1.00" d=" M 166.06 26.42 C 168.11 26.64 167.94 31.27 165.89 31.39 C 165.91 29.73 165.97 28.08 166.06 26.42 Z" />
</g>
<g id="#be74dfff">
<path fill="#be74df" opacity="1.00" d=" M 165.10 34.96 C 165.27 34.47 165.61 33.47 165.78 32.97 L 166.32 33.71 L 165.97 34.73 L 165.10 34.96 Z" />
</g>
<g id="#787f89ff">
<path fill="#787f89" opacity="1.00" d=" M 69.01 62.34 C 71.21 59.03 74.02 56.19 77.21 53.83 C 74.59 56.77 71.83 59.59 69.01 62.34 Z" />
</g>
<g id="#8971abff">
<path fill="#8971ab" opacity="1.00" d=" M 140.94 68.85 C 144.32 71.65 147.37 74.83 150.05 78.30 C 146.52 75.66 143.73 72.22 140.94 68.85 Z" />
</g>
<g id="#8f6eb4ff">
<path fill="#8f6eb4" opacity="1.00" d=" M 124.70 87.86 C 126.64 89.51 128.52 91.23 130.35 93.01 C 128.34 91.43 126.46 89.70 124.70 87.86 Z" />
</g>
<g id="#b767e7ff">
<path fill="#b767e7" opacity="1.00" d=" M 40.65 98.30 L 41.11 98.37 C 41.13 100.20 40.87 102.01 40.57 103.82 C 39.20 102.44 39.00 99.53 40.65 98.30 Z" />
</g>
<g id="#b370d6ff">
<path fill="#b370d6" opacity="1.00" d=" M 140.63 103.03 C 160.39 103.22 180.18 102.59 199.93 103.40 L 199.68 103.70 C 195.77 103.96 191.86 104.12 187.95 104.04 C 172.68 103.87 157.39 104.18 142.12 103.91 C 141.75 103.69 141.00 103.25 140.63 103.03 Z" />
</g>
<g id="#a16acfff">
<path fill="#a16acf" opacity="1.00" d=" M 101.78 107.49 C 102.44 105.79 103.95 104.69 105.44 103.77 C 106.34 105.57 103.58 108.39 101.78 107.49 Z" />
</g>
<g id="#4b764bff">
<path fill="#4b764b" opacity="1.00" d=" M 142.12 103.91 C 157.39 104.18 172.68 103.87 187.95 104.04 C 191.86 104.12 195.77 103.96 199.68 103.70 C 197.85 105.05 195.26 105.03 193.05 105.13 C 180.71 104.96 168.37 105.03 156.03 105.01 C 151.39 104.96 146.55 105.72 142.12 103.91 Z" />
</g>
<g id="#ad71d2ff">
<path fill="#ad71d2" opacity="1.00" d=" M 40.53 105.22 C 40.86 106.97 41.17 108.73 41.22 110.51 C 38.95 110.44 39.06 106.42 40.53 105.22 Z" />
</g>
<g id="#bf76dbff">
<path fill="#bf76db" opacity="1.00" d=" M 111.24 114.30 L 111.98 113.74 L 113.02 114.08 L 113.27 114.96 C 112.76 114.80 111.75 114.47 111.24 114.30 Z" />
</g>
<g id="#b374d2ff">
<path fill="#b374d2" opacity="1.00" d=" M 133.37 121.33 C 134.40 120.09 136.84 120.18 137.63 121.65 L 137.57 122.20 C 136.11 122.30 134.67 122.00 133.37 121.33 Z" />
</g>
<g id="#ae77ccff">
<path fill="#ae77cc" opacity="1.00" d=" M 87.43 135.87 C 88.63 135.75 89.78 136.07 90.88 136.53 C 90.27 138.07 87.05 137.74 87.43 135.87 Z" />
</g>
<g id="#b17cc8ff">
<path fill="#b17cc8" opacity="1.00" d=" M 92.39 136.77 C 93.59 136.78 94.75 137.09 95.85 137.54 C 95.22 139.15 92.00 138.64 92.39 136.77 Z" />
</g>
<g id="#b87ccfff">
<path fill="#b87ccf" opacity="1.00" d=" M 98.37 137.89 C 99.57 137.80 100.73 138.08 101.85 138.50 C 101.26 140.08 98.01 139.77 98.37 137.89 Z" />
</g>
<g id="#b677d3ff">
<path fill="#b677d3" opacity="1.00" d=" M 104.46 138.81 C 106.26 138.85 108.03 139.11 109.79 139.46 C 108.44 140.83 105.50 141.00 104.38 139.26 L 104.46 138.81 Z" />
</g>
<g id="#b481c4ff">
<path fill="#b481c4" opacity="1.00" d=" M 111.47 139.67 C 113.27 139.79 115.06 140.05 116.81 140.52 C 115.52 141.93 111.64 141.90 111.47 139.67 Z" />
</g>
<g id="#a06bcdff">
<path fill="#a06bcd" opacity="1.00" d=" M 162.83 148.35 C 164.32 147.35 166.53 149.81 165.48 151.22 C 164.10 150.85 163.33 149.59 162.83 148.35 Z" />
</g>
<g id="#506a54ff">
<path fill="#506a54" opacity="1.00" d=" M 15.14 235.15 C 58.76 234.86 102.38 235.11 146.00 235.03 C 177.94 235.14 209.89 234.84 241.83 235.18 C 242.03 240.45 242.09 245.71 241.98 250.98 L 241.00 251.00 C 240.99 246.33 240.99 241.66 241.00 237.00 L 241.00 236.00 C 166.00 235.99 91.00 235.99 16.00 236.00 L 16.00 236.98 C 16.00 241.66 16.00 246.33 16.00 251.00 L 14.99 250.96 C 14.89 245.69 14.95 240.42 15.14 235.15 Z" />
</g>
<g id="#b65cf1ff">
<path fill="#b65cf1" opacity="1.00" d=" M 16.00 236.00 C 91.00 235.99 166.00 235.99 241.00 236.00 L 241.00 237.00 C 166.00 236.98 91.00 237.01 16.00 236.98 L 16.00 236.00 Z" />
</g>
</svg>
