<?xml version="1.0" encoding="UTF-8" ?>
<!DOCTYPE svg PUBLIC "-//W3C//DTD SVG 1.1//EN" "http://www.w3.org/Graphics/SVG/1.1/DTD/svg11.dtd">
<svg width="256pt" height="256pt" viewBox="0 0 256 256" version="1.1" xmlns="http://www.w3.org/2000/svg">
<g id="#4b944aff">
<path fill="#4b944a" opacity="1.00" d=" M 0.00 0.00 L 256.00 0.00 L 256.00 256.00 L 0.00 256.00 L 0.00 0.00 M 186.39 22.39 C 160.06 25.60 138.25 49.54 137.38 76.02 C 136.36 91.88 142.48 108.04 153.81 119.20 C 165.10 130.97 181.73 137.29 197.98 136.26 C 215.02 135.30 231.53 126.36 241.34 112.34 C 246.95 104.01 251.69 94.30 251.03 84.00 C 250.83 78.11 251.44 72.18 250.61 66.33 C 248.14 55.22 241.98 45.05 233.80 37.20 C 221.41 25.34 203.30 19.78 186.39 22.39 M 85.18 55.93 C 70.82 60.66 58.54 71.57 52.42 85.42 C 46.05 99.76 46.25 116.80 53.03 130.96 C 59.44 145.00 72.51 155.43 87.22 159.69 C 110.37 166.48 137.72 155.57 148.91 134.01 C 144.96 129.65 140.06 126.22 136.50 121.48 C 122.24 104.23 117.71 79.73 124.61 58.46 C 112.40 52.62 98.04 51.87 85.18 55.93 M 139.51 168.02 C 134.27 187.43 129.17 206.89 123.96 226.30 C 121.30 226.23 118.63 226.26 115.98 226.59 C 112.72 217.08 107.30 208.42 104.19 198.89 C 106.14 192.35 110.64 186.85 113.36 180.59 C 106.70 180.48 100.03 180.45 93.38 180.62 C 96.64 186.52 99.93 192.40 103.48 198.14 C 99.64 207.48 96.55 217.15 92.38 226.36 C 89.44 227.64 85.93 226.83 82.77 227.12 C 78.28 208.41 73.88 189.68 69.61 170.92 C 58.86 172.22 48.49 176.32 39.85 182.85 C 22.56 195.59 11.71 215.24 4.99 235.26 C 70.37 235.31 135.75 235.30 201.14 235.27 C 200.22 221.62 194.68 208.48 186.15 197.86 C 174.34 183.22 157.35 173.40 139.51 168.02 Z" />
<path fill="#4b944a" opacity="1.00" d=" M 185.38 39.47 C 195.10 37.15 205.70 38.61 214.37 43.62 C 223.07 48.43 229.67 56.61 233.16 65.85 C 236.88 76.41 235.98 88.63 230.36 98.36 C 224.42 109.32 213.23 117.28 200.93 119.29 C 182.19 122.66 162.58 110.48 156.23 92.74 C 153.18 84.44 153.16 75.15 155.74 66.72 C 160.26 53.48 171.66 42.63 185.38 39.47 M 177.52 55.47 C 174.56 56.32 174.20 60.72 176.51 62.48 C 182.75 67.94 189.57 72.71 195.91 78.06 C 196.73 78.90 197.98 79.69 197.93 81.03 C 198.59 89.20 197.60 97.45 198.45 105.60 C 199.00 109.36 205.47 109.76 206.12 105.85 C 206.79 100.27 206.23 94.61 206.38 89.00 C 206.22 84.76 206.82 80.43 205.92 76.25 C 204.59 74.23 202.59 72.79 200.76 71.25 C 195.16 66.85 189.66 62.34 184.11 57.87 C 182.24 56.47 180.03 54.60 177.52 55.47 Z" />
</g>
<g id="#441fffff">
<path fill="#441fff" opacity="1.00" d=" M 186.39 22.39 C 203.30 19.78 221.41 25.34 233.80 37.20 C 241.98 45.05 248.14 55.22 250.61 66.33 C 251.44 72.18 250.83 78.11 251.03 84.00 C 251.69 94.30 246.95 104.01 241.34 112.34 C 231.53 126.36 215.02 135.30 197.98 136.26 C 181.73 137.29 165.10 130.97 153.81 119.20 C 142.48 108.04 136.36 91.88 137.38 76.02 C 138.25 49.54 160.06 25.60 186.39 22.39 M 185.38 39.47 C 171.66 42.63 160.26 53.48 155.74 66.72 C 153.16 75.15 153.18 84.44 156.23 92.74 C 162.58 110.48 182.19 122.66 200.93 119.29 C 213.23 117.28 224.42 109.32 230.36 98.36 C 235.98 88.63 236.88 76.41 233.16 65.85 C 229.67 56.61 223.07 48.43 214.37 43.62 C 205.70 38.61 195.10 37.15 185.38 39.47 Z" />
<path fill="#441fff" opacity="1.00" d=" M 85.18 55.93 C 98.04 51.87 112.40 52.62 124.61 58.46 C 117.71 79.73 122.24 104.23 136.50 121.48 C 140.06 126.22 144.96 129.65 148.91 134.01 C 137.72 155.57 110.37 166.48 87.22 159.69 C 72.51 155.43 59.44 145.00 53.03 130.96 C 46.25 116.80 46.05 99.76 52.42 85.42 C 58.54 71.57 70.82 60.66 85.18 55.93 Z" />
<path fill="#441fff" opacity="1.00" d=" M 177.52 55.47 C 180.03 54.60 182.24 56.47 184.11 57.87 C 189.66 62.34 195.16 66.85 200.76 71.25 C 202.59 72.79 204.59 74.23 205.92 76.25 C 206.82 80.43 206.22 84.76 206.38 89.00 C 206.23 94.61 206.79 100.27 206.12 105.85 C 205.47 109.76 199.00 109.36 198.45 105.60 C 197.60 97.45 198.59 89.20 197.93 81.03 C 197.98 79.69 196.73 78.90 195.91 78.06 C 189.57 72.71 182.75 67.94 176.51 62.48 C 174.20 60.72 174.56 56.32 177.52 55.47 Z" />
</g>
<g id="#441effff">
<path fill="#441eff" opacity="1.00" d=" M 139.51 168.02 C 157.35 173.40 174.34 183.22 186.15 197.86 C 194.68 208.48 200.22 221.62 201.14 235.27 C 135.75 235.30 70.37 235.31 4.99 235.26 C 11.71 215.24 22.56 195.59 39.85 182.85 C 48.49 176.32 58.86 172.22 69.61 170.92 C 73.88 189.68 78.28 208.41 82.77 227.12 C 85.93 226.83 89.44 227.64 92.38 226.36 C 96.55 217.15 99.64 207.48 103.48 198.14 C 99.93 192.40 96.64 186.52 93.38 180.62 C 100.03 180.45 106.70 180.48 113.36 180.59 C 110.64 186.85 106.14 192.35 104.19 198.89 C 107.30 208.42 112.72 217.08 115.98 226.59 C 118.64 226.69 121.32 226.70 123.96 226.30 C 129.17 206.89 134.27 187.43 139.51 168.02 Z" />
</g>
<g id="#7977b1ff">
<path fill="#7977b1" opacity="1.00" d=" M 115.98 226.59 C 118.63 226.26 121.30 226.23 123.96 226.30 C 121.32 226.70 118.64 226.69 115.98 226.59 Z" />
</g>
</svg>
