<?xml version="1.0" encoding="UTF-8" ?>
<!DOCTYPE svg PUBLIC "-//W3C//DTD SVG 1.1//EN" "http://www.w3.org/Graphics/SVG/1.1/DTD/svg11.dtd">
<svg width="256pt" height="256pt" viewBox="0 0 256 256" version="1.1" xmlns="http://www.w3.org/2000/svg">
<g id="#4b944aff">
<path fill="#4b944a" opacity="1.00" d=" M 0.00 0.00 L 256.00 0.00 L 256.00 256.00 L 0.00 256.00 L 0.00 0.00 M 146.31 70.45 C 143.92 73.51 145.38 77.78 145.05 81.35 C 136.47 81.70 127.98 83.14 119.41 83.59 C 118.85 85.14 118.29 86.69 117.74 88.24 C 112.54 88.45 107.31 88.01 102.12 88.47 C 99.36 88.62 97.38 90.75 96.54 93.24 C 66.06 93.52 35.57 93.37 5.09 93.32 C 5.09 94.61 5.04 95.91 4.94 97.20 C 34.97 97.21 65.00 97.21 95.03 97.20 C 97.55 97.04 99.55 98.98 102.00 99.09 C 105.79 99.28 109.59 99.07 113.38 99.11 C 112.77 102.52 111.56 105.78 110.37 109.01 C 114.24 108.98 118.11 108.85 121.95 108.37 C 145.28 106.83 168.61 105.60 191.93 103.77 C 186.72 95.33 181.82 86.69 176.83 78.12 C 175.40 78.20 173.96 78.27 172.53 78.33 C 172.39 76.85 172.26 75.36 172.13 73.88 C 168.99 72.15 165.81 69.85 162.03 70.17 C 156.80 70.33 151.52 69.84 146.31 70.45 M 61.16 120.81 C 58.12 121.40 54.27 120.27 52.10 123.08 C 46.45 129.08 40.11 134.37 34.35 140.25 C 35.74 140.15 37.12 139.99 38.50 139.77 C 41.41 139.93 44.31 140.21 47.21 140.32 C 41.47 146.79 36.58 153.99 31.17 160.75 C 39.03 169.54 47.28 177.96 54.98 186.89 C 108.59 186.88 162.20 186.88 215.81 186.89 C 220.62 178.72 225.62 170.63 229.69 162.06 C 225.88 157.15 222.33 152.05 218.63 147.05 C 217.22 148.32 215.78 149.56 214.40 150.87 C 217.34 154.64 220.15 158.51 223.03 162.32 C 220.07 167.86 216.95 173.32 213.85 178.78 C 212.56 178.87 211.28 178.93 209.99 178.99 C 158.98 179.07 107.95 178.88 56.94 179.08 C 50.85 172.73 44.43 166.69 38.52 160.18 C 43.44 153.63 48.61 147.27 53.73 140.88 C 55.04 138.75 57.84 139.25 59.96 139.02 C 67.33 139.05 74.68 138.72 82.02 138.06 C 94.07 138.11 106.05 136.72 118.10 136.75 C 128.05 135.63 138.08 136.29 148.03 135.17 C 155.15 134.74 162.32 135.17 169.42 134.24 C 176.72 132.70 181.81 140.52 188.96 140.34 C 205.27 140.29 221.57 140.37 237.88 140.30 C 241.97 129.88 245.84 119.38 249.97 108.99 C 250.78 107.09 250.95 105.02 251.13 102.99 C 187.82 109.12 124.43 114.35 61.16 120.81 M 73.42 144.47 C 63.97 146.42 57.46 157.49 61.55 166.54 C 65.23 176.73 79.73 179.76 87.62 172.69 C 94.36 167.02 94.61 155.68 88.65 149.36 C 84.93 145.20 78.88 143.15 73.42 144.47 M 115.37 144.39 C 104.91 146.33 99.40 159.34 104.63 168.40 C 109.05 177.34 122.34 179.21 129.51 172.59 C 134.17 168.59 136.16 161.73 134.26 155.88 C 131.97 148.07 123.42 142.56 115.37 144.39 M 157.29 144.40 C 151.48 145.78 146.49 150.20 144.86 156.00 C 141.41 165.60 149.86 177.01 160.06 176.46 C 168.78 177.29 177.08 169.56 176.62 160.75 C 177.39 150.70 167.03 142.04 157.29 144.40 M 194.24 147.38 C 187.04 149.82 183.76 158.53 186.63 165.38 C 188.97 171.66 196.80 174.98 203.00 172.53 C 210.00 170.34 213.74 161.62 210.82 154.96 C 208.49 148.47 200.65 145.26 194.24 147.38 Z" />
</g>
<g id="#6eefffff">
<path fill="#6eefff" opacity="1.00" d=" M 146.31 70.45 C 151.52 69.84 156.80 70.33 162.03 70.17 C 165.81 69.85 168.99 72.15 172.13 73.88 C 172.26 75.36 172.39 76.85 172.53 78.33 C 173.96 78.27 175.40 78.20 176.83 78.12 C 181.82 86.69 186.72 95.33 191.93 103.77 C 168.61 105.60 145.28 106.83 121.95 108.37 C 118.11 108.85 114.24 108.98 110.37 109.01 C 111.56 105.78 112.77 102.52 113.38 99.11 C 109.59 99.07 105.79 99.28 102.00 99.09 C 99.55 98.98 97.55 97.04 95.03 97.20 C 65.00 97.21 34.97 97.21 4.94 97.20 C 5.04 95.91 5.09 94.61 5.09 93.32 C 35.57 93.37 66.06 93.52 96.54 93.24 C 97.38 90.75 99.36 88.62 102.12 88.47 C 107.31 88.01 112.54 88.45 117.74 88.24 C 118.29 86.69 118.85 85.14 119.41 83.59 C 127.98 83.14 136.47 81.70 145.05 81.35 C 145.38 77.78 143.92 73.51 146.31 70.45 Z" />
<path fill="#6eefff" opacity="1.00" d=" M 61.16 120.81 C 124.43 114.35 187.82 109.12 251.13 102.99 C 250.95 105.02 250.78 107.09 249.97 108.99 C 245.84 119.38 241.97 129.88 237.88 140.30 C 221.57 140.37 205.27 140.29 188.96 140.34 C 181.81 140.52 176.72 132.70 169.42 134.24 C 162.32 135.17 155.15 134.74 148.03 135.17 C 138.08 136.29 128.05 135.63 118.10 136.75 C 106.05 136.72 94.07 138.11 82.02 138.06 C 74.68 138.72 67.33 139.05 59.96 139.02 C 57.84 139.25 55.04 138.75 53.73 140.88 C 48.61 147.27 43.44 153.63 38.52 160.18 C 44.43 166.69 50.85 172.73 56.94 179.08 C 60.12 180.47 63.67 180.01 67.04 180.04 C 115.71 179.86 164.38 180.14 213.04 179.90 C 213.24 179.62 213.65 179.06 213.85 178.78 C 216.95 173.32 220.07 167.86 223.03 162.32 C 220.15 158.51 217.34 154.64 214.40 150.87 C 215.78 149.56 217.22 148.32 218.63 147.05 C 222.33 152.05 225.88 157.15 229.69 162.06 C 225.62 170.63 220.62 178.72 215.81 186.89 C 162.20 186.88 108.59 186.88 54.98 186.89 C 47.28 177.96 39.03 169.54 31.17 160.75 C 36.58 153.99 41.47 146.79 47.21 140.32 C 47.50 140.11 48.06 139.70 48.34 139.50 C 45.10 138.45 41.74 139.06 38.50 139.77 C 37.12 139.99 35.74 140.15 34.35 140.25 C 40.11 134.37 46.45 129.08 52.10 123.08 C 54.27 120.27 58.12 121.40 61.16 120.81 Z" />
<path fill="#6eefff" opacity="1.00" d=" M 73.42 144.47 C 78.88 143.15 84.93 145.20 88.65 149.36 C 94.61 155.68 94.36 167.02 87.62 172.69 C 79.73 179.76 65.23 176.73 61.55 166.54 C 57.46 157.49 63.97 146.42 73.42 144.47 Z" />
<path fill="#6eefff" opacity="1.00" d=" M 115.37 144.39 C 123.42 142.56 131.97 148.07 134.26 155.88 C 136.16 161.73 134.17 168.59 129.51 172.59 C 122.34 179.21 109.05 177.34 104.63 168.40 C 99.40 159.34 104.91 146.33 115.37 144.39 Z" />
<path fill="#6eefff" opacity="1.00" d=" M 157.29 144.40 C 167.03 142.04 177.39 150.70 176.62 160.75 C 177.08 169.56 168.78 177.29 160.06 176.46 C 149.86 177.01 141.41 165.60 144.86 156.00 C 146.49 150.20 151.48 145.78 157.29 144.40 Z" />
<path fill="#6eefff" opacity="1.00" d=" M 194.24 147.38 C 200.65 145.26 208.49 148.47 210.82 154.96 C 213.74 161.62 210.00 170.34 203.00 172.53 C 196.80 174.98 188.97 171.66 186.63 165.38 C 183.76 158.53 187.04 149.82 194.24 147.38 Z" />
</g>
<g id="#91eff2ff">
<path fill="#91eff2" opacity="1.00" d=" M 38.50 139.77 C 41.74 139.06 45.10 138.45 48.34 139.50 C 48.06 139.70 47.50 140.11 47.21 140.32 C 44.31 140.21 41.41 139.93 38.50 139.77 Z" />
</g>
<g id="#8eeaefff">
<path fill="#8eeaef" opacity="1.00" d=" M 56.94 179.08 C 107.95 178.88 158.98 179.07 209.99 178.99 C 211.28 178.93 212.56 178.87 213.85 178.78 C 213.65 179.06 213.24 179.62 213.04 179.90 C 164.38 180.14 115.71 179.86 67.04 180.04 C 63.67 180.01 60.12 180.47 56.94 179.08 Z" />
</g>
</svg>
