<?xml version="1.0" encoding="UTF-8" ?>
<!DOCTYPE svg PUBLIC "-//W3C//DTD SVG 1.1//EN" "http://www.w3.org/Graphics/SVG/1.1/DTD/svg11.dtd">
<svg width="256pt" height="256pt" viewBox="0 0 256 256" version="1.1" xmlns="http://www.w3.org/2000/svg">
<g id="#7f837eff">
<path fill="#7f837e" opacity="1.00" d=" M 0.00 0.00 L 65.00 0.00 C 64.39 0.81 63.79 1.64 63.21 2.47 C 60.84 2.94 58.46 3.40 56.04 3.46 C 38.42 3.53 20.79 3.25 3.16 3.58 C 3.20 22.68 3.27 41.79 3.14 60.89 C 2.09 61.33 1.04 61.79 -0.00 62.26 L 0.00 0.00 Z" />
<path fill="#7f837e" opacity="1.00" d=" M 191.68 235.20 C 192.80 234.65 193.91 234.09 195.03 233.54 C 195.10 240.26 195.55 246.99 194.85 253.69 C 194.78 254.27 194.63 255.42 194.55 256.00 L 192.16 256.00 C 191.61 249.08 191.99 242.13 191.68 235.20 Z" />
</g>
<g id="#5d615cff">
<path fill="#5d615c" opacity="1.00" d=" M 65.00 0.00 L 125.10 0.00 C 124.83 0.83 124.28 2.49 124.01 3.32 C 105.10 3.60 86.19 3.38 67.28 3.43 C 67.20 9.24 67.24 15.06 67.21 20.87 C 58.31 21.17 49.38 20.47 40.49 21.27 C 40.29 15.85 40.31 10.43 40.34 5.01 C 34.28 5.00 28.23 5.00 22.17 5.01 C 22.03 10.21 22.66 15.47 21.82 20.62 C 16.61 21.61 11.27 20.98 6.00 21.10 C 6.00 27.51 6.00 33.93 6.00 40.35 C 11.29 40.37 16.59 40.35 21.88 40.41 C 22.49 49.52 22.12 58.66 22.13 67.78 C 16.06 67.58 9.94 67.03 3.88 67.71 C 2.57 70.54 3.39 73.96 3.21 77.03 C 3.18 93.11 3.50 109.20 3.03 125.27 C 2.28 125.52 0.76 126.02 0.00 126.27 L 0.00 62.26 C 1.04 61.79 2.09 61.33 3.14 60.89 C 3.27 41.79 3.20 22.68 3.16 3.58 C 20.79 3.25 38.42 3.53 56.04 3.46 C 58.46 3.40 60.84 2.94 63.21 2.47 C 63.79 1.64 64.39 0.81 65.00 0.00 M 60.36 19.90 C 61.44 19.90 62.51 19.90 63.58 19.89 C 63.63 14.64 63.62 9.39 63.64 4.13 C 62.88 3.93 61.37 3.53 60.61 3.33 C 60.04 8.84 60.41 14.38 60.36 19.90 M 2.69 63.07 C 8.72 64.03 14.84 63.38 20.90 63.59 C 20.91 63.03 20.94 61.92 20.95 61.36 C 15.97 61.46 10.99 61.30 6.01 61.40 C 4.60 61.24 3.37 61.80 2.69 63.07 Z" />
<path fill="#5d615c" opacity="1.00" d=" M 40.61 40.35 C 47.15 40.38 53.69 40.35 60.23 40.39 C 60.36 47.32 60.50 54.26 60.19 61.19 C 53.79 61.47 47.39 61.38 41.00 61.21 C 40.98 54.25 41.30 47.28 40.61 40.35 Z" />
<path fill="#5d615c" opacity="1.00" d=" M 63.68 40.40 C 64.56 40.40 66.33 40.41 67.21 40.41 C 67.24 47.34 67.32 54.27 67.18 61.19 C 66.05 61.35 64.93 61.52 63.80 61.68 C 63.41 54.59 63.55 47.49 63.68 40.40 Z" />
<path fill="#5d615c" opacity="1.00" d=" M 67.23 67.39 C 83.36 67.39 99.49 67.48 115.62 67.35 C 104.76 72.20 94.76 79.06 86.36 87.48 C 78.40 96.03 71.85 105.97 67.32 116.75 C 67.08 100.30 67.23 83.84 67.23 67.39 Z" />
<path fill="#5d615c" opacity="1.00" d=" M 194.34 69.51 C 195.47 68.10 197.10 67.26 198.94 67.43 C 216.64 67.41 234.34 67.53 252.03 67.41 C 252.61 86.68 252.37 105.98 252.19 125.26 C 248.43 125.32 244.67 125.26 240.92 125.09 C 233.83 101.16 216.61 80.72 194.34 69.51 Z" />
<path fill="#5d615c" opacity="1.00" d=" M 127.50 85.76 C 128.57 85.24 129.69 84.82 130.84 84.48 C 130.99 86.37 131.15 88.26 131.30 90.14 C 130.17 90.57 129.04 91.02 127.92 91.49 C 127.76 89.58 127.59 87.67 127.50 85.76 Z" />
<path fill="#5d615c" opacity="1.00" d=" M 87.09 125.13 C 93.69 108.09 107.46 94.04 124.28 86.92 C 124.29 88.98 124.30 91.04 124.31 93.11 C 122.66 93.94 121.03 94.84 119.44 95.79 C 119.11 96.00 118.45 96.43 118.12 96.64 C 117.86 103.93 118.06 111.23 118.00 118.53 C 110.86 118.70 103.72 118.58 96.59 118.55 C 95.28 120.95 93.98 123.35 92.82 125.83 C 90.92 125.57 89.01 125.30 87.09 125.13 Z" />
<path fill="#5d615c" opacity="1.00" d=" M 195.07 125.71 C 195.55 115.56 194.75 105.39 195.55 95.25 C 205.59 103.03 213.78 113.35 218.42 125.23 C 210.64 125.65 202.83 124.99 195.07 125.71 Z" />
<path fill="#5d615c" opacity="1.00" d=" M 194.96 127.27 C 203.03 127.80 211.12 127.40 219.20 127.57 C 219.65 128.90 220.11 130.23 220.56 131.56 C 212.11 131.48 203.66 131.32 195.21 131.67 C 195.21 150.92 195.31 170.18 195.17 189.43 C 194.24 189.50 192.37 189.65 191.44 189.72 C 191.35 170.53 191.35 151.33 191.48 132.14 C 190.50 132.04 189.52 131.94 188.55 131.85 C 188.72 151.09 188.70 170.33 188.59 189.58 C 169.46 189.79 150.32 189.47 131.19 189.74 C 131.20 183.39 131.18 177.04 131.24 170.69 C 138.20 170.70 145.17 170.72 152.13 170.70 C 152.29 164.51 152.17 158.31 152.27 152.12 C 158.44 151.60 164.64 151.85 170.82 151.81 C 170.83 144.97 170.82 138.14 170.82 131.30 C 176.57 131.29 182.36 131.82 188.09 131.11 C 190.84 130.86 192.87 128.85 194.96 127.27 Z" />
<path fill="#5d615c" opacity="1.00" d=" M 131.20 191.22 C 150.35 191.64 169.51 191.23 188.67 191.42 C 188.62 192.40 188.51 194.38 188.46 195.37 C 169.40 195.53 150.34 195.39 131.28 195.41 C 131.14 203.43 131.25 211.45 131.21 219.47 C 129.09 218.71 126.98 217.95 124.90 217.13 C 125.83 217.21 126.76 217.30 127.70 217.39 C 127.51 210.23 127.58 203.08 127.64 195.93 C 126.50 195.92 125.37 195.91 124.23 195.91 C 124.33 202.82 124.45 209.73 124.24 216.65 C 117.55 214.39 111.82 210.05 106.43 205.62 C 102.96 202.82 99.91 199.56 97.29 195.97 C 105.68 194.82 114.16 195.85 122.59 195.37 C 125.94 195.27 128.63 193.12 131.20 191.22 Z" />
<path fill="#5d615c" opacity="1.00" d=" M 67.17 195.98 C 68.43 195.51 69.69 195.03 70.96 194.55 C 81.91 215.94 101.60 232.32 124.45 239.62 C 124.42 244.15 124.35 248.68 124.20 253.22 C 105.20 253.48 86.18 253.44 67.18 253.21 C 67.24 234.13 67.22 215.06 67.17 195.98 Z" />
<path fill="#5d615c" opacity="1.00" d=" M 221.10 213.86 C 225.72 208.06 230.41 202.23 233.72 195.55 C 239.83 195.40 245.94 195.47 252.06 195.40 C 252.60 205.26 252.26 215.14 252.32 225.00 C 252.20 234.40 252.60 243.81 252.18 253.20 C 233.08 253.74 213.93 252.76 194.85 253.69 C 195.55 246.99 195.10 240.26 195.03 233.54 C 195.22 233.45 195.62 233.25 195.82 233.15 C 200.62 239.03 205.25 245.04 209.94 251.00 C 223.41 251.00 236.88 251.00 250.35 251.00 C 240.35 238.82 230.91 226.19 221.10 213.86 Z" />
<path fill="#5d615c" opacity="1.00" d=" M 127.74 240.63 C 128.94 240.96 130.13 241.29 131.34 241.60 C 131.26 245.46 131.28 249.32 131.17 253.19 C 130.01 253.36 128.86 253.53 127.70 253.71 C 127.51 249.35 127.53 244.99 127.74 240.63 Z" />
</g>
<g id="#3f433eff">
<path fill="#3f433e" opacity="1.00" d=" M 125.10 0.00 L 127.54 0.00 C 127.70 1.65 127.87 3.30 128.04 4.95 C 125.02 5.04 121.99 5.01 118.96 5.00 L 118.00 5.00 C 117.99 10.26 118.01 15.52 117.99 20.79 C 101.06 20.90 84.14 20.74 67.21 20.87 C 67.24 15.06 67.20 9.24 67.28 3.43 C 86.19 3.38 105.10 3.60 124.01 3.32 C 124.28 2.49 124.83 0.83 125.10 0.00 Z" />
<path fill="#3f433e" opacity="1.00" d=" M 3.21 77.03 C 3.39 73.96 2.57 70.54 3.88 67.71 C 9.94 67.03 16.06 67.58 22.13 67.78 C 22.13 78.17 22.16 88.56 22.10 98.94 C 22.01 105.49 22.50 112.05 21.75 118.58 C 16.56 118.55 11.36 118.58 6.17 118.52 C 5.99 121.73 5.99 124.96 6.00 128.18 C 4.00 127.95 2.00 127.73 0.00 127.50 L 0.00 126.27 C 0.76 126.02 2.28 125.52 3.03 125.27 C 3.50 109.20 3.18 93.11 3.21 77.03 Z" />
<path fill="#3f433e" opacity="1.00" d=" M 130.82 84.29 C 135.68 83.04 140.56 81.88 145.52 81.10 C 150.15 80.90 154.79 80.94 159.42 81.01 C 159.86 81.11 160.73 81.32 161.17 81.42 C 162.60 81.89 164.09 82.11 165.59 82.19 C 173.67 83.65 181.42 86.75 188.58 90.75 C 188.20 102.27 188.68 113.80 188.32 125.33 C 182.50 125.51 176.67 125.48 170.84 125.32 C 170.85 123.58 170.88 121.85 170.91 120.12 L 170.66 120.14 C 164.58 119.93 158.50 120.02 152.41 120.00 C 152.10 108.77 152.41 97.54 152.26 86.31 C 149.86 86.57 147.47 86.87 145.05 86.95 C 143.57 86.66 142.05 86.89 140.77 87.71 C 137.54 88.22 134.36 88.98 131.30 90.14 C 131.15 88.26 130.99 86.37 130.84 84.48 L 130.82 84.29 Z" />
<path fill="#3f433e" opacity="1.00" d=" M 84.88 131.17 C 86.77 131.42 88.67 131.66 90.56 131.91 C 90.35 132.59 89.95 133.95 89.74 134.63 C 88.77 135.64 88.56 136.79 89.13 138.07 L 88.96 138.81 C 87.79 139.96 87.57 141.63 88.02 143.17 C 87.59 146.06 87.25 148.96 86.95 151.86 C 98.13 152.06 109.32 151.42 120.48 152.18 C 120.54 158.37 120.49 164.56 120.55 170.75 C 121.95 170.76 123.34 170.76 124.74 170.76 C 124.52 177.03 124.60 183.31 124.61 189.58 C 114.07 189.77 103.49 189.03 92.98 190.05 L 92.91 190.06 C 87.38 180.96 83.68 170.81 82.12 160.28 C 81.83 154.68 81.85 149.07 82.11 143.47 C 82.81 139.33 83.64 135.20 84.88 131.17 Z" />
<path fill="#3f433e" opacity="1.00" d=" M 242.67 131.54 C 245.88 131.47 249.09 131.39 252.30 131.26 C 253.53 131.21 254.76 131.16 256.00 131.12 L 256.00 131.75 C 254.77 131.87 253.54 131.99 252.31 132.11 C 252.28 151.14 252.49 170.17 252.19 189.19 C 247.03 189.28 241.88 189.36 236.74 189.59 C 240.68 181.13 243.21 172.01 244.25 162.74 C 245.43 155.38 245.38 147.79 244.22 140.43 C 243.86 137.44 243.37 134.47 242.67 131.54 Z" />
<path fill="#3f433e" opacity="1.00" d=" M 188.55 131.85 C 189.52 131.94 190.50 132.04 191.48 132.14 C 191.35 151.33 191.35 170.53 191.44 189.72 C 192.37 189.65 194.24 189.50 195.17 189.43 C 195.31 170.18 195.21 150.92 195.21 131.67 C 203.66 131.32 212.11 131.48 220.56 131.56 C 221.51 135.47 222.42 139.41 222.96 143.40 C 223.14 149.10 223.13 154.80 222.95 160.50 C 221.61 170.83 217.98 180.74 212.81 189.75 C 207.87 189.54 202.91 189.13 197.97 189.52 C 196.43 189.53 195.35 190.77 194.17 191.56 C 193.51 191.54 192.20 191.51 191.55 191.49 C 191.61 192.81 191.67 194.14 191.73 195.47 C 190.58 195.64 189.42 195.81 188.26 195.99 C 188.20 201.56 188.26 207.14 188.64 212.71 L 188.66 213.00 C 171.52 223.12 150.18 225.05 131.21 219.47 C 131.25 211.45 131.14 203.43 131.28 195.41 C 150.34 195.39 169.40 195.53 188.46 195.37 C 188.51 194.38 188.62 192.40 188.67 191.42 C 169.51 191.23 150.35 191.64 131.20 191.22 L 131.19 189.74 C 150.32 189.47 169.46 189.79 188.59 189.58 C 188.70 170.33 188.72 151.09 188.55 131.85 Z" />
<path fill="#3f433e" opacity="1.00" d=" M 165.53 243.18 C 173.41 241.96 181.18 239.89 188.51 236.74 C 188.40 242.23 188.37 247.73 188.22 253.22 C 169.21 253.80 150.14 252.79 131.15 253.72 L 131.17 253.19 C 131.28 249.32 131.26 245.46 131.34 241.60 C 134.32 242.35 137.36 242.84 140.42 243.22 C 148.70 244.44 157.26 244.47 165.53 243.18 Z" />
</g>
<g id="#7e827dff">
<path fill="#7e827d" opacity="1.00" d=" M 127.54 0.00 L 189.10 0.00 C 188.71 1.12 188.37 2.26 188.02 3.40 C 172.36 3.46 156.69 3.46 141.03 3.39 C 137.37 3.48 133.33 2.71 130.11 4.91 C 129.59 4.92 128.56 4.94 128.04 4.95 C 127.87 3.30 127.70 1.65 127.54 0.00 Z" />
<path fill="#7e827d" opacity="1.00" d=" M 126.03 56.78 C 127.77 56.14 129.56 55.71 131.37 55.33 C 131.11 57.63 130.84 59.94 130.57 62.24 C 129.92 62.39 128.62 62.70 127.97 62.85 C 127.76 60.89 128.02 58.67 126.59 57.09 L 126.03 56.78 Z" />
<path fill="#7e827d" opacity="1.00" d=" M 63.74 63.73 C 64.59 63.74 66.28 63.75 67.13 63.76 C 86.06 63.86 104.99 63.64 123.91 63.89 C 121.14 65.02 118.40 66.24 115.62 67.35 C 99.49 67.48 83.36 67.39 67.23 67.39 C 67.23 83.84 67.08 100.30 67.32 116.75 C 66.36 119.41 65.26 122.03 64.28 124.68 C 63.31 105.66 64.13 86.59 63.80 67.55 C 63.78 66.28 63.76 65.00 63.74 63.73 Z" />
<path fill="#7e827d" opacity="1.00" d=" M 191.85 63.76 C 192.64 63.77 194.22 63.79 195.01 63.80 C 215.34 64.15 235.70 63.26 256.00 64.30 L 256.00 67.35 C 254.68 67.37 253.35 67.39 252.03 67.41 C 234.34 67.53 216.64 67.41 198.94 67.43 C 197.10 67.26 195.47 68.10 194.34 69.51 C 193.42 69.05 192.50 68.62 191.58 68.18 C 191.67 66.71 191.76 65.23 191.85 63.76 Z" />
<path fill="#7e827d" opacity="1.00" d=" M 191.36 92.31 C 192.78 93.25 194.17 94.25 195.55 95.25 C 194.75 105.39 195.55 115.56 195.07 125.71 L 194.96 127.27 C 192.87 128.85 190.84 130.86 188.09 131.11 C 182.36 131.82 176.57 131.29 170.82 131.30 C 170.82 130.43 170.83 128.67 170.83 127.80 C 177.83 127.79 184.83 127.78 191.83 127.83 C 191.48 115.99 192.38 104.10 191.36 92.31 Z" />
<path fill="#7e827d" opacity="1.00" d=" M 0.00 127.50 C 2.00 127.73 4.00 127.95 6.00 128.18 C 6.00 128.78 6.00 129.99 6.00 130.60 C 5.07 131.15 4.14 131.70 3.22 132.25 C 3.20 151.30 3.32 170.35 3.16 189.40 L 3.19 190.50 C 2.11 190.07 1.04 189.60 0.00 189.09 L 0.00 127.50 Z" />
<path fill="#7e827d" opacity="1.00" d=" M 127.76 170.73 C 128.63 170.72 130.37 170.70 131.24 170.69 C 131.18 177.04 131.20 183.39 131.19 189.74 L 131.20 191.22 C 128.63 193.12 125.94 195.27 122.59 195.37 C 114.16 195.85 105.68 194.82 97.29 195.97 L 96.90 196.01 C 95.97 194.58 95.05 193.13 94.17 191.67 C 105.38 191.99 116.61 191.67 127.83 191.83 C 127.77 184.79 127.82 177.76 127.76 170.73 Z" />
<path fill="#7e827d" opacity="1.00" d=" M 69.50 191.66 C 69.97 192.63 70.46 193.59 70.96 194.55 C 69.69 195.03 68.43 195.51 67.17 195.98 C 67.22 215.06 67.24 234.13 67.18 253.21 C 67.17 253.91 67.15 255.30 67.13 256.00 L 63.83 256.00 C 63.79 235.81 63.98 215.62 63.73 195.44 C 63.68 194.16 63.62 192.89 63.55 191.63 C 65.53 191.64 67.52 191.66 69.50 191.66 Z" />
<path fill="#7e827d" opacity="1.00" d=" M 194.17 191.56 C 200.06 191.63 206.08 192.46 211.89 191.14 C 210.68 192.93 209.33 194.63 207.93 196.29 C 203.75 195.20 199.41 195.24 195.14 195.63 C 195.17 199.92 195.35 204.21 195.18 208.49 C 194.50 209.67 192.90 210.24 191.84 211.13 C 191.82 205.91 191.94 200.68 191.73 195.47 C 191.67 194.14 191.61 192.81 191.55 191.49 C 192.20 191.51 193.51 191.54 194.17 191.56 Z" />
<path fill="#7e827d" opacity="1.00" d=" M 233.72 195.55 C 234.38 194.27 235.04 192.99 235.69 191.70 C 242.46 191.93 249.23 191.81 256.00 191.87 L 256.00 195.34 C 254.68 195.36 253.37 195.38 252.06 195.40 C 245.94 195.47 239.83 195.40 233.72 195.55 Z" />
</g>
<g id="#5c605bff">
<path fill="#5c605b" opacity="1.00" d=" M 189.10 0.00 L 256.00 0.00 L 256.00 3.38 C 254.68 3.40 253.36 3.43 252.04 3.46 C 233.12 3.69 214.19 3.33 195.27 3.63 L 195.29 4.63 C 194.65 23.48 195.19 42.35 194.98 61.22 C 194.15 61.25 192.51 61.33 191.69 61.36 C 191.42 42.33 191.64 23.29 191.61 4.25 C 190.85 4.05 189.34 3.66 188.58 3.46 C 187.96 22.69 188.71 41.96 188.19 61.20 C 183.38 61.26 178.54 61.13 173.78 61.93 L 173.01 62.05 C 172.35 60.40 170.30 60.67 168.93 61.04 L 168.14 61.00 C 166.65 59.78 164.70 59.53 162.88 60.04 C 156.00 59.04 149.04 59.09 142.16 60.05 C 140.63 59.56 138.94 59.75 137.74 60.88 C 137.34 60.93 136.55 61.04 136.15 61.10 C 134.86 60.54 133.71 60.76 132.72 61.75 C 132.18 61.87 131.10 62.12 130.57 62.24 C 130.84 59.94 131.11 57.63 131.37 55.33 C 133.79 54.86 136.21 54.39 138.62 53.84 C 138.60 49.41 138.59 44.97 138.56 40.54 C 144.75 40.24 150.94 40.42 157.13 40.35 L 158.00 40.34 C 158.00 33.86 158.00 27.39 158.00 20.91 C 151.62 20.87 145.24 20.92 138.86 20.86 C 138.73 15.59 138.74 10.31 138.78 5.04 L 137.99 5.03 C 135.36 5.00 132.74 4.94 130.11 4.91 C 133.33 2.71 137.37 3.48 141.03 3.39 C 156.69 3.46 172.36 3.46 188.02 3.40 C 188.37 2.26 188.71 1.12 189.10 0.00 Z" />
<path fill="#5c605b" opacity="1.00" d=" M 3.22 132.25 C 4.14 131.70 5.07 131.15 6.00 130.60 C 6.00 132.86 6.00 135.13 6.01 137.39 L 7.08 137.40 C 12.01 137.42 16.95 137.40 21.89 137.41 C 22.41 143.87 22.12 150.36 22.20 156.83 C 28.24 156.85 34.28 156.85 40.33 156.84 C 40.36 150.38 40.28 143.92 40.42 137.46 C 45.21 137.39 49.99 137.40 54.78 137.40 C 55.20 135.35 55.61 133.30 56.04 131.25 C 58.00 131.22 59.97 131.19 61.93 131.26 L 62.34 132.38 C 62.19 133.54 62.04 134.69 61.91 135.85 C 60.88 137.43 60.61 139.31 61.00 141.14 C 59.77 147.89 59.90 154.79 60.75 161.58 C 60.16 170.87 60.81 180.18 60.46 189.48 C 41.36 189.54 22.26 189.71 3.16 189.40 C 3.32 170.35 3.20 151.30 3.22 132.25 Z" />
<path fill="#5c605b" opacity="1.00" d=" M 0.00 189.09 C 1.04 189.60 2.11 190.07 3.19 190.50 C 5.02 191.24 7.02 191.37 8.97 191.44 C 26.39 191.40 43.82 191.23 61.24 191.50 C 60.89 192.78 60.55 194.07 60.20 195.36 C 41.24 195.55 22.27 195.41 3.30 195.41 C 3.17 214.66 3.38 233.92 3.20 253.17 C 3.19 253.87 3.15 255.29 3.14 256.00 L 0.00 256.00 L 0.00 189.09 Z" />
<path fill="#5c605b" opacity="1.00" d=" M 195.14 195.63 C 199.41 195.24 203.75 195.20 207.93 196.29 C 204.13 200.79 200.05 205.14 195.18 208.49 C 195.35 204.21 195.17 199.92 195.14 195.63 Z" />
</g>
<g id="#2c302bff">
<path fill="#2c302b" opacity="1.00" d=" M 252.04 3.46 C 253.36 3.43 254.68 3.40 256.00 3.38 L 256.00 64.30 C 235.70 63.26 215.34 64.15 195.01 63.80 C 195.22 62.88 195.43 61.96 195.61 61.03 C 214.47 61.63 233.35 61.31 252.21 61.23 C 252.35 41.97 252.61 22.70 252.04 3.46 Z" />
<path fill="#2c302b" opacity="1.00" d=" M 60.10 67.77 C 61.33 67.70 62.57 67.62 63.80 67.55 C 64.13 86.59 63.31 105.66 64.28 124.68 C 64.11 125.40 63.76 126.84 63.59 127.56 C 61.33 127.72 59.08 127.84 56.82 127.96 C 57.56 125.26 58.63 122.66 59.38 119.97 C 60.59 116.79 60.40 113.33 60.40 110.00 C 60.09 95.92 60.62 81.84 60.10 67.77 Z" />
<path fill="#2c302b" opacity="1.00" d=" M 252.31 132.11 C 253.54 131.99 254.77 131.87 256.00 131.75 L 256.00 191.87 C 249.23 191.81 242.46 191.93 235.69 191.70 C 235.95 191.17 236.47 190.12 236.74 189.59 C 241.88 189.36 247.03 189.28 252.19 189.19 C 252.49 170.17 252.28 151.14 252.31 132.11 Z" />
<path fill="#2c302b" opacity="1.00" d=" M 60.28 195.99 C 61.43 195.80 62.58 195.62 63.73 195.44 C 63.98 215.62 63.79 235.81 63.83 256.00 L 3.14 256.00 C 3.15 255.29 3.19 253.87 3.20 253.17 C 22.19 253.42 41.19 253.52 60.17 253.18 C 60.52 234.12 60.29 215.05 60.28 195.99 Z" />
<path fill="#2c302b" opacity="1.00" d=" M 188.26 195.99 C 189.42 195.81 190.58 195.64 191.73 195.47 C 191.94 200.68 191.82 205.91 191.84 211.13 C 190.77 211.65 189.71 212.18 188.64 212.71 C 188.26 207.14 188.20 201.56 188.26 195.99 Z" />
</g>
<g id="#494d48ff">
<path fill="#494d48" opacity="1.00" d=" M 60.36 19.90 C 60.41 14.38 60.04 8.84 60.61 3.33 C 61.37 3.53 62.88 3.93 63.64 4.13 C 63.62 9.39 63.63 14.64 63.58 19.89 C 62.51 19.90 61.44 19.90 60.36 19.90 Z" />
<path fill="#494d48" opacity="1.00" d=" M 188.19 61.20 C 188.71 41.96 187.96 22.69 188.58 3.46 C 189.34 3.66 190.85 4.05 191.61 4.25 C 191.64 23.29 191.42 42.33 191.69 61.36 C 192.51 61.33 194.15 61.25 194.98 61.22 C 195.19 42.35 194.65 23.48 195.29 4.63 C 196.25 15.73 195.58 26.88 195.79 38.01 C 195.60 45.68 196.07 53.36 195.61 61.03 C 195.43 61.96 195.22 62.88 195.01 63.80 C 194.22 63.79 192.64 63.77 191.85 63.76 C 191.76 65.23 191.67 66.71 191.58 68.18 C 185.90 65.46 179.97 63.15 173.78 61.93 C 178.54 61.13 183.38 61.26 188.19 61.20 Z" />
<path fill="#494d48" opacity="1.00" d=" M 60.23 40.39 C 61.38 40.39 62.53 40.40 63.68 40.40 C 63.55 47.49 63.41 54.59 63.80 61.68 C 64.93 61.52 66.05 61.35 67.18 61.19 L 67.17 61.74 C 67.16 62.25 67.14 63.25 67.13 63.76 C 66.28 63.75 64.59 63.74 63.74 63.73 C 63.76 65.00 63.78 66.28 63.80 67.55 C 62.57 67.62 61.33 67.70 60.10 67.77 C 53.70 68.04 47.25 68.35 40.88 67.50 C 47.33 67.06 53.80 67.41 60.26 67.15 C 60.27 66.29 60.30 64.58 60.32 63.72 C 53.87 63.46 47.41 63.52 40.96 63.68 C 40.97 63.06 40.99 61.82 41.00 61.21 C 47.39 61.38 53.79 61.47 60.19 61.19 C 60.50 54.26 60.36 47.32 60.23 40.39 Z" />
<path fill="#494d48" opacity="1.00" d=" M 124.28 86.92 C 125.35 86.53 126.42 86.15 127.50 85.76 C 127.59 87.67 127.76 89.58 127.92 91.49 C 126.70 92.00 125.50 92.53 124.31 93.11 C 124.30 91.04 124.29 88.98 124.28 86.92 Z" />
<path fill="#494d48" opacity="1.00" d=" M 124.23 195.91 C 125.37 195.91 126.50 195.92 127.64 195.93 C 127.58 203.08 127.51 210.23 127.70 217.39 C 126.76 217.30 125.83 217.21 124.90 217.13 L 124.23 217.07 L 124.24 216.65 C 124.45 209.73 124.33 202.82 124.23 195.91 Z" />
<path fill="#494d48" opacity="1.00" d=" M 124.45 239.62 C 125.54 239.97 126.64 240.31 127.74 240.63 C 127.53 244.99 127.51 249.35 127.70 253.71 C 128.86 253.53 130.01 253.36 131.17 253.19 L 131.15 253.72 C 131.11 254.29 131.03 255.43 130.99 256.00 L 67.13 256.00 C 67.15 255.30 67.17 253.91 67.18 253.21 C 86.18 253.44 105.20 253.48 124.20 253.22 C 124.35 248.68 124.42 244.15 124.45 239.62 Z" />
</g>
<g id="#3f423eff">
<path fill="#3f423e" opacity="1.00" d=" M 195.27 3.63 C 214.19 3.33 233.12 3.69 252.04 3.46 C 252.61 22.70 252.35 41.97 252.21 61.23 C 233.35 61.31 214.47 61.63 195.61 61.03 C 196.07 53.36 195.60 45.68 195.79 38.01 C 195.58 26.88 196.25 15.73 195.29 4.63 L 195.27 3.63 Z" />
<path fill="#3f423e" opacity="1.00" d=" M 40.48 118.52 C 40.36 92.47 40.28 66.40 40.61 40.35 C 41.30 47.28 40.98 54.25 41.00 61.21 C 40.99 61.82 40.97 63.06 40.96 63.68 C 40.94 64.63 40.90 66.54 40.88 67.50 C 47.25 68.35 53.70 68.04 60.10 67.77 C 60.62 81.84 60.09 95.92 60.40 110.00 C 60.40 113.33 60.59 116.79 59.38 119.97 L 58.96 119.47 C 58.54 119.25 57.71 118.79 57.29 118.57 C 51.69 118.46 46.08 118.64 40.48 118.52 Z" />
<path fill="#3f423e" opacity="1.00" d=" M 67.21 40.41 C 84.14 40.48 101.07 40.37 118.00 40.47 C 118.00 46.75 117.99 53.02 118.00 59.30 C 120.51 58.52 122.99 57.66 125.51 56.91 C 125.35 58.48 125.26 60.05 125.21 61.62 C 105.86 61.66 86.51 61.38 67.17 61.74 L 67.18 61.19 C 67.32 54.27 67.24 47.34 67.21 40.41 Z" />
<path fill="#3f423e" opacity="1.00" d=" M 60.46 189.48 C 60.81 180.18 60.16 170.87 60.75 161.58 L 60.90 162.86 C 60.59 164.71 60.84 166.62 61.90 168.20 L 62.13 168.90 C 61.52 170.19 61.72 171.35 62.71 172.37 C 63.15 174.51 63.63 176.63 64.09 178.77 C 63.54 182.49 63.29 186.26 63.46 190.03 C 65.03 189.59 66.59 189.16 68.16 188.72 C 68.50 189.46 69.17 190.92 69.50 191.66 C 67.52 191.66 65.53 191.64 63.55 191.63 C 63.62 192.89 63.68 194.16 63.73 195.44 C 62.58 195.62 61.43 195.80 60.28 195.99 C 60.29 215.05 60.52 234.12 60.17 253.18 C 41.19 253.52 22.19 253.42 3.20 253.17 C 3.38 233.92 3.17 214.66 3.30 195.41 C 22.27 195.41 41.24 195.55 60.20 195.36 C 60.55 194.07 60.89 192.78 61.24 191.50 C 43.82 191.23 26.39 191.40 8.97 191.44 C 7.02 191.37 5.02 191.24 3.19 190.50 L 3.16 189.40 C 22.26 189.71 41.36 189.54 60.46 189.48 Z" />
</g>
<g id="#66ccffff">
<path fill="#66ccff" opacity="1.00" d=" M 22.17 5.01 C 28.23 5.00 34.28 5.00 40.34 5.01 C 40.31 10.43 40.29 15.85 40.49 21.27 C 43.95 21.91 47.47 22.17 50.98 22.05 C 73.57 21.71 96.16 22.34 118.74 21.75 C 118.98 16.17 118.99 10.59 118.96 5.00 C 121.99 5.01 125.02 5.04 128.04 4.95 C 128.56 4.94 129.59 4.92 130.11 4.91 C 132.74 4.94 135.36 5.00 137.99 5.03 C 137.92 10.57 137.89 16.11 138.09 21.65 C 144.44 21.70 150.79 21.58 157.14 21.79 C 157.35 27.97 157.32 34.16 157.13 40.35 C 150.94 40.42 144.75 40.24 138.56 40.54 C 138.59 44.97 138.60 49.41 138.62 53.84 C 136.21 54.39 133.79 54.86 131.37 55.33 C 129.56 55.71 127.77 56.14 126.03 56.78 L 125.51 56.91 C 122.99 57.66 120.51 58.52 118.00 59.30 C 117.99 53.02 118.00 46.75 118.00 40.47 C 101.07 40.37 84.14 40.48 67.21 40.41 C 66.33 40.41 64.56 40.40 63.68 40.40 C 62.53 40.40 61.38 40.39 60.23 40.39 C 53.69 40.35 47.15 40.38 40.61 40.35 C 40.28 66.40 40.36 92.47 40.48 118.52 C 46.08 118.64 51.69 118.46 57.29 118.57 C 57.71 118.79 58.54 119.25 58.96 119.47 L 59.38 119.97 C 58.63 122.66 57.56 125.26 56.82 127.96 C 56.54 129.05 56.28 130.15 56.04 131.25 C 55.61 133.30 55.20 135.35 54.78 137.40 C 49.99 137.40 45.21 137.39 40.42 137.46 C 40.28 143.92 40.36 150.38 40.33 156.84 C 34.28 156.85 28.24 156.85 22.20 156.83 C 22.12 150.36 22.41 143.87 21.89 137.41 C 16.95 137.40 12.01 137.42 7.08 137.40 C 6.86 131.10 7.57 124.72 6.17 118.52 C 11.36 118.58 16.56 118.55 21.75 118.58 C 22.50 112.05 22.01 105.49 22.10 98.94 C 22.16 88.56 22.13 78.17 22.13 67.78 C 22.12 58.66 22.49 49.52 21.88 40.41 C 16.59 40.35 11.29 40.37 6.00 40.35 C 6.00 33.93 6.00 27.51 6.00 21.10 C 11.27 20.98 16.61 21.61 21.82 20.62 C 22.66 15.47 22.03 10.21 22.17 5.01 Z" />
<path fill="#66ccff" opacity="1.00" d=" M 142.16 60.05 C 149.04 59.09 156.00 59.04 162.88 60.04 C 164.29 61.41 166.32 61.66 168.14 61.00 L 168.93 61.04 C 169.98 62.15 171.55 62.60 173.01 62.05 L 173.78 61.93 C 179.97 63.15 185.90 65.46 191.58 68.18 C 192.50 68.62 193.42 69.05 194.34 69.51 C 216.61 80.72 233.83 101.16 240.92 125.09 C 241.19 125.97 241.45 126.86 241.70 127.75 C 242.03 129.01 242.36 130.27 242.67 131.54 C 243.37 134.47 243.86 137.44 244.22 140.43 C 244.14 147.87 244.18 155.30 244.25 162.74 C 243.21 172.01 240.68 181.13 236.74 189.59 C 236.47 190.12 235.95 191.17 235.69 191.70 C 235.04 192.99 234.38 194.27 233.72 195.55 C 230.41 202.23 225.72 208.06 221.10 213.86 C 230.91 226.19 240.35 238.82 250.35 251.00 C 236.88 251.00 223.41 251.00 209.94 251.00 C 205.25 245.04 200.62 239.03 195.82 233.15 C 195.62 233.25 195.22 233.45 195.03 233.54 C 193.91 234.09 192.80 234.65 191.68 235.20 C 190.89 235.59 189.31 236.35 188.51 236.74 C 181.18 239.89 173.41 241.96 165.53 243.18 C 157.16 243.40 148.79 243.17 140.42 243.22 C 137.36 242.84 134.32 242.35 131.34 241.60 C 130.13 241.29 128.94 240.96 127.74 240.63 C 126.64 240.31 125.54 239.97 124.45 239.62 C 101.60 232.32 81.91 215.94 70.96 194.55 C 70.46 193.59 69.97 192.63 69.50 191.66 C 69.17 190.92 68.50 189.46 68.16 188.72 C 66.77 185.42 65.47 182.08 64.09 178.77 C 63.63 176.63 63.15 174.51 62.71 172.37 C 63.39 171.06 63.20 169.91 62.13 168.90 L 61.90 168.20 C 62.68 166.36 62.45 164.21 60.90 162.86 L 60.75 161.58 C 59.90 154.79 59.77 147.89 61.00 141.14 C 62.53 139.78 62.72 137.65 61.91 135.85 C 62.04 134.69 62.19 133.54 62.34 132.38 C 62.73 130.77 63.18 129.17 63.59 127.56 C 63.76 126.84 64.11 125.40 64.28 124.68 C 65.26 122.03 66.36 119.41 67.32 116.75 C 71.85 105.97 78.40 96.03 86.36 87.48 C 94.76 79.06 104.76 72.20 115.62 67.35 C 118.40 66.24 121.14 65.02 123.91 63.89 C 125.26 63.53 126.61 63.18 127.97 62.85 C 128.62 62.70 129.92 62.39 130.57 62.24 C 131.10 62.12 132.18 61.87 132.72 61.75 C 134.04 62.44 135.18 62.22 136.15 61.10 C 136.55 61.04 137.34 60.93 137.74 60.88 C 139.26 61.54 141.03 61.33 142.16 60.05 M 145.52 81.10 C 140.56 81.88 135.68 83.04 130.82 84.29 L 130.84 84.48 C 129.69 84.82 128.57 85.24 127.50 85.76 C 126.42 86.15 125.35 86.53 124.28 86.92 C 107.46 94.04 93.69 108.09 87.09 125.13 C 86.89 125.62 86.48 126.59 86.27 127.07 L 86.18 127.06 C 85.76 128.43 85.32 129.80 84.88 131.17 C 83.64 135.20 82.81 139.33 82.11 143.47 C 80.31 148.77 80.25 155.00 82.12 160.28 C 83.68 170.81 87.38 180.96 92.91 190.06 L 92.98 190.05 C 93.28 190.46 93.87 191.26 94.17 191.67 C 95.05 193.13 95.97 194.58 96.90 196.01 L 97.29 195.97 C 99.91 199.56 102.96 202.82 106.43 205.62 C 111.82 210.05 117.55 214.39 124.24 216.65 L 124.23 217.07 L 124.90 217.13 C 126.98 217.95 129.09 218.71 131.21 219.47 C 150.18 225.05 171.52 223.12 188.66 213.00 L 188.64 212.71 C 189.71 212.18 190.77 211.65 191.84 211.13 C 192.90 210.24 194.50 209.67 195.18 208.49 C 200.05 205.14 204.13 200.79 207.93 196.29 C 209.33 194.63 210.68 192.93 211.89 191.14 L 212.81 189.75 C 217.98 180.74 221.61 170.83 222.95 160.50 C 224.57 155.03 224.66 148.86 222.96 143.40 C 222.42 139.41 221.51 135.47 220.56 131.56 C 220.11 130.23 219.65 128.90 219.20 127.57 C 218.94 126.79 218.68 126.01 218.42 125.23 C 213.78 113.35 205.59 103.03 195.55 95.25 C 194.17 94.25 192.78 93.25 191.36 92.31 C 190.44 91.77 189.51 91.26 188.58 90.75 C 181.42 86.75 173.67 83.65 165.59 82.19 C 165.81 80.07 162.15 80.00 161.17 81.42 C 160.73 81.32 159.86 81.11 159.42 81.01 C 155.00 79.37 149.90 79.33 145.52 81.10 Z" />
<path fill="#66ccff" opacity="1.00" d=" M 145.05 86.95 C 147.47 86.87 149.86 86.57 152.26 86.31 C 152.41 97.54 152.10 108.77 152.41 120.00 L 152.47 120.75 C 158.53 121.24 164.68 121.43 170.66 120.14 L 170.91 120.12 C 170.88 121.85 170.85 123.58 170.84 125.32 C 170.84 125.94 170.83 127.18 170.83 127.80 C 170.83 128.67 170.82 130.43 170.82 131.30 C 170.82 138.14 170.83 144.97 170.82 151.81 C 164.64 151.85 158.44 151.60 152.27 152.12 C 152.17 158.31 152.29 164.51 152.13 170.70 C 145.17 170.72 138.20 170.70 131.24 170.69 C 130.37 170.70 128.63 170.72 127.76 170.73 C 127.01 170.74 125.50 170.75 124.74 170.76 C 123.34 170.76 121.95 170.76 120.55 170.75 C 120.49 164.56 120.54 158.37 120.48 152.18 C 109.32 151.42 98.13 152.06 86.95 151.86 C 87.25 148.96 87.59 146.06 88.02 143.17 C 89.33 142.08 89.60 140.33 88.96 138.81 L 89.13 138.07 C 90.24 137.09 90.45 135.94 89.74 134.63 C 89.95 133.95 90.35 132.59 90.56 131.91 C 90.98 130.54 91.43 129.19 91.93 127.85 C 92.15 127.35 92.60 126.33 92.82 125.83 C 93.98 123.35 95.28 120.95 96.59 118.55 C 103.72 118.58 110.86 118.70 118.00 118.53 L 118.83 118.47 C 119.34 110.92 118.60 103.33 119.44 95.79 C 121.03 94.84 122.66 93.94 124.31 93.11 C 125.50 92.53 126.70 92.00 127.92 91.49 C 129.04 91.02 130.17 90.57 131.30 90.14 C 134.36 88.98 137.54 88.22 140.77 87.71 C 142.13 88.39 144.37 88.74 145.05 86.95 Z" />
</g>
<g id="#7fcde6ff">
<path fill="#7fcde6" opacity="1.00" d=" M 118.00 5.00 L 118.96 5.00 C 118.99 10.59 118.98 16.17 118.74 21.75 C 96.16 22.34 73.57 21.71 50.98 22.05 C 47.47 22.17 43.95 21.91 40.49 21.27 C 49.38 20.47 58.31 21.17 67.21 20.87 C 84.14 20.74 101.06 20.90 117.99 20.79 C 118.01 15.52 117.99 10.26 118.00 5.00 Z" />
</g>
<g id="#87c4d6ff">
<path fill="#87c4d6" opacity="1.00" d=" M 137.99 5.03 L 138.78 5.04 C 138.74 10.31 138.73 15.59 138.86 20.86 C 145.24 20.92 151.62 20.87 158.00 20.91 C 158.00 27.39 158.00 33.86 158.00 40.34 L 157.13 40.35 C 157.32 34.16 157.35 27.97 157.14 21.79 C 150.79 21.58 144.44 21.70 138.09 21.65 C 137.89 16.11 137.92 10.57 137.99 5.03 Z" />
</g>
<g id="#252924ff">
<path fill="#252924" opacity="1.00" d=" M 125.51 56.91 L 126.03 56.78 L 126.59 57.09 C 128.02 58.67 127.76 60.89 127.97 62.85 C 126.61 63.18 125.26 63.53 123.91 63.89 C 104.99 63.64 86.06 63.86 67.13 63.76 C 67.14 63.25 67.16 62.25 67.17 61.74 C 86.51 61.38 105.86 61.66 125.21 61.62 C 125.26 60.05 125.35 58.48 125.51 56.91 Z" />
<path fill="#252924" opacity="1.00" d=" M 194.17 191.56 C 195.35 190.77 196.43 189.53 197.97 189.52 C 202.91 189.13 207.87 189.54 212.81 189.75 L 211.89 191.14 C 206.08 192.46 200.06 191.63 194.17 191.56 Z" />
</g>
<g id="#98d1d3ff">
<path fill="#98d1d3" opacity="1.00" d=" M 137.74 60.88 C 138.94 59.75 140.63 59.56 142.16 60.05 C 141.03 61.33 139.26 61.54 137.74 60.88 Z" />
</g>
<g id="#93c9ccff">
<path fill="#93c9cc" opacity="1.00" d=" M 162.88 60.04 C 164.70 59.53 166.65 59.78 168.14 61.00 C 166.32 61.66 164.29 61.41 162.88 60.04 Z" />
</g>
<g id="#474b46ff">
<path fill="#474b46" opacity="1.00" d=" M 2.69 63.07 C 3.37 61.80 4.60 61.24 6.01 61.40 C 10.99 61.30 15.97 61.46 20.95 61.36 C 20.94 61.92 20.91 63.03 20.90 63.59 C 14.84 63.38 8.72 64.03 2.69 63.07 Z" />
<path fill="#474b46" opacity="1.00" d=" M 87.09 125.13 C 89.01 125.30 90.92 125.57 92.82 125.83 C 92.60 126.33 92.15 127.35 91.93 127.85 C 90.03 127.65 88.15 127.36 86.27 127.07 C 86.48 126.59 86.89 125.62 87.09 125.13 Z" />
<path fill="#474b46" opacity="1.00" d=" M 195.07 125.71 C 202.83 124.99 210.64 125.65 218.42 125.23 C 218.68 126.01 218.94 126.79 219.20 127.57 C 211.12 127.40 203.03 127.80 194.96 127.27 L 195.07 125.71 Z" />
</g>
<g id="#93dbe1ff">
<path fill="#93dbe1" opacity="1.00" d=" M 132.72 61.75 C 133.71 60.76 134.86 60.54 136.15 61.10 C 135.18 62.22 134.04 62.44 132.72 61.75 Z" />
</g>
<g id="#8fd1d7ff">
<path fill="#8fd1d7" opacity="1.00" d=" M 168.93 61.04 C 170.30 60.67 172.35 60.40 173.01 62.05 C 171.55 62.60 169.98 62.15 168.93 61.04 Z" />
</g>
<g id="#5c615bff">
<path fill="#5c615b" opacity="1.00" d=" M 40.96 63.68 C 47.41 63.52 53.87 63.46 60.32 63.72 C 60.30 64.58 60.27 66.29 60.26 67.15 C 53.80 67.41 47.33 67.06 40.88 67.50 C 40.90 66.54 40.94 64.63 40.96 63.68 Z" />
<path fill="#5c615b" opacity="1.00" d=" M 241.70 127.75 C 245.36 127.59 249.03 127.59 252.70 127.73 C 252.56 128.91 252.43 130.08 252.30 131.26 C 249.09 131.39 245.88 131.47 242.67 131.54 C 242.36 130.27 242.03 129.01 241.70 127.75 Z" />
</g>
<g id="#4a4e49ff">
<path fill="#4a4e49" opacity="1.00" d=" M 252.03 67.41 C 253.35 67.39 254.68 67.37 256.00 67.35 L 256.00 131.12 C 254.76 131.16 253.53 131.21 252.30 131.26 C 252.43 130.08 252.56 128.91 252.70 127.73 C 249.03 127.59 245.36 127.59 241.70 127.75 C 241.45 126.86 241.19 125.97 240.92 125.09 C 244.67 125.26 248.43 125.32 252.19 125.26 C 252.37 105.98 252.61 86.68 252.03 67.41 Z" />
<path fill="#4a4e49" opacity="1.00" d=" M 252.06 195.40 C 253.37 195.38 254.68 195.36 256.00 195.34 L 256.00 256.00 L 194.55 256.00 C 194.63 255.42 194.78 254.27 194.85 253.69 C 213.93 252.76 233.08 253.74 252.18 253.20 C 252.60 243.81 252.20 234.40 252.32 225.00 C 252.26 215.14 252.60 205.26 252.06 195.40 Z" />
</g>
<g id="#86e2f4ff">
<path fill="#86e2f4" opacity="1.00" d=" M 145.52 81.10 C 149.90 79.33 155.00 79.37 159.42 81.01 C 154.79 80.94 150.15 80.90 145.52 81.10 Z" />
</g>
<g id="#89cad6ff">
<path fill="#89cad6" opacity="1.00" d=" M 161.17 81.42 C 162.15 80.00 165.81 80.07 165.59 82.19 C 164.09 82.11 162.60 81.89 161.17 81.42 Z" />
</g>
<g id="#93dadeff">
<path fill="#93dade" opacity="1.00" d=" M 140.77 87.71 C 142.05 86.89 143.57 86.66 145.05 86.95 C 144.37 88.74 142.13 88.39 140.77 87.71 Z" />
</g>
<g id="#272b26ff">
<path fill="#272b26" opacity="1.00" d=" M 188.58 90.75 C 189.51 91.26 190.44 91.77 191.36 92.31 C 192.38 104.10 191.48 115.99 191.83 127.83 C 184.83 127.78 177.83 127.79 170.83 127.80 C 170.83 127.18 170.84 125.94 170.84 125.32 C 176.67 125.48 182.50 125.51 188.32 125.33 C 188.68 113.80 188.20 102.27 188.58 90.75 Z" />
<path fill="#272b26" opacity="1.00" d=" M 124.74 170.76 C 125.50 170.75 127.01 170.74 127.76 170.73 C 127.82 177.76 127.77 184.79 127.83 191.83 C 116.61 191.67 105.38 191.99 94.17 191.67 C 93.87 191.26 93.28 190.46 92.98 190.05 C 103.49 189.03 114.07 189.77 124.61 189.58 C 124.60 183.31 124.52 177.03 124.74 170.76 Z" />
</g>
<g id="#88e7f2ff">
<path fill="#88e7f2" opacity="1.00" d=" M 118.12 96.64 C 118.45 96.43 119.11 96.00 119.44 95.79 C 118.60 103.33 119.34 110.92 118.83 118.47 L 118.00 118.53 C 118.06 111.23 117.86 103.93 118.12 96.64 Z" />
</g>
<g id="#7de2fdff">
<path fill="#7de2fd" opacity="1.00" d=" M 6.17 118.52 C 7.57 124.72 6.86 131.10 7.08 137.40 L 6.01 137.39 C 6.00 135.13 6.00 132.86 6.00 130.60 C 6.00 129.99 6.00 128.78 6.00 128.18 C 5.99 124.96 5.99 121.73 6.17 118.52 Z" />
</g>
<g id="#85e7f5ff">
<path fill="#85e7f5" opacity="1.00" d=" M 152.41 120.00 C 158.50 120.02 164.58 119.93 170.66 120.14 C 164.68 121.43 158.53 121.24 152.47 120.75 L 152.41 120.00 Z" />
</g>
<g id="#7d817cff">
<path fill="#7d817c" opacity="1.00" d=" M 56.82 127.96 C 59.08 127.84 61.33 127.72 63.59 127.56 C 63.18 129.17 62.73 130.77 62.34 132.38 L 61.93 131.26 C 59.97 131.19 58.00 131.22 56.04 131.25 C 56.28 130.15 56.54 129.05 56.82 127.96 Z" />
</g>
<g id="#5b605aff">
<path fill="#5b605a" opacity="1.00" d=" M 86.18 127.06 L 86.27 127.07 C 88.15 127.36 90.03 127.65 91.93 127.85 C 91.43 129.19 90.98 130.54 90.56 131.91 C 88.67 131.66 86.77 131.42 84.88 131.17 C 85.32 129.80 85.76 128.43 86.18 127.06 Z" />
</g>
<g id="#90d3daff">
<path fill="#90d3da" opacity="1.00" d=" M 89.13 138.07 C 88.56 136.79 88.77 135.64 89.74 134.63 C 90.45 135.94 90.24 137.09 89.13 138.07 Z" />
</g>
<g id="#8fccd1ff">
<path fill="#8fccd1" opacity="1.00" d=" M 61.00 141.14 C 60.61 139.31 60.88 137.43 61.91 135.85 C 62.72 137.65 62.53 139.78 61.00 141.14 Z" />
</g>
<g id="#8ccacfff">
<path fill="#8ccacf" opacity="1.00" d=" M 88.02 143.17 C 87.57 141.63 87.79 139.96 88.96 138.81 C 89.60 140.33 89.33 142.08 88.02 143.17 Z" />
</g>
<g id="#8bcad5ff">
<path fill="#8bcad5" opacity="1.00" d=" M 244.22 140.43 C 245.38 147.79 245.43 155.38 244.25 162.74 C 244.18 155.30 244.14 147.87 244.22 140.43 Z" />
</g>
<g id="#8fd9e5ff">
<path fill="#8fd9e5" opacity="1.00" d=" M 82.12 160.28 C 80.25 155.00 80.31 148.77 82.11 143.47 C 81.85 149.07 81.83 154.68 82.12 160.28 Z" />
</g>
<g id="#95cecfff">
<path fill="#95cecf" opacity="1.00" d=" M 222.96 143.40 C 224.66 148.86 224.57 155.03 222.95 160.50 C 223.13 154.80 223.14 149.10 222.96 143.40 Z" />
</g>
<g id="#8fc5c9ff">
<path fill="#8fc5c9" opacity="1.00" d=" M 60.90 162.86 C 62.45 164.21 62.68 166.36 61.90 168.20 C 60.84 166.62 60.59 164.71 60.90 162.86 Z" />
</g>
<g id="#8fdbe4ff">
<path fill="#8fdbe4" opacity="1.00" d=" M 62.13 168.90 C 63.20 169.91 63.39 171.06 62.71 172.37 C 61.72 171.35 61.52 170.19 62.13 168.90 Z" />
</g>
<g id="#5d6461ff">
<path fill="#5d6461" opacity="1.00" d=" M 64.09 178.77 C 65.47 182.08 66.77 185.42 68.16 188.72 C 66.59 189.16 65.03 189.59 63.46 190.03 C 63.29 186.26 63.54 182.49 64.09 178.77 Z" />
</g>
<g id="#2b2f2aff">
<path fill="#2b2f2a" opacity="1.00" d=" M 188.51 236.74 C 189.31 236.35 190.89 235.59 191.68 235.20 C 191.99 242.13 191.61 249.08 192.16 256.00 L 130.99 256.00 C 131.03 255.43 131.11 254.29 131.15 253.72 C 150.14 252.79 169.21 253.80 188.22 253.22 C 188.37 247.73 188.40 242.23 188.51 236.74 Z" />
</g>
<g id="#84ceddff">
<path fill="#84cedd" opacity="1.00" d=" M 140.42 243.22 C 148.79 243.17 157.16 243.40 165.53 243.18 C 157.26 244.47 148.70 244.44 140.42 243.22 Z" />
</g>
</svg>
