<?xml version="1.0" encoding="UTF-8" ?>
<!DOCTYPE svg PUBLIC "-//W3C//DTD SVG 1.1//EN" "http://www.w3.org/Graphics/SVG/1.1/DTD/svg11.dtd">
<svg width="256pt" height="256pt" viewBox="0 0 256 256" version="1.1" xmlns="http://www.w3.org/2000/svg">
<g id="#f178ffff">
<path fill="#f178ff" opacity="1.00" d=" M 144.98 9.95 C 150.67 3.86 160.93 3.13 167.18 8.74 C 176.40 17.20 184.80 26.49 193.75 35.21 C 207.76 49.56 222.20 63.47 236.13 77.89 C 238.15 79.78 239.07 82.38 240.18 84.83 C 240.56 87.95 240.53 91.02 240.18 94.15 C 238.96 97.09 237.54 99.97 235.21 102.21 C 224.13 113.41 213.13 124.71 201.91 135.77 C 191.33 146.21 180.49 156.43 170.52 167.47 C 166.55 171.98 161.63 175.54 157.82 180.19 C 148.23 189.79 139.21 199.99 129.00 208.95 C 125.31 211.56 121.49 214.06 117.40 216.00 C 113.74 217.41 110.01 219.16 106.00 219.02 C 96.66 218.98 87.32 219.00 77.98 219.01 C 75.16 219.09 72.57 217.86 69.91 217.13 C 61.92 213.79 54.37 208.94 48.66 202.36 C 38.40 191.58 28.24 180.72 18.00 169.92 C 15.03 166.50 11.25 163.58 9.65 159.19 C 7.52 153.03 8.84 145.61 13.78 141.12 C 57.50 97.39 101.20 53.63 144.98 9.95 M 83.77 95.72 C 66.61 113.21 49.26 130.52 32.03 147.95 C 29.92 150.30 27.19 152.11 25.58 154.87 C 37.24 166.06 47.97 178.17 59.51 189.47 C 64.62 195.01 70.70 200.07 78.02 202.27 C 85.64 202.77 93.32 202.33 100.96 202.49 C 103.51 202.47 106.21 202.71 108.58 201.57 C 115.63 197.99 120.80 191.87 126.37 186.44 C 134.42 177.83 142.49 169.21 150.91 160.94 L 150.41 159.92 C 129.17 138.72 107.96 117.48 86.75 96.25 C 86.13 95.31 84.58 94.51 83.77 95.72 Z" />
</g>
<g id="#734e7696">
<path fill="#734e76" opacity="0.59" d=" M 170.52 167.47 C 180.49 156.43 191.33 146.21 201.91 135.77 C 200.29 138.71 197.29 140.58 195.12 143.10 C 184.71 154.04 173.83 164.51 163.27 175.30 C 161.52 176.99 160.03 179.04 157.82 180.19 C 161.63 175.54 166.55 171.98 170.52 167.47 Z" />
</g>
<g id="#1711173b">
<path fill="#171117" opacity="0.23" d=" M 106.00 219.02 C 110.01 219.16 113.74 217.41 117.40 216.00 C 117.20 216.35 116.81 217.05 116.61 217.41 C 113.17 218.52 109.65 219.84 105.98 219.64 C 96.29 219.57 86.60 219.62 76.91 219.62 C 74.40 219.60 71.67 219.06 69.91 217.13 C 72.57 217.86 75.16 219.09 77.98 219.01 C 87.32 219.00 96.66 218.98 106.00 219.02 Z" />
</g>
<g id="#f177ffff">
<path fill="#f177ff" opacity="1.00" d=" M 18.69 240.72 C 19.66 238.42 21.72 236.98 23.75 235.71 C 96.58 235.80 169.42 235.65 242.25 235.78 C 248.00 237.07 250.44 245.00 246.38 249.31 C 244.99 251.61 242.20 250.95 239.96 251.00 C 167.30 250.99 94.63 251.02 21.97 250.99 C 20.66 249.93 19.60 248.61 18.72 247.19 C 18.33 245.03 18.15 242.87 18.69 240.72 Z" />
</g>
</svg>
