<?xml version="1.0" encoding="UTF-8" ?>
<!DOCTYPE svg PUBLIC "-//W3C//DTD SVG 1.1//EN" "http://www.w3.org/Graphics/SVG/1.1/DTD/svg11.dtd">
<svg width="256pt" height="256pt" viewBox="0 0 256 256" version="1.1" xmlns="http://www.w3.org/2000/svg">
<g id="#4b944aff">
<path fill="#4b944a" opacity="1.00" d=" M 0.00 0.00 L 256.00 0.00 L 256.00 256.00 L 0.00 256.00 L 0.00 0.00 M 60.34 72.86 L 60.38 73.03 C 42.24 91.56 23.54 109.57 5.53 128.22 C 5.54 128.35 5.54 128.61 5.55 128.74 C 7.07 131.05 9.37 132.71 11.22 134.75 C 28.05 151.46 44.64 168.41 61.62 184.95 C 61.70 171.81 61.62 158.67 61.66 145.53 C 106.04 145.30 150.44 145.66 194.82 145.34 C 195.26 158.53 194.83 171.74 195.04 184.94 C 195.46 184.70 196.31 184.24 196.73 184.00 L 196.68 183.83 C 214.53 165.95 232.36 148.07 250.28 130.27 C 251.40 129.43 251.28 127.54 250.23 126.71 C 232.32 108.90 214.43 91.07 196.66 73.12 L 196.74 72.91 C 196.30 72.70 195.44 72.28 195.01 72.06 C 194.97 85.07 195.03 98.08 194.98 111.09 C 150.66 111.13 106.34 111.12 62.01 111.10 C 61.90 98.08 62.18 85.05 61.88 72.04 C 61.49 72.25 60.72 72.65 60.34 72.86 Z" />
</g>
<g id="#a87facff">
<path fill="#a87fac" opacity="1.00" d=" M 60.34 72.86 C 60.72 72.65 61.49 72.25 61.88 72.04 C 62.18 85.05 61.90 98.08 62.01 111.10 C 106.34 111.12 150.66 111.13 194.98 111.09 C 195.03 98.08 194.97 85.07 195.01 72.06 C 195.44 72.28 196.30 72.70 196.74 72.91 L 196.66 73.12 C 195.16 76.56 196.03 80.40 195.83 84.03 C 195.73 92.98 196.03 101.94 195.71 110.87 C 195.69 112.76 193.13 111.85 191.99 112.12 C 152.67 112.03 113.35 112.11 74.02 112.08 C 69.75 112.05 65.48 112.26 61.22 111.83 C 60.96 100.22 61.18 88.60 61.12 76.99 C 61.06 75.64 60.82 74.32 60.38 73.03 L 60.34 72.86 Z" />
</g>
<g id="#9e3dffff">
<path fill="#9e3dff" opacity="1.00" d=" M 5.53 128.22 C 23.54 109.57 42.24 91.56 60.38 73.03 C 60.82 74.32 61.06 75.64 61.12 76.99 C 61.18 88.60 60.96 100.22 61.22 111.83 C 65.48 112.26 69.75 112.05 74.02 112.08 C 113.35 112.11 152.67 112.03 191.99 112.12 C 193.13 111.85 195.69 112.76 195.71 110.87 C 196.03 101.94 195.73 92.98 195.83 84.03 C 196.03 80.40 195.16 76.56 196.66 73.12 C 214.43 91.07 232.32 108.90 250.23 126.71 C 251.28 127.54 251.40 129.43 250.28 130.27 C 232.36 148.07 214.53 165.95 196.68 183.83 C 195.59 180.66 196.06 177.28 196.00 174.01 C 195.96 164.44 196.12 154.86 195.93 145.29 C 195.66 145.30 195.10 145.33 194.82 145.34 C 150.44 145.66 106.04 145.30 61.66 145.53 C 61.62 158.67 61.70 171.81 61.62 184.95 C 44.64 168.41 28.05 151.46 11.22 134.75 C 9.37 132.71 7.07 131.05 5.55 128.74 L 5.53 128.22 Z" />
</g>
<g id="#c982d6ff">
<path fill="#c982d6" opacity="1.00" d=" M 5.55 128.74 C 5.54 128.61 5.54 128.35 5.53 128.22 L 5.55 128.74 Z" />
</g>
<g id="#bb7ec6ff">
<path fill="#bb7ec6" opacity="1.00" d=" M 194.82 145.34 C 195.10 145.33 195.66 145.30 195.93 145.29 C 196.12 154.86 195.96 164.44 196.00 174.01 C 196.06 177.28 195.59 180.66 196.68 183.83 L 196.73 184.00 C 196.31 184.24 195.46 184.70 195.04 184.94 C 194.83 171.74 195.26 158.53 194.82 145.34 Z" />
</g>
</svg>
