<?xml version="1.0" encoding="UTF-8" ?>
<!DOCTYPE svg PUBLIC "-//W3C//DTD SVG 1.1//EN" "http://www.w3.org/Graphics/SVG/1.1/DTD/svg11.dtd">
<svg width="256pt" height="256pt" viewBox="0 0 256 256" version="1.1" xmlns="http://www.w3.org/2000/svg">
<g id="#7f837eff">
<path fill="#7f837e" opacity="1.00" d=" M 0.00 0.00 L 64.95 0.00 C 64.41 0.81 63.88 1.63 63.37 2.45 C 56.71 4.19 49.79 3.27 43.00 3.47 C 29.72 3.63 16.43 3.14 3.16 3.70 C 3.19 22.88 3.28 42.07 3.14 61.25 L 2.72 62.16 C 2.44 61.98 1.87 61.61 1.58 61.43 L 1.06 62.29 C 0.79 62.00 0.26 61.40 0.00 61.11 L 0.00 0.00 Z" />
<path fill="#7f837e" opacity="1.00" d=" M 127.70 0.00 L 189.10 0.00 C 188.42 1.25 188.73 3.76 186.69 3.41 C 168.20 3.76 149.68 3.08 131.19 3.71 C 131.10 5.04 131.01 6.37 130.92 7.70 C 131.41 7.54 132.40 7.23 132.89 7.07 C 131.12 8.69 129.54 10.52 128.22 12.52 C 128.00 9.54 127.82 6.56 127.75 3.57 C 127.73 2.38 127.71 1.19 127.70 0.00 Z" />
<path fill="#7f837e" opacity="1.00" d=" M 191.54 63.53 C 192.31 63.57 193.85 63.65 194.62 63.69 C 215.07 64.33 235.57 63.15 256.00 64.33 L 256.00 67.34 C 254.66 67.37 253.32 67.40 251.98 67.43 C 233.04 67.64 214.09 67.19 195.16 67.64 C 195.16 86.79 195.31 105.94 195.11 125.08 C 195.10 125.62 195.07 126.71 195.05 127.25 C 192.65 129.10 190.20 131.37 186.96 131.36 C 177.16 131.65 167.34 131.32 157.53 131.49 C 157.11 130.29 156.65 129.09 156.17 127.91 C 168.05 127.69 179.94 127.80 191.82 127.84 C 191.70 107.66 191.93 87.48 191.71 67.31 C 191.66 66.05 191.60 64.79 191.54 63.53 Z" />
</g>
<g id="#5d615cff">
<path fill="#5d615c" opacity="1.00" d=" M 64.95 0.00 L 124.93 0.00 C 124.72 0.83 124.32 2.48 124.11 3.31 C 105.19 3.58 86.26 3.35 67.34 3.41 C 67.34 3.72 67.34 4.33 67.34 4.64 C 66.45 23.31 67.46 42.03 66.80 60.71 C 66.04 60.88 64.52 61.24 63.76 61.41 C 63.37 42.26 63.71 23.10 63.63 3.95 C 62.49 3.93 61.35 3.91 60.22 3.90 C 60.39 23.00 60.46 42.11 60.21 61.21 C 41.19 61.44 22.16 61.37 3.14 61.25 C 3.28 42.07 3.19 22.88 3.16 3.70 C 16.43 3.14 29.72 3.63 43.00 3.47 C 49.79 3.27 56.71 4.19 63.37 2.45 C 63.88 1.63 64.41 0.81 64.95 0.00 Z" />
<path fill="#5d615c" opacity="1.00" d=" M 109.48 67.20 C 112.43 70.97 115.80 74.49 120.16 76.63 C 121.55 77.43 122.93 78.24 124.32 79.05 C 124.47 83.89 124.45 88.74 124.06 93.57 C 122.64 94.11 121.23 94.66 119.80 95.17 C 119.24 95.34 118.13 95.68 117.57 95.86 C 111.29 96.51 105.07 97.83 99.16 100.10 C 99.29 101.28 99.42 102.46 99.55 103.64 C 99.09 110.87 99.52 118.12 99.01 125.35 C 88.41 125.65 77.79 125.60 67.19 125.34 C 67.19 106.12 67.26 86.90 67.16 67.69 C 81.26 67.05 95.38 67.95 109.48 67.20 Z" />
<path fill="#5d615c" opacity="1.00" d=" M 195.16 67.64 C 214.09 67.19 233.04 67.64 251.98 67.43 C 252.41 72.95 252.39 78.49 252.34 84.03 C 252.24 97.74 252.56 111.46 252.13 125.16 C 233.13 125.41 214.11 125.42 195.11 125.08 C 195.31 105.94 195.16 86.79 195.16 67.64 Z" />
<path fill="#5d615c" opacity="1.00" d=" M 127.76 78.23 C 128.61 78.12 130.30 77.90 131.15 77.78 C 131.30 83.24 131.34 88.70 131.12 94.16 C 130.29 94.11 128.63 94.01 127.80 93.96 C 127.46 88.72 127.42 83.47 127.76 78.23 Z" />
<path fill="#5d615c" opacity="1.00" d=" M 195.05 127.25 C 214.13 128.17 233.26 127.23 252.35 127.72 C 252.32 128.57 252.26 130.26 252.23 131.11 C 233.26 131.43 214.27 130.94 195.30 131.35 L 195.26 131.97 C 195.18 151.10 195.34 170.22 195.19 189.35 C 194.26 189.42 192.41 189.58 191.48 189.65 C 191.35 170.79 191.49 151.92 191.44 133.06 C 191.96 131.19 188.20 131.60 188.57 133.24 C 188.34 151.97 188.69 170.73 188.40 189.46 C 185.28 189.51 182.15 189.49 179.03 189.39 C 174.96 180.67 170.98 171.91 166.75 163.27 C 160.91 152.01 156.72 139.74 155.55 127.06 L 156.17 127.91 C 156.65 129.09 157.11 130.29 157.53 131.49 C 167.34 131.32 177.16 131.65 186.96 131.36 C 190.20 131.37 192.65 129.10 195.05 127.25 Z" />
<path fill="#5d615c" opacity="1.00" d=" M 133.80 189.17 C 136.74 183.83 139.67 178.50 142.71 173.22 C 148.39 177.23 153.66 182.53 155.72 189.29 C 148.41 189.34 141.10 189.56 133.80 189.17 Z" />
<path fill="#5d615c" opacity="1.00" d=" M 125.09 196.42 C 126.73 196.43 128.30 195.86 129.92 195.69 C 130.35 196.01 131.20 196.65 131.63 196.98 C 131.33 198.51 132.03 201.09 129.57 200.92 C 128.94 200.97 127.69 201.08 127.06 201.14 C 124.50 201.04 125.31 198.08 125.09 196.42 Z" />
<path fill="#5d615c" opacity="1.00" d=" M 195.13 195.67 C 214.08 195.16 233.04 195.69 252.00 195.42 C 252.43 201.27 252.37 207.14 252.33 213.01 C 252.17 226.39 252.61 239.78 252.14 253.16 C 240.41 253.54 228.68 253.24 216.95 253.35 C 209.67 253.49 202.36 252.85 195.12 253.69 C 195.16 253.02 195.23 251.67 195.27 251.00 C 200.16 251.00 205.05 250.99 209.93 251.00 C 204.33 241.48 199.70 231.43 194.77 221.56 C 195.59 212.95 195.08 204.30 195.13 195.67 Z" />
<path fill="#5d615c" opacity="1.00" d=" M 127.23 203.79 C 128.61 203.63 130.00 203.46 131.38 203.29 C 131.08 211.22 131.40 219.15 131.11 227.08 C 130.29 227.03 128.64 226.93 127.82 226.88 C 127.22 219.20 128.09 211.46 127.23 203.79 Z" />
<path fill="#5d615c" opacity="1.00" d=" M 113.92 223.59 C 117.18 217.54 120.46 211.50 124.10 205.67 C 124.39 212.71 124.42 219.76 124.25 226.81 C 120.63 226.35 117.18 225.20 113.92 223.59 Z" />
</g>
<g id="#3f433eff">
<path fill="#3f433e" opacity="1.00" d=" M 124.93 0.00 L 127.70 0.00 C 127.71 1.19 127.73 2.38 127.75 3.57 C 126.65 3.55 125.55 3.53 124.45 3.51 C 124.22 8.65 124.24 13.78 124.33 18.92 C 124.69 18.35 125.40 17.21 125.76 16.64 C 124.93 19.06 124.12 21.50 123.60 24.01 C 122.85 27.54 122.88 31.15 122.98 34.74 C 122.10 34.55 120.35 34.18 119.47 33.99 C 117.68 33.53 115.90 33.04 114.10 32.61 C 111.78 31.66 109.17 31.31 106.88 32.56 C 99.73 34.27 96.60 42.25 96.71 48.92 C 96.77 54.00 99.76 58.30 102.92 62.01 C 97.31 61.30 91.65 61.65 86.01 61.61 C 79.80 61.66 73.57 61.35 67.37 61.81 C 68.28 49.24 67.60 36.60 67.79 24.01 C 67.79 17.55 67.96 11.08 67.34 4.64 C 67.34 4.33 67.34 3.72 67.34 3.41 C 86.26 3.35 105.19 3.58 124.11 3.31 C 124.32 2.48 124.72 0.83 124.93 0.00 Z" />
<path fill="#3f433e" opacity="1.00" d=" M 188.49 3.97 C 189.50 4.08 190.51 4.19 191.52 4.30 C 191.35 23.39 191.42 42.48 191.48 61.57 C 192.39 61.53 194.22 61.44 195.13 61.40 C 195.39 42.20 195.21 23.01 195.23 3.81 C 214.15 3.14 233.11 3.83 252.05 3.47 C 252.40 8.99 252.38 14.51 252.32 20.03 C 252.20 33.74 252.54 47.46 252.19 61.16 C 233.56 61.55 214.91 61.19 196.27 61.34 C 195.72 62.12 195.17 62.91 194.62 63.69 C 193.85 63.65 192.31 63.57 191.54 63.53 C 191.60 64.79 191.66 66.05 191.71 67.31 C 190.78 67.53 189.84 67.68 188.91 67.83 C 188.13 69.04 188.47 70.63 188.34 72.00 C 188.41 89.76 188.56 107.51 188.27 125.26 C 177.30 125.82 166.29 124.89 155.33 125.76 C 155.21 125.01 155.09 124.27 154.97 123.52 C 155.18 117.50 155.16 111.47 155.00 105.44 C 155.10 104.84 155.29 103.64 155.38 103.04 C 156.03 101.85 156.71 100.33 155.80 99.07 L 155.16 98.95 C 151.48 98.13 147.81 97.31 144.09 96.80 C 142.54 95.76 140.67 95.50 138.89 96.05 C 138.51 95.99 137.76 95.87 137.38 95.81 C 135.29 95.45 133.20 95.12 131.09 94.91 L 131.12 94.16 C 131.34 88.70 131.30 83.24 131.15 77.78 L 131.13 77.06 C 135.58 76.14 139.60 72.71 139.15 67.79 C 155.55 66.91 172.00 67.79 188.42 67.34 C 188.47 66.38 188.55 64.46 188.59 63.49 C 172.06 63.48 155.51 63.16 138.98 63.68 C 139.02 63.32 139.10 62.60 139.13 62.25 C 141.19 61.99 143.25 61.78 145.30 61.48 C 159.76 61.93 174.23 61.58 188.70 61.70 C 188.76 49.80 188.60 37.90 188.91 26.01 C 188.36 18.66 189.45 11.29 188.49 3.97 Z" />
<path fill="#3f433e" opacity="1.00" d=" M 3.33 67.37 C 22.36 67.41 41.39 67.50 60.42 67.35 C 61.29 67.36 62.17 67.36 63.05 67.35 C 62.50 67.56 61.40 67.97 60.84 68.18 C 60.29 87.31 60.84 106.46 60.62 125.60 C 41.45 125.71 22.28 125.31 3.12 125.77 C 3.52 106.31 3.09 86.84 3.33 67.37 Z" />
<path fill="#3f433e" opacity="1.00" d=" M 188.57 133.24 C 188.20 131.60 191.96 131.19 191.44 133.06 C 191.49 151.92 191.35 170.79 191.48 189.65 C 192.41 189.58 194.26 189.42 195.19 189.35 C 195.34 170.22 195.18 151.10 195.26 131.97 C 214.20 131.76 233.14 132.14 252.07 131.76 C 252.53 150.90 252.37 170.06 252.19 189.20 C 233.54 189.55 214.88 189.15 196.22 189.34 C 195.68 190.12 195.15 190.90 194.61 191.68 C 193.84 191.64 192.30 191.56 191.53 191.51 C 191.60 192.84 191.66 194.17 191.72 195.51 C 190.62 195.65 189.51 195.79 188.41 195.94 C 188.46 199.53 188.31 203.13 187.81 206.70 C 185.84 202.89 183.93 199.05 182.08 195.19 C 184.18 195.26 186.28 195.34 188.38 195.43 C 188.44 194.42 188.55 192.39 188.61 191.38 C 185.83 191.48 183.06 191.60 180.29 191.77 C 179.91 191.08 179.54 190.40 179.18 189.72 L 179.03 189.39 C 182.15 189.49 185.28 189.51 188.40 189.46 C 188.69 170.73 188.34 151.97 188.57 133.24 Z" />
<path fill="#3f433e" opacity="1.00" d=" M 100.84 189.38 C 103.41 183.11 107.66 176.66 114.05 173.92 C 117.33 178.77 120.00 184.05 122.68 189.27 C 115.40 189.59 108.12 189.46 100.84 189.38 Z" />
<path fill="#3f433e" opacity="1.00" d=" M 131.38 203.29 C 135.19 209.98 138.99 216.68 142.43 223.56 L 140.55 224.39 C 140.52 224.40 140.47 224.43 140.44 224.44 C 137.60 225.64 134.66 226.71 131.58 227.02 L 131.11 227.08 C 131.40 219.15 131.08 211.22 131.38 203.29 Z" />
</g>
<g id="#5c605bff">
<path fill="#5c605b" opacity="1.00" d=" M 189.10 0.00 L 256.00 0.00 L 256.00 3.40 C 254.68 3.42 253.36 3.45 252.05 3.47 C 233.11 3.83 214.15 3.14 195.23 3.81 C 195.21 23.01 195.39 42.20 195.13 61.40 C 194.22 61.44 192.39 61.53 191.48 61.57 C 191.42 42.48 191.35 23.39 191.52 4.30 C 190.51 4.19 189.50 4.08 188.49 3.97 C 189.45 11.29 188.36 18.66 188.91 26.01 C 188.60 37.90 188.76 49.80 188.70 61.70 C 174.23 61.58 159.76 61.93 145.30 61.48 L 146.55 61.19 C 153.15 59.73 160.42 57.12 163.89 50.87 C 166.79 44.35 160.84 38.47 156.07 34.85 C 155.64 33.82 155.10 32.85 154.46 31.94 C 163.06 31.65 167.06 20.53 163.16 13.75 C 160.37 9.89 156.08 7.33 151.60 5.93 C 146.98 4.48 142.01 4.67 137.34 5.81 C 135.84 6.15 134.36 6.59 132.89 7.07 C 132.40 7.23 131.41 7.54 130.92 7.70 C 131.01 6.37 131.10 5.04 131.19 3.71 C 149.68 3.08 168.20 3.76 186.69 3.41 C 188.73 3.76 188.42 1.25 189.10 0.00 Z" />
<path fill="#5c605b" opacity="1.00" d=" M 67.18 127.22 C 77.60 127.73 88.04 127.17 98.46 127.52 C 98.44 128.47 98.40 130.36 98.38 131.31 C 88.02 131.60 77.66 131.34 67.30 131.40 C 67.18 150.73 67.43 170.07 67.18 189.39 C 66.26 189.44 64.43 189.53 63.51 189.57 C 63.32 170.43 63.43 151.27 63.50 132.12 C 62.52 132.04 61.53 131.96 60.55 131.88 C 60.98 146.90 60.58 161.94 60.73 176.97 C 60.97 181.17 61.30 185.39 60.69 189.58 C 41.63 190.04 22.53 189.23 3.48 190.01 C 4.27 191.24 5.61 191.58 6.99 191.47 C 24.85 191.41 42.71 191.37 60.57 191.48 C 60.55 192.45 60.50 194.37 60.48 195.33 C 41.42 195.52 22.36 195.42 3.30 195.37 C 3.15 214.63 3.44 233.89 3.20 253.15 C 3.17 253.86 3.12 255.29 3.09 256.00 L 0.00 256.00 L 0.00 190.42 C 0.94 189.83 2.21 189.62 2.94 188.77 C 3.31 187.21 3.27 185.59 3.30 184.01 C 3.14 166.57 3.33 149.13 3.17 131.70 C 21.64 131.10 40.13 131.75 58.60 131.39 C 62.01 131.48 64.67 129.20 67.18 127.22 Z" />
<path fill="#5c605b" opacity="1.00" d=" M 67.32 195.49 C 70.92 195.43 74.52 195.34 78.12 195.22 L 77.91 195.71 C 75.35 200.23 73.01 204.87 71.03 209.67 C 69.75 211.91 68.56 214.20 67.36 216.48 C 67.13 209.48 67.16 202.48 67.32 195.49 Z" />
</g>
<g id="#2c302bff">
<path fill="#2c302b" opacity="1.00" d=" M 124.45 3.51 C 125.55 3.53 126.65 3.55 127.75 3.57 C 127.82 6.56 128.00 9.54 128.22 12.52 C 127.36 13.87 126.56 15.25 125.76 16.64 C 125.40 17.21 124.69 18.35 124.33 18.92 C 124.24 13.78 124.22 8.65 124.45 3.51 Z" />
<path fill="#2c302b" opacity="1.00" d=" M 252.05 3.47 C 253.36 3.45 254.68 3.42 256.00 3.40 L 256.00 64.33 C 235.57 63.15 215.07 64.33 194.62 63.69 C 195.17 62.91 195.72 62.12 196.27 61.34 C 214.91 61.19 233.56 61.55 252.19 61.16 C 252.54 47.46 252.20 33.74 252.32 20.03 C 252.38 14.51 252.40 8.99 252.05 3.47 Z" />
<path fill="#2c302b" opacity="1.00" d=" M 252.07 131.76 C 253.38 131.71 254.69 131.65 256.00 131.59 L 256.00 191.87 C 235.54 191.70 215.07 192.07 194.61 191.68 C 195.15 190.90 195.68 190.12 196.22 189.34 C 214.88 189.15 233.54 189.55 252.19 189.20 C 252.37 170.06 252.53 150.90 252.07 131.76 Z" />
<path fill="#2c302b" opacity="1.00" d=" M 60.45 195.51 C 61.55 195.55 62.65 195.60 63.76 195.65 C 64.01 204.59 63.68 213.53 63.93 222.47 C 62.76 224.41 61.61 226.37 60.48 228.35 C 60.22 217.40 60.26 206.45 60.45 195.51 Z" />
<path fill="#2c302b" opacity="1.00" d=" M 60.97 251.08 C 61.93 251.04 62.88 251.01 63.84 251.00 C 63.82 252.66 63.79 254.33 63.76 256.00 L 3.09 256.00 C 3.12 255.29 3.17 253.86 3.20 253.15 C 19.78 253.62 36.38 253.12 52.96 253.41 C 55.80 253.34 59.24 253.96 60.97 251.08 Z" />
</g>
<g id="#494d48ff">
<path fill="#494d48" opacity="1.00" d=" M 60.22 3.90 C 61.35 3.91 62.49 3.93 63.63 3.95 C 63.71 23.10 63.37 42.26 63.76 61.41 C 64.52 61.24 66.04 60.88 66.80 60.71 C 67.46 42.03 66.45 23.31 67.34 4.64 C 67.96 11.08 67.79 17.55 67.79 24.01 C 67.60 36.60 68.28 49.24 67.37 61.81 C 67.27 62.29 67.09 63.27 66.99 63.75 C 66.18 63.75 64.56 63.73 63.75 63.73 C 63.76 64.93 63.78 66.12 63.79 67.32 L 63.05 67.35 C 62.17 67.36 61.29 67.36 60.42 67.35 C 60.33 66.45 60.16 64.64 60.08 63.73 C 42.38 63.40 24.66 63.74 6.96 63.64 C 5.38 63.76 4.00 62.99 2.72 62.16 L 3.14 61.25 C 22.16 61.37 41.19 61.44 60.21 61.21 C 60.46 42.11 60.39 23.00 60.22 3.90 Z" />
<path fill="#494d48" opacity="1.00" d=" M 120.16 76.63 C 123.79 77.15 127.47 77.25 131.13 77.06 L 131.15 77.78 C 130.30 77.90 128.61 78.12 127.76 78.23 C 127.42 83.47 127.46 88.72 127.80 93.96 C 128.63 94.01 130.29 94.11 131.12 94.16 L 131.09 94.91 C 127.33 94.86 123.56 94.89 119.80 95.17 C 121.23 94.66 122.64 94.11 124.06 93.57 C 124.45 88.74 124.47 83.89 124.32 79.05 C 122.93 78.24 121.55 77.43 120.16 76.63 Z" />
<path fill="#494d48" opacity="1.00" d=" M 124.10 205.67 C 124.23 204.18 125.67 202.57 127.23 203.79 C 128.09 211.46 127.22 219.20 127.82 226.88 C 127.19 226.94 125.94 227.05 125.31 227.10 L 124.25 227.20 L 124.25 226.81 C 124.42 219.76 124.39 212.71 124.10 205.67 Z" />
</g>
<g id="#e54b4aff">
<path fill="#e54b4a" opacity="1.00" d=" M 137.34 5.81 C 142.01 4.67 146.98 4.48 151.60 5.93 C 146.85 5.66 142.09 5.65 137.34 5.81 Z" />
</g>
<g id="#ff1414ff">
<path fill="#ff1414" opacity="1.00" d=" M 132.89 7.07 C 134.36 6.59 135.84 6.15 137.34 5.81 C 142.09 5.65 146.85 5.66 151.60 5.93 C 156.08 7.33 160.37 9.89 163.16 13.75 C 167.06 20.53 163.06 31.65 154.46 31.94 C 151.15 32.21 154.19 35.09 156.07 34.85 C 160.84 38.47 166.79 44.35 163.89 50.87 C 160.42 57.12 153.15 59.73 146.55 61.19 C 143.60 61.02 140.66 60.91 137.71 60.92 C 138.12 62.35 138.55 63.79 138.92 65.23 C 138.98 65.87 139.09 67.15 139.15 67.79 C 139.60 72.71 135.58 76.14 131.13 77.06 C 127.47 77.25 123.79 77.15 120.16 76.63 C 115.80 74.49 112.43 70.97 109.48 67.20 C 107.69 66.11 106.49 64.29 104.86 63.20 L 104.19 63.46 C 103.87 63.10 103.24 62.37 102.92 62.01 C 99.76 58.30 96.77 54.00 96.71 48.92 C 96.60 42.25 99.73 34.27 106.88 32.56 C 109.19 33.64 111.75 33.31 114.10 32.61 C 115.90 33.04 117.68 33.53 119.47 33.99 C 121.01 34.39 122.48 35.00 123.90 35.71 C 123.92 31.81 123.71 27.91 123.60 24.01 C 124.12 21.50 124.93 19.06 125.76 16.64 C 126.56 15.25 127.36 13.87 128.22 12.52 C 129.54 10.52 131.12 8.69 132.89 7.07 Z" />
<path fill="#ff1414" opacity="1.00" d=" M 99.16 100.10 C 105.07 97.83 111.29 96.51 117.57 95.86 C 124.18 95.91 130.78 95.91 137.38 95.81 C 137.76 95.87 138.51 95.99 138.89 96.05 C 140.28 97.48 142.34 97.64 144.09 96.80 C 147.81 97.31 151.48 98.13 155.16 98.95 C 154.64 100.31 154.72 101.67 155.38 103.04 C 155.29 103.64 155.10 104.84 155.00 105.44 C 153.49 111.36 153.49 117.60 154.97 123.52 C 155.09 124.27 155.21 125.01 155.33 125.76 C 155.39 126.09 155.50 126.74 155.55 127.06 C 156.72 139.74 160.91 152.01 166.75 163.27 C 170.98 171.91 174.96 180.67 179.03 189.39 L 179.18 189.72 C 179.88 192.32 180.67 194.91 181.96 197.29 C 184.74 202.32 186.63 207.86 190.24 212.41 C 190.73 213.39 191.22 214.37 191.70 215.36 C 192.65 217.46 193.70 219.52 194.77 221.56 C 199.70 231.43 204.33 241.48 209.93 251.00 C 205.05 250.99 200.16 251.00 195.27 251.00 C 194.44 251.00 192.77 251.00 191.93 251.00 C 171.80 251.07 151.66 251.04 131.52 251.02 C 129.96 251.01 128.39 251.01 126.83 251.02 C 126.36 251.02 125.42 251.02 124.94 251.02 C 105.69 250.96 86.44 251.02 67.19 250.99 C 66.36 250.99 64.68 251.00 63.84 251.00 C 62.88 251.01 61.93 251.04 60.97 251.08 C 56.20 251.02 51.43 250.99 46.66 250.94 C 51.66 243.66 56.10 236.01 60.48 228.35 C 61.61 226.37 62.76 224.41 63.93 222.47 C 65.13 220.50 66.28 218.51 67.36 216.48 C 68.56 214.20 69.75 211.91 71.03 209.67 C 74.29 205.56 76.67 200.82 77.91 195.71 L 78.12 195.22 C 78.59 194.16 79.06 193.10 79.54 192.05 C 82.32 185.97 84.84 179.77 87.42 173.60 C 87.45 173.53 87.51 173.38 87.54 173.31 C 88.19 171.75 88.83 170.19 89.42 168.61 C 89.45 168.54 89.50 168.39 89.53 168.32 C 92.21 160.89 95.32 153.55 96.68 145.72 C 98.15 138.38 99.05 130.95 99.94 123.52 C 101.44 117.65 101.71 111.40 99.94 105.55 C 99.84 105.07 99.65 104.11 99.55 103.64 C 99.42 102.46 99.29 101.28 99.16 100.10 M 100.84 189.38 C 100.55 190.17 100.27 190.97 99.99 191.77 C 99.85 192.66 99.55 194.44 99.40 195.33 L 99.04 195.32 C 99.18 196.05 99.47 197.51 99.61 198.24 L 98.67 198.63 C 104.07 199.36 109.52 198.86 114.94 199.02 C 117.79 198.95 120.83 199.46 123.48 198.13 L 123.08 196.80 C 123.77 195.40 125.89 192.94 124.17 191.83 C 123.73 190.97 123.29 190.12 122.84 189.27 L 122.68 189.27 C 120.00 184.05 117.33 178.77 114.05 173.92 C 107.66 176.66 103.41 183.11 100.84 189.38 M 133.80 189.17 C 133.62 189.52 133.25 190.24 133.07 190.60 C 131.19 191.47 131.30 193.45 131.22 195.21 C 129.50 195.12 127.79 195.02 126.07 194.92 C 125.83 195.29 125.34 196.04 125.09 196.42 C 125.31 198.08 124.50 201.04 127.06 201.14 C 126.59 202.96 130.41 202.63 129.57 200.92 C 132.03 201.09 131.33 198.51 131.63 196.98 C 133.17 198.18 134.94 199.29 137.00 199.03 C 143.96 198.92 150.94 199.23 157.90 198.77 C 157.97 196.65 158.18 194.42 156.80 192.63 C 156.64 191.89 156.47 191.15 156.28 190.43 L 156.49 189.29 L 155.72 189.29 C 153.66 182.53 148.39 177.23 142.71 173.22 C 139.67 178.50 136.74 183.83 133.80 189.17 M 124.10 205.67 C 120.46 211.50 117.18 217.54 113.92 223.59 C 117.18 225.20 120.63 226.35 124.25 226.81 L 124.25 227.20 L 125.31 227.10 C 126.21 228.93 130.72 228.95 131.58 227.02 C 134.66 226.71 137.60 225.64 140.44 224.44 C 140.47 224.43 140.52 224.40 140.55 224.39 L 142.43 223.56 C 138.99 216.68 135.19 209.98 131.38 203.29 C 130.00 203.46 128.61 203.63 127.23 203.79 C 125.67 202.57 124.23 204.18 124.10 205.67 Z" />
</g>
<g id="#d94747ff">
<path fill="#d94747" opacity="1.00" d=" M 122.98 34.74 C 122.88 31.15 122.85 27.54 123.60 24.01 C 123.71 27.91 123.92 31.81 123.90 35.71 C 122.48 35.00 121.01 34.39 119.47 33.99 C 120.35 34.18 122.10 34.55 122.98 34.74 Z" />
</g>
<g id="#c75f5fff">
<path fill="#c75f5f" opacity="1.00" d=" M 106.88 32.56 C 109.17 31.31 111.78 31.66 114.10 32.61 C 111.75 33.31 109.19 33.64 106.88 32.56 Z" />
</g>
<g id="#d14d4cff">
<path fill="#d14d4c" opacity="1.00" d=" M 156.07 34.85 C 154.19 35.09 151.15 32.21 154.46 31.94 C 155.10 32.85 155.64 33.82 156.07 34.85 Z" />
</g>
<g id="#5c615bff">
<path fill="#5c615b" opacity="1.00" d=" M 1.06 62.29 L 1.58 61.43 C 1.87 61.61 2.44 61.98 2.72 62.16 C 4.00 62.99 5.38 63.76 6.96 63.64 C 24.66 63.74 42.38 63.40 60.08 63.73 C 60.16 64.64 60.33 66.45 60.42 67.35 C 41.39 67.50 22.36 67.41 3.33 67.37 C 3.09 86.84 3.52 106.31 3.12 125.77 C 3.08 126.30 2.99 127.35 2.95 127.88 C 2.21 127.91 0.74 127.96 0.00 127.98 L 0.00 61.11 C 0.26 61.40 0.79 62.00 1.06 62.29 Z" />
<path fill="#5c615b" opacity="1.00" d=" M 156.28 190.43 C 156.47 191.15 156.64 191.89 156.80 192.63 C 156.83 193.32 156.89 194.69 156.91 195.38 C 148.89 195.56 140.87 195.63 132.85 195.31 C 132.58 194.78 132.05 193.71 131.78 193.18 C 131.98 192.78 132.37 192.00 132.56 191.60 C 139.39 191.38 146.21 191.71 153.04 191.58 C 154.26 191.67 155.35 191.18 156.28 190.43 Z" />
<path fill="#5c615b" opacity="1.00" d=" M 180.29 191.77 C 183.06 191.60 185.83 191.48 188.61 191.38 C 188.55 192.39 188.44 194.42 188.38 195.43 C 186.28 195.34 184.18 195.26 182.08 195.19 C 181.50 194.04 180.90 192.90 180.29 191.77 Z" />
</g>
<g id="#9e5e5cff">
<path fill="#9e5e5c" opacity="1.00" d=" M 137.71 60.92 C 140.66 60.91 143.60 61.02 146.55 61.19 L 145.30 61.48 C 143.25 61.78 141.19 61.99 139.13 62.25 C 139.10 62.60 139.02 63.32 138.98 63.68 L 138.92 65.23 C 138.55 63.79 138.12 62.35 137.71 60.92 Z" />
</g>
<g id="#252924ff">
<path fill="#252924" opacity="1.00" d=" M 67.37 61.81 C 73.57 61.35 79.80 61.66 86.01 61.61 C 91.65 61.65 97.31 61.30 102.92 62.01 C 103.24 62.37 103.87 63.10 104.19 63.46 C 91.82 64.20 79.38 63.58 66.99 63.75 C 67.09 63.27 67.27 62.29 67.37 61.81 Z" />
<path fill="#252924" opacity="1.00" d=" M 100.84 189.38 C 108.12 189.46 115.40 189.59 122.68 189.27 L 122.84 189.27 C 123.29 190.12 123.73 190.97 124.17 191.83 C 116.11 191.66 108.05 191.85 99.99 191.77 C 100.27 190.97 100.55 190.17 100.84 189.38 Z" />
</g>
<g id="#7e827dff">
<path fill="#7e827d" opacity="1.00" d=" M 104.19 63.46 L 104.86 63.20 C 106.49 64.29 107.69 66.11 109.48 67.20 C 95.38 67.95 81.26 67.05 67.16 67.69 C 67.26 86.90 67.19 106.12 67.19 125.34 C 67.19 125.81 67.18 126.75 67.18 127.22 C 64.67 129.20 62.01 131.48 58.60 131.39 C 40.13 131.75 21.64 131.10 3.17 131.70 C 3.33 149.13 3.14 166.57 3.30 184.01 C 3.27 185.59 3.31 187.21 2.94 188.77 C 2.21 189.62 0.94 189.83 0.00 190.42 L 0.00 127.98 C 0.74 127.96 2.21 127.91 2.95 127.88 C 23.24 127.70 43.54 127.81 63.83 127.83 C 63.74 107.66 63.83 87.49 63.79 67.32 C 63.78 66.12 63.76 64.93 63.75 63.73 C 64.56 63.73 66.18 63.75 66.99 63.75 C 79.38 63.58 91.82 64.20 104.19 63.46 Z" />
<path fill="#7e827d" opacity="1.00" d=" M 63.52 191.52 C 68.85 192.06 74.20 191.96 79.54 192.05 C 79.06 193.10 78.59 194.16 78.12 195.22 C 74.52 195.34 70.92 195.43 67.32 195.49 C 67.16 202.48 67.13 209.48 67.36 216.48 C 66.28 218.51 65.13 220.50 63.93 222.47 C 63.68 213.53 64.01 204.59 63.76 195.65 C 63.69 194.27 63.61 192.90 63.52 191.52 Z" />
<path fill="#7e827d" opacity="1.00" d=" M 99.99 191.77 C 108.05 191.85 116.11 191.66 124.17 191.83 C 125.89 192.94 123.77 195.40 123.08 196.80 C 122.97 196.45 122.74 195.75 122.63 195.40 C 114.89 195.39 107.14 195.66 99.40 195.33 C 99.55 194.44 99.85 192.66 99.99 191.77 Z" />
<path fill="#7e827d" opacity="1.00" d=" M 191.53 191.51 C 192.30 191.56 193.84 191.64 194.61 191.68 C 215.07 192.07 235.54 191.70 256.00 191.87 L 256.00 195.35 C 254.66 195.37 253.33 195.40 252.00 195.42 C 233.04 195.69 214.08 195.16 195.13 195.67 C 195.08 204.30 195.59 212.95 194.77 221.56 C 193.70 219.52 192.65 217.46 191.70 215.36 C 191.78 208.74 191.91 202.12 191.72 195.51 C 191.66 194.17 191.60 192.84 191.53 191.51 Z" />
</g>
<g id="#5b605aff">
<path fill="#5b605a" opacity="1.00" d=" M 138.98 63.68 C 155.51 63.16 172.06 63.48 188.59 63.49 C 188.55 64.46 188.47 66.38 188.42 67.34 C 172.00 67.79 155.55 66.91 139.15 67.79 C 139.09 67.15 138.98 65.87 138.92 65.23 L 138.98 63.68 Z" />
</g>
<g id="#272b26ff">
<path fill="#272b26" opacity="1.00" d=" M 188.91 67.83 C 189.84 67.68 190.78 67.53 191.71 67.31 C 191.93 87.48 191.70 107.66 191.82 127.84 C 179.94 127.80 168.05 127.69 156.17 127.91 L 155.55 127.06 C 155.50 126.74 155.39 126.09 155.33 125.76 C 166.29 124.89 177.30 125.82 188.27 125.26 C 188.56 107.51 188.41 89.76 188.34 72.00 C 188.47 70.63 188.13 69.04 188.91 67.83 Z" />
<path fill="#272b26" opacity="1.00" d=" M 60.84 68.18 C 61.40 67.97 62.50 67.56 63.05 67.35 L 63.79 67.32 C 63.83 87.49 63.74 107.66 63.83 127.83 C 43.54 127.81 23.24 127.70 2.95 127.88 C 2.99 127.35 3.08 126.30 3.12 125.77 C 22.28 125.31 41.45 125.71 60.62 125.60 C 60.84 106.46 60.29 87.31 60.84 68.18 Z" />
<path fill="#272b26" opacity="1.00" d=" M 188.41 195.94 C 189.51 195.79 190.62 195.65 191.72 195.51 C 191.91 202.12 191.78 208.74 191.70 215.36 C 191.22 214.37 190.73 213.39 190.24 212.41 C 189.43 210.50 188.69 208.57 187.81 206.70 C 188.31 203.13 188.46 199.53 188.41 195.94 Z" />
</g>
<g id="#4a4e49ff">
<path fill="#4a4e49" opacity="1.00" d=" M 251.98 67.43 C 253.32 67.40 254.66 67.37 256.00 67.34 L 256.00 131.59 C 254.69 131.65 253.38 131.71 252.07 131.76 C 233.14 132.14 214.20 131.76 195.26 131.97 L 195.30 131.35 C 214.27 130.94 233.26 131.43 252.23 131.11 C 252.26 130.26 252.32 128.57 252.35 127.72 C 233.26 127.23 214.13 128.17 195.05 127.25 C 195.07 126.71 195.10 125.62 195.11 125.08 C 214.11 125.42 233.13 125.41 252.13 125.16 C 252.56 111.46 252.24 97.74 252.34 84.03 C 252.39 78.49 252.41 72.95 251.98 67.43 Z" />
<path fill="#4a4e49" opacity="1.00" d=" M 252.00 195.42 C 253.33 195.40 254.66 195.37 256.00 195.35 L 256.00 256.00 L 194.94 256.00 C 194.98 255.42 195.07 254.27 195.12 253.69 C 202.36 252.85 209.67 253.49 216.95 253.35 C 228.68 253.24 240.41 253.54 252.14 253.16 C 252.61 239.78 252.17 226.39 252.33 213.01 C 252.37 207.14 252.43 201.27 252.00 195.42 Z" />
</g>
<g id="#cb4f4eff">
<path fill="#cb4f4e" opacity="1.00" d=" M 117.57 95.86 C 118.13 95.68 119.24 95.34 119.80 95.17 C 123.56 94.89 127.33 94.86 131.09 94.91 C 133.20 95.12 135.29 95.45 137.38 95.81 C 130.78 95.91 124.18 95.91 117.57 95.86 Z" />
</g>
<g id="#d24544ff">
<path fill="#d24544" opacity="1.00" d=" M 138.89 96.05 C 140.67 95.50 142.54 95.76 144.09 96.80 C 142.34 97.64 140.28 97.48 138.89 96.05 Z" />
</g>
<g id="#d64443ff">
<path fill="#d64443" opacity="1.00" d=" M 155.16 98.95 L 155.80 99.07 C 156.71 100.33 156.03 101.85 155.38 103.04 C 154.72 101.67 154.64 100.31 155.16 98.95 Z" />
</g>
<g id="#3f423eff">
<path fill="#3f423e" opacity="1.00" d=" M 99.55 103.64 C 99.65 104.11 99.84 105.07 99.94 105.55 C 99.85 111.54 99.81 117.53 99.94 123.52 C 99.05 130.95 98.15 138.38 96.68 145.72 C 95.32 153.55 92.21 160.89 89.53 168.32 C 89.50 168.39 89.45 168.54 89.42 168.61 C 88.83 170.19 88.19 171.75 87.54 173.31 C 87.51 173.38 87.45 173.53 87.42 173.60 C 84.84 179.77 82.32 185.97 79.54 192.05 C 74.20 191.96 68.85 192.06 63.52 191.52 C 63.61 192.90 63.69 194.27 63.76 195.65 C 62.65 195.60 61.55 195.55 60.45 195.51 C 60.26 206.45 60.22 217.40 60.48 228.35 C 56.10 236.01 51.66 243.66 46.66 250.94 C 51.43 250.99 56.20 251.02 60.97 251.08 C 59.24 253.96 55.80 253.34 52.96 253.41 C 36.38 253.12 19.78 253.62 3.20 253.15 C 3.44 233.89 3.15 214.63 3.30 195.37 C 22.36 195.42 41.42 195.52 60.48 195.33 C 60.50 194.37 60.55 192.45 60.57 191.48 C 42.71 191.37 24.85 191.41 6.99 191.47 C 5.61 191.58 4.27 191.24 3.48 190.01 C 22.53 189.23 41.63 190.04 60.69 189.58 C 61.30 185.39 60.97 181.17 60.73 176.97 C 60.58 161.94 60.98 146.90 60.55 131.88 C 61.53 131.96 62.52 132.04 63.50 132.12 C 63.43 151.27 63.32 170.43 63.51 189.57 C 64.43 189.53 66.26 189.44 67.18 189.39 C 67.43 170.07 67.18 150.73 67.30 131.40 C 77.66 131.34 88.02 131.60 98.38 131.31 C 98.40 130.36 98.44 128.47 98.46 127.52 C 88.04 127.17 77.60 127.73 67.18 127.22 C 67.18 126.75 67.19 125.81 67.19 125.34 C 77.79 125.60 88.41 125.65 99.01 125.35 C 99.52 118.12 99.09 110.87 99.55 103.64 M 66.66 190.04 C 68.80 191.48 71.49 191.41 74.00 191.54 C 75.94 191.50 78.28 191.83 79.48 189.90 C 75.23 189.62 70.87 189.01 66.66 190.04 Z" />
</g>
<g id="#ed3838ff">
<path fill="#ed3838" opacity="1.00" d=" M 99.94 105.55 C 101.71 111.40 101.44 117.65 99.94 123.52 C 99.81 117.53 99.85 111.54 99.94 105.55 Z" />
</g>
<g id="#e73939ff">
<path fill="#e73939" opacity="1.00" d=" M 154.97 123.52 C 153.49 117.60 153.49 111.36 155.00 105.44 C 155.16 111.47 155.18 117.50 154.97 123.52 Z" />
</g>
<g id="#d15b5bff">
<path fill="#d15b5b" opacity="1.00" d=" M 89.42 168.61 C 89.45 168.54 89.50 168.39 89.53 168.32 C 89.50 168.39 89.45 168.54 89.42 168.61 Z" />
</g>
<g id="#d25d5cff">
<path fill="#d25d5c" opacity="1.00" d=" M 87.42 173.60 C 87.45 173.53 87.51 173.38 87.54 173.31 C 87.51 173.38 87.45 173.53 87.42 173.60 Z" />
</g>
<g id="#262a25ff">
<path fill="#262a25" opacity="1.00" d=" M 66.66 190.04 C 70.87 189.01 75.23 189.62 79.48 189.90 C 78.28 191.83 75.94 191.50 74.00 191.54 C 71.49 191.41 68.80 191.48 66.66 190.04 Z" />
</g>
<g id="#474b46ff">
<path fill="#474b46" opacity="1.00" d=" M 133.80 189.17 C 141.10 189.56 148.41 189.34 155.72 189.29 L 156.49 189.29 L 156.28 190.43 C 155.35 191.18 154.26 191.67 153.04 191.58 C 146.21 191.71 139.39 191.38 132.56 191.60 L 133.07 190.60 C 133.25 190.24 133.62 189.52 133.80 189.17 Z" />
</g>
<g id="#dd3332ff">
<path fill="#dd3332" opacity="1.00" d=" M 179.18 189.72 C 179.54 190.40 179.91 191.08 180.29 191.77 C 180.90 192.90 181.50 194.04 182.08 195.19 C 183.93 199.05 185.84 202.89 187.81 206.70 C 188.69 208.57 189.43 210.50 190.24 212.41 C 186.63 207.86 184.74 202.32 181.96 197.29 C 180.67 194.91 179.88 192.32 179.18 189.72 Z" />
</g>
<g id="#dd4645ff">
<path fill="#dd4645" opacity="1.00" d=" M 131.22 195.21 C 131.30 193.45 131.19 191.47 133.07 190.60 L 132.56 191.60 C 132.37 192.00 131.98 192.78 131.78 193.18 C 132.05 193.71 132.58 194.78 132.85 195.31 C 133.32 196.20 133.81 197.10 134.29 197.99 C 141.85 197.97 149.41 198.02 156.97 197.95 C 156.95 197.31 156.93 196.03 156.91 195.38 C 156.89 194.69 156.83 193.32 156.80 192.63 C 158.18 194.42 157.97 196.65 157.90 198.77 C 150.94 199.23 143.96 198.92 137.00 199.03 C 134.94 199.29 133.17 198.18 131.63 196.98 C 131.20 196.65 130.35 196.01 129.92 195.69 C 128.30 195.86 126.73 196.43 125.09 196.42 C 125.34 196.04 125.83 195.29 126.07 194.92 C 127.79 195.02 129.50 195.12 131.22 195.21 Z" />
</g>
<g id="#585c57ff">
<path fill="#585c57" opacity="1.00" d=" M 99.04 195.32 L 99.40 195.33 C 107.14 195.66 114.89 195.39 122.63 195.40 C 122.74 195.75 122.97 196.45 123.08 196.80 L 123.48 198.13 C 115.53 198.03 107.55 197.74 99.61 198.24 C 99.47 197.51 99.18 196.05 99.04 195.32 Z" />
</g>
<g id="#3a3e39ff">
<path fill="#3a3e39" opacity="1.00" d=" M 132.85 195.31 C 140.87 195.63 148.89 195.56 156.91 195.38 C 156.93 196.03 156.95 197.31 156.97 197.95 C 149.41 198.02 141.85 197.97 134.29 197.99 C 133.81 197.10 133.32 196.20 132.85 195.31 Z" />
<path fill="#3a3e39" opacity="1.00" d=" M 124.94 251.02 C 125.42 251.02 126.36 251.02 126.83 251.02 C 126.74 252.24 126.66 253.46 126.58 254.69 C 120.37 254.51 114.18 255.65 107.97 255.05 C 98.00 254.17 88.00 255.44 78.02 254.82 C 74.51 254.53 70.32 256.51 67.46 253.69 C 79.63 254.11 91.83 254.71 104.00 253.87 C 109.99 253.42 116.00 255.10 121.95 253.89 C 123.79 253.93 124.73 252.74 124.94 251.02 Z" />
</g>
<g id="#e03535ff">
<path fill="#e03535" opacity="1.00" d=" M 71.03 209.67 C 73.01 204.87 75.35 200.23 77.91 195.71 C 76.67 200.82 74.29 205.56 71.03 209.67 Z" />
</g>
<g id="#ea4c4cff">
<path fill="#ea4c4c" opacity="1.00" d=" M 99.61 198.24 C 107.55 197.74 115.53 198.03 123.48 198.13 C 120.83 199.46 117.79 198.95 114.94 199.02 C 109.52 198.86 104.07 199.36 98.67 198.63 L 99.61 198.24 Z" />
</g>
<g id="#ce5757ff">
<path fill="#ce5757" opacity="1.00" d=" M 127.06 201.14 C 127.69 201.08 128.94 200.97 129.57 200.92 C 130.41 202.63 126.59 202.96 127.06 201.14 Z" />
</g>
<g id="#d95a59ff">
<path fill="#d95a59" opacity="1.00" d=" M 140.44 224.44 C 140.47 224.43 140.52 224.40 140.55 224.39 C 140.52 224.40 140.47 224.43 140.44 224.44 Z" />
</g>
<g id="#f63838ff">
<path fill="#f63838" opacity="1.00" d=" M 125.31 227.10 C 125.94 227.05 127.19 226.94 127.82 226.88 C 128.64 226.93 130.29 227.03 131.11 227.08 L 131.58 227.02 C 130.72 228.95 126.21 228.93 125.31 227.10 Z" />
</g>
<g id="#727671ff">
<path fill="#727671" opacity="1.00" d=" M 63.84 251.00 C 64.68 251.00 66.36 250.99 67.19 250.99 C 67.06 252.65 66.93 254.33 66.79 256.00 L 63.76 256.00 C 63.79 254.33 63.82 252.66 63.84 251.00 Z" />
<path fill="#727671" opacity="1.00" d=" M 191.93 251.00 C 192.77 251.00 194.44 251.00 195.27 251.00 C 195.23 251.67 195.16 253.02 195.12 253.69 C 195.07 254.27 194.98 255.42 194.94 256.00 L 191.85 256.00 C 191.88 254.33 191.90 252.66 191.93 251.00 Z" />
</g>
<g id="#5f635eff">
<path fill="#5f635e" opacity="1.00" d=" M 67.19 250.99 C 86.44 251.02 105.69 250.96 124.94 251.02 C 124.73 252.74 123.79 253.93 121.95 253.89 C 116.00 255.10 109.99 253.42 104.00 253.87 C 91.83 254.71 79.63 254.11 67.46 253.69 C 70.32 256.51 74.51 254.53 78.02 254.82 C 88.00 255.44 98.00 254.17 107.97 255.05 C 114.18 255.65 120.37 254.51 126.58 254.69 C 126.66 253.46 126.74 252.24 126.83 251.02 C 128.39 251.01 129.96 251.01 131.52 251.02 C 131.21 252.68 130.90 254.34 130.53 256.00 L 66.79 256.00 C 66.93 254.33 67.06 252.65 67.19 250.99 Z" />
</g>
<g id="#333732ff">
<path fill="#333732" opacity="1.00" d=" M 131.52 251.02 C 151.66 251.04 171.80 251.07 191.93 251.00 C 191.90 252.66 191.88 254.33 191.85 256.00 L 130.53 256.00 C 130.90 254.34 131.21 252.68 131.52 251.02 Z" />
</g>
</svg>
