<?xml version="1.0" encoding="UTF-8" ?>
<!DOCTYPE svg PUBLIC "-//W3C//DTD SVG 1.1//EN" "http://www.w3.org/Graphics/SVG/1.1/DTD/svg11.dtd">
<svg width="256pt" height="256pt" viewBox="0 0 256 256" version="1.1" xmlns="http://www.w3.org/2000/svg">
<g id="#4b944aff">
<path fill="#4b944a" opacity="1.00" d=" M 0.00 0.00 L 256.00 0.00 L 256.00 256.00 L 0.00 256.00 L 0.00 0.00 M 193.66 13.94 C 193.52 25.17 193.56 36.39 193.64 47.61 C 189.49 46.65 185.22 47.04 181.01 47.01 C 147.66 47.04 114.32 46.96 80.97 47.04 C 77.88 47.22 74.58 46.74 71.70 48.13 C 65.52 48.82 59.31 49.96 53.60 52.51 C 37.50 58.56 25.04 72.12 18.05 87.58 C 16.56 89.68 15.47 92.04 14.94 94.57 C 12.79 98.79 11.58 103.43 10.21 107.95 C 9.35 111.67 7.86 115.36 8.09 119.23 C 6.31 119.09 6.25 122.21 7.43 123.06 C 7.22 123.90 6.81 125.60 6.60 126.44 C 17.57 116.17 29.52 106.72 43.09 100.13 C 54.04 95.13 65.79 90.74 78.01 91.24 C 117.67 91.30 157.34 91.19 197.00 91.30 C 197.09 103.27 196.82 115.24 197.14 127.20 C 197.63 126.64 198.12 126.07 198.61 125.51 C 215.80 108.42 232.87 91.22 250.06 74.13 C 251.52 73.16 251.22 71.01 249.90 70.06 C 231.12 51.39 212.51 32.54 193.66 13.94 M 58.40 131.25 L 58.43 131.55 C 54.69 135.21 50.84 138.79 47.34 142.69 C 42.51 146.92 37.93 151.49 33.71 156.33 C 28.78 160.96 23.97 165.77 19.33 170.70 C 14.85 174.59 10.60 178.81 6.73 183.31 C 6.12 183.82 5.53 184.35 4.95 184.90 C 24.48 204.27 43.78 223.88 63.38 243.17 C 63.49 231.92 63.54 220.66 63.35 209.40 C 64.91 209.72 66.48 209.92 68.07 210.00 C 105.02 209.98 141.98 209.99 178.93 209.98 C 181.43 209.92 184.07 210.09 186.35 208.86 C 194.99 207.96 203.40 205.22 211.01 201.06 C 224.10 193.86 233.57 181.48 239.89 168.16 C 245.26 156.30 249.15 143.65 250.40 130.65 C 239.82 140.68 228.23 149.84 215.13 156.36 C 203.61 161.99 191.00 166.36 178.01 165.85 C 138.68 165.82 99.34 165.86 60.01 165.83 C 59.92 153.87 60.16 141.89 59.88 129.93 C 59.51 130.26 58.77 130.92 58.40 131.25 Z" />
</g>
<g id="#fe8a24ff">
<path fill="#fe8a24" opacity="1.00" d=" M 193.66 13.94 C 212.51 32.54 231.12 51.39 249.90 70.06 C 251.22 71.01 251.52 73.16 250.06 74.13 C 232.87 91.22 215.80 108.42 198.61 125.51 C 197.10 114.18 198.58 102.72 197.78 91.35 L 197.00 91.30 C 157.34 91.19 117.67 91.30 78.01 91.24 C 65.79 90.74 54.04 95.13 43.09 100.13 C 29.52 106.72 17.57 116.17 6.60 126.44 C 6.81 125.60 7.22 123.90 7.43 123.06 C 7.96 121.85 8.33 120.55 8.09 119.23 C 7.86 115.36 9.35 111.67 10.21 107.95 C 11.58 103.43 12.79 98.79 14.94 94.57 C 16.30 92.39 17.29 90.02 18.05 87.58 C 25.04 72.12 37.50 58.56 53.60 52.51 C 59.31 49.96 65.52 48.82 71.70 48.13 C 107.12 47.82 142.55 48.08 177.98 47.99 C 183.20 47.91 188.44 48.32 193.64 47.61 C 193.56 36.39 193.52 25.17 193.66 13.94 Z" />
<path fill="#fe8a24" opacity="1.00" d=" M 47.34 142.69 C 50.84 138.79 54.69 135.21 58.43 131.55 C 59.82 142.92 58.67 154.41 59.12 165.83 L 60.01 165.83 C 99.34 165.86 138.68 165.82 178.01 165.85 C 191.00 166.36 203.61 161.99 215.13 156.36 C 228.23 149.84 239.82 140.68 250.40 130.65 C 249.15 143.65 245.26 156.30 239.89 168.16 C 233.57 181.48 224.10 193.86 211.01 201.06 C 203.40 205.22 194.99 207.96 186.35 208.86 C 150.24 209.19 114.12 208.90 78.01 209.01 C 73.12 209.08 68.21 208.67 63.35 209.40 C 63.54 220.66 63.49 231.92 63.38 243.17 C 43.78 223.88 24.48 204.27 4.95 184.90 C 5.53 184.35 6.12 183.82 6.73 183.31 C 11.52 179.76 15.77 175.49 19.33 170.70 C 23.97 165.77 28.78 160.96 33.71 156.33 C 38.86 152.46 43.46 147.83 47.34 142.69 Z" />
</g>
<g id="#6f7334ff">
<path fill="#6f7334" opacity="1.00" d=" M 71.70 48.13 C 74.58 46.74 77.88 47.22 80.97 47.04 C 114.32 46.96 147.66 47.04 181.01 47.01 C 185.22 47.04 189.49 46.65 193.64 47.61 C 188.44 48.32 183.20 47.91 177.98 47.99 C 142.55 48.08 107.12 47.82 71.70 48.13 Z" />
</g>
<g id="#d89f47ff">
<path fill="#d89f47" opacity="1.00" d=" M 14.94 94.57 C 15.47 92.04 16.56 89.68 18.05 87.58 C 17.29 90.02 16.30 92.39 14.94 94.57 Z" />
</g>
<g id="#faa03cff">
<path fill="#faa03c" opacity="1.00" d=" M 197.00 91.30 L 197.78 91.35 C 198.58 102.72 197.10 114.18 198.61 125.51 C 198.12 126.07 197.63 126.64 197.14 127.20 C 196.82 115.24 197.09 103.27 197.00 91.30 Z" />
</g>
<g id="#d0b462ff">
<path fill="#d0b462" opacity="1.00" d=" M 7.43 123.06 C 6.25 122.21 6.31 119.09 8.09 119.23 C 8.33 120.55 7.96 121.85 7.43 123.06 Z" />
</g>
<g id="#f6a03dff">
<path fill="#f6a03d" opacity="1.00" d=" M 58.40 131.25 C 58.77 130.92 59.51 130.26 59.88 129.93 C 60.16 141.89 59.92 153.87 60.01 165.83 L 59.12 165.83 C 58.67 154.41 59.82 142.92 58.43 131.55 L 58.40 131.25 Z" />
</g>
<g id="#de9d43ff">
<path fill="#de9d43" opacity="1.00" d=" M 33.71 156.33 C 37.93 151.49 42.51 146.92 47.34 142.69 C 43.46 147.83 38.86 152.46 33.71 156.33 Z" />
</g>
<g id="#dd9d43ff">
<path fill="#dd9d43" opacity="1.00" d=" M 6.73 183.31 C 10.60 178.81 14.85 174.59 19.33 170.70 C 15.77 175.49 11.52 179.76 6.73 183.31 Z" />
</g>
<g id="#687234ff">
<path fill="#687234" opacity="1.00" d=" M 63.35 209.40 C 68.21 208.67 73.12 209.08 78.01 209.01 C 114.12 208.90 150.24 209.19 186.35 208.86 C 184.07 210.09 181.43 209.92 178.93 209.98 C 141.98 209.99 105.02 209.98 68.07 210.00 C 66.48 209.92 64.91 209.72 63.35 209.40 Z" />
</g>
</svg>
