<?xml version="1.0" encoding="UTF-8" ?>
<!DOCTYPE svg PUBLIC "-//W3C//DTD SVG 1.1//EN" "http://www.w3.org/Graphics/SVG/1.1/DTD/svg11.dtd">
<svg width="256pt" height="256pt" viewBox="0 0 256 256" version="1.1" xmlns="http://www.w3.org/2000/svg">
<g id="#fefefeff">
<path fill="#fefefe" opacity="1.00" d=" M 0.00 0.00 L 256.00 0.00 L 256.00 256.00 L 0.00 256.00 L 0.00 0.00 M 129.89 9.95 C 124.21 16.82 122.25 26.19 122.75 34.93 C 116.55 33.01 109.27 30.57 103.18 34.08 C 97.71 37.97 95.73 45.50 96.84 51.90 C 98.49 58.77 104.22 63.30 109.42 67.53 C 112.65 71.80 116.66 75.99 122.07 77.26 C 126.93 77.45 132.71 78.23 136.57 74.56 C 140.38 71.25 139.10 65.63 138.24 61.30 C 145.26 61.74 152.67 60.69 158.59 56.66 C 161.84 54.54 165.18 51.31 164.77 47.07 C 164.31 40.65 158.50 36.61 153.97 32.84 C 156.62 31.69 159.63 30.87 161.59 28.60 C 165.05 24.88 165.45 19.05 163.79 14.45 C 159.83 8.24 152.31 4.87 145.04 5.11 C 139.77 5.23 133.31 5.19 129.89 9.95 M 99.16 99.83 C 99.84 108.49 99.70 117.19 99.44 125.86 C 98.34 134.71 97.29 143.63 95.05 152.29 C 87.86 174.93 77.63 196.49 66.59 217.47 C 60.54 228.96 53.42 239.83 46.64 250.89 C 101.13 251.07 155.63 251.08 210.11 250.88 C 193.57 220.75 179.65 189.28 164.53 158.44 C 159.67 148.23 156.78 137.17 155.54 125.95 C 155.26 116.94 155.26 107.91 155.81 98.91 C 137.34 94.34 117.28 93.17 99.16 99.83 Z" />
<path fill="#fefefe" opacity="1.00" d=" M 99.45 198.20 C 99.57 188.20 105.56 178.75 113.99 173.57 C 117.75 179.99 121.17 186.60 124.80 193.09 C 123.88 194.76 123.02 196.48 122.23 198.22 C 114.64 198.26 107.04 198.30 99.45 198.20 Z" />
<path fill="#fefefe" opacity="1.00" d=" M 135.81 185.79 C 138.19 181.73 140.27 177.50 142.80 173.53 C 150.82 179.11 157.37 188.04 156.88 198.21 C 149.91 198.25 142.94 198.33 135.97 198.21 C 133.66 198.30 132.85 195.60 132.15 193.87 C 132.60 190.90 134.47 188.41 135.81 185.79 Z" />
<path fill="#fefefe" opacity="1.00" d=" M 125.38 200.29 C 125.40 198.21 125.11 194.99 128.10 195.18 C 131.94 195.19 132.50 200.31 129.10 201.76 C 127.85 201.30 126.61 200.81 125.38 200.29 Z" />
<path fill="#fefefe" opacity="1.00" d=" M 114.07 223.38 C 118.03 216.83 121.34 209.87 125.82 203.65 C 127.60 203.73 129.38 203.71 131.16 203.64 C 135.18 210.04 138.69 216.75 142.45 223.30 C 133.89 228.52 122.71 228.26 114.07 223.38 Z" />
</g>
<g id="#ff1414ff">
<path fill="#ff1414" opacity="1.00" d=" M 129.89 9.95 C 133.31 5.19 139.77 5.23 145.04 5.11 C 152.31 4.87 159.83 8.24 163.79 14.45 C 165.45 19.05 165.05 24.88 161.59 28.60 C 159.63 30.87 156.62 31.69 153.97 32.84 C 158.50 36.61 164.31 40.65 164.77 47.07 C 165.18 51.31 161.84 54.54 158.59 56.66 C 152.67 60.69 145.26 61.74 138.24 61.30 C 139.10 65.63 140.38 71.25 136.57 74.56 C 132.71 78.23 126.93 77.45 122.07 77.26 C 116.66 75.99 112.65 71.80 109.42 67.53 C 104.22 63.30 98.49 58.77 96.84 51.90 C 95.73 45.50 97.71 37.97 103.18 34.08 C 109.27 30.57 116.55 33.01 122.75 34.93 C 122.25 26.19 124.21 16.82 129.89 9.95 Z" />
<path fill="#ff1414" opacity="1.00" d=" M 99.16 99.83 C 117.28 93.17 137.34 94.34 155.81 98.91 C 155.26 107.91 155.26 116.94 155.54 125.95 C 156.78 137.17 159.67 148.23 164.53 158.44 C 179.65 189.28 193.57 220.75 210.11 250.88 C 155.63 251.08 101.13 251.07 46.64 250.89 C 53.42 239.83 60.54 228.96 66.59 217.47 C 77.63 196.49 87.86 174.93 95.05 152.29 C 97.29 143.63 98.34 134.71 99.44 125.86 C 99.70 117.19 99.84 108.49 99.16 99.83 M 99.45 198.20 C 107.04 198.30 114.64 198.26 122.23 198.22 C 123.02 196.48 123.88 194.76 124.80 193.09 C 121.17 186.60 117.75 179.99 113.99 173.57 C 105.56 178.75 99.57 188.20 99.45 198.20 M 135.81 185.79 C 134.47 188.41 132.60 190.90 132.15 193.87 C 132.85 195.60 133.66 198.30 135.97 198.21 C 142.94 198.33 149.91 198.25 156.88 198.21 C 157.37 188.04 150.82 179.11 142.80 173.53 C 140.27 177.50 138.19 181.73 135.81 185.79 M 125.38 200.29 C 126.61 200.81 127.85 201.30 129.10 201.76 C 132.50 200.31 131.94 195.19 128.10 195.18 C 125.11 194.99 125.40 198.21 125.38 200.29 M 114.07 223.38 C 122.71 228.26 133.89 228.52 142.45 223.30 C 138.69 216.75 135.18 210.04 131.16 203.64 C 129.38 203.71 127.60 203.73 125.82 203.65 C 121.34 209.87 118.03 216.83 114.07 223.38 Z" />
</g>
</svg>
