<?xml version="1.0" encoding="UTF-8" ?>
<!DOCTYPE svg PUBLIC "-//W3C//DTD SVG 1.1//EN" "http://www.w3.org/Graphics/SVG/1.1/DTD/svg11.dtd">
<svg width="256pt" height="256pt" viewBox="0 0 256 256" version="1.1" xmlns="http://www.w3.org/2000/svg">
<g id="#7f837eff">
<path fill="#7f837e" opacity="1.00" d=" M 0.00 0.00 L 64.89 0.00 C 64.42 0.82 63.96 1.64 63.53 2.48 C 57.18 4.31 50.51 3.27 44.01 3.52 C 30.42 3.75 16.76 3.09 3.20 3.85 C 3.17 22.99 3.22 42.13 3.18 61.27 L 3.05 62.09 C 2.09 61.66 1.04 61.59 0.00 61.65 L 0.00 0.00 Z" />
<path fill="#7f837e" opacity="1.00" d=" M 191.53 63.57 C 192.32 63.60 193.88 63.65 194.67 63.68 C 215.10 64.10 235.60 63.66 256.00 63.94 L 256.00 67.46 C 254.64 67.35 253.28 67.35 251.92 67.45 C 232.98 67.82 214.00 67.11 195.08 67.80 C 195.04 69.21 195.17 70.63 195.50 72.01 C 195.10 73.29 194.91 74.60 194.92 75.94 C 194.92 87.62 195.08 99.29 194.89 110.96 C 194.12 111.00 192.58 111.08 191.82 111.12 C 191.80 96.64 191.94 82.15 191.78 67.68 C 191.70 66.31 191.61 64.94 191.53 63.57 Z" />
</g>
<g id="#5d615cff">
<path fill="#5d615c" opacity="1.00" d=" M 64.89 0.00 L 124.61 0.00 C 124.53 0.80 124.35 2.40 124.26 3.19 C 105.30 3.64 86.31 3.32 67.34 3.35 C 67.07 22.66 67.49 41.98 67.13 61.29 C 66.26 61.36 64.50 61.50 63.63 61.57 C 63.45 42.43 63.48 23.27 63.58 4.13 C 62.53 3.89 61.47 3.88 60.42 4.10 C 60.40 23.16 60.65 42.24 60.26 61.29 C 41.24 61.53 22.20 61.61 3.18 61.27 C 3.22 42.13 3.17 22.99 3.20 3.85 C 16.76 3.09 30.42 3.75 44.01 3.52 C 50.51 3.27 57.18 4.31 63.53 2.48 C 63.96 1.64 64.42 0.82 64.89 0.00 Z" />
<path fill="#5d615c" opacity="1.00" d=" M 131.12 63.23 C 150.23 63.98 169.38 63.20 188.50 63.60 C 188.46 64.51 188.39 66.32 188.35 67.22 C 169.34 67.59 150.32 67.32 131.31 67.36 C 131.17 81.95 131.39 96.55 131.17 111.14 C 130.31 111.14 128.60 111.14 127.74 111.14 C 127.47 96.79 127.71 82.43 127.62 68.08 C 126.98 67.97 125.69 67.76 125.05 67.66 C 123.65 68.57 124.57 70.61 124.27 72.00 C 124.30 85.04 124.49 98.09 124.14 111.13 C 105.14 110.99 86.13 111.12 67.12 111.07 C 67.28 96.69 67.19 82.30 67.18 67.91 C 68.44 67.65 69.71 67.51 71.00 67.51 C 85.01 67.58 99.02 67.51 113.03 67.53 C 117.05 67.50 121.13 67.81 125.11 67.04 C 127.72 66.88 128.91 64.24 131.12 63.23 Z" />
<path fill="#5d615c" opacity="1.00" d=" M 195.08 67.80 C 214.00 67.11 232.98 67.82 251.92 67.45 C 252.79 77.95 252.08 88.50 252.35 99.02 C 252.12 107.66 252.57 116.32 252.13 124.95 C 251.31 125.06 249.66 125.29 248.84 125.41 C 231.38 108.06 213.98 90.64 196.61 73.18 C 196.34 72.89 195.78 72.30 195.50 72.01 C 195.17 70.63 195.04 69.21 195.08 67.80 Z" />
<path fill="#5d615c" opacity="1.00" d=" M 131.13 145.88 C 150.18 145.98 169.24 145.65 188.29 146.05 C 188.64 160.07 188.34 174.09 188.43 188.10 C 188.83 190.21 186.29 189.62 185.08 189.75 C 167.10 189.85 149.12 189.50 131.14 189.90 C 131.22 175.23 131.25 160.56 131.13 145.88 Z" />
<path fill="#5d615c" opacity="1.00" d=" M 191.69 146.10 C 192.49 146.05 194.11 145.93 194.91 145.87 C 195.15 159.05 194.75 172.23 195.11 185.40 C 195.15 186.69 195.16 187.98 195.15 189.27 C 194.27 189.31 192.52 189.41 191.64 189.45 C 191.43 175.01 191.41 160.55 191.69 146.10 Z" />
<path fill="#5d615c" opacity="1.00" d=" M 131.08 191.19 C 150.17 192.08 169.33 191.08 188.44 191.67 C 188.42 192.56 188.37 194.35 188.35 195.25 C 169.34 195.56 150.32 195.31 131.31 195.39 C 131.20 214.67 131.23 233.96 131.32 253.24 C 130.43 253.24 128.66 253.24 127.78 253.24 C 127.41 234.19 127.73 215.13 127.65 196.09 C 126.50 195.61 125.37 195.63 124.27 196.15 C 124.22 215.12 124.66 234.12 124.06 253.07 C 110.72 253.75 97.30 253.12 83.93 253.33 C 78.35 253.35 72.77 253.47 67.20 253.18 C 67.26 234.08 67.16 214.98 67.20 195.89 C 68.44 195.64 69.70 195.52 70.97 195.51 C 86.62 195.56 102.27 195.52 117.92 195.56 C 120.30 195.50 122.71 195.57 125.05 195.05 C 127.65 194.82 128.91 192.27 131.08 191.19 Z" />
<path fill="#5d615c" opacity="1.00" d=" M 195.19 195.86 C 195.90 195.77 197.33 195.59 198.04 195.50 C 216.01 195.54 233.99 195.59 251.96 195.49 C 252.66 202.63 252.13 209.82 252.32 216.98 C 252.18 228.99 252.67 241.03 252.04 253.03 C 245.37 253.61 238.67 253.13 232.00 253.35 C 219.71 253.11 207.41 253.63 195.13 253.11 C 195.29 234.03 195.20 214.94 195.19 195.86 Z" />
</g>
<g id="#3f433eff">
<path fill="#3f433e" opacity="1.00" d=" M 124.61 0.00 L 127.80 0.00 C 127.75 1.25 127.73 2.49 127.75 3.74 C 126.90 3.59 126.05 3.44 125.21 3.28 C 124.21 6.42 124.74 9.74 124.68 12.97 C 124.68 29.17 124.71 45.37 124.67 61.57 C 105.81 61.70 86.94 61.50 68.08 61.68 C 67.73 62.18 67.04 63.17 66.69 63.67 C 65.90 63.64 64.33 63.58 63.54 63.55 C 63.63 64.94 63.72 66.33 63.79 67.72 C 62.59 67.57 61.14 66.90 60.33 68.22 C 59.94 69.62 60.47 71.01 60.94 72.32 C 60.78 72.50 60.44 72.85 60.28 73.03 C 42.20 91.56 23.64 109.64 5.47 128.09 L 4.92 128.04 C 3.27 127.90 1.63 127.68 0.00 127.42 L 0.00 126.12 C 0.70 125.98 2.09 125.69 2.79 125.54 C 3.36 124.09 3.30 122.52 3.33 121.00 C 3.22 103.13 3.32 85.25 3.31 67.38 C 22.33 67.28 41.36 67.60 60.38 67.25 C 60.41 66.35 60.46 64.55 60.49 63.65 C 41.81 63.32 23.12 63.66 4.44 63.50 C 4.10 63.14 3.40 62.44 3.05 62.09 L 3.18 61.27 C 22.20 61.61 41.24 61.53 60.26 61.29 C 60.65 42.24 60.40 23.16 60.42 4.10 C 61.47 3.88 62.53 3.89 63.58 4.13 C 63.48 23.27 63.45 42.43 63.63 61.57 C 64.50 61.50 66.26 61.36 67.13 61.29 C 67.49 41.98 67.07 22.66 67.34 3.35 C 86.31 3.32 105.30 3.64 124.26 3.19 C 124.35 2.40 124.53 0.80 124.61 0.00 Z" />
<path fill="#3f433e" opacity="1.00" d=" M 188.44 4.02 C 189.48 4.12 190.51 4.22 191.56 4.31 C 191.60 23.38 191.27 42.46 191.67 61.52 C 192.54 61.47 194.27 61.36 195.14 61.31 C 195.41 42.18 195.17 23.04 195.31 3.91 C 198.83 3.31 202.42 3.66 205.97 3.60 C 221.30 3.54 236.63 3.74 251.95 3.49 C 252.24 6.65 252.42 9.81 252.35 12.98 C 252.17 29.00 252.62 45.03 252.09 61.04 C 233.50 61.76 214.83 61.00 196.22 61.38 C 195.70 62.15 195.19 62.91 194.67 63.68 C 193.88 63.65 192.32 63.60 191.53 63.57 C 191.61 64.94 191.70 66.31 191.78 67.68 C 190.73 67.54 189.68 67.48 188.63 67.55 C 187.80 82.04 188.73 96.64 188.14 111.17 C 169.15 111.05 150.16 111.11 131.17 111.14 C 131.39 96.55 131.17 81.95 131.31 67.36 C 150.32 67.32 169.34 67.59 188.35 67.22 C 188.39 66.32 188.46 64.51 188.50 63.60 C 169.38 63.20 150.23 63.98 131.12 63.23 C 131.16 62.72 131.23 61.71 131.27 61.20 C 136.12 62.14 141.08 61.65 145.99 61.76 C 160.24 61.76 174.50 61.76 188.75 61.70 C 188.86 45.79 188.77 29.88 188.85 13.97 C 189.18 10.64 188.81 7.33 188.44 4.02 Z" />
<path fill="#3f433e" opacity="1.00" d=" M 196.61 183.94 C 213.95 166.50 231.36 149.12 248.77 131.75 C 249.60 131.76 251.24 131.78 252.06 131.79 C 252.65 145.18 252.15 158.59 252.31 171.99 C 252.12 177.68 252.72 183.39 252.03 189.05 C 235.70 189.64 219.31 189.16 202.95 189.29 C 200.12 189.62 195.76 187.94 194.73 191.69 C 193.93 191.65 192.32 191.57 191.51 191.54 C 191.61 192.90 191.71 194.27 191.80 195.64 C 190.69 195.72 189.07 195.00 188.38 196.24 C 187.97 215.16 188.80 234.13 188.01 253.03 C 185.03 253.58 182.01 253.30 179.01 253.31 C 163.11 253.34 147.21 253.34 131.32 253.24 C 131.23 233.96 131.20 214.67 131.31 195.39 C 150.32 195.31 169.34 195.56 188.35 195.25 C 188.37 194.35 188.42 192.56 188.44 191.67 C 169.33 191.08 150.17 192.08 131.08 191.19 L 131.14 189.90 C 149.12 189.50 167.10 189.85 185.08 189.75 C 186.29 189.62 188.83 190.21 188.43 188.10 C 188.34 174.09 188.64 160.07 188.29 146.05 C 189.42 146.11 190.55 146.12 191.69 146.10 C 191.41 160.55 191.43 175.01 191.64 189.45 C 192.52 189.41 194.27 189.31 195.15 189.27 C 195.16 187.98 195.15 186.69 195.11 185.40 C 195.61 184.92 196.11 184.43 196.61 183.94 Z" />
<path fill="#3f433e" opacity="1.00" d=" M 62.05 146.13 C 62.47 146.11 63.31 146.06 63.73 146.04 C 63.36 160.50 63.47 174.98 63.64 189.44 C 64.51 189.39 66.25 189.29 67.12 189.25 C 67.45 174.78 67.34 160.29 67.17 145.81 C 86.67 145.85 106.19 145.94 125.69 145.76 C 125.25 160.37 125.79 175.00 125.40 189.60 C 106.28 189.73 87.16 189.47 68.05 189.69 C 67.72 190.18 67.05 191.17 66.71 191.66 C 65.92 191.64 64.33 191.59 63.53 191.57 C 63.63 192.94 63.71 194.32 63.78 195.70 C 62.58 195.64 60.99 194.82 60.30 196.29 C 60.18 211.49 60.43 226.72 60.28 241.93 C 60.18 245.64 60.66 249.38 59.99 253.06 C 58.33 253.24 56.67 253.40 55.00 253.38 C 37.74 253.10 20.49 253.58 3.24 253.19 C 3.44 233.93 3.14 214.65 3.38 195.39 C 22.35 195.29 41.33 195.57 60.30 195.24 C 60.34 194.34 60.40 192.54 60.43 191.64 C 41.73 191.33 23.01 191.61 4.31 191.52 C 4.21 191.13 4.02 190.36 3.92 189.98 C 22.54 189.46 41.20 189.93 59.83 189.72 C 60.34 188.19 60.63 186.61 60.82 185.02 L 61.95 184.63 C 62.24 171.80 61.99 158.96 62.05 146.13 Z" />
</g>
<g id="#7e827dff">
<path fill="#7e827d" opacity="1.00" d=" M 127.80 0.00 L 188.92 0.00 C 188.69 1.11 188.45 2.23 188.15 3.32 C 169.20 3.46 150.25 3.36 131.30 3.39 C 131.12 22.66 131.21 41.93 131.27 61.20 C 131.23 61.71 131.16 62.72 131.12 63.23 C 128.91 64.24 127.72 66.88 125.11 67.04 C 121.13 67.81 117.05 67.50 113.03 67.53 C 99.02 67.51 85.01 67.58 71.00 67.51 C 69.71 67.51 68.44 67.65 67.18 67.91 C 67.19 82.30 67.28 96.69 67.12 111.07 C 66.30 111.09 64.65 111.13 63.83 111.15 C 63.86 96.67 63.91 82.19 63.79 67.72 C 63.72 66.33 63.63 64.94 63.54 63.55 C 64.33 63.58 65.90 63.64 66.69 63.67 C 87.06 64.03 107.45 63.67 127.83 63.84 C 127.72 43.81 127.95 23.77 127.75 3.74 C 127.73 2.49 127.75 1.25 127.80 0.00 Z" />
<path fill="#7e827d" opacity="1.00" d=" M 127.76 145.78 C 128.60 145.81 130.29 145.86 131.13 145.88 C 131.25 160.56 131.22 175.23 131.14 189.90 L 131.08 191.19 C 128.91 192.27 127.65 194.82 125.05 195.05 C 122.71 195.57 120.30 195.50 117.92 195.56 C 102.27 195.52 86.62 195.56 70.97 195.51 C 69.70 195.52 68.44 195.64 67.20 195.89 C 67.16 214.98 67.26 234.08 67.20 253.18 C 67.12 253.88 66.97 255.29 66.89 256.00 L 64.17 256.00 C 63.65 253.01 63.88 249.98 63.85 246.97 C 63.79 229.88 63.98 212.79 63.78 195.70 C 63.71 194.32 63.63 192.94 63.53 191.57 C 64.33 191.59 65.92 191.64 66.71 191.66 C 87.08 192.05 107.47 191.66 127.84 191.85 C 127.74 176.50 127.90 161.14 127.76 145.78 Z" />
<path fill="#7e827d" opacity="1.00" d=" M 191.51 191.54 C 192.32 191.57 193.93 191.65 194.73 191.69 C 215.15 192.17 235.59 191.49 256.00 192.06 L 256.00 195.33 C 254.65 195.38 253.31 195.45 251.96 195.49 C 233.99 195.59 216.01 195.54 198.04 195.50 C 197.33 195.59 195.90 195.77 195.19 195.86 C 195.20 214.94 195.29 234.03 195.13 253.11 C 195.02 253.83 194.81 255.28 194.70 256.00 L 191.73 256.00 C 192.00 235.88 191.81 215.76 191.80 195.64 C 191.71 194.27 191.61 192.90 191.51 191.54 Z" />
</g>
<g id="#5c605bff">
<path fill="#5c605b" opacity="1.00" d=" M 188.92 0.00 L 256.00 0.00 L 256.00 3.51 C 254.65 3.40 253.30 3.39 251.95 3.49 C 236.63 3.74 221.30 3.54 205.97 3.60 C 202.42 3.66 198.83 3.31 195.31 3.91 C 195.17 23.04 195.41 42.18 195.14 61.31 C 194.27 61.36 192.54 61.47 191.67 61.52 C 191.27 42.46 191.60 23.38 191.56 4.31 C 190.51 4.22 189.48 4.12 188.44 4.02 C 188.81 7.33 189.18 10.64 188.85 13.97 C 188.77 29.88 188.86 45.79 188.75 61.70 C 174.50 61.76 160.24 61.76 145.99 61.76 C 141.08 61.65 136.12 62.14 131.27 61.20 C 131.21 41.93 131.12 22.66 131.30 3.39 C 150.25 3.36 169.20 3.46 188.15 3.32 C 188.45 2.23 188.69 1.11 188.92 0.00 Z" />
<path fill="#5c605b" opacity="1.00" d=" M 6.51 129.95 C 24.62 148.09 42.79 166.19 60.88 184.35 L 60.82 185.02 C 60.63 186.61 60.34 188.19 59.83 189.72 C 41.20 189.93 22.54 189.46 3.92 189.98 C 4.02 190.36 4.21 191.13 4.31 191.52 C 23.01 191.61 41.73 191.33 60.43 191.64 C 60.40 192.54 60.34 194.34 60.30 195.24 C 41.33 195.57 22.35 195.29 3.38 195.39 C 3.14 214.65 3.44 233.93 3.24 253.19 C 3.14 253.90 2.95 255.30 2.85 256.00 L 0.00 256.00 L 0.00 190.04 C 1.08 189.77 2.16 189.48 3.21 189.11 C 3.41 170.17 3.17 151.23 3.34 132.30 C 4.34 131.44 5.37 130.61 6.51 129.95 Z" />
<path fill="#5c605b" opacity="1.00" d=" M 63.73 146.04 C 64.59 145.98 66.31 145.87 67.17 145.81 C 67.34 160.29 67.45 174.78 67.12 189.25 C 66.25 189.29 64.51 189.39 63.64 189.44 C 63.47 174.98 63.36 160.50 63.73 146.04 Z" />
</g>
<g id="#272b26ff">
<path fill="#272b26" opacity="1.00" d=" M 125.21 3.28 C 126.05 3.44 126.90 3.59 127.75 3.74 C 127.95 23.77 127.72 43.81 127.83 63.84 C 107.45 63.67 87.06 64.03 66.69 63.67 C 67.04 63.17 67.73 62.18 68.08 61.68 C 86.94 61.50 105.81 61.70 124.67 61.57 C 124.71 45.37 124.68 29.17 124.68 12.97 C 124.74 9.74 124.21 6.42 125.21 3.28 Z" />
<path fill="#272b26" opacity="1.00" d=" M 125.69 145.76 C 126.21 145.77 127.24 145.78 127.76 145.78 C 127.90 161.14 127.74 176.50 127.84 191.85 C 107.47 191.66 87.08 192.05 66.71 191.66 C 67.05 191.17 67.72 190.18 68.05 189.69 C 87.16 189.47 106.28 189.73 125.40 189.60 C 125.79 175.00 125.25 160.37 125.69 145.76 Z" />
</g>
<g id="#2c302bff">
<path fill="#2c302b" opacity="1.00" d=" M 251.95 3.49 C 253.30 3.39 254.65 3.40 256.00 3.51 L 256.00 63.94 C 235.60 63.66 215.10 64.10 194.67 63.68 C 195.19 62.91 195.70 62.15 196.22 61.38 C 214.83 61.00 233.50 61.76 252.09 61.04 C 252.62 45.03 252.17 29.00 252.35 12.98 C 252.42 9.81 252.24 6.65 251.95 3.49 Z" />
<path fill="#2c302b" opacity="1.00" d=" M 60.33 68.22 C 61.14 66.90 62.59 67.57 63.79 67.72 C 63.91 82.19 63.86 96.67 63.83 111.15 C 63.38 111.16 62.47 111.19 62.01 111.20 C 61.95 98.28 62.06 85.36 61.96 72.45 L 60.94 72.32 C 60.47 71.01 59.94 69.62 60.33 68.22 Z" />
<path fill="#2c302b" opacity="1.00" d=" M 188.63 67.55 C 189.68 67.48 190.73 67.54 191.78 67.68 C 191.94 82.15 191.80 96.64 191.82 111.12 C 190.59 111.16 189.36 111.17 188.14 111.17 C 188.73 96.64 187.80 82.04 188.63 67.55 Z" />
<path fill="#2c302b" opacity="1.00" d=" M 252.06 131.79 C 253.36 131.60 254.68 131.52 256.00 131.67 L 256.00 192.06 C 235.59 191.49 215.15 192.17 194.73 191.69 C 195.76 187.94 200.12 189.62 202.95 189.29 C 219.31 189.16 235.70 189.64 252.03 189.05 C 252.72 183.39 252.12 177.68 252.31 171.99 C 252.15 158.59 252.65 145.18 252.06 131.79 Z" />
<path fill="#2c302b" opacity="1.00" d=" M 60.30 196.29 C 60.99 194.82 62.58 195.64 63.78 195.70 C 63.98 212.79 63.79 229.88 63.85 246.97 C 63.88 249.98 63.65 253.01 64.17 256.00 L 2.85 256.00 C 2.95 255.30 3.14 253.90 3.24 253.19 C 20.49 253.58 37.74 253.10 55.00 253.38 C 56.67 253.40 58.33 253.24 59.99 253.06 C 60.66 249.38 60.18 245.64 60.28 241.93 C 60.43 226.72 60.18 211.49 60.30 196.29 Z" />
<path fill="#2c302b" opacity="1.00" d=" M 188.38 196.24 C 189.07 195.00 190.69 195.72 191.80 195.64 C 191.81 215.76 192.00 235.88 191.73 256.00 L 131.08 256.00 C 131.14 255.31 131.26 253.93 131.32 253.24 C 147.21 253.34 163.11 253.34 179.01 253.31 C 182.01 253.30 185.03 253.58 188.01 253.03 C 188.80 234.13 187.97 215.16 188.38 196.24 Z" />
</g>
<g id="#5c615bff">
<path fill="#5c615b" opacity="1.00" d=" M 0.00 61.65 C 1.04 61.59 2.09 61.66 3.05 62.09 C 3.40 62.44 4.10 63.14 4.44 63.50 C 23.12 63.66 41.81 63.32 60.49 63.65 C 60.46 64.55 60.41 66.35 60.38 67.25 C 41.36 67.60 22.33 67.28 3.31 67.38 C 3.32 85.25 3.22 103.13 3.33 121.00 C 3.30 122.52 3.36 124.09 2.79 125.54 C 2.09 125.69 0.70 125.98 0.00 126.12 L 0.00 61.65 Z" />
</g>
<g id="#4a4e49ff">
<path fill="#4a4e49" opacity="1.00" d=" M 251.92 67.45 C 253.28 67.35 254.64 67.35 256.00 67.46 L 256.00 131.67 C 254.68 131.52 253.36 131.60 252.06 131.79 C 251.24 131.78 249.60 131.76 248.77 131.75 C 249.64 130.88 250.62 130.11 251.31 129.08 C 251.51 127.36 249.82 126.49 248.84 125.41 C 249.66 125.29 251.31 125.06 252.13 124.95 C 252.57 116.32 252.12 107.66 252.35 99.02 C 252.08 88.50 252.79 77.95 251.92 67.45 Z" />
<path fill="#4a4e49" opacity="1.00" d=" M 251.96 195.49 C 253.31 195.45 254.65 195.38 256.00 195.33 L 256.00 256.00 L 194.70 256.00 C 194.81 255.28 195.02 253.83 195.13 253.11 C 207.41 253.63 219.71 253.11 232.00 253.35 C 238.67 253.13 245.37 253.61 252.04 253.03 C 252.67 241.03 252.18 228.99 252.32 216.98 C 252.13 209.82 252.66 202.63 251.96 195.49 Z" />
</g>
<g id="#494d48ff">
<path fill="#494d48" opacity="1.00" d=" M 124.27 72.00 C 124.57 70.61 123.65 68.57 125.05 67.66 C 125.69 67.76 126.98 67.97 127.62 68.08 C 127.71 82.43 127.47 96.79 127.74 111.14 C 126.54 111.14 125.34 111.13 124.14 111.13 C 124.49 98.09 124.30 85.04 124.27 72.00 Z" />
<path fill="#494d48" opacity="1.00" d=" M 124.27 196.15 C 125.37 195.63 126.50 195.61 127.65 196.09 C 127.73 215.13 127.41 234.19 127.78 253.24 C 128.66 253.24 130.43 253.24 131.32 253.24 C 131.26 253.93 131.14 255.31 131.08 256.00 L 66.89 256.00 C 66.97 255.29 67.12 253.88 67.20 253.18 C 72.77 253.47 78.35 253.35 83.93 253.33 C 97.30 253.12 110.72 253.75 124.06 253.07 C 124.66 234.12 124.22 215.12 124.27 196.15 Z" />
</g>
<g id="#a873acff">
<path fill="#a873ac" opacity="1.00" d=" M 60.94 72.32 L 61.96 72.45 C 62.06 85.36 61.95 98.28 62.01 111.20 C 62.47 111.19 63.38 111.16 63.83 111.15 C 64.65 111.13 66.30 111.09 67.12 111.07 C 86.13 111.12 105.14 110.99 124.14 111.13 C 125.34 111.13 126.54 111.14 127.74 111.14 C 128.60 111.14 130.31 111.14 131.17 111.14 C 150.16 111.11 169.15 111.05 188.14 111.17 C 189.36 111.17 190.59 111.16 191.82 111.12 C 192.58 111.08 194.12 111.00 194.89 110.96 C 195.08 99.29 194.92 87.62 194.92 75.94 C 194.91 74.60 195.10 73.29 195.50 72.01 C 195.78 72.30 196.34 72.89 196.61 73.18 C 195.44 74.49 195.97 76.40 195.81 77.98 C 195.77 89.27 196.02 100.57 195.69 111.85 C 194.47 111.98 193.25 112.06 192.03 112.10 C 149.69 112.05 107.34 112.07 64.99 112.09 C 63.74 112.06 62.50 111.97 61.26 111.82 C 60.88 100.23 61.20 88.61 61.11 77.01 C 61.16 75.62 60.88 74.29 60.28 73.03 C 60.44 72.85 60.78 72.50 60.94 72.32 Z" />
</g>
<g id="#9e3dffff">
<path fill="#9e3dff" opacity="1.00" d=" M 5.47 128.09 C 23.64 109.64 42.20 91.56 60.28 73.03 C 60.88 74.29 61.16 75.62 61.11 77.01 C 61.20 88.61 60.88 100.23 61.26 111.82 C 62.50 111.97 63.74 112.06 64.99 112.09 C 107.34 112.07 149.69 112.05 192.03 112.10 C 193.25 112.06 194.47 111.98 195.69 111.85 C 196.02 100.57 195.77 89.27 195.81 77.98 C 195.97 76.40 195.44 74.49 196.61 73.18 C 213.98 90.64 231.38 108.06 248.84 125.41 C 249.82 126.49 251.51 127.36 251.31 129.08 C 250.62 130.11 249.64 130.88 248.77 131.75 C 231.36 149.12 213.95 166.50 196.61 183.94 C 195.38 182.22 195.88 180.00 195.77 178.04 C 195.73 167.09 195.97 156.13 195.67 145.19 C 192.81 144.68 189.91 144.91 187.03 144.89 C 148.69 144.89 110.35 144.89 72.02 144.88 C 68.45 144.93 64.85 144.64 61.30 145.17 C 60.76 158.22 61.58 171.31 60.88 184.35 C 42.79 166.19 24.62 148.09 6.51 129.95 L 5.58 128.77 L 5.47 128.09 Z" />
</g>
<g id="#7c807bff">
<path fill="#7c807b" opacity="1.00" d=" M 0.00 127.42 C 1.63 127.68 3.27 127.90 4.92 128.04 C 5.08 128.22 5.41 128.59 5.58 128.77 L 6.51 129.95 C 5.37 130.61 4.34 131.44 3.34 132.30 C 3.17 151.23 3.41 170.17 3.21 189.11 C 2.16 189.48 1.08 189.77 0.00 190.04 L 0.00 127.42 Z" />
</g>
<g id="#cb81d9ff">
<path fill="#cb81d9" opacity="1.00" d=" M 4.92 128.04 L 5.47 128.09 L 5.58 128.77 C 5.41 128.59 5.08 128.22 4.92 128.04 Z" />
</g>
<g id="#a370a6ff">
<path fill="#a370a6" opacity="1.00" d=" M 61.30 145.17 C 64.85 144.64 68.45 144.93 72.02 144.88 C 110.35 144.89 148.69 144.89 187.03 144.89 C 189.91 144.91 192.81 144.68 195.67 145.19 C 195.97 156.13 195.73 167.09 195.77 178.04 C 195.88 180.00 195.38 182.22 196.61 183.94 C 196.11 184.43 195.61 184.92 195.11 185.40 C 194.75 172.23 195.15 159.05 194.91 145.87 C 194.11 145.93 192.49 146.05 191.69 146.10 C 190.55 146.12 189.42 146.11 188.29 146.05 C 169.24 145.65 150.18 145.98 131.13 145.88 C 130.29 145.86 128.60 145.81 127.76 145.78 C 127.24 145.78 126.21 145.77 125.69 145.76 C 106.19 145.94 86.67 145.85 67.17 145.81 C 66.31 145.87 64.59 145.98 63.73 146.04 C 63.31 146.06 62.47 146.11 62.05 146.13 C 61.99 158.96 62.24 171.80 61.95 184.63 L 60.82 185.02 L 60.88 184.35 C 61.58 171.31 60.76 158.22 61.30 145.17 Z" />
</g>
</svg>
