<?xml version="1.0" encoding="UTF-8" ?>
<!DOCTYPE svg PUBLIC "-//W3C//DTD SVG 1.1//EN" "http://www.w3.org/Graphics/SVG/1.1/DTD/svg11.dtd">
<svg width="256pt" height="256pt" viewBox="0 0 256 256" version="1.1" xmlns="http://www.w3.org/2000/svg">
<g id="#fe1414ff">
<path fill="#fe1414" opacity="1.00" d=" M 107.09 5.05 C 110.36 5.00 113.45 6.15 116.45 7.32 C 116.50 7.34 116.61 7.38 116.67 7.40 C 124.50 10.48 131.17 15.97 136.78 22.14 C 137.93 23.60 139.41 24.97 139.84 26.85 C 139.94 28.08 140.55 28.86 141.66 29.20 L 142.43 29.45 C 142.70 29.93 143.24 30.91 143.50 31.39 C 143.53 31.43 143.57 31.51 143.59 31.56 L 144.08 32.46 C 150.21 44.17 155.22 56.77 156.99 69.91 C 156.57 71.20 156.89 72.28 157.94 73.15 C 157.97 73.56 158.04 74.38 158.07 74.78 C 157.32 76.92 157.58 79.23 158.92 81.08 C 159.00 81.47 159.15 82.27 159.23 82.66 C 158.88 85.99 159.10 89.32 159.93 92.56 C 160.03 96.89 160.04 101.22 159.94 105.55 C 159.25 108.92 158.99 112.35 159.00 115.78 L 158.87 116.15 C 158.26 117.56 157.45 119.15 158.13 120.69 L 158.53 122.03 L 157.84 123.11 C 156.83 123.99 156.06 127.62 158.11 127.10 C 158.31 126.71 158.71 125.94 158.91 125.55 C 160.63 121.39 163.09 117.56 164.52 113.27 C 165.63 110.61 165.90 107.63 167.30 105.09 C 167.97 104.23 168.26 103.27 168.17 102.19 L 168.32 101.07 C 168.94 99.90 169.32 98.62 169.19 97.29 L 169.26 96.03 C 170.09 94.27 170.54 92.35 170.18 90.41 L 170.14 89.67 C 170.60 86.70 170.95 83.71 171.00 80.70 L 171.03 80.21 C 171.11 79.22 171.29 77.23 171.38 76.23 C 173.07 78.08 174.80 79.91 176.51 81.75 C 183.41 91.24 187.22 102.62 189.93 113.94 C 190.61 116.69 191.50 119.50 190.96 122.36 C 190.58 123.97 191.05 125.57 191.75 127.01 C 191.84 127.36 192.00 128.04 192.08 128.39 C 191.93 131.83 192.23 135.27 192.92 138.64 C 193.21 143.28 193.13 147.95 192.95 152.59 C 192.65 155.44 192.39 158.29 192.31 161.16 C 194.06 159.39 195.45 157.32 196.35 155.00 C 197.59 152.46 199.16 150.11 200.39 147.56 C 200.42 147.51 200.47 147.40 200.50 147.34 C 201.12 146.05 201.74 144.77 202.36 143.48 C 202.39 143.43 202.43 143.34 202.45 143.29 L 203.29 141.62 C 203.32 141.56 203.37 141.46 203.40 141.41 C 206.76 134.82 209.17 127.80 211.87 120.93 C 212.53 119.23 213.18 117.53 213.80 115.82 C 214.24 114.58 214.69 113.34 215.15 112.11 C 216.12 113.30 217.54 114.30 217.86 115.90 C 218.02 117.54 219.18 118.76 220.68 119.34 C 222.58 120.43 223.30 122.70 224.50 124.43 C 228.20 130.15 230.89 136.44 233.24 142.81 C 233.53 143.82 233.84 144.82 234.17 145.82 C 234.84 147.88 235.50 149.94 236.13 152.01 C 236.58 155.05 237.13 158.10 238.15 161.02 C 238.37 164.00 238.11 167.08 239.16 169.94 C 239.77 176.04 238.75 182.05 238.14 188.08 C 237.35 190.71 236.81 193.41 236.07 196.06 C 235.19 198.63 234.69 201.31 233.82 203.89 C 231.14 212.35 228.02 220.73 223.64 228.47 C 223.61 228.51 223.56 228.59 223.54 228.64 C 222.73 229.95 221.96 231.30 221.25 232.68 C 221.08 233.00 220.75 233.65 220.59 233.97 C 226.09 234.04 231.59 233.98 237.10 234.01 C 237.15 239.71 236.85 245.43 237.35 251.12 C 164.56 250.84 91.76 251.08 18.96 251.00 C 18.97 245.25 18.93 239.50 19.13 233.75 C 23.11 233.74 27.08 233.76 31.06 233.73 C 30.58 232.68 30.08 231.63 29.58 230.59 C 29.56 230.55 29.52 230.47 29.49 230.42 C 25.67 223.36 22.94 215.76 20.87 208.01 C 18.11 197.26 17.71 186.02 18.87 175.00 C 20.93 165.82 24.07 156.58 30.17 149.22 C 42.32 134.29 59.68 125.28 75.13 114.32 C 78.19 112.66 81.03 110.59 83.32 107.96 C 95.86 96.86 106.17 82.64 110.34 66.23 C 111.03 63.85 111.08 61.25 112.32 59.05 C 113.06 57.93 113.36 56.57 113.09 55.24 C 113.14 54.72 113.25 53.69 113.30 53.17 C 114.10 51.29 114.44 49.25 114.06 47.22 C 114.07 46.64 114.11 45.47 114.13 44.89 C 115.32 40.34 115.48 35.53 114.12 31.00 C 112.78 22.12 111.02 13.21 107.09 5.05 Z" />
</g>
<g id="#b35151d5">
<path fill="#b35151" opacity="0.84" d=" M 116.45 7.32 C 116.50 7.34 116.61 7.38 116.67 7.40 C 116.61 7.38 116.50 7.34 116.45 7.32 Z" />
</g>
<g id="#c33737de">
<path fill="#c33737" opacity="0.87" d=" M 139.84 26.85 C 141.43 26.86 142.04 27.64 141.66 29.20 C 140.55 28.86 139.94 28.08 139.84 26.85 Z" />
</g>
<g id="#7d4545b1">
<path fill="#7d4545" opacity="0.69" d=" M 143.50 31.39 C 143.53 31.43 143.57 31.51 143.59 31.56 C 143.57 31.51 143.53 31.43 143.50 31.39 Z" />
</g>
<g id="#e54949fb">
<path fill="#e54949" opacity="1.00" d=" M 114.12 31.00 C 115.48 35.53 115.32 40.34 114.13 44.89 C 113.91 40.27 113.94 35.63 114.12 31.00 Z" />
</g>
<g id="#5017177e">
<path fill="#501717" opacity="0.49" d=" M 144.08 32.46 C 146.72 35.56 148.31 39.36 150.04 43.01 C 156.24 56.86 159.10 71.96 160.53 86.98 C 160.57 93.98 160.49 100.97 160.55 107.96 C 160.50 110.04 160.78 112.24 159.82 114.17 C 160.05 111.30 159.99 108.42 159.94 105.55 C 160.04 101.22 160.03 96.89 159.93 92.56 C 160.06 89.25 160.12 85.89 159.23 82.66 C 159.15 82.27 159.00 81.47 158.92 81.08 C 159.41 78.93 159.34 76.66 158.07 74.78 C 158.04 74.38 157.97 73.56 157.94 73.15 C 158.56 71.71 158.24 70.63 156.99 69.91 C 155.22 56.77 150.21 44.17 144.08 32.46 Z" />
</g>
<g id="#a64747c9">
<path fill="#a64747" opacity="0.79" d=" M 113.68 47.12 L 114.06 47.22 C 114.44 49.25 114.10 51.29 113.30 53.17 C 112.49 51.36 112.46 48.76 113.68 47.12 Z" />
</g>
<g id="#a34141ca">
<path fill="#a34141" opacity="0.79" d=" M 112.32 59.05 C 111.31 58.13 111.36 55.14 113.09 55.24 C 113.36 56.57 113.06 57.93 112.32 59.05 Z" />
</g>
<g id="#cc3c3ce1">
<path fill="#cc3c3c" opacity="0.88" d=" M 156.99 69.91 C 158.24 70.63 158.56 71.71 157.94 73.15 C 156.89 72.28 156.57 71.20 156.99 69.91 Z" />
</g>
<g id="#d53a3ae8">
<path fill="#d53a3a" opacity="0.91" d=" M 158.07 74.78 C 159.34 76.66 159.41 78.93 158.92 81.08 C 157.58 79.23 157.32 76.92 158.07 74.78 Z" />
</g>
<g id="#972c2cb5">
<path fill="#972c2c" opacity="0.71" d=" M 171.02 75.04 C 173.36 76.81 175.17 79.15 176.51 81.75 C 174.80 79.91 173.07 78.08 171.38 76.23 C 171.29 77.23 171.11 79.22 171.03 80.21 C 170.98 78.49 170.98 76.76 171.02 75.04 Z" />
</g>
<g id="#b44646ce">
<path fill="#b44646" opacity="0.81" d=" M 170.14 89.67 C 169.86 86.67 169.66 83.50 171.00 80.70 C 170.95 83.71 170.60 86.70 170.14 89.67 Z" />
</g>
<g id="#e83c3cf8">
<path fill="#e83c3c" opacity="0.97" d=" M 159.23 82.66 C 160.12 85.89 160.06 89.25 159.93 92.56 C 159.10 89.32 158.88 85.99 159.23 82.66 Z" />
</g>
<g id="#af4545c7">
<path fill="#af4545" opacity="0.78" d=" M 169.26 96.03 C 168.50 94.51 168.22 90.84 170.18 90.41 C 170.54 92.35 170.09 94.27 169.26 96.03 Z" />
</g>
<g id="#ac4545ca">
<path fill="#ac4545" opacity="0.79" d=" M 168.32 101.07 C 167.19 100.15 167.40 97.07 169.19 97.29 C 169.32 98.62 168.94 99.90 168.32 101.07 Z" />
</g>
<g id="#994343bf">
<path fill="#994343" opacity="0.75" d=" M 167.30 105.09 C 166.23 103.60 166.52 102.63 168.17 102.19 C 168.26 103.27 167.97 104.23 167.30 105.09 Z" />
</g>
<g id="#d33c3ce7">
<path fill="#d33c3c" opacity="0.91" d=" M 159.00 115.78 C 158.99 112.35 159.25 108.92 159.94 105.55 C 159.99 108.42 160.05 111.30 159.82 114.17 C 159.61 114.57 159.20 115.38 159.00 115.78 Z" />
</g>
<g id="#972828b1">
<path fill="#972828" opacity="0.69" d=" M 75.13 114.32 C 77.61 111.89 80.31 109.69 83.32 107.96 C 81.03 110.59 78.19 112.66 75.13 114.32 Z" />
</g>
<g id="#d53b3be8">
<path fill="#d53b3b" opacity="0.91" d=" M 158.13 120.69 C 157.45 119.15 158.26 117.56 158.87 116.15 C 159.76 117.27 159.96 120.64 158.13 120.69 Z" />
</g>
<g id="#c23434d3">
<path fill="#c23434" opacity="0.83" d=" M 217.86 115.90 C 219.38 115.49 221.08 117.92 220.68 119.34 C 219.18 118.76 218.02 117.54 217.86 115.90 Z" />
</g>
<g id="#c04343d7">
<path fill="#c04343" opacity="0.84" d=" M 190.96 122.36 C 192.85 122.41 192.66 125.85 191.75 127.01 C 191.05 125.57 190.58 123.97 190.96 122.36 Z" />
</g>
<g id="#b83c3ccf">
<path fill="#b83c3c" opacity="0.81" d=" M 158.11 127.10 C 156.06 127.62 156.83 123.99 157.84 123.11 C 158.10 123.72 158.64 124.94 158.91 125.55 C 158.71 125.94 158.31 126.71 158.11 127.10 Z" />
</g>
<g id="#bb4747d5">
<path fill="#bb4747" opacity="0.84" d=" M 192.08 128.39 C 193.32 131.66 193.20 135.21 192.92 138.64 C 192.23 135.27 191.93 131.83 192.08 128.39 Z" />
</g>
<g id="#903f3faf">
<path fill="#903f3f" opacity="0.69" d=" M 203.29 141.62 C 203.32 141.56 203.37 141.46 203.40 141.41 C 203.37 141.46 203.32 141.56 203.29 141.62 Z" />
</g>
<g id="#924343af">
<path fill="#924343" opacity="0.69" d=" M 202.36 143.48 C 202.39 143.43 202.43 143.34 202.45 143.29 C 202.43 143.34 202.39 143.43 202.36 143.48 Z" />
</g>
<g id="#823e3e9f">
<path fill="#823e3e" opacity="0.62" d=" M 200.39 147.56 C 200.42 147.51 200.47 147.40 200.50 147.34 C 200.47 147.40 200.42 147.51 200.39 147.56 Z" />
</g>
<g id="#c13636d5">
<path fill="#c13636" opacity="0.84" d=" M 192.31 161.16 C 192.39 158.29 192.65 155.44 192.95 152.59 C 193.06 154.78 193.10 156.96 193.12 159.16 C 193.93 158.12 195.55 156.04 196.35 155.00 C 195.45 157.32 194.06 159.39 192.31 161.16 Z" />
</g>
<g id="#9d4b4bc1">
<path fill="#9d4b4b" opacity="0.76" d=" M 223.54 228.64 C 223.56 228.59 223.61 228.51 223.64 228.47 C 223.61 228.51 223.56 228.59 223.54 228.64 Z" />
</g>
<g id="#68363695">
<path fill="#683636" opacity="0.58" d=" M 29.49 230.42 C 29.52 230.47 29.56 230.55 29.58 230.59 C 29.56 230.55 29.52 230.47 29.49 230.42 Z" />
</g>
<g id="#2f05056c">
<path fill="#2f0505" opacity="0.42" d=" M 220.59 233.97 C 220.75 233.65 221.08 233.00 221.25 232.68 C 226.71 233.66 232.27 232.85 237.77 233.29 C 237.90 239.20 238.70 245.33 237.35 251.12 C 236.85 245.43 237.15 239.71 237.10 234.01 C 231.59 233.98 226.09 234.04 220.59 233.97 Z" />
</g>
<g id="#e73a3af9">
<path fill="#e73a3a" opacity="0.98" d=" M 17.68 233.73 L 19.13 233.75 C 18.93 239.50 18.97 245.25 18.96 251.00 L 17.67 251.01 C 17.67 245.25 17.66 239.49 17.68 233.73 Z" />
</g>
</svg>
