<?xml version="1.0" encoding="UTF-8" ?>
<!DOCTYPE svg PUBLIC "-//W3C//DTD SVG 1.1//EN" "http://www.w3.org/Graphics/SVG/1.1/DTD/svg11.dtd">
<svg width="256pt" height="256pt" viewBox="0 0 256 256" version="1.1" xmlns="http://www.w3.org/2000/svg">
<g id="#fefefeff">
<path fill="#fefefe" opacity="1.00" d=" M 0.00 0.00 L 256.00 0.00 L 256.00 256.00 L 0.00 256.00 L 0.00 0.00 M 137.46 5.73 C 125.53 8.63 117.09 22.32 120.76 34.22 C 122.32 39.90 125.86 45.17 131.08 48.06 C 138.64 52.97 149.06 52.58 156.41 47.47 C 160.45 44.35 163.90 40.22 165.35 35.26 C 168.47 25.56 164.70 13.48 155.49 8.52 C 150.16 5.17 143.54 4.47 137.46 5.73 M 97.29 40.11 C 92.38 41.26 87.64 43.47 83.97 46.97 C 78.43 52.11 73.59 57.93 68.10 63.11 C 61.94 68.95 56.00 75.03 50.49 81.49 C 46.09 86.13 42.05 91.39 40.52 97.72 C 38.51 103.88 40.28 110.42 42.69 116.18 C 45.78 123.27 52.49 128.17 59.70 130.49 C 63.93 131.92 68.53 131.05 72.76 132.46 C 87.78 137.21 103.45 139.47 119.08 141.04 C 120.59 141.39 122.47 141.21 123.53 142.57 C 126.24 145.53 128.22 149.08 131.01 151.97 C 138.14 159.56 144.21 168.09 151.38 175.64 C 154.61 179.20 159.99 179.49 164.31 178.13 C 169.67 175.70 174.24 170.18 173.70 164.04 C 173.67 160.70 171.61 157.89 169.54 155.46 C 161.85 146.47 154.35 137.33 146.87 128.16 C 144.53 125.33 141.78 122.45 138.00 121.77 C 127.48 119.72 117.47 115.81 107.21 112.84 C 104.78 112.08 102.21 111.57 100.05 110.17 C 105.95 103.38 113.02 97.71 118.85 90.85 C 120.35 89.57 121.52 87.14 123.77 87.29 C 130.70 92.12 135.24 99.78 142.49 104.20 C 160.31 104.70 178.20 104.22 196.05 104.42 C 201.08 104.72 205.71 101.57 208.24 97.39 C 210.89 92.30 209.79 85.43 205.50 81.56 C 203.14 79.58 200.08 78.47 197.01 78.39 C 181.41 78.11 165.74 78.69 150.17 78.18 C 146.02 74.56 142.49 70.29 138.62 66.38 C 134.44 61.60 129.51 57.46 125.99 52.13 C 120.09 42.81 108.09 37.62 97.29 40.11 M 15.40 235.42 C 15.50 240.58 15.52 245.75 15.35 250.91 C 90.77 251.06 166.20 251.06 241.62 250.90 C 241.44 245.75 241.45 240.59 241.58 235.43 C 166.19 235.51 90.79 235.53 15.40 235.42 Z" />
</g>
<g id="#9e3dffff">
<path fill="#9e3dff" opacity="1.00" d=" M 137.46 5.73 C 143.54 4.47 150.16 5.17 155.49 8.52 C 164.70 13.48 168.47 25.56 165.35 35.26 C 163.90 40.22 160.45 44.35 156.41 47.47 C 149.06 52.58 138.64 52.97 131.08 48.06 C 125.86 45.17 122.32 39.90 120.76 34.22 C 117.09 22.32 125.53 8.63 137.46 5.73 Z" />
<path fill="#9e3dff" opacity="1.00" d=" M 97.29 40.11 C 108.09 37.62 120.09 42.81 125.99 52.13 C 129.51 57.46 134.44 61.60 138.62 66.38 C 142.49 70.29 146.02 74.56 150.17 78.18 C 165.74 78.69 181.41 78.11 197.01 78.39 C 200.08 78.47 203.14 79.58 205.50 81.56 C 209.79 85.43 210.89 92.30 208.24 97.39 C 205.71 101.57 201.08 104.72 196.05 104.42 C 178.20 104.22 160.31 104.70 142.49 104.20 C 135.24 99.78 130.70 92.12 123.77 87.29 C 121.52 87.14 120.35 89.57 118.85 90.85 C 113.02 97.71 105.95 103.38 100.05 110.17 C 102.21 111.57 104.78 112.08 107.21 112.84 C 117.47 115.81 127.48 119.72 138.00 121.77 C 141.78 122.45 144.53 125.33 146.87 128.16 C 154.35 137.33 161.85 146.47 169.54 155.46 C 171.61 157.89 173.67 160.70 173.70 164.04 C 174.24 170.18 169.67 175.70 164.31 178.13 C 159.99 179.49 154.61 179.20 151.38 175.64 C 144.21 168.09 138.14 159.56 131.01 151.97 C 128.22 149.08 126.24 145.53 123.53 142.57 C 122.47 141.21 120.59 141.39 119.08 141.04 C 103.45 139.47 87.78 137.21 72.76 132.46 C 68.53 131.05 63.93 131.92 59.70 130.49 C 52.49 128.17 45.78 123.27 42.69 116.18 C 40.28 110.42 38.51 103.88 40.52 97.72 C 42.05 91.39 46.09 86.13 50.49 81.49 C 56.00 75.03 61.94 68.95 68.10 63.11 C 73.59 57.93 78.43 52.11 83.97 46.97 C 87.64 43.47 92.38 41.26 97.29 40.11 Z" />
<path fill="#9e3dff" opacity="1.00" d=" M 15.40 235.42 C 90.79 235.53 166.19 235.51 241.58 235.43 C 241.45 240.59 241.44 245.75 241.62 250.90 C 166.20 251.06 90.77 251.06 15.35 250.91 C 15.52 245.75 15.50 240.58 15.40 235.42 Z" />
</g>
</svg>
