<?xml version="1.0" encoding="UTF-8" ?>
<!DOCTYPE svg PUBLIC "-//W3C//DTD SVG 1.1//EN" "http://www.w3.org/Graphics/SVG/1.1/DTD/svg11.dtd">
<svg width="256pt" height="256pt" viewBox="0 0 256 256" version="1.1" xmlns="http://www.w3.org/2000/svg">
<g id="#6ef0ffff">
<path fill="#6ef0ff" opacity="1.00" d=" M 145.65 70.57 C 151.68 69.02 158.01 70.21 164.17 69.81 C 166.92 70.99 169.87 71.96 172.14 73.98 C 172.42 75.27 172.58 76.57 172.61 77.89 C 174.06 77.79 175.50 77.71 176.96 77.64 C 181.67 86.66 187.18 95.23 192.09 104.14 C 184.87 104.02 177.76 105.78 170.53 105.14 C 166.55 104.84 162.61 105.48 158.69 106.05 C 153.78 106.23 148.93 107.26 144.01 107.12 C 139.32 106.92 134.72 108.09 130.05 108.09 C 123.38 107.88 116.81 109.44 110.13 109.10 C 111.27 105.88 112.61 102.71 113.27 99.35 C 107.90 98.87 101.86 100.85 97.14 97.53 C 66.45 97.36 35.75 97.49 5.06 97.47 C 5.01 96.05 4.95 94.63 4.84 93.22 C 35.40 93.31 65.98 93.44 96.54 93.15 C 96.95 91.15 98.35 89.18 100.47 88.83 C 106.14 88.90 111.83 89.13 117.50 88.83 L 117.81 87.97 C 118.31 86.44 118.81 84.91 119.34 83.38 C 124.62 83.41 129.78 82.08 135.06 82.14 C 138.27 81.19 141.65 81.31 144.97 81.28 C 145.01 77.71 144.58 74.04 145.65 70.57 Z" />
</g>
<g id="#90b4b6da">
<path fill="#90b4b6" opacity="0.85" d=" M 100.47 88.83 C 106.04 87.05 112.05 88.41 117.81 87.97 L 117.50 88.83 C 111.83 89.13 106.14 88.90 100.47 88.83 Z" />
</g>
<g id="#05060626">
<path fill="#050606" opacity="0.15" d=" M 4.84 93.22 C 5.65 91.65 7.65 92.29 9.04 92.08 C 35.66 92.16 62.28 92.16 88.90 92.09 C 91.45 92.22 94.32 91.53 96.54 93.15 C 65.98 93.44 35.40 93.31 4.84 93.22 Z" />
</g>
<g id="#6eefffff">
<path fill="#6eefff" opacity="1.00" d=" M 237.95 103.83 C 242.31 103.50 246.73 103.72 250.98 102.49 C 250.99 104.47 251.17 106.54 250.27 108.37 C 246.10 119.00 242.17 129.73 238.04 140.37 C 222.03 140.48 206.02 140.36 190.01 140.43 C 182.76 141.18 177.66 133.84 170.53 134.10 C 165.54 133.74 160.58 134.40 155.65 135.04 C 152.27 135.17 148.88 135.03 145.53 135.54 C 138.51 136.11 131.47 135.91 124.44 136.16 C 118.86 135.66 113.31 136.67 107.75 137.03 C 106.07 137.11 104.39 137.12 102.70 137.12 C 96.70 136.65 90.74 137.56 84.77 138.02 C 83.38 138.09 81.99 138.10 80.59 138.09 C 74.96 137.71 69.38 138.52 63.78 138.98 C 60.80 139.14 57.71 138.83 54.84 139.80 C 49.76 145.78 45.09 152.12 40.16 158.23 C 39.17 159.19 38.70 160.98 40.09 161.84 C 45.58 167.51 51.17 173.10 56.69 178.76 C 60.03 180.93 64.25 179.79 67.99 180.01 C 112.33 179.97 156.66 180.00 201.00 180.00 C 204.93 179.92 208.93 180.41 212.81 179.66 C 213.11 179.38 213.71 178.80 214.01 178.52 C 216.58 172.90 220.09 167.78 222.94 162.30 C 219.93 158.54 217.12 154.63 214.15 150.84 C 215.59 149.47 217.10 148.17 218.69 146.96 C 222.30 152.05 226.23 156.93 229.70 162.12 C 229.62 162.44 229.46 163.07 229.39 163.39 C 225.16 171.42 220.32 179.12 216.07 187.13 C 162.27 186.64 108.44 187.11 54.63 186.90 C 47.09 177.88 38.82 169.51 31.03 160.71 C 36.27 153.80 41.65 147.00 46.84 140.06 C 42.62 140.01 38.39 139.90 34.18 140.29 C 38.03 136.08 42.50 132.52 46.47 128.43 C 49.02 126.12 51.20 123.35 53.99 121.34 C 97.66 117.28 141.31 112.70 185.03 109.11 C 188.27 108.12 191.70 108.45 195.04 108.22 C 198.57 107.08 202.31 107.56 205.95 107.21 C 209.17 105.92 212.73 106.85 216.06 106.12 C 219.90 105.11 223.94 105.91 227.78 104.91 C 231.11 104.04 234.72 105.19 237.95 103.83 Z" />
<path fill="#6eefff" opacity="1.00" d=" M 73.39 144.37 C 81.83 142.26 91.25 148.44 92.75 157.00 C 94.74 164.32 90.43 172.43 83.59 175.46 C 80.28 177.07 76.48 176.69 72.92 176.45 C 66.78 174.99 61.71 169.77 60.59 163.53 C 58.66 155.06 65.01 146.10 73.39 144.37 Z" />
<path fill="#6eefff" opacity="1.00" d=" M 103.13 155.09 C 105.56 148.21 112.82 143.27 120.14 144.03 C 128.15 144.78 134.80 151.94 135.14 159.94 C 135.43 167.63 129.61 175.19 121.97 176.52 C 118.67 176.60 115.13 177.11 112.07 175.53 C 107.90 173.77 104.77 170.15 103.15 165.97 C 102.25 162.44 102.31 158.62 103.13 155.09 Z" />
<path fill="#6eefff" opacity="1.00" d=" M 155.87 144.72 C 165.91 141.12 178.04 150.27 176.72 161.03 C 177.25 168.23 171.51 174.24 165.08 176.47 C 161.41 176.48 157.48 177.25 154.05 175.58 C 148.69 173.28 144.76 167.95 144.09 162.16 C 143.27 154.53 148.55 146.90 155.87 144.72 Z" />
</g>
<g id="#80bec3da">
<path fill="#80bec3" opacity="0.85" d=" M 158.69 106.05 C 162.61 105.48 166.55 104.84 170.53 105.14 C 166.71 106.43 162.64 106.29 158.69 106.05 Z" />
</g>
<g id="#80b6bad4">
<path fill="#80b6ba" opacity="0.83" d=" M 155.65 135.04 C 160.58 134.40 165.54 133.74 170.53 134.10 C 165.71 135.54 160.60 135.13 155.65 135.04 Z" />
</g>
<g id="#84bec1d9">
<path fill="#84bec1" opacity="0.85" d=" M 107.75 137.03 C 113.31 136.67 118.86 135.66 124.44 136.16 L 125.39 136.32 C 119.56 137.26 113.64 137.14 107.75 137.03 Z" />
</g>
<g id="#06090930">
<path fill="#060909" opacity="0.19" d=" M 124.44 136.16 C 131.47 135.91 138.51 136.11 145.53 135.54 C 143.72 137.18 141.19 136.79 138.97 136.93 C 134.44 136.88 129.85 137.34 125.39 136.32 L 124.44 136.16 Z" />
</g>
<g id="#88c3c5dd">
<path fill="#88c3c5" opacity="0.87" d=" M 84.77 138.02 C 90.74 137.56 96.70 136.65 102.70 137.12 C 96.84 138.51 90.75 137.98 84.77 138.02 Z" />
</g>
<g id="#86b9bad6">
<path fill="#86b9ba" opacity="0.84" d=" M 63.78 138.98 C 69.38 138.52 74.96 137.71 80.59 138.09 C 75.10 139.43 69.38 139.01 63.78 138.98 Z" />
</g>
<g id="#6eeffeff">
<path fill="#6eeffe" opacity="1.00" d=" M 185.61 155.92 C 187.64 151.26 191.84 146.89 197.22 146.77 C 203.00 145.93 209.05 149.55 211.01 155.05 C 214.32 162.09 209.50 171.32 201.97 173.02 C 195.14 175.20 188.03 170.43 185.63 164.07 C 185.53 161.35 185.53 158.64 185.61 155.92 Z" />
</g>
<g id="#141c1c5a">
<path fill="#141c1c" opacity="0.35" d=" M 56.69 178.76 C 58.10 178.36 59.53 178.01 61.00 178.01 C 110.34 178.06 159.68 178.02 209.01 178.03 C 210.53 178.08 212.04 178.31 213.55 178.57 C 209.06 179.27 204.51 178.96 200.00 178.99 C 153.99 179.00 107.99 178.98 61.98 179.00 C 60.22 178.97 58.45 178.88 56.69 178.76 Z" />
</g>
<g id="#8de9eefd">
<path fill="#8de9ee" opacity="1.00" d=" M 56.69 178.76 C 58.45 178.88 60.22 178.97 61.98 179.00 C 107.99 178.98 153.99 179.00 200.00 178.99 C 204.51 178.96 209.06 179.27 213.55 178.57 L 214.01 178.52 C 213.71 178.80 213.11 179.38 212.81 179.66 C 208.93 180.41 204.93 179.92 201.00 180.00 C 156.66 180.00 112.33 179.97 67.99 180.01 C 64.25 179.79 60.03 180.93 56.69 178.76 Z" />
</g>
<g id="#11161650">
<path fill="#111616" opacity="0.31" d=" M 54.63 186.90 C 108.44 187.11 162.27 186.64 216.07 187.13 C 215.16 187.71 214.18 188.01 213.11 188.01 C 161.74 188.03 110.37 187.95 58.99 188.05 C 57.53 187.88 55.56 188.42 54.63 186.90 Z" />
</g>
</svg>
