<?xml version="1.0" encoding="UTF-8" ?>
<!DOCTYPE svg PUBLIC "-//W3C//DTD SVG 1.1//EN" "http://www.w3.org/Graphics/SVG/1.1/DTD/svg11.dtd">
<svg width="256pt" height="256pt" viewBox="0 0 256 256" version="1.1" xmlns="http://www.w3.org/2000/svg">
<g id="#fefefeff">
<path fill="#fefefe" opacity="1.00" d=" M 0.00 0.00 L 256.00 0.00 L 256.00 256.00 L 0.00 256.00 L 0.00 0.00 M 203.60 27.97 C 203.75 54.79 203.50 81.62 203.73 108.44 C 195.22 103.45 186.46 98.89 177.84 94.08 C 166.11 87.87 154.77 80.95 143.11 74.63 C 128.65 66.79 114.22 58.89 100.02 50.59 C 98.38 49.61 96.48 49.26 94.64 48.85 C 94.60 65.23 94.64 81.60 94.63 97.98 C 65.53 81.03 35.70 65.34 6.48 48.57 C 4.97 47.37 4.94 50.11 5.00 50.96 C 5.01 99.98 5.00 148.99 5.00 198.00 C 4.94 201.87 4.96 205.75 5.29 209.61 C 7.95 207.22 11.30 205.91 14.35 204.15 C 25.71 197.60 37.10 191.10 48.71 185.02 C 64.06 176.48 79.40 167.89 94.61 159.13 C 94.65 175.72 94.60 192.32 94.64 208.92 C 96.76 208.13 98.83 207.20 100.78 206.03 C 116.42 197.04 132.19 188.30 148.07 179.74 C 166.46 169.16 185.07 158.98 203.70 148.82 C 203.58 177.02 203.66 205.22 203.66 233.42 C 219.39 233.70 235.12 233.39 250.85 233.58 C 251.19 211.71 250.91 189.83 251.00 167.96 C 250.91 119.83 251.18 71.68 250.86 23.55 C 235.45 23.67 220.04 23.48 204.63 23.63 C 203.16 24.61 203.76 26.50 203.60 27.97 Z" />
</g>
<g id="#e6ff45ff">
<path fill="#e6ff45" opacity="1.00" d=" M 203.60 27.97 C 203.76 26.50 203.16 24.61 204.63 23.63 C 220.04 23.48 235.45 23.67 250.86 23.55 C 251.18 71.68 250.91 119.83 251.00 167.96 C 250.91 189.83 251.19 211.71 250.85 233.58 C 235.12 233.39 219.39 233.70 203.66 233.42 C 203.66 205.22 203.58 177.02 203.70 148.82 C 185.07 158.98 166.46 169.16 148.07 179.74 C 132.19 188.30 116.42 197.04 100.78 206.03 C 98.83 207.20 96.76 208.13 94.64 208.92 C 94.60 192.32 94.65 175.72 94.61 159.13 C 79.40 167.89 64.06 176.48 48.71 185.02 C 37.10 191.10 25.71 197.60 14.35 204.15 C 11.30 205.91 7.95 207.22 5.29 209.61 C 4.96 205.75 4.94 201.87 5.00 198.00 C 5.00 148.99 5.01 99.98 5.00 50.96 C 4.94 50.11 4.97 47.37 6.48 48.57 C 35.70 65.34 65.53 81.03 94.63 97.98 C 94.64 81.60 94.60 65.23 94.64 48.85 C 96.48 49.26 98.38 49.61 100.02 50.59 C 114.22 58.89 128.65 66.79 143.11 74.63 C 154.77 80.95 166.11 87.87 177.84 94.08 C 186.46 98.89 195.22 103.45 203.73 108.44 C 203.50 81.62 203.75 54.79 203.60 27.97 Z" />
</g>
</svg>
