<?xml version="1.0" encoding="UTF-8" ?>
<!DOCTYPE svg PUBLIC "-//W3C//DTD SVG 1.1//EN" "http://www.w3.org/Graphics/SVG/1.1/DTD/svg11.dtd">
<svg width="256pt" height="256pt" viewBox="0 0 256 256" version="1.1" xmlns="http://www.w3.org/2000/svg">
<g id="#fefefeff">
<path fill="#fefefe" opacity="1.00" d=" M 0.00 0.00 L 256.00 0.00 L 256.00 256.00 L 0.00 256.00 L 0.00 0.00 M 193.45 13.97 C 193.51 25.11 193.48 36.24 193.46 47.38 C 156.30 47.37 119.15 47.39 82.00 47.37 C 65.67 46.50 48.93 51.70 36.63 62.62 C 22.82 74.26 14.68 91.15 10.13 108.34 C 8.55 114.23 7.16 120.22 7.01 126.36 C 11.14 123.07 14.65 119.09 18.81 115.83 C 33.04 104.05 50.08 95.59 68.23 92.01 C 74.10 91.03 80.08 91.50 86.00 91.41 C 122.98 91.35 159.97 91.53 196.96 91.32 C 197.37 103.07 196.91 114.84 197.23 126.59 C 200.15 124.07 202.97 121.43 205.61 118.61 C 217.84 106.17 230.34 94.01 242.57 81.57 C 245.35 78.64 248.59 76.10 250.97 72.81 C 251.22 71.47 250.21 70.49 249.40 69.60 C 238.06 58.27 226.75 46.91 215.38 35.62 C 208.08 28.39 201.06 20.88 193.45 13.97 M 50.43 139.44 C 35.36 154.64 20.09 169.65 5.07 184.91 C 16.52 196.47 28.02 207.97 39.56 219.44 C 47.57 227.35 55.26 235.59 63.59 243.16 C 63.61 231.97 63.59 220.78 63.61 209.60 C 103.42 209.54 143.24 209.64 183.06 209.55 C 206.71 208.84 227.84 192.69 238.07 171.89 C 244.49 159.22 249.01 145.38 250.14 131.18 C 246.58 133.52 243.52 136.48 240.46 139.42 C 227.71 150.50 212.31 158.38 196.23 163.36 C 186.14 166.72 175.43 165.59 165.00 165.76 C 129.98 165.80 94.96 165.69 59.94 165.81 C 59.74 154.02 60.03 142.23 59.77 130.44 C 56.51 133.28 53.41 136.30 50.43 139.44 Z" />
</g>
<g id="#fe8a24ff">
<path fill="#fe8a24" opacity="1.00" d=" M 193.45 13.97 C 201.06 20.88 208.08 28.39 215.38 35.62 C 226.75 46.91 238.06 58.27 249.40 69.60 C 250.21 70.49 251.22 71.47 250.97 72.81 C 248.59 76.10 245.35 78.64 242.57 81.57 C 230.34 94.01 217.84 106.17 205.61 118.61 C 202.97 121.43 200.15 124.07 197.23 126.59 C 196.91 114.84 197.37 103.07 196.96 91.32 C 159.97 91.53 122.98 91.35 86.00 91.41 C 80.08 91.50 74.10 91.03 68.23 92.01 C 50.08 95.59 33.04 104.05 18.81 115.83 C 14.65 119.09 11.14 123.07 7.01 126.36 C 7.16 120.22 8.55 114.23 10.13 108.34 C 14.68 91.15 22.82 74.26 36.63 62.62 C 48.93 51.70 65.67 46.50 82.00 47.37 C 119.15 47.39 156.30 47.37 193.46 47.38 C 193.48 36.24 193.51 25.11 193.45 13.97 Z" />
<path fill="#fe8a24" opacity="1.00" d=" M 50.43 139.44 C 53.41 136.30 56.51 133.28 59.77 130.44 C 60.03 142.23 59.74 154.02 59.94 165.81 C 94.96 165.69 129.98 165.80 165.00 165.76 C 175.43 165.59 186.14 166.72 196.23 163.36 C 212.31 158.38 227.71 150.50 240.46 139.42 C 243.52 136.48 246.58 133.52 250.14 131.18 C 249.01 145.38 244.49 159.22 238.07 171.89 C 227.84 192.69 206.71 208.84 183.06 209.55 C 143.24 209.64 103.42 209.54 63.61 209.60 C 63.59 220.78 63.61 231.97 63.59 243.16 C 55.26 235.59 47.57 227.35 39.56 219.44 C 28.02 207.97 16.52 196.47 5.07 184.91 C 20.09 169.65 35.36 154.64 50.43 139.44 Z" />
</g>
</svg>
