<?xml version="1.0" encoding="UTF-8" ?>
<!DOCTYPE svg PUBLIC "-//W3C//DTD SVG 1.1//EN" "http://www.w3.org/Graphics/SVG/1.1/DTD/svg11.dtd">
<svg width="256pt" height="256pt" viewBox="0 0 256 256" version="1.1" xmlns="http://www.w3.org/2000/svg">
<g id="#ffffffff">
<path fill="#ffffff" opacity="1.00" d=" M 98.83 5.03 C 118.60 4.98 138.38 4.97 158.15 5.04 C 158.36 36.27 158.12 67.50 158.26 98.73 C 189.17 98.81 220.07 98.62 250.97 98.82 C 251.02 118.60 251.02 138.38 250.97 158.15 C 220.06 158.35 189.16 158.13 158.25 158.25 C 158.14 189.16 158.35 220.06 158.15 250.97 C 138.37 251.02 118.60 251.02 98.82 250.97 C 98.62 220.07 98.82 189.16 98.73 158.26 C 67.50 158.12 36.26 158.36 5.03 158.15 C 4.98 138.38 4.98 118.60 5.03 98.82 C 36.26 98.62 67.49 98.83 98.72 98.72 C 98.83 67.49 98.62 36.26 98.83 5.03 Z" />
</g>
</svg>
