<?xml version="1.0" encoding="UTF-8" ?>
<!DOCTYPE svg PUBLIC "-//W3C//DTD SVG 1.1//EN" "http://www.w3.org/Graphics/SVG/1.1/DTD/svg11.dtd">
<svg width="256pt" height="256pt" viewBox="0 0 256 256" version="1.1" xmlns="http://www.w3.org/2000/svg">
<g id="#4b944aff">
<path fill="#4b944a" opacity="1.00" d=" M 0.00 0.00 L 256.00 0.00 L 256.00 256.00 L 0.00 256.00 L 0.00 0.00 M 118.19 5.62 C 117.91 5.79 117.35 6.13 117.07 6.30 C 115.67 5.64 114.30 5.67 112.94 6.39 L 113.06 6.96 C 110.38 6.84 107.02 7.29 105.06 9.24 C 103.73 8.61 100.55 9.68 100.23 11.00 L 99.09 10.94 C 93.07 13.90 86.72 16.96 81.94 21.70 C 79.22 22.82 77.37 25.31 75.24 27.25 C 73.63 29.07 71.48 30.62 70.70 33.01 C 69.27 33.77 68.58 35.33 67.61 36.55 C 58.88 49.05 53.11 64.29 54.33 79.69 C 54.17 80.27 53.85 81.43 53.69 82.01 C 53.71 117.36 53.71 152.71 53.69 188.06 C 53.70 190.03 53.62 192.02 53.87 193.98 C 103.74 194.05 153.61 193.95 203.48 194.03 C 203.90 193.06 204.08 192.05 204.02 190.99 C 204.01 156.35 204.01 121.71 204.02 87.06 C 204.03 83.29 204.18 79.49 203.59 75.75 C 203.68 60.83 197.62 46.16 188.60 34.38 C 187.67 33.10 186.75 31.71 185.30 30.97 C 183.76 27.88 181.10 25.15 178.00 23.63 C 176.80 21.63 174.68 20.48 172.91 19.07 C 165.13 13.49 156.36 9.24 147.06 6.95 C 146.52 6.96 145.43 6.99 144.88 7.01 C 145.02 5.36 141.89 5.69 140.92 6.31 C 140.64 6.14 140.10 5.79 139.83 5.62 L 139.70 5.63 L 138.30 4.98 C 132.08 4.99 125.86 5.08 119.64 4.93 L 118.22 5.62 L 118.19 5.62 M 38.76 184.67 C 33.29 191.62 27.02 198.19 22.16 205.47 L 20.99 205.99 C 20.52 220.95 20.88 235.97 20.81 250.95 L 22.00 250.99 C 93.00 251.00 163.99 251.02 234.99 250.97 L 236.03 250.92 C 236.17 235.92 236.10 220.91 236.07 205.91 L 234.96 205.50 L 234.86 204.93 C 229.61 197.94 223.84 191.35 218.35 184.55 C 217.29 183.36 216.27 182.09 214.90 181.24 C 215.23 180.07 213.86 178.83 212.77 178.71 C 212.58 183.83 212.84 188.95 212.76 194.08 C 212.39 195.59 213.87 196.50 214.75 197.44 C 216.18 199.91 217.78 202.42 220.13 204.12 C 220.04 204.58 219.86 205.50 219.77 205.97 C 158.94 206.06 98.11 206.01 37.28 205.98 C 37.16 205.56 36.93 204.73 36.81 204.31 C 39.95 201.98 41.92 198.38 44.13 195.22 L 44.87 194.73 C 45.18 189.61 45.25 184.43 44.81 179.32 L 44.21 178.77 C 42.08 180.39 40.56 182.69 38.76 184.67 Z" />
<path fill="#4b944a" opacity="1.00" d=" M 86.00 88.89 C 94.30 89.13 102.74 88.01 110.89 89.89 C 115.98 89.81 120.46 94.00 121.18 98.97 C 123.39 105.98 116.86 112.92 109.92 113.29 C 110.99 115.13 112.98 116.11 114.44 117.59 C 118.28 121.44 120.37 126.59 123.86 130.72 C 123.82 131.18 123.74 132.09 123.70 132.54 C 120.95 132.74 118.18 132.78 115.43 132.55 C 113.46 131.49 112.67 129.11 111.22 127.48 C 107.44 123.12 105.58 116.13 99.49 114.48 C 97.80 113.86 95.97 113.90 94.21 114.10 C 93.65 120.25 94.34 126.44 93.88 132.59 C 91.26 132.62 88.64 132.59 86.02 132.65 C 85.97 118.07 86.01 103.48 86.00 88.89 M 94.16 96.17 C 93.89 100.07 93.94 104.01 94.13 107.92 C 98.64 107.98 103.20 108.20 107.69 107.79 L 108.14 107.08 C 110.03 107.50 112.30 106.28 112.15 104.16 C 114.47 102.37 112.16 96.73 108.85 96.82 L 108.16 96.82 L 107.56 96.28 C 103.13 95.79 98.61 95.95 94.16 96.17 Z" />
<path fill="#4b944a" opacity="1.00" d=" M 131.07 89.01 C 133.43 88.72 135.82 88.84 138.19 88.90 C 138.20 101.93 138.17 114.96 138.22 127.99 C 138.20 129.55 138.24 131.15 137.85 132.68 C 135.49 132.73 133.13 132.75 130.78 132.53 C 131.33 118.04 130.83 103.52 131.07 89.01 Z" />
<path fill="#4b944a" opacity="1.00" d=" M 147.79 88.85 C 155.24 88.92 162.73 88.41 170.08 89.86 C 175.45 89.81 179.19 94.46 180.91 99.09 C 181.02 101.61 181.15 104.16 180.67 106.65 C 179.05 111.45 174.91 114.76 170.07 115.97 C 165.37 116.04 160.67 115.96 155.97 116.01 C 155.38 121.44 156.75 127.28 155.28 132.45 C 152.94 132.78 150.57 132.68 148.21 132.66 C 147.74 131.16 147.79 129.58 147.77 128.03 C 147.81 114.97 147.81 101.91 147.79 88.85 M 156.06 96.15 C 155.76 100.42 155.94 104.71 155.97 108.99 C 160.06 109.01 164.16 109.00 168.26 109.00 L 168.32 108.02 C 168.68 108.00 169.40 107.96 169.76 107.94 C 171.94 106.41 172.43 103.81 172.12 101.31 C 171.93 98.74 169.44 96.35 166.78 96.97 L 166.13 96.95 L 165.71 96.24 C 162.52 95.82 159.27 95.96 156.06 96.15 Z" />
</g>
<g id="#726b7dff">
<path fill="#726b7d" opacity="1.00" d=" M 118.19 5.62 L 118.22 5.62 C 122.40 6.64 126.67 5.38 130.89 5.75 C 133.82 6.02 136.80 6.24 139.70 5.63 L 139.83 5.62 C 140.10 5.79 140.64 6.14 140.92 6.31 C 141.97 7.38 143.53 7.28 144.88 7.01 C 145.43 6.99 146.52 6.96 147.06 6.95 C 156.36 9.24 165.13 13.49 172.91 19.07 C 174.68 20.48 176.80 21.63 178.00 23.63 C 179.68 26.71 182.11 29.42 185.30 30.97 C 186.75 31.71 187.67 33.10 188.60 34.38 C 197.62 46.16 203.68 60.83 203.59 75.75 C 203.26 78.15 202.96 80.56 202.95 82.99 C 202.95 118.31 203.01 153.63 202.95 188.95 C 202.98 190.29 203.06 191.62 203.20 192.96 C 153.70 192.86 104.19 193.06 54.69 192.85 C 54.14 188.26 54.53 183.62 54.44 179.01 C 54.36 145.90 54.59 112.79 54.33 79.69 C 53.11 64.29 58.88 49.05 67.61 36.55 C 68.58 35.33 69.27 33.77 70.70 33.01 C 73.87 31.58 75.61 28.41 78.22 26.26 C 79.73 24.98 81.01 23.45 81.94 21.70 C 86.72 16.96 93.07 13.90 99.09 10.94 L 100.23 11.00 C 102.02 11.37 104.10 10.95 105.06 9.24 C 107.02 7.29 110.38 6.84 113.06 6.96 C 114.42 7.28 116.00 7.36 117.07 6.30 C 117.35 6.13 117.91 5.79 118.19 5.62 M 85.04 89.01 C 84.99 103.80 84.92 118.59 85.08 133.38 L 86.02 132.65 C 88.64 132.59 91.26 132.62 93.88 132.59 L 94.92 133.19 C 95.16 127.20 94.80 121.20 95.03 115.21 C 96.56 115.17 98.04 114.92 99.49 114.48 C 105.58 116.13 107.44 123.12 111.22 127.48 C 110.51 129.92 112.80 132.02 114.29 133.69 C 118.10 133.67 122.45 134.82 125.91 132.93 C 125.64 131.96 125.25 131.05 124.71 130.19 L 123.86 130.72 C 120.37 126.59 118.28 121.44 114.44 117.59 C 112.98 116.11 110.99 115.13 109.92 113.29 C 116.86 112.92 123.39 105.98 121.18 98.97 C 120.46 94.00 115.98 89.81 110.89 89.89 C 102.74 88.01 94.30 89.13 86.00 88.89 L 85.04 89.01 M 129.03 89.07 C 128.94 103.68 128.70 118.32 129.14 132.91 C 131.98 134.44 135.61 133.46 138.75 133.60 C 139.53 132.21 139.15 130.51 139.29 128.99 C 139.17 115.66 139.49 102.32 139.14 89.00 L 138.19 88.90 C 135.82 88.84 133.43 88.72 131.07 89.01 L 130.00 88.82 L 129.03 89.07 M 146.60 94.04 C 146.77 107.02 146.48 120.02 146.74 133.00 C 149.41 134.62 153.29 133.68 156.38 133.46 C 157.94 128.40 156.43 122.59 157.14 117.25 C 161.46 117.00 165.80 117.49 170.11 117.00 L 170.07 115.97 C 174.91 114.76 179.05 111.45 180.67 106.65 L 181.64 106.77 C 182.29 104.31 182.24 101.69 181.80 99.20 L 180.91 99.09 C 179.19 94.46 175.45 89.81 170.08 89.86 C 162.73 88.41 155.24 88.92 147.79 88.85 C 146.05 90.04 146.76 92.27 146.60 94.04 Z" />
<path fill="#726b7d" opacity="1.00" d=" M 95.10 97.07 C 99.45 96.77 103.81 97.07 108.16 96.82 L 108.85 96.82 C 110.81 98.83 112.30 101.25 112.15 104.16 C 112.30 106.28 110.03 107.50 108.14 107.08 C 103.79 106.85 99.43 107.14 95.08 106.85 C 94.90 103.59 94.91 100.33 95.10 97.07 Z" />
<path fill="#726b7d" opacity="1.00" d=" M 156.99 97.21 C 160.03 96.88 163.09 97.06 166.13 96.95 L 166.78 96.97 C 168.59 98.38 170.35 99.85 172.12 101.31 C 172.43 103.81 171.94 106.41 169.76 107.94 C 169.40 107.96 168.68 108.00 168.32 108.02 C 164.54 107.94 160.77 108.07 157.00 107.86 C 156.65 104.32 156.63 100.75 156.99 97.21 Z" />
<path fill="#726b7d" opacity="1.00" d=" M 38.76 184.67 C 40.56 182.69 42.08 180.39 44.21 178.77 C 43.95 184.25 43.87 189.74 44.13 195.22 C 41.92 198.38 39.95 201.98 36.81 204.31 C 35.85 204.84 35.09 205.59 35.03 206.76 C 36.33 206.91 37.65 206.99 38.96 207.02 C 94.64 207.01 150.32 207.02 206.00 207.01 C 211.36 206.94 216.72 207.20 222.08 206.87 C 222.05 205.57 221.15 204.75 220.13 204.12 C 217.78 202.42 216.18 199.91 214.75 197.44 C 213.75 192.14 212.94 186.41 214.90 181.24 C 216.27 182.09 217.29 183.36 218.35 184.55 C 223.84 191.35 229.61 197.94 234.86 204.93 L 234.96 205.50 C 234.99 220.66 234.98 235.82 234.99 250.97 C 163.99 251.02 93.00 251.00 22.00 250.99 C 22.05 235.82 21.81 220.64 22.16 205.47 C 27.02 198.19 33.29 191.62 38.76 184.67 Z" />
</g>
<g id="#9a97a3ff">
<path fill="#9a97a3" opacity="1.00" d=" M 118.22 5.62 L 119.64 4.93 C 125.86 5.08 132.08 4.99 138.30 4.98 L 139.70 5.63 C 136.80 6.24 133.82 6.02 130.89 5.75 C 126.67 5.38 122.40 6.64 118.22 5.62 Z" />
</g>
<g id="#9b9ca3ff">
<path fill="#9b9ca3" opacity="1.00" d=" M 112.94 6.39 C 114.30 5.67 115.67 5.64 117.07 6.30 C 116.00 7.36 114.42 7.28 113.06 6.96 L 112.94 6.39 Z" />
</g>
<g id="#9a9da2ff">
<path fill="#9a9da2" opacity="1.00" d=" M 140.92 6.31 C 141.89 5.69 145.02 5.36 144.88 7.01 C 143.53 7.28 141.97 7.38 140.92 6.31 Z" />
</g>
<g id="#898d91ff">
<path fill="#898d91" opacity="1.00" d=" M 100.23 11.00 C 100.55 9.68 103.73 8.61 105.06 9.24 C 104.10 10.95 102.02 11.37 100.23 11.00 Z" />
</g>
<g id="#7d8884ff">
<path fill="#7d8884" opacity="1.00" d=" M 75.24 27.25 C 77.37 25.31 79.22 22.82 81.94 21.70 C 81.01 23.45 79.73 24.98 78.22 26.26 C 75.61 28.41 73.87 31.58 70.70 33.01 C 71.48 30.62 73.63 29.07 75.24 27.25 Z" />
</g>
<g id="#7c8a83ff">
<path fill="#7c8a83" opacity="1.00" d=" M 178.00 23.63 C 181.10 25.15 183.76 27.88 185.30 30.97 C 182.11 29.42 179.68 26.71 178.00 23.63 Z" />
</g>
<g id="#526257ff">
<path fill="#526257" opacity="1.00" d=" M 202.95 82.99 C 202.96 80.56 203.26 78.15 203.59 75.75 C 204.18 79.49 204.03 83.29 204.02 87.06 C 204.01 121.71 204.01 156.35 204.02 190.99 C 204.08 192.05 203.90 193.06 203.48 194.03 L 203.20 192.96 C 203.06 191.62 202.98 190.29 202.95 188.95 C 203.01 153.63 202.95 118.31 202.95 82.99 Z" />
</g>
<g id="#8f9296ff">
<path fill="#8f9296" opacity="1.00" d=" M 54.33 79.69 C 54.59 112.79 54.36 145.90 54.44 179.01 C 54.53 183.62 54.14 188.26 54.69 192.85 C 104.19 193.06 153.70 192.86 203.20 192.96 L 203.48 194.03 C 153.61 193.95 103.74 194.05 53.87 193.98 C 53.62 192.02 53.70 190.03 53.69 188.06 C 53.71 152.71 53.71 117.36 53.69 82.01 C 53.85 81.43 54.17 80.27 54.33 79.69 Z" />
</g>
<g id="#a5a3adff">
<path fill="#a5a3ad" opacity="1.00" d=" M 85.04 89.01 L 86.00 88.89 C 86.01 103.48 85.97 118.07 86.02 132.65 L 85.08 133.38 C 84.92 118.59 84.99 103.80 85.04 89.01 Z" />
</g>
<g id="#86908dff">
<path fill="#86908d" opacity="1.00" d=" M 129.03 89.07 L 130.00 88.82 C 130.05 103.15 129.92 117.48 130.07 131.80 L 130.78 132.53 C 133.13 132.75 135.49 132.73 137.85 132.68 C 138.24 131.15 138.20 129.55 138.22 127.99 C 138.17 114.96 138.20 101.93 138.19 88.90 L 139.14 89.00 C 139.49 102.32 139.17 115.66 139.29 128.99 C 139.15 130.51 139.53 132.21 138.75 133.60 C 135.61 133.46 131.98 134.44 129.14 132.91 C 128.70 118.32 128.94 103.68 129.03 89.07 Z" />
</g>
<g id="#49754aff">
<path fill="#49754a" opacity="1.00" d=" M 130.00 88.82 L 131.07 89.01 C 130.83 103.52 131.33 118.04 130.78 132.53 L 130.07 131.80 C 129.92 117.48 130.05 103.15 130.00 88.82 Z" />
</g>
<g id="#828b89ff">
<path fill="#828b89" opacity="1.00" d=" M 146.60 94.04 C 146.76 92.27 146.05 90.04 147.79 88.85 C 147.81 101.91 147.81 114.97 147.77 128.03 C 147.79 129.58 147.74 131.16 148.21 132.66 C 150.57 132.68 152.94 132.78 155.28 132.45 C 156.75 127.28 155.38 121.44 155.97 116.01 C 160.67 115.96 165.37 116.04 170.07 115.97 L 170.11 117.00 C 165.80 117.49 161.46 117.00 157.14 117.25 C 156.43 122.59 157.94 128.40 156.38 133.46 C 153.29 133.68 149.41 134.62 146.74 133.00 C 146.48 120.02 146.77 107.02 146.60 94.04 Z" />
</g>
<g id="#8e9994ff">
<path fill="#8e9994" opacity="1.00" d=" M 94.16 96.17 C 98.61 95.95 103.13 95.79 107.56 96.28 L 108.16 96.82 C 103.81 97.07 99.45 96.77 95.10 97.07 C 94.91 100.33 94.90 103.59 95.08 106.85 C 99.43 107.14 103.79 106.85 108.14 107.08 L 107.69 107.79 C 103.20 108.20 98.64 107.98 94.13 107.92 C 93.94 104.01 93.89 100.07 94.16 96.17 Z" />
</g>
<g id="#8c9194ff">
<path fill="#8c9194" opacity="1.00" d=" M 156.06 96.15 C 159.27 95.96 162.52 95.82 165.71 96.24 L 166.13 96.95 C 163.09 97.06 160.03 96.88 156.99 97.21 C 156.63 100.75 156.65 104.32 157.00 107.86 C 160.77 108.07 164.54 107.94 168.32 108.02 L 168.26 109.00 C 164.16 109.00 160.06 109.01 155.97 108.99 C 155.94 104.71 155.76 100.42 156.06 96.15 Z" />
</g>
<g id="#8c9294ff">
<path fill="#8c9294" opacity="1.00" d=" M 108.85 96.82 C 112.16 96.73 114.47 102.37 112.15 104.16 C 112.30 101.25 110.81 98.83 108.85 96.82 Z" />
</g>
<g id="#808c87ff">
<path fill="#808c87" opacity="1.00" d=" M 166.78 96.97 C 169.44 96.35 171.93 98.74 172.12 101.31 C 170.35 99.85 168.59 98.38 166.78 96.97 Z" />
</g>
<g id="#8c8796ff">
<path fill="#8c8796" opacity="1.00" d=" M 180.91 99.09 L 181.80 99.20 C 182.24 101.69 182.29 104.31 181.64 106.77 L 180.67 106.65 C 181.15 104.16 181.02 101.61 180.91 99.09 Z" />
</g>
<g id="#8f9c95ff">
<path fill="#8f9c95" opacity="1.00" d=" M 94.21 114.10 C 95.97 113.90 97.80 113.86 99.49 114.48 C 98.04 114.92 96.56 115.17 95.03 115.21 C 94.80 121.20 95.16 127.20 94.92 133.19 L 93.88 132.59 C 94.34 126.44 93.65 120.25 94.21 114.10 Z" />
</g>
<g id="#83868cff">
<path fill="#83868c" opacity="1.00" d=" M 111.22 127.48 C 112.67 129.11 113.46 131.49 115.43 132.55 C 118.18 132.78 120.95 132.74 123.70 132.54 C 123.74 132.09 123.82 131.18 123.86 130.72 L 124.71 130.19 C 125.25 131.05 125.64 131.96 125.91 132.93 C 122.45 134.82 118.10 133.67 114.29 133.69 C 112.80 132.02 110.51 129.92 111.22 127.48 Z" />
</g>
<g id="#47654aff">
<path fill="#47654a" opacity="1.00" d=" M 44.21 178.77 L 44.81 179.32 C 45.25 184.43 45.18 189.61 44.87 194.73 L 44.13 195.22 C 43.87 189.74 43.95 184.25 44.21 178.77 Z" />
</g>
<g id="#82808cff">
<path fill="#82808c" opacity="1.00" d=" M 212.77 178.71 C 213.86 178.83 215.23 180.07 214.90 181.24 C 212.94 186.41 213.75 192.14 214.75 197.44 C 213.87 196.50 212.39 195.59 212.76 194.08 C 212.84 188.95 212.58 183.83 212.77 178.71 Z" />
</g>
<g id="#7d9583ff">
<path fill="#7d9583" opacity="1.00" d=" M 35.03 206.76 C 35.09 205.59 35.85 204.84 36.81 204.31 C 36.93 204.73 37.16 205.56 37.28 205.98 C 98.11 206.01 158.94 206.06 219.77 205.97 C 219.86 205.50 220.04 204.58 220.13 204.12 C 221.15 204.75 222.05 205.57 222.08 206.87 C 216.72 207.20 211.36 206.94 206.00 207.01 C 150.32 207.02 94.64 207.01 38.96 207.02 C 37.65 206.99 36.33 206.91 35.03 206.76 Z" />
</g>
<g id="#878691ff">
<path fill="#878691" opacity="1.00" d=" M 20.99 205.99 L 22.16 205.47 C 21.81 220.64 22.05 235.82 22.00 250.99 L 20.81 250.95 C 20.88 235.97 20.52 220.95 20.99 205.99 Z" />
</g>
<g id="#7d8b84ff">
<path fill="#7d8b84" opacity="1.00" d=" M 234.96 205.50 L 236.07 205.91 C 236.10 220.91 236.17 235.92 236.03 250.92 L 234.99 250.97 C 234.98 235.82 234.99 220.66 234.96 205.50 Z" />
</g>
</svg>
