<?xml version="1.0" encoding="UTF-8" ?>
<!DOCTYPE svg PUBLIC "-//W3C//DTD SVG 1.1//EN" "http://www.w3.org/Graphics/SVG/1.1/DTD/svg11.dtd">
<svg width="256pt" height="256pt" viewBox="0 0 256 256" version="1.1" xmlns="http://www.w3.org/2000/svg">
<g id="#7f837eff">
<path fill="#7f837e" opacity="1.00" d=" M 0.00 0.00 L 64.92 0.00 C 64.33 0.79 63.76 1.60 63.20 2.41 C 60.85 2.95 58.46 3.44 56.04 3.45 C 38.41 3.49 20.79 3.23 3.17 3.56 C 3.21 22.86 3.26 42.15 3.15 61.44 L 3.18 62.56 C 2.10 62.11 1.04 61.63 0.00 61.10 L 0.00 0.00 Z" />
<path fill="#7f837e" opacity="1.00" d=" M 191.55 63.53 C 192.28 63.57 193.74 63.65 194.46 63.68 C 214.97 64.34 235.52 63.15 256.00 64.33 L 256.00 67.33 C 254.68 67.35 253.35 67.37 252.04 67.39 C 233.08 67.55 214.12 67.21 195.16 67.55 C 195.28 81.13 195.07 94.70 195.30 108.28 C 192.00 108.75 188.69 109.04 185.37 109.19 C 185.99 108.87 187.23 108.24 187.85 107.92 C 189.18 107.98 190.51 108.03 191.84 108.10 C 191.78 106.69 191.74 105.29 191.68 103.89 L 191.67 103.55 C 191.88 91.54 191.84 79.53 191.72 67.53 C 191.67 66.20 191.61 64.86 191.55 63.53 Z" />
<path fill="#7f837e" opacity="1.00" d=" M 127.82 136.02 C 128.48 136.01 129.81 135.99 130.47 135.98 C 131.54 140.44 131.21 145.04 130.83 149.56 C 129.86 148.68 128.86 147.84 127.83 147.05 C 127.79 143.37 127.79 139.70 127.82 136.02 Z" />
<path fill="#7f837e" opacity="1.00" d=" M 125.85 175.15 C 128.06 173.67 130.16 172.01 131.94 170.03 C 130.48 172.38 130.98 175.19 131.03 177.80 C 130.34 178.04 128.98 178.51 128.29 178.75 C 128.19 177.65 127.98 175.45 127.87 174.35 C 127.37 174.55 126.36 174.95 125.85 175.15 Z" />
</g>
<g id="#5d615cff">
<path fill="#5d615c" opacity="1.00" d=" M 64.92 0.00 L 125.08 0.00 C 124.84 0.83 124.36 2.50 124.12 3.33 C 105.18 3.64 86.24 3.37 67.30 3.44 C 67.09 22.76 67.37 42.08 67.16 61.40 C 66.22 61.51 64.35 61.75 63.41 61.86 C 63.33 42.59 63.31 23.31 63.43 4.04 C 62.46 4.01 61.49 3.98 60.52 3.95 C 60.57 23.13 60.63 42.31 60.48 61.49 C 41.37 61.58 22.26 61.70 3.15 61.44 C 3.26 42.15 3.21 22.86 3.17 3.56 C 20.79 3.23 38.41 3.49 56.04 3.45 C 58.46 3.44 60.85 2.95 63.20 2.41 C 63.76 1.60 64.33 0.79 64.92 0.00 Z" />
<path fill="#5d615c" opacity="1.00" d=" M 131.22 63.26 C 150.40 63.50 169.58 63.23 188.77 63.39 C 188.70 64.38 188.57 66.38 188.51 67.38 C 169.43 67.58 150.35 67.40 131.28 67.45 C 131.19 72.47 131.21 77.48 131.24 82.50 C 130.35 82.59 128.56 82.77 127.66 82.86 C 127.58 77.93 127.58 73.00 127.58 68.07 C 126.85 67.91 125.40 67.60 124.67 67.45 C 124.10 72.69 124.39 77.97 124.27 83.23 C 122.65 83.38 121.03 83.51 119.41 83.63 C 118.83 85.18 118.26 86.73 117.69 88.29 C 112.29 88.48 106.85 87.90 101.48 88.61 C 98.80 88.85 97.49 91.33 96.24 93.36 C 86.55 93.44 76.85 93.36 67.16 93.41 C 67.26 84.80 67.21 76.20 67.15 67.60 C 85.38 67.18 103.64 67.59 121.87 67.40 C 125.47 67.44 128.44 65.25 131.22 63.26 Z" />
<path fill="#5d615c" opacity="1.00" d=" M 195.16 67.55 C 214.12 67.21 233.08 67.55 252.04 67.39 C 252.66 78.25 252.23 89.14 252.32 100.02 C 252.17 108.48 252.60 116.95 252.22 125.42 C 249.44 125.29 246.68 125.03 243.93 124.60 C 246.30 117.39 250.20 110.64 251.29 103.06 C 232.63 104.82 213.95 106.41 195.30 108.28 C 195.07 94.70 195.28 81.13 195.16 67.55 Z" />
<path fill="#5d615c" opacity="1.00" d=" M 64.38 97.28 C 74.24 97.13 84.11 97.26 93.98 97.18 C 97.16 96.93 99.84 99.11 102.97 99.13 C 106.47 99.26 109.98 99.10 113.49 99.17 C 112.65 102.51 111.57 105.79 110.39 109.03 C 114.93 108.99 119.45 108.67 123.96 108.18 C 124.21 110.33 124.46 112.48 124.72 114.64 C 105.44 116.48 86.16 118.39 66.88 120.22 C 67.37 112.88 67.27 105.52 67.12 98.18 C 66.29 97.99 64.64 97.60 63.81 97.41 L 64.38 97.28 Z" />
<path fill="#5d615c" opacity="1.00" d=" M 127.84 107.98 C 128.66 107.96 130.31 107.92 131.13 107.90 C 131.15 109.94 131.18 111.98 131.21 114.02 C 130.28 114.10 128.44 114.26 127.52 114.34 C 127.62 112.22 127.73 110.10 127.84 107.98 Z" />
<path fill="#5d615c" opacity="1.00" d=" M 169.38 134.23 C 176.72 132.75 181.81 140.49 188.98 140.31 C 205.29 140.25 221.61 139.99 237.91 140.39 C 236.32 140.86 234.66 141.04 233.01 141.05 C 220.41 140.98 207.82 140.97 195.22 141.03 C 194.33 141.06 192.55 141.12 191.66 141.14 C 190.55 141.18 189.45 141.23 188.35 141.28 C 188.31 144.65 188.35 148.02 188.47 151.39 C 184.70 156.24 184.65 163.73 188.48 168.56 C 190.21 170.78 192.83 172.02 195.35 173.10 C 195.26 175.06 195.18 177.02 195.09 178.99 C 172.60 178.98 150.11 179.05 127.62 178.95 L 128.29 178.75 C 128.98 178.51 130.34 178.04 131.03 177.80 C 130.98 175.19 130.48 172.38 131.94 170.03 C 136.35 163.87 135.69 155.26 130.83 149.56 C 131.21 145.04 131.54 140.44 130.47 135.98 C 135.29 135.94 140.13 135.86 144.94 135.43 C 153.07 134.59 161.27 135.27 169.38 134.23 M 157.33 144.39 C 147.23 146.35 140.72 158.79 145.99 167.93 C 150.44 177.23 164.05 179.39 171.49 172.52 C 176.47 168.37 177.61 161.11 175.86 155.13 C 173.50 147.60 165.05 142.65 157.33 144.39 Z" />
<path fill="#5d615c" opacity="1.00" d=" M 63.77 170.67 C 65.24 172.06 66.81 173.34 68.48 174.48 C 67.78 175.97 67.10 177.46 66.43 178.97 C 65.74 178.97 64.36 178.98 63.67 178.98 C 63.69 176.21 63.73 173.44 63.77 170.67 Z" />
<path fill="#5d615c" opacity="1.00" d=" M 191.61 187.03 C 192.70 187.01 193.79 187.00 194.88 187.00 C 195.05 187.47 195.39 188.42 195.56 188.90 C 195.15 189.90 194.74 190.90 194.34 191.91 C 193.77 191.96 192.63 192.07 192.07 192.12 C 192.02 193.20 191.98 194.27 191.94 195.35 C 190.63 195.37 189.33 195.40 188.03 195.42 C 169.09 195.67 150.13 195.19 131.19 195.66 C 131.28 214.89 131.13 234.12 131.30 253.35 C 130.39 253.33 128.58 253.29 127.67 253.27 C 127.40 234.18 127.59 215.09 127.61 195.99 C 126.51 195.93 125.40 195.87 124.30 195.82 C 124.29 214.95 124.58 234.09 124.20 253.22 C 105.20 253.46 86.18 253.51 67.18 253.18 C 67.23 233.97 67.26 214.77 67.14 195.57 C 85.39 195.19 103.65 195.59 121.90 195.41 C 125.33 195.46 128.44 193.72 130.63 191.16 C 143.73 191.48 156.84 191.22 169.95 191.31 C 176.86 191.20 183.78 191.63 190.66 190.97 C 190.98 189.65 191.29 188.34 191.61 187.03 Z" />
<path fill="#5d615c" opacity="1.00" d=" M 195.13 195.56 C 214.11 195.20 233.09 195.58 252.06 195.39 C 252.61 205.59 252.23 215.81 252.34 226.02 C 252.22 235.07 252.59 244.13 252.17 253.19 C 233.15 253.51 214.12 253.39 195.10 253.21 C 195.33 234.00 195.20 214.78 195.13 195.56 Z" />
</g>
<g id="#3f433eff">
<path fill="#3f433e" opacity="1.00" d=" M 125.08 0.00 L 127.68 0.00 C 127.70 1.19 127.72 2.38 127.75 3.57 C 126.80 3.57 125.85 3.58 124.91 3.59 C 124.22 9.70 124.64 15.85 124.57 21.99 C 124.54 35.16 124.59 48.34 124.57 61.51 C 105.80 61.67 87.03 61.33 68.26 61.66 C 67.82 62.16 66.92 63.16 66.48 63.66 C 65.74 63.63 64.28 63.56 63.54 63.53 C 63.61 64.82 63.68 66.12 63.74 67.42 C 62.59 67.61 61.45 67.81 60.31 68.01 C 60.24 76.45 60.48 84.90 60.22 93.34 C 41.82 93.35 23.42 93.35 5.01 93.34 C 5.01 94.65 5.01 95.97 5.00 97.28 C 24.79 97.29 44.58 97.29 64.38 97.28 L 63.81 97.41 C 62.66 97.71 61.52 98.03 60.38 98.36 C 60.20 105.86 60.48 113.37 60.20 120.88 C 58.20 121.04 56.19 121.04 54.22 121.42 C 52.05 122.64 50.50 124.68 48.72 126.37 C 44.85 125.57 40.90 125.36 36.96 125.49 C 25.62 125.72 14.26 125.24 2.93 125.75 C 3.71 106.34 2.96 86.88 3.29 67.45 C 22.36 67.38 41.43 67.59 60.50 67.37 C 60.57 66.38 60.70 64.39 60.77 63.40 C 45.18 63.29 29.60 63.35 14.01 63.39 C 10.41 63.32 6.63 63.83 3.18 62.56 L 3.15 61.44 C 22.26 61.70 41.37 61.58 60.48 61.49 C 60.63 42.31 60.57 23.13 60.52 3.95 C 61.49 3.98 62.46 4.01 63.43 4.04 C 63.31 23.31 63.33 42.59 63.41 61.86 C 64.35 61.75 66.22 61.51 67.16 61.40 C 67.37 42.08 67.09 22.76 67.30 3.44 C 86.24 3.37 105.18 3.64 124.12 3.33 C 124.36 2.50 124.84 0.83 125.08 0.00 Z" />
<path fill="#3f433e" opacity="1.00" d=" M 131.13 107.90 C 150.42 106.43 169.74 105.54 189.03 104.06 C 188.59 105.34 188.22 106.63 187.85 107.92 C 187.23 108.24 185.99 108.87 185.37 109.19 C 167.30 110.54 149.26 112.39 131.21 114.02 C 131.18 111.98 131.15 109.94 131.13 107.90 Z" />
<path fill="#3f433e" opacity="1.00" d=" M 241.08 132.06 C 244.75 131.97 248.41 131.88 252.08 131.74 C 252.56 150.88 252.39 170.04 252.20 189.18 C 246.47 189.48 240.74 189.36 235.01 189.33 C 221.86 189.10 208.68 189.83 195.56 188.90 C 195.39 188.42 195.05 187.47 194.88 187.00 C 201.84 186.94 208.80 187.16 215.76 186.91 L 216.34 186.08 C 220.99 178.18 225.78 170.33 229.77 162.07 C 225.89 157.15 222.39 151.95 218.54 147.02 C 217.13 148.29 215.72 149.57 214.33 150.86 C 216.77 154.10 219.30 157.26 221.67 160.55 C 222.07 161.37 223.23 162.33 222.49 163.29 C 219.74 168.52 216.55 173.52 213.91 178.81 C 207.64 179.10 201.36 178.92 195.09 178.99 C 195.18 177.02 195.26 175.06 195.35 173.10 C 201.61 174.50 208.77 171.11 210.89 164.90 C 213.31 159.12 211.01 151.75 205.51 148.64 C 202.46 146.55 198.60 146.61 195.08 147.05 C 195.12 145.05 195.17 143.04 195.22 141.03 C 207.82 140.97 220.41 140.98 233.01 141.05 C 234.66 141.04 236.32 140.86 237.91 140.39 C 239.08 137.66 240.04 134.84 241.08 132.06 Z" />
<path fill="#3f433e" opacity="1.00" d=" M 99.10 137.52 C 107.50 136.55 115.98 137.33 124.38 136.30 C 124.39 139.22 124.40 142.14 124.39 145.06 C 117.55 142.37 109.25 145.13 105.28 151.27 C 100.73 158.06 102.04 168.37 108.70 173.34 C 113.48 177.15 120.34 177.43 125.85 175.15 C 126.36 174.95 127.37 174.55 127.87 174.35 C 127.98 175.45 128.19 177.65 128.29 178.75 L 127.62 178.95 C 107.22 179.00 86.83 178.96 66.43 178.97 C 67.10 177.46 67.78 175.97 68.48 174.48 C 75.65 178.53 85.90 176.75 90.41 169.56 C 95.93 161.62 92.42 149.40 83.55 145.57 C 78.35 142.96 72.00 143.88 67.33 147.18 C 67.26 144.43 67.19 141.69 67.12 138.95 C 70.75 138.91 74.38 138.74 78.00 138.39 C 85.01 137.64 92.08 138.25 99.10 137.52 Z" />
<path fill="#3f433e" opacity="1.00" d=" M 130.73 187.10 C 151.02 187.14 171.32 187.27 191.61 187.03 C 191.29 188.34 190.98 189.65 190.66 190.97 C 183.78 191.63 176.86 191.20 169.95 191.31 C 156.84 191.22 143.73 191.48 130.63 191.16 C 130.95 190.49 131.60 189.14 131.92 188.46 C 142.95 189.13 154.00 188.59 165.03 188.76 C 172.87 188.60 180.73 189.16 188.55 188.43 C 175.72 188.08 162.88 188.33 150.04 188.26 C 143.60 188.14 137.01 188.99 130.73 187.10 Z" />
<path fill="#3f433e" opacity="1.00" d=" M 131.19 195.66 C 150.13 195.19 169.09 195.67 188.03 195.42 C 188.61 205.60 188.21 215.79 188.33 225.98 C 188.22 235.05 188.58 244.11 188.18 253.17 C 169.23 253.59 150.26 253.21 131.30 253.35 C 131.13 234.12 131.28 214.89 131.19 195.66 Z" />
</g>
<g id="#7e827dff">
<path fill="#7e827d" opacity="1.00" d=" M 127.68 0.00 L 188.84 0.00 C 188.70 1.10 188.55 2.19 188.42 3.29 C 169.37 3.65 150.32 3.33 131.27 3.44 C 131.15 22.75 131.25 42.07 131.22 61.38 C 131.22 61.85 131.22 62.79 131.22 63.26 C 128.44 65.25 125.47 67.44 121.87 67.40 C 103.64 67.59 85.38 67.18 67.15 67.60 C 67.21 76.20 67.26 84.80 67.16 93.41 C 66.32 93.40 64.65 93.39 63.81 93.38 C 63.81 84.72 63.96 76.07 63.74 67.42 C 63.68 66.12 63.61 64.82 63.54 63.53 C 64.28 63.56 65.74 63.63 66.48 63.66 C 86.92 63.99 107.38 63.66 127.83 63.83 C 127.72 43.74 127.88 23.65 127.75 3.57 C 127.72 2.38 127.70 1.19 127.68 0.00 Z" />
<path fill="#7e827d" opacity="1.00" d=" M 63.81 97.41 C 64.64 97.60 66.29 97.99 67.12 98.18 C 67.27 105.52 67.37 112.88 66.88 120.22 C 66.11 120.30 64.57 120.45 63.81 120.52 C 63.87 112.82 63.86 105.11 63.81 97.41 Z" />
<path fill="#7e827d" opacity="1.00" d=" M 128.20 187.01 C 129.04 187.02 129.88 187.06 130.73 187.10 C 137.01 188.99 143.60 188.14 150.04 188.26 C 162.88 188.33 175.72 188.08 188.55 188.43 C 180.73 189.16 172.87 188.60 165.03 188.76 C 154.00 188.59 142.95 189.13 131.92 188.46 C 131.60 189.14 130.95 190.49 130.63 191.16 C 128.44 193.72 125.33 195.46 121.90 195.41 C 103.65 195.59 85.39 195.19 67.14 195.57 C 67.26 214.77 67.23 233.97 67.18 253.18 C 67.15 253.88 67.11 255.29 67.09 256.00 L 64.19 256.00 C 63.33 235.80 64.20 215.55 63.73 195.34 C 63.67 194.06 63.60 192.79 63.53 191.52 C 85.05 192.69 106.66 191.39 128.20 192.27 C 128.20 190.51 128.20 188.76 128.20 187.01 Z" />
<path fill="#7e827d" opacity="1.00" d=" M 192.07 192.12 C 192.63 192.07 193.77 191.96 194.34 191.91 C 214.89 191.76 235.45 191.86 256.00 191.87 L 256.00 195.35 C 254.68 195.36 253.37 195.38 252.06 195.39 C 233.09 195.58 214.11 195.20 195.13 195.56 C 195.20 214.78 195.33 234.00 195.10 253.21 C 194.95 253.90 194.64 255.30 194.49 256.00 L 192.19 256.00 C 191.91 252.01 191.77 248.01 191.82 244.02 C 191.93 227.80 191.70 211.57 191.94 195.35 C 191.98 194.27 192.02 193.20 192.07 192.12 Z" />
</g>
<g id="#5c605bff">
<path fill="#5c605b" opacity="1.00" d=" M 188.84 0.00 L 256.00 0.00 L 256.00 3.36 C 254.68 3.39 253.37 3.42 252.06 3.44 C 233.12 3.71 214.17 3.23 195.23 3.68 C 195.19 22.92 195.33 42.17 195.17 61.42 C 194.22 61.52 192.33 61.73 191.39 61.84 C 191.28 42.67 191.32 23.50 191.39 4.33 C 190.44 4.22 189.49 4.11 188.55 4.00 C 188.86 12.98 188.42 21.96 188.99 30.93 C 188.38 41.15 188.70 51.38 188.65 61.61 C 169.51 61.49 150.35 61.95 131.22 61.38 C 131.25 42.07 131.15 22.75 131.27 3.44 C 150.32 3.33 169.37 3.65 188.42 3.29 C 188.55 2.19 188.70 1.10 188.84 0.00 Z" />
<path fill="#5c605b" opacity="1.00" d=" M 3.28 131.44 C 16.71 131.49 30.15 131.27 43.57 131.56 C 40.42 134.41 37.22 137.20 34.22 140.21 C 35.69 140.11 37.16 140.00 38.63 139.89 C 41.42 139.93 44.21 140.06 46.99 140.26 C 41.65 147.04 36.43 153.92 31.17 160.75 C 38.70 169.19 46.67 177.24 54.00 185.86 C 54.26 186.11 54.79 186.62 55.05 186.87 C 57.02 187.00 59.00 187.03 60.98 187.07 C 60.81 187.70 60.46 188.97 60.29 189.61 C 41.31 189.88 22.31 189.17 3.36 189.97 C 4.34 190.94 5.57 191.56 6.99 191.39 C 24.92 191.30 42.85 191.31 60.78 191.36 C 60.72 192.36 60.58 194.37 60.51 195.37 C 41.45 195.58 22.37 195.39 3.30 195.45 C 3.15 214.69 3.38 233.93 3.20 253.16 C 3.17 253.87 3.12 255.29 3.09 256.00 L 0.00 256.00 L 0.00 190.14 C 1.02 189.80 2.05 189.51 3.08 189.21 C 3.50 169.96 3.07 150.70 3.28 131.44 Z" />
<path fill="#5c605b" opacity="1.00" d=" M 54.74 139.50 C 56.55 139.32 58.36 139.13 60.18 139.03 C 60.32 145.16 60.43 151.29 60.52 157.42 C 60.45 159.46 60.45 161.51 60.52 163.55 C 60.52 168.71 60.23 173.86 60.16 179.01 C 59.37 179.03 57.79 179.07 56.99 179.09 C 50.83 172.81 44.50 166.68 38.52 160.22 C 43.71 153.15 49.41 146.47 54.74 139.50 Z" />
<path fill="#5c605b" opacity="1.00" d=" M 63.71 138.97 C 64.56 138.96 66.27 138.95 67.12 138.95 C 67.19 141.69 67.26 144.43 67.33 147.18 C 66.13 148.16 64.99 149.21 63.90 150.31 C 63.62 146.53 63.57 142.75 63.71 138.97 Z" />
<path fill="#5c605b" opacity="1.00" d=" M 191.66 141.14 C 192.55 141.12 194.33 141.06 195.22 141.03 C 195.17 143.04 195.12 145.05 195.08 147.05 C 193.95 147.49 192.85 147.97 191.77 148.49 C 191.73 146.04 191.69 143.59 191.66 141.14 Z" />
</g>
<g id="#272b26ff">
<path fill="#272b26" opacity="1.00" d=" M 124.91 3.59 C 125.85 3.58 126.80 3.57 127.75 3.57 C 127.88 23.65 127.72 43.74 127.83 63.83 C 107.38 63.66 86.92 63.99 66.48 63.66 C 66.92 63.16 67.82 62.16 68.26 61.66 C 87.03 61.33 105.80 61.67 124.57 61.51 C 124.59 48.34 124.54 35.16 124.57 21.99 C 124.64 15.85 124.22 9.70 124.91 3.59 Z" />
<path fill="#272b26" opacity="1.00" d=" M 188.59 67.79 C 189.63 67.70 190.67 67.62 191.72 67.53 C 191.84 79.53 191.88 91.54 191.67 103.55 C 190.45 101.26 189.12 99.03 187.82 96.78 C 189.19 87.17 188.02 77.45 188.59 67.79 Z" />
<path fill="#272b26" opacity="1.00" d=" M 189.03 104.06 C 189.69 104.02 191.02 103.94 191.68 103.89 C 191.74 105.29 191.78 106.69 191.84 108.10 C 190.51 108.03 189.18 107.98 187.85 107.92 C 188.22 106.63 188.59 105.34 189.03 104.06 Z" />
<path fill="#272b26" opacity="1.00" d=" M 2.93 125.75 C 14.26 125.24 25.62 125.72 36.96 125.49 C 40.90 125.36 44.85 125.57 48.72 126.37 C 48.38 126.71 47.71 127.40 47.37 127.74 C 32.46 127.92 17.55 127.64 2.65 127.86 C 2.72 127.33 2.86 126.28 2.93 125.75 Z" />
<path fill="#272b26" opacity="1.00" d=" M 124.38 136.30 C 125.52 136.19 126.67 136.08 127.82 136.02 C 127.79 139.70 127.79 143.37 127.83 147.05 C 126.71 146.33 125.57 145.67 124.39 145.06 C 124.40 142.14 124.39 139.22 124.38 136.30 Z" />
</g>
<g id="#2c302bff">
<path fill="#2c302b" opacity="1.00" d=" M 252.06 3.44 C 253.37 3.42 254.68 3.39 256.00 3.36 L 256.00 64.33 C 235.52 63.15 214.97 64.34 194.46 63.68 C 195.10 62.93 195.75 62.19 196.39 61.44 C 214.99 61.06 233.60 61.68 252.19 61.17 C 252.40 41.94 252.61 22.67 252.06 3.44 Z" />
<path fill="#2c302b" opacity="1.00" d=" M 60.31 68.01 C 61.45 67.81 62.59 67.61 63.74 67.42 C 63.96 76.07 63.81 84.72 63.81 93.38 C 62.61 93.36 61.42 93.35 60.22 93.34 C 60.48 84.90 60.24 76.45 60.31 68.01 Z" />
<path fill="#2c302b" opacity="1.00" d=" M 60.38 98.36 C 61.52 98.03 62.66 97.71 63.81 97.41 C 63.86 105.11 63.87 112.82 63.81 120.52 C 62.60 120.65 61.40 120.78 60.20 120.88 C 60.48 113.37 60.20 105.86 60.38 98.36 Z" />
<path fill="#2c302b" opacity="1.00" d=" M 252.08 131.74 C 253.38 131.69 254.69 131.63 256.00 131.57 L 256.00 191.87 C 235.45 191.86 214.89 191.76 194.34 191.91 C 194.74 190.90 195.15 189.90 195.56 188.90 C 208.68 189.83 221.86 189.10 235.01 189.33 C 240.74 189.36 246.47 189.48 252.20 189.18 C 252.39 170.04 252.56 150.88 252.08 131.74 Z" />
<path fill="#2c302b" opacity="1.00" d=" M 60.30 196.07 C 61.45 195.83 62.59 195.58 63.73 195.34 C 64.20 215.55 63.33 235.80 64.19 256.00 L 3.09 256.00 C 3.12 255.29 3.17 253.87 3.20 253.16 C 22.18 253.46 41.18 253.46 60.17 253.20 C 60.57 234.16 60.26 215.11 60.30 196.07 Z" />
<path fill="#2c302b" opacity="1.00" d=" M 188.03 195.42 C 189.33 195.40 190.63 195.37 191.94 195.35 C 191.70 211.57 191.93 227.80 191.82 244.02 C 191.77 248.01 191.91 252.01 192.19 256.00 L 131.00 256.00 C 131.08 255.34 131.23 254.01 131.30 253.35 C 150.26 253.21 169.23 253.59 188.18 253.17 C 188.58 244.11 188.22 235.05 188.33 225.98 C 188.21 215.79 188.61 205.60 188.03 195.42 Z" />
</g>
<g id="#3f423eff">
<path fill="#3f423e" opacity="1.00" d=" M 188.55 4.00 C 189.49 4.11 190.44 4.22 191.39 4.33 C 191.32 23.50 191.28 42.67 191.39 61.84 C 192.33 61.73 194.22 61.52 195.17 61.42 C 195.33 42.17 195.19 22.92 195.23 3.68 C 214.17 3.23 233.12 3.71 252.06 3.44 C 252.61 22.67 252.40 41.94 252.19 61.17 C 233.60 61.68 214.99 61.06 196.39 61.44 C 195.75 62.19 195.10 62.93 194.46 63.68 C 193.74 63.65 192.28 63.57 191.55 63.53 C 191.61 64.86 191.67 66.20 191.72 67.53 C 190.67 67.62 189.63 67.70 188.59 67.79 C 188.02 77.45 189.19 87.17 187.82 96.78 C 183.88 90.45 180.42 83.83 176.37 77.57 C 175.42 77.80 173.52 78.26 172.57 78.49 C 172.45 76.96 172.33 75.44 172.22 73.91 C 169.06 72.10 165.81 69.85 161.99 70.14 C 156.76 70.27 151.50 69.83 146.30 70.43 C 143.93 73.47 145.35 77.72 145.07 81.28 C 140.43 81.38 135.84 82.03 131.24 82.50 C 131.21 77.48 131.19 72.47 131.28 67.45 C 150.35 67.40 169.43 67.58 188.51 67.38 C 188.57 66.38 188.70 64.38 188.77 63.39 C 169.58 63.23 150.40 63.50 131.22 63.26 C 131.22 62.79 131.22 61.85 131.22 61.38 C 150.35 61.95 169.51 61.49 188.65 61.61 C 188.70 51.38 188.38 41.15 188.99 30.93 C 188.42 21.96 188.86 12.98 188.55 4.00 Z" />
<path fill="#3f423e" opacity="1.00" d=" M 60.98 187.07 C 83.39 186.98 105.79 187.03 128.20 187.01 C 128.20 188.76 128.20 190.51 128.20 192.27 C 106.66 191.39 85.05 192.69 63.53 191.52 C 63.60 192.79 63.67 194.06 63.73 195.34 C 62.59 195.58 61.45 195.83 60.30 196.07 C 60.26 215.11 60.57 234.16 60.17 253.20 C 41.18 253.46 22.18 253.46 3.20 253.16 C 3.38 233.93 3.15 214.69 3.30 195.45 C 22.37 195.39 41.45 195.58 60.51 195.37 C 60.58 194.37 60.72 192.36 60.78 191.36 C 42.85 191.31 24.92 191.30 6.99 191.39 C 5.57 191.56 4.34 190.94 3.36 189.97 C 22.31 189.17 41.31 189.88 60.29 189.61 C 60.46 188.97 60.81 187.70 60.98 187.07 M 122.01 189.58 C 106.34 189.54 90.66 189.62 74.98 189.53 C 72.19 189.60 69.18 189.07 66.68 190.63 C 69.73 191.27 72.85 191.52 75.96 191.41 C 93.13 191.03 110.30 191.49 127.47 191.22 C 127.20 189.92 126.94 188.62 126.69 187.32 C 125.27 188.32 123.96 189.91 122.01 189.58 Z" />
</g>
<g id="#5c615bff">
<path fill="#5c615b" opacity="1.00" d=" M 0.00 61.10 C 1.04 61.63 2.10 62.11 3.18 62.56 C 6.63 63.83 10.41 63.32 14.01 63.39 C 29.60 63.35 45.18 63.29 60.77 63.40 C 60.70 64.39 60.57 66.38 60.50 67.37 C 41.43 67.59 22.36 67.38 3.29 67.45 C 2.96 86.88 3.71 106.34 2.93 125.75 C 2.86 126.28 2.72 127.33 2.65 127.86 C 1.99 127.89 0.66 127.94 0.00 127.96 L 0.00 61.10 Z" />
<path fill="#5c615b" opacity="1.00" d=" M 241.49 131.01 C 241.93 129.86 242.37 128.72 242.80 127.57 C 246.18 127.52 249.56 127.58 252.94 127.74 C 252.65 128.89 252.35 130.03 252.06 131.18 C 248.54 131.21 245.01 131.07 241.49 131.01 Z" />
</g>
<g id="#4a4e49ff">
<path fill="#4a4e49" opacity="1.00" d=" M 252.04 67.39 C 253.35 67.37 254.68 67.35 256.00 67.33 L 256.00 131.57 C 254.69 131.63 253.38 131.69 252.08 131.74 C 248.41 131.88 244.75 131.97 241.08 132.06 C 241.18 131.80 241.39 131.27 241.49 131.01 C 245.01 131.07 248.54 131.21 252.06 131.18 C 252.35 130.03 252.65 128.89 252.94 127.74 C 249.56 127.58 246.18 127.52 242.80 127.57 C 243.18 126.58 243.55 125.59 243.93 124.60 C 246.68 125.03 249.44 125.29 252.22 125.42 C 252.60 116.95 252.17 108.48 252.32 100.02 C 252.23 89.14 252.66 78.25 252.04 67.39 Z" />
<path fill="#4a4e49" opacity="1.00" d=" M 252.06 195.39 C 253.37 195.38 254.68 195.36 256.00 195.35 L 256.00 256.00 L 194.49 256.00 C 194.64 255.30 194.95 253.90 195.10 253.21 C 214.12 253.39 233.15 253.51 252.17 253.19 C 252.59 244.13 252.22 235.07 252.34 226.02 C 252.23 215.81 252.61 205.59 252.06 195.39 Z" />
</g>
<g id="#494d48ff">
<path fill="#494d48" opacity="1.00" d=" M 124.27 83.23 C 124.39 77.97 124.10 72.69 124.67 67.45 C 125.40 67.60 126.85 67.91 127.58 68.07 C 127.58 73.00 127.58 77.93 127.66 82.86 C 126.53 82.99 125.40 83.12 124.27 83.23 Z" />
<path fill="#494d48" opacity="1.00" d=" M 123.96 108.18 C 125.25 108.08 126.54 108.01 127.84 107.98 C 127.73 110.10 127.62 112.22 127.52 114.34 C 126.58 114.43 125.65 114.53 124.72 114.64 C 124.46 112.48 124.21 110.33 123.96 108.18 Z" />
<path fill="#494d48" opacity="1.00" d=" M 60.18 139.03 C 61.36 138.99 62.53 138.97 63.71 138.97 C 63.57 142.75 63.62 146.53 63.90 150.31 C 62.39 152.47 61.30 154.90 60.52 157.42 C 60.43 151.29 60.32 145.16 60.18 139.03 Z" />
<path fill="#494d48" opacity="1.00" d=" M 188.35 141.28 C 189.45 141.23 190.55 141.18 191.66 141.14 C 191.69 143.59 191.73 146.04 191.77 148.49 C 190.61 149.39 189.53 150.38 188.47 151.39 C 188.35 148.02 188.31 144.65 188.35 141.28 Z" />
<path fill="#494d48" opacity="1.00" d=" M 60.16 179.01 C 60.23 173.86 60.52 168.71 60.52 163.55 C 61.30 166.05 62.34 168.48 63.77 170.67 C 63.73 173.44 63.69 176.21 63.67 178.98 C 62.50 178.99 61.33 179.00 60.16 179.01 Z" />
<path fill="#494d48" opacity="1.00" d=" M 124.30 195.82 C 125.40 195.87 126.51 195.93 127.61 195.99 C 127.59 215.09 127.40 234.18 127.67 253.27 C 128.58 253.29 130.39 253.33 131.30 253.35 C 131.23 254.01 131.08 255.34 131.00 256.00 L 67.09 256.00 C 67.11 255.29 67.15 253.88 67.18 253.18 C 86.18 253.51 105.20 253.46 124.20 253.22 C 124.58 234.09 124.29 214.95 124.30 195.82 Z" />
</g>
<g id="#6eefffff">
<path fill="#6eefff" opacity="1.00" d=" M 146.30 70.43 C 151.50 69.83 156.76 70.27 161.99 70.14 C 165.81 69.85 169.06 72.10 172.22 73.91 C 172.33 75.44 172.45 76.96 172.57 78.49 C 173.52 78.26 175.42 77.80 176.37 77.57 C 180.42 83.83 183.88 90.45 187.82 96.78 C 189.12 99.03 190.45 101.26 191.67 103.55 L 191.68 103.89 C 191.02 103.94 189.69 104.02 189.03 104.06 C 169.74 105.54 150.42 106.43 131.13 107.90 C 130.31 107.92 128.66 107.96 127.84 107.98 C 126.54 108.01 125.25 108.08 123.96 108.18 C 119.45 108.67 114.93 108.99 110.39 109.03 C 111.57 105.79 112.65 102.51 113.49 99.17 C 109.98 99.10 106.47 99.26 102.97 99.13 C 99.84 99.11 97.16 96.93 93.98 97.18 C 84.11 97.26 74.24 97.13 64.38 97.28 C 44.58 97.29 24.79 97.29 5.00 97.28 C 5.01 95.97 5.01 94.65 5.01 93.34 C 23.42 93.35 41.82 93.35 60.22 93.34 C 61.42 93.35 62.61 93.36 63.81 93.38 C 64.65 93.39 66.32 93.40 67.16 93.41 C 76.85 93.36 86.55 93.44 96.24 93.36 C 97.49 91.33 98.80 88.85 101.48 88.61 C 106.85 87.90 112.29 88.48 117.69 88.29 C 118.26 86.73 118.83 85.18 119.41 83.63 C 121.03 83.51 122.65 83.38 124.27 83.23 C 125.40 83.12 126.53 82.99 127.66 82.86 C 128.56 82.77 130.35 82.59 131.24 82.50 C 135.84 82.03 140.43 81.38 145.07 81.28 C 145.35 77.72 143.93 73.47 146.30 70.43 Z" />
<path fill="#6eefff" opacity="1.00" d=" M 195.30 108.28 C 213.95 106.41 232.63 104.82 251.29 103.06 C 250.20 110.64 246.30 117.39 243.93 124.60 C 243.55 125.59 243.18 126.58 242.80 127.57 C 242.37 128.72 241.93 129.86 241.49 131.01 C 241.39 131.27 241.18 131.80 241.08 132.06 C 240.04 134.84 239.08 137.66 237.91 140.39 C 221.61 139.99 205.29 140.25 188.98 140.31 C 181.81 140.49 176.72 132.75 169.38 134.23 C 161.27 135.27 153.07 134.59 144.94 135.43 C 140.13 135.86 135.29 135.94 130.47 135.98 C 129.81 135.99 128.48 136.01 127.82 136.02 C 126.67 136.08 125.52 136.19 124.38 136.30 C 115.98 137.33 107.50 136.55 99.10 137.52 C 92.08 138.25 85.01 137.64 78.00 138.39 C 74.38 138.74 70.75 138.91 67.12 138.95 C 66.27 138.95 64.56 138.96 63.71 138.97 C 62.53 138.97 61.36 138.99 60.18 139.03 C 58.36 139.13 56.55 139.32 54.74 139.50 C 49.41 146.47 43.71 153.15 38.52 160.22 C 44.50 166.68 50.83 172.81 56.99 179.09 C 61.15 180.72 65.72 179.86 70.07 180.00 C 115.06 180.02 160.04 179.94 205.03 180.05 C 207.98 179.87 211.36 180.70 213.91 178.81 C 216.55 173.52 219.74 168.52 222.49 163.29 C 223.23 162.33 222.07 161.37 221.67 160.55 C 219.30 157.26 216.77 154.10 214.33 150.86 C 215.72 149.57 217.13 148.29 218.54 147.02 C 222.39 151.95 225.89 157.15 229.77 162.07 C 225.78 170.33 220.99 178.18 216.34 186.08 C 162.23 185.82 108.11 186.25 54.00 185.86 C 46.67 177.24 38.70 169.19 31.17 160.75 C 36.43 153.92 41.65 147.04 46.99 140.26 C 47.32 139.84 47.65 139.43 47.98 139.01 C 44.83 138.89 41.70 139.27 38.63 139.89 C 37.16 140.00 35.69 140.11 34.22 140.21 C 37.22 137.20 40.42 134.41 43.57 131.56 C 44.88 130.33 46.11 129.02 47.37 127.74 C 47.71 127.40 48.38 126.71 48.72 126.37 C 50.50 124.68 52.05 122.64 54.22 121.42 C 56.19 121.04 58.20 121.04 60.20 120.88 C 61.40 120.78 62.60 120.65 63.81 120.52 C 64.57 120.45 66.11 120.30 66.88 120.22 C 86.16 118.39 105.44 116.48 124.72 114.64 C 125.65 114.53 126.58 114.43 127.52 114.34 C 128.44 114.26 130.28 114.10 131.21 114.02 C 149.26 112.39 167.30 110.54 185.37 109.19 C 188.69 109.04 192.00 108.75 195.30 108.28 Z" />
<path fill="#6eefff" opacity="1.00" d=" M 67.33 147.18 C 72.00 143.88 78.35 142.96 83.55 145.57 C 92.42 149.40 95.93 161.62 90.41 169.56 C 85.90 176.75 75.65 178.53 68.48 174.48 C 66.81 173.34 65.24 172.06 63.77 170.67 C 62.34 168.48 61.30 166.05 60.52 163.55 C 60.45 161.51 60.45 159.46 60.52 157.42 C 61.30 154.90 62.39 152.47 63.90 150.31 C 64.99 149.21 66.13 148.16 67.33 147.18 Z" />
<path fill="#6eefff" opacity="1.00" d=" M 105.28 151.27 C 109.25 145.13 117.55 142.37 124.39 145.06 C 125.57 145.67 126.71 146.33 127.83 147.05 C 128.86 147.84 129.86 148.68 130.83 149.56 C 135.69 155.26 136.35 163.87 131.94 170.03 C 130.16 172.01 128.06 173.67 125.85 175.15 C 120.34 177.43 113.48 177.15 108.70 173.34 C 102.04 168.37 100.73 158.06 105.28 151.27 Z" />
<path fill="#6eefff" opacity="1.00" d=" M 157.33 144.39 C 165.05 142.65 173.50 147.60 175.86 155.13 C 177.61 161.11 176.47 168.37 171.49 172.52 C 164.05 179.39 150.44 177.23 145.99 167.93 C 140.72 158.79 147.23 146.35 157.33 144.39 Z" />
<path fill="#6eefff" opacity="1.00" d=" M 191.77 148.49 C 192.85 147.97 193.95 147.49 195.08 147.05 C 198.60 146.61 202.46 146.55 205.51 148.64 C 211.01 151.75 213.31 159.12 210.89 164.90 C 208.77 171.11 201.61 174.50 195.35 173.10 C 192.83 172.02 190.21 170.78 188.48 168.56 C 184.65 163.73 184.70 156.24 188.47 151.39 C 189.53 150.38 190.61 149.39 191.77 148.49 Z" />
</g>
<g id="#7d817cff">
<path fill="#7d817c" opacity="1.00" d=" M 0.00 127.96 C 0.66 127.94 1.99 127.89 2.65 127.86 C 17.55 127.64 32.46 127.92 47.37 127.74 C 46.11 129.02 44.88 130.33 43.57 131.56 C 30.15 131.27 16.71 131.49 3.28 131.44 C 3.07 150.70 3.50 169.96 3.08 189.21 C 2.05 189.51 1.02 189.80 0.00 190.14 L 0.00 127.96 Z" />
</g>
<g id="#8fe8eaff">
<path fill="#8fe8ea" opacity="1.00" d=" M 38.63 139.89 C 41.70 139.27 44.83 138.89 47.98 139.01 C 47.65 139.43 47.32 139.84 46.99 140.26 C 44.21 140.06 41.42 139.93 38.63 139.89 Z" />
</g>
<g id="#8eeaefff">
<path fill="#8eeaef" opacity="1.00" d=" M 56.99 179.09 C 57.79 179.07 59.37 179.03 60.16 179.01 C 61.33 179.00 62.50 178.99 63.67 178.98 C 64.36 178.98 65.74 178.97 66.43 178.97 C 86.83 178.96 107.22 179.00 127.62 178.95 C 150.11 179.05 172.60 178.98 195.09 178.99 C 201.36 178.92 207.64 179.10 213.91 178.81 C 211.36 180.70 207.98 179.87 205.03 180.05 C 160.04 179.94 115.06 180.02 70.07 180.00 C 65.72 179.86 61.15 180.72 56.99 179.09 Z" />
</g>
<g id="#91dee4ff">
<path fill="#91dee4" opacity="1.00" d=" M 54.00 185.86 C 108.11 186.25 162.23 185.82 216.34 186.08 L 215.76 186.91 C 208.80 187.16 201.84 186.94 194.88 187.00 C 193.79 187.00 192.70 187.01 191.61 187.03 C 171.32 187.27 151.02 187.14 130.73 187.10 C 129.88 187.06 129.04 187.02 128.20 187.01 C 105.79 187.03 83.39 186.98 60.98 187.07 C 59.00 187.03 57.02 187.00 55.05 186.87 C 54.79 186.62 54.26 186.11 54.00 185.86 Z" />
</g>
<g id="#252924ff">
<path fill="#252924" opacity="1.00" d=" M 122.01 189.58 C 123.96 189.91 125.27 188.32 126.69 187.32 C 126.94 188.62 127.20 189.92 127.47 191.22 C 110.30 191.49 93.13 191.03 75.96 191.41 C 72.85 191.52 69.73 191.27 66.68 190.63 C 69.18 189.07 72.19 189.60 74.98 189.53 C 90.66 189.62 106.34 189.54 122.01 189.58 Z" />
</g>
</svg>
