<?xml version="1.0" encoding="UTF-8" ?>
<!DOCTYPE svg PUBLIC "-//W3C//DTD SVG 1.1//EN" "http://www.w3.org/Graphics/SVG/1.1/DTD/svg11.dtd">
<svg width="256pt" height="256pt" viewBox="0 0 256 256" version="1.1" xmlns="http://www.w3.org/2000/svg">
<g id="#4b944aff">
<path fill="#4b944a" opacity="1.00" d=" M 0.00 0.00 L 256.00 0.00 L 256.00 256.00 L 0.00 256.00 L 0.00 0.00 M 29.38 41.37 C 17.21 51.06 8.00 65.12 5.95 80.71 C 4.46 86.36 4.48 92.52 5.98 98.16 C 6.62 103.96 8.65 109.54 11.13 114.79 C 17.97 129.00 30.69 138.91 42.15 149.23 C 42.36 148.10 42.55 146.96 42.74 145.83 C 44.37 145.11 46.06 144.47 47.86 144.48 C 56.93 144.07 65.99 143.44 75.05 142.95 C 78.69 142.70 83.18 140.98 83.89 136.94 C 85.51 129.54 87.13 122.14 88.70 114.74 C 89.45 110.51 95.06 109.79 98.17 111.77 C 100.35 113.12 100.92 115.76 101.56 118.05 C 103.49 125.67 105.53 133.26 107.40 140.89 C 107.94 142.74 108.20 144.92 110.04 145.98 C 111.63 144.81 111.92 142.80 112.17 140.99 C 115.20 117.65 117.85 94.26 120.72 70.90 C 120.94 69.55 121.17 68.14 121.89 66.96 C 123.87 64.89 127.08 65.16 129.66 65.54 C 133.07 66.23 133.48 70.19 134.01 72.98 C 136.80 91.92 139.48 110.87 142.25 129.82 C 142.70 132.68 143.87 135.82 146.69 137.11 C 148.41 137.62 150.18 137.96 151.98 137.93 C 159.64 137.89 167.31 137.87 174.98 137.92 C 178.65 137.92 182.41 138.33 185.97 137.21 C 188.81 130.36 197.94 127.83 204.01 131.97 C 211.07 136.08 212.36 146.85 206.38 152.46 C 201.11 158.21 190.97 157.29 186.73 150.76 C 186.07 149.96 185.33 148.88 184.09 149.14 C 176.05 148.85 168.01 149.10 159.96 148.95 C 157.88 148.89 155.77 149.00 153.80 149.75 C 147.19 154.97 151.57 165.21 145.98 170.88 C 142.26 174.56 136.15 170.49 135.53 166.11 C 133.71 154.41 131.93 142.70 130.10 131.00 C 129.93 128.97 128.87 127.23 127.80 125.56 C 127.12 126.58 126.37 127.61 126.32 128.89 C 123.92 147.63 121.37 166.35 118.94 185.09 C 118.63 188.54 115.71 192.12 111.99 191.79 C 109.84 191.56 108.15 190.08 106.44 188.89 C 105.76 183.85 103.91 179.09 102.72 174.17 C 100.51 166.39 98.57 158.54 96.23 150.81 C 95.75 150.63 94.81 150.27 94.33 150.09 C 92.76 151.57 91.24 153.36 89.04 153.86 C 84.46 154.88 79.76 153.81 75.13 153.94 C 70.70 152.93 66.14 152.79 61.63 153.15 C 60.17 152.98 58.70 152.91 57.23 152.91 C 53.44 152.11 49.55 151.89 45.69 151.97 C 45.87 153.38 46.77 154.34 47.97 154.99 C 54.64 161.35 61.33 167.69 68.29 173.73 C 78.71 182.94 88.61 192.72 99.07 201.89 C 109.12 210.67 118.43 220.28 128.73 228.77 C 150.35 208.79 172.04 188.89 193.71 168.98 C 195.86 167.65 197.69 165.87 199.20 163.85 C 206.69 157.15 213.89 150.13 221.52 143.59 C 230.18 135.55 239.39 127.58 244.93 116.93 C 248.57 109.87 251.58 102.07 251.02 93.99 C 250.77 88.36 251.47 82.68 250.62 77.09 C 245.55 54.67 227.27 35.57 204.81 30.21 C 187.97 26.10 169.28 28.20 154.47 37.49 C 145.37 43.13 138.27 51.26 130.17 58.14 C 129.27 59.15 127.73 59.29 126.88 58.15 C 117.33 49.98 108.93 40.09 97.37 34.62 C 75.86 24.19 48.26 26.39 29.38 41.37 Z" />
</g>
<g id="#ff2962ff">
<path fill="#ff2962" opacity="1.00" d=" M 29.38 41.37 C 48.26 26.39 75.86 24.19 97.37 34.62 C 108.93 40.09 117.33 49.98 126.88 58.15 C 127.73 59.29 129.27 59.15 130.17 58.14 C 138.27 51.26 145.37 43.13 154.47 37.49 C 169.28 28.20 187.97 26.10 204.81 30.21 C 227.27 35.57 245.55 54.67 250.62 77.09 C 251.47 82.68 250.77 88.36 251.02 93.99 C 251.58 102.07 248.57 109.87 244.93 116.93 C 239.39 127.58 230.18 135.55 221.52 143.59 C 213.89 150.13 206.69 157.15 199.20 163.85 C 197.24 165.42 195.43 167.16 193.71 168.98 C 172.04 188.89 150.35 208.79 128.73 228.77 C 118.43 220.28 109.12 210.67 99.07 201.89 C 88.61 192.72 78.71 182.94 68.29 173.73 C 61.33 167.69 54.64 161.35 47.97 154.99 C 47.63 154.47 46.95 153.41 46.61 152.89 C 50.15 152.93 53.69 152.94 57.23 152.91 C 58.70 152.91 60.17 152.98 61.63 153.15 C 66.10 153.82 70.61 154.09 75.13 153.94 C 79.76 153.81 84.46 154.88 89.04 153.86 C 91.24 153.36 92.76 151.57 94.33 150.09 C 94.81 150.27 95.75 150.63 96.23 150.81 C 98.57 158.54 100.51 166.39 102.72 174.17 C 103.91 179.09 105.76 183.85 106.44 188.89 C 108.15 190.08 109.84 191.56 111.99 191.79 C 115.71 192.12 118.63 188.54 118.94 185.09 C 121.37 166.35 123.92 147.63 126.32 128.89 C 126.37 127.61 127.12 126.58 127.80 125.56 C 128.87 127.23 129.93 128.97 130.10 131.00 C 131.93 142.70 133.71 154.41 135.53 166.11 C 136.15 170.49 142.26 174.56 145.98 170.88 C 151.57 165.21 147.19 154.97 153.80 149.75 C 159.87 149.05 165.96 149.95 172.04 149.92 C 176.94 150.02 181.93 149.52 186.73 150.76 C 190.97 157.29 201.11 158.21 206.38 152.46 C 212.36 146.85 211.07 136.08 204.01 131.97 C 197.94 127.83 188.81 130.36 185.97 137.21 C 172.88 136.82 159.78 137.07 146.69 137.11 C 143.87 135.82 142.70 132.68 142.25 129.82 C 139.48 110.87 136.80 91.92 134.01 72.98 C 133.48 70.19 133.07 66.23 129.66 65.54 C 127.08 65.16 123.87 64.89 121.89 66.96 C 121.17 68.14 120.94 69.55 120.72 70.90 C 117.85 94.26 115.20 117.65 112.17 140.99 C 111.92 142.80 111.63 144.81 110.04 145.98 C 108.20 144.92 107.94 142.74 107.40 140.89 C 105.53 133.26 103.49 125.67 101.56 118.05 C 100.92 115.76 100.35 113.12 98.17 111.77 C 95.06 109.79 89.45 110.51 88.70 114.74 C 87.13 122.14 85.51 129.54 83.89 136.94 C 83.18 140.98 78.69 142.70 75.05 142.95 C 65.99 143.44 56.93 144.07 47.86 144.48 C 46.06 144.47 44.37 145.11 42.74 145.83 C 42.55 146.96 42.36 148.10 42.15 149.23 C 30.69 138.91 17.97 129.00 11.13 114.79 C 8.65 109.54 6.62 103.96 5.98 98.16 C 5.50 92.35 5.49 86.52 5.95 80.71 C 8.00 65.12 17.21 51.06 29.38 41.37 Z" />
</g>
<g id="#c46579ff">
<path fill="#c46579" opacity="1.00" d=" M 5.98 98.16 C 4.48 92.52 4.46 86.36 5.95 80.71 C 5.49 86.52 5.50 92.35 5.98 98.16 Z" />
</g>
<g id="#738b64ff">
<path fill="#738b64" opacity="1.00" d=" M 146.69 137.11 C 159.78 137.07 172.88 136.82 185.97 137.21 C 182.41 138.33 178.65 137.92 174.98 137.92 C 167.31 137.87 159.64 137.89 151.98 137.93 C 150.18 137.96 148.41 137.62 146.69 137.11 Z" />
</g>
<g id="#d95576ff">
<path fill="#d95576" opacity="1.00" d=" M 153.80 149.75 C 155.77 149.00 157.88 148.89 159.96 148.95 C 168.01 149.10 176.05 148.85 184.09 149.14 C 185.33 148.88 186.07 149.96 186.73 150.76 C 181.93 149.52 176.94 150.02 172.04 149.92 C 165.96 149.95 159.87 149.05 153.80 149.75 Z" />
</g>
<g id="#b3696fff">
<path fill="#b3696f" opacity="1.00" d=" M 45.69 151.97 C 49.55 151.89 53.44 152.11 57.23 152.91 C 53.69 152.94 50.15 152.93 46.61 152.89 C 46.95 153.41 47.63 154.47 47.97 154.99 C 46.77 154.34 45.87 153.38 45.69 151.97 Z" />
</g>
<g id="#b3666fff">
<path fill="#b3666f" opacity="1.00" d=" M 61.63 153.15 C 66.14 152.79 70.70 152.93 75.13 153.94 C 70.61 154.09 66.10 153.82 61.63 153.15 Z" />
</g>
<g id="#c35c6dff">
<path fill="#c35c6d" opacity="1.00" d=" M 193.71 168.98 C 195.43 167.16 197.24 165.42 199.20 163.85 C 197.69 165.87 195.86 167.65 193.71 168.98 Z" />
</g>
</svg>
