<?xml version="1.0" encoding="UTF-8" ?>
<!DOCTYPE svg PUBLIC "-//W3C//DTD SVG 1.1//EN" "http://www.w3.org/Graphics/SVG/1.1/DTD/svg11.dtd">
<svg width="256pt" height="256pt" viewBox="0 0 256 256" version="1.1" xmlns="http://www.w3.org/2000/svg">
<g id="#fefefeff">
<path fill="#fefefe" opacity="1.00" d=" M 0.00 0.00 L 256.00 0.00 L 256.00 256.00 L 0.00 256.00 L 0.00 0.00 M 51.99 80.99 C 36.39 96.79 20.45 112.26 5.00 128.20 C 7.22 131.82 10.59 134.48 13.50 137.50 C 25.77 149.90 38.21 162.12 50.47 174.52 C 54.10 178.11 57.58 181.84 61.46 185.17 C 61.85 171.99 61.38 158.80 61.67 145.63 C 106.22 145.46 150.78 145.47 195.33 145.62 C 195.62 158.79 195.18 171.96 195.54 185.12 C 199.78 181.52 203.56 177.42 207.51 173.51 C 219.08 161.74 230.91 150.24 242.48 138.48 C 245.10 135.74 248.08 133.32 250.36 130.27 C 251.29 129.23 251.13 127.72 250.34 126.66 C 248.35 124.02 245.78 121.88 243.49 119.52 C 229.53 105.48 215.45 91.56 201.52 77.49 C 199.61 75.54 197.61 73.68 195.56 71.89 C 195.16 85.05 195.63 98.22 195.34 111.38 C 150.79 111.54 106.22 111.54 61.67 111.38 C 61.38 98.21 61.86 85.04 61.45 71.88 C 58.11 74.71 55.09 77.89 51.99 80.99 Z" />
</g>
<g id="#9e3dffff">
<path fill="#9e3dff" opacity="1.00" d=" M 51.99 80.99 C 55.09 77.89 58.11 74.71 61.45 71.88 C 61.86 85.04 61.38 98.21 61.67 111.38 C 106.22 111.54 150.79 111.54 195.34 111.38 C 195.63 98.22 195.16 85.05 195.56 71.89 C 197.61 73.68 199.61 75.54 201.52 77.49 C 215.45 91.56 229.53 105.48 243.49 119.52 C 245.78 121.88 248.35 124.02 250.34 126.66 C 251.13 127.72 251.29 129.23 250.36 130.27 C 248.08 133.32 245.10 135.74 242.48 138.48 C 230.91 150.24 219.08 161.74 207.51 173.51 C 203.56 177.42 199.78 181.52 195.54 185.12 C 195.18 171.96 195.62 158.79 195.33 145.62 C 150.78 145.47 106.22 145.46 61.67 145.63 C 61.38 158.80 61.85 171.99 61.46 185.17 C 57.58 181.84 54.10 178.11 50.47 174.52 C 38.21 162.12 25.77 149.90 13.50 137.50 C 10.59 134.48 7.22 131.82 5.00 128.20 C 20.45 112.26 36.39 96.79 51.99 80.99 Z" />
</g>
</svg>
