<?xml version="1.0" encoding="UTF-8" ?>
<!DOCTYPE svg PUBLIC "-//W3C//DTD SVG 1.1//EN" "http://www.w3.org/Graphics/SVG/1.1/DTD/svg11.dtd">
<svg width="256pt" height="256pt" viewBox="0 0 256 256" version="1.1" xmlns="http://www.w3.org/2000/svg">
<g id="#4b944aff">
<path fill="#4b944a" opacity="1.00" d=" M 0.00 0.00 L 256.00 0.00 L 256.00 256.00 L 0.00 256.00 L 0.00 0.00 M 43.07 9.77 C 43.20 11.49 43.33 13.22 43.60 14.93 C 50.30 53.46 56.56 92.08 62.98 130.66 C 60.10 129.04 58.44 126.07 56.26 123.69 C 46.08 111.87 36.14 99.85 26.06 87.95 C 26.24 92.30 27.45 96.51 28.22 100.77 C 32.41 122.26 37.01 143.66 41.42 165.09 C 41.68 166.44 41.81 167.80 41.95 169.16 C 40.68 168.45 39.43 167.70 38.28 166.81 C 28.94 159.44 19.42 152.29 10.21 144.75 C 8.86 143.58 7.35 142.60 5.84 141.67 C 7.41 146.53 9.69 151.12 11.54 155.88 C 21.04 178.62 29.92 201.62 39.38 224.38 C 40.53 227.24 42.03 230.00 42.56 233.07 C 32.03 233.09 21.50 233.06 10.97 233.08 L 10.00 232.98 C 10.01 238.63 9.97 244.28 10.04 249.93 C 81.36 250.06 152.67 250.03 223.98 249.94 C 224.02 244.29 224.00 238.65 224.00 233.01 C 215.42 232.98 206.84 233.02 198.26 232.99 C 198.61 232.05 198.96 231.12 199.31 230.18 C 207.71 221.58 216.02 212.87 224.12 203.97 C 211.76 207.09 199.56 210.89 187.10 213.52 C 189.39 207.61 192.98 202.33 195.81 196.68 C 208.66 171.40 222.51 146.64 235.39 121.37 C 240.49 111.65 246.02 102.13 250.72 92.22 C 227.17 111.53 204.17 131.55 180.79 151.09 C 179.58 149.63 180.58 147.67 180.68 146.02 C 182.77 135.42 184.54 124.76 186.72 114.18 C 179.39 121.38 171.70 128.20 164.49 135.53 C 163.15 136.89 161.71 138.16 160.12 139.23 C 161.32 120.67 164.52 102.23 165.92 83.69 C 167.98 83.48 167.57 79.53 166.54 78.20 C 167.34 74.41 167.79 70.52 167.93 66.65 C 170.03 66.48 169.63 62.46 168.55 61.13 C 170.01 49.81 171.39 38.44 172.22 27.06 C 171.07 28.40 170.24 29.97 169.61 31.61 C 159.26 56.45 148.30 81.03 137.51 105.67 C 137.24 105.76 136.71 105.94 136.44 106.03 C 127.76 94.58 119.93 82.47 111.03 71.21 C 111.41 77.16 110.70 83.09 110.55 89.03 C 109.93 99.41 110.23 109.88 108.98 120.20 C 99.29 105.57 91.12 89.98 81.89 75.06 C 68.84 53.36 56.22 31.40 43.07 9.77 Z" />
<path fill="#4b944a" opacity="1.00" d=" M 93.12 155.83 C 101.76 170.36 108.57 185.94 116.96 200.60 C 119.70 193.79 120.96 186.44 124.03 179.76 C 125.32 181.99 126.26 184.39 127.22 186.77 C 131.46 178.33 136.32 170.23 140.65 161.84 C 141.34 165.19 141.02 168.62 141.06 172.02 C 141.11 183.39 141.00 194.75 141.11 206.12 C 150.31 200.69 159.54 195.30 168.67 189.75 C 170.98 188.33 173.22 186.70 175.88 185.95 C 170.03 201.59 163.66 217.04 157.82 232.69 L 157.63 232.65 C 156.10 232.36 154.57 232.07 153.02 231.97 C 124.64 231.87 96.25 232.14 67.86 231.88 L 67.28 231.89 C 66.51 217.35 64.49 202.87 64.23 188.31 C 70.38 193.65 76.62 198.90 82.89 204.10 C 85.16 206.10 87.31 208.29 89.98 209.75 C 90.31 196.16 91.46 182.59 92.00 169.00 C 92.38 164.61 92.23 160.16 93.12 155.83 Z" />
</g>
<g id="#35ff26ff">
<path fill="#35ff26" opacity="1.00" d=" M 43.07 9.77 C 56.22 31.40 68.84 53.36 81.89 75.06 C 91.12 89.98 99.29 105.57 108.98 120.20 C 110.23 109.88 109.93 99.41 110.55 89.03 C 110.70 83.09 111.41 77.16 111.03 71.21 C 119.93 82.47 127.76 94.58 136.44 106.03 C 136.71 105.94 137.24 105.76 137.51 105.67 C 148.30 81.03 159.26 56.45 169.61 31.61 C 170.24 29.97 171.07 28.40 172.22 27.06 C 171.39 38.44 170.01 49.81 168.55 61.13 C 167.96 62.91 167.75 64.78 167.93 66.65 C 167.79 70.52 167.34 74.41 166.54 78.20 C 165.89 79.96 165.67 81.83 165.92 83.69 C 164.52 102.23 161.32 120.67 160.12 139.23 C 161.71 138.16 163.15 136.89 164.49 135.53 C 171.70 128.20 179.39 121.38 186.72 114.18 C 184.54 124.76 182.77 135.42 180.68 146.02 C 180.58 147.67 179.58 149.63 180.79 151.09 C 204.17 131.55 227.17 111.53 250.72 92.22 C 246.02 102.13 240.49 111.65 235.39 121.37 C 222.51 146.64 208.66 171.40 195.81 196.68 C 192.98 202.33 189.39 207.61 187.10 213.52 C 199.56 210.89 211.76 207.09 224.12 203.97 C 216.02 212.87 207.71 221.58 199.31 230.18 C 198.38 231.06 197.71 232.16 197.02 233.23 C 205.86 233.33 214.71 233.08 223.55 233.34 C 223.68 238.56 223.71 243.78 223.51 248.99 C 152.63 248.98 81.76 249.05 10.88 248.96 C 10.78 243.66 10.77 238.37 10.97 233.08 C 21.50 233.06 32.03 233.09 42.56 233.07 C 42.03 230.00 40.53 227.24 39.38 224.38 C 29.92 201.62 21.04 178.62 11.54 155.88 C 9.69 151.12 7.41 146.53 5.84 141.67 C 7.35 142.60 8.86 143.58 10.21 144.75 C 19.42 152.29 28.94 159.44 38.28 166.81 C 39.43 167.70 40.68 168.45 41.95 169.16 C 41.81 167.80 41.68 166.44 41.42 165.09 C 37.01 143.66 32.41 122.26 28.22 100.77 C 27.45 96.51 26.24 92.30 26.06 87.95 C 36.14 99.85 46.08 111.87 56.26 123.69 C 58.44 126.07 60.10 129.04 62.98 130.66 C 56.56 92.08 50.30 53.46 43.60 14.93 C 43.33 13.22 43.20 11.49 43.07 9.77 M 93.12 155.83 C 92.23 160.16 92.38 164.61 92.00 169.00 C 91.46 182.59 90.31 196.16 89.98 209.75 C 87.31 208.29 85.16 206.10 82.89 204.10 C 76.62 198.90 70.38 193.65 64.23 188.31 C 64.49 202.87 66.51 217.35 67.28 231.89 L 67.86 231.88 L 67.25 232.99 C 94.82 233.09 122.40 232.99 149.97 233.04 C 152.53 233.09 155.10 233.13 157.63 232.65 L 157.82 232.69 C 163.66 217.04 170.03 201.59 175.88 185.95 C 173.22 186.70 170.98 188.33 168.67 189.75 C 159.54 195.30 150.31 200.69 141.11 206.12 C 141.00 194.75 141.11 183.39 141.06 172.02 C 141.02 168.62 141.34 165.19 140.65 161.84 C 136.32 170.23 131.46 178.33 127.22 186.77 C 126.26 184.39 125.32 181.99 124.03 179.76 C 120.96 186.44 119.70 193.79 116.96 200.60 C 108.57 185.94 101.76 170.36 93.12 155.83 Z" />
</g>
<g id="#72d567ff">
<path fill="#72d567" opacity="1.00" d=" M 167.93 66.65 C 167.75 64.78 167.96 62.91 168.55 61.13 C 169.63 62.46 170.03 66.48 167.93 66.65 Z" />
</g>
<g id="#6cda61ff">
<path fill="#6cda61" opacity="1.00" d=" M 165.92 83.69 C 165.67 81.83 165.89 79.96 166.54 78.20 C 167.57 79.53 167.98 83.48 165.92 83.69 Z" />
</g>
<g id="#6de160ff">
<path fill="#6de160" opacity="1.00" d=" M 197.02 233.23 C 197.71 232.16 198.38 231.06 199.31 230.18 C 198.96 231.12 198.61 232.05 198.26 232.99 C 206.84 233.02 215.42 232.98 224.00 233.01 C 224.00 238.65 224.02 244.29 223.98 249.94 C 152.67 250.03 81.36 250.06 10.04 249.93 C 9.97 244.28 10.01 238.63 10.00 232.98 L 10.97 233.08 C 10.77 238.37 10.78 243.66 10.88 248.96 C 81.76 249.05 152.63 248.98 223.51 248.99 C 223.71 243.78 223.68 238.56 223.55 233.34 C 214.71 233.08 205.86 233.33 197.02 233.23 Z" />
</g>
<g id="#3b7f38ff">
<path fill="#3b7f38" opacity="1.00" d=" M 67.86 231.88 C 96.25 232.14 124.64 231.87 153.02 231.97 C 154.57 232.07 156.10 232.36 157.63 232.65 C 155.10 233.13 152.53 233.09 149.97 233.04 C 122.40 232.99 94.82 233.09 67.25 232.99 L 67.86 231.88 Z" />
</g>
</svg>
