<?xml version="1.0" encoding="UTF-8" ?>
<!DOCTYPE svg PUBLIC "-//W3C//DTD SVG 1.1//EN" "http://www.w3.org/Graphics/SVG/1.1/DTD/svg11.dtd">
<svg width="256pt" height="256pt" viewBox="0 0 256 256" version="1.1" xmlns="http://www.w3.org/2000/svg">
<g id="#fefefeff">
<path fill="#fefefe" opacity="1.00" d=" M 0.00 0.00 L 256.00 0.00 L 256.00 256.00 L 0.00 256.00 L 0.00 0.00 M 107.19 5.03 C 109.70 11.12 112.04 17.34 113.10 23.88 C 115.68 38.23 113.77 52.99 110.22 67.01 C 106.20 80.74 98.53 93.34 88.41 103.42 C 76.39 114.76 61.95 122.99 48.50 132.45 C 36.44 141.37 24.82 152.57 20.75 167.49 C 17.57 176.33 18.42 185.83 18.51 195.03 C 19.64 208.70 24.88 221.59 31.12 233.66 C 26.64 233.56 22.15 233.64 17.67 233.69 C 17.57 239.43 17.59 245.17 17.64 250.90 C 90.92 251.13 164.19 250.92 237.47 251.01 C 237.54 245.22 237.56 239.44 237.46 233.65 C 231.90 233.60 226.34 233.66 220.79 233.58 C 224.89 225.70 229.36 217.93 231.94 209.37 C 234.85 199.71 238.42 190.09 238.90 179.92 C 240.10 174.60 238.56 169.32 238.32 164.00 C 235.73 146.40 229.30 129.01 217.77 115.25 C 216.96 114.29 215.94 113.54 214.95 112.78 C 209.81 127.15 204.37 141.55 196.59 154.74 C 195.63 156.46 194.31 157.92 192.89 159.26 C 192.82 151.83 193.53 144.38 192.85 136.95 C 191.68 114.97 186.04 92.20 171.46 75.12 C 170.14 88.32 169.01 101.76 164.21 114.25 C 162.40 118.75 160.44 123.29 157.29 127.04 C 157.95 122.82 159.09 118.68 159.53 114.43 C 160.91 106.34 160.19 98.12 160.32 89.96 C 158.51 68.52 153.52 46.65 141.47 28.51 C 133.71 16.67 121.48 7.04 107.19 5.03 Z" />
</g>
<g id="#fe1414ff">
<path fill="#fe1414" opacity="1.00" d=" M 107.19 5.03 C 121.48 7.04 133.71 16.67 141.47 28.51 C 153.52 46.65 158.51 68.52 160.32 89.96 C 160.19 98.12 160.91 106.34 159.53 114.43 C 159.09 118.68 157.95 122.82 157.29 127.04 C 160.44 123.29 162.40 118.75 164.21 114.25 C 169.01 101.76 170.14 88.32 171.46 75.12 C 186.04 92.20 191.68 114.97 192.85 136.95 C 193.53 144.38 192.82 151.83 192.89 159.26 C 194.31 157.92 195.63 156.46 196.59 154.74 C 204.37 141.55 209.81 127.15 214.95 112.78 C 215.94 113.54 216.96 114.29 217.77 115.25 C 229.30 129.01 235.73 146.40 238.32 164.00 C 238.56 169.32 240.10 174.60 238.90 179.92 C 238.42 190.09 234.85 199.71 231.94 209.37 C 229.36 217.93 224.89 225.70 220.79 233.58 C 226.34 233.66 231.90 233.60 237.46 233.65 C 237.56 239.44 237.54 245.22 237.47 251.01 C 164.19 250.92 90.92 251.13 17.64 250.90 C 17.59 245.17 17.57 239.43 17.67 233.69 C 22.15 233.64 26.64 233.56 31.12 233.66 C 24.88 221.59 19.64 208.70 18.51 195.03 C 18.42 185.83 17.57 176.33 20.75 167.49 C 24.82 152.57 36.44 141.37 48.50 132.45 C 61.95 122.99 76.39 114.76 88.41 103.42 C 98.53 93.34 106.20 80.74 110.22 67.01 C 113.77 52.99 115.68 38.23 113.10 23.88 C 112.04 17.34 109.70 11.12 107.19 5.03 Z" />
</g>
</svg>
