<?xml version="1.0" encoding="UTF-8" ?>
<!DOCTYPE svg PUBLIC "-//W3C//DTD SVG 1.1//EN" "http://www.w3.org/Graphics/SVG/1.1/DTD/svg11.dtd">
<svg width="256pt" height="256pt" viewBox="0 0 256 256" version="1.1" xmlns="http://www.w3.org/2000/svg">
<g id="#4b944aff">
<path fill="#4b944a" opacity="1.00" d=" M 0.00 0.00 L 256.00 0.00 L 256.00 256.00 L 0.00 256.00 L 0.00 0.00 M 203.33 22.81 C 203.14 24.55 203.00 26.29 202.97 28.04 C 202.93 53.02 203.08 78.00 202.92 102.98 C 202.84 104.54 203.17 106.09 203.81 107.52 L 203.77 108.40 C 197.89 105.75 192.44 102.27 186.74 99.26 C 164.70 86.47 142.05 74.75 120.00 61.97 C 111.81 57.17 103.26 53.04 95.09 48.22 C 94.92 64.65 94.99 81.09 95.05 97.53 C 93.87 97.23 92.74 96.81 91.66 96.27 C 82.77 91.09 73.75 86.12 64.69 81.25 C 44.74 70.31 25.05 58.92 5.04 48.11 C 4.96 101.71 5.02 155.31 5.01 208.91 C 16.54 202.49 28.30 196.45 39.68 189.75 C 55.24 180.85 71.08 172.48 86.71 163.71 C 89.45 162.22 92.00 160.31 95.04 159.45 C 95.00 175.89 94.92 192.34 95.08 208.78 C 119.01 195.96 142.38 182.12 166.37 169.40 C 176.20 163.86 185.95 158.15 195.89 152.78 C 198.44 151.27 200.99 149.72 203.81 148.77 L 203.84 149.55 C 203.11 150.92 202.98 152.48 202.99 154.01 C 202.99 178.00 203.03 202.00 202.96 225.99 C 202.93 228.75 203.01 231.51 203.25 234.27 C 203.41 233.97 203.73 233.38 203.89 233.09 C 219.58 232.87 235.26 233.06 250.95 232.92 C 251.03 163.32 251.04 93.73 250.95 24.13 C 235.24 24.24 219.54 24.12 203.84 24.19 C 203.71 23.85 203.46 23.16 203.33 22.81 Z" />
</g>
<g id="#487d3eff">
<path fill="#487d3e" opacity="1.00" d=" M 203.33 22.81 C 203.46 23.16 203.71 23.85 203.84 24.19 C 204.09 51.95 204.14 79.75 203.81 107.52 C 203.17 106.09 202.84 104.54 202.92 102.98 C 203.08 78.00 202.93 53.02 202.97 28.04 C 203.00 26.29 203.14 24.55 203.33 22.81 Z" />
<path fill="#487d3e" opacity="1.00" d=" M 202.99 154.01 C 202.98 152.48 203.11 150.92 203.84 149.55 C 204.13 177.39 204.05 205.25 203.89 233.09 C 203.73 233.38 203.41 233.97 203.25 234.27 C 203.01 231.51 202.93 228.75 202.96 225.99 C 203.03 202.00 202.99 178.00 202.99 154.01 Z" />
</g>
<g id="#e6ff45ff">
<path fill="#e6ff45" opacity="1.00" d=" M 203.84 24.19 C 219.54 24.12 235.24 24.24 250.95 24.13 C 251.04 93.73 251.03 163.32 250.95 232.92 C 235.26 233.06 219.58 232.87 203.89 233.09 C 204.05 205.25 204.13 177.39 203.84 149.55 L 203.81 148.77 C 200.99 149.72 198.44 151.27 195.89 152.78 C 185.95 158.15 176.20 163.86 166.37 169.40 C 142.38 182.12 119.01 195.96 95.08 208.78 C 94.92 192.34 95.00 175.89 95.04 159.45 C 92.00 160.31 89.45 162.22 86.71 163.71 C 71.08 172.48 55.24 180.85 39.68 189.75 C 28.30 196.45 16.54 202.49 5.01 208.91 C 5.02 155.31 4.96 101.71 5.04 48.11 C 25.05 58.92 44.74 70.31 64.69 81.25 C 73.75 86.12 82.77 91.09 91.66 96.27 C 92.74 96.81 93.87 97.23 95.05 97.53 C 94.99 81.09 94.92 64.65 95.09 48.22 C 103.26 53.04 111.81 57.17 120.00 61.97 C 142.05 74.75 164.70 86.47 186.74 99.26 C 192.44 102.27 197.89 105.75 203.77 108.40 L 203.81 107.52 C 204.14 79.75 204.09 51.95 203.84 24.19 Z" />
</g>
</svg>
