<?xml version="1.0" encoding="UTF-8" ?>
<!DOCTYPE svg PUBLIC "-//W3C//DTD SVG 1.1//EN" "http://www.w3.org/Graphics/SVG/1.1/DTD/svg11.dtd">
<svg width="256pt" height="256pt" viewBox="0 0 256 256" version="1.1" xmlns="http://www.w3.org/2000/svg">
<g id="#e6ff45ff">
<path fill="#e6ff45" opacity="1.00" d=" M 204.12 23.65 C 219.72 23.66 235.32 23.67 250.93 23.64 C 251.10 83.10 250.95 142.56 251.00 202.02 C 250.90 212.21 251.21 222.41 250.84 232.60 C 248.60 232.10 246.30 231.96 244.01 231.95 C 231.04 231.98 218.07 232.14 205.09 231.96 C 204.78 203.93 205.31 175.90 204.84 147.88 C 203.85 148.42 202.86 148.95 201.87 149.49 C 195.05 153.23 188.18 156.88 181.54 160.91 C 164.66 170.69 147.41 179.81 130.41 189.36 C 118.64 196.06 106.84 202.71 94.87 209.03 C 94.75 192.47 95.01 175.91 94.73 159.36 C 64.86 176.02 34.90 192.52 5.08 209.26 C 4.95 155.49 4.94 101.71 5.08 47.94 C 35.01 64.46 64.84 81.17 94.75 97.71 C 94.99 81.14 94.75 64.57 94.87 48.00 C 111.37 56.77 127.49 66.21 143.87 75.19 C 163.26 85.74 182.44 96.66 201.71 107.41 C 202.68 108.00 203.67 108.55 204.69 109.05 C 205.31 103.04 204.96 96.99 204.98 90.97 C 204.96 75.97 205.02 60.98 204.99 45.98 C 204.91 38.65 205.59 31.25 204.17 24.00 L 204.12 23.65 Z" />
</g>
<g id="#eef564fe">
<path fill="#eef564" opacity="1.00" d=" M 204.17 24.00 C 205.59 31.25 204.91 38.65 204.99 45.98 C 205.02 60.98 204.96 75.97 204.98 90.97 C 204.96 96.99 205.31 103.04 204.69 109.05 C 203.67 108.55 202.68 108.00 201.71 107.41 C 202.26 107.54 203.35 107.81 203.89 107.94 C 203.81 81.96 203.90 55.97 203.84 29.99 C 203.82 27.99 203.94 25.99 204.17 24.00 Z" />
</g>
<g id="#e6f060fb">
<path fill="#e6f060" opacity="1.00" d=" M 201.87 149.49 C 202.86 148.95 203.85 148.42 204.84 147.88 C 205.31 175.90 204.78 203.93 205.09 231.96 C 218.07 232.14 231.04 231.98 244.01 231.95 C 246.30 231.96 248.60 232.10 250.84 232.60 L 251.99 233.17 C 236.00 233.20 220.01 233.14 204.03 233.19 C 203.91 204.93 204.12 176.67 203.92 148.42 C 203.40 148.69 202.38 149.22 201.87 149.49 Z" />
</g>
<g id="#2f301c66">
<path fill="#2f301c" opacity="0.40" d=" M 181.54 160.91 C 188.18 156.88 195.05 153.23 201.87 149.49 C 202.38 149.22 203.40 148.69 203.92 148.42 C 204.12 176.67 203.91 204.93 204.03 233.19 C 220.01 233.14 236.00 233.20 251.99 233.17 C 249.05 233.99 245.98 234.14 242.95 234.06 C 229.81 233.82 216.66 234.27 203.52 233.83 C 203.29 205.75 203.51 177.66 203.41 149.58 C 196.01 153.15 189.32 158.18 181.54 160.91 Z" />
</g>
</svg>
