<?xml version="1.0" encoding="UTF-8" ?>
<!DOCTYPE svg PUBLIC "-//W3C//DTD SVG 1.1//EN" "http://www.w3.org/Graphics/SVG/1.1/DTD/svg11.dtd">
<svg width="256pt" height="256pt" viewBox="0 0 256 256" version="1.1" xmlns="http://www.w3.org/2000/svg">
<g id="#fefefeff">
<path fill="#fefefe" opacity="1.00" d=" M 0.00 0.00 L 256.00 0.00 L 256.00 256.00 L 0.00 256.00 L 0.00 0.00 M 98.00 97.99 C 66.88 98.32 35.75 97.27 4.65 98.65 C 36.09 99.47 67.55 98.78 99.00 99.00 C 98.71 67.55 99.70 36.08 98.36 4.66 C 97.54 35.76 98.22 66.88 98.00 97.99 M 158.00 99.00 C 189.11 98.72 220.24 99.68 251.33 98.39 C 220.56 97.54 189.78 98.21 159.01 98.00 C 158.68 66.88 159.73 35.75 158.35 4.65 C 157.53 36.09 158.22 67.55 158.00 99.00 M 4.66 158.64 C 35.76 159.46 66.88 158.78 97.99 159.01 C 98.31 189.78 97.29 220.58 98.64 251.34 C 99.45 220.24 98.80 189.11 99.00 158.00 C 67.55 158.29 36.08 157.29 4.66 158.64 M 158.00 158.00 C 158.28 189.11 157.32 220.24 158.61 251.33 C 159.46 220.56 158.79 189.78 159.01 159.01 C 189.78 158.69 220.58 159.71 251.34 158.36 C 220.24 157.55 189.12 158.20 158.00 158.00 Z" />
</g>
<g id="#c1c1c1ff">
<path fill="#c1c1c1" opacity="1.00" d=" M 98.00 97.99 C 98.22 66.88 97.54 35.76 98.36 4.66 C 99.70 36.08 98.71 67.55 99.00 99.00 C 67.55 98.78 36.09 99.47 4.65 98.65 C 35.75 97.27 66.88 98.32 98.00 97.99 Z" />
<path fill="#c1c1c1" opacity="1.00" d=" M 158.00 99.00 C 158.22 67.55 157.53 36.09 158.35 4.65 C 159.73 35.75 158.68 66.88 159.01 98.00 C 189.78 98.21 220.56 97.54 251.33 98.39 C 220.24 99.68 189.11 98.72 158.00 99.00 Z" />
<path fill="#c1c1c1" opacity="1.00" d=" M 4.66 158.64 C 36.08 157.29 67.55 158.29 99.00 158.00 C 98.80 189.11 99.45 220.24 98.64 251.34 C 97.29 220.58 98.31 189.78 97.99 159.01 C 66.88 158.78 35.76 159.46 4.66 158.64 Z" />
<path fill="#c1c1c1" opacity="1.00" d=" M 158.00 158.00 C 189.12 158.20 220.24 157.55 251.34 158.36 C 220.58 159.71 189.78 158.69 159.01 159.01 C 158.79 189.78 159.46 220.56 158.61 251.33 C 157.32 220.24 158.28 189.11 158.00 158.00 Z" />
</g>
</svg>
