<?xml version="1.0" encoding="UTF-8" ?>
<!DOCTYPE svg PUBLIC "-//W3C//DTD SVG 1.1//EN" "http://www.w3.org/Graphics/SVG/1.1/DTD/svg11.dtd">
<svg width="256pt" height="256pt" viewBox="0 0 256 256" version="1.1" xmlns="http://www.w3.org/2000/svg">
<g id="#7f837eff">
<path fill="#7f837e" opacity="1.00" d=" M 0.00 0.00 L 64.84 0.00 C 64.41 0.80 63.95 1.59 63.48 2.37 C 60.13 3.69 56.49 3.44 52.97 3.48 C 37.95 3.39 22.93 3.54 7.92 3.41 C 6.35 3.44 4.75 3.41 3.23 3.86 C 3.19 23.03 3.15 42.20 3.25 61.38 L 3.09 62.04 C 2.07 61.81 1.04 61.67 0.00 61.56 L 0.00 0.00 Z" />
<path fill="#7f837e" opacity="1.00" d=" M 50.29 125.62 C 53.42 127.85 56.90 129.58 60.60 130.65 L 60.56 131.51 C 43.05 131.33 25.53 131.55 8.01 131.41 C 6.43 131.48 4.75 131.28 3.24 131.91 C 3.10 150.64 3.41 169.38 3.12 188.10 C 3.28 189.90 1.20 189.74 0.00 189.94 L 0.00 128.04 C 0.67 127.98 2.01 127.85 2.68 127.79 C 19.42 127.74 36.16 127.94 52.90 127.69 C 52.07 127.15 50.43 126.08 49.61 125.55 L 50.29 125.62 Z" />
</g>
<g id="#5d615cff">
<path fill="#5d615c" opacity="1.00" d=" M 64.84 0.00 L 124.82 0.00 C 124.67 0.81 124.37 2.44 124.22 3.25 C 105.29 3.71 86.31 3.23 67.37 3.47 C 66.97 22.74 67.55 42.06 67.08 61.33 C 66.21 61.38 64.48 61.47 63.61 61.52 C 63.23 42.44 63.49 23.34 63.50 4.26 C 62.47 3.69 61.46 3.69 60.47 4.27 C 60.41 23.28 60.72 42.32 60.33 61.33 C 41.31 61.65 22.27 61.58 3.25 61.38 C 3.15 42.20 3.19 23.03 3.23 3.86 C 4.75 3.41 6.35 3.44 7.92 3.41 C 22.93 3.54 37.95 3.39 52.97 3.48 C 56.49 3.44 60.13 3.69 63.48 2.37 C 63.95 1.59 64.41 0.80 64.84 0.00 Z" />
<path fill="#5d615c" opacity="1.00" d=" M 195.21 67.87 C 196.45 67.57 197.71 67.42 198.99 67.44 C 216.64 67.47 234.29 67.53 251.93 67.43 C 252.24 70.61 252.43 73.80 252.36 76.99 C 252.12 93.03 252.69 109.09 252.08 125.10 C 238.39 125.56 224.67 125.15 210.97 125.32 C 205.68 125.49 200.33 124.76 195.09 125.73 C 195.14 118.86 195.53 111.95 194.92 105.10 C 194.14 105.00 192.58 104.80 191.79 104.70 L 191.77 104.09 C 194.62 103.96 197.66 104.47 200.33 103.23 C 203.90 102.37 206.86 99.79 208.13 96.34 C 209.55 93.39 209.55 89.63 208.29 86.63 C 207.05 83.17 204.22 80.52 200.77 79.32 L 200.54 78.47 C 198.76 77.68 196.96 77.87 195.20 78.37 C 195.21 74.87 195.12 71.37 195.21 67.87 Z" />
<path fill="#5d615c" opacity="1.00" d=" M 106.09 104.04 C 111.55 98.08 117.11 92.14 123.01 86.61 C 123.35 86.86 124.03 87.36 124.37 87.62 C 124.22 97.75 124.54 107.89 124.15 118.02 C 121.56 117.32 119.06 116.34 116.46 115.69 C 115.85 115.51 114.65 115.15 114.05 114.97 C 109.58 112.87 104.07 112.78 100.06 110.04 C 100.55 109.56 101.54 108.62 102.03 108.14 C 103.61 107.04 105.02 105.66 106.09 104.04 Z" />
<path fill="#5d615c" opacity="1.00" d=" M 127.84 90.83 C 129.16 92.06 130.47 93.28 131.82 94.48 C 130.48 102.96 131.67 111.63 131.14 120.18 C 129.97 119.97 128.83 119.65 127.73 119.20 C 127.54 109.75 127.42 100.28 127.84 90.83 Z" />
<path fill="#5d615c" opacity="1.00" d=" M 194.83 127.12 C 200.19 128.04 205.64 127.47 211.04 127.60 C 224.79 127.76 238.55 127.33 252.29 127.81 C 252.25 128.61 252.17 130.23 252.13 131.04 C 233.20 131.52 214.25 130.95 195.32 131.31 L 195.26 131.98 C 195.13 151.10 195.44 170.24 195.10 189.36 C 194.22 189.42 192.46 189.54 191.59 189.60 C 191.27 170.49 191.42 151.36 191.52 132.24 C 190.90 132.19 189.65 132.07 189.03 132.02 C 188.08 151.12 189.25 170.36 188.48 189.49 C 169.39 190.03 150.26 189.32 131.17 189.84 C 131.21 178.88 131.23 167.92 131.15 156.96 C 131.13 155.45 131.41 153.97 131.68 152.50 C 138.21 159.59 143.66 167.63 150.42 174.53 C 154.94 179.98 163.87 179.47 168.81 174.86 C 174.19 170.75 175.34 162.12 170.72 157.01 C 164.15 148.82 157.28 140.87 150.54 132.82 L 151.10 131.74 C 159.38 131.05 167.75 131.67 176.07 131.45 C 181.09 131.22 186.39 132.30 191.18 130.35 C 192.40 129.27 193.55 128.13 194.83 127.12 Z" />
<path fill="#5d615c" opacity="1.00" d=" M 131.07 191.15 C 150.19 191.94 169.36 191.01 188.49 191.60 C 188.47 192.52 188.45 194.34 188.43 195.25 C 169.42 195.67 150.39 195.27 131.38 195.43 C 130.93 208.92 131.54 222.44 131.07 235.94 C 130.28 235.94 128.70 235.94 127.91 235.94 C 127.11 222.72 127.91 209.47 127.56 196.24 C 126.53 195.54 125.46 195.50 124.36 196.12 C 124.46 209.39 124.00 222.71 124.64 235.96 C 104.50 235.96 84.35 236.09 64.21 235.90 L 63.75 235.52 C 64.54 235.32 66.13 234.94 66.92 234.75 C 67.63 221.80 66.99 208.77 67.20 195.79 C 70.42 195.20 73.72 195.51 76.98 195.47 C 90.99 195.45 105.00 195.48 119.01 195.48 C 121.02 195.42 123.07 195.57 125.03 195.04 C 127.56 194.70 128.99 192.37 131.07 191.15 Z" />
<path fill="#5d615c" opacity="1.00" d=" M 195.20 195.86 C 196.44 195.55 197.71 195.40 199.01 195.43 C 216.66 195.48 234.31 195.51 251.97 195.43 C 252.24 198.62 252.45 201.83 252.37 205.03 C 252.06 221.04 252.72 237.07 252.05 253.06 C 238.07 253.76 224.02 253.11 210.01 253.34 C 205.05 253.54 200.04 252.87 195.12 253.72 C 195.14 253.05 195.19 251.70 195.21 251.03 C 210.51 250.95 225.81 251.02 241.11 251.01 C 242.27 246.06 241.48 240.61 241.47 235.50 C 226.06 235.27 210.62 235.39 195.20 235.44 C 195.21 222.25 195.19 209.06 195.20 195.86 Z" />
</g>
<g id="#3f433eff">
<path fill="#3f433e" opacity="1.00" d=" M 124.82 0.00 L 127.74 0.00 C 127.70 1.21 127.71 2.41 127.77 3.61 C 126.47 3.47 124.20 3.01 124.34 5.06 C 124.65 7.62 122.94 11.62 125.61 13.15 C 123.37 15.80 121.67 18.97 120.80 22.33 C 119.67 24.05 120.06 26.12 120.00 28.05 C 120.13 30.20 119.50 32.60 120.92 34.47 C 121.15 37.91 123.90 40.33 125.02 43.42 C 124.68 43.51 123.99 43.70 123.64 43.80 C 124.70 45.80 124.42 48.07 124.90 50.19 C 115.68 37.97 96.47 35.95 84.97 46.05 C 74.97 55.55 65.72 65.80 56.12 75.69 C 52.81 78.64 49.61 81.75 46.99 85.34 C 44.05 88.77 41.50 92.84 40.83 97.36 C 40.62 97.79 40.21 98.64 40.01 99.07 C 40.29 103.20 39.23 107.58 40.89 111.50 C 42.51 116.98 45.71 122.17 50.29 125.62 L 49.61 125.55 C 34.08 125.71 18.56 125.39 3.04 125.75 C 3.65 106.34 2.96 86.88 3.38 67.47 C 22.37 67.25 41.39 67.68 60.39 67.26 C 60.43 66.34 60.52 64.49 60.56 63.57 C 41.88 63.16 23.15 63.73 4.48 63.31 C 4.13 62.99 3.43 62.35 3.09 62.04 L 3.25 61.38 C 22.27 61.58 41.31 61.65 60.33 61.33 C 60.72 42.32 60.41 23.28 60.47 4.27 C 61.46 3.69 62.47 3.69 63.50 4.26 C 63.49 23.34 63.23 42.44 63.61 61.52 C 64.48 61.47 66.21 61.38 67.08 61.33 C 67.55 42.06 66.97 22.74 67.37 3.47 C 86.31 3.23 105.29 3.71 124.22 3.25 C 124.37 2.44 124.67 0.81 124.82 0.00 Z" />
<path fill="#3f433e" opacity="1.00" d=" M 131.14 120.18 C 131.67 111.63 130.48 102.96 131.82 94.48 C 134.97 97.07 137.81 100.01 140.76 102.83 C 141.05 103.12 141.64 103.70 141.93 104.00 C 157.36 104.09 172.80 103.94 188.23 104.07 C 188.42 111.10 188.66 118.16 188.20 125.18 C 173.69 125.82 159.14 125.09 144.62 125.55 C 142.90 123.73 140.78 122.11 138.21 121.81 C 136.81 120.42 134.67 121.13 132.91 121.03 C 132.47 120.81 131.58 120.39 131.14 120.18 Z" />
<path fill="#3f433e" opacity="1.00" d=" M 60.60 130.65 C 61.59 130.94 62.59 131.20 63.59 131.46 C 63.39 150.84 63.22 170.25 63.63 189.63 C 64.44 189.43 66.05 189.04 66.85 188.85 C 67.43 186.96 67.22 184.95 67.30 183.01 C 67.21 165.88 67.35 148.74 67.21 131.61 C 71.24 131.50 74.86 133.49 78.72 134.27 C 79.71 135.01 80.84 135.26 82.10 135.02 L 82.73 135.32 C 83.72 136.04 84.84 136.26 86.09 135.99 L 86.88 136.00 C 87.81 137.42 89.58 137.01 91.01 136.99 L 91.81 137.03 C 92.83 138.44 94.65 138.01 96.14 137.98 C 96.55 138.01 97.37 138.06 97.78 138.08 C 98.75 139.54 100.67 138.93 102.12 138.98 C 102.55 139.02 103.42 139.10 103.85 139.14 C 105.25 140.48 107.32 139.94 109.06 139.99 C 109.53 140.02 110.45 140.09 110.92 140.12 C 113.02 141.49 115.62 140.95 117.98 140.99 C 118.43 141.05 119.32 141.17 119.77 141.23 C 121.09 142.04 122.72 142.09 123.98 143.04 C 124.21 143.37 124.67 144.03 124.90 144.36 C 123.65 159.25 125.01 174.26 124.20 189.18 C 105.37 189.78 86.48 189.11 67.64 189.51 C 67.42 190.04 66.96 191.11 66.74 191.64 C 65.91 191.60 64.26 191.51 63.44 191.47 C 63.57 192.87 63.69 194.27 63.80 195.67 C 62.77 195.58 61.72 195.39 60.69 195.61 C 60.05 196.98 60.36 198.55 60.27 200.01 C 60.52 211.60 60.08 223.20 60.45 234.78 C 61.47 235.26 62.57 235.51 63.75 235.52 L 64.21 235.90 C 48.14 235.97 32.05 235.86 15.98 235.94 L 15.95 236.98 C 15.95 241.64 15.92 246.30 15.96 250.96 C 30.77 251.06 45.58 250.95 60.39 251.02 C 60.48 254.15 57.02 253.11 54.97 253.38 C 37.74 253.17 20.50 253.55 3.27 253.16 C 3.36 233.91 3.12 214.65 3.39 195.41 C 22.41 195.29 41.44 195.65 60.45 195.25 C 60.46 194.34 60.49 192.51 60.51 191.59 C 41.78 191.20 23.02 191.54 4.28 191.46 C 4.21 191.08 4.06 190.34 3.99 189.96 C 22.76 189.16 41.64 190.22 60.41 189.44 C 60.91 187.68 60.67 185.82 60.74 184.02 C 60.60 166.52 60.96 149.01 60.56 131.51 L 60.60 130.65 Z" />
<path fill="#3f433e" opacity="1.00" d=" M 189.03 132.02 C 189.65 132.07 190.90 132.19 191.52 132.24 C 191.42 151.36 191.27 170.49 191.59 189.60 C 192.46 189.54 194.22 189.42 195.10 189.36 C 195.44 170.24 195.13 151.10 195.26 131.98 C 214.16 131.78 233.08 132.13 251.98 131.78 C 252.46 136.85 252.33 141.94 252.32 147.03 C 252.16 161.05 252.67 175.11 252.08 189.12 C 235.39 189.61 218.67 189.21 201.96 189.27 C 199.38 189.46 195.52 188.29 194.62 191.65 C 193.82 191.60 192.22 191.49 191.43 191.44 C 191.55 192.81 191.67 194.18 191.79 195.56 C 190.78 195.54 189.77 195.46 188.77 195.65 C 187.88 197.24 188.39 199.23 188.24 200.98 C 188.56 212.23 187.96 223.51 188.51 234.74 C 189.31 235.18 190.15 235.57 191.02 235.90 C 171.04 235.95 151.05 235.87 131.07 235.94 C 131.54 222.44 130.93 208.92 131.38 195.43 C 150.39 195.27 169.42 195.67 188.43 195.25 C 188.45 194.34 188.47 192.52 188.49 191.60 C 169.36 191.01 150.19 191.94 131.07 191.15 L 131.17 189.84 C 150.26 189.32 169.39 190.03 188.48 189.49 C 189.25 170.36 188.08 151.12 189.03 132.02 Z" />
</g>
<g id="#7e827dff">
<path fill="#7e827d" opacity="1.00" d=" M 127.74 0.00 L 188.87 0.00 C 188.68 1.12 188.71 2.35 188.01 3.31 C 169.10 3.61 150.17 3.30 131.26 3.43 C 131.18 5.09 131.28 6.75 131.33 8.41 C 130.09 9.22 128.90 10.08 127.70 10.94 C 127.89 8.51 127.91 6.06 127.77 3.61 C 127.71 2.41 127.70 1.21 127.74 0.00 Z" />
<path fill="#7e827d" opacity="1.00" d=" M 125.02 43.42 C 127.60 44.33 129.05 47.25 131.68 48.36 C 130.98 51.62 131.15 54.99 131.11 58.30 C 129.90 57.12 128.59 56.01 127.55 54.66 C 127.85 51.84 127.82 49.01 127.83 46.18 C 125.93 47.55 125.55 44.58 125.02 43.42 Z" />
<path fill="#7e827d" opacity="1.00" d=" M 191.42 63.46 C 192.22 63.51 193.81 63.62 194.61 63.67 C 208.38 64.09 222.18 63.72 235.96 63.85 C 242.64 63.99 249.36 63.43 256.00 64.40 L 256.00 67.33 C 254.64 67.33 253.28 67.37 251.93 67.43 C 234.29 67.53 216.64 67.47 198.99 67.44 C 197.71 67.42 196.45 67.57 195.21 67.87 C 195.12 71.37 195.21 74.87 195.20 78.37 C 194.35 78.35 192.65 78.30 191.81 78.28 C 191.81 74.73 191.95 71.17 191.77 67.63 C 191.66 66.24 191.54 64.85 191.42 63.46 Z" />
<path fill="#7e827d" opacity="1.00" d=" M 191.79 104.70 C 192.58 104.80 194.14 105.00 194.92 105.10 C 195.53 111.95 195.14 118.86 195.09 125.73 L 194.83 127.12 C 193.55 128.13 192.40 129.27 191.18 130.35 C 186.39 132.30 181.09 131.22 176.07 131.45 C 167.75 131.67 159.38 131.05 151.10 131.74 L 150.54 132.82 C 149.08 131.19 147.56 129.59 146.47 127.67 C 161.58 128.00 176.70 127.68 191.82 127.82 C 191.78 120.12 191.82 112.41 191.79 104.70 Z" />
<path fill="#7e827d" opacity="1.00" d=" M 126.22 146.43 C 126.97 146.59 127.68 146.86 128.36 147.26 C 128.35 149.52 131.24 150.43 131.68 152.50 C 131.41 153.97 131.13 155.45 131.15 156.96 C 131.23 167.92 131.21 178.88 131.17 189.84 L 131.07 191.15 C 128.99 192.37 127.56 194.70 125.03 195.04 C 123.07 195.57 121.02 195.42 119.01 195.48 C 105.00 195.48 90.99 195.45 76.98 195.47 C 73.72 195.51 70.42 195.20 67.20 195.79 C 66.99 208.77 67.63 221.80 66.92 234.75 C 66.13 234.94 64.54 235.32 63.75 235.52 C 63.95 222.24 63.85 208.95 63.80 195.67 C 63.69 194.27 63.57 192.87 63.44 191.47 C 64.26 191.51 65.91 191.60 66.74 191.64 C 87.09 192.03 107.47 191.69 127.83 191.80 C 127.78 179.21 127.82 166.61 127.80 154.01 C 127.85 152.20 127.55 150.29 128.34 148.59 C 127.51 148.07 125.99 147.72 126.22 146.43 Z" />
<path fill="#7e827d" opacity="1.00" d=" M 191.43 191.44 C 192.22 191.49 193.82 191.60 194.62 191.65 C 207.74 192.12 220.90 191.70 234.04 191.85 C 241.36 192.01 248.72 191.42 256.00 192.40 L 256.00 195.34 C 254.65 195.34 253.31 195.37 251.97 195.43 C 234.31 195.51 216.66 195.48 199.01 195.43 C 197.71 195.40 196.44 195.55 195.20 195.86 C 195.19 209.06 195.21 222.25 195.20 235.44 C 194.35 235.45 192.65 235.46 191.80 235.47 C 191.91 222.16 191.87 208.86 191.79 195.56 C 191.67 194.18 191.55 192.81 191.43 191.44 Z" />
</g>
<g id="#5c605bff">
<path fill="#5c605b" opacity="1.00" d=" M 188.87 0.00 L 256.00 0.00 L 256.00 3.41 C 254.64 3.39 253.29 3.41 251.94 3.48 C 234.30 3.64 216.65 3.50 199.01 3.52 C 197.74 3.48 196.50 3.65 195.30 4.01 C 195.10 23.10 195.48 42.21 195.12 61.30 C 194.24 61.38 192.46 61.53 191.58 61.60 C 191.28 42.50 191.40 23.39 191.51 4.29 C 190.55 4.13 189.59 4.05 188.63 4.02 C 188.81 23.22 188.74 42.45 188.66 61.65 C 172.44 61.74 156.22 61.69 140.00 61.68 C 138.19 61.71 136.39 61.91 134.60 62.10 C 133.41 60.86 132.34 59.51 131.11 58.30 C 131.15 54.99 130.98 51.62 131.68 48.36 C 139.19 52.74 149.22 52.49 156.28 47.30 C 160.48 44.51 163.97 40.32 165.32 35.41 C 165.46 34.77 165.74 33.51 165.89 32.88 C 168.90 21.37 160.55 8.69 149.21 5.77 C 147.70 4.55 145.67 5.05 143.90 5.01 C 143.47 5.01 142.62 5.01 142.20 5.02 C 140.67 5.05 138.94 4.59 137.64 5.64 C 135.34 6.10 133.31 7.22 131.33 8.41 C 131.28 6.75 131.18 5.09 131.26 3.43 C 150.17 3.30 169.10 3.61 188.01 3.31 C 188.71 2.35 188.68 1.12 188.87 0.00 Z" />
<path fill="#5c605b" opacity="1.00" d=" M 3.24 131.91 C 4.75 131.28 6.43 131.48 8.01 131.41 C 25.53 131.55 43.05 131.33 60.56 131.51 C 60.96 149.01 60.60 166.52 60.74 184.02 C 60.67 185.82 60.91 187.68 60.41 189.44 C 41.64 190.22 22.76 189.16 3.99 189.96 C 4.06 190.34 4.21 191.08 4.28 191.46 C 23.02 191.54 41.78 191.20 60.51 191.59 C 60.49 192.51 60.46 194.34 60.45 195.25 C 41.44 195.65 22.41 195.29 3.39 195.41 C 3.12 214.65 3.36 233.91 3.27 253.16 C 3.20 253.87 3.07 255.29 3.01 256.00 L 0.00 256.00 L 0.00 189.94 C 1.20 189.74 3.28 189.90 3.12 188.10 C 3.41 169.38 3.10 150.64 3.24 131.91 Z" />
<path fill="#5c605b" opacity="1.00" d=" M 63.59 131.46 C 64.50 131.50 66.30 131.57 67.21 131.61 C 67.35 148.74 67.21 165.88 67.30 183.01 C 67.22 184.95 67.43 186.96 66.85 188.85 C 66.05 189.04 64.44 189.43 63.63 189.63 C 63.22 170.25 63.39 150.84 63.59 131.46 Z" />
</g>
<g id="#2c302bff">
<path fill="#2c302b" opacity="1.00" d=" M 124.34 5.06 C 124.20 3.01 126.47 3.47 127.77 3.61 C 127.91 6.06 127.89 8.51 127.70 10.94 C 126.97 11.65 126.28 12.38 125.61 13.15 C 122.94 11.62 124.65 7.62 124.34 5.06 Z" />
<path fill="#2c302b" opacity="1.00" d=" M 251.94 3.48 C 253.29 3.41 254.64 3.39 256.00 3.41 L 256.00 64.40 C 249.36 63.43 242.64 63.99 235.96 63.85 C 222.18 63.72 208.38 64.09 194.61 63.67 C 195.33 62.86 195.64 61.11 197.06 61.32 C 211.36 61.32 225.67 61.34 239.98 61.32 C 243.99 61.27 248.03 61.62 252.02 61.01 C 252.75 54.70 252.15 48.33 252.33 42.00 C 252.09 29.16 252.81 16.29 251.94 3.48 Z" />
<path fill="#2c302b" opacity="1.00" d=" M 188.72 67.55 C 189.74 67.46 190.76 67.55 191.77 67.63 C 191.95 71.17 191.81 74.73 191.81 78.28 C 190.66 78.17 189.54 77.96 188.45 77.65 C 188.27 74.31 187.87 70.82 188.72 67.55 Z" />
<path fill="#2c302b" opacity="1.00" d=" M 251.98 131.78 C 253.31 131.67 254.66 131.63 256.00 131.61 L 256.00 192.40 C 248.72 191.42 241.36 192.01 234.04 191.85 C 220.90 191.70 207.74 192.12 194.62 191.65 C 195.52 188.29 199.38 189.46 201.96 189.27 C 218.67 189.21 235.39 189.61 252.08 189.12 C 252.67 175.11 252.16 161.05 252.32 147.03 C 252.33 141.94 252.46 136.85 251.98 131.78 Z" />
<path fill="#2c302b" opacity="1.00" d=" M 60.69 195.61 C 61.72 195.39 62.77 195.58 63.80 195.67 C 63.85 208.95 63.95 222.24 63.75 235.52 C 62.57 235.51 61.47 235.26 60.45 234.78 C 60.08 223.20 60.52 211.60 60.27 200.01 C 60.36 198.55 60.05 196.98 60.69 195.61 Z" />
<path fill="#2c302b" opacity="1.00" d=" M 188.77 195.65 C 189.77 195.46 190.78 195.54 191.79 195.56 C 191.87 208.86 191.91 222.16 191.80 235.47 C 192.65 235.46 194.35 235.45 195.20 235.44 C 210.62 235.39 226.06 235.27 241.47 235.50 C 241.48 240.61 242.27 246.06 241.11 251.01 C 241.19 246.32 241.13 241.64 241.15 236.95 L 241.13 235.85 C 224.43 235.82 207.72 235.74 191.02 235.90 C 190.15 235.57 189.31 235.18 188.51 234.74 C 187.96 223.51 188.56 212.23 188.24 200.98 C 188.39 199.23 187.88 197.24 188.77 195.65 Z" />
<path fill="#2c302b" opacity="1.00" d=" M 60.39 251.02 C 61.54 250.99 62.70 250.99 63.85 251.02 C 63.83 252.68 63.80 254.34 63.72 256.00 L 3.01 256.00 C 3.07 255.29 3.20 253.87 3.27 253.16 C 20.50 253.55 37.74 253.17 54.97 253.38 C 57.02 253.11 60.48 254.15 60.39 251.02 Z" />
</g>
<g id="#3f423eff">
<path fill="#3f423e" opacity="1.00" d=" M 188.63 4.02 C 189.59 4.05 190.55 4.13 191.51 4.29 C 191.40 23.39 191.28 42.50 191.58 61.60 C 192.46 61.53 194.24 61.38 195.12 61.30 C 195.48 42.21 195.10 23.10 195.30 4.01 C 196.50 3.65 197.74 3.48 199.01 3.52 C 216.65 3.50 234.30 3.64 251.94 3.48 C 252.81 16.29 252.09 29.16 252.33 42.00 C 252.15 48.33 252.75 54.70 252.02 61.01 C 248.03 61.62 243.99 61.27 239.98 61.32 C 225.67 61.34 211.36 61.32 197.06 61.32 C 195.64 61.11 195.33 62.86 194.61 63.67 C 193.81 63.62 192.22 63.51 191.42 63.46 C 191.54 64.85 191.66 66.24 191.77 67.63 C 190.76 67.55 189.74 67.46 188.72 67.55 C 187.87 70.82 188.27 74.31 188.45 77.65 C 189.54 77.96 190.66 78.17 191.81 78.28 C 192.65 78.30 194.35 78.35 195.20 78.37 C 196.96 77.87 198.76 77.68 200.54 78.47 C 198.98 79.01 197.46 79.08 195.99 78.66 C 180.69 78.41 165.29 78.93 150.04 78.40 C 146.78 74.57 143.13 71.07 139.70 67.39 C 155.94 67.37 172.19 67.63 188.42 67.27 C 188.45 66.36 188.52 64.53 188.55 63.62 C 174.03 63.14 159.49 63.58 144.96 63.39 C 142.36 63.50 139.37 62.81 137.27 64.77 C 136.39 63.87 135.48 63.00 134.60 62.10 C 136.39 61.91 138.19 61.71 140.00 61.68 C 156.22 61.69 172.44 61.74 188.66 61.65 C 188.74 42.45 188.81 23.22 188.63 4.02 Z" />
</g>
<g id="#c777e1ff">
<path fill="#c777e1" opacity="1.00" d=" M 137.64 5.64 C 138.94 4.59 140.67 5.05 142.20 5.02 C 141.17 6.55 139.09 6.52 137.64 5.64 Z" />
</g>
<g id="#9e3dffff">
<path fill="#9e3dff" opacity="1.00" d=" M 142.20 5.02 C 142.62 5.01 143.47 5.01 143.90 5.01 C 145.14 6.78 147.45 6.48 149.21 5.77 C 160.55 8.69 168.90 21.37 165.89 32.88 L 165.19 33.44 C 165.22 33.93 165.28 34.92 165.32 35.41 C 163.97 40.32 160.48 44.51 156.28 47.30 C 149.22 52.49 139.19 52.74 131.68 48.36 C 129.05 47.25 127.60 44.33 125.02 43.42 C 123.90 40.33 121.15 37.91 120.92 34.47 C 120.88 30.42 120.93 26.37 120.80 22.33 C 121.67 18.97 123.37 15.80 125.61 13.15 C 126.28 12.38 126.97 11.65 127.70 10.94 C 128.90 10.08 130.09 9.22 131.33 8.41 C 133.31 7.22 135.34 6.10 137.64 5.64 C 139.09 6.52 141.17 6.55 142.20 5.02 Z" />
<path fill="#9e3dff" opacity="1.00" d=" M 84.97 46.05 C 96.47 35.95 115.68 37.97 124.90 50.19 C 125.86 51.64 126.76 53.11 127.55 54.66 C 128.59 56.01 129.90 57.12 131.11 58.30 C 132.34 59.51 133.41 60.86 134.60 62.10 C 135.48 63.00 136.39 63.87 137.27 64.77 C 138.03 65.69 138.84 66.56 139.70 67.39 C 143.13 71.07 146.78 74.57 150.04 78.40 C 150.32 78.80 150.86 79.60 151.13 80.00 C 165.41 80.01 179.72 79.87 194.01 80.05 C 196.28 80.11 198.54 79.71 200.77 79.32 C 204.22 80.52 207.05 83.17 208.29 86.63 C 208.29 89.87 208.23 93.10 208.13 96.34 C 206.86 99.79 203.90 102.37 200.33 103.23 C 180.49 102.61 160.60 103.39 140.76 102.83 C 137.81 100.01 134.97 97.07 131.82 94.48 C 130.47 93.28 129.16 92.06 127.84 90.83 C 126.69 89.75 125.57 88.63 124.37 87.62 C 124.03 87.36 123.35 86.86 123.01 86.61 C 117.11 92.14 111.55 98.08 106.09 104.04 C 103.58 103.71 101.66 105.63 102.03 108.14 C 101.54 108.62 100.55 109.56 100.06 110.04 C 104.07 112.78 109.58 112.87 114.05 114.97 L 114.49 115.74 C 114.98 115.72 115.96 115.70 116.46 115.69 C 119.06 116.34 121.56 117.32 124.15 118.02 C 125.35 118.39 126.53 118.82 127.73 119.20 C 128.83 119.65 129.97 119.97 131.14 120.18 C 131.58 120.39 132.47 120.81 132.91 121.03 C 134.21 122.71 136.43 122.50 138.21 121.81 C 140.78 122.11 142.90 123.73 144.62 125.55 C 145.26 126.23 145.91 126.91 146.47 127.67 C 147.56 129.59 149.08 131.19 150.54 132.82 C 157.28 140.87 164.15 148.82 170.72 157.01 C 175.34 162.12 174.19 170.75 168.81 174.86 C 163.87 179.47 154.94 179.98 150.42 174.53 C 143.66 167.63 138.21 159.59 131.68 152.50 C 131.24 150.43 128.35 149.52 128.36 147.26 C 127.68 146.86 126.97 146.59 126.22 146.43 C 125.89 145.91 125.23 144.88 124.90 144.36 C 124.67 144.03 124.21 143.37 123.98 143.04 C 124.09 140.59 121.52 139.84 119.77 141.23 C 119.32 141.17 118.43 141.05 117.98 140.99 C 116.07 139.05 113.29 139.50 110.92 140.12 C 110.45 140.09 109.53 140.02 109.06 139.99 C 107.90 138.14 105.60 138.61 103.85 139.14 C 103.42 139.10 102.55 139.02 102.12 138.98 C 101.16 137.46 99.28 137.52 97.78 138.08 C 97.37 138.06 96.55 138.01 96.14 137.98 C 95.18 136.50 93.32 136.48 91.81 137.03 L 91.01 136.99 C 90.17 135.47 88.33 135.36 86.88 136.00 L 86.09 135.99 C 85.25 134.59 84.13 134.37 82.73 135.32 L 82.10 135.02 C 81.25 133.61 80.13 133.36 78.72 134.27 C 74.86 133.49 71.24 131.50 67.21 131.61 C 66.30 131.57 64.50 131.50 63.59 131.46 C 62.59 131.20 61.59 130.94 60.60 130.65 C 56.90 129.58 53.42 127.85 50.29 125.62 C 45.71 122.17 42.51 116.98 40.89 111.50 C 40.88 106.79 40.72 102.08 40.83 97.36 C 41.50 92.84 44.05 88.77 46.99 85.34 C 50.35 82.46 53.85 79.57 56.12 75.69 C 65.72 65.80 74.97 55.55 84.97 46.05 Z" />
<path fill="#9e3dff" opacity="1.00" d=" M 15.95 236.98 C 91.01 237.01 166.08 237.02 241.15 236.95 C 241.13 241.64 241.19 246.32 241.11 251.01 C 225.81 251.02 210.51 250.95 195.21 251.03 C 194.40 251.02 192.76 251.02 191.95 251.02 C 171.75 251.13 151.55 251.04 131.36 251.08 C 110.04 251.04 88.73 251.11 67.41 251.06 C 66.52 251.05 64.74 251.03 63.85 251.02 C 62.70 250.99 61.54 250.99 60.39 251.02 C 45.58 250.95 30.77 251.06 15.96 250.96 C 15.92 246.30 15.95 241.64 15.95 236.98 Z" />
</g>
<g id="#c075daff">
<path fill="#c075da" opacity="1.00" d=" M 143.90 5.01 C 145.67 5.05 147.70 4.55 149.21 5.77 C 147.45 6.48 145.14 6.78 143.90 5.01 Z" />
</g>
<g id="#b66bd9ff">
<path fill="#b66bd9" opacity="1.00" d=" M 120.00 28.05 C 120.06 26.12 119.67 24.05 120.80 22.33 C 120.93 26.37 120.88 30.42 120.92 34.47 C 119.50 32.60 120.13 30.20 120.00 28.05 Z" />
</g>
<g id="#bf71e0ff">
<path fill="#bf71e0" opacity="1.00" d=" M 165.19 33.44 L 165.89 32.88 C 165.74 33.51 165.46 34.77 165.32 35.41 C 165.28 34.92 165.22 33.93 165.19 33.44 Z" />
</g>
<g id="#272b26ff">
<path fill="#272b26" opacity="1.00" d=" M 123.64 43.80 C 123.99 43.70 124.68 43.51 125.02 43.42 C 125.55 44.58 125.93 47.55 127.83 46.18 C 127.82 49.01 127.85 51.84 127.55 54.66 C 126.76 53.11 125.86 51.64 124.90 50.19 C 124.42 48.07 124.70 45.80 123.64 43.80 Z" />
<path fill="#272b26" opacity="1.00" d=" M 188.23 104.07 C 189.41 104.07 190.59 104.08 191.77 104.09 L 191.79 104.70 C 191.82 112.41 191.78 120.12 191.82 127.82 C 176.70 127.68 161.58 128.00 146.47 127.67 C 145.91 126.91 145.26 126.23 144.62 125.55 C 159.14 125.09 173.69 125.82 188.20 125.18 C 188.66 118.16 188.42 111.10 188.23 104.07 Z" />
<path fill="#272b26" opacity="1.00" d=" M 3.04 125.75 C 18.56 125.39 34.08 125.71 49.61 125.55 C 50.43 126.08 52.07 127.15 52.90 127.69 C 36.16 127.94 19.42 127.74 2.68 127.79 C 2.77 127.28 2.95 126.26 3.04 125.75 Z" />
<path fill="#272b26" opacity="1.00" d=" M 124.20 189.18 C 125.01 174.26 123.65 159.25 124.90 144.36 C 125.23 144.88 125.89 145.91 126.22 146.43 C 125.99 147.72 127.51 148.07 128.34 148.59 C 127.55 150.29 127.85 152.20 127.80 154.01 C 127.82 166.61 127.78 179.21 127.83 191.80 C 107.47 191.69 87.09 192.03 66.74 191.64 C 66.96 191.11 67.42 190.04 67.64 189.51 C 86.48 189.11 105.37 189.78 124.20 189.18 Z" />
</g>
<g id="#5c615bff">
<path fill="#5c615b" opacity="1.00" d=" M 0.00 61.56 C 1.04 61.67 2.07 61.81 3.09 62.04 C 3.43 62.35 4.13 62.99 4.48 63.31 C 23.15 63.73 41.88 63.16 60.56 63.57 C 60.52 64.49 60.43 66.34 60.39 67.26 C 41.39 67.68 22.37 67.25 3.38 67.47 C 2.96 86.88 3.65 106.34 3.04 125.75 C 2.95 126.26 2.77 127.28 2.68 127.79 C 2.01 127.85 0.67 127.98 0.00 128.04 L 0.00 61.56 Z" />
</g>
<g id="#5b605aff">
<path fill="#5b605a" opacity="1.00" d=" M 137.27 64.77 C 139.37 62.81 142.36 63.50 144.96 63.39 C 159.49 63.58 174.03 63.14 188.55 63.62 C 188.52 64.53 188.45 66.36 188.42 67.27 C 172.19 67.63 155.94 67.37 139.70 67.39 C 138.84 66.56 138.03 65.69 137.27 64.77 Z" />
</g>
<g id="#4a4e49ff">
<path fill="#4a4e49" opacity="1.00" d=" M 251.93 67.43 C 253.28 67.37 254.64 67.33 256.00 67.33 L 256.00 131.61 C 254.66 131.63 253.31 131.67 251.98 131.78 C 233.08 132.13 214.16 131.78 195.26 131.98 L 195.32 131.31 C 214.25 130.95 233.20 131.52 252.13 131.04 C 252.17 130.23 252.25 128.61 252.29 127.81 C 238.55 127.33 224.79 127.76 211.04 127.60 C 205.64 127.47 200.19 128.04 194.83 127.12 L 195.09 125.73 C 200.33 124.76 205.68 125.49 210.97 125.32 C 224.67 125.15 238.39 125.56 252.08 125.10 C 252.69 109.09 252.12 93.03 252.36 76.99 C 252.43 73.80 252.24 70.61 251.93 67.43 Z" />
<path fill="#4a4e49" opacity="1.00" d=" M 251.97 195.43 C 253.31 195.37 254.65 195.34 256.00 195.34 L 256.00 256.00 L 195.00 256.00 C 195.03 255.43 195.09 254.29 195.12 253.72 C 200.04 252.87 205.05 253.54 210.01 253.34 C 224.02 253.11 238.07 253.76 252.05 253.06 C 252.72 237.07 252.06 221.04 252.37 205.03 C 252.45 201.83 252.24 198.62 251.97 195.43 Z" />
</g>
<g id="#9156bbff">
<path fill="#9156bb" opacity="1.00" d=" M 46.99 85.34 C 49.61 81.75 52.81 78.64 56.12 75.69 C 53.85 79.57 50.35 82.46 46.99 85.34 Z" />
</g>
<g id="#aa4ef6ff">
<path fill="#aa4ef6" opacity="1.00" d=" M 150.04 78.40 C 165.29 78.93 180.69 78.41 195.99 78.66 C 197.46 79.08 198.98 79.01 200.54 78.47 L 200.77 79.32 C 198.54 79.71 196.28 80.11 194.01 80.05 C 179.72 79.87 165.41 80.01 151.13 80.00 C 150.86 79.60 150.32 78.80 150.04 78.40 Z" />
</g>
<g id="#a95dddff">
<path fill="#a95ddd" opacity="1.00" d=" M 208.29 86.63 C 209.55 89.63 209.55 93.39 208.13 96.34 C 208.23 93.10 208.29 89.87 208.29 86.63 Z" />
</g>
<g id="#494d48ff">
<path fill="#494d48" opacity="1.00" d=" M 124.37 87.62 C 125.57 88.63 126.69 89.75 127.84 90.83 C 127.42 100.28 127.54 109.75 127.73 119.20 C 126.53 118.82 125.35 118.39 124.15 118.02 C 124.54 107.89 124.22 97.75 124.37 87.62 Z" />
<path fill="#494d48" opacity="1.00" d=" M 124.36 196.12 C 125.46 195.50 126.53 195.54 127.56 196.24 C 127.91 209.47 127.11 222.72 127.91 235.94 C 127.09 235.94 125.46 235.96 124.64 235.96 C 124.00 222.71 124.46 209.39 124.36 196.12 Z" />
</g>
<g id="#b163deff">
<path fill="#b163de" opacity="1.00" d=" M 40.01 99.07 C 40.21 98.64 40.62 97.79 40.83 97.36 C 40.72 102.08 40.88 106.79 40.89 111.50 C 39.23 107.58 40.29 103.20 40.01 99.07 Z" />
</g>
<g id="#b269d5ff">
<path fill="#b269d5" opacity="1.00" d=" M 140.76 102.83 C 160.60 103.39 180.49 102.61 200.33 103.23 C 197.66 104.47 194.62 103.96 191.77 104.09 C 190.59 104.08 189.41 104.07 188.23 104.07 C 172.80 103.94 157.36 104.09 141.93 104.00 C 141.64 103.70 141.05 103.12 140.76 102.83 Z" />
</g>
<g id="#a460d2ff">
<path fill="#a460d2" opacity="1.00" d=" M 102.03 108.14 C 101.66 105.63 103.58 103.71 106.09 104.04 C 105.02 105.66 103.61 107.04 102.03 108.14 Z" />
</g>
<g id="#c271e4ff">
<path fill="#c271e4" opacity="1.00" d=" M 114.05 114.97 C 114.65 115.15 115.85 115.51 116.46 115.69 C 115.96 115.70 114.98 115.72 114.49 115.74 L 114.05 114.97 Z" />
</g>
<g id="#b26cd1ff">
<path fill="#b26cd1" opacity="1.00" d=" M 132.91 121.03 C 134.67 121.13 136.81 120.42 138.21 121.81 C 136.43 122.50 134.21 122.71 132.91 121.03 Z" />
</g>
<g id="#ae68d2ff">
<path fill="#ae68d2" opacity="1.00" d=" M 78.72 134.27 C 80.13 133.36 81.25 133.61 82.10 135.02 C 80.84 135.26 79.71 135.01 78.72 134.27 Z" />
</g>
<g id="#b46cd3ff">
<path fill="#b46cd3" opacity="1.00" d=" M 82.73 135.32 C 84.13 134.37 85.25 134.59 86.09 135.99 C 84.84 136.26 83.72 136.04 82.73 135.32 Z" />
</g>
<g id="#ac6acaff">
<path fill="#ac6aca" opacity="1.00" d=" M 86.88 136.00 C 88.33 135.36 90.17 135.47 91.01 136.99 C 89.58 137.01 87.81 137.42 86.88 136.00 Z" />
</g>
<g id="#af6fc6ff">
<path fill="#af6fc6" opacity="1.00" d=" M 91.81 137.03 C 93.32 136.48 95.18 136.50 96.14 137.98 C 94.65 138.01 92.83 138.44 91.81 137.03 Z" />
</g>
<g id="#b773ceff">
<path fill="#b773ce" opacity="1.00" d=" M 97.78 138.08 C 99.28 137.52 101.16 137.46 102.12 138.98 C 100.67 138.93 98.75 139.54 97.78 138.08 Z" />
</g>
<g id="#b472c8ff">
<path fill="#b472c8" opacity="1.00" d=" M 103.85 139.14 C 105.60 138.61 107.90 138.14 109.06 139.99 C 107.32 139.94 105.25 140.48 103.85 139.14 Z" />
</g>
<g id="#b270caff">
<path fill="#b270ca" opacity="1.00" d=" M 110.92 140.12 C 113.29 139.50 116.07 139.05 117.98 140.99 C 115.62 140.95 113.02 141.49 110.92 140.12 Z" />
</g>
<g id="#a16ab9ff">
<path fill="#a16ab9" opacity="1.00" d=" M 119.77 141.23 C 121.52 139.84 124.09 140.59 123.98 143.04 C 122.72 142.09 121.09 142.04 119.77 141.23 Z" />
</g>
<g id="#b65cf1ff">
<path fill="#b65cf1" opacity="1.00" d=" M 15.98 235.94 C 32.05 235.86 48.14 235.97 64.21 235.90 C 84.35 236.09 104.50 235.96 124.64 235.96 C 125.46 235.96 127.09 235.94 127.91 235.94 C 128.70 235.94 130.28 235.94 131.07 235.94 C 151.05 235.87 171.04 235.95 191.02 235.90 C 207.72 235.74 224.43 235.82 241.13 235.85 L 241.15 236.95 C 166.08 237.02 91.01 237.01 15.95 236.98 L 15.98 235.94 Z" />
</g>
<g id="#727671ff">
<path fill="#727671" opacity="1.00" d=" M 63.85 251.02 C 64.74 251.03 66.52 251.05 67.41 251.06 C 67.27 252.70 67.10 254.35 66.95 256.00 L 63.72 256.00 C 63.80 254.34 63.83 252.68 63.85 251.02 Z" />
<path fill="#727671" opacity="1.00" d=" M 191.95 251.02 C 192.76 251.02 194.40 251.02 195.21 251.03 C 195.19 251.70 195.14 253.05 195.12 253.72 C 195.09 254.29 195.03 255.43 195.00 256.00 L 191.80 256.00 C 191.88 254.34 191.91 252.68 191.95 251.02 Z" />
</g>
<g id="#515550ff">
<path fill="#515550" opacity="1.00" d=" M 67.41 251.06 C 88.73 251.11 110.04 251.04 131.36 251.08 C 131.26 252.72 131.12 254.36 131.00 256.00 L 66.95 256.00 C 67.10 254.35 67.27 252.70 67.41 251.06 Z" />
</g>
<g id="#333732ff">
<path fill="#333732" opacity="1.00" d=" M 131.36 251.08 C 151.55 251.04 171.75 251.13 191.95 251.02 C 191.91 252.68 191.88 254.34 191.80 256.00 L 131.00 256.00 C 131.12 254.36 131.26 252.72 131.36 251.08 Z" />
</g>
</svg>
