<?xml version="1.0" encoding="UTF-8" ?>
<!DOCTYPE svg PUBLIC "-//W3C//DTD SVG 1.1//EN" "http://www.w3.org/Graphics/SVG/1.1/DTD/svg11.dtd">
<svg width="256pt" height="256pt" viewBox="0 0 256 256" version="1.1" xmlns="http://www.w3.org/2000/svg">
<g id="#fefefeff">
<path fill="#fefefe" opacity="1.00" d=" M 0.00 0.00 L 256.00 0.00 L 256.00 256.00 L 0.00 256.00 L 0.00 0.00 M 187.47 21.84 C 166.51 24.48 147.78 39.61 140.66 59.47 C 135.21 74.02 136.12 90.89 143.30 104.69 C 149.73 117.78 161.31 128.30 175.15 133.01 C 191.33 139.02 210.12 136.96 224.79 127.97 C 237.10 120.54 246.11 108.12 250.03 94.35 C 251.55 89.38 250.86 84.12 251.00 79.00 C 250.87 73.99 251.54 68.83 250.05 63.95 C 246.47 51.57 239.14 39.96 228.40 32.61 C 216.79 23.98 201.83 19.95 187.47 21.84 M 91.94 54.07 C 77.59 56.73 64.80 65.65 56.57 77.59 C 49.04 88.79 45.80 102.86 48.11 116.19 C 51.06 134.52 64.10 151.00 81.43 157.79 C 94.17 163.08 108.94 162.93 121.75 157.96 C 133.54 153.47 143.53 144.60 149.48 133.49 C 127.34 118.07 116.64 88.17 123.99 62.22 C 124.12 60.91 125.08 59.35 124.29 58.14 C 114.28 53.42 102.81 52.15 91.94 54.07 M 139.43 168.07 C 135.06 183.46 130.90 198.90 126.83 214.38 C 125.80 218.49 124.87 222.63 123.34 226.60 C 120.96 226.54 118.58 226.51 116.20 226.44 C 112.05 217.12 108.00 207.75 103.71 198.49 C 98.81 207.36 96.42 217.36 92.42 226.65 C 89.15 226.94 85.85 227.06 82.60 226.55 C 78.31 208.09 74.17 189.60 69.93 171.13 C 55.14 172.10 41.49 179.81 31.05 190.04 C 18.76 202.71 10.20 218.74 5.01 235.53 C 70.55 235.57 136.10 235.57 201.64 235.53 C 199.97 220.67 193.92 206.27 183.93 195.09 C 172.27 181.88 156.27 172.86 139.43 168.07 M 93.24 180.62 C 96.64 186.65 99.71 192.89 103.75 198.52 C 107.21 192.69 110.31 186.65 113.36 180.59 C 106.65 180.45 99.94 180.41 93.24 180.62 Z" />
<path fill="#fefefe" opacity="1.00" d=" M 188.32 39.15 C 208.95 35.42 230.87 50.54 234.44 71.25 C 234.82 79.46 235.64 88.24 231.57 95.75 C 224.57 111.24 207.25 121.63 190.23 119.53 C 172.78 117.61 157.33 103.29 154.65 85.85 C 154.32 79.19 153.79 72.25 156.30 65.91 C 161.01 52.01 173.85 41.41 188.32 39.15 M 177.46 55.34 C 175.92 55.92 175.14 57.58 174.61 59.02 C 175.00 61.65 177.19 63.34 179.11 64.91 C 184.49 69.20 189.87 73.49 195.34 77.66 C 196.43 78.60 197.96 79.40 197.90 81.07 C 198.65 89.24 197.73 97.49 198.45 105.65 C 199.16 109.91 206.89 109.47 206.58 104.95 C 206.77 96.61 206.56 88.25 206.62 79.90 C 206.54 78.14 206.86 75.98 205.17 74.83 C 198.69 69.26 191.73 64.24 185.23 58.67 C 182.99 56.98 180.57 54.28 177.46 55.34 Z" />
</g>
<g id="#441effff">
<path fill="#441eff" opacity="1.00" d=" M 187.47 21.84 C 201.83 19.95 216.79 23.98 228.40 32.61 C 239.14 39.96 246.47 51.57 250.05 63.95 C 251.54 68.83 250.87 73.99 251.00 79.00 C 250.86 84.12 251.55 89.38 250.03 94.35 C 246.11 108.12 237.10 120.54 224.79 127.97 C 210.12 136.96 191.33 139.02 175.15 133.01 C 161.31 128.30 149.73 117.78 143.30 104.69 C 136.12 90.89 135.21 74.02 140.66 59.47 C 147.78 39.61 166.51 24.48 187.47 21.84 M 188.32 39.15 C 173.85 41.41 161.01 52.01 156.30 65.91 C 153.79 72.25 154.32 79.19 154.65 85.85 C 157.33 103.29 172.78 117.61 190.23 119.53 C 207.25 121.63 224.57 111.24 231.57 95.75 C 235.64 88.24 234.82 79.46 234.44 71.25 C 230.87 50.54 208.95 35.42 188.32 39.15 Z" />
<path fill="#441eff" opacity="1.00" d=" M 91.94 54.07 C 102.81 52.15 114.28 53.42 124.29 58.14 C 125.08 59.35 124.12 60.91 123.99 62.22 C 116.64 88.17 127.34 118.07 149.48 133.49 C 143.53 144.60 133.54 153.47 121.75 157.96 C 108.94 162.93 94.17 163.08 81.43 157.79 C 64.10 151.00 51.06 134.52 48.11 116.19 C 45.80 102.86 49.04 88.79 56.57 77.59 C 64.80 65.65 77.59 56.73 91.94 54.07 Z" />
<path fill="#441eff" opacity="1.00" d=" M 177.46 55.34 C 180.57 54.28 182.99 56.98 185.23 58.67 C 191.73 64.24 198.69 69.26 205.17 74.83 C 206.86 75.98 206.54 78.14 206.62 79.90 C 206.56 88.25 206.77 96.61 206.58 104.95 C 206.89 109.47 199.16 109.91 198.45 105.65 C 197.73 97.49 198.65 89.24 197.90 81.07 C 197.96 79.40 196.43 78.60 195.34 77.66 C 189.87 73.49 184.49 69.20 179.11 64.91 C 177.19 63.34 175.00 61.65 174.61 59.02 C 175.14 57.58 175.92 55.92 177.46 55.34 Z" />
<path fill="#441eff" opacity="1.00" d=" M 139.43 168.07 C 156.27 172.86 172.27 181.88 183.93 195.09 C 193.92 206.27 199.97 220.67 201.64 235.53 C 136.10 235.57 70.55 235.57 5.01 235.53 C 10.20 218.74 18.76 202.71 31.05 190.04 C 41.49 179.81 55.14 172.10 69.93 171.13 C 74.17 189.60 78.31 208.09 82.60 226.55 C 85.85 227.06 89.15 226.94 92.42 226.65 C 96.42 217.36 98.81 207.36 103.71 198.49 C 108.00 207.75 112.05 217.12 116.20 226.44 C 118.58 226.51 120.96 226.54 123.34 226.60 C 124.87 222.63 125.80 218.49 126.83 214.38 C 130.90 198.90 135.06 183.46 139.43 168.07 Z" />
<path fill="#441eff" opacity="1.00" d=" M 93.24 180.62 C 99.94 180.41 106.65 180.45 113.36 180.59 C 110.31 186.65 107.21 192.69 103.75 198.52 C 99.71 192.89 96.64 186.65 93.24 180.62 Z" />
</g>
</svg>
