<?xml version="1.0" encoding="UTF-8" ?>
<!DOCTYPE svg PUBLIC "-//W3C//DTD SVG 1.1//EN" "http://www.w3.org/Graphics/SVG/1.1/DTD/svg11.dtd">
<svg width="256pt" height="256pt" viewBox="0 0 256 256" version="1.1" xmlns="http://www.w3.org/2000/svg">
<g id="#926094c9">
<path fill="#926094" opacity="0.79" d=" M 60.76 71.42 C 61.51 72.46 62.25 73.56 62.03 74.92 C 61.98 86.96 62.00 99.01 62.01 111.05 C 106.32 111.00 150.64 111.07 194.95 111.02 L 194.93 111.92 C 161.30 112.19 127.65 111.94 94.00 112.03 C 83.09 111.95 72.18 112.22 61.28 111.87 C 61.04 98.74 61.80 85.59 60.80 72.49 L 60.76 71.42 Z" />
</g>
<g id="#b06ebae3">
<path fill="#b06eba" opacity="0.89" d=" M 195.05 72.23 C 195.47 72.26 196.31 72.33 196.73 72.36 C 196.70 72.57 196.66 72.99 196.63 73.20 C 195.11 86.03 196.60 98.97 195.82 111.84 L 194.93 111.92 L 194.95 111.02 C 195.09 98.09 194.90 85.16 195.05 72.23 Z" />
</g>
<g id="#9e3dffff">
<path fill="#9e3dff" opacity="1.00" d=" M 60.80 72.49 C 61.80 85.59 61.04 98.74 61.28 111.87 C 72.18 112.22 83.09 111.95 94.00 112.03 C 127.65 111.94 161.30 112.19 194.93 111.92 L 195.82 111.84 C 196.60 98.97 195.11 86.03 196.63 73.20 C 199.04 75.17 201.22 77.39 203.40 79.60 C 219.00 95.36 234.81 110.91 250.39 126.69 C 251.30 127.56 251.34 129.44 250.40 130.30 C 235.15 145.74 219.68 160.98 204.40 176.40 C 201.71 179.04 199.17 181.86 196.18 184.18 C 195.75 171.17 196.31 158.14 195.83 145.14 L 194.94 145.06 C 154.63 144.80 114.31 145.06 74.00 144.94 C 69.77 144.92 65.54 144.99 61.32 145.13 C 61.10 158.27 61.88 171.43 60.85 184.55 C 42.32 166.25 23.99 147.76 5.58 129.35 C 4.27 128.43 6.01 127.32 6.58 126.60 C 24.70 108.61 42.63 90.42 60.80 72.49 Z" />
</g>
<g id="#895a8bc3">
<path fill="#895a8b" opacity="0.76" d=" M 61.32 145.13 C 65.54 144.99 69.77 144.92 74.00 144.94 C 114.31 145.06 154.63 144.80 194.94 145.06 L 194.96 145.97 C 150.64 145.91 106.33 145.98 62.01 145.93 C 62.01 157.98 61.97 170.03 62.04 182.07 C 62.28 183.45 61.57 184.59 60.80 185.65 L 60.85 184.55 C 61.88 171.43 61.10 158.27 61.32 145.13 Z" />
</g>
<g id="#b470bde6">
<path fill="#b470bd" opacity="0.90" d=" M 194.94 145.06 L 195.83 145.14 C 196.31 158.14 195.75 171.17 196.18 184.18 C 195.97 184.55 195.55 185.30 195.34 185.68 C 194.54 172.47 195.27 159.20 194.96 145.97 L 194.94 145.06 Z" />
</g>
</svg>
