<?xml version="1.0" encoding="UTF-8" ?>
<!DOCTYPE svg PUBLIC "-//W3C//DTD SVG 1.1//EN" "http://www.w3.org/Graphics/SVG/1.1/DTD/svg11.dtd">
<svg width="256pt" height="256pt" viewBox="0 0 256 256" version="1.1" xmlns="http://www.w3.org/2000/svg">
<g id="#7d817cff">
<path fill="#7d817c" opacity="1.00" d=" M 0.00 0.00 L 62.69 0.00 C 61.68 1.04 60.71 2.11 59.74 3.19 C 40.93 3.61 22.12 3.16 3.31 3.39 C 2.48 22.98 3.90 42.63 2.57 62.20 C 1.93 62.15 0.64 62.04 0.00 61.99 L 0.00 0.00 Z" />
<path fill="#7d817c" opacity="1.00" d=" M 0.00 127.67 C 0.80 127.71 2.40 127.80 3.20 127.84 C 3.64 127.89 4.52 127.97 4.96 128.01 C 4.95 128.66 4.92 129.95 4.91 130.60 C 1.68 136.57 3.48 143.54 3.13 150.00 C 2.84 163.40 3.75 176.84 2.58 190.22 C 1.94 190.16 0.65 190.04 0.00 189.98 L 0.00 127.67 Z" />
</g>
<g id="#5d615cff">
<path fill="#5d615c" opacity="1.00" d=" M 62.69 0.00 L 128.04 0.00 C 128.04 0.73 128.02 2.19 128.02 2.92 C 107.79 4.65 87.44 2.97 67.17 3.85 C 67.03 22.90 67.31 41.96 67.05 61.01 C 66.26 60.98 64.69 60.93 63.91 60.90 C 63.47 41.96 63.80 23.01 63.73 4.07 C 62.55 4.05 61.36 4.03 60.19 4.01 C 60.02 23.01 60.37 42.01 59.97 61.00 C 48.65 61.35 37.33 61.07 26.00 61.19 C 18.19 61.35 10.26 60.38 2.57 62.20 C 3.90 42.63 2.48 22.98 3.31 3.39 C 22.12 3.16 40.93 3.61 59.74 3.19 C 60.71 2.11 61.68 1.04 62.69 0.00 Z" />
<path fill="#5d615c" opacity="1.00" d=" M 234.00 67.33 C 240.92 67.26 248.14 68.33 254.69 65.48 C 255.13 66.02 255.57 66.56 256.00 67.11 L 256.00 67.70 C 254.72 67.85 253.44 67.99 252.16 68.14 C 252.03 78.76 252.30 89.39 251.97 100.01 C 251.72 108.44 252.42 116.90 251.12 125.27 C 250.93 116.51 251.01 107.75 251.00 98.99 C 232.33 98.98 213.66 98.96 194.99 99.00 C 195.23 88.46 194.82 77.92 195.30 67.39 C 208.20 67.25 221.10 67.38 234.00 67.33 Z" />
<path fill="#5d615c" opacity="1.00" d=" M 67.29 67.39 C 77.86 67.17 88.44 67.59 99.00 67.11 C 98.91 77.70 99.09 88.30 98.89 98.89 C 88.26 99.09 77.62 98.91 66.99 99.00 C 67.26 88.46 66.82 77.92 67.29 67.39 Z" />
<path fill="#5d615c" opacity="1.00" d=" M 158.08 158.08 C 168.38 157.89 178.68 158.08 188.98 157.98 C 187.12 168.21 188.75 178.66 187.99 188.99 C 178.00 189.80 167.87 188.07 157.98 190.05 C 158.08 179.39 157.88 168.74 158.08 158.08 Z" />
<path fill="#5d615c" opacity="1.00" d=" M 157.97 191.06 C 167.95 192.46 178.04 191.28 188.06 191.87 C 188.06 192.66 188.05 194.24 188.05 195.03 C 178.03 195.24 168.00 195.19 157.98 195.01 C 157.96 193.69 157.96 192.37 157.97 191.06 Z" />
<path fill="#5d615c" opacity="1.00" d=" M 66.99 195.72 C 77.64 194.80 88.34 195.73 99.00 195.11 C 98.96 213.74 98.98 232.37 98.99 250.99 C 107.51 251.03 116.03 250.88 124.55 251.15 C 121.89 252.45 119.03 253.42 116.03 253.19 C 103.69 252.87 91.35 253.20 79.01 252.96 C 74.93 252.90 70.83 253.03 66.84 253.88 C 67.36 234.50 67.00 215.10 66.99 195.72 Z" />
<path fill="#5d615c" opacity="1.00" d=" M 194.97 195.72 C 215.29 194.46 235.70 196.35 256.00 194.68 L 256.00 195.47 C 254.73 195.78 253.45 196.08 252.18 196.37 C 251.96 215.24 252.40 234.11 251.97 252.98 C 240.32 253.36 228.66 253.03 217.00 253.15 C 209.62 253.27 202.15 252.50 194.85 253.90 C 195.33 234.51 195.02 215.11 194.97 195.72 Z" />
</g>
<g id="#7e827dff">
<path fill="#7e827d" opacity="1.00" d=" M 128.04 0.00 L 192.43 0.00 C 191.29 0.43 190.16 0.91 189.04 1.38 C 190.04 1.87 191.03 2.37 192.03 2.87 C 179.05 3.80 166.03 3.05 153.04 3.63 C 145.55 4.12 137.82 2.40 130.54 4.83 C 129.90 4.86 128.64 4.93 128.00 4.96 C 128.01 4.45 128.01 3.43 128.02 2.92 C 128.02 2.19 128.04 0.73 128.04 0.00 Z" />
<path fill="#7e827d" opacity="1.00" d=" M 63.95 63.93 C 64.67 63.92 66.13 63.88 66.86 63.86 C 77.33 63.77 87.81 63.84 98.28 63.76 L 99.00 64.14 C 99.00 64.88 99.00 66.37 99.00 67.11 C 88.44 67.59 77.86 67.17 67.29 67.39 C 66.82 77.92 67.26 88.46 66.99 99.00 C 66.24 99.00 64.74 99.00 63.99 99.00 L 63.92 98.13 C 63.74 88.02 63.90 77.89 63.91 67.78 C 63.92 66.50 63.93 65.21 63.95 63.93 Z" />
<path fill="#7e827d" opacity="1.00" d=" M 191.95 63.94 C 192.67 63.93 194.11 63.90 194.84 63.89 C 215.22 63.88 235.61 63.77 256.00 63.96 L 256.00 67.11 C 255.57 66.56 255.13 66.02 254.69 65.48 C 248.14 68.33 240.92 67.26 234.00 67.33 C 221.10 67.38 208.20 67.25 195.30 67.39 C 194.82 77.92 195.23 88.46 194.99 99.00 C 194.24 99.00 192.74 99.00 191.99 99.00 L 191.92 98.13 C 191.74 88.01 191.89 77.89 191.91 67.77 C 191.92 66.49 191.93 65.22 191.95 63.94 Z" />
<path fill="#7e827d" opacity="1.00" d=" M 63.97 191.93 C 64.69 191.92 66.14 191.88 66.86 191.86 C 77.33 191.77 87.80 191.81 98.26 191.79 L 99.00 192.12 C 99.00 192.87 99.00 194.36 99.00 195.11 C 88.34 195.73 77.64 194.80 66.99 195.72 C 67.00 215.10 67.36 234.50 66.84 253.88 C 66.79 254.41 66.69 255.47 66.64 256.00 L 64.08 256.00 C 63.67 235.93 63.94 215.85 63.92 195.77 C 63.93 194.49 63.95 193.21 63.97 191.93 Z" />
<path fill="#7e827d" opacity="1.00" d=" M 191.95 191.93 C 192.67 191.92 194.12 191.89 194.85 191.88 C 215.23 191.96 235.62 191.60 256.00 192.11 L 256.00 194.68 C 235.70 196.35 215.29 194.46 194.97 195.72 C 195.02 215.11 195.33 234.51 194.85 253.90 C 194.80 254.42 194.71 255.47 194.66 256.00 L 192.07 256.00 C 191.66 235.93 191.95 215.85 191.91 195.77 C 191.92 194.49 191.93 193.21 191.95 191.93 Z" />
</g>
<g id="#5c605bff">
<path fill="#5c605b" opacity="1.00" d=" M 192.43 0.00 L 256.00 0.00 L 256.00 2.97 C 255.19 3.01 253.56 3.08 252.75 3.12 C 233.63 3.69 214.50 3.12 195.38 3.40 C 194.82 22.59 195.47 41.80 195.04 60.99 C 194.25 60.98 192.68 60.94 191.89 60.93 C 191.49 41.96 191.78 22.98 191.72 4.01 C 190.54 4.01 189.36 4.00 188.19 4.00 C 188.06 22.99 188.36 41.99 187.99 60.98 C 178.00 61.77 167.86 60.07 157.98 62.04 C 158.05 43.03 158.00 24.02 158.00 5.01 C 148.85 4.93 139.69 5.17 130.54 4.83 C 137.82 2.40 145.55 4.12 153.04 3.63 C 166.03 3.05 179.05 3.80 192.03 2.87 C 191.03 2.37 190.04 1.87 189.04 1.38 C 190.16 0.91 191.29 0.43 192.43 0.00 Z" />
<path fill="#5c605b" opacity="1.00" d=" M 157.96 63.04 C 167.94 64.47 178.04 63.24 188.07 63.87 C 188.07 64.67 188.07 66.26 188.07 67.06 C 178.06 67.38 168.03 66.93 158.02 67.26 C 157.98 65.86 157.96 64.45 157.96 63.04 Z" />
<path fill="#5c605b" opacity="1.00" d=" M 3.13 150.00 C 3.48 143.54 1.68 136.57 4.91 130.60 C 5.07 139.73 4.96 148.87 5.01 158.00 C 23.37 158.03 41.74 158.00 60.11 158.02 C 60.10 168.34 60.32 178.66 59.98 188.98 C 48.66 189.34 37.33 189.06 26.00 189.20 C 18.19 189.34 10.26 188.36 2.58 190.22 C 3.75 176.84 2.84 163.40 3.13 150.00 Z" />
</g>
<g id="#3f433eff">
<path fill="#3f433e" opacity="1.00" d=" M 67.17 3.85 C 87.44 2.97 107.79 4.65 128.02 2.92 C 128.01 3.43 128.01 4.45 128.00 4.96 C 118.31 5.08 108.61 4.95 98.91 5.00 C 98.95 24.72 98.79 44.43 99.00 64.14 L 98.28 63.76 C 98.03 63.16 97.54 61.95 97.29 61.35 C 87.20 61.51 77.02 60.54 67.00 61.95 L 67.05 61.01 C 67.31 41.96 67.03 22.90 67.17 3.85 Z" />
<path fill="#3f433e" opacity="1.00" d=" M 3.20 68.09 C 22.10 67.65 41.01 68.14 59.91 67.82 C 60.43 77.75 60.03 87.71 60.22 97.65 C 61.46 97.80 62.69 97.96 63.92 98.13 L 63.99 99.00 C 44.33 98.80 24.67 98.94 5.01 98.92 C 4.96 108.62 5.07 118.32 4.96 128.01 C 4.52 127.97 3.64 127.89 3.20 127.84 C 2.81 127.79 2.04 127.69 1.66 127.64 C 3.88 120.29 3.03 112.56 3.08 105.00 C 3.22 92.70 2.88 80.39 3.20 68.09 Z" />
<path fill="#3f433e" opacity="1.00" d=" M 158.16 70.84 C 159.50 69.51 160.89 67.89 162.96 67.97 C 171.27 67.64 179.60 68.20 187.92 67.83 C 188.46 77.76 188.02 87.71 188.22 97.65 C 189.45 97.79 190.69 97.96 191.92 98.13 L 191.99 99.00 C 180.70 98.79 169.41 99.01 158.12 98.84 C 158.03 89.51 157.93 80.17 158.16 70.84 Z" />
<path fill="#3f433e" opacity="1.00" d=" M 251.03 131.93 L 251.85 131.86 C 251.70 150.90 252.57 169.95 252.00 188.98 C 240.34 189.35 228.67 189.04 217.00 189.15 C 209.66 189.27 202.24 188.49 194.98 189.93 L 195.03 188.99 C 195.50 178.66 194.42 168.29 195.70 158.00 C 214.13 158.09 232.56 158.03 250.99 158.03 C 251.01 149.33 250.96 140.63 251.03 131.93 Z" />
<path fill="#3f433e" opacity="1.00" d=" M 67.70 158.01 C 78.08 158.11 88.46 157.94 98.84 158.12 C 99.02 169.45 98.78 180.78 99.00 192.12 L 98.26 191.79 C 98.02 191.18 97.54 189.96 97.30 189.35 C 87.20 189.51 77.03 188.54 66.99 189.94 L 67.04 189.00 C 67.49 178.67 66.46 168.30 67.70 158.01 Z" />
<path fill="#3f433e" opacity="1.00" d=" M 158.98 196.07 C 168.62 195.75 178.26 196.08 187.90 195.83 C 188.33 214.88 188.22 233.95 187.98 253.00 C 171.64 253.40 155.30 253.09 138.95 253.12 C 136.27 253.18 133.59 253.40 130.94 253.88 C 130.99 253.16 131.07 251.73 131.12 251.02 C 140.08 250.98 149.04 250.98 158.00 251.02 C 158.02 250.57 158.07 249.69 158.10 249.25 C 159.09 242.88 159.03 236.43 158.88 230.00 C 158.94 218.69 158.75 207.38 158.98 196.07 Z" />
</g>
<g id="#3f423eff">
<path fill="#3f423e" opacity="1.00" d=" M 195.38 3.40 C 214.50 3.12 233.63 3.69 252.75 3.12 C 251.69 11.71 252.31 20.37 252.19 29.00 C 252.09 39.66 252.40 50.33 252.01 60.99 C 240.34 61.36 228.67 61.05 217.00 61.16 C 209.66 61.29 202.24 60.49 194.98 61.93 L 195.04 60.99 C 195.47 41.80 194.82 22.59 195.38 3.40 Z" />
<path fill="#3f423e" opacity="1.00" d=" M 3.21 196.08 C 22.10 195.65 41.01 196.15 59.91 195.81 C 60.36 214.87 60.20 233.95 59.99 253.01 C 43.65 253.41 27.30 253.11 10.96 253.13 C 8.25 253.18 5.54 253.41 2.87 253.90 C 3.51 234.64 2.77 215.35 3.21 196.08 Z" />
</g>
<g id="#2e322dff">
<path fill="#2e322d" opacity="1.00" d=" M 252.75 3.12 C 253.56 3.08 255.19 3.01 256.00 2.97 L 256.00 63.96 C 235.61 63.77 215.22 63.88 194.84 63.89 C 194.87 63.40 194.95 62.42 194.98 61.93 C 202.24 60.49 209.66 61.29 217.00 61.16 C 228.67 61.05 240.34 61.36 252.01 60.99 C 252.40 50.33 252.09 39.66 252.19 29.00 C 252.31 20.37 251.69 11.71 252.75 3.12 Z" />
<path fill="#2e322d" opacity="1.00" d=" M 251.85 131.86 C 253.23 131.74 254.62 131.63 256.00 131.51 L 256.00 192.11 C 235.62 191.60 215.23 191.96 194.85 191.88 C 194.88 191.39 194.95 190.42 194.98 189.93 C 202.24 188.49 209.66 189.27 217.00 189.15 C 228.67 189.04 240.34 189.35 252.00 188.98 C 252.57 169.95 251.70 150.90 251.85 131.86 Z" />
<path fill="#2e322d" opacity="1.00" d=" M 59.91 195.81 C 61.24 195.79 62.58 195.78 63.92 195.77 C 63.94 215.85 63.67 235.93 64.08 256.00 L 2.68 256.00 C 2.72 255.48 2.82 254.43 2.87 253.90 C 5.54 253.41 8.25 253.18 10.96 253.13 C 27.30 253.11 43.65 253.41 59.99 253.01 C 60.20 233.95 60.36 214.87 59.91 195.81 Z" />
<path fill="#2e322d" opacity="1.00" d=" M 187.90 195.83 C 189.24 195.80 190.57 195.79 191.91 195.77 C 191.95 215.85 191.66 235.93 192.07 256.00 L 130.76 256.00 C 130.81 255.47 130.90 254.41 130.94 253.88 C 133.59 253.40 136.27 253.18 138.95 253.12 C 155.30 253.09 171.64 253.40 187.98 253.00 C 188.22 233.95 188.33 214.88 187.90 195.83 Z" />
</g>
<g id="#4c504bff">
<path fill="#4c504b" opacity="1.00" d=" M 60.19 4.01 C 61.36 4.03 62.55 4.05 63.73 4.07 C 63.80 23.01 63.47 41.96 63.91 60.90 C 64.69 60.93 66.26 60.98 67.05 61.01 L 67.00 61.95 C 66.96 62.42 66.89 63.38 66.86 63.86 C 66.13 63.88 64.67 63.92 63.95 63.93 C 63.93 65.21 63.92 66.50 63.91 67.78 C 62.57 67.79 61.24 67.80 59.91 67.82 C 41.01 68.14 22.10 67.65 3.20 68.09 L 3.28 67.21 C 22.19 66.81 41.12 67.35 60.03 66.98 C 60.03 66.22 60.02 64.69 60.01 63.93 C 47.01 63.60 34.00 63.85 21.00 63.76 C 14.85 63.64 8.38 64.86 2.57 62.20 C 10.26 60.38 18.19 61.35 26.00 61.19 C 37.33 61.07 48.65 61.35 59.97 61.00 C 60.37 42.01 60.02 23.01 60.19 4.01 Z" />
<path fill="#4c504b" opacity="1.00" d=" M 188.19 4.00 C 189.36 4.00 190.54 4.01 191.72 4.01 C 191.78 22.98 191.49 41.96 191.89 60.93 C 192.68 60.94 194.25 60.98 195.04 60.99 L 194.98 61.93 C 194.95 62.42 194.87 63.40 194.84 63.89 C 194.11 63.90 192.67 63.93 191.95 63.94 C 191.93 65.22 191.92 66.49 191.91 67.77 C 190.57 67.78 189.24 67.80 187.92 67.83 C 179.60 68.20 171.27 67.64 162.96 67.97 C 160.89 67.89 159.50 69.51 158.16 70.84 C 158.11 69.65 158.06 68.45 158.02 67.26 C 168.03 66.93 178.06 67.38 188.07 67.06 C 188.07 66.26 188.07 64.67 188.07 63.87 C 178.04 63.24 167.94 64.47 157.96 63.04 L 157.98 62.04 C 167.86 60.07 178.00 61.77 187.99 60.98 C 188.36 41.99 188.06 22.99 188.19 4.00 Z" />
<path fill="#4c504b" opacity="1.00" d=" M 60.11 158.02 C 60.90 158.01 62.48 158.01 63.27 158.01 C 64.33 168.28 63.36 178.61 63.92 188.90 C 64.70 188.92 66.26 188.97 67.04 189.00 L 66.99 189.94 C 66.96 190.42 66.89 191.38 66.86 191.86 C 66.14 191.88 64.69 191.92 63.97 191.93 C 63.95 193.21 63.93 194.49 63.92 195.77 C 62.58 195.78 61.24 195.79 59.91 195.81 C 41.01 196.15 22.10 195.65 3.21 196.08 L 3.28 195.19 C 22.19 194.80 41.11 195.36 60.03 194.95 C 60.02 194.20 60.00 192.70 59.99 191.95 C 47.00 191.60 34.00 191.86 21.00 191.77 C 14.85 191.66 8.40 192.83 2.58 190.22 C 10.26 188.36 18.19 189.34 26.00 189.20 C 37.33 189.06 48.66 189.34 59.98 188.98 C 60.32 178.66 60.10 168.34 60.11 158.02 Z" />
<path fill="#4c504b" opacity="1.00" d=" M 188.98 157.98 C 189.52 157.98 190.60 157.97 191.14 157.96 C 192.46 168.23 191.29 178.59 191.91 188.89 C 192.69 188.92 194.25 188.97 195.03 188.99 L 194.98 189.93 C 194.95 190.42 194.88 191.39 194.85 191.88 C 194.12 191.89 192.67 191.92 191.95 191.93 C 191.93 193.21 191.92 194.49 191.91 195.77 C 190.57 195.79 189.24 195.80 187.90 195.83 C 178.26 196.08 168.62 195.75 158.98 196.07 C 158.75 207.38 158.94 218.69 158.88 230.00 C 159.03 236.43 159.09 242.88 158.10 249.25 C 157.86 231.17 158.08 213.09 157.98 195.01 C 168.00 195.19 178.03 195.24 188.05 195.03 C 188.05 194.24 188.06 192.66 188.06 191.87 C 178.04 191.28 167.95 192.46 157.97 191.06 L 157.98 190.05 C 167.87 188.07 178.00 189.80 187.99 188.99 C 188.75 178.66 187.12 168.21 188.98 157.98 Z" />
</g>
<g id="#ffffffff">
<path fill="#ffffff" opacity="1.00" d=" M 98.91 5.00 C 108.61 4.95 118.31 5.08 128.00 4.96 C 128.64 4.93 129.90 4.86 130.54 4.83 C 139.69 5.17 148.85 4.93 158.00 5.01 C 158.00 24.02 158.05 43.03 157.98 62.04 L 157.96 63.04 C 157.96 64.45 157.98 65.86 158.02 67.26 C 158.06 68.45 158.11 69.65 158.16 70.84 C 157.93 80.17 158.03 89.51 158.12 98.84 C 169.41 99.01 180.70 98.79 191.99 99.00 C 192.74 99.00 194.24 99.00 194.99 99.00 C 213.66 98.96 232.33 98.98 251.00 98.99 C 251.01 107.75 250.93 116.51 251.12 125.27 C 251.06 127.49 251.05 129.71 251.03 131.93 C 250.96 140.63 251.01 149.33 250.99 158.03 C 232.56 158.03 214.13 158.09 195.70 158.00 C 194.18 157.98 192.66 157.96 191.14 157.96 C 190.60 157.97 189.52 157.98 188.98 157.98 C 178.68 158.08 168.38 157.89 158.08 158.08 C 157.88 168.74 158.08 179.39 157.98 190.05 L 157.97 191.06 C 157.96 192.37 157.96 193.69 157.98 195.01 C 158.08 213.09 157.86 231.17 158.10 249.25 C 158.07 249.69 158.02 250.57 158.00 251.02 C 149.04 250.98 140.08 250.98 131.12 251.02 C 128.93 251.04 126.74 251.06 124.55 251.15 C 116.03 250.88 107.51 251.03 98.99 250.99 C 98.98 232.37 98.96 213.74 99.00 195.11 C 99.00 194.36 99.00 192.87 99.00 192.12 C 98.78 180.78 99.02 169.45 98.84 158.12 C 88.46 157.94 78.08 158.11 67.70 158.01 C 66.22 158.01 64.75 158.00 63.27 158.01 C 62.48 158.01 60.90 158.01 60.11 158.02 C 41.74 158.00 23.37 158.03 5.01 158.00 C 4.96 148.87 5.07 139.73 4.91 130.60 C 4.92 129.95 4.95 128.66 4.96 128.01 C 5.07 118.32 4.96 108.62 5.01 98.92 C 24.67 98.94 44.33 98.80 63.99 99.00 C 64.74 99.00 66.24 99.00 66.99 99.00 C 77.62 98.91 88.26 99.09 98.89 98.89 C 99.09 88.30 98.91 77.70 99.00 67.11 C 99.00 66.37 99.00 64.88 99.00 64.14 C 98.79 44.43 98.95 24.72 98.91 5.00 Z" />
</g>
<g id="#2a2e29ff">
<path fill="#2a2e29" opacity="1.00" d=" M 67.00 61.95 C 77.02 60.54 87.20 61.51 97.29 61.35 C 97.54 61.95 98.03 63.16 98.28 63.76 C 87.81 63.84 77.33 63.77 66.86 63.86 C 66.89 63.38 66.96 62.42 67.00 61.95 Z" />
<path fill="#2a2e29" opacity="1.00" d=" M 66.99 189.94 C 77.03 188.54 87.20 189.51 97.30 189.35 C 97.54 189.96 98.02 191.18 98.26 191.79 C 87.80 191.81 77.33 191.77 66.86 191.86 C 66.89 191.38 66.96 190.42 66.99 189.94 Z" />
</g>
<g id="#5f635eff">
<path fill="#5f635e" opacity="1.00" d=" M 0.00 61.99 C 0.64 62.04 1.93 62.15 2.57 62.20 C 8.38 64.86 14.85 63.64 21.00 63.76 C 34.00 63.85 47.01 63.60 60.01 63.93 C 60.02 64.69 60.03 66.22 60.03 66.98 C 41.12 67.35 22.19 66.81 3.28 67.21 L 3.20 68.09 C 2.88 80.39 3.22 92.70 3.08 105.00 C 3.03 112.56 3.88 120.29 1.66 127.64 C 2.04 127.69 2.81 127.79 3.20 127.84 C 2.40 127.80 0.80 127.71 0.00 127.67 L 0.00 61.99 Z" />
<path fill="#5f635e" opacity="1.00" d=" M 0.00 189.98 C 0.65 190.04 1.94 190.16 2.58 190.22 C 8.40 192.83 14.85 191.66 21.00 191.77 C 34.00 191.86 47.00 191.60 59.99 191.95 C 60.00 192.70 60.02 194.20 60.03 194.95 C 41.11 195.36 22.19 194.80 3.28 195.19 L 3.21 196.08 C 2.77 215.35 3.51 234.64 2.87 253.90 C 2.82 254.43 2.72 255.48 2.68 256.00 L 0.00 256.00 L 0.00 189.98 Z" />
</g>
<g id="#2d312cff">
<path fill="#2d312c" opacity="1.00" d=" M 59.91 67.82 C 61.24 67.80 62.57 67.79 63.91 67.78 C 63.90 77.89 63.74 88.02 63.92 98.13 C 62.69 97.96 61.46 97.80 60.22 97.65 C 60.03 87.71 60.43 77.75 59.91 67.82 Z" />
<path fill="#2d312c" opacity="1.00" d=" M 187.92 67.83 C 189.24 67.80 190.57 67.78 191.91 67.77 C 191.89 77.89 191.74 88.01 191.92 98.13 C 190.69 97.96 189.45 97.79 188.22 97.65 C 188.02 87.71 188.46 77.76 187.92 67.83 Z" />
</g>
<g id="#4d514cff">
<path fill="#4d514c" opacity="1.00" d=" M 252.16 68.14 C 253.44 67.99 254.72 67.85 256.00 67.70 L 256.00 131.51 C 254.62 131.63 253.23 131.74 251.85 131.86 L 251.03 131.93 C 251.05 129.71 251.06 127.49 251.12 125.27 C 252.42 116.90 251.72 108.44 251.97 100.01 C 252.30 89.39 252.03 78.76 252.16 68.14 Z" />
<path fill="#4d514c" opacity="1.00" d=" M 252.18 196.37 C 253.45 196.08 254.73 195.78 256.00 195.47 L 256.00 256.00 L 194.66 256.00 C 194.71 255.47 194.80 254.42 194.85 253.90 C 202.15 252.50 209.62 253.27 217.00 253.15 C 228.66 253.03 240.32 253.36 251.97 252.98 C 252.40 234.11 251.96 215.24 252.18 196.37 Z" />
</g>
<g id="#5e615dff">
<path fill="#5e615d" opacity="1.00" d=" M 63.27 158.01 C 64.75 158.00 66.22 158.01 67.70 158.01 C 66.46 168.30 67.49 178.67 67.04 189.00 C 66.26 188.97 64.70 188.92 63.92 188.90 C 63.36 178.61 64.33 168.28 63.27 158.01 Z" />
</g>
<g id="#5e625dff">
<path fill="#5e625d" opacity="1.00" d=" M 191.14 157.96 C 192.66 157.96 194.18 157.98 195.70 158.00 C 194.42 168.29 195.50 178.66 195.03 188.99 C 194.25 188.97 192.69 188.92 191.91 188.89 C 191.29 178.59 192.46 168.23 191.14 157.96 Z" />
</g>
<g id="#50534fff">
<path fill="#50534f" opacity="1.00" d=" M 124.55 251.15 C 126.74 251.06 128.93 251.04 131.12 251.02 C 131.07 251.73 130.99 253.16 130.94 253.88 C 130.90 254.41 130.81 255.47 130.76 256.00 L 66.64 256.00 C 66.69 255.47 66.79 254.41 66.84 253.88 C 70.83 253.03 74.93 252.90 79.01 252.96 C 91.35 253.20 103.69 252.87 116.03 253.19 C 119.03 253.42 121.89 252.45 124.55 251.15 Z" />
</g>
</svg>
