<?xml version="1.0" encoding="UTF-8" ?>
<!DOCTYPE svg PUBLIC "-//W3C//DTD SVG 1.1//EN" "http://www.w3.org/Graphics/SVG/1.1/DTD/svg11.dtd">
<svg width="256pt" height="256pt" viewBox="0 0 256 256" version="1.1" xmlns="http://www.w3.org/2000/svg">
<g id="#a660c6dd">
<path fill="#a660c6" opacity="0.87" d=" M 133.38 7.09 C 136.24 5.63 139.36 4.57 142.62 5.01 C 139.54 5.72 136.46 6.41 133.38 7.09 Z" />
</g>
<g id="#9e3dffff">
<path fill="#9e3dff" opacity="1.00" d=" M 142.62 5.01 C 142.96 5.09 143.65 5.24 144.00 5.31 C 145.46 6.07 147.12 6.46 148.76 6.07 C 151.05 5.56 153.06 7.06 154.97 8.07 C 162.54 12.41 167.16 21.23 166.61 29.88 C 166.05 36.42 162.90 42.77 157.55 46.68 C 150.88 52.11 141.17 52.95 133.40 49.52 C 126.95 46.55 122.01 40.47 120.44 33.55 C 121.06 28.64 120.46 23.58 121.90 18.78 C 124.20 13.70 128.29 9.40 133.38 7.09 C 136.46 6.41 139.54 5.72 142.62 5.01 Z" />
<path fill="#9e3dff" opacity="1.00" d=" M 81.31 49.28 C 86.01 44.37 92.09 40.40 99.01 39.79 C 107.72 38.32 116.90 41.57 123.01 47.90 C 125.84 50.56 127.13 54.41 130.00 57.03 C 136.91 64.09 143.51 71.47 150.51 78.44 C 166.01 78.48 181.55 78.39 197.07 78.45 C 202.37 78.38 207.02 82.15 208.82 87.01 C 209.54 89.34 209.39 91.80 209.35 94.20 C 208.13 97.25 206.51 100.26 203.74 102.17 C 202.49 102.61 201.24 103.07 199.95 103.38 C 180.97 102.48 161.93 103.44 142.95 102.91 C 139.45 101.78 137.41 98.06 134.06 96.48 C 130.11 93.55 126.89 89.78 123.06 86.70 C 115.40 94.57 107.66 102.36 100.07 110.30 C 102.16 111.00 104.24 111.74 106.35 112.36 C 106.39 112.37 106.45 112.39 106.48 112.40 L 107.68 112.87 C 111.73 114.73 116.02 115.98 120.38 116.83 C 125.91 118.13 131.09 120.77 136.81 121.25 C 140.59 121.69 143.71 124.11 146.03 127.00 C 153.89 136.47 161.74 145.95 169.67 155.36 C 171.97 158.06 174.12 161.30 173.78 165.02 C 173.98 171.29 168.82 176.38 163.25 178.39 C 159.81 178.55 155.88 179.21 152.91 176.99 C 150.99 175.62 149.41 173.85 147.89 172.07 C 139.79 162.54 131.94 152.79 123.84 143.26 C 122.50 141.42 119.93 141.60 118.02 140.73 C 115.88 139.83 113.56 139.41 111.26 139.91 C 110.69 139.87 109.55 139.78 108.98 139.74 C 107.20 139.02 105.32 138.33 103.38 138.74 L 102.00 138.88 C 101.06 137.83 99.57 137.68 98.26 137.98 C 97.71 137.92 96.59 137.81 96.04 137.75 C 94.51 137.16 92.84 136.53 91.18 136.97 L 90.92 136.62 C 90.29 135.48 88.86 135.55 87.83 136.03 L 85.95 135.82 C 85.18 135.01 84.27 134.75 83.22 135.03 C 77.62 135.24 72.61 131.59 66.95 131.69 C 56.33 131.68 46.04 124.94 42.05 115.05 C 37.52 105.18 39.81 92.94 47.08 84.99 C 58.37 72.98 69.94 61.23 81.31 49.28 Z" />
<path fill="#9e3dff" opacity="1.00" d=" M 16.00 236.99 C 91.00 237.00 166.00 237.01 241.00 236.99 C 241.11 241.59 240.69 246.22 241.26 250.81 C 215.17 251.25 189.06 250.87 162.96 251.00 C 113.89 251.08 64.81 250.84 15.75 251.12 C 16.17 246.42 15.97 241.70 16.00 236.99 Z" />
</g>
<g id="#b86dd2e9">
<path fill="#b86dd2" opacity="0.91" d=" M 144.00 5.31 C 145.22 4.53 148.65 4.18 148.76 6.07 C 147.12 6.46 145.46 6.07 144.00 5.31 Z" />
</g>
<g id="#8c51a7c3">
<path fill="#8c51a7" opacity="0.76" d=" M 120.44 33.55 C 119.42 28.65 119.50 23.30 121.90 18.78 C 120.46 23.58 121.06 28.64 120.44 33.55 Z" />
</g>
<g id="#a65dcde6">
<path fill="#a65dcd" opacity="0.90" d=" M 134.06 96.48 C 137.41 98.06 139.45 101.78 142.95 102.91 C 161.93 103.44 180.97 102.48 199.95 103.38 C 198.68 103.70 197.39 103.90 196.08 103.97 C 178.01 104.16 159.93 103.74 141.86 104.18 C 139.39 101.48 136.32 99.38 134.06 96.48 Z" />
</g>
<g id="#1a111b53">
<path fill="#1a111b" opacity="0.33" d=" M 199.95 103.38 C 201.24 103.07 202.49 102.61 203.74 102.17 C 201.65 104.78 198.04 104.88 194.97 104.97 C 178.96 104.95 162.94 104.93 146.92 104.98 C 145.19 105.03 143.48 104.77 141.86 104.18 C 159.93 103.74 178.01 104.16 196.08 103.97 C 197.39 103.90 198.68 103.70 199.95 103.38 Z" />
</g>
<g id="#895d8dbb">
<path fill="#895d8d" opacity="0.73" d=" M 106.35 112.36 C 106.39 112.37 106.45 112.39 106.48 112.40 C 106.45 112.39 106.39 112.37 106.35 112.36 Z" />
</g>
<g id="#9955bdd2">
<path fill="#9955bd" opacity="0.82" d=" M 107.68 112.87 C 112.00 113.88 116.24 115.26 120.38 116.83 C 116.02 115.98 111.73 114.73 107.68 112.87 Z" />
</g>
<g id="#ad64cce4">
<path fill="#ad64cc" opacity="0.89" d=" M 83.22 135.03 C 84.27 134.75 85.18 135.01 85.95 135.82 C 84.46 136.86 83.55 136.59 83.22 135.03 Z" />
</g>
<g id="#a25fc0d7">
<path fill="#a25fc0" opacity="0.84" d=" M 87.83 136.03 C 88.86 135.55 90.29 135.48 90.92 136.62 C 89.93 137.67 88.89 137.71 87.81 136.74 L 87.83 136.03 Z" />
</g>
<g id="#a464bcd6">
<path fill="#a464bc" opacity="0.84" d=" M 91.18 136.97 C 92.84 136.53 94.51 137.16 96.04 137.75 C 94.62 138.63 92.21 138.28 91.18 136.97 Z" />
</g>
<g id="#af6ac6e1">
<path fill="#af6ac6" opacity="0.88" d=" M 98.26 137.98 C 99.57 137.68 101.06 137.83 102.00 138.88 C 101.01 139.62 98.10 139.64 98.26 137.98 Z" />
</g>
<g id="#945ba5c1">
<path fill="#945ba5" opacity="0.76" d=" M 103.38 138.74 C 105.32 138.33 107.20 139.02 108.98 139.74 C 107.43 140.58 103.90 140.69 103.38 138.74 Z" />
</g>
<g id="#a966c1d9">
<path fill="#a966c1" opacity="0.85" d=" M 111.26 139.91 C 113.56 139.41 115.88 139.83 118.02 140.73 C 115.91 141.40 113.07 141.55 111.17 140.25 L 111.26 139.91 Z" />
</g>
<g id="#24142a6c">
<path fill="#24142a" opacity="0.42" d=" M 15.44 235.45 C 18.87 234.55 22.49 235.13 25.99 234.99 C 89.33 235.00 152.66 234.99 216.00 235.00 C 224.55 235.14 233.13 234.67 241.67 235.27 C 241.77 240.71 242.02 246.17 241.52 251.59 L 241.26 250.81 C 240.69 246.22 241.11 241.59 241.00 236.99 L 241.00 235.96 C 166.00 236.02 91.00 236.00 16.00 235.96 L 16.00 236.99 C 15.97 241.70 16.17 246.42 15.75 251.12 C 14.54 246.05 15.01 240.60 15.44 235.45 Z" />
</g>
<g id="#b55bf0fd">
<path fill="#b55bf0" opacity="1.00" d=" M 16.00 235.96 C 91.00 236.00 166.00 236.02 241.00 235.96 L 241.00 236.99 C 166.00 237.01 91.00 237.00 16.00 236.99 L 16.00 235.96 Z" />
</g>
</svg>
