<?xml version="1.0" encoding="UTF-8" ?>
<!DOCTYPE svg PUBLIC "-//W3C//DTD SVG 1.1//EN" "http://www.w3.org/Graphics/SVG/1.1/DTD/svg11.dtd">
<svg width="256pt" height="256pt" viewBox="0 0 256 256" version="1.1" xmlns="http://www.w3.org/2000/svg">
<g id="#7f837eff">
<path fill="#7f837e" opacity="1.00" d=" M 0.00 0.00 L 65.62 0.00 C 63.68 1.82 61.42 3.45 58.63 3.35 C 40.14 3.74 21.64 3.10 3.15 3.64 C 3.13 22.84 3.42 42.04 3.04 61.23 C 2.02 61.52 1.00 61.82 0.00 62.15 L 0.00 0.00 Z" />
<path fill="#7f837e" opacity="1.00" d=" M 128.44 0.00 L 192.99 0.00 C 192.39 0.84 191.82 1.69 191.26 2.55 C 189.17 2.92 187.08 3.32 184.95 3.43 C 167.43 3.69 149.88 3.09 132.37 3.68 C 132.00 4.03 131.26 4.73 130.89 5.08 L 129.98 5.94 C 129.03 5.95 128.07 5.97 127.11 6.00 L 127.51 5.01 C 127.67 4.56 127.98 3.65 128.14 3.20 C 128.25 2.13 128.36 1.07 128.44 0.00 Z" />
</g>
<g id="#5d615cff">
<path fill="#5d615c" opacity="1.00" d=" M 65.62 0.00 L 128.44 0.00 C 128.36 1.07 128.25 2.13 128.14 3.20 C 107.84 3.96 87.51 3.14 67.21 3.71 C 67.12 14.89 67.53 26.09 67.02 37.26 C 65.98 38.88 64.93 40.48 63.92 42.12 C 63.25 29.48 63.67 16.81 63.70 4.17 C 62.92 3.97 61.37 3.56 60.59 3.36 C 60.06 18.34 60.40 33.34 60.42 48.33 C 58.46 52.79 56.85 57.40 55.67 62.14 C 38.35 62.70 21.00 61.89 3.69 62.50 C 20.95 62.94 38.22 62.55 55.49 62.77 C 55.14 64.25 54.83 65.74 54.57 67.24 C 37.48 67.65 20.38 67.34 3.29 67.39 C 3.07 86.85 3.57 106.33 3.04 125.78 C 2.98 126.30 2.86 127.35 2.80 127.87 C 2.10 127.89 0.70 127.94 0.00 127.96 L 0.00 62.15 C 1.00 61.82 2.02 61.52 3.04 61.23 C 3.42 42.04 3.13 22.84 3.15 3.64 C 21.64 3.10 40.14 3.74 58.63 3.35 C 61.42 3.45 63.68 1.82 65.62 0.00 Z" />
<path fill="#5d615c" opacity="1.00" d=" M 202.38 67.47 C 219.01 67.44 235.65 67.48 252.28 67.45 C 252.78 86.78 252.54 106.12 252.43 125.46 C 236.26 125.51 220.09 125.67 203.92 125.38 C 203.56 109.79 204.31 94.19 203.51 78.61 C 203.71 74.86 204.11 70.96 202.38 67.47 Z" />
<path fill="#5d615c" opacity="1.00" d=" M 85.77 88.49 C 94.19 89.05 102.77 87.67 111.01 90.02 C 115.88 90.42 120.21 94.09 121.22 98.90 C 123.12 105.05 118.13 111.20 112.31 112.74 C 110.31 112.43 109.51 114.48 111.53 115.27 C 114.67 118.06 117.96 121.04 119.35 125.13 C 116.12 125.24 112.89 125.31 109.66 125.37 C 106.82 121.42 104.73 115.91 99.64 114.47 C 97.81 114.18 95.96 114.01 94.12 113.82 C 94.12 120.10 93.65 126.41 94.31 132.67 C 91.45 133.04 88.56 133.06 85.69 132.76 C 86.32 127.53 85.87 122.24 86.00 116.98 C 85.88 107.48 86.26 97.98 85.77 88.49 M 94.07 96.13 C 93.98 100.07 93.99 104.02 94.07 107.96 C 98.83 107.64 103.92 108.93 108.44 107.06 C 109.61 107.02 110.77 106.95 111.94 106.87 C 111.98 106.14 112.05 104.68 112.09 103.95 L 113.19 104.00 C 113.33 100.73 112.06 96.97 108.30 96.64 L 107.93 96.24 L 107.45 96.31 C 103.00 95.83 98.53 95.98 94.07 96.13 Z" />
<path fill="#5d615c" opacity="1.00" d=" M 125.54 194.24 C 147.70 193.65 169.88 194.16 192.05 193.97 C 192.03 194.39 192.01 195.23 191.99 195.65 C 191.54 195.53 190.62 195.29 190.16 195.17 C 189.63 195.21 188.58 195.29 188.06 195.33 C 169.10 195.94 150.11 195.05 131.15 195.75 C 131.18 199.25 131.26 202.76 131.40 206.26 C 130.49 206.20 128.68 206.09 127.77 206.04 C 127.69 202.70 127.63 199.36 127.58 196.02 C 126.48 195.98 125.38 195.94 124.29 195.91 C 124.27 199.26 124.24 202.62 124.21 205.97 C 105.18 206.02 86.16 206.01 67.14 205.98 C 67.15 202.52 67.15 199.07 67.16 195.61 C 80.44 195.26 93.72 195.56 107.01 195.45 C 113.19 195.29 119.55 196.27 125.54 194.24 Z" />
<path fill="#5d615c" opacity="1.00" d=" M 227.90 195.85 C 235.93 195.13 243.99 195.61 252.03 195.41 C 252.58 214.66 252.37 233.94 252.18 253.21 C 240.81 253.53 229.43 253.22 218.05 253.33 C 210.37 253.47 202.65 252.89 194.99 253.71 C 195.10 253.06 195.33 251.76 195.44 251.11 C 208.62 250.78 221.81 251.13 234.99 250.95 L 235.99 250.95 C 236.07 240.30 235.98 229.66 236.02 219.02 C 236.03 214.49 236.40 209.91 235.39 205.46 C 233.08 202.11 230.45 199.01 227.90 195.85 Z" />
</g>
<g id="#5c605bff">
<path fill="#5c605b" opacity="1.00" d=" M 192.99 0.00 L 256.00 0.00 L 256.00 3.38 C 254.67 3.41 253.34 3.44 252.02 3.47 C 233.09 3.73 214.15 3.25 195.23 3.72 C 195.11 16.98 195.57 30.24 194.98 43.49 C 193.94 41.76 192.81 40.09 191.71 38.39 C 191.29 26.78 191.96 15.16 191.38 3.55 C 190.61 3.66 189.06 3.89 188.29 4.00 C 188.03 13.59 189.26 23.30 187.52 32.80 C 184.81 29.42 181.95 26.10 178.52 23.42 C 170.64 17.05 162.02 11.05 152.06 8.55 C 150.21 7.42 148.11 6.85 145.94 7.05 L 145.24 6.85 C 144.03 5.75 142.38 5.52 140.84 5.92 C 140.55 5.86 139.95 5.74 139.66 5.67 C 136.79 4.98 133.82 4.80 130.89 5.08 C 131.26 4.73 132.00 4.03 132.37 3.68 C 149.88 3.09 167.43 3.69 184.95 3.43 C 187.08 3.32 189.17 2.92 191.26 2.55 C 191.82 1.69 192.39 0.84 192.99 0.00 Z" />
<path fill="#5c605b" opacity="1.00" d=" M 3.18 131.66 C 20.01 131.25 36.86 131.45 53.69 131.57 C 53.31 145.05 53.60 158.54 53.52 172.02 C 53.61 178.98 53.21 185.95 53.86 192.89 L 54.00 193.83 C 57.34 194.02 60.70 193.98 64.05 193.99 C 64.03 194.34 64.01 195.03 64.00 195.38 C 62.70 195.39 61.40 195.40 60.10 195.42 C 54.73 195.51 49.36 195.52 43.99 195.65 C 44.02 195.33 44.07 194.70 44.10 194.38 C 44.33 193.72 44.80 192.41 45.03 191.75 C 47.59 191.67 50.15 191.57 52.72 191.46 C 52.74 190.96 52.79 189.95 52.82 189.45 C 50.25 189.38 47.68 189.31 45.12 189.24 C 44.95 186.00 44.63 182.76 44.28 179.54 L 44.22 178.50 C 40.79 182.05 37.73 185.91 34.44 189.58 C 24.00 189.21 13.56 189.50 3.13 189.35 C 3.38 170.12 3.21 150.89 3.18 131.66 Z" />
<path fill="#5c605b" opacity="1.00" d=" M 212.42 191.79 L 212.63 192.58 C 213.05 194.36 213.67 196.09 214.56 197.70 C 216.00 200.14 218.09 202.08 219.97 204.17 C 219.96 204.62 219.93 205.51 219.91 205.96 C 211.62 206.28 203.32 205.80 195.02 206.11 C 195.13 202.43 195.22 198.76 195.32 195.09 C 200.83 195.27 206.33 195.48 211.84 195.38 C 211.99 194.48 212.27 192.69 212.42 191.79 Z" />
</g>
<g id="#3f433eff">
<path fill="#3f433e" opacity="1.00" d=" M 67.21 3.71 C 87.51 3.14 107.84 3.96 128.14 3.20 C 127.98 3.65 127.67 4.56 127.51 5.01 C 124.47 5.04 121.39 4.86 118.41 5.61 C 118.08 5.68 117.43 5.83 117.10 5.90 C 115.56 5.52 113.90 5.72 112.69 6.82 L 111.68 6.83 C 111.24 6.92 110.36 7.10 109.92 7.19 C 109.46 7.41 108.53 7.83 108.07 8.05 C 107.47 8.18 106.26 8.44 105.66 8.58 C 98.11 10.51 91.42 14.66 85.01 18.94 C 77.85 23.77 71.90 30.18 67.02 37.26 C 67.53 26.09 67.12 14.89 67.21 3.71 Z" />
<path fill="#3f433e" opacity="1.00" d=" M 3.29 67.39 C 20.38 67.34 37.48 67.65 54.57 67.24 C 53.13 87.50 53.45 107.85 53.71 128.17 L 53.47 127.73 C 53.14 127.19 52.48 126.11 52.15 125.57 C 35.78 125.74 19.40 125.32 3.04 125.78 C 3.57 106.33 3.07 86.85 3.29 67.39 Z" />
<path fill="#3f433e" opacity="1.00" d=" M 252.28 67.45 C 253.52 67.45 254.76 67.45 256.00 67.44 L 256.00 131.80 C 254.81 131.68 253.62 131.56 252.43 131.44 C 252.11 150.67 252.58 169.92 252.20 189.15 C 242.33 189.65 232.44 188.95 222.57 189.60 C 220.25 186.56 217.62 183.78 215.10 180.91 C 214.33 180.02 213.55 179.14 212.78 178.26 C 212.78 183.03 212.76 187.80 212.63 192.58 L 212.42 191.79 C 212.26 191.20 211.93 190.01 211.77 189.42 C 209.39 189.42 207.01 189.41 204.63 189.41 C 204.41 190.00 203.98 191.18 203.77 191.76 C 203.63 192.08 203.37 192.70 203.24 193.01 C 203.40 154.88 203.18 116.74 203.51 78.61 C 204.31 94.19 203.56 109.79 203.92 125.38 C 220.09 125.67 236.26 125.51 252.43 125.46 C 252.54 106.12 252.78 86.78 252.28 67.45 M 203.84 127.52 C 203.83 128.47 203.80 130.37 203.79 131.32 C 220.01 131.54 236.22 131.38 252.44 131.40 C 252.49 130.41 252.59 128.42 252.64 127.43 C 236.38 127.44 220.10 127.24 203.84 127.52 Z" />
<path fill="#3f433e" opacity="1.00" d=" M 130.27 88.62 C 132.84 88.81 135.41 88.82 137.98 88.80 C 137.99 100.93 138.05 113.06 137.94 125.19 C 135.75 125.34 133.57 125.48 131.38 125.61 C 131.28 126.16 131.09 127.25 131.00 127.79 C 130.89 128.77 130.69 130.72 130.59 131.69 C 132.95 131.69 135.32 131.69 137.69 131.68 C 137.70 131.88 137.72 132.27 137.73 132.46 C 135.34 132.41 132.95 132.35 130.56 132.29 C 129.98 117.74 130.66 103.18 130.27 88.62 Z" />
<path fill="#3f433e" opacity="1.00" d=" M 148.02 88.81 C 156.52 88.59 165.09 88.63 173.40 90.62 C 177.09 91.90 179.23 95.43 180.87 98.75 C 180.98 101.07 181.01 103.40 181.01 105.72 C 179.58 109.47 177.18 113.30 173.23 114.73 C 172.86 114.88 172.13 115.19 171.77 115.34 C 171.42 115.50 170.72 115.82 170.38 115.98 C 165.84 116.16 161.28 115.74 156.76 116.21 L 156.03 116.31 C 155.50 120.15 156.08 124.10 155.99 127.99 C 153.18 128.09 150.39 127.94 147.60 127.68 C 149.90 127.04 153.63 128.18 155.02 125.99 C 152.99 124.79 150.35 125.33 148.08 125.00 C 147.91 112.94 148.03 100.87 148.02 88.81 M 155.91 96.13 C 155.87 100.42 155.86 104.71 155.89 109.00 C 160.23 108.94 164.58 109.18 168.90 108.77 L 167.75 108.10 C 168.22 108.12 169.17 108.14 169.64 108.16 C 170.45 107.30 171.25 106.45 172.07 105.60 C 172.08 103.76 172.17 101.90 171.92 100.07 C 171.08 97.37 168.00 96.62 165.52 96.40 C 162.33 95.90 159.11 95.94 155.91 96.13 Z" />
<path fill="#3f433e" opacity="1.00" d=" M 131.15 195.75 C 150.11 195.05 169.10 195.94 188.06 195.33 C 188.19 198.87 188.25 202.42 188.26 205.98 C 169.31 206.18 150.33 205.63 131.40 206.26 C 131.26 202.76 131.18 199.25 131.15 195.75 Z" />
</g>
<g id="#2c302bff">
<path fill="#2c302b" opacity="1.00" d=" M 252.02 3.47 C 253.34 3.44 254.67 3.41 256.00 3.38 L 256.00 63.84 C 237.92 63.75 219.84 64.04 201.76 63.69 C 201.76 63.07 201.75 61.83 201.75 61.21 C 218.55 61.40 235.37 61.46 252.17 61.18 C 252.34 41.95 252.66 22.69 252.02 3.47 Z" />
<path fill="#2c302b" opacity="1.00" d=" M 148.08 125.00 C 150.35 125.33 152.99 124.79 155.02 125.99 C 153.63 128.18 149.90 127.04 147.60 127.68 C 147.72 127.01 147.96 125.67 148.08 125.00 Z" />
<path fill="#2c302b" opacity="1.00" d=" M 252.43 131.44 C 253.62 131.56 254.81 131.68 256.00 131.80 L 256.00 192.26 C 245.33 191.46 234.61 191.96 223.92 191.88 C 223.58 191.31 222.91 190.17 222.57 189.60 C 232.44 188.95 242.33 189.65 252.20 189.15 C 252.58 169.92 252.11 150.67 252.43 131.44 Z" />
<path fill="#2c302b" opacity="1.00" d=" M 60.10 195.42 C 61.40 195.40 62.70 195.39 64.00 195.38 C 63.87 199.07 63.80 202.77 63.70 206.46 C 62.56 206.28 61.41 206.12 60.25 205.99 C 60.28 202.47 60.23 198.94 60.10 195.42 Z" />
<path fill="#2c302b" opacity="1.00" d=" M 188.06 195.33 C 188.58 195.29 189.63 195.21 190.16 195.17 C 190.62 195.29 191.54 195.53 191.99 195.65 C 191.88 199.23 191.79 202.81 191.66 206.39 C 190.53 206.22 189.39 206.09 188.26 205.98 C 188.25 202.42 188.19 198.87 188.06 195.33 Z" />
<path fill="#2c302b" opacity="1.00" d=" M 61.15 251.16 C 62.04 251.07 62.94 251.00 63.83 250.92 C 63.82 252.61 63.80 254.30 63.78 256.00 L 3.10 256.00 C 3.12 255.29 3.17 253.87 3.19 253.16 C 20.45 253.60 37.72 253.17 54.98 253.40 C 57.30 253.58 59.51 252.85 61.15 251.16 Z" />
</g>
<g id="#494d48ff">
<path fill="#494d48" opacity="1.00" d=" M 60.42 48.33 C 60.40 33.34 60.06 18.34 60.59 3.36 C 61.37 3.56 62.92 3.97 63.70 4.17 C 63.67 16.81 63.25 29.48 63.92 42.12 C 62.68 44.14 61.50 46.21 60.42 48.33 Z" />
<path fill="#494d48" opacity="1.00" d=" M 188.29 4.00 C 189.06 3.89 190.61 3.66 191.38 3.55 C 191.96 15.16 191.29 26.78 191.71 38.39 C 190.37 36.49 188.96 34.64 187.52 32.80 C 189.26 23.30 188.03 13.59 188.29 4.00 Z" />
<path fill="#494d48" opacity="1.00" d=" M 124.29 195.91 C 125.38 195.94 126.48 195.98 127.58 196.02 C 127.63 199.36 127.69 202.70 127.77 206.04 C 126.58 206.00 125.39 205.97 124.21 205.97 C 124.24 202.62 124.27 199.26 124.29 195.91 Z" />
</g>
<g id="#3f423eff">
<path fill="#3f423e" opacity="1.00" d=" M 195.23 3.72 C 214.15 3.25 233.09 3.73 252.02 3.47 C 252.66 22.69 252.34 41.95 252.17 61.18 C 235.37 61.46 218.55 61.40 201.75 61.21 C 200.56 54.95 197.67 49.21 194.98 43.49 C 195.57 30.24 195.11 16.98 195.23 3.72 Z" />
<path fill="#3f423e" opacity="1.00" d=" M 3.30 195.41 C 12.14 195.30 21.00 195.75 29.83 195.11 C 27.25 198.65 24.43 201.99 21.66 205.38 C 20.30 208.74 20.75 212.43 20.72 215.97 C 20.80 227.65 20.71 239.32 20.76 251.00 L 22.01 251.00 C 35.05 251.09 48.10 250.82 61.15 251.16 C 59.51 252.85 57.30 253.58 54.98 253.40 C 37.72 253.17 20.45 253.60 3.19 253.16 C 3.41 233.91 3.16 214.66 3.30 195.41 Z" />
<path fill="#3f423e" opacity="1.00" d=" M 36.60 205.91 C 38.97 202.43 41.48 199.04 43.99 195.65 C 49.36 195.52 54.73 195.51 60.10 195.42 C 60.23 198.94 60.28 202.47 60.25 205.99 C 52.37 205.87 44.48 206.12 36.60 205.91 Z" />
</g>
<g id="#726b7dff">
<path fill="#726b7d" opacity="1.00" d=" M 117.10 5.90 C 117.43 5.83 118.08 5.68 118.41 5.61 C 121.30 5.91 124.21 6.09 127.11 6.00 C 128.07 5.97 129.03 5.95 129.98 5.94 C 133.21 5.95 136.44 5.94 139.66 5.67 C 139.95 5.74 140.55 5.86 140.84 5.92 C 141.91 7.29 143.70 7.54 145.24 6.85 L 145.94 7.05 C 147.37 9.08 149.84 9.59 152.06 8.55 C 162.02 11.05 170.64 17.05 178.52 23.42 C 181.95 26.10 184.81 29.42 187.52 32.80 C 188.96 34.64 190.37 36.49 191.71 38.39 C 192.81 40.09 193.94 41.76 194.98 43.49 C 197.67 49.21 200.56 54.95 201.75 61.21 C 201.75 61.83 201.76 63.07 201.76 63.69 C 201.78 64.97 201.98 66.25 202.38 67.47 C 204.11 70.96 203.71 74.86 203.51 78.61 C 203.18 116.74 203.40 154.88 203.24 193.01 C 153.45 192.96 103.65 193.13 53.86 192.89 C 53.21 185.95 53.61 178.98 53.52 172.02 C 53.60 158.54 53.31 145.05 53.69 131.57 C 53.72 130.43 53.73 129.30 53.71 128.17 C 53.45 107.85 53.13 87.50 54.57 67.24 C 54.83 65.74 55.14 64.25 55.49 62.77 C 55.53 62.61 55.62 62.30 55.67 62.14 C 56.85 57.40 58.46 52.79 60.42 48.33 C 61.50 46.21 62.68 44.14 63.92 42.12 C 64.93 40.48 65.98 38.88 67.02 37.26 C 71.90 30.18 77.85 23.77 85.01 18.94 C 91.42 14.66 98.11 10.51 105.66 8.58 C 106.26 8.44 107.47 8.18 108.07 8.05 C 108.53 7.83 109.46 7.41 109.92 7.19 C 110.58 8.57 111.17 8.44 111.68 6.83 L 112.69 6.82 C 114.22 7.50 116.03 7.28 117.10 5.90 M 85.00 99.00 C 85.23 110.58 84.53 122.21 85.37 133.77 L 85.69 132.76 C 88.56 133.06 91.45 133.04 94.31 132.67 L 94.64 133.66 C 95.30 127.57 94.82 121.43 95.01 115.32 C 96.55 115.03 98.10 114.75 99.64 114.47 C 104.73 115.91 106.82 121.42 109.66 125.37 C 110.47 126.05 110.85 127.61 112.04 127.64 C 113.03 129.45 114.06 131.24 115.11 133.02 C 118.17 133.00 121.24 132.97 124.30 132.84 C 123.57 130.90 122.61 129.05 121.38 127.38 C 120.93 126.81 120.02 125.69 119.57 125.13 L 119.35 125.13 C 117.96 121.04 114.67 118.06 111.53 115.27 C 111.73 114.64 112.12 113.37 112.31 112.74 C 118.13 111.20 123.12 105.05 121.22 98.90 C 120.21 94.09 115.88 90.42 111.01 90.02 C 102.77 87.67 94.19 89.05 85.77 88.49 C 84.34 91.80 85.18 95.50 85.00 99.00 M 128.74 92.96 C 128.79 106.41 128.67 119.86 128.84 133.30 C 132.22 134.11 135.70 134.09 139.15 133.87 C 139.19 131.84 139.25 129.81 139.33 127.78 L 138.06 127.78 C 138.03 127.13 137.97 125.84 137.94 125.19 C 138.05 113.06 137.99 100.93 137.98 88.80 C 135.41 88.82 132.84 88.81 130.27 88.62 C 128.38 89.26 128.97 91.47 128.74 92.96 M 148.02 88.81 C 148.03 100.87 147.91 112.94 148.08 125.00 C 147.96 125.67 147.72 127.01 147.60 127.68 C 150.39 127.94 153.18 128.09 155.99 127.99 C 156.08 124.10 155.50 120.15 156.03 116.31 L 156.76 116.21 L 156.56 116.69 C 161.08 117.07 166.05 117.76 170.38 115.98 C 170.72 115.82 171.42 115.50 171.77 115.34 C 172.81 116.63 173.29 116.43 173.23 114.73 C 177.18 113.30 179.58 109.47 181.01 105.72 L 181.05 107.38 C 182.12 104.67 182.94 101.20 180.87 98.75 C 179.23 95.43 177.09 91.90 173.40 90.62 C 165.09 88.63 156.52 88.59 148.02 88.81 Z" />
<path fill="#726b7d" opacity="1.00" d=" M 107.45 96.31 L 107.93 96.24 L 108.30 96.64 C 110.32 98.61 112.23 100.93 112.09 103.95 C 112.05 104.68 111.98 106.14 111.94 106.87 C 110.77 106.95 109.61 107.02 108.44 107.06 C 103.96 107.06 99.48 106.95 94.99 106.93 C 94.98 103.63 94.99 100.34 95.02 97.04 C 99.17 97.04 103.34 96.94 107.45 96.31 Z" />
<path fill="#726b7d" opacity="1.00" d=" M 165.52 96.40 C 168.00 96.62 171.08 97.37 171.92 100.07 C 172.17 101.90 172.08 103.76 172.07 105.60 C 171.25 106.45 170.45 107.30 169.64 108.16 C 169.17 108.14 168.22 108.12 167.75 108.10 C 164.11 107.89 160.46 107.89 156.81 107.85 C 156.73 104.31 156.73 100.78 156.81 97.24 C 159.71 96.96 162.61 96.61 165.52 96.40 Z" />
<path fill="#726b7d" opacity="1.00" d=" M 34.44 189.58 C 37.73 185.91 40.79 182.05 44.22 178.50 L 44.28 179.54 C 44.15 184.48 44.05 189.43 44.10 194.38 C 44.07 194.70 44.02 195.33 43.99 195.65 C 41.48 199.04 38.97 202.43 36.60 205.91 C 44.48 206.12 52.37 205.87 60.25 205.99 C 61.41 206.12 62.56 206.28 63.70 206.46 C 69.42 207.51 75.24 206.98 81.00 207.03 C 94.99 207.06 108.97 206.97 122.96 207.08 C 125.79 207.09 128.60 206.66 131.40 206.26 C 150.33 205.63 169.31 206.18 188.26 205.98 C 189.39 206.09 190.53 206.22 191.66 206.39 C 194.75 206.89 197.88 207.17 201.01 207.03 C 208.23 206.75 215.46 207.15 222.68 206.88 C 221.77 205.98 220.86 205.08 219.97 204.17 C 218.09 202.08 216.00 200.14 214.56 197.70 C 213.82 192.13 213.15 186.33 215.10 180.91 C 217.62 183.78 220.25 186.56 222.57 189.60 C 222.91 190.17 223.58 191.31 223.92 191.88 C 224.86 193.55 225.69 195.67 227.90 195.85 C 230.45 199.01 233.08 202.11 235.39 205.46 C 234.50 220.60 235.28 235.79 234.99 250.95 C 221.81 251.13 208.62 250.78 195.44 251.11 C 195.33 251.76 195.10 253.06 194.99 253.71 C 194.88 254.28 194.66 255.43 194.55 256.00 L 191.88 256.00 C 191.89 254.32 191.90 252.64 191.92 250.97 C 171.71 251.42 151.48 251.08 131.27 251.17 C 110.07 251.46 88.86 251.25 67.66 251.37 C 67.25 252.91 66.84 254.46 66.39 256.00 L 63.78 256.00 C 63.80 254.30 63.82 252.61 63.83 250.92 C 62.94 251.00 62.04 251.07 61.15 251.16 C 48.10 250.82 35.05 251.09 22.01 251.00 C 21.78 235.80 22.41 220.57 21.66 205.38 C 24.43 201.99 27.25 198.65 29.83 195.11 C 30.66 194.04 31.49 192.98 32.36 191.94 C 33.04 191.15 33.74 190.36 34.44 189.58 Z" />
</g>
<g id="#9d97a6ff">
<path fill="#9d97a6" opacity="1.00" d=" M 118.41 5.61 C 121.39 4.86 124.47 5.04 127.51 5.01 L 127.11 6.00 C 124.21 6.09 121.30 5.91 118.41 5.61 Z" />
</g>
<g id="#9e99a7ff">
<path fill="#9e99a7" opacity="1.00" d=" M 130.89 5.08 C 133.82 4.80 136.79 4.98 139.66 5.67 C 136.44 5.94 133.21 5.95 129.98 5.94 L 130.89 5.08 Z" />
</g>
<g id="#9a95a3ff">
<path fill="#9a95a3" opacity="1.00" d=" M 112.69 6.82 C 113.90 5.72 115.56 5.52 117.10 5.90 C 116.03 7.28 114.22 7.50 112.69 6.82 Z" />
</g>
<g id="#9c97a4ff">
<path fill="#9c97a4" opacity="1.00" d=" M 140.84 5.92 C 142.38 5.52 144.03 5.75 145.24 6.85 C 143.70 7.54 141.91 7.29 140.84 5.92 Z" />
</g>
<g id="#9b95a5ff">
<path fill="#9b95a5" opacity="1.00" d=" M 109.92 7.19 C 110.36 7.10 111.24 6.92 111.68 6.83 C 111.17 8.44 110.58 8.57 109.92 7.19 Z" />
</g>
<g id="#8f8a98ff">
<path fill="#8f8a98" opacity="1.00" d=" M 145.94 7.05 C 148.11 6.85 150.21 7.42 152.06 8.55 C 149.84 9.59 147.37 9.08 145.94 7.05 Z" />
</g>
<g id="#97939fff">
<path fill="#97939f" opacity="1.00" d=" M 105.66 8.58 C 106.26 8.44 107.47 8.18 108.07 8.05 C 107.47 8.18 106.26 8.44 105.66 8.58 Z" />
</g>
<g id="#252924ff">
<path fill="#252924" opacity="1.00" d=" M 3.69 62.50 C 21.00 61.89 38.35 62.70 55.67 62.14 C 55.62 62.30 55.53 62.61 55.49 62.77 C 38.22 62.55 20.95 62.94 3.69 62.50 Z" />
<path fill="#252924" opacity="1.00" d=" M 131.38 125.61 C 133.57 125.48 135.75 125.34 137.94 125.19 C 137.97 125.84 138.03 127.13 138.06 127.78 C 135.71 127.78 133.35 127.78 131.00 127.79 C 131.09 127.25 131.28 126.16 131.38 125.61 Z" />
<path fill="#252924" opacity="1.00" d=" M 3.04 125.78 C 19.40 125.32 35.78 125.74 52.15 125.57 C 52.48 126.11 53.14 127.19 53.47 127.73 C 36.58 127.89 19.69 127.62 2.80 127.87 C 2.86 127.35 2.98 126.30 3.04 125.78 Z" />
<path fill="#252924" opacity="1.00" d=" M 204.63 189.41 C 207.01 189.41 209.39 189.42 211.77 189.42 C 211.93 190.01 212.26 191.20 212.42 191.79 C 209.53 191.78 206.65 191.77 203.77 191.76 C 203.98 191.18 204.41 190.00 204.63 189.41 Z" />
</g>
<g id="#7e827dff">
<path fill="#7e827d" opacity="1.00" d=" M 202.38 67.47 C 201.98 66.25 201.78 64.97 201.76 63.69 C 219.84 64.04 237.92 63.75 256.00 63.84 L 256.00 67.44 C 254.76 67.45 253.52 67.45 252.28 67.45 C 235.65 67.48 219.01 67.44 202.38 67.47 Z" />
<path fill="#7e827d" opacity="1.00" d=" M 128.74 92.96 C 128.97 91.47 128.38 89.26 130.27 88.62 C 130.66 103.18 129.98 117.74 130.56 132.29 C 132.95 132.35 135.34 132.41 137.73 132.46 C 137.72 132.27 137.70 131.88 137.69 131.68 C 135.32 131.69 132.95 131.69 130.59 131.69 C 130.69 130.72 130.89 128.77 131.00 127.79 C 133.35 127.78 135.71 127.78 138.06 127.78 L 139.33 127.78 C 139.25 129.81 139.19 131.84 139.15 133.87 C 135.70 134.09 132.22 134.11 128.84 133.30 C 128.67 119.86 128.79 106.41 128.74 92.96 Z" />
<path fill="#7e827d" opacity="1.00" d=" M 0.00 127.96 C 0.70 127.94 2.10 127.89 2.80 127.87 C 19.69 127.62 36.58 127.89 53.47 127.73 L 53.71 128.17 C 53.73 129.30 53.72 130.43 53.69 131.57 C 36.86 131.45 20.01 131.25 3.18 131.66 C 3.21 150.89 3.38 170.12 3.13 189.35 L 2.70 190.46 C 1.78 190.07 0.88 189.63 0.00 189.16 L 0.00 127.96 Z" />
<path fill="#7e827d" opacity="1.00" d=" M 203.77 191.76 C 206.65 191.77 209.53 191.78 212.42 191.79 C 212.27 192.69 211.99 194.48 211.84 195.38 C 206.33 195.48 200.83 195.27 195.32 195.09 C 195.22 198.76 195.13 202.43 195.02 206.11 C 194.18 206.18 192.50 206.32 191.66 206.39 C 191.79 202.81 191.88 199.23 191.99 195.65 C 192.01 195.23 192.03 194.39 192.05 193.97 C 195.61 193.99 199.17 194.07 202.72 193.85 L 203.24 193.01 C 203.37 192.70 203.63 192.08 203.77 191.76 Z" />
<path fill="#7e827d" opacity="1.00" d=" M 223.92 191.88 C 234.61 191.96 245.33 191.46 256.00 192.26 L 256.00 195.34 C 254.67 195.36 253.35 195.38 252.03 195.41 C 243.99 195.61 235.93 195.13 227.90 195.85 C 225.69 195.67 224.86 193.55 223.92 191.88 Z" />
<path fill="#7e827d" opacity="1.00" d=" M 64.05 193.99 C 84.54 194.16 105.05 193.69 125.54 194.24 C 119.55 196.27 113.19 195.29 107.01 195.45 C 93.72 195.56 80.44 195.26 67.16 195.61 C 67.15 199.07 67.15 202.52 67.14 205.98 C 86.16 206.01 105.18 206.02 124.21 205.97 C 125.39 205.97 126.58 206.00 127.77 206.04 C 128.68 206.09 130.49 206.20 131.40 206.26 C 128.60 206.66 125.79 207.09 122.96 207.08 C 108.97 206.97 94.99 207.06 81.00 207.03 C 75.24 206.98 69.42 207.51 63.70 206.46 C 63.80 202.77 63.87 199.07 64.00 195.38 C 64.01 195.03 64.03 194.34 64.05 193.99 Z" />
</g>
<g id="#a5a1aeff">
<path fill="#a5a1ae" opacity="1.00" d=" M 85.00 99.00 C 85.18 95.50 84.34 91.80 85.77 88.49 C 86.26 97.98 85.88 107.48 86.00 116.98 C 85.87 122.24 86.32 127.53 85.69 132.76 L 85.37 133.77 C 84.53 122.21 85.23 110.58 85.00 99.00 Z" />
</g>
<g id="#928f98ff">
<path fill="#928f98" opacity="1.00" d=" M 94.07 96.13 C 98.53 95.98 103.00 95.83 107.45 96.31 C 103.34 96.94 99.17 97.04 95.02 97.04 C 94.99 100.34 94.98 103.63 94.99 106.93 C 99.48 106.95 103.96 107.06 108.44 107.06 C 103.92 108.93 98.83 107.64 94.07 107.96 C 93.99 104.02 93.98 100.07 94.07 96.13 Z" />
</g>
<g id="#8b8793ff">
<path fill="#8b8793" opacity="1.00" d=" M 155.91 96.13 C 159.11 95.94 162.33 95.90 165.52 96.40 C 162.61 96.61 159.71 96.96 156.81 97.24 C 156.73 100.78 156.73 104.31 156.81 107.85 C 160.46 107.89 164.11 107.89 167.75 108.10 L 168.90 108.77 C 164.58 109.18 160.23 108.94 155.89 109.00 C 155.86 104.71 155.87 100.42 155.91 96.13 Z" />
</g>
<g id="#8d8995ff">
<path fill="#8d8995" opacity="1.00" d=" M 108.30 96.64 C 112.06 96.97 113.33 100.73 113.19 104.00 L 112.09 103.95 C 112.23 100.93 110.32 98.61 108.30 96.64 Z" />
</g>
<g id="#8c8696ff">
<path fill="#8c8696" opacity="1.00" d=" M 180.87 98.75 C 182.94 101.20 182.12 104.67 181.05 107.38 L 181.01 105.72 C 181.01 103.40 180.98 101.07 180.87 98.75 Z" />
</g>
<g id="#8e8996ff">
<path fill="#8e8996" opacity="1.00" d=" M 111.53 115.27 C 109.51 114.48 110.31 112.43 112.31 112.74 C 112.12 113.37 111.73 114.64 111.53 115.27 Z" />
</g>
<g id="#929098ff">
<path fill="#929098" opacity="1.00" d=" M 94.12 113.82 C 95.96 114.01 97.81 114.18 99.64 114.47 C 98.10 114.75 96.55 115.03 95.01 115.32 C 94.82 121.43 95.30 127.57 94.64 133.66 L 94.31 132.67 C 93.65 126.41 94.12 120.10 94.12 113.82 Z" />
</g>
<g id="#9994a3ff">
<path fill="#9994a3" opacity="1.00" d=" M 171.77 115.34 C 172.13 115.19 172.86 114.88 173.23 114.73 C 173.29 116.43 172.81 116.63 171.77 115.34 Z" />
</g>
<g id="#a19baaff">
<path fill="#a19baa" opacity="1.00" d=" M 156.76 116.21 C 161.28 115.74 165.84 116.16 170.38 115.98 C 166.05 117.76 161.08 117.07 156.56 116.69 L 156.76 116.21 Z" />
</g>
<g id="#474b46ff">
<path fill="#474b46" opacity="1.00" d=" M 109.66 125.37 C 112.89 125.31 116.12 125.24 119.35 125.13 L 119.57 125.13 C 120.02 125.69 120.93 126.81 121.38 127.38 C 118.27 127.53 115.16 127.70 112.04 127.64 C 110.85 127.61 110.47 126.05 109.66 125.37 Z" />
</g>
<g id="#5c615bff">
<path fill="#5c615b" opacity="1.00" d=" M 121.38 127.38 C 122.61 129.05 123.57 130.90 124.30 132.84 C 121.24 132.97 118.17 133.00 115.11 133.02 C 114.06 131.24 113.03 129.45 112.04 127.64 C 115.16 127.70 118.27 127.53 121.38 127.38 Z" />
<path fill="#5c615b" opacity="1.00" d=" M 203.84 127.52 C 220.10 127.24 236.38 127.44 252.64 127.43 C 252.59 128.42 252.49 130.41 252.44 131.40 C 236.22 131.38 220.01 131.54 203.79 131.32 C 203.80 130.37 203.83 128.47 203.84 127.52 Z" />
<path fill="#5c615b" opacity="1.00" d=" M 0.00 189.16 C 0.88 189.63 1.78 190.07 2.70 190.46 C 6.30 191.85 10.21 191.64 14.00 191.59 C 20.12 191.46 26.25 191.40 32.36 191.94 C 31.49 192.98 30.66 194.04 29.83 195.11 C 21.00 195.75 12.14 195.30 3.30 195.41 C 3.16 214.66 3.41 233.91 3.19 253.16 C 3.17 253.87 3.12 255.29 3.10 256.00 L 0.00 256.00 L 0.00 189.16 Z" />
</g>
<g id="#837d8dff">
<path fill="#837d8d" opacity="1.00" d=" M 212.78 178.26 C 213.55 179.14 214.33 180.02 215.10 180.91 C 213.15 186.33 213.82 192.13 214.56 197.70 C 213.67 196.09 213.05 194.36 212.63 192.58 C 212.76 187.80 212.78 183.03 212.78 178.26 Z" />
</g>
<g id="#464a45ff">
<path fill="#464a45" opacity="1.00" d=" M 44.28 179.54 C 44.63 182.76 44.95 186.00 45.12 189.24 C 47.68 189.31 50.25 189.38 52.82 189.45 C 52.79 189.95 52.74 190.96 52.72 191.46 C 50.15 191.57 47.59 191.67 45.03 191.75 C 44.80 192.41 44.33 193.72 44.10 194.38 C 44.05 189.43 44.15 184.48 44.28 179.54 Z" />
<path fill="#464a45" opacity="1.00" d=" M 3.13 189.35 C 13.56 189.50 24.00 189.21 34.44 189.58 C 33.74 190.36 33.04 191.15 32.36 191.94 C 26.25 191.40 20.12 191.46 14.00 191.59 C 10.21 191.64 6.30 191.85 2.70 190.46 L 3.13 189.35 Z" />
</g>
<g id="#a39faaff">
<path fill="#a39faa" opacity="1.00" d=" M 53.86 192.89 C 103.65 193.13 153.45 192.96 203.24 193.01 L 202.72 193.85 C 199.17 194.07 195.61 193.99 192.05 193.97 C 169.88 194.16 147.70 193.65 125.54 194.24 C 105.05 193.69 84.54 194.16 64.05 193.99 C 60.70 193.98 57.34 194.02 54.00 193.83 L 53.86 192.89 Z" />
</g>
<g id="#4a4e49ff">
<path fill="#4a4e49" opacity="1.00" d=" M 252.03 195.41 C 253.35 195.38 254.67 195.36 256.00 195.34 L 256.00 256.00 L 194.55 256.00 C 194.66 255.43 194.88 254.28 194.99 253.71 C 202.65 252.89 210.37 253.47 218.05 253.33 C 229.43 253.22 240.81 253.53 252.18 253.21 C 252.37 233.94 252.58 214.66 252.03 195.41 Z" />
</g>
<g id="#86848bff">
<path fill="#86848b" opacity="1.00" d=" M 219.97 204.17 C 220.86 205.08 221.77 205.98 222.68 206.88 C 215.46 207.15 208.23 206.75 201.01 207.03 C 197.88 207.17 194.75 206.89 191.66 206.39 C 192.50 206.32 194.18 206.18 195.02 206.11 C 203.32 205.80 211.62 206.28 219.91 205.96 C 219.93 205.51 219.96 204.62 219.97 204.17 Z" />
</g>
<g id="#878190ff">
<path fill="#878190" opacity="1.00" d=" M 20.72 215.97 C 20.75 212.43 20.30 208.74 21.66 205.38 C 22.41 220.57 21.78 235.80 22.01 251.00 L 20.76 251.00 C 20.71 239.32 20.80 227.65 20.72 215.97 Z" />
</g>
<g id="#827e88ff">
<path fill="#827e88" opacity="1.00" d=" M 234.99 250.95 C 235.28 235.79 234.50 220.60 235.39 205.46 C 236.40 209.91 236.03 214.49 236.02 219.02 C 235.98 229.66 236.07 240.30 235.99 250.95 L 234.99 250.95 Z" />
</g>
<g id="#515550ff">
<path fill="#515550" opacity="1.00" d=" M 67.66 251.37 C 88.86 251.25 110.07 251.46 131.27 251.17 C 131.18 252.78 131.10 254.39 131.01 256.00 L 66.39 256.00 C 66.84 254.46 67.25 252.91 67.66 251.37 Z" />
</g>
<g id="#333732ff">
<path fill="#333732" opacity="1.00" d=" M 131.27 251.17 C 151.48 251.08 171.71 251.42 191.92 250.97 C 191.90 252.64 191.89 254.32 191.88 256.00 L 131.01 256.00 C 131.10 254.39 131.18 252.78 131.27 251.17 Z" />
</g>
</svg>
