<?xml version="1.0" encoding="UTF-8" ?>
<!DOCTYPE svg PUBLIC "-//W3C//DTD SVG 1.1//EN" "http://www.w3.org/Graphics/SVG/1.1/DTD/svg11.dtd">
<svg width="256pt" height="256pt" viewBox="0 0 256 256" version="1.1" xmlns="http://www.w3.org/2000/svg">
<g id="#fefefeff">
<path fill="#fefefe" opacity="1.00" d=" M 0.00 0.00 L 256.00 0.00 L 256.00 256.00 L 0.00 256.00 L 0.00 0.00 M 41.72 7.75 C 44.52 22.17 46.59 36.72 49.16 51.18 C 53.64 77.80 58.48 104.36 62.86 131.00 C 50.11 116.47 38.11 101.29 25.25 86.87 C 25.34 88.15 25.48 89.42 25.67 90.69 C 31.05 116.81 36.83 142.85 41.80 169.05 C 29.53 159.69 17.62 149.85 5.19 140.70 C 11.19 156.32 17.89 171.67 23.85 187.30 C 29.71 202.43 36.85 217.09 41.91 232.51 C 31.21 232.83 20.50 232.47 9.80 232.69 C 9.76 238.31 9.85 243.92 9.72 249.54 C 81.09 249.81 152.46 249.54 223.84 249.67 C 223.93 244.02 223.90 238.36 223.87 232.70 C 215.18 232.51 206.49 232.76 197.81 232.58 C 201.88 227.73 206.80 223.65 210.75 218.68 C 214.96 213.45 220.37 209.34 224.44 204.00 C 211.88 206.16 199.86 210.76 187.29 212.90 C 194.65 199.44 201.80 185.87 209.13 172.39 C 218.10 153.99 228.31 136.23 237.76 118.08 C 241.78 109.08 247.34 100.82 251.08 91.70 C 246.78 94.38 243.20 98.01 239.31 101.22 C 219.58 117.75 200.01 134.46 180.32 151.02 C 182.24 138.75 185.25 126.63 186.57 114.29 C 184.76 115.53 183.04 116.91 181.50 118.48 C 174.64 125.52 167.67 132.50 160.16 138.86 C 163.99 103.93 168.00 69.01 172.02 34.10 C 172.53 30.72 172.77 27.30 172.76 23.88 C 167.74 35.60 162.37 47.17 157.61 59.00 C 150.68 74.51 144.43 90.34 136.98 105.60 C 131.53 99.67 127.55 92.61 122.69 86.23 C 118.66 80.98 114.97 75.48 110.89 70.28 C 110.18 78.68 110.59 87.13 109.84 95.53 C 109.17 103.46 109.63 111.45 108.87 119.37 C 105.12 114.58 102.48 109.04 99.27 103.89 C 91.13 89.34 81.97 75.39 73.97 60.77 C 65.37 46.20 56.38 31.86 47.92 17.22 C 46.08 13.92 44.38 10.48 41.72 7.75 Z" />
<path fill="#fefefe" opacity="1.00" d=" M 92.03 176.98 C 93.04 170.32 91.90 163.45 93.62 156.90 C 101.20 171.85 108.92 186.76 117.10 201.41 C 119.88 194.44 121.29 187.02 124.16 180.08 C 125.09 182.34 125.96 184.62 127.01 186.83 C 132.36 179.17 135.68 170.32 140.84 162.54 C 141.28 177.29 140.76 192.05 141.11 206.80 C 152.72 199.98 163.90 192.39 175.77 186.02 C 169.70 201.54 163.34 216.95 157.45 232.53 C 127.53 232.74 97.62 232.63 67.70 232.59 C 67.40 218.18 65.04 203.88 64.66 189.48 C 73.61 196.02 81.50 203.90 90.23 210.73 C 90.72 199.47 91.50 188.24 92.03 176.98 Z" />
</g>
<g id="#35ff26ff">
<path fill="#35ff26" opacity="1.00" d=" M 41.72 7.75 C 44.38 10.48 46.08 13.92 47.92 17.22 C 56.38 31.86 65.37 46.20 73.97 60.77 C 81.97 75.39 91.13 89.34 99.27 103.89 C 102.48 109.04 105.12 114.58 108.87 119.37 C 109.63 111.45 109.17 103.46 109.84 95.53 C 110.59 87.13 110.18 78.68 110.89 70.28 C 114.97 75.48 118.66 80.98 122.69 86.23 C 127.55 92.61 131.53 99.67 136.98 105.60 C 144.43 90.34 150.68 74.51 157.61 59.00 C 162.37 47.17 167.74 35.60 172.76 23.88 C 172.77 27.30 172.53 30.72 172.02 34.10 C 168.00 69.01 163.99 103.93 160.16 138.86 C 167.67 132.50 174.64 125.52 181.50 118.48 C 183.04 116.91 184.76 115.53 186.57 114.29 C 185.25 126.63 182.24 138.75 180.32 151.02 C 200.01 134.46 219.58 117.75 239.31 101.22 C 243.20 98.01 246.78 94.38 251.08 91.70 C 247.34 100.82 241.78 109.08 237.76 118.08 C 228.31 136.23 218.10 153.99 209.13 172.39 C 201.80 185.87 194.65 199.44 187.29 212.90 C 199.86 210.76 211.88 206.16 224.44 204.00 C 220.37 209.34 214.96 213.45 210.75 218.68 C 206.80 223.65 201.88 227.73 197.81 232.58 C 206.49 232.76 215.18 232.51 223.87 232.70 C 223.90 238.36 223.93 244.02 223.84 249.67 C 152.46 249.54 81.09 249.81 9.72 249.54 C 9.85 243.92 9.76 238.31 9.80 232.69 C 20.50 232.47 31.21 232.83 41.91 232.51 C 36.85 217.09 29.71 202.43 23.85 187.30 C 17.89 171.67 11.19 156.32 5.19 140.70 C 17.62 149.85 29.53 159.69 41.80 169.05 C 36.83 142.85 31.05 116.81 25.67 90.69 C 25.48 89.42 25.34 88.15 25.25 86.87 C 38.11 101.29 50.11 116.47 62.86 131.00 C 58.48 104.36 53.64 77.80 49.16 51.18 C 46.59 36.72 44.52 22.17 41.72 7.75 M 92.03 176.98 C 91.50 188.24 90.72 199.47 90.23 210.73 C 81.50 203.90 73.61 196.02 64.66 189.48 C 65.04 203.88 67.40 218.18 67.70 232.59 C 97.62 232.63 127.53 232.74 157.45 232.53 C 163.34 216.95 169.70 201.54 175.77 186.02 C 163.90 192.39 152.72 199.98 141.11 206.80 C 140.76 192.05 141.28 177.29 140.84 162.54 C 135.68 170.32 132.36 179.17 127.01 186.83 C 125.96 184.62 125.09 182.34 124.16 180.08 C 121.29 187.02 119.88 194.44 117.10 201.41 C 108.92 186.76 101.20 171.85 93.62 156.90 C 91.90 163.45 93.04 170.32 92.03 176.98 Z" />
</g>
</svg>
