<?xml version="1.0" encoding="UTF-8" ?>
<!DOCTYPE svg PUBLIC "-//W3C//DTD SVG 1.1//EN" "http://www.w3.org/Graphics/SVG/1.1/DTD/svg11.dtd">
<svg width="256pt" height="256pt" viewBox="0 0 256 256" version="1.1" xmlns="http://www.w3.org/2000/svg">
<g id="#fefefeff">
<path fill="#fefefe" opacity="1.00" d=" M 0.00 0.00 L 256.00 0.00 L 256.00 256.00 L 0.00 256.00 L 0.00 0.00 M 151.52 5.75 C 147.93 7.07 145.26 9.97 142.55 12.55 C 100.05 55.04 57.57 97.56 15.04 140.03 C 10.53 144.50 7.16 151.13 9.31 157.53 C 11.58 165.22 18.72 169.64 23.22 175.86 C 27.52 181.56 33.64 185.55 37.88 191.30 C 42.05 196.69 47.29 201.09 51.97 206.02 C 56.65 211.20 63.26 213.87 69.45 216.73 C 77.48 220.40 86.46 219.12 95.00 219.33 C 101.90 219.43 109.10 219.58 115.50 216.60 C 121.00 214.01 126.41 211.03 130.97 206.97 C 143.26 194.58 156.84 183.48 168.12 170.11 C 174.67 163.33 181.21 156.54 187.92 149.92 C 199.68 137.68 212.52 126.48 223.63 113.62 C 228.68 107.76 236.12 103.90 239.70 96.85 C 241.49 90.50 241.62 82.44 236.54 77.48 C 218.65 59.70 200.89 41.78 182.99 24.00 C 177.13 18.17 171.45 12.03 164.57 7.36 C 160.79 4.77 155.83 4.77 151.52 5.75 M 23.58 235.72 C 18.34 237.18 15.54 244.48 19.48 248.61 C 22.02 251.79 26.45 250.88 30.01 251.04 C 100.36 250.95 170.72 251.02 241.07 251.01 C 243.16 251.03 245.62 250.81 246.70 248.71 C 250.68 243.68 246.84 234.64 240.04 235.32 C 169.00 235.30 97.96 235.34 26.92 235.30 C 25.79 235.30 24.68 235.44 23.58 235.72 Z" />
<path fill="#fefefe" opacity="1.00" d=" M 74.54 105.54 C 77.98 102.08 81.22 98.41 84.99 95.29 C 89.63 99.21 93.62 103.81 97.99 108.01 C 115.37 125.40 132.83 142.71 150.11 160.19 C 143.21 170.43 133.46 178.16 124.98 186.99 C 119.97 191.63 116.19 197.70 110.08 201.07 C 106.18 203.56 101.35 202.48 96.99 202.66 C 90.48 202.38 83.92 203.17 77.45 202.32 C 70.31 200.02 64.64 194.76 59.60 189.41 C 49.60 179.75 39.55 170.10 30.46 159.56 C 29.10 157.82 26.97 156.39 26.40 154.20 C 36.50 142.76 48.22 132.80 58.40 121.41 C 63.37 115.71 69.37 111.05 74.54 105.54 Z" />
</g>
<g id="#f178ffff">
<path fill="#f178ff" opacity="1.00" d=" M 151.52 5.75 C 155.83 4.77 160.79 4.77 164.57 7.36 C 171.45 12.03 177.13 18.17 182.99 24.00 C 200.89 41.78 218.65 59.70 236.54 77.48 C 241.62 82.44 241.49 90.50 239.70 96.85 C 236.12 103.90 228.68 107.76 223.63 113.62 C 212.52 126.48 199.68 137.68 187.92 149.92 C 181.21 156.54 174.67 163.33 168.12 170.11 C 156.84 183.48 143.26 194.58 130.97 206.97 C 126.41 211.03 121.00 214.01 115.50 216.60 C 109.10 219.58 101.90 219.43 95.00 219.33 C 86.46 219.12 77.48 220.40 69.45 216.73 C 63.26 213.87 56.65 211.20 51.97 206.02 C 47.29 201.09 42.05 196.69 37.88 191.30 C 33.64 185.55 27.52 181.56 23.22 175.86 C 18.72 169.64 11.58 165.22 9.31 157.53 C 7.16 151.13 10.53 144.50 15.04 140.03 C 57.57 97.56 100.05 55.04 142.55 12.55 C 145.26 9.97 147.93 7.07 151.52 5.75 M 74.54 105.54 C 69.37 111.05 63.37 115.71 58.40 121.41 C 48.22 132.80 36.50 142.76 26.40 154.20 C 26.97 156.39 29.10 157.82 30.46 159.56 C 39.55 170.10 49.60 179.75 59.60 189.41 C 64.64 194.76 70.31 200.02 77.45 202.32 C 83.92 203.17 90.48 202.38 96.99 202.66 C 101.35 202.48 106.18 203.56 110.08 201.07 C 116.19 197.70 119.97 191.63 124.98 186.99 C 133.46 178.16 143.21 170.43 150.11 160.19 C 132.83 142.71 115.37 125.40 97.99 108.01 C 93.62 103.81 89.63 99.21 84.99 95.29 C 81.22 98.41 77.98 102.08 74.54 105.54 Z" />
<path fill="#f178ff" opacity="1.00" d=" M 23.58 235.72 C 24.68 235.44 25.79 235.30 26.92 235.30 C 97.96 235.34 169.00 235.30 240.04 235.32 C 246.84 234.64 250.68 243.68 246.70 248.71 C 245.62 250.81 243.16 251.03 241.07 251.01 C 170.72 251.02 100.36 250.95 30.01 251.04 C 26.45 250.88 22.02 251.79 19.48 248.61 C 15.54 244.48 18.34 237.18 23.58 235.72 Z" />
</g>
</svg>
