<?xml version="1.0" encoding="UTF-8" ?>
<!DOCTYPE svg PUBLIC "-//W3C//DTD SVG 1.1//EN" "http://www.w3.org/Graphics/SVG/1.1/DTD/svg11.dtd">
<svg width="256pt" height="256pt" viewBox="0 0 256 256" version="1.1" xmlns="http://www.w3.org/2000/svg">
<g id="#7e827dff">
<path fill="#7e827d" opacity="1.00" d=" M 0.00 0.00 L 65.14 0.00 C 64.52 0.80 63.92 1.61 63.33 2.44 C 60.93 3.02 58.48 3.53 56.00 3.50 C 38.47 3.50 20.94 3.39 3.42 3.54 C 3.12 22.70 3.44 41.88 3.27 61.05 C 2.18 61.39 1.08 61.73 0.00 62.12 L 0.00 0.00 Z" />
<path fill="#7e827d" opacity="1.00" d=" M 63.75 63.73 C 64.54 63.73 66.13 63.74 66.93 63.75 C 76.28 63.96 85.64 63.43 94.98 64.05 C 94.98 64.83 94.99 66.38 95.00 67.15 C 85.73 67.96 76.43 67.06 67.16 67.66 C 67.23 72.62 67.25 77.57 67.03 82.53 C 65.90 81.93 64.77 81.33 63.67 80.69 C 63.90 76.33 63.90 71.97 63.82 67.61 C 63.80 66.32 63.77 65.02 63.75 63.73 Z" />
<path fill="#7e827d" opacity="1.00" d=" M 191.52 63.51 C 192.26 63.54 193.73 63.59 194.46 63.62 C 197.40 63.76 200.34 63.81 203.28 63.79 C 203.23 64.65 203.14 66.36 203.10 67.22 C 200.60 67.32 198.08 67.29 195.60 67.67 C 194.94 68.99 195.24 70.56 195.14 71.99 C 195.26 82.64 195.21 93.30 195.16 103.95 C 194.02 103.30 192.88 102.65 191.74 102.00 C 191.80 90.47 191.87 78.93 191.72 67.40 C 191.66 66.10 191.59 64.81 191.52 63.51 Z" />
<path fill="#7e827d" opacity="1.00" d=" M 0.00 127.47 C 1.66 127.69 3.32 127.90 4.98 128.12 C 4.97 128.70 4.95 129.86 4.94 130.45 C 4.00 131.42 3.00 132.48 3.23 133.96 C 3.10 152.42 3.49 170.88 3.06 189.33 C 2.04 189.55 1.01 189.77 0.00 190.03 L 0.00 127.47 Z" />
<path fill="#7e827d" opacity="1.00" d=" M 63.51 191.51 C 64.28 191.55 65.81 191.62 66.58 191.65 C 76.05 191.93 85.52 191.69 94.99 191.79 C 94.99 192.60 95.00 194.23 95.00 195.04 C 85.77 195.79 76.51 195.24 67.26 195.36 C 67.09 214.63 67.31 233.90 67.16 253.16 C 67.14 253.87 67.08 255.29 67.05 256.00 L 64.19 256.00 C 63.34 235.85 64.17 215.65 63.76 195.49 C 63.68 194.16 63.60 192.84 63.51 191.51 Z" />
<path fill="#7e827d" opacity="1.00" d=" M 191.49 191.50 C 192.23 191.53 193.71 191.58 194.44 191.61 C 197.37 191.76 200.31 191.81 203.25 191.80 C 203.19 192.65 203.08 194.35 203.02 195.20 C 200.46 195.31 197.89 195.41 195.32 195.49 C 194.94 214.70 195.42 233.93 195.12 253.14 C 195.02 253.85 194.80 255.28 194.70 256.00 L 192.18 256.00 C 191.35 235.90 192.17 215.75 191.76 195.63 C 191.68 194.25 191.59 192.87 191.49 191.50 Z" />
</g>
<g id="#5d615cff">
<path fill="#5d615c" opacity="1.00" d=" M 65.14 0.00 L 124.89 0.00 C 124.71 0.83 124.36 2.49 124.18 3.32 C 105.24 3.56 86.28 3.38 67.34 3.39 C 67.34 3.70 67.34 4.30 67.34 4.61 C 66.61 17.39 67.18 30.20 67.00 43.00 C 66.81 48.87 67.50 54.81 66.59 60.64 C 65.91 60.90 64.54 61.42 63.85 61.69 C 63.31 48.80 63.73 35.89 63.58 23.00 C 63.40 16.51 64.07 9.99 63.30 3.52 C 62.54 3.65 61.04 3.91 60.28 4.04 C 60.29 23.07 60.51 42.12 60.16 61.14 C 49.98 61.71 39.77 60.93 29.59 61.56 C 21.40 57.07 13.16 52.69 5.02 48.11 C 4.97 54.21 5.06 60.30 4.94 66.39 C 3.98 67.37 2.96 68.43 3.20 69.94 C 3.23 84.62 3.16 99.30 3.22 113.99 C 3.29 117.81 3.32 121.64 2.91 125.44 C 2.18 125.62 0.73 125.99 0.00 126.17 L 0.00 62.12 C 1.08 61.73 2.18 61.39 3.27 61.05 C 3.44 41.88 3.12 22.70 3.42 3.54 C 20.94 3.39 38.47 3.50 56.00 3.50 C 58.48 3.53 60.93 3.02 63.33 2.44 C 63.92 1.61 64.52 0.80 65.14 0.00 Z" />
<path fill="#5d615c" opacity="1.00" d=" M 203.28 63.79 L 203.96 63.79 C 203.98 78.69 204.20 93.60 203.86 108.49 C 200.90 107.09 197.99 105.58 195.16 103.95 C 195.21 93.30 195.26 82.64 195.14 71.99 C 195.24 70.56 194.94 68.99 195.60 67.67 C 198.08 67.29 200.60 67.32 203.10 67.22 C 203.14 66.36 203.23 64.65 203.28 63.79 Z" />
<path fill="#5d615c" opacity="1.00" d=" M 67.16 67.66 C 76.43 67.06 85.73 67.96 95.00 67.15 C 94.94 77.36 95.13 87.58 94.89 97.78 C 85.43 93.03 76.44 87.39 67.03 82.53 C 67.25 77.57 67.23 72.62 67.16 67.66 Z" />
<path fill="#5d615c" opacity="1.00" d=" M 191.22 155.37 C 192.56 154.62 193.92 153.90 195.27 153.16 C 195.14 165.23 195.36 177.30 195.18 189.37 C 194.26 189.44 192.42 189.58 191.50 189.65 C 191.14 178.23 191.80 166.79 191.22 155.37 Z" />
<path fill="#5d615c" opacity="1.00" d=" M 131.24 188.82 C 150.15 177.96 169.47 167.85 188.36 156.97 C 188.63 167.78 188.56 178.60 188.42 189.41 C 175.94 189.65 163.46 189.45 150.97 189.52 C 144.39 189.39 137.76 190.00 131.24 188.82 Z" />
<path fill="#5d615c" opacity="1.00" d=" M 95.01 208.75 C 106.97 202.28 118.96 195.83 130.75 189.07 C 131.28 189.86 131.81 190.65 132.34 191.45 C 151.09 191.48 169.83 191.32 188.57 191.50 C 188.55 192.45 188.49 194.36 188.46 195.31 C 169.41 195.57 150.35 195.35 131.30 195.39 C 131.17 214.69 131.22 234.00 131.30 253.31 C 130.41 253.27 128.61 253.20 127.71 253.16 C 127.49 234.12 127.61 215.07 127.67 196.03 C 126.54 196.01 125.41 195.99 124.28 195.98 C 124.31 215.05 124.53 234.13 124.20 253.20 C 105.19 253.45 86.17 253.51 67.16 253.16 C 67.31 233.90 67.09 214.63 67.26 195.36 C 76.51 195.24 85.77 195.79 95.00 195.04 C 95.00 199.61 94.99 204.18 95.01 208.75 Z" />
<path fill="#5d615c" opacity="1.00" d=" M 203.25 191.80 L 203.96 191.80 C 204.09 205.52 203.97 219.23 204.04 232.95 C 219.65 233.39 235.28 233.01 250.90 233.14 C 251.17 220.72 250.90 208.28 251.03 195.86 L 252.00 195.73 C 252.46 205.15 252.17 214.59 252.21 224.02 C 252.08 233.75 252.67 243.48 252.15 253.20 C 233.15 253.41 214.13 253.46 195.12 253.14 C 195.42 233.93 194.94 214.70 195.32 195.49 C 197.89 195.41 200.46 195.31 203.02 195.20 C 203.08 194.35 203.19 192.65 203.25 191.80 Z" />
</g>
<g id="#3f433eff">
<path fill="#3f433e" opacity="1.00" d=" M 124.89 0.00 L 127.69 0.00 C 127.72 1.21 127.74 2.41 127.76 3.62 C 126.68 3.63 125.60 3.63 124.52 3.64 C 124.10 22.76 124.76 41.90 124.23 61.02 C 122.77 61.29 121.31 61.57 119.85 61.84 C 111.67 57.12 103.25 52.83 95.02 48.20 C 94.98 52.70 94.99 57.20 94.98 61.71 C 85.79 61.58 76.58 61.39 67.40 61.79 C 68.33 53.92 67.52 45.97 67.80 38.06 C 67.57 26.91 68.27 15.73 67.34 4.61 C 67.34 4.30 67.34 3.70 67.34 3.39 C 86.28 3.38 105.24 3.56 124.18 3.32 C 124.36 2.49 124.71 0.83 124.89 0.00 Z" />
<path fill="#3f433e" opacity="1.00" d=" M 188.47 3.96 C 189.47 4.06 190.48 4.17 191.50 4.27 C 191.38 23.36 191.39 42.46 191.48 61.56 C 192.40 61.53 194.22 61.48 195.13 61.45 C 195.39 42.23 195.22 23.00 195.21 3.78 C 214.14 3.17 233.10 3.81 252.04 3.47 C 252.77 16.31 251.90 29.16 252.19 42.01 C 251.87 48.50 253.10 55.18 251.12 61.50 C 250.81 48.94 251.23 36.37 250.88 23.80 C 235.30 23.83 219.72 23.81 204.14 23.81 C 203.80 36.28 204.12 48.76 203.97 61.24 C 200.75 61.65 196.48 60.28 194.46 63.62 C 193.73 63.59 192.26 63.54 191.52 63.51 C 191.59 64.81 191.66 66.10 191.72 67.40 C 190.59 67.60 189.47 67.80 188.34 67.99 C 188.57 78.75 188.15 89.51 188.63 100.26 C 169.38 89.16 149.77 78.71 130.40 67.84 C 137.25 67.03 144.16 67.56 151.04 67.43 C 163.50 67.34 175.97 67.60 188.42 67.33 C 188.47 66.37 188.56 64.45 188.61 63.50 C 174.07 63.29 159.53 63.49 144.98 63.42 C 140.27 63.36 135.51 63.82 130.84 62.97 C 132.10 60.70 134.95 61.81 137.01 61.61 C 154.23 61.79 171.46 61.65 188.68 61.66 C 188.80 50.45 188.47 39.22 189.13 28.02 C 188.07 20.01 189.61 11.95 188.47 3.96 Z" />
<path fill="#3f433e" opacity="1.00" d=" M 195.27 153.16 C 198.05 151.54 200.85 149.92 203.86 148.76 C 204.16 162.24 203.95 175.74 203.97 189.23 C 200.74 189.63 196.51 188.32 194.44 191.61 C 193.71 191.58 192.23 191.53 191.49 191.50 C 191.59 192.87 191.68 194.25 191.76 195.63 C 190.69 195.57 189.61 195.51 188.54 195.45 C 187.87 214.67 188.74 233.92 188.15 253.15 C 169.21 253.58 150.25 253.21 131.30 253.31 C 131.22 234.00 131.17 214.69 131.30 195.39 C 150.35 195.35 169.41 195.57 188.46 195.31 C 188.49 194.36 188.55 192.45 188.57 191.50 C 169.83 191.32 151.09 191.48 132.34 191.45 C 131.81 190.65 131.28 189.86 130.75 189.07 L 131.24 188.82 C 137.76 190.00 144.39 189.39 150.97 189.52 C 163.46 189.45 175.94 189.65 188.42 189.41 C 188.56 178.60 188.63 167.78 188.36 156.97 C 189.31 156.43 190.26 155.90 191.22 155.37 C 191.80 166.79 191.14 178.23 191.50 189.65 C 192.42 189.58 194.26 189.44 195.18 189.37 C 195.36 177.30 195.14 165.23 195.27 153.16 Z" />
</g>
<g id="#7f837eff">
<path fill="#7f837e" opacity="1.00" d=" M 127.69 0.00 L 189.00 0.00 C 188.45 1.27 188.77 3.78 186.73 3.40 C 168.22 3.75 149.67 3.04 131.17 3.73 C 131.20 22.78 131.30 41.83 131.12 60.88 C 130.09 61.57 129.06 62.24 128.02 62.91 C 127.50 43.15 128.00 23.38 127.76 3.62 C 127.74 2.41 127.72 1.21 127.69 0.00 Z" />
</g>
<g id="#5c605bff">
<path fill="#5c605b" opacity="1.00" d=" M 189.00 0.00 L 256.00 0.00 L 256.00 3.40 C 254.68 3.42 253.36 3.45 252.04 3.47 C 233.10 3.81 214.14 3.17 195.21 3.78 C 195.22 23.00 195.39 42.23 195.13 61.45 C 194.22 61.48 192.40 61.53 191.48 61.56 C 191.39 42.46 191.38 23.36 191.50 4.27 C 190.48 4.17 189.47 4.06 188.47 3.96 C 189.61 11.95 188.07 20.01 189.13 28.02 C 188.47 39.22 188.80 50.45 188.68 61.66 C 171.46 61.65 154.23 61.79 137.01 61.61 C 134.95 61.81 132.10 60.70 130.84 62.97 C 135.51 63.82 140.27 63.36 144.98 63.42 C 159.53 63.49 174.07 63.29 188.61 63.50 C 188.56 64.45 188.47 66.37 188.42 67.33 C 175.97 67.60 163.50 67.34 151.04 67.43 C 144.16 67.56 137.25 67.03 130.40 67.84 C 128.16 66.62 125.96 65.36 123.77 64.07 C 125.20 63.75 126.68 63.54 128.02 62.91 C 129.06 62.24 130.09 61.57 131.12 60.88 C 131.30 41.83 131.20 22.78 131.17 3.73 C 149.67 3.04 168.22 3.75 186.73 3.40 C 188.77 3.78 188.45 1.27 189.00 0.00 Z" />
<path fill="#5c605b" opacity="1.00" d=" M 3.23 133.96 C 3.00 132.48 4.00 131.42 4.94 130.45 C 5.04 151.79 5.05 173.14 4.94 194.48 C 3.99 195.79 3.06 197.22 3.26 198.92 C 3.24 217.00 3.36 235.09 3.21 253.17 C 3.18 253.88 3.13 255.29 3.10 256.00 L 0.00 256.00 L 0.00 190.03 C 1.01 189.77 2.04 189.55 3.06 189.33 C 3.49 170.88 3.10 152.42 3.23 133.96 Z" />
<path fill="#5c605b" opacity="1.00" d=" M 63.35 176.63 C 64.82 175.78 66.28 174.93 67.77 174.13 C 67.03 179.19 67.36 184.32 67.18 189.41 C 66.27 189.44 64.46 189.52 63.55 189.55 C 63.38 185.25 63.33 180.94 63.35 176.63 Z" />
<path fill="#5c605b" opacity="1.00" d=" M 41.26 188.95 C 47.51 185.28 53.85 181.75 60.26 178.35 C 60.54 182.03 60.59 185.72 60.45 189.40 C 54.05 189.49 47.61 189.92 41.26 188.95 Z" />
</g>
<g id="#282c27ff">
<path fill="#282c27" opacity="1.00" d=" M 124.52 3.64 C 125.60 3.63 126.68 3.63 127.76 3.62 C 128.00 23.38 127.50 43.15 128.02 62.91 C 126.68 63.54 125.20 63.75 123.77 64.07 C 122.47 63.31 121.16 62.57 119.85 61.84 C 121.31 61.57 122.77 61.29 124.23 61.02 C 124.76 41.90 124.10 22.76 124.52 3.64 Z" />
</g>
<g id="#2c302bff">
<path fill="#2c302b" opacity="1.00" d=" M 252.04 3.47 C 253.36 3.45 254.68 3.42 256.00 3.40 L 256.00 63.83 C 254.35 63.83 252.69 63.83 251.05 63.84 C 251.07 63.25 251.10 62.09 251.12 61.50 C 253.10 55.18 251.87 48.50 252.19 42.01 C 251.90 29.16 252.77 16.31 252.04 3.47 Z" />
<path fill="#2c302b" opacity="1.00" d=" M 60.77 67.35 C 61.79 67.43 62.80 67.51 63.82 67.61 C 63.90 71.97 63.90 76.33 63.67 80.69 C 62.44 79.96 61.23 79.21 59.98 78.52 C 60.13 74.79 60.35 71.06 60.77 67.35 Z" />
<path fill="#2c302b" opacity="1.00" d=" M 252.01 132.17 C 253.12 131.28 254.68 131.67 256.00 131.47 L 256.00 191.83 C 254.35 191.83 252.70 191.83 251.05 191.83 C 251.07 191.20 251.10 189.94 251.12 189.31 C 251.46 186.89 251.80 184.45 251.79 181.99 C 251.67 168.67 251.79 155.35 251.72 142.03 C 251.73 138.74 251.48 135.43 252.01 132.17 Z" />
<path fill="#2c302b" opacity="1.00" d=" M 60.37 197.09 C 60.27 195.19 62.53 195.59 63.76 195.49 C 64.17 215.65 63.34 235.85 64.19 256.00 L 3.10 256.00 C 3.13 255.29 3.18 253.88 3.21 253.17 C 22.20 253.42 41.20 253.46 60.19 253.20 C 60.52 234.50 60.13 215.78 60.37 197.09 Z" />
<path fill="#2c302b" opacity="1.00" d=" M 188.54 195.45 C 189.61 195.51 190.69 195.57 191.76 195.63 C 192.17 215.75 191.35 235.90 192.18 256.00 L 131.00 256.00 C 131.08 255.33 131.23 253.98 131.30 253.31 C 150.25 253.21 169.21 253.58 188.15 253.15 C 188.74 233.92 187.87 214.67 188.54 195.45 Z" />
</g>
<g id="#494d48ff">
<path fill="#494d48" opacity="1.00" d=" M 60.28 4.04 C 61.04 3.91 62.54 3.65 63.30 3.52 C 64.07 9.99 63.40 16.51 63.58 23.00 C 63.73 35.89 63.31 48.80 63.85 61.69 C 64.54 61.42 65.91 60.90 66.59 60.64 C 67.50 54.81 66.81 48.87 67.00 43.00 C 67.18 30.20 66.61 17.39 67.34 4.61 C 68.27 15.73 67.57 26.91 67.80 38.06 C 67.52 45.97 68.33 53.92 67.40 61.79 C 67.28 62.28 67.05 63.26 66.93 63.75 C 66.13 63.74 64.54 63.73 63.75 63.73 C 63.77 65.02 63.80 66.32 63.82 67.61 C 62.80 67.51 61.79 67.43 60.77 67.35 L 60.39 67.34 C 60.33 66.44 60.21 64.66 60.15 63.76 C 51.54 63.64 42.87 63.06 34.32 64.22 C 32.75 63.31 31.17 62.44 29.59 61.56 C 39.77 60.93 49.98 61.71 60.16 61.14 C 60.51 42.12 60.29 23.07 60.28 4.04 Z" />
<path fill="#494d48" opacity="1.00" d=" M 124.28 195.98 C 125.41 195.99 126.54 196.01 127.67 196.03 C 127.61 215.07 127.49 234.12 127.71 253.16 C 128.61 253.20 130.41 253.27 131.30 253.31 C 131.23 253.98 131.08 255.33 131.00 256.00 L 67.05 256.00 C 67.08 255.29 67.14 253.87 67.16 253.16 C 86.17 253.51 105.19 253.45 124.20 253.20 C 124.53 234.13 124.31 215.05 124.28 195.98 Z" />
</g>
<g id="#e6ff45ff">
<path fill="#e6ff45" opacity="1.00" d=" M 204.14 23.81 C 219.72 23.81 235.30 23.83 250.88 23.80 C 251.23 36.37 250.81 48.94 251.12 61.50 C 251.10 62.09 251.07 63.25 251.05 63.84 C 251.01 84.34 250.87 104.84 251.12 125.34 C 250.93 146.66 250.91 167.99 251.12 189.31 C 251.10 189.94 251.07 191.20 251.05 191.83 C 251.04 193.17 251.03 194.51 251.03 195.86 C 250.90 208.28 251.17 220.72 250.90 233.14 C 235.28 233.01 219.65 233.39 204.04 232.95 C 203.97 219.23 204.09 205.52 203.96 191.80 C 203.96 191.16 203.96 189.87 203.97 189.23 C 203.95 175.74 204.16 162.24 203.86 148.76 C 200.85 149.92 198.05 151.54 195.27 153.16 C 193.92 153.90 192.56 154.62 191.22 155.37 C 190.26 155.90 189.31 156.43 188.36 156.97 C 169.47 167.85 150.15 177.96 131.24 188.82 L 130.75 189.07 C 118.96 195.83 106.97 202.28 95.01 208.75 C 94.99 204.18 95.00 199.61 95.00 195.04 C 95.00 194.23 94.99 192.60 94.99 191.79 C 94.99 191.27 94.99 190.25 94.99 189.73 C 94.91 179.58 95.18 169.43 94.83 159.28 C 85.74 164.09 76.94 169.45 67.77 174.13 C 66.28 174.93 64.82 175.78 63.35 176.63 C 62.33 177.22 61.30 177.79 60.26 178.35 C 53.85 181.75 47.51 185.28 41.26 188.95 C 40.29 189.49 39.33 190.03 38.36 190.57 C 35.92 191.89 33.54 193.32 31.15 194.72 C 22.43 199.45 13.72 204.22 5.01 208.97 C 5.00 204.14 5.03 199.31 4.94 194.48 C 5.05 173.14 5.04 151.79 4.94 130.45 C 4.95 129.86 4.97 128.70 4.98 128.12 C 5.00 107.54 5.06 86.97 4.94 66.39 C 5.06 60.30 4.97 54.21 5.02 48.11 C 13.16 52.69 21.40 57.07 29.59 61.56 C 31.17 62.44 32.75 63.31 34.32 64.22 C 36.36 65.43 38.41 66.63 40.49 67.76 C 46.98 71.37 53.42 75.06 59.98 78.52 C 61.23 79.21 62.44 79.96 63.67 80.69 C 64.77 81.33 65.90 81.93 67.03 82.53 C 76.44 87.39 85.43 93.03 94.89 97.78 C 95.13 87.58 94.94 77.36 95.00 67.15 C 94.99 66.38 94.98 64.83 94.98 64.05 C 94.98 63.47 94.98 62.30 94.98 61.71 C 94.99 57.20 94.98 52.70 95.02 48.20 C 103.25 52.83 111.67 57.12 119.85 61.84 C 121.16 62.57 122.47 63.31 123.77 64.07 C 125.96 65.36 128.16 66.62 130.40 67.84 C 149.77 78.71 169.38 89.16 188.63 100.26 C 189.66 100.84 190.70 101.42 191.74 102.00 C 192.88 102.65 194.02 103.30 195.16 103.95 C 197.99 105.58 200.90 107.09 203.86 108.49 C 204.20 93.60 203.98 78.69 203.96 63.79 C 203.96 63.15 203.97 61.88 203.97 61.24 C 204.12 48.76 203.80 36.28 204.14 23.81 Z" />
</g>
<g id="#252924ff">
<path fill="#252924" opacity="1.00" d=" M 194.46 63.62 C 196.48 60.28 200.75 61.65 203.97 61.24 C 203.97 61.88 203.96 63.15 203.96 63.79 L 203.28 63.79 C 200.34 63.81 197.40 63.76 194.46 63.62 Z" />
<path fill="#252924" opacity="1.00" d=" M 67.40 61.79 C 76.58 61.39 85.79 61.58 94.98 61.71 C 94.98 62.30 94.98 63.47 94.98 64.05 C 85.64 63.43 76.28 63.96 66.93 63.75 C 67.05 63.26 67.28 62.28 67.40 61.79 Z" />
<path fill="#252924" opacity="1.00" d=" M 194.44 191.61 C 196.51 188.32 200.74 189.63 203.97 189.23 C 203.96 189.87 203.96 191.16 203.96 191.80 L 203.25 191.80 C 200.31 191.81 197.37 191.76 194.44 191.61 Z" />
<path fill="#252924" opacity="1.00" d=" M 66.58 191.65 C 66.98 191.16 67.78 190.17 68.18 189.68 C 77.11 189.54 86.05 189.51 94.99 189.73 C 94.99 190.25 94.99 191.27 94.99 191.79 C 85.52 191.69 76.05 191.93 66.58 191.65 Z" />
</g>
<g id="#5c615bff">
<path fill="#5c615b" opacity="1.00" d=" M 34.32 64.22 C 42.87 63.06 51.54 63.64 60.15 63.76 C 60.21 64.66 60.33 66.44 60.39 67.34 C 53.76 67.57 47.11 67.14 40.49 67.76 C 38.41 66.63 36.36 65.43 34.32 64.22 Z" />
</g>
<g id="#70746fff">
<path fill="#70746f" opacity="1.00" d=" M 251.05 63.84 C 252.69 63.83 254.35 63.83 256.00 63.83 L 256.00 67.38 C 254.52 67.50 253.04 67.61 251.57 67.73 C 251.53 80.48 251.59 93.23 251.56 105.98 C 251.48 112.44 251.87 118.91 251.12 125.34 C 250.87 104.84 251.01 84.34 251.05 63.84 Z" />
<path fill="#70746f" opacity="1.00" d=" M 251.05 191.83 C 252.70 191.83 254.35 191.83 256.00 191.83 L 256.00 195.40 C 254.66 195.49 253.33 195.58 252.00 195.73 L 251.03 195.86 C 251.03 194.51 251.04 193.17 251.05 191.83 Z" />
</g>
<g id="#414540ff">
<path fill="#414540" opacity="1.00" d=" M 3.20 69.94 C 2.96 68.43 3.98 67.37 4.94 66.39 C 5.06 86.97 5.00 107.54 4.98 128.12 C 3.32 127.90 1.66 127.69 0.00 127.47 L 0.00 126.17 C 0.73 125.99 2.18 125.62 2.91 125.44 C 3.32 121.64 3.29 117.81 3.22 113.99 C 3.16 99.30 3.23 84.62 3.20 69.94 Z" />
</g>
<g id="#3f423eff">
<path fill="#3f423e" opacity="1.00" d=" M 40.49 67.76 C 47.11 67.14 53.76 67.57 60.39 67.34 L 60.77 67.35 C 60.35 71.06 60.13 74.79 59.98 78.52 C 53.42 75.06 46.98 71.37 40.49 67.76 Z" />
<path fill="#3f423e" opacity="1.00" d=" M 67.77 174.13 C 76.94 169.45 85.74 164.09 94.83 159.28 C 95.18 169.43 94.91 179.58 94.99 189.73 C 86.05 189.51 77.11 189.54 68.18 189.68 C 67.78 190.17 66.98 191.16 66.58 191.65 C 65.81 191.62 64.28 191.55 63.51 191.51 C 63.60 192.84 63.68 194.16 63.76 195.49 C 62.53 195.59 60.27 195.19 60.37 197.09 C 60.13 215.78 60.52 234.50 60.19 253.20 C 41.20 253.46 22.20 253.42 3.21 253.17 C 3.36 235.09 3.24 217.00 3.26 198.92 C 3.06 197.22 3.99 195.79 4.94 194.48 C 5.03 199.31 5.00 204.14 5.01 208.97 C 13.72 204.22 22.43 199.45 31.15 194.72 C 40.75 196.15 50.51 195.25 60.18 195.32 C 60.48 194.08 60.78 192.84 61.07 191.61 C 55.40 191.25 49.72 191.41 44.04 191.50 C 42.10 191.57 40.15 191.33 38.36 190.57 C 39.33 190.03 40.29 189.49 41.26 188.95 C 47.61 189.92 54.05 189.49 60.45 189.40 C 60.59 185.72 60.54 182.03 60.26 178.35 C 61.30 177.79 62.33 177.22 63.35 176.63 C 63.33 180.94 63.38 185.25 63.55 189.55 C 64.46 189.52 66.27 189.44 67.18 189.41 C 67.36 184.32 67.03 179.19 67.77 174.13 Z" />
</g>
<g id="#272b26ff">
<path fill="#272b26" opacity="1.00" d=" M 188.34 67.99 C 189.47 67.80 190.59 67.60 191.72 67.40 C 191.87 78.93 191.80 90.47 191.74 102.00 C 190.70 101.42 189.66 100.84 188.63 100.26 C 188.15 89.51 188.57 78.75 188.34 67.99 Z" />
</g>
<g id="#4a4e49ff">
<path fill="#4a4e49" opacity="1.00" d=" M 251.57 67.73 C 253.04 67.61 254.52 67.50 256.00 67.38 L 256.00 131.47 C 254.68 131.67 253.12 131.28 252.01 132.17 C 251.48 135.43 251.73 138.74 251.72 142.03 C 251.79 155.35 251.67 168.67 251.79 181.99 C 251.80 184.45 251.46 186.89 251.12 189.31 C 250.91 167.99 250.93 146.66 251.12 125.34 C 251.87 118.91 251.48 112.44 251.56 105.98 C 251.59 93.23 251.53 80.48 251.57 67.73 Z" />
<path fill="#4a4e49" opacity="1.00" d=" M 252.00 195.73 C 253.33 195.58 254.66 195.49 256.00 195.40 L 256.00 256.00 L 194.70 256.00 C 194.80 255.28 195.02 253.85 195.12 253.14 C 214.13 253.46 233.15 253.41 252.15 253.20 C 252.67 243.48 252.08 233.75 252.21 224.02 C 252.17 214.59 252.46 205.15 252.00 195.73 Z" />
</g>
<g id="#5b605aff">
<path fill="#5b605a" opacity="1.00" d=" M 31.15 194.72 C 33.54 193.32 35.92 191.89 38.36 190.57 C 40.15 191.33 42.10 191.57 44.04 191.50 C 49.72 191.41 55.40 191.25 61.07 191.61 C 60.78 192.84 60.48 194.08 60.18 195.32 C 50.51 195.25 40.75 196.15 31.15 194.72 Z" />
</g>
</svg>
