<?xml version="1.0" encoding="UTF-8" ?>
<!DOCTYPE svg PUBLIC "-//W3C//DTD SVG 1.1//EN" "http://www.w3.org/Graphics/SVG/1.1/DTD/svg11.dtd">
<svg width="256pt" height="256pt" viewBox="0 0 256 256" version="1.1" xmlns="http://www.w3.org/2000/svg">
<g id="#c64848df">
<path fill="#c64848" opacity="0.87" d=" M 137.34 6.13 C 137.69 4.17 141.46 4.57 142.95 5.31 C 141.19 6.13 139.26 6.53 137.34 6.13 Z" />
</g>
<g id="#ff1414ff">
<path fill="#ff1414" opacity="1.00" d=" M 142.95 5.31 C 143.72 5.31 145.25 5.31 146.02 5.31 C 147.75 6.17 149.67 6.53 151.59 6.19 C 155.22 6.11 158.35 8.73 161.01 10.98 C 167.11 15.82 165.73 26.24 159.69 30.54 C 159.66 30.56 159.60 30.60 159.57 30.62 L 157.72 31.60 C 157.68 31.62 157.60 31.64 157.56 31.66 C 156.76 31.76 155.17 31.97 154.38 32.07 C 151.51 31.95 154.25 35.29 155.94 34.77 L 156.66 34.86 C 159.22 37.08 161.75 39.43 163.56 42.34 C 163.58 42.38 163.63 42.46 163.65 42.50 C 164.55 44.50 165.56 46.74 164.87 48.97 C 163.71 53.54 159.54 56.44 155.64 58.60 C 155.61 58.61 155.56 58.63 155.53 58.64 L 153.89 58.94 C 153.42 59.17 152.48 59.63 152.01 59.86 L 150.73 59.81 C 149.42 59.60 148.13 60.01 147.03 60.70 L 146.40 61.01 C 143.53 61.05 140.65 60.97 137.78 60.93 C 138.20 62.37 138.63 63.82 138.99 65.28 C 139.69 68.73 139.23 73.00 136.05 75.12 C 131.69 78.49 125.90 76.87 120.84 77.23 C 118.20 75.67 115.27 74.40 113.22 72.04 C 110.33 65.96 103.45 63.66 100.03 58.03 C 94.92 51.28 96.33 41.15 101.98 35.19 C 105.60 31.95 110.80 32.05 115.30 32.77 L 116.06 33.28 C 116.85 34.06 117.77 34.32 118.84 34.08 C 120.24 33.74 121.64 34.33 122.87 34.94 L 123.90 35.53 C 124.00 31.45 123.92 27.37 123.75 23.29 C 124.06 19.03 126.30 15.17 128.51 11.60 C 130.47 8.70 133.39 5.24 137.34 6.13 C 139.26 6.53 141.19 6.13 142.95 5.31 Z" />
<path fill="#ff1414" opacity="1.00" d=" M 98.58 99.96 C 104.67 97.84 111.00 95.86 117.49 95.80 C 123.89 95.94 130.29 95.90 136.69 95.74 C 137.30 95.84 138.52 96.05 139.13 96.15 C 140.53 96.84 142.08 97.42 143.65 96.96 C 144.25 97.01 145.44 97.13 146.04 97.18 C 146.85 97.93 147.77 98.13 148.79 97.80 C 149.37 97.88 150.54 98.02 151.12 98.09 C 151.63 98.25 152.65 98.56 153.16 98.72 C 153.99 98.70 155.64 98.68 156.46 98.67 C 154.59 106.64 155.50 114.88 155.34 122.99 C 155.70 126.99 156.14 131.02 157.02 134.94 C 158.06 140.95 159.98 146.76 162.03 152.48 C 162.97 155.66 164.35 158.68 166.11 161.49 L 166.62 162.39 C 166.64 162.43 166.68 162.51 166.71 162.56 L 167.60 164.33 C 167.62 164.36 167.65 164.43 167.67 164.47 L 168.55 166.35 C 168.58 166.41 168.63 166.51 168.65 166.56 L 169.51 168.40 C 169.54 168.45 169.58 168.54 169.61 168.59 L 170.51 170.44 C 170.53 170.48 170.56 170.55 170.58 170.58 C 178.10 186.56 185.58 202.57 193.46 218.38 C 193.49 218.43 193.55 218.55 193.57 218.60 L 194.46 220.32 C 194.48 220.36 194.53 220.46 194.55 220.50 L 195.50 222.38 C 195.53 222.43 195.59 222.54 195.61 222.59 L 196.51 224.39 C 196.53 224.43 196.58 224.52 196.60 224.57 L 197.52 226.42 C 197.53 226.45 197.57 226.52 197.58 226.56 C 201.74 234.77 205.43 243.33 210.59 250.96 C 155.83 251.05 101.08 250.97 46.33 251.00 C 51.72 243.09 56.50 234.78 61.37 226.55 C 61.39 226.51 61.43 226.43 61.45 226.40 C 62.77 224.11 64.07 221.83 65.35 219.53 C 65.38 219.49 65.42 219.40 65.45 219.35 C 73.26 205.18 80.22 190.53 86.36 175.56 C 86.37 175.54 86.40 175.50 86.41 175.48 L 87.30 174.32 C 88.41 173.17 89.39 171.75 89.17 170.07 L 89.18 169.31 C 90.74 168.45 91.02 166.60 91.00 164.99 C 91.92 159.52 94.82 154.53 95.78 149.03 C 96.49 144.66 97.77 140.34 97.81 135.89 C 98.18 134.82 98.57 133.77 99.00 132.72 C 100.13 130.71 100.35 128.40 99.72 126.20 C 99.21 117.47 100.74 108.54 98.58 99.96 M 105.51 180.54 C 101.60 185.53 98.51 191.86 99.21 198.36 C 104.79 198.33 110.38 198.41 115.96 198.32 C 117.86 198.37 119.99 198.01 121.62 199.30 C 122.57 198.72 123.50 198.11 124.44 197.52 C 124.43 199.88 126.10 201.27 128.00 202.22 C 131.39 201.87 131.44 198.51 133.05 196.30 L 133.67 198.17 C 138.10 198.61 142.57 198.25 147.01 198.35 C 150.52 198.24 154.11 198.78 157.56 197.88 C 157.38 197.20 157.02 195.83 156.84 195.14 C 155.91 186.30 150.21 178.23 142.57 173.85 C 141.92 175.03 141.28 176.22 140.63 177.41 C 140.60 177.47 140.53 177.60 140.50 177.66 L 140.03 178.58 C 138.03 181.28 136.14 184.15 135.21 187.42 L 135.13 187.55 C 132.76 189.29 132.34 192.41 130.71 194.71 C 128.97 195.91 126.26 194.20 125.21 196.77 C 124.46 196.93 123.88 196.60 123.47 195.77 C 123.90 195.29 124.78 194.31 125.22 193.82 C 124.14 190.41 122.31 187.12 119.93 184.43 C 119.60 183.82 119.25 183.22 118.89 182.64 C 118.13 179.99 116.74 177.59 114.92 175.54 L 114.44 174.63 C 114.43 174.60 114.39 174.53 114.37 174.50 L 113.87 173.59 C 110.45 175.03 107.83 177.73 105.51 180.54 M 117.60 217.42 C 117.57 217.47 117.52 217.57 117.49 217.62 L 116.89 218.80 C 114.90 218.41 112.53 223.18 114.62 223.83 L 116.38 224.41 C 116.45 224.44 116.59 224.49 116.66 224.52 C 118.14 225.08 119.59 225.97 121.25 225.85 C 121.65 227.55 122.58 227.81 124.04 226.66 L 125.29 226.97 C 126.05 228.99 130.77 228.86 131.59 226.94 L 132.93 226.66 C 134.36 227.81 135.30 227.56 135.73 225.89 L 136.28 225.89 C 138.63 225.78 140.68 224.64 142.69 223.56 C 141.80 221.26 140.91 218.84 138.91 217.26 C 136.31 212.67 133.88 207.98 131.15 203.47 C 129.39 204.14 127.49 204.54 125.78 203.49 C 122.69 207.91 120.40 212.82 117.60 217.42 Z" />
</g>
<g id="#b54444cf">
<path fill="#b54444" opacity="0.81" d=" M 146.02 5.31 C 147.51 4.47 151.10 4.27 151.59 6.19 C 149.67 6.53 147.75 6.17 146.02 5.31 Z" />
</g>
<g id="#de4040f2">
<path fill="#de4040" opacity="0.95" d=" M 122.87 34.94 C 122.90 31.08 122.07 26.92 123.75 23.29 C 123.92 27.37 124.00 31.45 123.90 35.53 L 122.87 34.94 Z" />
</g>
<g id="#8a4343a7">
<path fill="#8a4343" opacity="0.65" d=" M 159.57 30.62 C 159.60 30.60 159.66 30.56 159.69 30.54 C 159.66 30.56 159.60 30.60 159.57 30.62 Z" />
</g>
<g id="#9a4f4fbb">
<path fill="#9a4f4f" opacity="0.73" d=" M 157.56 31.66 C 157.60 31.64 157.68 31.62 157.72 31.60 C 157.68 31.62 157.60 31.64 157.56 31.66 Z" />
</g>
<g id="#73252595">
<path fill="#732525" opacity="0.58" d=" M 100.49 35.70 C 104.22 31.92 110.43 30.90 115.30 32.77 C 110.80 32.05 105.60 31.95 101.98 35.19 C 96.33 41.15 94.92 51.28 100.03 58.03 C 103.45 63.66 110.33 65.96 113.22 72.04 C 110.89 70.56 109.88 67.75 107.52 66.31 C 103.19 63.47 99.56 59.50 97.39 54.78 C 94.89 48.46 96.35 40.98 100.49 35.70 Z" />
</g>
<g id="#c13c3cd5">
<path fill="#c13c3c" opacity="0.84" d=" M 155.94 34.77 C 154.25 35.29 151.51 31.95 154.38 32.07 C 155.45 32.71 155.97 33.61 155.94 34.77 Z" />
</g>
<g id="#ca4848e1">
<path fill="#ca4848" opacity="0.88" d=" M 116.06 33.28 C 117.54 32.24 118.47 32.51 118.84 34.08 C 117.77 34.32 116.85 34.06 116.06 33.28 Z" />
</g>
<g id="#833c3c9d">
<path fill="#833c3c" opacity="0.62" d=" M 163.56 42.34 C 163.58 42.38 163.63 42.46 163.65 42.50 C 163.63 42.46 163.58 42.38 163.56 42.34 Z" />
</g>
<g id="#8b4545a9">
<path fill="#8b4545" opacity="0.66" d=" M 155.53 58.64 C 155.56 58.63 155.61 58.61 155.64 58.60 C 155.61 58.61 155.56 58.63 155.53 58.64 Z" />
</g>
<g id="#a14747bf">
<path fill="#a14747" opacity="0.75" d=" M 152.01 59.86 C 152.48 59.63 153.42 59.17 153.89 58.94 L 153.78 59.84 L 152.81 60.32 L 152.01 59.86 Z" />
</g>
<g id="#b14141d0">
<path fill="#b14141" opacity="0.82" d=" M 147.03 60.70 C 148.13 60.01 149.42 59.60 150.73 59.81 C 151.00 61.57 147.93 61.77 147.03 60.70 Z" />
</g>
<g id="#824040a4">
<path fill="#824040" opacity="0.64" d=" M 137.78 60.93 C 140.65 60.97 143.53 61.05 146.40 61.01 C 144.13 62.20 141.55 61.99 139.09 61.92 C 139.06 62.76 139.01 64.44 138.99 65.28 C 138.63 63.82 138.20 62.37 137.78 60.93 Z" />
</g>
<g id="#c54545df">
<path fill="#c54545" opacity="0.87" d=" M 117.49 95.80 C 120.81 94.37 124.48 94.87 127.99 94.79 C 130.91 94.82 133.96 94.47 136.69 95.74 C 130.29 95.90 123.89 95.94 117.49 95.80 Z" />
</g>
<g id="#ca3c3ce0">
<path fill="#ca3c3c" opacity="0.88" d=" M 139.13 96.15 C 140.24 95.15 143.63 95.12 143.65 96.96 C 142.08 97.42 140.53 96.84 139.13 96.15 Z" />
</g>
<g id="#d43e3ee9">
<path fill="#d43e3e" opacity="0.91" d=" M 146.04 97.18 C 147.43 96.03 148.34 96.24 148.79 97.80 C 147.77 98.13 146.85 97.93 146.04 97.18 Z" />
</g>
<g id="#d63d3deb">
<path fill="#d63d3d" opacity="0.92" d=" M 151.12 98.09 L 151.84 97.52 L 152.89 97.83 L 153.16 98.72 C 152.65 98.56 151.63 98.25 151.12 98.09 Z" />
</g>
<g id="#d83737e9">
<path fill="#d83737" opacity="0.91" d=" M 99.72 126.20 C 100.35 128.40 100.13 130.71 99.00 132.72 C 98.18 130.75 98.08 127.78 99.72 126.20 Z" />
</g>
<g id="#6e28288b">
<path fill="#6e2828" opacity="0.55" d=" M 162.03 152.48 C 163.68 155.34 165.12 158.33 166.11 161.49 C 164.35 158.68 162.97 155.66 162.03 152.48 Z" />
</g>
<g id="#a14a4ac1">
<path fill="#a14a4a" opacity="0.76" d=" M 166.62 162.39 C 166.64 162.43 166.68 162.51 166.71 162.56 C 166.68 162.51 166.64 162.43 166.62 162.39 Z" />
</g>
<g id="#a95050cb">
<path fill="#a95050" opacity="0.80" d=" M 167.60 164.33 C 167.62 164.36 167.65 164.43 167.67 164.47 C 167.65 164.43 167.62 164.36 167.60 164.33 Z" />
</g>
<g id="#bc3b3bd2">
<path fill="#bc3b3b" opacity="0.82" d=" M 89.18 169.31 C 88.71 167.95 89.40 165.07 91.00 164.99 C 91.02 166.60 90.74 168.45 89.18 169.31 Z" />
</g>
<g id="#a65555cb">
<path fill="#a65555" opacity="0.80" d=" M 168.55 166.35 C 168.58 166.41 168.63 166.51 168.65 166.56 C 168.63 166.51 168.58 166.41 168.55 166.35 Z" />
</g>
<g id="#884c4cb7">
<path fill="#884c4c" opacity="0.72" d=" M 169.51 168.40 C 169.54 168.45 169.58 168.54 169.61 168.59 C 169.58 168.54 169.54 168.45 169.51 168.40 Z" />
</g>
<g id="#b23d3dc8">
<path fill="#b23d3d" opacity="0.78" d=" M 87.30 174.32 C 86.67 172.98 87.45 169.97 89.17 170.07 C 89.39 171.75 88.41 173.17 87.30 174.32 Z" />
</g>
<g id="#7e4747ab">
<path fill="#7e4747" opacity="0.67" d=" M 170.51 170.44 C 170.53 170.48 170.56 170.55 170.58 170.58 C 170.56 170.55 170.53 170.48 170.51 170.44 Z" />
</g>
<g id="#9e3030bb">
<path fill="#9e3030" opacity="0.73" d=" M 105.51 180.54 C 107.83 177.73 110.45 175.03 113.87 173.59 C 110.61 176.53 107.06 179.25 104.67 182.99 C 101.54 187.37 100.13 192.68 99.40 197.95 C 107.11 197.95 114.83 197.96 122.55 197.96 C 122.72 196.20 123.48 194.63 124.60 193.29 C 122.94 190.39 121.39 187.44 119.93 184.43 C 122.31 187.12 124.14 190.41 125.22 193.82 C 124.78 194.31 123.90 195.29 123.47 195.77 C 123.88 196.60 124.46 196.93 125.21 196.77 C 126.26 194.20 128.97 195.91 130.71 194.71 C 132.34 192.41 132.76 189.29 135.13 187.55 C 134.15 189.40 133.15 191.24 132.07 193.03 C 132.84 194.67 133.64 196.31 134.43 197.94 C 142.14 197.96 149.85 198.00 157.56 197.88 C 154.11 198.78 150.52 198.24 147.01 198.35 C 142.57 198.25 138.10 198.61 133.67 198.17 L 133.05 196.30 C 131.44 198.51 131.39 201.87 128.00 202.22 C 126.10 201.27 124.43 199.88 124.44 197.52 C 123.50 198.11 122.57 198.72 121.62 199.30 C 119.99 198.01 117.86 198.37 115.96 198.32 C 110.38 198.41 104.79 198.33 99.21 198.36 C 98.51 191.86 101.60 185.53 105.51 180.54 M 125.87 197.05 C 124.48 200.02 127.42 201.46 129.95 201.03 C 130.48 199.90 132.18 198.57 131.00 197.28 C 129.99 195.13 127.07 194.97 125.87 197.05 Z" />
</g>
<g id="#8d4848b1">
<path fill="#8d4848" opacity="0.69" d=" M 114.37 174.50 C 114.39 174.53 114.43 174.60 114.44 174.63 C 114.43 174.60 114.39 174.53 114.37 174.50 Z" />
</g>
<g id="#924c4cb9">
<path fill="#924c4c" opacity="0.73" d=" M 86.36 175.56 C 86.37 175.54 86.40 175.50 86.41 175.48 C 86.40 175.50 86.37 175.54 86.36 175.56 Z" />
</g>
<g id="#892b2ba7">
<path fill="#892b2b" opacity="0.65" d=" M 114.92 175.54 C 116.74 177.59 118.13 179.99 118.89 182.64 C 117.40 180.36 116.14 177.96 114.92 175.54 Z" />
</g>
<g id="#8b4141ab">
<path fill="#8b4141" opacity="0.67" d=" M 140.50 177.66 C 140.53 177.60 140.60 177.47 140.63 177.41 C 140.60 177.47 140.53 177.60 140.50 177.66 Z" />
</g>
<g id="#73242492">
<path fill="#732424" opacity="0.57" d=" M 135.21 187.42 C 136.14 184.15 138.03 181.28 140.03 178.58 C 138.59 181.62 137.04 184.60 135.21 187.42 Z" />
</g>
<g id="#833f3faf">
<path fill="#833f3f" opacity="0.69" d=" M 117.49 217.62 C 117.52 217.57 117.57 217.47 117.60 217.42 C 117.57 217.47 117.52 217.57 117.49 217.62 Z" />
</g>
<g id="#b93333cc">
<path fill="#b93333" opacity="0.80" d=" M 138.91 217.26 C 140.91 218.84 141.80 221.26 142.69 223.56 C 140.68 224.64 138.63 225.78 136.28 225.89 C 138.26 225.06 140.20 224.16 142.15 223.24 C 140.99 221.29 139.91 219.30 138.91 217.26 Z" />
</g>
<g id="#6934349d">
<path fill="#693434" opacity="0.62" d=" M 193.46 218.38 C 193.49 218.43 193.55 218.55 193.57 218.60 C 193.55 218.55 193.49 218.43 193.46 218.38 Z" />
</g>
<g id="#853a3ab5">
<path fill="#853a3a" opacity="0.71" d=" M 65.35 219.53 C 65.38 219.49 65.42 219.40 65.45 219.35 C 65.42 219.40 65.38 219.49 65.35 219.53 Z" />
</g>
<g id="#a63737c0">
<path fill="#a63737" opacity="0.75" d=" M 114.62 223.83 C 112.53 223.18 114.90 218.41 116.89 218.80 C 116.18 220.49 115.51 222.21 114.62 223.83 Z" />
</g>
<g id="#733d3da3">
<path fill="#733d3d" opacity="0.64" d=" M 194.46 220.32 C 194.48 220.36 194.53 220.46 194.55 220.50 C 194.53 220.46 194.48 220.36 194.46 220.32 Z" />
</g>
<g id="#804747ab">
<path fill="#804747" opacity="0.67" d=" M 195.50 222.38 C 195.53 222.43 195.59 222.54 195.61 222.59 C 195.59 222.54 195.53 222.43 195.50 222.38 Z" />
</g>
<g id="#774242a5">
<path fill="#774242" opacity="0.65" d=" M 116.38 224.41 C 116.45 224.44 116.59 224.49 116.66 224.52 C 116.59 224.49 116.45 224.44 116.38 224.41 Z" />
</g>
<g id="#8a4d4db3">
<path fill="#8a4d4d" opacity="0.70" d=" M 196.51 224.39 C 196.53 224.43 196.58 224.52 196.60 224.57 C 196.58 224.52 196.53 224.43 196.51 224.39 Z" />
</g>
<g id="#934a4ab5">
<path fill="#934a4a" opacity="0.71" d=" M 61.37 226.55 C 61.39 226.51 61.43 226.43 61.45 226.40 C 61.43 226.43 61.39 226.51 61.37 226.55 Z" />
</g>
<g id="#b34a4acf">
<path fill="#b34a4a" opacity="0.81" d=" M 121.25 225.85 C 122.28 225.75 123.21 226.02 124.04 226.66 C 122.58 227.81 121.65 227.55 121.25 225.85 Z" />
</g>
<g id="#ab4949c6">
<path fill="#ab4949" opacity="0.78" d=" M 132.93 226.66 C 133.76 226.00 134.69 225.75 135.73 225.89 C 135.30 227.56 134.36 227.81 132.93 226.66 Z" />
</g>
<g id="#854949b1">
<path fill="#854949" opacity="0.69" d=" M 197.52 226.42 C 197.53 226.45 197.57 226.52 197.58 226.56 C 197.57 226.52 197.53 226.45 197.52 226.42 Z" />
</g>
<g id="#f63838ff">
<path fill="#f63838" opacity="1.00" d=" M 125.29 226.97 C 127.39 226.93 129.49 226.93 131.59 226.94 C 130.77 228.86 126.05 228.99 125.29 226.97 Z" />
</g>
</svg>
