<?xml version="1.0" encoding="UTF-8" ?>
<!DOCTYPE svg PUBLIC "-//W3C//DTD SVG 1.1//EN" "http://www.w3.org/Graphics/SVG/1.1/DTD/svg11.dtd">
<svg width="256pt" height="256pt" viewBox="0 0 256 256" version="1.1" xmlns="http://www.w3.org/2000/svg">
<g id="#fefefeff">
<path fill="#fefefe" opacity="1.00" d=" M 0.00 0.00 L 256.00 0.00 L 256.00 256.00 L 0.00 256.00 L 0.00 0.00 M 21.39 5.25 C 21.50 10.26 21.54 15.28 21.33 20.30 C 16.32 20.44 11.30 20.42 6.28 20.35 C 6.09 27.15 6.14 33.95 6.21 40.75 C 11.25 40.73 16.28 40.70 21.32 40.82 C 21.59 66.68 21.54 92.56 21.35 118.42 C 16.33 118.64 11.31 118.61 6.30 118.46 C 6.07 124.69 6.14 130.93 6.21 137.16 C 11.34 137.43 16.48 137.35 21.62 137.35 C 21.66 142.90 21.32 148.45 21.64 153.99 C 21.55 155.57 22.39 157.12 24.11 157.20 C 29.65 157.89 35.26 157.46 40.81 157.25 C 41.04 150.70 40.80 144.15 40.99 137.60 C 45.77 137.37 50.55 137.42 55.33 137.40 C 56.29 131.05 57.92 124.84 59.00 118.51 C 53.00 118.53 46.99 118.74 41.00 118.39 C 40.86 92.55 40.84 66.70 41.01 40.86 C 66.49 40.64 91.98 40.67 117.46 40.84 C 117.83 46.84 117.62 52.86 117.58 58.87 C 124.52 57.30 131.47 55.73 138.47 54.44 C 138.51 49.91 138.51 45.38 138.67 40.85 C 145.31 40.59 151.96 40.87 158.60 40.66 C 158.56 33.95 158.68 27.24 158.46 20.53 C 151.86 20.22 145.26 20.56 138.67 20.27 C 138.46 15.24 138.50 10.21 138.61 5.18 C 131.58 4.90 124.53 4.80 117.51 5.28 C 117.70 10.28 117.75 15.28 117.48 20.27 C 91.98 20.46 66.47 20.51 40.98 20.25 C 40.88 15.19 40.92 10.14 40.90 5.08 C 34.39 4.95 27.88 4.83 21.39 5.25 M 89.45 84.46 C 67.96 104.99 56.48 136.06 61.39 165.60 C 63.71 181.18 70.53 195.77 79.36 208.68 C 90.69 222.01 104.92 233.36 121.56 239.25 C 135.41 244.43 150.54 245.64 165.15 243.84 C 175.98 242.47 186.27 238.66 196.01 233.87 C 200.80 238.83 204.37 244.81 209.05 249.86 C 211.52 251.84 215.07 250.73 218.00 251.04 C 228.67 250.88 239.34 251.17 250.01 250.88 C 245.36 244.34 239.88 238.44 235.26 231.88 C 230.94 225.71 225.85 220.12 221.54 213.95 C 225.91 207.54 231.25 201.76 234.67 194.73 C 241.01 181.39 244.77 166.77 245.33 152.00 C 244.74 136.43 240.96 120.94 233.82 107.06 C 230.23 100.86 225.76 95.22 221.28 89.65 C 211.52 78.27 198.49 69.96 184.51 64.76 C 171.12 60.71 156.95 58.30 142.96 60.05 C 123.06 62.00 104.21 71.11 89.45 84.46 Z" />
<path fill="#fefefe" opacity="1.00" d=" M 141.43 81.70 C 153.54 80.86 166.23 80.49 177.62 85.42 C 190.51 91.11 203.16 99.13 210.63 111.43 C 218.43 123.09 223.60 136.84 223.48 151.00 C 224.05 177.59 207.64 203.44 183.82 215.00 C 166.71 224.26 145.41 225.07 127.44 217.81 C 102.20 208.17 82.91 183.26 81.86 155.99 C 81.27 144.49 83.08 132.66 88.30 122.30 C 93.59 112.21 99.91 102.03 109.62 95.64 C 118.99 88.72 129.86 83.54 141.43 81.70 M 120.98 94.93 C 119.82 95.70 118.19 96.47 118.30 98.14 C 117.89 104.97 118.65 111.85 117.77 118.67 C 110.68 119.13 103.30 117.70 96.41 119.33 C 89.99 129.06 87.58 141.04 87.33 152.56 C 98.34 152.62 109.36 152.32 120.38 152.67 C 120.68 158.64 120.52 164.62 120.47 170.59 C 131.21 170.69 141.95 170.59 152.70 170.66 C 152.77 164.66 152.62 158.67 152.82 152.68 C 158.79 152.39 164.78 152.54 170.76 152.61 C 171.21 141.70 171.07 130.77 170.84 119.86 C 164.90 119.55 158.95 119.74 153.01 119.72 C 152.27 108.59 153.02 97.42 152.64 86.28 C 141.67 87.05 130.56 89.30 120.98 94.93 Z" />
</g>
<g id="#66ccffff">
<path fill="#66ccff" opacity="1.00" d=" M 21.39 5.25 C 27.88 4.83 34.39 4.95 40.90 5.08 C 40.92 10.14 40.88 15.19 40.98 20.25 C 66.47 20.51 91.98 20.46 117.48 20.27 C 117.75 15.28 117.70 10.28 117.51 5.28 C 124.53 4.80 131.58 4.90 138.61 5.18 C 138.50 10.21 138.46 15.24 138.67 20.27 C 145.26 20.56 151.86 20.22 158.46 20.53 C 158.68 27.24 158.56 33.95 158.60 40.66 C 151.96 40.87 145.31 40.59 138.67 40.85 C 138.51 45.38 138.51 49.91 138.47 54.44 C 131.47 55.73 124.52 57.30 117.58 58.87 C 117.62 52.86 117.83 46.84 117.46 40.84 C 91.98 40.67 66.49 40.64 41.01 40.86 C 40.84 66.70 40.86 92.55 41.00 118.39 C 46.99 118.74 53.00 118.53 59.00 118.51 C 57.92 124.84 56.29 131.05 55.33 137.40 C 50.55 137.42 45.77 137.37 40.99 137.60 C 40.80 144.15 41.04 150.70 40.81 157.25 C 35.26 157.46 29.65 157.89 24.11 157.20 C 22.39 157.12 21.55 155.57 21.64 153.99 C 21.32 148.45 21.66 142.90 21.62 137.35 C 16.48 137.35 11.34 137.43 6.21 137.16 C 6.14 130.93 6.07 124.69 6.30 118.46 C 11.31 118.61 16.33 118.64 21.35 118.42 C 21.54 92.56 21.59 66.68 21.32 40.82 C 16.28 40.70 11.25 40.73 6.21 40.75 C 6.14 33.95 6.09 27.15 6.28 20.35 C 11.30 20.42 16.32 20.44 21.33 20.30 C 21.54 15.28 21.50 10.26 21.39 5.25 Z" />
<path fill="#66ccff" opacity="1.00" d=" M 89.45 84.46 C 104.21 71.11 123.06 62.00 142.96 60.05 C 156.95 58.30 171.12 60.71 184.51 64.76 C 198.49 69.96 211.52 78.27 221.28 89.65 C 225.76 95.22 230.23 100.86 233.82 107.06 C 240.96 120.94 244.74 136.43 245.33 152.00 C 244.77 166.77 241.01 181.39 234.67 194.73 C 231.25 201.76 225.91 207.54 221.54 213.95 C 225.85 220.12 230.94 225.71 235.26 231.88 C 239.88 238.44 245.36 244.34 250.01 250.88 C 239.34 251.17 228.67 250.88 218.00 251.04 C 215.07 250.73 211.52 251.84 209.05 249.86 C 204.37 244.81 200.80 238.83 196.01 233.87 C 186.27 238.66 175.98 242.47 165.15 243.84 C 150.54 245.64 135.41 244.43 121.56 239.25 C 104.92 233.36 90.69 222.01 79.36 208.68 C 70.53 195.77 63.71 181.18 61.39 165.60 C 56.48 136.06 67.96 104.99 89.45 84.46 M 141.43 81.70 C 129.86 83.54 118.99 88.72 109.62 95.64 C 99.91 102.03 93.59 112.21 88.30 122.30 C 83.08 132.66 81.27 144.49 81.86 155.99 C 82.91 183.26 102.20 208.17 127.44 217.81 C 145.41 225.07 166.71 224.26 183.82 215.00 C 207.64 203.44 224.05 177.59 223.48 151.00 C 223.60 136.84 218.43 123.09 210.63 111.43 C 203.16 99.13 190.51 91.11 177.62 85.42 C 166.23 80.49 153.54 80.86 141.43 81.70 Z" />
<path fill="#66ccff" opacity="1.00" d=" M 120.98 94.93 C 130.56 89.30 141.67 87.05 152.64 86.28 C 153.02 97.42 152.27 108.59 153.01 119.72 C 158.95 119.74 164.90 119.55 170.84 119.86 C 171.07 130.77 171.21 141.70 170.76 152.61 C 164.78 152.54 158.79 152.39 152.82 152.68 C 152.62 158.67 152.77 164.66 152.70 170.66 C 141.95 170.59 131.21 170.69 120.47 170.59 C 120.52 164.62 120.68 158.64 120.38 152.67 C 109.36 152.32 98.34 152.62 87.33 152.56 C 87.58 141.04 89.99 129.06 96.41 119.33 C 103.30 117.70 110.68 119.13 117.77 118.67 C 118.65 111.85 117.89 104.97 118.30 98.14 C 118.19 96.47 119.82 95.70 120.98 94.93 Z" />
</g>
</svg>
