<?xml version="1.0" encoding="UTF-8" ?>
<!DOCTYPE svg PUBLIC "-//W3C//DTD SVG 1.1//EN" "http://www.w3.org/Graphics/SVG/1.1/DTD/svg11.dtd">
<svg width="256pt" height="256pt" viewBox="0 0 256 256" version="1.1" xmlns="http://www.w3.org/2000/svg">
<g id="#4b944aff">
<path fill="#4b944a" opacity="1.00" d=" M 0.00 0.00 L 256.00 0.00 L 256.00 256.00 L 0.00 256.00 L 0.00 0.00 M 153.29 5.33 C 147.22 6.72 143.24 11.86 139.01 16.01 C 99.02 56.02 58.99 95.99 19.02 136.02 C 16.22 138.90 13.03 141.49 10.91 144.94 C 8.53 148.75 8.42 153.54 9.32 157.82 C 10.86 163.26 15.58 166.79 19.09 170.94 C 28.81 180.88 38.06 191.26 47.82 201.17 C 54.14 208.50 62.34 214.22 71.43 217.55 C 76.70 219.65 82.46 218.88 88.00 219.00 C 94.94 218.84 101.92 219.34 108.85 218.74 C 122.46 215.89 132.83 205.82 142.19 196.18 C 154.51 182.84 167.91 170.57 180.37 157.37 C 195.33 142.67 209.80 127.47 224.73 112.73 C 229.22 107.56 234.97 103.39 238.48 97.44 C 241.96 90.84 240.62 82.01 235.04 76.96 C 213.51 55.17 191.73 33.63 170.30 11.73 C 166.06 7.08 159.73 3.63 153.29 5.33 M 23.87 235.92 C 20.50 237.33 18.05 240.88 18.45 244.58 C 18.91 247.42 20.45 251.30 23.96 250.97 C 96.65 251.04 169.35 250.98 242.05 251.00 C 246.23 251.47 248.72 246.64 248.23 243.01 C 248.13 239.78 245.49 237.65 243.12 235.89 C 241.46 235.51 239.78 235.11 238.08 235.01 C 171.72 235.06 105.36 235.03 39.00 235.03 C 33.96 235.13 28.78 234.38 23.87 235.92 Z" />
<path fill="#4b944a" opacity="1.00" d=" M 55.78 123.78 C 65.68 114.21 74.85 103.88 85.00 94.57 C 88.50 97.53 91.63 100.89 94.90 104.11 C 113.57 122.91 132.39 141.57 151.07 160.36 C 149.32 163.12 146.78 165.21 144.52 167.51 C 136.70 175.37 129.43 183.75 121.52 191.51 C 117.99 195.01 114.32 198.45 110.00 200.94 C 106.41 203.20 102.01 202.48 98.00 202.59 C 91.34 202.38 84.65 202.95 78.01 202.32 C 70.84 200.35 64.93 195.39 59.89 190.11 C 48.43 178.37 37.00 166.59 25.54 154.85 C 26.39 153.32 27.52 151.97 28.81 150.79 C 38.09 142.08 46.56 132.56 55.78 123.78 Z" />
</g>
<g id="#f178ffff">
<path fill="#f178ff" opacity="1.00" d=" M 153.29 5.33 C 159.73 3.63 166.06 7.08 170.30 11.73 C 191.73 33.63 213.51 55.17 235.04 76.96 C 240.62 82.01 241.96 90.84 238.48 97.44 C 234.97 103.39 229.22 107.56 224.73 112.73 C 209.80 127.47 195.33 142.67 180.37 157.37 C 167.91 170.57 154.51 182.84 142.19 196.18 C 132.83 205.82 122.46 215.89 108.85 218.74 C 101.92 219.34 94.94 218.84 88.00 219.00 C 82.46 218.88 76.70 219.65 71.43 217.55 C 62.34 214.22 54.14 208.50 47.82 201.17 C 38.06 191.26 28.81 180.88 19.09 170.94 C 15.58 166.79 10.86 163.26 9.32 157.82 C 8.42 153.54 8.53 148.75 10.91 144.94 C 13.03 141.49 16.22 138.90 19.02 136.02 C 58.99 95.99 99.02 56.02 139.01 16.01 C 143.24 11.86 147.22 6.72 153.29 5.33 M 55.78 123.78 C 46.56 132.56 38.09 142.08 28.81 150.79 C 27.52 151.97 26.39 153.32 25.54 154.85 C 37.00 166.59 48.43 178.37 59.89 190.11 C 64.93 195.39 70.84 200.35 78.01 202.32 C 84.65 202.95 91.34 202.38 98.00 202.59 C 102.01 202.48 106.41 203.20 110.00 200.94 C 114.32 198.45 117.99 195.01 121.52 191.51 C 129.43 183.75 136.70 175.37 144.52 167.51 C 146.78 165.21 149.32 163.12 151.07 160.36 C 132.39 141.57 113.57 122.91 94.90 104.11 C 91.63 100.89 88.50 97.53 85.00 94.57 C 74.85 103.88 65.68 114.21 55.78 123.78 Z" />
</g>
<g id="#586a5aff">
<path fill="#586a5a" opacity="1.00" d=" M 23.87 235.92 C 28.78 234.38 33.96 235.13 39.00 235.03 C 105.36 235.03 171.72 235.06 238.08 235.01 C 239.78 235.11 241.46 235.51 243.12 235.89 C 170.04 236.09 96.96 236.02 23.87 235.92 Z" />
</g>
<g id="#f177ffff">
<path fill="#f177ff" opacity="1.00" d=" M 18.45 244.58 C 18.05 240.88 20.50 237.33 23.87 235.92 C 96.96 236.02 170.04 236.09 243.12 235.89 C 245.49 237.65 248.13 239.78 248.23 243.01 C 248.72 246.64 246.23 251.47 242.05 251.00 C 169.35 250.98 96.65 251.04 23.96 250.97 C 20.45 251.30 18.91 247.42 18.45 244.58 Z" />
</g>
</svg>
