<?xml version="1.0" encoding="UTF-8" ?>
<!DOCTYPE svg PUBLIC "-//W3C//DTD SVG 1.1//EN" "http://www.w3.org/Graphics/SVG/1.1/DTD/svg11.dtd">
<svg width="256pt" height="256pt" viewBox="0 0 256 256" version="1.1" xmlns="http://www.w3.org/2000/svg">
<g id="#ff2962ff">
<path fill="#ff2962" opacity="1.00" d=" M 56.14 29.02 C 68.88 26.46 82.55 27.72 94.57 32.91 C 97.17 34.25 99.79 35.57 102.40 36.91 C 111.03 42.23 118.10 49.61 125.54 56.41 C 126.65 57.17 127.50 58.87 129.09 58.51 C 139.36 49.58 148.59 38.88 161.34 33.37 C 161.38 33.35 161.46 33.31 161.50 33.29 C 166.71 30.95 172.27 29.45 177.88 28.42 C 181.28 28.23 184.68 28.01 188.06 27.54 C 193.48 28.27 199.05 27.96 204.32 29.65 C 222.02 33.78 237.43 46.17 245.63 62.34 C 245.65 62.38 245.69 62.46 245.71 62.50 C 246.97 65.03 248.08 67.62 249.15 70.23 L 248.89 71.23 C 248.59 72.28 248.88 73.18 249.76 73.95 L 249.81 75.14 C 249.72 76.21 250.02 77.15 250.72 77.98 C 251.36 85.64 250.88 93.43 250.93 101.13 C 249.88 101.63 249.54 102.50 249.89 103.74 C 250.30 105.72 249.55 107.66 248.63 109.37 L 248.54 109.56 L 248.48 109.75 C 246.17 116.66 242.22 122.96 237.55 128.51 C 226.57 140.26 214.10 150.48 202.47 161.56 C 192.16 171.15 181.69 180.57 171.33 190.11 C 167.94 192.84 164.67 195.70 161.71 198.90 C 150.83 209.10 139.76 219.10 128.83 229.25 C 126.18 227.62 124.05 225.34 121.75 223.28 C 113.29 215.42 104.67 207.73 96.24 199.84 C 93.67 197.00 90.78 194.50 87.75 192.16 C 73.92 179.43 59.96 166.81 46.13 154.07 C 45.77 153.56 45.07 152.53 44.71 152.01 C 48.98 151.98 53.24 152.14 57.49 152.55 L 57.64 152.57 C 58.63 152.72 59.63 152.86 60.62 153.00 C 65.59 153.88 70.64 154.23 75.68 153.79 C 76.61 153.89 77.54 153.98 78.48 154.08 C 81.86 154.89 85.57 155.89 88.79 153.96 C 90.08 153.31 91.25 152.46 92.36 151.55 C 92.90 150.92 93.42 150.28 93.91 149.61 C 98.58 150.10 97.60 155.75 99.11 158.94 C 99.71 161.30 100.22 163.68 101.00 165.99 C 103.04 173.65 105.05 181.32 107.33 188.90 C 108.34 189.89 109.67 190.48 110.86 191.23 C 111.73 191.26 113.47 191.31 114.34 191.34 C 117.28 189.45 118.55 186.21 119.28 182.94 C 120.02 181.15 120.53 179.22 120.14 177.27 L 120.02 175.98 C 121.23 174.30 121.32 172.20 121.06 170.22 L 121.10 168.84 C 122.03 166.78 122.62 164.55 122.11 162.29 L 121.96 160.95 C 123.09 159.32 123.46 157.30 122.96 155.38 C 122.69 146.07 125.72 136.85 125.65 127.51 C 126.40 126.72 127.20 125.97 128.04 125.27 C 129.01 126.71 130.23 128.13 130.33 129.96 C 131.71 137.56 132.57 145.25 133.98 152.86 C 134.32 154.34 134.34 155.84 134.04 157.34 C 133.64 158.88 133.82 160.57 134.85 161.84 L 135.06 162.18 C 134.50 165.82 135.51 169.83 139.37 171.07 C 139.80 171.38 140.65 172.02 141.08 172.33 C 142.36 174.03 144.67 173.11 145.37 171.37 C 146.21 170.11 147.10 168.87 148.14 167.77 C 149.18 166.95 149.38 165.55 148.99 164.34 C 148.53 160.35 149.53 156.09 150.92 152.36 C 151.74 151.42 152.59 150.50 153.46 149.61 C 162.99 149.14 172.53 149.65 182.05 149.76 C 186.07 149.13 187.64 153.74 191.19 154.54 C 194.21 155.83 197.60 155.95 200.81 155.39 C 204.96 154.03 208.19 150.51 209.50 146.37 C 212.65 137.76 203.76 128.36 195.03 130.17 C 190.93 130.71 188.06 133.90 185.92 137.16 C 172.72 137.35 159.51 137.44 146.32 137.11 L 145.39 136.79 C 145.36 136.78 145.31 136.75 145.29 136.74 C 144.33 135.85 143.48 134.86 142.75 133.78 L 143.10 132.66 C 143.71 131.41 143.10 129.95 142.11 129.10 L 142.20 127.74 C 142.46 126.06 142.02 124.38 141.28 122.88 C 140.83 121.94 140.51 120.96 140.33 119.94 C 138.16 103.57 135.36 87.28 133.25 70.91 C 132.84 69.90 132.51 68.86 132.26 67.80 C 131.26 67.07 130.24 66.37 129.22 65.67 C 127.75 65.68 126.28 65.67 124.81 65.66 C 123.77 66.36 122.74 67.08 121.72 67.81 C 119.30 85.47 117.39 103.21 115.05 120.90 C 114.80 123.60 114.70 126.37 113.65 128.91 C 112.90 130.42 112.55 132.11 112.98 133.77 C 112.92 134.32 112.79 135.43 112.72 135.98 C 111.86 137.78 111.47 139.78 111.94 141.75 C 112.46 143.40 111.65 144.88 110.78 146.22 C 109.70 145.75 108.01 145.66 107.72 144.22 C 106.80 140.81 105.95 137.38 105.13 133.94 C 104.66 132.34 104.27 130.71 103.81 129.11 C 103.27 126.46 102.58 123.84 101.81 121.25 C 101.67 120.13 101.39 119.06 100.99 118.02 C 100.44 116.08 100.25 113.82 98.48 112.53 C 96.03 110.12 91.77 110.62 89.63 113.21 C 89.57 113.29 89.46 113.46 89.40 113.54 L 89.05 114.43 C 87.87 117.30 87.42 120.39 86.99 123.44 L 86.69 124.02 C 86.04 124.92 85.77 125.93 85.89 127.04 L 85.70 128.11 C 85.11 129.17 84.37 130.36 84.78 131.63 L 84.99 133.06 C 83.96 133.61 83.61 134.50 83.94 135.75 C 85.00 140.01 79.99 143.02 76.26 142.97 C 66.16 143.40 56.04 143.87 45.95 144.63 C 43.47 144.43 42.69 147.07 41.50 148.70 C 39.39 146.65 37.09 144.83 34.73 143.08 C 23.42 133.41 12.07 122.33 7.92 107.58 C 7.51 104.85 6.86 102.17 6.02 99.55 L 6.00 99.42 C 5.53 92.71 5.43 85.99 6.06 79.29 L 6.26 78.91 C 6.98 77.87 7.54 76.62 7.15 75.34 C 6.69 71.50 9.13 68.07 10.31 64.56 C 10.33 64.51 10.37 64.42 10.39 64.38 C 17.40 49.66 30.12 37.47 45.54 31.93 C 49.13 31.20 52.76 30.52 56.14 29.02 Z" />
</g>
<g id="#ab4065ca">
<path fill="#ab4065" opacity="0.79" d=" M 45.54 31.93 C 48.88 30.43 52.45 29.22 56.14 29.02 C 52.76 30.52 49.13 31.20 45.54 31.93 Z" />
</g>
<g id="#4b283766">
<path fill="#4b2837" opacity="0.40" d=" M 94.57 32.91 C 97.45 33.63 100.11 35.03 102.40 36.91 C 99.79 35.57 97.17 34.25 94.57 32.91 Z" />
</g>
<g id="#a25b7bc3">
<path fill="#a25b7b" opacity="0.76" d=" M 161.34 33.37 C 161.38 33.35 161.46 33.31 161.50 33.29 C 161.46 33.31 161.38 33.35 161.34 33.37 Z" />
</g>
<g id="#974f6cb5">
<path fill="#974f6c" opacity="0.71" d=" M 245.63 62.34 C 245.65 62.38 245.69 62.46 245.71 62.50 C 245.69 62.46 245.65 62.38 245.63 62.34 Z" />
</g>
<g id="#8d4a66a9">
<path fill="#8d4a66" opacity="0.66" d=" M 10.31 64.56 C 10.33 64.51 10.37 64.42 10.39 64.38 C 10.37 64.42 10.33 64.51 10.31 64.56 Z" />
</g>
<g id="#b8547ad1">
<path fill="#b8547a" opacity="0.82" d=" M 248.89 71.23 C 250.44 71.56 250.73 72.47 249.76 73.95 C 248.88 73.18 248.59 72.28 248.89 71.23 Z" />
</g>
<g id="#c3527bd9">
<path fill="#c3527b" opacity="0.85" d=" M 6.26 78.91 C 5.24 78.03 5.44 74.99 7.15 75.34 C 7.54 76.62 6.98 77.87 6.26 78.91 Z" />
</g>
<g id="#c95a84e1">
<path fill="#c95a84" opacity="0.88" d=" M 249.81 75.14 C 251.45 75.48 251.75 76.43 250.72 77.98 C 250.02 77.15 249.72 76.21 249.81 75.14 Z" />
</g>
<g id="#d65381e8">
<path fill="#d65381" opacity="0.91" d=" M 4.99 88.98 C 5.15 85.75 4.36 82.25 6.06 79.29 C 5.43 85.99 5.53 92.71 6.00 99.42 C 4.34 96.18 5.18 92.46 4.99 88.98 Z" />
</g>
<g id="#c34c76d7">
<path fill="#c34c76" opacity="0.84" d=" M 6.02 99.55 C 6.86 102.17 7.51 104.85 7.92 107.58 C 6.76 105.06 5.92 102.35 6.02 99.55 Z" />
</g>
<g id="#bb5980d5">
<path fill="#bb5980" opacity="0.84" d=" M 249.89 103.74 C 249.54 102.50 249.88 101.63 250.93 101.13 C 251.70 102.59 251.35 103.46 249.89 103.74 Z" />
</g>
<g id="#a55b7bc7">
<path fill="#a55b7b" opacity="0.78" d=" M 248.54 109.56 L 248.63 109.37 C 248.59 109.47 248.52 109.66 248.48 109.75 L 248.54 109.56 Z" />
</g>
<g id="#824f68b3">
<path fill="#824f68" opacity="0.70" d=" M 89.40 113.54 C 89.46 113.46 89.57 113.29 89.63 113.21 C 89.57 113.29 89.46 113.46 89.40 113.54 Z" />
</g>
<g id="#a6476ac4">
<path fill="#a6476a" opacity="0.77" d=" M 86.99 123.44 C 87.42 120.39 87.87 117.30 89.05 114.43 C 88.67 117.48 88.34 120.64 86.99 123.44 Z" />
</g>
<g id="#b3577cd0">
<path fill="#b3577c" opacity="0.82" d=" M 141.28 122.88 C 142.02 124.38 142.46 126.06 142.20 127.74 C 140.27 127.63 140.52 124.17 141.28 122.88 Z" />
</g>
<g id="#c05d84dc">
<path fill="#c05d84" opacity="0.86" d=" M 85.89 127.04 C 85.77 125.93 86.04 124.92 86.69 124.02 C 87.76 125.49 87.49 126.49 85.89 127.04 Z" />
</g>
<g id="#b55278cd">
<path fill="#b55278" opacity="0.80" d=" M 84.78 131.63 C 84.37 130.36 85.11 129.17 85.70 128.11 C 86.83 128.96 86.51 131.99 84.78 131.63 Z" />
</g>
<g id="#ba5e84d7">
<path fill="#ba5e84" opacity="0.84" d=" M 112.98 133.77 C 112.55 132.11 112.90 130.42 113.65 128.91 C 114.49 130.13 114.76 133.54 112.98 133.77 Z" />
</g>
<g id="#c5527cd9">
<path fill="#c5527c" opacity="0.85" d=" M 142.11 129.10 C 143.10 129.95 143.71 131.41 143.10 132.66 C 141.51 132.81 141.39 130.07 142.11 129.10 Z" />
</g>
<g id="#783a529d">
<path fill="#783a52" opacity="0.62" d=" M 185.92 137.16 C 188.06 133.90 190.93 130.71 195.03 130.17 C 203.76 128.36 212.65 137.76 209.50 146.37 C 209.38 143.57 209.75 140.56 208.30 138.01 C 205.80 132.37 198.65 128.72 192.81 131.52 C 189.50 132.41 187.85 135.58 185.94 138.11 C 174.27 138.07 162.61 138.06 150.94 138.11 C 149.40 137.96 147.45 138.52 146.32 137.11 C 159.51 137.44 172.72 137.35 185.92 137.16 Z" />
</g>
<g id="#bf5b83da">
<path fill="#bf5b83" opacity="0.85" d=" M 83.94 135.75 C 83.61 134.50 83.96 133.61 84.99 133.06 C 85.73 134.54 85.38 135.44 83.94 135.75 Z" />
</g>
<g id="#c05981da">
<path fill="#c05981" opacity="0.85" d=" M 111.94 141.75 C 111.47 139.78 111.86 137.78 112.72 135.98 C 113.48 137.74 113.54 140.27 112.33 141.84 L 111.94 141.75 Z" />
</g>
<g id="#b15578cf">
<path fill="#b15578" opacity="0.81" d=" M 145.29 136.74 C 145.31 136.75 145.36 136.78 145.39 136.79 C 145.36 136.78 145.31 136.75 145.29 136.74 Z" />
</g>
<g id="#993c5cbc">
<path fill="#993c5c" opacity="0.74" d=" M 34.73 143.08 C 37.09 144.83 39.39 146.65 41.50 148.70 C 42.69 147.07 43.47 144.43 45.95 144.63 C 56.04 143.87 66.16 143.40 76.26 142.97 C 70.44 145.24 64.03 143.01 58.06 144.62 C 53.18 145.96 47.56 143.45 43.19 146.55 C 43.24 147.99 43.30 149.43 43.36 150.87 C 40.12 148.72 37.27 146.02 34.73 143.08 Z" />
</g>
<g id="#13070b43">
<path fill="#13070b" opacity="0.26" d=" M 150.92 152.36 C 151.41 150.04 153.45 148.02 155.93 148.15 C 164.28 147.97 172.64 148.18 181.00 148.07 C 182.73 148.14 184.64 147.85 186.18 148.88 C 176.44 149.15 166.70 148.92 156.96 148.98 C 155.76 149.01 154.60 149.22 153.46 149.61 C 152.59 150.50 151.74 151.42 150.92 152.36 Z" />
</g>
<g id="#d84272e6">
<path fill="#d84272" opacity="0.90" d=" M 153.46 149.61 C 154.60 149.22 155.76 149.01 156.96 148.98 C 166.70 148.92 176.44 149.15 186.18 148.88 C 187.16 151.28 189.42 152.75 191.19 154.54 C 187.64 153.74 186.07 149.13 182.05 149.76 C 172.53 149.65 162.99 149.14 153.46 149.61 Z" />
</g>
<g id="#27131b59">
<path fill="#27131b" opacity="0.35" d=" M 43.57 151.99 C 47.41 150.23 51.81 151.20 55.85 151.56 C 56.26 151.81 57.08 152.30 57.49 152.55 C 53.24 152.14 48.98 151.98 44.71 152.01 C 45.07 152.53 45.77 153.56 46.13 154.07 C 44.98 153.75 44.13 153.05 43.57 151.99 Z" />
</g>
<g id="#2c111b65">
<path fill="#2c111b" opacity="0.40" d=" M 57.64 152.57 C 69.13 150.27 81.12 155.62 92.36 151.55 C 91.25 152.46 90.08 153.31 88.79 153.96 C 85.35 154.02 81.91 154.01 78.48 154.08 C 77.54 153.98 76.61 153.89 75.68 153.79 C 70.73 152.70 65.65 153.04 60.62 153.00 C 59.63 152.86 58.63 152.72 57.64 152.57 Z" />
</g>
<g id="#d54976e7">
<path fill="#d54976" opacity="0.91" d=" M 60.62 153.00 C 65.65 153.04 70.73 152.70 75.68 153.79 C 70.64 154.23 65.59 153.88 60.62 153.00 Z" />
</g>
<g id="#f3457bfd">
<path fill="#f3457b" opacity="1.00" d=" M 78.48 154.08 C 81.91 154.01 85.35 154.02 88.79 153.96 C 85.57 155.89 81.86 154.89 78.48 154.08 Z" />
</g>
<g id="#c94e79de">
<path fill="#c94e79" opacity="0.87" d=" M 121.96 160.95 C 121.62 159.38 121.00 155.76 122.96 155.38 C 123.46 157.30 123.09 159.32 121.96 160.95 Z" />
</g>
<g id="#ce517ce3">
<path fill="#ce517c" opacity="0.89" d=" M 134.04 157.34 C 135.85 157.35 135.62 160.69 134.85 161.84 C 133.82 160.57 133.64 158.88 134.04 157.34 Z" />
</g>
<g id="#c14a73d7">
<path fill="#c14a73" opacity="0.84" d=" M 121.10 168.84 C 120.52 166.94 120.14 163.26 122.11 162.29 C 122.62 164.55 122.03 166.78 121.10 168.84 Z" />
</g>
<g id="#cf4a76e3">
<path fill="#cf4a76" opacity="0.89" d=" M 135.06 162.18 C 135.90 163.89 136.12 165.78 136.21 167.66 C 137.28 168.77 138.35 169.89 139.37 171.07 C 135.51 169.83 134.50 165.82 135.06 162.18 Z" />
</g>
<g id="#c1547cdb">
<path fill="#c1547c" opacity="0.86" d=" M 148.14 167.77 C 147.17 166.93 147.36 164.00 148.99 164.34 C 149.38 165.55 149.18 166.95 148.14 167.77 Z" />
</g>
<g id="#c9527cdf">
<path fill="#c9527c" opacity="0.87" d=" M 120.02 175.98 C 119.64 174.33 119.11 170.75 121.06 170.22 C 121.32 172.20 121.23 174.30 120.02 175.98 Z" />
</g>
<g id="#db4777e7">
<path fill="#db4777" opacity="0.91" d=" M 141.08 172.33 C 142.28 171.53 143.95 171.26 145.37 171.37 C 144.67 173.11 142.36 174.03 141.08 172.33 Z" />
</g>
<g id="#b75076cf">
<path fill="#b75076" opacity="0.81" d=" M 119.28 182.94 C 118.40 181.42 118.24 177.83 120.14 177.27 C 120.53 179.22 120.02 181.15 119.28 182.94 Z" />
</g>
<g id="#913452a4">
<path fill="#913452" opacity="0.64" d=" M 161.71 198.90 C 164.67 195.70 167.94 192.84 171.33 190.11 C 168.47 193.39 165.19 196.29 161.71 198.90 Z" />
</g>
<g id="#85314c96">
<path fill="#85314c" opacity="0.59" d=" M 87.75 192.16 C 90.78 194.50 93.67 197.00 96.24 199.84 C 93.16 197.58 90.23 195.08 87.75 192.16 Z" />
</g>
</svg>
