<?xml version="1.0" encoding="UTF-8" ?>
<!DOCTYPE svg PUBLIC "-//W3C//DTD SVG 1.1//EN" "http://www.w3.org/Graphics/SVG/1.1/DTD/svg11.dtd">
<svg width="256pt" height="256pt" viewBox="0 0 256 256" version="1.1" xmlns="http://www.w3.org/2000/svg">
<g id="#fefefeff">
<path fill="#fefefe" opacity="1.00" d=" M 0.00 0.00 L 256.00 0.00 L 256.00 256.00 L 0.00 256.00 L 0.00 0.00 M 47.39 31.39 C 33.57 36.00 21.65 45.70 14.02 58.08 C 5.39 71.78 2.80 89.09 7.11 104.71 C 10.68 117.75 18.87 129.18 29.12 137.86 C 33.46 141.43 37.10 145.79 41.68 149.07 C 42.94 147.15 44.25 144.68 46.94 144.89 C 55.89 144.53 64.80 143.69 73.74 143.38 C 77.80 143.11 83.04 141.72 84.03 137.14 C 85.77 129.80 87.11 122.38 88.92 115.06 C 89.39 109.72 98.60 109.60 99.77 114.48 C 102.77 124.85 105.10 135.42 108.31 145.73 C 109.35 145.66 110.38 145.57 111.42 145.49 C 112.64 140.41 113.05 135.19 113.73 130.02 C 116.15 111.08 118.65 92.15 120.98 73.20 C 121.39 71.06 121.42 68.68 122.80 66.88 C 125.25 65.34 128.74 65.20 131.12 66.93 C 132.67 68.53 132.91 70.87 133.36 72.94 C 136.30 91.94 139.14 110.96 142.12 129.95 C 142.56 133.49 144.72 137.91 148.96 137.44 C 161.28 137.46 173.60 137.58 185.92 137.35 C 187.71 135.09 189.57 132.74 192.12 131.28 C 199.20 127.98 208.86 132.91 209.48 140.94 C 210.46 146.58 207.09 152.32 202.23 155.03 C 199.34 155.89 196.21 155.63 193.24 155.39 C 189.61 154.55 187.61 151.12 184.88 148.92 C 177.61 148.36 170.30 148.90 163.02 148.67 C 159.27 148.75 154.84 148.02 151.89 150.90 C 147.88 156.62 150.57 164.75 146.33 170.27 C 142.69 174.74 136.11 170.35 135.67 165.61 C 133.84 153.73 132.14 141.83 130.31 129.95 C 130.23 127.79 128.57 126.49 126.88 125.47 C 126.13 127.86 125.60 130.32 125.41 132.82 C 123.29 150.19 120.96 167.54 118.79 184.90 C 118.60 187.78 116.50 190.22 113.90 191.29 C 111.32 191.85 109.06 190.22 106.87 189.16 C 104.28 177.54 100.76 166.15 97.76 154.64 C 97.12 152.98 96.78 149.68 94.26 150.31 C 92.19 151.45 90.47 153.65 87.91 153.54 C 83.08 153.64 78.25 153.60 73.42 153.40 C 64.32 152.18 55.08 152.43 45.91 152.45 C 50.61 159.22 57.56 163.92 63.35 169.67 C 84.29 188.72 105.15 207.88 126.06 226.97 C 127.03 227.72 128.48 229.54 129.70 228.06 C 159.79 200.72 189.59 173.02 219.64 145.65 C 224.00 141.33 228.86 137.53 233.12 133.10 C 240.56 125.71 246.39 116.60 249.53 106.57 C 252.02 99.29 250.65 91.51 251.02 83.99 C 251.32 78.74 250.29 73.53 248.28 68.69 C 241.64 51.15 226.82 36.88 208.95 31.13 C 191.71 25.26 172.04 27.12 156.23 36.17 C 148.05 40.69 141.63 47.59 134.58 53.58 C 132.44 55.24 130.95 58.23 128.16 58.75 C 124.23 56.13 121.52 52.12 117.88 49.14 C 111.78 44.16 105.96 38.66 98.85 35.12 C 83.18 26.86 64.08 25.45 47.39 31.39 Z" />
</g>
<g id="#ff2962ff">
<path fill="#ff2962" opacity="1.00" d=" M 47.39 31.39 C 64.08 25.45 83.18 26.86 98.85 35.12 C 105.96 38.66 111.78 44.16 117.88 49.14 C 121.52 52.12 124.23 56.13 128.16 58.75 C 130.95 58.23 132.44 55.24 134.58 53.58 C 141.63 47.59 148.05 40.69 156.23 36.17 C 172.04 27.12 191.71 25.26 208.95 31.13 C 226.82 36.88 241.64 51.15 248.28 68.69 C 250.29 73.53 251.32 78.74 251.02 83.99 C 250.65 91.51 252.02 99.29 249.53 106.57 C 246.39 116.60 240.56 125.71 233.12 133.10 C 228.86 137.53 224.00 141.33 219.64 145.65 C 189.59 173.02 159.79 200.72 129.70 228.06 C 128.48 229.54 127.03 227.72 126.06 226.97 C 105.15 207.88 84.29 188.72 63.35 169.67 C 57.56 163.92 50.61 159.22 45.91 152.45 C 55.08 152.43 64.32 152.18 73.42 153.40 C 78.25 153.60 83.08 153.64 87.91 153.54 C 90.47 153.65 92.19 151.45 94.26 150.31 C 96.78 149.68 97.12 152.98 97.76 154.64 C 100.76 166.15 104.28 177.54 106.87 189.16 C 109.06 190.22 111.32 191.85 113.90 191.29 C 116.50 190.22 118.60 187.78 118.79 184.90 C 120.96 167.54 123.29 150.19 125.41 132.82 C 125.60 130.32 126.13 127.86 126.88 125.47 C 128.57 126.49 130.23 127.79 130.31 129.95 C 132.14 141.83 133.84 153.73 135.67 165.61 C 136.11 170.35 142.69 174.74 146.33 170.27 C 150.57 164.75 147.88 156.62 151.89 150.90 C 154.84 148.02 159.27 148.75 163.02 148.67 C 170.30 148.90 177.61 148.36 184.88 148.92 C 187.61 151.12 189.61 154.55 193.24 155.39 C 196.21 155.63 199.34 155.89 202.23 155.03 C 207.09 152.32 210.46 146.58 209.48 140.94 C 208.86 132.91 199.20 127.98 192.12 131.28 C 189.57 132.74 187.71 135.09 185.92 137.35 C 173.60 137.58 161.28 137.46 148.96 137.44 C 144.72 137.91 142.56 133.49 142.12 129.95 C 139.14 110.96 136.30 91.94 133.36 72.94 C 132.91 70.87 132.67 68.53 131.12 66.93 C 128.74 65.20 125.25 65.34 122.80 66.88 C 121.42 68.68 121.39 71.06 120.98 73.20 C 118.65 92.15 116.15 111.08 113.73 130.02 C 113.05 135.19 112.64 140.41 111.42 145.49 C 110.38 145.57 109.35 145.66 108.31 145.73 C 105.10 135.42 102.77 124.85 99.77 114.48 C 98.60 109.60 89.39 109.72 88.92 115.06 C 87.11 122.38 85.77 129.80 84.03 137.14 C 83.04 141.72 77.80 143.11 73.74 143.38 C 64.80 143.69 55.89 144.53 46.94 144.89 C 44.25 144.68 42.94 147.15 41.68 149.07 C 37.10 145.79 33.46 141.43 29.12 137.86 C 18.87 129.18 10.68 117.75 7.11 104.71 C 2.80 89.09 5.39 71.78 14.02 58.08 C 21.65 45.70 33.57 36.00 47.39 31.39 Z" />
</g>
</svg>
