<?xml version="1.0" encoding="UTF-8" ?>
<!DOCTYPE svg PUBLIC "-//W3C//DTD SVG 1.1//EN" "http://www.w3.org/Graphics/SVG/1.1/DTD/svg11.dtd">
<svg width="256pt" height="256pt" viewBox="0 0 256 256" version="1.1" xmlns="http://www.w3.org/2000/svg">
<g id="#9892a2f8">
<path fill="#9892a2" opacity="0.97" d=" M 118.68 5.07 C 125.25 5.23 131.95 4.38 138.44 5.53 C 131.94 6.26 125.39 5.82 118.86 5.91 L 118.68 5.07 Z" />
</g>
<g id="#726b7dff">
<path fill="#726b7d" opacity="1.00" d=" M 138.44 5.53 C 152.30 6.92 165.51 13.02 176.33 21.68 C 191.68 34.29 202.14 53.04 203.71 72.94 C 203.59 110.29 203.69 147.64 203.65 184.99 C 203.63 187.92 203.62 190.85 203.87 193.78 L 203.28 193.68 C 200.88 193.25 198.45 192.98 196.02 192.97 C 148.51 193.22 101.00 192.78 53.50 193.19 C 53.90 156.47 53.50 119.73 53.70 83.01 C 54.34 77.36 53.83 71.63 55.06 66.05 C 59.70 40.38 78.75 18.01 103.33 9.29 C 108.37 7.67 113.47 5.64 118.86 5.91 C 125.39 5.82 131.94 6.26 138.44 5.53 M 84.96 91.96 C 85.00 104.31 85.06 116.67 84.95 129.02 C 84.88 130.62 85.14 132.21 85.80 133.67 L 85.89 132.43 C 88.59 132.55 91.31 132.54 94.02 132.37 L 94.10 133.59 C 95.68 127.61 94.01 121.27 94.88 115.15 C 96.37 114.93 97.87 114.71 99.37 114.50 C 103.02 114.99 105.03 118.33 106.91 121.10 C 109.39 124.97 112.15 128.64 114.63 132.50 C 117.79 132.53 120.96 132.57 124.13 132.56 C 120.75 125.34 116.27 118.36 109.85 113.47 C 113.15 112.66 116.68 111.66 118.91 108.90 C 123.86 103.31 121.56 93.13 114.46 90.53 C 105.15 87.82 95.38 89.48 85.86 88.67 C 85.19 89.66 84.89 90.76 84.96 91.96 M 129.09 89.03 C 128.92 103.67 128.99 118.31 129.06 132.95 L 130.19 133.11 L 130.21 132.23 C 132.88 132.59 135.58 132.57 138.27 132.46 C 138.35 117.95 138.33 103.43 138.28 88.91 C 135.61 88.93 132.94 88.93 130.27 88.95 L 129.09 89.03 M 147.81 88.93 C 147.77 103.44 147.77 117.95 147.82 132.47 C 150.48 132.56 153.16 132.60 155.82 132.24 C 155.57 126.89 155.61 121.54 155.83 116.19 L 157.13 116.13 L 156.33 116.89 C 160.90 116.77 165.91 118.04 170.19 116.01 C 174.13 114.88 177.94 112.56 179.70 108.70 C 182.31 102.30 180.62 93.12 173.47 90.51 C 165.12 88.31 156.37 88.99 147.81 88.93 Z" />
<path fill="#726b7d" opacity="1.00" d=" M 94.81 96.84 C 99.30 96.78 103.79 96.53 108.28 96.61 C 114.50 96.63 114.38 107.23 108.30 107.31 C 103.80 107.09 99.30 106.82 94.79 106.83 C 94.69 103.50 94.70 100.17 94.81 96.84 Z" />
<path fill="#726b7d" opacity="1.00" d=" M 156.84 96.88 C 159.97 96.80 163.11 96.65 166.25 96.55 C 169.62 96.39 172.68 99.61 172.13 103.00 C 172.22 105.20 170.91 108.04 168.42 108.10 C 164.56 107.86 160.69 107.68 156.82 107.72 C 156.63 104.11 156.64 100.49 156.84 96.88 Z" />
<path fill="#726b7d" opacity="1.00" d=" M 33.30 191.35 C 36.99 187.14 40.17 182.48 44.28 178.66 C 44.52 184.08 44.64 189.54 44.32 194.96 C 42.06 198.89 38.62 202.02 36.66 206.14 C 83.10 206.45 129.55 206.19 176.00 206.28 C 190.81 206.22 205.63 206.40 220.44 206.18 C 218.62 201.93 215.03 198.85 212.71 194.92 C 212.18 189.49 212.43 184.00 212.68 178.55 C 219.62 185.25 225.13 193.28 231.45 200.55 C 233.30 203.15 236.46 205.40 236.21 208.93 C 236.16 222.92 236.29 236.91 236.13 250.90 C 186.76 251.14 137.38 250.93 88.01 251.00 C 65.96 251.14 43.89 250.72 21.85 251.21 C 22.01 236.04 22.09 220.85 21.77 205.69 C 25.35 200.70 29.48 196.15 33.30 191.35 Z" />
</g>
<g id="#a19ca9f3">
<path fill="#a19ca9" opacity="0.95" d=" M 84.96 91.96 C 84.89 90.76 85.19 89.66 85.86 88.67 C 86.12 103.25 86.07 117.85 85.89 132.43 L 85.80 133.67 C 85.14 132.21 84.88 130.62 84.95 129.02 C 85.06 116.67 85.00 104.31 84.96 91.96 Z" />
</g>
<g id="#8f8999f9">
<path fill="#8f8999" opacity="0.98" d=" M 129.09 89.03 L 130.27 88.95 C 130.27 103.38 130.39 117.80 130.21 132.23 L 130.19 133.11 L 129.06 132.95 C 128.99 118.31 128.92 103.67 129.09 89.03 Z" />
</g>
<g id="#7e7984c9">
<path fill="#7e7984" opacity="0.79" d=" M 94.12 96.06 C 98.83 95.86 103.69 95.20 108.28 96.61 C 103.79 96.53 99.30 96.78 94.81 96.84 C 94.70 100.17 94.69 103.50 94.79 106.83 C 99.30 106.82 103.80 107.09 108.30 107.31 C 103.75 108.93 98.81 107.97 94.08 107.96 C 93.77 104.00 93.77 100.02 94.12 96.06 Z" />
</g>
<g id="#827d8ade">
<path fill="#827d8a" opacity="0.87" d=" M 155.84 95.99 C 159.31 95.90 162.90 95.34 166.25 96.55 C 163.11 96.65 159.97 96.80 156.84 96.88 C 156.64 100.49 156.63 104.11 156.82 107.72 C 160.69 107.68 164.56 107.86 168.42 108.10 C 164.77 110.35 159.89 108.59 155.75 109.08 C 155.65 104.72 155.59 100.35 155.84 95.99 Z" />
</g>
<g id="#7d7983c5">
<path fill="#7d7983" opacity="0.77" d=" M 94.11 113.88 C 95.87 114.04 97.63 114.20 99.37 114.50 C 97.87 114.71 96.37 114.93 94.88 115.15 C 94.01 121.27 95.68 127.61 94.10 133.59 L 94.02 132.37 C 93.71 126.21 93.79 120.04 94.11 113.88 Z" />
</g>
<g id="#9f99a7f6">
<path fill="#9f99a7" opacity="0.96" d=" M 157.13 116.13 C 161.48 115.85 165.84 116.04 170.19 116.01 C 165.91 118.04 160.90 116.77 156.33 116.89 L 157.13 116.13 Z" />
</g>
<g id="#96919de1">
<path fill="#96919d" opacity="0.88" d=" M 53.50 193.19 C 101.00 192.78 148.51 193.22 196.02 192.97 C 198.45 192.98 200.88 193.25 203.28 193.68 C 199.21 194.25 195.09 193.99 191.00 194.02 C 147.67 194.04 104.33 193.99 61.00 194.04 C 58.49 193.94 55.79 194.47 53.50 193.19 Z" />
</g>
<g id="#837d8cf0">
<path fill="#837d8c" opacity="0.94" d=" M 20.69 207.20 C 20.96 206.82 21.50 206.06 21.77 205.69 C 22.09 220.85 22.01 236.04 21.85 251.21 L 20.86 250.70 C 20.27 247.84 20.63 244.89 20.55 242.00 C 20.68 230.40 20.34 218.79 20.69 207.20 Z" />
</g>
</svg>
