<?xml version="1.0" encoding="UTF-8" ?>
<!DOCTYPE svg PUBLIC "-//W3C//DTD SVG 1.1//EN" "http://www.w3.org/Graphics/SVG/1.1/DTD/svg11.dtd">
<svg width="256pt" height="256pt" viewBox="0 0 256 256" version="1.1" xmlns="http://www.w3.org/2000/svg">
<g id="#472eaece">
<path fill="#472eae" opacity="0.81" d=" M 181.13 23.31 C 189.29 20.41 198.44 21.04 206.89 22.60 C 207.22 22.78 207.87 23.15 208.20 23.33 C 204.78 23.15 201.39 22.68 198.00 22.28 C 192.34 21.59 186.76 23.13 181.13 23.31 Z" />
</g>
<g id="#441effff">
<path fill="#441eff" opacity="1.00" d=" M 164.40 30.45 C 169.11 26.65 175.23 24.50 181.13 23.31 C 186.76 23.13 192.34 21.59 198.00 22.28 C 201.39 22.68 204.78 23.15 208.20 23.33 C 224.99 26.72 239.23 39.04 246.62 54.31 C 246.64 54.35 246.68 54.44 246.70 54.49 C 247.26 55.60 247.72 56.75 248.06 57.94 C 248.76 61.25 249.82 64.47 250.95 67.65 C 251.07 75.47 251.00 83.30 250.96 91.12 C 249.90 91.57 249.52 92.40 249.82 93.62 L 249.89 94.98 C 249.66 95.45 249.21 96.39 248.98 96.86 L 248.98 98.05 C 248.72 98.48 248.20 99.35 247.94 99.79 C 247.98 101.95 246.51 103.75 245.67 105.65 C 239.24 118.18 228.02 128.07 214.79 132.90 C 209.33 134.81 203.61 136.60 197.75 136.13 C 195.60 135.91 193.43 135.89 191.28 136.10 C 175.99 136.12 161.19 128.17 151.21 116.80 L 151.15 116.09 C 151.31 114.45 149.90 113.43 148.58 112.85 C 148.04 112.30 146.96 111.19 146.42 110.64 C 146.40 110.60 146.38 110.53 146.36 110.49 L 146.10 109.18 C 146.00 108.07 145.46 107.23 144.48 106.66 C 143.14 105.43 142.32 103.61 142.07 101.82 C 141.85 101.34 141.42 100.38 141.21 99.90 L 140.36 98.54 C 140.32 98.47 140.24 98.33 140.19 98.26 L 140.25 96.64 C 140.49 95.44 140.08 94.59 139.05 94.08 L 139.22 92.77 C 139.62 91.16 138.95 89.60 138.28 88.18 L 138.25 88.10 C 137.28 80.28 137.92 72.40 139.06 64.65 L 139.31 64.03 C 139.47 63.53 139.79 62.52 139.95 62.01 L 140.05 60.89 C 140.30 60.45 140.80 59.57 141.05 59.13 L 141.01 58.43 C 142.65 55.11 144.40 51.83 146.00 48.48 C 149.37 42.90 153.88 38.03 158.92 33.90 C 159.83 33.19 160.74 32.37 161.92 32.17 C 163.01 32.00 163.84 31.43 164.40 30.45 M 164.03 53.04 C 162.19 52.40 159.81 55.23 160.95 56.91 C 150.86 71.06 152.13 92.26 163.90 105.07 C 162.66 106.88 165.32 109.82 167.19 108.53 C 169.13 110.35 171.22 112.04 173.48 113.46 C 173.52 113.48 173.61 113.53 173.65 113.56 C 174.66 114.11 175.70 114.59 176.78 115.01 C 176.05 116.70 178.99 118.01 180.10 116.77 L 181.39 117.39 C 181.46 117.41 181.60 117.46 181.67 117.48 L 183.29 117.80 C 183.60 119.52 184.51 119.84 186.02 118.73 L 187.35 118.81 C 187.66 120.89 191.56 120.83 192.90 119.54 C 194.84 120.05 196.87 119.70 198.80 119.32 C 200.19 120.67 201.17 120.52 201.74 118.87 L 203.03 118.79 C 204.54 119.84 205.42 119.51 205.69 117.81 C 206.71 117.79 207.68 117.54 208.60 117.08 C 211.54 116.52 214.12 114.89 216.42 113.04 C 218.00 112.11 219.39 110.89 220.73 109.65 C 222.26 111.01 225.10 108.54 223.81 106.88 C 229.31 101.11 233.32 93.77 234.60 85.86 C 234.94 82.58 234.75 79.27 234.79 75.98 C 234.96 69.81 232.51 63.94 229.47 58.70 C 229.45 58.66 229.40 58.57 229.37 58.53 C 228.03 56.21 226.41 54.05 224.49 52.18 C 225.78 50.38 222.94 47.57 221.14 48.85 C 216.48 44.41 210.47 41.34 204.22 39.86 C 189.82 35.96 173.31 41.42 164.03 53.04 M 153.41 85.05 C 153.80 81.35 153.84 77.62 153.50 73.92 C 152.62 77.58 152.68 81.37 153.41 85.05 Z" />
<path fill="#441eff" opacity="1.00" d=" M 139.16 168.92 C 139.84 168.94 141.22 168.97 141.90 168.99 L 143.09 169.15 C 143.57 169.37 144.52 169.81 145.00 170.03 L 146.11 170.04 C 146.53 170.31 147.39 170.86 147.82 171.14 L 148.62 171.10 C 149.33 172.69 151.15 172.99 152.70 173.12 C 155.28 173.49 157.49 175.01 159.77 176.18 C 173.04 183.23 184.86 193.53 192.39 206.64 C 193.39 208.44 194.81 210.18 194.88 212.33 C 194.88 213.93 195.38 215.75 197.05 216.35 L 196.95 217.05 C 197.15 217.54 197.54 218.52 197.74 219.01 L 197.95 219.31 C 198.73 223.68 199.73 227.99 200.78 232.30 L 200.87 232.72 C 200.99 233.30 201.23 234.44 201.36 235.02 C 136.17 234.98 70.97 235.19 5.79 234.91 C 5.83 234.50 5.93 233.68 5.97 233.27 L 6.04 231.89 C 6.31 231.44 6.84 230.55 7.11 230.11 L 7.22 229.24 C 8.42 228.17 9.43 226.76 9.11 225.07 L 9.09 224.17 C 10.61 223.50 11.25 221.88 11.17 220.32 C 11.27 218.45 12.09 216.57 13.47 215.30 C 15.22 214.21 16.13 212.37 16.29 210.35 C 18.84 204.05 23.43 198.69 27.79 193.52 C 30.15 191.41 32.37 189.15 34.52 186.82 C 40.10 182.02 46.29 177.77 53.15 175.04 L 54.21 175.03 C 54.64 174.77 55.51 174.24 55.95 173.98 L 57.13 174.03 C 57.59 173.80 58.52 173.33 58.98 173.10 L 59.46 172.92 C 62.61 172.63 65.71 171.98 68.76 171.17 C 69.13 171.16 69.89 171.13 70.26 171.12 C 70.38 172.45 70.51 173.78 70.67 175.11 C 72.13 179.63 72.74 184.37 74.04 188.94 C 74.32 190.31 74.62 191.69 75.02 193.03 C 75.25 194.40 75.45 195.80 75.99 197.10 C 77.06 203.86 79.75 210.43 80.06 217.24 C 79.80 218.29 80.06 219.20 80.86 219.98 L 80.89 221.20 C 80.78 222.25 81.09 223.17 81.81 223.95 L 81.97 225.25 C 82.04 225.64 82.19 226.43 82.26 226.82 L 83.01 226.84 C 86.02 226.63 89.67 227.72 92.30 226.31 C 95.49 218.68 98.27 210.83 101.31 203.11 C 101.86 201.74 101.93 200.03 103.13 199.04 L 103.46 198.71 C 106.63 203.08 107.98 208.55 110.55 213.31 C 110.58 213.39 110.65 213.54 110.69 213.62 C 111.34 214.76 111.71 215.98 111.81 217.28 C 111.64 218.92 112.58 220.28 113.76 221.31 L 114.53 222.31 C 114.56 222.36 114.62 222.48 114.65 222.53 L 115.21 223.96 C 115.55 224.88 115.89 225.81 116.23 226.74 C 118.73 226.74 121.22 226.74 123.72 226.73 C 128.96 209.19 133.62 191.47 138.12 173.72 L 138.36 172.98 C 139.07 172.14 139.36 171.19 139.24 170.13 L 139.16 168.92 Z" />
</g>
<g id="#4b369abb">
<path fill="#4b369a" opacity="0.73" d=" M 161.92 32.17 C 161.89 30.50 162.72 29.93 164.40 30.45 C 163.84 31.43 163.01 32.00 161.92 32.17 Z" />
</g>
<g id="#4b3698b2">
<path fill="#4b3698" opacity="0.70" d=" M 141.01 58.43 C 141.85 54.78 143.77 51.46 146.00 48.48 C 144.40 51.83 142.65 55.11 141.01 58.43 Z" />
</g>
<g id="#4c33b3cd">
<path fill="#4c33b3" opacity="0.80" d=" M 221.14 48.85 C 222.94 47.57 225.78 50.38 224.49 52.18 C 223.32 51.13 222.19 50.03 221.14 48.85 Z" />
</g>
<g id="#48329fb5">
<path fill="#48329f" opacity="0.71" d=" M 160.95 56.91 C 159.81 55.23 162.19 52.40 164.03 53.04 C 163.30 54.55 162.23 55.85 160.95 56.91 Z" />
</g>
<g id="#441fffff">
<path fill="#441fff" opacity="1.00" d=" M 76.56 59.38 C 90.24 52.05 107.29 51.14 121.66 56.99 C 122.27 57.30 123.49 57.92 124.11 58.23 C 122.67 65.42 120.92 72.63 121.17 80.03 C 121.51 94.13 126.01 108.47 135.08 119.42 C 139.25 124.85 144.22 129.59 149.61 133.79 C 148.07 136.10 146.68 138.53 144.92 140.68 C 135.29 152.29 121.09 160.37 105.92 161.41 C 91.64 163.07 77.68 157.21 66.46 148.74 C 64.44 147.25 62.73 145.40 61.03 143.57 L 60.99 142.86 C 61.22 141.19 59.85 139.89 58.27 139.72 L 58.14 139.04 C 58.06 137.81 57.45 137.04 56.33 136.72 L 55.85 136.57 C 52.18 128.80 48.81 120.73 48.18 112.05 C 47.21 99.88 50.47 87.40 57.17 77.19 C 60.82 71.56 66.00 67.20 71.02 62.84 C 72.66 61.57 74.48 60.56 76.28 59.53 C 76.35 59.49 76.49 59.42 76.56 59.38 Z" />
<path fill="#441fff" opacity="1.00" d=" M 177.11 55.14 C 181.59 54.25 184.35 58.12 187.56 60.44 C 191.34 63.55 195.28 66.46 198.95 69.70 C 201.26 71.93 203.53 74.19 205.94 76.33 C 205.91 85.56 206.29 94.80 206.04 104.03 C 206.18 105.99 205.19 108.27 202.96 108.37 C 200.73 108.87 199.36 106.86 198.20 105.35 C 198.91 103.29 198.92 101.11 198.54 98.99 C 198.77 95.44 199.57 91.64 198.28 88.22 L 198.11 87.84 C 197.91 85.11 197.98 82.38 197.96 79.65 C 197.89 78.51 197.21 77.91 195.92 77.84 C 189.15 73.63 183.26 67.92 176.82 63.14 C 173.92 61.26 174.24 56.88 177.11 55.14 Z" />
<path fill="#441fff" opacity="1.00" d=" M 153.41 85.05 C 152.68 81.37 152.62 77.58 153.50 73.92 C 153.84 77.62 153.80 81.35 153.41 85.05 Z" />
</g>
<g id="#604c9fbf">
<path fill="#604c9f" opacity="0.75" d=" M 246.62 54.31 C 246.64 54.35 246.68 54.44 246.70 54.49 C 246.68 54.44 246.64 54.35 246.62 54.31 Z" />
</g>
<g id="#32236d97">
<path fill="#32236d" opacity="0.59" d=" M 121.66 56.99 C 123.07 57.36 125.84 57.81 124.86 60.01 C 123.45 64.90 122.75 69.94 122.02 74.97 C 121.12 90.75 126.39 106.37 135.08 119.42 C 126.01 108.47 121.51 94.13 121.17 80.03 C 120.92 72.63 122.67 65.42 124.11 58.23 C 123.49 57.92 122.27 57.30 121.66 56.99 Z" />
</g>
<g id="#5f4c9dbd">
<path fill="#5f4c9d" opacity="0.74" d=" M 229.37 58.53 C 229.40 58.57 229.45 58.66 229.47 58.70 C 229.45 58.66 229.40 58.57 229.37 58.53 Z" />
</g>
<g id="#5a41b8cb">
<path fill="#5a41b8" opacity="0.80" d=" M 248.06 57.94 C 249.67 60.93 250.66 64.27 250.95 67.65 C 249.82 64.47 248.76 61.25 248.06 57.94 Z" />
</g>
<g id="#5c4c88a9">
<path fill="#5c4c88" opacity="0.66" d=" M 76.28 59.53 C 76.35 59.49 76.49 59.42 76.56 59.38 C 76.49 59.42 76.35 59.49 76.28 59.53 Z" />
</g>
<g id="#624d9ec5">
<path fill="#624d9e" opacity="0.77" d=" M 140.20 59.16 L 141.05 59.13 C 140.80 59.57 140.30 60.45 140.05 60.89 C 140.09 60.46 140.16 59.60 140.20 59.16 Z" />
</g>
<g id="#624d9dca">
<path fill="#624d9d" opacity="0.79" d=" M 139.07 62.26 L 139.95 62.01 C 139.79 62.52 139.47 63.53 139.31 64.03 L 138.74 63.30 L 139.07 62.26 Z" />
</g>
<g id="#39287ea4">
<path fill="#39287e" opacity="0.64" d=" M 47.45 101.90 C 49.07 86.35 57.62 71.16 71.02 62.84 C 66.00 67.20 60.82 71.56 57.17 77.19 C 50.47 87.40 47.21 99.88 48.18 112.05 C 48.81 120.73 52.18 128.80 55.85 136.57 C 48.71 126.68 46.42 113.89 47.45 101.90 Z" />
</g>
<g id="#4e389bc7">
<path fill="#4e389b" opacity="0.78" d=" M 137.31 87.18 C 136.82 79.71 136.25 71.72 139.06 64.65 C 137.92 72.40 137.28 80.28 138.25 88.10 L 137.31 87.18 Z" />
</g>
<g id="#3e2b89b0">
<path fill="#3e2b89" opacity="0.69" d=" M 198.95 69.70 C 202.17 72.07 207.43 74.21 206.84 79.01 C 206.74 88.06 206.82 97.11 206.70 106.14 C 205.47 110.13 199.10 109.97 198.07 105.90 C 198.02 100.02 197.67 94.07 198.28 88.22 C 199.57 91.64 198.77 95.44 198.54 98.99 C 198.92 101.11 198.91 103.29 198.20 105.35 C 199.36 106.86 200.73 108.87 202.96 108.37 C 205.19 108.27 206.18 105.99 206.04 104.03 C 206.29 94.80 205.91 85.56 205.94 76.33 C 203.53 74.19 201.26 71.93 198.95 69.70 Z" />
</g>
<g id="#543abdd0">
<path fill="#543abd" opacity="0.82" d=" M 195.92 77.84 C 197.21 77.91 197.89 78.51 197.96 79.65 C 196.40 79.97 195.72 79.37 195.92 77.84 Z" />
</g>
<g id="#4d36a4c7">
<path fill="#4d36a4" opacity="0.78" d=" M 138.28 88.18 C 138.95 89.60 139.62 91.16 139.22 92.77 C 137.31 92.79 137.39 89.37 138.28 88.18 Z" />
</g>
<g id="#5e499cbd">
<path fill="#5e499c" opacity="0.74" d=" M 249.82 93.62 C 249.52 92.40 249.90 91.57 250.96 91.12 C 251.71 92.57 251.32 93.41 249.82 93.62 Z" />
</g>
<g id="#4a3a79a5">
<path fill="#4a3a79" opacity="0.65" d=" M 139.05 94.08 C 140.08 94.59 140.49 95.44 140.25 96.64 C 138.71 96.40 138.31 95.55 139.05 94.08 Z" />
</g>
<g id="#6952aeca">
<path fill="#6952ae" opacity="0.79" d=" M 248.98 96.86 C 249.21 96.39 249.66 95.45 249.89 94.98 L 250.33 95.79 L 249.87 96.75 L 248.98 96.86 Z" />
</g>
<g id="#56487ca3">
<path fill="#56487c" opacity="0.64" d=" M 140.19 98.26 C 140.24 98.33 140.32 98.47 140.36 98.54 C 140.32 98.47 140.24 98.33 140.19 98.26 Z" />
</g>
<g id="#584593af">
<path fill="#584593" opacity="0.69" d=" M 247.94 99.79 C 248.20 99.35 248.72 98.48 248.98 98.05 L 249.35 98.88 L 248.82 99.77 L 247.94 99.79 Z" />
</g>
<g id="#5a4790af">
<path fill="#5a4790" opacity="0.69" d=" M 141.21 99.90 C 141.42 100.38 141.85 101.34 142.07 101.82 L 141.17 101.71 L 140.72 100.73 L 141.21 99.90 Z" />
</g>
<g id="#4f35bbcc">
<path fill="#4f35bb" opacity="0.80" d=" M 163.90 105.07 C 165.05 106.17 166.12 107.34 167.19 108.53 C 165.32 109.82 162.66 106.88 163.90 105.07 Z" />
</g>
<g id="#4f38a9bb">
<path fill="#4f38a9" opacity="0.73" d=" M 144.48 106.66 C 145.46 107.23 146.00 108.07 146.10 109.18 C 144.44 109.12 143.90 108.28 144.48 106.66 Z" />
</g>
<g id="#4e34b8d7">
<path fill="#4e34b8" opacity="0.84" d=" M 220.73 109.65 C 221.70 108.66 222.74 107.75 223.81 106.88 C 225.10 108.54 222.26 111.01 220.73 109.65 Z" />
</g>
<g id="#50407e99">
<path fill="#50407e" opacity="0.60" d=" M 146.36 110.49 C 146.38 110.53 146.40 110.60 146.42 110.64 C 146.40 110.60 146.38 110.53 146.36 110.49 Z" />
</g>
<g id="#5137bbcc">
<path fill="#5137bb" opacity="0.80" d=" M 148.58 112.85 C 149.90 113.43 151.31 114.45 151.15 116.09 C 149.68 116.57 147.90 114.18 148.58 112.85 Z" />
</g>
<g id="#5b4a85af">
<path fill="#5b4a85" opacity="0.69" d=" M 173.48 113.46 C 173.52 113.48 173.61 113.53 173.65 113.56 C 173.61 113.53 173.52 113.48 173.48 113.46 Z" />
</g>
<g id="#483396b6">
<path fill="#483396" opacity="0.71" d=" M 208.60 117.08 C 211.19 115.70 213.80 114.36 216.42 113.04 C 214.12 114.89 211.54 116.52 208.60 117.08 Z" />
</g>
<g id="#46328fb1">
<path fill="#46328f" opacity="0.69" d=" M 176.78 115.01 C 178.00 115.36 179.08 116.03 180.10 116.77 C 178.99 118.01 176.05 116.70 176.78 115.01 Z" />
</g>
<g id="#5e4c94b3">
<path fill="#5e4c94" opacity="0.70" d=" M 181.39 117.39 C 181.46 117.41 181.60 117.46 181.67 117.48 C 181.60 117.46 181.46 117.41 181.39 117.39 Z" />
</g>
<g id="#5f48a8c2">
<path fill="#5f48a8" opacity="0.76" d=" M 183.29 117.80 C 184.32 117.76 185.23 118.07 186.02 118.73 C 184.51 119.84 183.60 119.52 183.29 117.80 Z" />
</g>
<g id="#5c47a0ba">
<path fill="#5c47a0" opacity="0.73" d=" M 203.03 118.79 C 203.77 118.05 204.65 117.72 205.69 117.81 C 205.42 119.51 204.54 119.84 203.03 118.79 Z" />
</g>
<g id="#5f49a9c3">
<path fill="#5f49a9" opacity="0.76" d=" M 187.35 118.81 C 189.23 118.76 191.09 119.04 192.90 119.54 C 191.56 120.83 187.66 120.89 187.35 118.81 Z" />
</g>
<g id="#7054d3ec">
<path fill="#7054d3" opacity="0.93" d=" M 198.80 119.32 C 199.73 118.88 200.72 118.73 201.74 118.87 C 201.17 120.52 200.19 120.67 198.80 119.32 Z" />
</g>
<g id="#50417e9b">
<path fill="#50417e" opacity="0.61" d=" M 191.28 136.10 C 193.43 135.89 195.60 135.91 197.75 136.13 C 196.94 137.89 192.07 137.82 191.28 136.10 Z" />
</g>
<g id="#573dc0de">
<path fill="#573dc0" opacity="0.87" d=" M 56.33 136.72 C 57.45 137.04 58.06 137.81 58.14 139.04 C 56.55 139.05 55.94 138.27 56.33 136.72 Z" />
</g>
<g id="#583dc0d6">
<path fill="#583dc0" opacity="0.84" d=" M 58.27 139.72 C 59.85 139.89 61.22 141.19 60.99 142.86 C 59.57 143.17 58.04 141.04 58.27 139.72 Z" />
</g>
<g id="#3325688b">
<path fill="#332568" opacity="0.55" d=" M 105.92 161.41 C 121.09 160.37 135.29 152.29 144.92 140.68 C 131.12 160.62 102.52 167.50 80.56 157.94 C 75.49 155.61 70.08 153.12 66.46 148.74 C 77.68 157.21 91.64 163.07 105.92 161.41 Z" />
</g>
<g id="#6b53add7">
<path fill="#6b53ad" opacity="0.84" d=" M 139.10 168.33 C 140.51 167.36 141.44 167.58 141.90 168.99 C 141.22 168.97 139.84 168.94 139.16 168.92 L 139.10 168.33 Z" />
</g>
<g id="#7459c6e1">
<path fill="#7459c6" opacity="0.88" d=" M 143.09 169.15 L 143.89 168.69 L 144.87 169.13 L 145.00 170.03 C 144.52 169.81 143.57 169.37 143.09 169.15 Z" />
</g>
<g id="#544093bf">
<path fill="#544093" opacity="0.75" d=" M 138.36 172.98 C 137.32 171.45 137.61 170.50 139.24 170.13 C 139.36 171.19 139.07 172.14 138.36 172.98 Z" />
</g>
<g id="#5c479dc4">
<path fill="#5c479d" opacity="0.77" d=" M 146.11 170.04 C 146.53 170.09 147.37 170.19 147.79 170.24 L 147.82 171.14 C 147.39 170.86 146.53 170.31 146.11 170.04 Z" />
</g>
<g id="#6147c2d7">
<path fill="#6147c2" opacity="0.84" d=" M 59.46 172.92 C 62.33 171.64 65.62 171.04 68.76 171.17 C 65.71 171.98 62.61 172.63 59.46 172.92 Z" />
</g>
<g id="#4a3790ae">
<path fill="#4a3790" opacity="0.68" d=" M 148.62 171.10 C 149.97 170.61 152.84 171.47 152.70 173.12 C 151.15 172.99 149.33 172.69 148.62 171.10 Z" />
</g>
<g id="#614ba5c5">
<path fill="#614ba5" opacity="0.77" d=" M 57.23 173.14 L 58.17 172.66 L 58.98 173.10 C 58.52 173.33 57.59 173.80 57.13 174.03 L 57.23 173.14 Z" />
</g>
<g id="#59449bbe">
<path fill="#59449b" opacity="0.75" d=" M 54.23 174.14 L 55.11 173.61 L 55.95 173.98 C 55.51 174.24 54.64 174.77 54.21 175.03 L 54.23 174.14 Z" />
</g>
<g id="#3c2c79a3">
<path fill="#3c2c79" opacity="0.64" d=" M 137.20 173.55 L 138.12 173.72 C 133.62 191.47 128.96 209.19 123.72 226.73 C 121.22 226.74 118.73 226.74 116.23 226.74 C 115.89 225.81 115.55 224.88 115.21 223.96 L 115.94 224.01 C 115.98 224.50 116.07 225.48 116.11 225.97 C 118.53 225.95 120.95 225.94 123.37 225.97 C 127.84 210.09 131.73 194.06 136.27 178.20 C 136.74 176.69 136.96 175.11 137.20 173.55 Z" />
</g>
<g id="#441efeff">
<path fill="#441efe" opacity="1.00" d=" M 92.96 180.38 C 99.91 180.34 106.87 180.31 113.82 180.40 C 113.10 181.74 112.38 183.09 111.65 184.43 C 111.61 184.51 111.53 184.65 111.49 184.72 C 108.66 189.29 106.78 194.50 103.46 198.71 L 103.13 199.04 C 100.49 192.45 96.10 186.73 92.96 180.38 Z" />
</g>
<g id="#5444839d">
<path fill="#544483" opacity="0.62" d=" M 111.49 184.72 C 111.53 184.65 111.61 184.51 111.65 184.43 C 111.61 184.51 111.53 184.65 111.49 184.72 Z" />
</g>
<g id="#2d225376">
<path fill="#2d2253" opacity="0.46" d=" M 27.79 193.52 C 29.43 190.78 31.64 188.29 34.52 186.82 C 32.37 189.15 30.15 191.41 27.79 193.52 Z" />
</g>
<g id="#46319bb8">
<path fill="#46319b" opacity="0.72" d=" M 13.47 215.30 C 13.03 213.63 14.39 210.34 16.29 210.35 C 16.13 212.37 15.22 214.21 13.47 215.30 Z" />
</g>
<g id="#4b3891b3">
<path fill="#4b3891" opacity="0.70" d=" M 194.88 212.33 C 196.49 212.27 197.32 214.97 197.05 216.35 C 195.38 215.75 194.88 213.93 194.88 212.33 Z" />
</g>
<g id="#57468ba9">
<path fill="#57468b" opacity="0.66" d=" M 110.55 213.31 C 110.58 213.39 110.65 213.54 110.69 213.62 C 110.65 213.54 110.58 213.39 110.55 213.31 Z" />
</g>
<g id="#684bd2e7">
<path fill="#684bd2" opacity="0.91" d=" M 80.06 217.24 C 81.62 217.56 81.88 218.47 80.86 219.98 C 80.06 219.20 79.80 218.29 80.06 217.24 Z" />
</g>
<g id="#513c9cb7">
<path fill="#513c9c" opacity="0.72" d=" M 111.81 217.28 C 113.48 217.00 114.45 220.01 113.76 221.31 C 112.58 220.28 111.64 218.92 111.81 217.28 Z" />
</g>
<g id="#6650a9cf">
<path fill="#6650a9" opacity="0.81" d=" M 196.95 217.05 L 197.86 217.25 L 198.25 218.25 L 197.74 219.01 C 197.54 218.52 197.15 217.54 196.95 217.05 Z" />
</g>
<g id="#4f399eb4">
<path fill="#4f399e" opacity="0.71" d=" M 9.09 224.17 C 8.60 222.85 9.53 220.10 11.17 220.32 C 11.25 221.88 10.61 223.50 9.09 224.17 Z" />
</g>
<g id="#5038abce">
<path fill="#5038ab" opacity="0.81" d=" M 197.95 219.31 C 199.78 223.34 201.25 227.82 200.78 232.30 C 199.73 227.99 198.73 223.68 197.95 219.31 Z" />
</g>
<g id="#694dcae2">
<path fill="#694dca" opacity="0.89" d=" M 80.89 221.20 C 82.54 221.48 82.84 222.39 81.81 223.95 C 81.09 223.17 80.78 222.25 80.89 221.20 Z" />
</g>
<g id="#715baad3">
<path fill="#715baa" opacity="0.83" d=" M 114.53 222.31 C 114.56 222.36 114.62 222.48 114.65 222.53 C 114.62 222.48 114.56 222.36 114.53 222.31 Z" />
</g>
<g id="#5f43c5d9">
<path fill="#5f43c5" opacity="0.85" d=" M 7.22 229.24 C 6.70 227.92 7.45 224.92 9.11 225.07 C 9.43 226.76 8.42 228.17 7.22 229.24 Z" />
</g>
<g id="#6751b0cd">
<path fill="#6751b0" opacity="0.80" d=" M 81.97 225.25 L 82.79 225.19 C 82.85 225.60 82.95 226.43 83.01 226.84 L 82.26 226.82 C 82.19 226.43 82.04 225.64 81.97 225.25 Z" />
</g>
<g id="#6c52bbd6">
<path fill="#6c52bb" opacity="0.84" d=" M 6.21 230.14 L 7.11 230.11 C 6.84 230.55 6.31 231.44 6.04 231.89 L 5.67 231.05 L 6.21 230.14 Z" />
</g>
<g id="#775dc3e1">
<path fill="#775dc3" opacity="0.88" d=" M 5.16 233.23 L 5.97 233.27 C 5.93 233.68 5.83 234.50 5.79 234.91 L 5.04 234.88 C 5.07 234.47 5.13 233.65 5.16 233.23 Z" />
</g>
<g id="#23194d91">
<path fill="#23194d" opacity="0.57" d=" M 200.87 232.72 L 202.07 232.54 C 202.01 233.37 201.87 235.03 201.81 235.86 C 136.20 236.10 70.59 235.83 4.98 235.99 L 5.04 234.88 L 5.79 234.91 C 70.97 235.19 136.17 234.98 201.36 235.02 C 201.23 234.44 200.99 233.30 200.87 232.72 Z" />
</g>
</svg>
