<?xml version="1.0" encoding="UTF-8" ?>
<!DOCTYPE svg PUBLIC "-//W3C//DTD SVG 1.1//EN" "http://www.w3.org/Graphics/SVG/1.1/DTD/svg11.dtd">
<svg width="256pt" height="256pt" viewBox="0 0 256 256" version="1.1" xmlns="http://www.w3.org/2000/svg">
<g id="#7f837eff">
<path fill="#7f837e" opacity="1.00" d=" M 0.00 0.00 L 64.94 0.00 C 64.42 0.81 63.91 1.64 63.42 2.46 C 61.30 2.92 59.17 3.40 56.99 3.48 C 39.06 3.70 21.10 3.18 3.17 3.72 C 3.17 22.84 3.25 41.96 3.17 61.08 C 2.11 61.41 1.05 61.74 0.00 62.12 L 0.00 0.00 Z" />
<path fill="#7f837e" opacity="1.00" d=" M 191.55 63.55 C 192.34 63.59 193.91 63.67 194.69 63.71 C 215.12 64.29 235.59 63.20 256.00 64.30 L 256.00 67.37 C 254.67 67.39 253.35 67.41 252.03 67.44 C 233.07 67.78 214.09 67.10 195.15 67.78 C 195.20 86.91 195.23 106.05 195.14 125.18 C 195.12 125.69 195.09 126.71 195.07 127.22 C 192.36 129.77 189.04 131.48 185.30 131.84 C 185.08 130.49 184.86 129.15 184.67 127.80 C 187.05 127.81 189.44 127.82 191.83 127.83 C 191.71 107.75 191.90 87.67 191.73 67.59 C 191.68 66.24 191.62 64.90 191.55 63.55 Z" />
<path fill="#7f837e" opacity="1.00" d=" M 33.06 125.66 C 33.75 128.51 34.37 131.37 34.94 134.25 C 34.14 132.71 33.02 131.05 31.01 131.48 C 21.73 131.59 12.43 131.19 3.16 131.76 C 3.28 150.92 3.25 170.09 3.20 189.25 L 2.82 189.90 C 1.88 189.79 0.94 189.68 0.00 189.58 L 0.00 128.00 C 0.70 127.96 2.10 127.90 2.80 127.87 C 12.81 127.68 22.83 127.80 32.85 127.82 C 32.90 127.28 33.01 126.20 33.06 125.66 Z" />
<path fill="#7f837e" opacity="1.00" d=" M 90.70 195.56 C 91.00 191.26 91.19 186.95 91.63 182.67 C 91.72 184.85 91.72 187.03 91.54 189.21 C 91.50 189.80 91.42 190.99 91.38 191.59 C 97.98 192.01 104.61 191.69 111.22 191.77 C 110.97 190.85 110.70 189.95 110.42 189.05 L 109.93 187.90 C 111.42 190.46 112.74 193.11 114.07 195.76 C 106.29 195.28 98.49 195.52 90.70 195.56 Z" />
</g>
<g id="#5d615cff">
<path fill="#5d615c" opacity="1.00" d=" M 64.94 0.00 L 124.77 0.00 C 124.61 0.83 124.28 2.48 124.11 3.31 C 105.17 3.53 86.23 3.39 67.29 3.34 C 67.13 14.22 67.36 25.11 67.23 36.00 C 67.26 41.01 66.87 46.07 67.84 51.02 C 66.32 48.47 64.75 45.95 63.30 43.35 C 64.00 30.23 63.42 17.08 63.68 3.95 C 62.52 3.93 61.36 3.92 60.20 3.90 C 60.23 15.11 60.75 26.34 59.93 37.53 C 54.19 28.21 48.70 18.74 42.93 9.44 C 45.12 27.15 48.78 44.66 51.52 62.30 C 35.61 62.42 19.70 62.10 3.80 62.47 C 19.72 63.08 35.67 62.47 51.61 62.77 C 51.87 64.28 52.11 65.79 52.33 67.30 C 35.99 67.50 19.65 67.42 3.31 67.32 C 3.04 86.83 3.62 106.35 3.05 125.85 C 2.99 126.36 2.86 127.36 2.80 127.87 C 2.10 127.90 0.70 127.96 0.00 128.00 L 0.00 62.12 C 1.05 61.74 2.11 61.41 3.17 61.08 C 3.25 41.96 3.17 22.84 3.17 3.72 C 21.10 3.18 39.06 3.70 56.99 3.48 C 59.17 3.40 61.30 2.92 63.42 2.46 C 63.91 1.64 64.42 0.81 64.94 0.00 Z" />
<path fill="#5d615c" opacity="1.00" d=" M 131.04 63.24 C 139.23 64.12 147.47 63.11 155.67 63.90 C 155.05 65.31 154.43 66.72 153.80 68.12 C 146.32 67.12 138.74 67.47 131.22 67.76 C 131.16 77.94 131.54 88.13 130.99 98.29 C 129.65 96.49 128.32 94.66 127.04 92.81 C 128.00 84.43 127.77 75.91 127.31 67.49 C 126.55 67.64 125.02 67.94 124.26 68.09 C 124.27 74.89 124.67 81.70 123.98 88.49 C 119.65 82.70 115.53 76.76 111.32 70.88 C 110.18 79.56 110.76 88.34 110.07 97.05 C 109.41 104.78 109.79 112.55 109.07 120.27 C 98.06 103.04 88.37 84.99 77.54 67.64 C 92.54 67.21 107.58 67.82 122.59 67.40 C 125.97 67.47 128.56 65.21 131.04 63.24 Z" />
<path fill="#5d615c" opacity="1.00" d=" M 195.15 67.78 C 214.09 67.10 233.07 67.78 252.03 67.44 C 252.45 72.95 252.36 78.48 252.34 84.00 C 252.26 97.71 252.55 111.44 252.12 125.14 C 245.97 125.44 239.81 125.34 233.66 125.03 C 239.37 113.79 245.79 102.90 251.21 91.52 C 237.61 102.81 224.09 114.20 210.67 125.70 C 205.51 125.12 200.31 125.46 195.14 125.18 C 195.23 106.05 195.20 86.91 195.15 67.78 Z" />
<path fill="#5d615c" opacity="1.00" d=" M 180.54 151.13 C 180.65 142.86 183.24 134.81 184.54 126.66 L 184.67 127.80 C 184.86 129.15 185.08 130.49 185.30 131.84 C 189.04 131.48 192.36 129.77 195.07 127.22 C 199.67 127.70 204.34 127.92 208.92 127.14 C 207.12 128.67 205.35 130.24 203.51 131.72 C 200.78 131.51 198.03 131.38 195.29 131.30 C 195.35 133.66 195.41 136.01 195.48 138.37 C 194.27 139.42 193.05 140.46 191.83 141.50 C 191.69 138.27 191.62 135.03 191.62 131.80 C 190.95 131.85 189.60 131.94 188.93 131.99 C 187.70 135.98 188.53 140.26 188.52 144.36 C 185.91 146.67 183.28 148.96 180.54 151.13 Z" />
<path fill="#5d615c" opacity="1.00" d=" M 140.72 161.92 C 141.45 170.98 140.85 180.10 141.05 189.18 C 137.73 189.27 134.40 189.33 131.12 189.80 C 131.27 186.81 130.86 183.84 130.61 180.87 C 133.67 174.40 137.57 168.35 140.72 161.92 Z" />
<path fill="#5d615c" opacity="1.00" d=" M 130.88 191.21 C 134.27 191.51 137.66 191.69 141.05 191.77 C 141.05 192.66 141.05 194.42 141.05 195.30 C 137.82 195.33 134.59 195.39 131.36 195.47 C 130.93 207.68 131.57 219.91 131.09 232.12 C 130.26 232.12 128.58 232.10 127.75 232.09 C 127.49 220.05 127.62 208.01 127.66 195.97 C 126.51 195.93 125.35 195.88 124.20 195.84 C 124.40 207.93 124.41 220.03 124.22 232.12 C 105.24 232.50 86.25 232.05 67.28 232.33 C 67.78 226.40 65.98 220.54 66.42 214.62 C 67.94 208.61 66.74 202.41 67.40 196.33 C 68.40 195.40 69.55 194.65 70.65 193.85 C 76.16 198.88 82.09 203.44 87.63 208.43 C 88.40 208.86 89.07 210.01 90.09 209.61 C 90.43 204.93 90.47 200.24 90.70 195.56 C 98.49 195.52 106.29 195.28 114.07 195.76 C 114.91 197.47 115.74 199.20 116.73 200.83 C 117.65 200.27 117.56 198.92 118.12 198.09 C 119.99 194.82 124.24 195.69 127.17 194.16 C 128.49 193.29 129.67 192.22 130.88 191.21 Z" />
<path fill="#5d615c" opacity="1.00" d=" M 196.26 195.91 C 202.14 195.18 208.06 195.61 213.97 195.52 C 226.62 195.45 239.28 195.60 251.94 195.46 C 252.69 203.61 252.21 211.81 252.35 219.98 C 252.17 231.04 252.62 242.10 252.14 253.15 C 240.42 253.53 228.69 253.19 216.97 253.33 C 209.69 253.47 202.38 252.89 195.13 253.67 C 195.17 252.42 195.21 251.17 195.24 249.93 C 204.82 249.92 214.40 250.00 223.98 249.90 C 223.95 244.27 224.14 238.63 223.91 233.00 L 223.73 232.18 C 215.34 231.66 206.94 232.06 198.54 232.01 C 199.66 230.51 200.87 229.07 202.10 227.66 C 208.75 220.35 215.78 213.37 222.41 206.03 C 222.81 205.69 223.62 204.99 224.02 204.64 C 223.70 203.12 221.78 204.18 221.00 204.71 C 213.89 206.50 206.85 208.58 199.70 210.24 C 198.17 210.52 196.65 210.86 195.13 211.17 C 195.23 206.94 195.24 202.70 194.93 198.48 C 195.37 197.63 195.82 196.77 196.26 195.91 Z" />
</g>
<g id="#3f433eff">
<path fill="#3f433e" opacity="1.00" d=" M 124.77 0.00 L 127.74 0.00 C 127.74 1.25 127.76 2.51 127.77 3.76 C 126.86 3.60 125.95 3.44 125.05 3.28 C 124.26 8.81 124.79 14.39 124.67 19.95 C 124.60 33.83 124.77 47.71 124.63 61.60 C 110.08 61.63 95.53 61.60 80.99 61.56 C 78.79 61.60 76.61 61.90 74.44 62.19 C 72.25 58.46 69.99 54.77 67.84 51.02 C 66.87 46.07 67.26 41.01 67.23 36.00 C 67.36 25.11 67.13 14.22 67.29 3.34 C 86.23 3.39 105.17 3.53 124.11 3.31 C 124.28 2.48 124.61 0.83 124.77 0.00 Z" />
<path fill="#3f433e" opacity="1.00" d=" M 3.31 67.32 C 19.65 67.42 35.99 67.50 52.33 67.30 C 55.45 88.23 59.40 109.03 62.53 129.95 C 61.20 128.81 59.84 127.70 58.71 126.36 C 49.60 115.44 40.29 104.69 31.26 93.70 C 29.38 91.40 27.40 89.17 25.33 87.04 C 27.80 99.93 30.24 112.84 33.06 125.66 C 23.06 125.69 13.04 125.34 3.05 125.85 C 3.62 106.35 3.04 86.83 3.31 67.32 Z" />
<path fill="#3f433e" opacity="1.00" d=" M 131.22 67.76 C 138.74 67.47 146.32 67.12 153.80 68.12 C 150.70 75.16 147.53 82.16 144.54 89.25 C 144.49 89.35 144.39 89.57 144.34 89.68 C 141.70 95.13 139.62 100.83 136.95 106.26 C 134.91 103.65 132.95 100.97 130.99 98.29 C 131.54 88.13 131.16 77.94 131.22 67.76 Z" />
<path fill="#3f433e" opacity="1.00" d=" M 229.00 134.16 C 229.67 133.33 230.37 132.53 231.09 131.75 C 238.08 132.06 245.08 132.01 252.07 131.75 C 252.50 150.89 252.43 170.05 252.12 189.19 C 235.73 189.57 219.33 189.17 202.93 189.30 C 201.36 189.15 200.08 190.07 198.92 190.99 C 206.72 176.21 214.44 161.39 222.43 146.70 C 222.51 146.55 222.67 146.26 222.75 146.11 L 223.24 145.23 C 223.31 145.10 223.45 144.84 223.52 144.71 C 225.41 141.23 227.12 137.65 229.00 134.16 Z" />
<path fill="#3f433e" opacity="1.00" d=" M 92.40 169.09 C 92.55 164.75 92.18 160.32 93.56 156.13 C 98.80 166.82 104.54 177.28 109.93 187.90 L 110.42 189.05 C 104.14 189.66 97.83 189.47 91.54 189.21 C 91.72 187.03 91.72 184.85 91.63 182.67 C 91.30 178.12 92.37 173.63 92.40 169.09 Z" />
<path fill="#3f433e" opacity="1.00" d=" M 131.36 195.47 C 134.59 195.39 137.82 195.33 141.05 195.30 C 141.05 199.00 141.04 202.70 141.09 206.40 C 147.53 202.59 153.95 198.74 160.44 195.01 C 164.33 195.43 168.26 195.48 172.17 195.30 C 167.34 206.88 163.04 218.66 158.46 230.34 C 157.88 231.33 157.77 233.44 156.08 232.99 C 128.72 232.91 101.35 232.88 73.99 232.92 C 71.75 232.87 69.41 233.19 67.28 232.33 C 86.25 232.05 105.24 232.50 124.22 232.12 C 125.39 232.09 126.57 232.08 127.75 232.09 C 128.58 232.10 130.26 232.12 131.09 232.12 C 131.57 219.91 130.93 207.68 131.36 195.47 Z" />
<path fill="#3f433e" opacity="1.00" d=" M 131.21 250.01 C 150.22 249.93 169.23 250.00 188.24 249.97 C 188.18 250.77 188.07 252.35 188.02 253.14 C 169.07 253.78 150.07 252.72 131.14 253.71 C 131.18 252.47 131.20 251.24 131.21 250.01 Z" />
</g>
<g id="#7e827dff">
<path fill="#7e827d" opacity="1.00" d=" M 127.74 0.00 L 189.02 0.00 C 188.51 1.10 188.85 3.51 187.07 3.31 C 168.47 3.53 149.86 3.38 131.26 3.36 C 131.11 22.62 131.30 41.88 131.14 61.14 C 131.12 61.67 131.06 62.71 131.04 63.24 C 128.56 65.21 125.97 67.47 122.59 67.40 C 107.58 67.82 92.54 67.21 77.54 67.64 C 76.81 66.41 76.11 65.17 75.42 63.93 C 92.88 63.65 110.36 63.83 127.82 63.83 C 127.75 43.81 127.85 23.79 127.77 3.76 C 127.76 2.51 127.74 1.25 127.74 0.00 Z" />
<path fill="#7e827d" opacity="1.00" d=" M 161.00 129.09 C 161.31 126.31 161.66 123.54 162.05 120.78 C 161.99 122.28 161.96 123.77 161.94 125.27 C 161.92 125.90 161.90 127.17 161.89 127.80 C 165.34 127.79 168.80 127.77 172.26 127.74 C 170.95 129.07 169.63 130.41 168.29 131.72 C 165.62 131.54 162.55 131.72 161.00 129.09 Z" />
<path fill="#7e827d" opacity="1.00" d=" M 127.38 186.13 C 128.44 184.36 129.49 182.59 130.61 180.87 C 130.86 183.84 131.27 186.81 131.12 189.80 L 130.88 191.21 C 129.67 192.22 128.49 193.29 127.17 194.16 C 124.24 195.69 119.99 194.82 118.12 198.09 C 118.83 195.39 119.68 192.72 120.69 190.11 C 120.69 190.55 120.69 191.42 120.68 191.85 C 123.06 192.00 125.56 192.61 127.88 191.82 C 128.72 190.45 127.81 188.83 127.66 187.39 L 127.38 186.13 Z" />
<path fill="#7e827d" opacity="1.00" d=" M 196.26 195.91 C 196.98 194.52 197.71 193.13 198.47 191.76 C 217.65 192.10 236.83 191.48 256.00 192.08 L 256.00 195.37 C 254.64 195.40 253.29 195.43 251.94 195.46 C 239.28 195.60 226.62 195.45 213.97 195.52 C 208.06 195.61 202.14 195.18 196.26 195.91 Z" />
<path fill="#7e827d" opacity="1.00" d=" M 191.67 204.57 C 192.73 202.52 193.83 200.50 194.93 198.48 C 195.24 202.70 195.23 206.94 195.13 211.17 C 196.65 210.86 198.17 210.52 199.70 210.24 C 199.14 210.98 198.55 211.69 197.96 212.39 C 196.02 210.51 193.63 212.23 191.49 212.53 C 192.22 209.92 192.03 207.21 191.67 204.57 Z" />
</g>
<g id="#5c605bff">
<path fill="#5c605b" opacity="1.00" d=" M 189.02 0.00 L 256.00 0.00 L 256.00 3.41 C 254.67 3.44 253.34 3.47 252.01 3.49 C 233.09 3.89 214.14 3.18 195.23 3.81 C 195.25 22.98 195.43 42.16 195.16 61.33 C 194.26 61.38 192.46 61.49 191.56 61.55 C 191.39 42.45 191.46 23.34 191.56 4.24 C 190.52 4.21 189.48 4.18 188.44 4.16 C 188.43 23.22 188.60 42.29 188.37 61.35 C 181.86 61.57 175.36 61.53 168.86 61.37 C 169.96 49.58 171.67 37.85 172.55 26.04 C 170.09 29.41 168.78 33.39 167.12 37.17 C 163.69 45.10 160.41 53.10 156.94 61.02 C 148.35 61.59 139.74 61.42 131.14 61.14 C 131.30 41.88 131.11 22.62 131.26 3.36 C 149.86 3.38 168.47 3.53 187.07 3.31 C 188.85 3.51 188.51 1.10 189.02 0.00 Z" />
<path fill="#5c605b" opacity="1.00" d=" M 161.00 129.09 C 162.55 131.72 165.62 131.54 168.29 131.72 C 165.67 134.20 163.11 136.76 160.41 139.16 C 160.08 135.79 160.67 132.43 161.00 129.09 Z" />
<path fill="#5c605b" opacity="1.00" d=" M 3.16 131.76 C 12.43 131.19 21.73 131.59 31.01 131.48 C 33.02 131.05 34.14 132.71 34.94 134.25 C 37.08 145.92 40.07 157.43 41.89 169.16 C 29.38 160.15 17.58 150.19 5.28 140.90 C 11.74 157.01 18.57 172.98 24.95 189.13 C 17.71 189.57 10.45 189.41 3.20 189.25 C 3.25 170.09 3.28 150.92 3.16 131.76 Z" />
</g>
<g id="#272b26ff">
<path fill="#272b26" opacity="1.00" d=" M 125.05 3.28 C 125.95 3.44 126.86 3.60 127.77 3.76 C 127.85 23.79 127.75 43.81 127.82 63.83 C 110.36 63.83 92.88 63.65 75.42 63.93 C 75.17 63.49 74.68 62.63 74.44 62.19 C 76.61 61.90 78.79 61.60 80.99 61.56 C 95.53 61.60 110.08 61.63 124.63 61.60 C 124.77 47.71 124.60 33.83 124.67 19.95 C 124.79 14.39 124.26 8.81 125.05 3.28 Z" />
<path fill="#272b26" opacity="1.00" d=" M 188.57 67.54 C 189.62 67.56 190.68 67.57 191.73 67.59 C 191.90 87.67 191.71 107.75 191.83 127.83 C 189.44 127.82 187.05 127.81 184.67 127.80 L 184.54 126.66 C 184.59 126.35 184.70 125.71 184.76 125.40 C 185.62 125.33 187.35 125.18 188.22 125.11 C 188.69 105.93 188.08 86.72 188.57 67.54 Z" />
</g>
<g id="#2c302bff">
<path fill="#2c302b" opacity="1.00" d=" M 252.01 3.49 C 253.34 3.47 254.67 3.44 256.00 3.41 L 256.00 64.30 C 235.59 63.20 215.12 64.29 194.69 63.71 C 194.97 63.16 195.52 62.05 195.80 61.50 C 214.56 60.94 233.36 61.71 252.12 61.14 C 252.66 45.44 252.15 29.71 252.36 14.00 C 252.43 10.49 252.27 6.99 252.01 3.49 Z" />
<path fill="#2c302b" opacity="1.00" d=" M 252.07 131.75 C 253.38 131.70 254.69 131.64 256.00 131.59 L 256.00 192.08 C 236.83 191.48 217.65 192.10 198.47 191.76 L 198.92 190.99 C 200.08 190.07 201.36 189.15 202.93 189.30 C 219.33 189.17 235.73 189.57 252.12 189.19 C 252.43 170.05 252.50 150.89 252.07 131.75 Z" />
<path fill="#2c302b" opacity="1.00" d=" M 60.25 249.97 C 61.45 249.96 62.65 249.96 63.85 249.97 C 63.83 251.98 63.80 253.99 63.77 256.00 L 3.01 256.00 C 3.05 255.29 3.13 253.86 3.17 253.15 C 22.12 253.48 41.09 253.38 60.04 253.17 C 60.09 252.37 60.20 250.77 60.25 249.97 Z" />
<path fill="#2c302b" opacity="1.00" d=" M 188.24 249.97 C 189.44 249.97 190.65 249.96 191.86 249.95 C 191.83 251.96 191.80 253.98 191.77 256.00 L 131.02 256.00 C 131.05 255.43 131.11 254.28 131.14 253.71 C 150.07 252.72 169.07 253.78 188.02 253.14 C 188.07 252.35 188.18 250.77 188.24 249.97 Z" />
</g>
<g id="#494d48ff">
<path fill="#494d48" opacity="1.00" d=" M 60.20 3.90 C 61.36 3.92 62.52 3.93 63.68 3.95 C 63.42 17.08 64.00 30.23 63.30 43.35 C 62.19 41.40 61.08 39.46 59.93 37.53 C 60.75 26.34 60.23 15.11 60.20 3.90 Z" />
<path fill="#494d48" opacity="1.00" d=" M 124.26 68.09 C 125.02 67.94 126.55 67.64 127.31 67.49 C 127.77 75.91 128.00 84.43 127.04 92.81 C 126.03 91.36 125.02 89.91 123.98 88.49 C 124.67 81.70 124.27 74.89 124.26 68.09 Z" />
<path fill="#494d48" opacity="1.00" d=" M 188.93 131.99 C 189.60 131.94 190.95 131.85 191.62 131.80 C 191.62 135.03 191.69 138.27 191.83 141.50 C 190.72 142.44 189.62 143.40 188.52 144.36 C 188.53 140.26 187.70 135.98 188.93 131.99 Z" />
<path fill="#494d48" opacity="1.00" d=" M 124.20 195.84 C 125.35 195.88 126.51 195.93 127.66 195.97 C 127.62 208.01 127.49 220.05 127.75 232.09 C 126.57 232.08 125.39 232.09 124.22 232.12 C 124.41 220.03 124.40 207.93 124.20 195.84 Z" />
</g>
<g id="#3f423eff">
<path fill="#3f423e" opacity="1.00" d=" M 188.44 4.16 C 189.48 4.18 190.52 4.21 191.56 4.24 C 191.46 23.34 191.39 42.45 191.56 61.55 C 192.46 61.49 194.26 61.38 195.16 61.33 C 195.43 42.16 195.25 22.98 195.23 3.81 C 214.14 3.18 233.09 3.89 252.01 3.49 C 252.27 6.99 252.43 10.49 252.36 14.00 C 252.15 29.71 252.66 45.44 252.12 61.14 C 233.36 61.71 214.56 60.94 195.80 61.50 C 195.52 62.05 194.97 63.16 194.69 63.71 C 193.91 63.67 192.34 63.59 191.55 63.55 C 191.62 64.90 191.68 66.24 191.73 67.59 C 190.68 67.57 189.62 67.56 188.57 67.54 C 188.08 86.72 188.69 105.93 188.22 125.11 C 187.35 125.18 185.62 125.33 184.76 125.40 C 185.47 121.50 186.19 117.61 186.95 113.73 C 182.74 117.72 178.51 121.69 174.30 125.68 C 170.18 125.46 166.06 125.35 161.94 125.27 C 161.96 123.77 161.99 122.28 162.05 120.78 C 164.17 102.92 166.24 85.06 168.20 67.18 C 174.93 67.54 181.67 67.52 188.41 67.29 C 188.44 66.36 188.49 64.50 188.52 63.57 C 181.89 63.35 175.26 63.46 168.62 63.50 C 168.68 62.97 168.80 61.90 168.86 61.37 C 175.36 61.53 181.86 61.57 188.37 61.35 C 188.60 42.29 188.43 23.22 188.44 4.16 Z" />
<path fill="#3f423e" opacity="1.00" d=" M 3.34 195.34 C 11.00 195.46 18.66 195.30 26.32 195.50 C 27.19 196.77 28.08 198.04 28.91 199.35 C 33.09 209.54 37.10 219.79 41.55 229.87 C 41.69 230.63 41.97 232.15 42.12 232.91 C 31.41 233.10 20.71 232.94 10.00 233.00 C 10.01 238.64 9.97 244.27 10.04 249.91 C 26.78 250.06 43.51 249.94 60.25 249.97 C 60.20 250.77 60.09 252.37 60.04 253.17 C 41.09 253.38 22.12 253.48 3.17 253.15 C 3.49 233.88 3.13 214.61 3.34 195.34 Z" />
</g>
<g id="#35ff26ff">
<path fill="#35ff26" opacity="1.00" d=" M 42.93 9.44 C 48.70 18.74 54.19 28.21 59.93 37.53 C 61.08 39.46 62.19 41.40 63.30 43.35 C 64.75 45.95 66.32 48.47 67.84 51.02 C 69.99 54.77 72.25 58.46 74.44 62.19 C 74.68 62.63 75.17 63.49 75.42 63.93 C 76.11 65.17 76.81 66.41 77.54 67.64 C 88.37 84.99 98.06 103.04 109.07 120.27 C 109.79 112.55 109.41 104.78 110.07 97.05 C 110.76 88.34 110.18 79.56 111.32 70.88 C 115.53 76.76 119.65 82.70 123.98 88.49 C 125.02 89.91 126.03 91.36 127.04 92.81 C 128.32 94.66 129.65 96.49 130.99 98.29 C 132.95 100.97 134.91 103.65 136.95 106.26 C 139.62 100.83 141.70 95.13 144.34 89.68 C 144.39 89.57 144.49 89.35 144.54 89.25 C 147.53 82.16 150.70 75.16 153.80 68.12 C 154.43 66.72 155.05 65.31 155.67 63.90 C 156.09 62.94 156.52 61.98 156.94 61.02 C 160.41 53.10 163.69 45.10 167.12 37.17 C 168.78 33.39 170.09 29.41 172.55 26.04 C 171.67 37.85 169.96 49.58 168.86 61.37 C 168.80 61.90 168.68 62.97 168.62 63.50 C 168.52 64.42 168.31 66.26 168.20 67.18 C 166.24 85.06 164.17 102.92 162.05 120.78 C 161.66 123.54 161.31 126.31 161.00 129.09 C 160.67 132.43 160.08 135.79 160.41 139.16 C 163.11 136.76 165.67 134.20 168.29 131.72 C 169.63 130.41 170.95 129.07 172.26 127.74 C 172.93 127.05 173.61 126.36 174.30 125.68 C 178.51 121.69 182.74 117.72 186.95 113.73 C 186.19 117.61 185.47 121.50 184.76 125.40 C 184.70 125.71 184.59 126.35 184.54 126.66 C 183.24 134.81 180.65 142.86 180.54 151.13 C 183.28 148.96 185.91 146.67 188.52 144.36 C 189.62 143.40 190.72 142.44 191.83 141.50 C 193.05 140.46 194.27 139.42 195.48 138.37 C 198.09 136.07 200.79 133.88 203.51 131.72 C 205.35 130.24 207.12 128.67 208.92 127.14 C 209.36 126.78 210.23 126.06 210.67 125.70 C 224.09 114.20 237.61 102.81 251.21 91.52 C 245.79 102.90 239.37 113.79 233.66 125.03 C 233.37 125.60 232.79 126.73 232.50 127.29 C 231.32 129.57 230.17 131.87 229.00 134.16 C 227.12 137.65 225.41 141.23 223.52 144.71 C 223.45 144.84 223.31 145.10 223.24 145.23 L 222.75 146.11 C 222.67 146.26 222.51 146.55 222.43 146.70 C 214.44 161.39 206.72 176.21 198.92 190.99 L 198.47 191.76 C 197.71 193.13 196.98 194.52 196.26 195.91 C 195.82 196.77 195.37 197.63 194.93 198.48 C 193.83 200.50 192.73 202.52 191.67 204.57 C 190.21 207.35 188.76 210.14 187.37 212.97 C 188.40 212.86 190.46 212.64 191.49 212.53 C 193.63 212.23 196.02 210.51 197.96 212.39 C 198.55 211.69 199.14 210.98 199.70 210.24 C 206.85 208.58 213.89 206.50 221.00 204.71 C 221.35 205.04 222.06 205.70 222.41 206.03 C 215.78 213.37 208.75 220.35 202.10 227.66 C 199.97 229.12 197.88 230.78 197.02 233.31 C 205.84 233.38 214.67 233.10 223.49 233.44 C 223.62 238.62 223.65 243.80 223.44 248.97 C 152.61 248.97 81.77 249.06 10.94 248.93 C 10.85 243.77 10.86 238.60 10.95 233.44 C 21.62 233.13 32.31 233.32 42.99 233.37 C 42.52 232.19 42.04 231.02 41.55 229.87 C 37.10 219.79 33.09 209.54 28.91 199.35 C 27.76 196.36 26.62 193.36 25.45 190.38 C 25.32 190.07 25.08 189.44 24.95 189.13 C 18.57 172.98 11.74 157.01 5.28 140.90 C 17.58 150.19 29.38 160.15 41.89 169.16 C 40.07 157.43 37.08 145.92 34.94 134.25 C 34.37 131.37 33.75 128.51 33.06 125.66 C 30.24 112.84 27.80 99.93 25.33 87.04 C 27.40 89.17 29.38 91.40 31.26 93.70 C 40.29 104.69 49.60 115.44 58.71 126.36 C 59.84 127.70 61.20 128.81 62.53 129.95 C 59.40 109.03 55.45 88.23 52.33 67.30 C 52.11 65.79 51.87 64.28 51.61 62.77 L 51.52 62.30 C 48.78 44.66 45.12 27.15 42.93 9.44 M 92.40 169.09 C 92.37 173.63 91.30 178.12 91.63 182.67 C 91.19 186.95 91.00 191.26 90.70 195.56 C 90.47 200.24 90.43 204.93 90.09 209.61 C 89.07 210.01 88.40 208.86 87.63 208.43 C 82.09 203.44 76.16 198.88 70.65 193.85 C 69.50 192.91 68.35 191.99 67.18 191.09 C 66.86 190.77 66.21 190.15 65.89 189.84 C 65.47 189.62 64.61 189.19 64.19 188.97 C 64.80 197.53 65.10 206.16 66.42 214.62 C 65.98 220.54 67.78 226.40 67.28 232.33 C 69.41 233.19 71.75 232.87 73.99 232.92 C 101.35 232.88 128.72 232.91 156.08 232.99 C 157.77 233.44 157.88 231.33 158.46 230.34 C 163.04 218.66 167.34 206.88 172.17 195.30 C 173.48 192.25 174.75 189.19 175.85 186.06 C 170.36 188.37 165.47 191.86 160.44 195.01 C 153.95 198.74 147.53 202.59 141.09 206.40 C 141.04 202.70 141.05 199.00 141.05 195.30 C 141.05 194.42 141.05 192.66 141.05 191.77 C 141.05 191.12 141.05 189.83 141.05 189.18 C 140.85 180.10 141.45 170.98 140.72 161.92 C 137.57 168.35 133.67 174.40 130.61 180.87 C 129.49 182.59 128.44 184.36 127.38 186.13 L 127.66 187.39 C 126.23 185.32 125.33 182.97 124.46 180.63 C 122.08 183.19 121.86 186.94 120.69 190.11 C 119.68 192.72 118.83 195.39 118.12 198.09 C 117.56 198.92 117.65 200.27 116.73 200.83 C 115.74 199.20 114.91 197.47 114.07 195.76 C 112.74 193.11 111.42 190.46 109.93 187.90 C 104.54 177.28 98.80 166.82 93.56 156.13 C 92.18 160.32 92.55 164.75 92.40 169.09 Z" />
</g>
<g id="#474b46ff">
<path fill="#474b46" opacity="1.00" d=" M 131.14 61.14 C 139.74 61.42 148.35 61.59 156.94 61.02 C 156.52 61.98 156.09 62.94 155.67 63.90 C 147.47 63.11 139.23 64.12 131.04 63.24 C 131.06 62.71 131.12 61.67 131.14 61.14 Z" />
<path fill="#474b46" opacity="1.00" d=" M 195.14 125.18 C 200.31 125.46 205.51 125.12 210.67 125.70 C 210.23 126.06 209.36 126.78 208.92 127.14 C 204.34 127.92 199.67 127.70 195.07 127.22 C 195.09 126.71 195.12 125.69 195.14 125.18 Z" />
<path fill="#474b46" opacity="1.00" d=" M 131.12 189.80 C 134.40 189.33 137.73 189.27 141.05 189.18 C 141.05 189.83 141.05 191.12 141.05 191.77 C 137.66 191.69 134.27 191.51 130.88 191.21 L 131.12 189.80 Z" />
</g>
<g id="#252924ff">
<path fill="#252924" opacity="1.00" d=" M 3.80 62.47 C 19.70 62.10 35.61 62.42 51.52 62.30 L 51.61 62.77 C 35.67 62.47 19.72 63.08 3.80 62.47 Z" />
<path fill="#252924" opacity="1.00" d=" M 161.94 125.27 C 166.06 125.35 170.18 125.46 174.30 125.68 C 173.61 126.36 172.93 127.05 172.26 127.74 C 168.80 127.77 165.34 127.79 161.89 127.80 C 161.90 127.17 161.92 125.90 161.94 125.27 Z" />
<path fill="#252924" opacity="1.00" d=" M 3.05 125.85 C 13.04 125.34 23.06 125.69 33.06 125.66 C 33.01 126.20 32.90 127.28 32.85 127.82 C 22.83 127.80 12.81 127.68 2.80 127.87 C 2.86 127.36 2.99 126.36 3.05 125.85 Z" />
<path fill="#252924" opacity="1.00" d=" M 91.54 189.21 C 97.83 189.47 104.14 189.66 110.42 189.05 C 110.70 189.95 110.97 190.85 111.22 191.77 C 104.61 191.69 97.98 192.01 91.38 191.59 C 91.42 190.99 91.50 189.80 91.54 189.21 Z" />
</g>
<g id="#5b605aff">
<path fill="#5b605a" opacity="1.00" d=" M 168.62 63.50 C 175.26 63.46 181.89 63.35 188.52 63.57 C 188.49 64.50 188.44 66.36 188.41 67.29 C 181.67 67.52 174.93 67.54 168.20 67.18 C 168.31 66.26 168.52 64.42 168.62 63.50 Z" />
<path fill="#5b605a" opacity="1.00" d=" M 160.44 195.01 C 165.47 191.86 170.36 188.37 175.85 186.06 C 174.75 189.19 173.48 192.25 172.17 195.30 C 168.26 195.48 164.33 195.43 160.44 195.01 Z" />
</g>
<g id="#4a4e49ff">
<path fill="#4a4e49" opacity="1.00" d=" M 252.03 67.44 C 253.35 67.41 254.67 67.39 256.00 67.37 L 256.00 131.59 C 254.69 131.64 253.38 131.70 252.07 131.75 C 245.08 132.01 238.08 132.06 231.09 131.75 C 238.01 130.48 245.07 131.69 252.05 131.11 C 252.32 130.00 252.59 128.90 252.86 127.80 C 246.08 127.32 239.27 128.02 232.50 127.29 C 232.79 126.73 233.37 125.60 233.66 125.03 C 239.81 125.34 245.97 125.44 252.12 125.14 C 252.55 111.44 252.26 97.71 252.34 84.00 C 252.36 78.48 252.45 72.95 252.03 67.44 Z" />
<path fill="#4a4e49" opacity="1.00" d=" M 251.94 195.46 C 253.29 195.43 254.64 195.40 256.00 195.37 L 256.00 256.00 L 195.00 256.00 C 195.03 255.42 195.10 254.25 195.13 253.67 C 202.38 252.89 209.69 253.47 216.97 253.33 C 228.69 253.19 240.42 253.53 252.14 253.15 C 252.62 242.10 252.17 231.04 252.35 219.98 C 252.21 211.81 252.69 203.61 251.94 195.46 Z" />
</g>
<g id="#71d665ff">
<path fill="#71d665" opacity="1.00" d=" M 144.34 89.68 C 144.39 89.57 144.49 89.35 144.54 89.25 C 144.49 89.35 144.39 89.57 144.34 89.68 Z" />
</g>
<g id="#5c615bff">
<path fill="#5c615b" opacity="1.00" d=" M 229.00 134.16 C 230.17 131.87 231.32 129.57 232.50 127.29 C 239.27 128.02 246.08 127.32 252.86 127.80 C 252.59 128.90 252.32 130.00 252.05 131.11 C 245.07 131.69 238.01 130.48 231.09 131.75 C 230.37 132.53 229.67 133.33 229.00 134.16 Z" />
<path fill="#5c615b" opacity="1.00" d=" M 0.00 189.58 C 0.94 189.68 1.88 189.79 2.82 189.90 C 3.24 190.31 4.08 191.12 4.50 191.53 C 9.64 191.65 14.79 191.53 19.94 191.64 C 21.81 191.53 24.11 192.08 25.45 190.38 C 26.62 193.36 27.76 196.36 28.91 199.35 C 28.08 198.04 27.19 196.77 26.32 195.50 C 18.66 195.30 11.00 195.46 3.34 195.34 C 3.13 214.61 3.49 233.88 3.17 253.15 C 3.13 253.86 3.05 255.29 3.01 256.00 L 0.00 256.00 L 0.00 189.58 Z" />
</g>
<g id="#3b3f3aff">
<path fill="#3b3f3a" opacity="1.00" d=" M 195.29 131.30 C 198.03 131.38 200.78 131.51 203.51 131.72 C 200.79 133.88 198.09 136.07 195.48 138.37 C 195.41 136.01 195.35 133.66 195.29 131.30 Z" />
</g>
<g id="#72cb67ff">
<path fill="#72cb67" opacity="1.00" d=" M 223.24 145.23 C 223.31 145.10 223.45 144.84 223.52 144.71 C 223.45 144.84 223.31 145.10 223.24 145.23 Z" />
</g>
<g id="#72c068ff">
<path fill="#72c068" opacity="1.00" d=" M 222.43 146.70 C 222.51 146.55 222.67 146.26 222.75 146.11 C 222.67 146.26 222.51 146.55 222.43 146.70 Z" />
</g>
<g id="#333732ff">
<path fill="#333732" opacity="1.00" d=" M 120.69 190.11 C 121.86 186.94 122.08 183.19 124.46 180.63 C 125.33 182.97 126.23 185.32 127.66 187.39 C 127.81 188.83 128.72 190.45 127.88 191.82 C 125.56 192.61 123.06 192.00 120.68 191.85 C 120.69 191.42 120.69 190.55 120.69 190.11 Z" />
</g>
<g id="#464a45ff">
<path fill="#464a45" opacity="1.00" d=" M 3.20 189.25 C 10.45 189.41 17.71 189.57 24.95 189.13 C 25.08 189.44 25.32 190.07 25.45 190.38 C 24.11 192.08 21.81 191.53 19.94 191.64 C 14.79 191.53 9.64 191.65 4.50 191.53 C 4.08 191.12 3.24 190.31 2.82 189.90 L 3.20 189.25 Z" />
</g>
<g id="#7d817cff">
<path fill="#7d817c" opacity="1.00" d=" M 64.19 188.97 C 64.61 189.19 65.47 189.62 65.89 189.84 C 63.08 190.58 66.35 193.78 67.18 191.09 C 68.35 191.99 69.50 192.91 70.65 193.85 C 69.55 194.65 68.40 195.40 67.40 196.33 C 66.74 202.41 67.94 208.61 66.42 214.62 C 65.10 206.16 64.80 197.53 64.19 188.97 Z" />
</g>
<g id="#526b4fff">
<path fill="#526b4f" opacity="1.00" d=" M 67.18 191.09 C 66.35 193.78 63.08 190.58 65.89 189.84 C 66.21 190.15 66.86 190.77 67.18 191.09 Z" />
</g>
<g id="#60e254ff">
<path fill="#60e254" opacity="1.00" d=" M 221.00 204.71 C 221.78 204.18 223.70 203.12 224.02 204.64 C 223.62 204.99 222.81 205.69 222.41 206.03 C 222.06 205.70 221.35 205.04 221.00 204.71 Z" />
</g>
<g id="#354533ff">
<path fill="#354533" opacity="1.00" d=" M 187.37 212.97 C 188.76 210.14 190.21 207.35 191.67 204.57 C 192.03 207.21 192.22 209.92 191.49 212.53 C 190.46 212.64 188.40 212.86 187.37 212.97 Z" />
</g>
<g id="#68e25bff">
<path fill="#68e25b" opacity="1.00" d=" M 197.02 233.31 C 197.88 230.78 199.97 229.12 202.10 227.66 C 200.87 229.07 199.66 230.51 198.54 232.01 L 198.49 232.94 C 206.96 233.09 215.44 232.95 223.91 233.00 C 224.14 238.63 223.95 244.27 223.98 249.90 C 214.40 250.00 204.82 249.92 195.24 249.93 C 194.39 249.94 192.70 249.95 191.86 249.95 C 190.65 249.96 189.44 249.97 188.24 249.97 C 169.23 250.00 150.22 249.93 131.21 250.01 C 109.94 250.07 88.67 250.14 67.40 250.00 C 66.52 249.99 64.74 249.98 63.85 249.97 C 62.65 249.96 61.45 249.96 60.25 249.97 C 43.51 249.94 26.78 250.06 10.04 249.91 C 9.97 244.27 10.01 238.64 10.00 233.00 C 20.71 232.94 31.41 233.10 42.12 232.91 C 41.97 232.15 41.69 230.63 41.55 229.87 C 42.04 231.02 42.52 232.19 42.99 233.37 C 32.31 233.32 21.62 233.13 10.95 233.44 C 10.86 238.60 10.85 243.77 10.94 248.93 C 81.77 249.06 152.61 248.97 223.44 248.97 C 223.65 243.80 223.62 238.62 223.49 233.44 C 214.67 233.10 205.84 233.38 197.02 233.31 Z" />
</g>
<g id="#475c44ff">
<path fill="#475c44" opacity="1.00" d=" M 198.54 232.01 C 206.94 232.06 215.34 231.66 223.73 232.18 L 223.91 233.00 C 215.44 232.95 206.96 233.09 198.49 232.94 L 198.54 232.01 Z" />
</g>
<g id="#727671ff">
<path fill="#727671" opacity="1.00" d=" M 63.85 249.97 C 64.74 249.98 66.52 249.99 67.40 250.00 C 67.27 252.00 67.13 254.00 66.99 256.00 L 63.77 256.00 C 63.80 253.99 63.83 251.98 63.85 249.97 Z" />
<path fill="#727671" opacity="1.00" d=" M 191.86 249.95 C 192.70 249.95 194.39 249.94 195.24 249.93 C 195.21 251.17 195.17 252.42 195.13 253.67 C 195.10 254.25 195.03 255.42 195.00 256.00 L 191.77 256.00 C 191.80 253.98 191.83 251.96 191.86 249.95 Z" />
</g>
<g id="#525551ff">
<path fill="#525551" opacity="1.00" d=" M 67.40 250.00 C 88.67 250.14 109.94 250.07 131.21 250.01 C 131.20 251.24 131.18 252.47 131.14 253.71 C 131.11 254.28 131.05 255.43 131.02 256.00 L 66.99 256.00 C 67.13 254.00 67.27 252.00 67.40 250.00 Z" />
</g>
</svg>
