<?xml version="1.0" encoding="UTF-8" ?>
<!DOCTYPE svg PUBLIC "-//W3C//DTD SVG 1.1//EN" "http://www.w3.org/Graphics/SVG/1.1/DTD/svg11.dtd">
<svg width="256pt" height="256pt" viewBox="0 0 256 256" version="1.1" xmlns="http://www.w3.org/2000/svg">
<g id="#fefefeff">
<path fill="#fefefe" opacity="1.00" d=" M 0.00 0.00 L 256.00 0.00 L 256.00 256.00 L 0.00 256.00 L 0.00 0.00 M 84.95 19.05 C 70.58 29.68 60.19 45.45 55.92 62.79 C 54.06 70.04 53.94 77.57 53.72 85.00 C 53.79 121.13 53.62 157.26 53.81 193.38 C 61.20 193.68 68.60 193.47 76.00 193.53 C 118.65 193.49 161.30 193.61 203.94 193.47 C 203.95 156.98 203.94 120.49 203.95 84.00 C 203.86 78.86 203.99 73.68 203.21 68.59 C 200.16 50.16 190.08 33.11 175.73 21.21 C 162.30 11.28 145.87 4.79 129.00 5.18 C 113.29 4.82 97.87 10.34 84.95 19.05 M 34.39 190.40 C 30.03 196.22 24.59 201.23 20.66 207.36 C 20.15 221.81 20.66 236.32 20.42 250.80 C 34.27 251.25 48.14 250.88 62.00 251.00 C 119.84 250.99 177.67 251.01 235.50 250.99 C 235.64 236.33 235.70 221.66 235.49 207.01 C 234.06 202.55 229.98 199.46 227.25 195.74 C 222.20 190.17 218.42 183.40 212.41 178.76 C 212.42 184.02 211.90 189.34 212.56 194.57 C 215.03 198.83 218.74 202.22 221.24 206.48 C 159.46 206.62 97.67 206.55 35.89 206.51 C 38.49 202.35 42.06 198.86 44.53 194.63 C 45.12 189.32 44.73 183.94 44.55 178.62 C 40.48 181.91 37.76 186.46 34.39 190.40 Z" />
<path fill="#fefefe" opacity="1.00" d=" M 85.52 89.14 C 92.03 88.90 98.55 88.97 105.06 89.02 C 109.66 89.23 114.79 89.39 118.41 92.64 C 121.70 95.96 122.24 101.15 121.19 105.51 C 119.55 110.17 114.87 112.65 110.31 113.64 C 116.91 118.46 120.64 125.88 124.98 132.57 C 121.43 132.59 117.89 132.57 114.34 132.56 C 110.98 127.59 108.11 122.28 104.45 117.52 C 102.19 114.46 97.97 114.65 94.57 114.45 C 94.40 120.49 94.47 126.53 94.51 132.57 C 91.52 132.56 88.52 132.56 85.52 132.56 C 85.61 118.09 85.60 103.62 85.52 89.14 M 94.51 96.48 C 94.43 100.17 94.43 103.86 94.50 107.54 C 99.47 107.56 104.47 107.87 109.41 107.25 C 113.46 105.40 113.86 98.36 109.47 96.71 C 104.51 96.13 99.49 96.49 94.51 96.48 Z" />
<path fill="#fefefe" opacity="1.00" d=" M 130.59 89.00 C 133.22 89.00 135.85 88.99 138.48 88.99 C 138.66 103.51 138.55 118.04 138.54 132.56 C 135.87 132.55 133.20 132.54 130.53 132.52 C 130.54 118.02 130.42 103.51 130.59 89.00 Z" />
<path fill="#fefefe" opacity="1.00" d=" M 147.70 89.03 C 155.89 89.13 164.19 88.45 172.30 89.88 C 177.80 90.98 181.29 96.55 180.57 101.99 C 181.80 108.66 176.54 115.24 169.95 116.06 C 165.19 116.69 160.37 116.27 155.59 116.54 C 155.58 121.88 155.60 127.22 155.55 132.56 C 152.91 132.55 150.28 132.54 147.64 132.52 C 147.65 118.02 147.54 103.53 147.70 89.03 M 156.41 96.50 C 156.26 100.56 156.26 104.62 156.37 108.68 C 160.47 108.62 164.77 109.32 168.75 108.03 C 172.96 106.34 173.23 99.72 169.24 97.61 C 165.41 95.41 160.63 96.77 156.41 96.50 Z" />
</g>
<g id="#726b7dff">
<path fill="#726b7d" opacity="1.00" d=" M 84.95 19.05 C 97.87 10.34 113.29 4.82 129.00 5.18 C 145.87 4.79 162.30 11.28 175.73 21.21 C 190.08 33.11 200.16 50.16 203.21 68.59 C 203.99 73.68 203.86 78.86 203.95 84.00 C 203.94 120.49 203.95 156.98 203.94 193.47 C 161.30 193.61 118.65 193.49 76.00 193.53 C 68.60 193.47 61.20 193.68 53.81 193.38 C 53.62 157.26 53.79 121.13 53.72 85.00 C 53.94 77.57 54.06 70.04 55.92 62.79 C 60.19 45.45 70.58 29.68 84.95 19.05 M 85.52 89.14 C 85.60 103.62 85.61 118.09 85.52 132.56 C 88.52 132.56 91.52 132.56 94.51 132.57 C 94.47 126.53 94.40 120.49 94.57 114.45 C 97.97 114.65 102.19 114.46 104.45 117.52 C 108.11 122.28 110.98 127.59 114.34 132.56 C 117.89 132.57 121.43 132.59 124.98 132.57 C 120.64 125.88 116.91 118.46 110.31 113.64 C 114.87 112.65 119.55 110.17 121.19 105.51 C 122.24 101.15 121.70 95.96 118.41 92.64 C 114.79 89.39 109.66 89.23 105.06 89.02 C 98.55 88.97 92.03 88.90 85.52 89.14 M 130.59 89.00 C 130.42 103.51 130.54 118.02 130.53 132.52 C 133.20 132.54 135.87 132.55 138.54 132.56 C 138.55 118.04 138.66 103.51 138.48 88.99 C 135.85 88.99 133.22 89.00 130.59 89.00 M 147.70 89.03 C 147.54 103.53 147.65 118.02 147.64 132.52 C 150.28 132.54 152.91 132.55 155.55 132.56 C 155.60 127.22 155.58 121.88 155.59 116.54 C 160.37 116.27 165.19 116.69 169.95 116.06 C 176.54 115.24 181.80 108.66 180.57 101.99 C 181.29 96.55 177.80 90.98 172.30 89.88 C 164.19 88.45 155.89 89.13 147.70 89.03 Z" />
<path fill="#726b7d" opacity="1.00" d=" M 94.51 96.48 C 99.49 96.49 104.51 96.13 109.47 96.71 C 113.86 98.36 113.46 105.40 109.41 107.25 C 104.47 107.87 99.47 107.56 94.50 107.54 C 94.43 103.86 94.43 100.17 94.51 96.48 Z" />
<path fill="#726b7d" opacity="1.00" d=" M 156.41 96.50 C 160.63 96.77 165.41 95.41 169.24 97.61 C 173.23 99.72 172.96 106.34 168.75 108.03 C 164.77 109.32 160.47 108.62 156.37 108.68 C 156.26 104.62 156.26 100.56 156.41 96.50 Z" />
<path fill="#726b7d" opacity="1.00" d=" M 34.39 190.40 C 37.76 186.46 40.48 181.91 44.55 178.62 C 44.73 183.94 45.12 189.32 44.53 194.63 C 42.06 198.86 38.49 202.35 35.89 206.51 C 97.67 206.55 159.46 206.62 221.24 206.48 C 218.74 202.22 215.03 198.83 212.56 194.57 C 211.90 189.34 212.42 184.02 212.41 178.76 C 218.42 183.40 222.20 190.17 227.25 195.74 C 229.98 199.46 234.06 202.55 235.49 207.01 C 235.70 221.66 235.64 236.33 235.50 250.99 C 177.67 251.01 119.84 250.99 62.00 251.00 C 48.14 250.88 34.27 251.25 20.42 250.80 C 20.66 236.32 20.15 221.81 20.66 207.36 C 24.59 201.23 30.03 196.22 34.39 190.40 Z" />
</g>
</svg>
