<?xml version="1.0" encoding="UTF-8" ?>
<!DOCTYPE svg PUBLIC "-//W3C//DTD SVG 1.1//EN" "http://www.w3.org/Graphics/SVG/1.1/DTD/svg11.dtd">
<svg width="256pt" height="256pt" viewBox="0 0 256 256" version="1.1" xmlns="http://www.w3.org/2000/svg">
<g id="#569a55ff">
<path fill="#569a55" opacity="1.00" d=" M 0.00 0.00 L 256.00 0.00 L 256.00 0.96 C 170.67 1.04 85.33 1.01 0.00 0.98 L 0.00 0.00 Z" />
<path fill="#569a55" opacity="1.00" d=" M 0.00 255.03 C 85.33 254.98 170.67 254.97 256.00 255.03 L 256.00 256.00 L 0.00 256.00 L 0.00 255.03 Z" />
</g>
<g id="#4a9349ff">
<path fill="#4a9349" opacity="1.00" d=" M 0.00 0.98 C 85.33 1.01 170.67 1.04 256.00 0.96 L 256.00 1.68 C 254.45 26.76 255.06 51.89 255.00 77.00 C 254.98 123.67 255.05 170.33 254.94 217.00 C 254.87 229.46 255.28 241.92 256.00 254.36 L 256.00 255.03 C 170.67 254.97 85.33 254.98 0.00 255.03 L 0.00 254.32 C 1.55 229.24 0.94 204.11 1.00 179.00 C 1.02 132.33 0.95 85.67 1.06 39.00 C 1.13 26.54 0.71 14.08 0.00 1.64 L 0.00 0.98 M 98.48 4.59 C 97.37 35.71 98.30 66.86 98.00 97.99 C 66.83 98.36 35.64 97.20 4.50 98.70 L 5.16 98.73 C 4.85 118.48 5.02 138.24 5.01 157.99 L 5.00 159.00 C 36.00 159.02 66.99 158.97 97.99 159.01 C 98.32 189.83 97.29 220.68 98.63 251.49 L 98.65 250.84 C 118.56 251.11 138.48 251.14 158.40 250.78 L 158.43 251.40 C 159.70 220.62 158.67 189.80 159.00 159.01 C 189.83 158.68 220.68 159.71 251.49 158.37 L 250.84 158.35 C 251.11 138.44 251.14 118.51 250.78 98.60 L 251.40 98.57 C 220.62 97.30 189.80 98.32 159.01 98.00 C 158.68 66.84 159.71 35.66 158.37 4.51 L 158.35 5.16 C 138.40 4.86 118.45 4.91 98.50 5.20 L 98.48 4.59 Z" />
</g>
<g id="#569a55fe">
<path fill="#569a55" opacity="1.00" d=" M 0.00 1.64 C 0.71 14.08 1.13 26.54 1.06 39.00 C 0.95 85.67 1.02 132.33 1.00 179.00 C 0.94 204.11 1.55 229.24 0.00 254.32 L 0.00 1.64 Z" />
<path fill="#569a55" opacity="1.00" d=" M 255.00 77.00 C 255.06 51.89 254.45 26.76 256.00 1.68 L 256.00 254.36 C 255.28 241.92 254.87 229.46 254.94 217.00 C 255.05 170.33 254.98 123.67 255.00 77.00 Z" />
</g>
<g id="#598358ff">
<path fill="#598358" opacity="1.00" d=" M 98.48 4.59 L 98.50 5.20 C 99.55 36.45 98.79 67.73 99.00 99.00 C 67.72 98.87 36.43 99.33 5.16 98.73 L 4.50 98.70 C 35.64 97.20 66.83 98.36 98.00 97.99 C 98.30 66.86 97.37 35.71 98.48 4.59 Z" />
</g>
<g id="#fefefeff">
<path fill="#fefefe" opacity="1.00" d=" M 98.50 5.20 C 118.45 4.91 138.40 4.86 158.35 5.16 C 157.63 36.44 158.12 67.72 158.01 99.01 C 188.93 98.79 219.86 99.49 250.78 98.60 C 251.14 118.51 251.11 138.44 250.84 158.35 C 219.90 157.63 188.94 158.12 157.99 158.01 C 158.20 188.93 157.51 219.86 158.40 250.78 C 138.48 251.14 118.56 251.11 98.65 250.84 C 99.37 219.90 98.88 188.95 98.99 158.01 C 67.66 157.98 36.34 158.01 5.01 157.99 C 5.02 138.24 4.85 118.48 5.16 98.73 C 36.43 99.33 67.72 98.87 99.00 99.00 C 98.79 67.73 99.55 36.45 98.50 5.20 Z" />
</g>
<g id="#568256ff">
<path fill="#568256" opacity="1.00" d=" M 158.35 5.16 L 158.37 4.51 C 159.71 35.66 158.68 66.84 159.01 98.00 C 189.80 98.32 220.62 97.30 251.40 98.57 L 250.78 98.60 C 219.86 99.49 188.93 98.79 158.01 99.01 C 158.12 67.72 157.63 36.44 158.35 5.16 Z" />
<path fill="#568256" opacity="1.00" d=" M 5.01 157.99 C 36.34 158.01 67.66 157.98 98.99 158.01 C 98.88 188.95 99.37 219.90 98.65 250.84 L 98.63 251.49 C 97.29 220.68 98.32 189.83 97.99 159.01 C 66.99 158.97 36.00 159.02 5.00 159.00 L 5.01 157.99 Z" />
</g>
<g id="#548154ff">
<path fill="#548154" opacity="1.00" d=" M 157.99 158.01 C 188.94 158.12 219.90 157.63 250.84 158.35 L 251.49 158.37 C 220.68 159.71 189.83 158.68 159.00 159.01 C 158.67 189.80 159.70 220.62 158.43 251.40 L 158.40 250.78 C 157.51 219.86 158.20 188.93 157.99 158.01 Z" />
</g>
</svg>
