<?xml version="1.0" encoding="UTF-8" ?>
<!DOCTYPE svg PUBLIC "-//W3C//DTD SVG 1.1//EN" "http://www.w3.org/Graphics/SVG/1.1/DTD/svg11.dtd">
<svg width="256pt" height="256pt" viewBox="0 0 256 256" version="1.1" xmlns="http://www.w3.org/2000/svg">
<g id="#35ff26ff">
<path fill="#35ff26" opacity="1.00" d=" M 41.63 8.15 C 43.46 8.47 43.95 10.40 44.81 11.76 C 48.62 18.29 52.54 24.77 56.43 31.27 C 56.46 31.33 56.53 31.45 56.57 31.51 C 67.27 49.44 77.73 67.52 88.54 85.39 C 88.56 85.43 88.61 85.52 88.64 85.56 C 89.09 86.30 89.98 87.78 90.43 88.52 C 90.46 88.57 90.51 88.66 90.54 88.71 C 96.01 98.20 101.71 107.56 107.11 117.09 C 107.66 118.16 108.21 119.22 108.77 120.28 C 109.03 119.48 109.25 118.67 109.43 117.85 C 110.41 102.34 110.15 86.71 111.59 71.23 C 119.59 81.55 127.05 92.31 134.55 103.00 C 135.31 104.30 136.09 105.60 136.90 106.88 C 138.37 104.55 139.39 101.97 140.04 99.30 C 140.65 97.33 141.51 95.46 142.34 93.59 C 142.36 93.54 142.40 93.45 142.43 93.41 L 143.34 91.68 L 143.45 91.48 L 143.53 91.26 C 147.65 81.31 152.12 71.51 156.36 61.61 C 157.13 59.65 158.01 57.74 158.77 55.78 C 162.08 48.43 165.07 40.95 168.38 33.61 C 168.40 33.56 168.45 33.45 168.47 33.40 L 169.28 31.57 C 169.31 31.50 169.38 31.36 169.41 31.29 L 170.00 30.04 C 170.48 29.45 171.44 28.26 171.92 27.67 C 171.95 29.58 171.96 31.49 171.96 33.40 C 171.52 39.96 171.10 46.63 169.62 53.04 C 168.82 54.82 168.54 56.77 168.90 58.70 C 168.86 59.31 168.77 60.52 168.73 61.13 C 167.72 63.15 167.44 65.39 167.81 67.61 L 167.91 69.20 C 166.42 71.07 166.53 73.50 166.98 75.71 C 166.92 76.33 166.80 77.56 166.74 78.18 C 165.73 80.20 165.44 82.45 165.92 84.67 C 166.29 88.18 166.01 91.83 164.77 95.16 C 163.75 97.20 163.45 99.48 164.02 101.70 C 163.96 102.32 163.85 103.54 163.79 104.16 C 162.82 106.19 162.45 108.44 162.96 110.65 C 163.72 114.81 162.09 118.86 162.09 123.01 C 161.23 128.22 161.23 133.54 160.06 138.70 C 166.93 132.87 173.23 126.40 179.84 120.29 C 182.17 118.99 183.55 114.96 186.60 115.60 C 186.19 120.82 184.63 125.85 184.05 131.05 C 183.19 134.63 182.57 138.29 182.11 141.94 C 181.09 144.77 180.98 147.85 180.60 150.81 C 185.34 146.88 189.83 142.64 194.70 138.85 C 197.37 137.06 199.93 135.08 202.13 132.73 C 208.14 127.29 214.41 122.13 220.65 116.95 C 222.76 115.65 224.60 113.97 226.31 112.17 C 232.94 106.23 239.91 100.68 246.65 94.87 C 248.05 93.94 249.46 93.04 250.90 92.16 C 250.47 93.23 249.61 95.36 249.18 96.42 C 241.86 110.01 234.71 123.70 227.58 137.39 C 227.55 137.43 227.51 137.51 227.49 137.55 C 226.99 138.50 226.45 139.42 225.89 140.33 C 224.33 142.61 222.98 145.03 222.04 147.63 L 221.66 148.51 C 221.63 148.56 221.59 148.66 221.56 148.71 C 212.39 165.50 203.79 182.61 194.70 199.45 C 194.67 199.51 194.61 199.63 194.58 199.69 L 193.62 201.56 C 193.60 201.60 193.56 201.68 193.53 201.72 C 191.62 205.37 189.43 208.89 187.86 212.72 C 190.62 212.43 193.36 211.87 195.97 210.91 C 205.79 208.62 215.42 205.52 225.30 203.50 C 217.77 211.23 210.60 219.30 203.07 227.01 C 201.39 228.72 199.65 230.43 198.65 232.65 C 198.02 232.31 197.40 231.94 196.81 231.55 C 197.02 232.01 197.45 232.93 197.66 233.39 C 206.26 233.37 214.86 233.16 223.46 233.47 C 223.62 238.63 223.64 243.80 223.42 248.96 C 152.60 248.97 81.78 249.02 10.96 248.94 C 10.84 243.79 10.86 238.64 10.97 233.49 C 21.66 233.12 32.37 233.42 43.06 233.37 C 42.58 232.22 42.08 231.09 41.56 229.96 C 40.76 228.17 39.85 226.43 39.07 224.63 C 38.50 223.29 37.97 221.94 37.41 220.61 C 37.39 220.56 37.35 220.48 37.34 220.43 C 36.70 218.82 36.05 217.21 35.38 215.61 C 35.36 215.56 35.32 215.46 35.30 215.41 C 34.34 213.14 33.40 210.87 32.46 208.60 C 32.44 208.56 32.41 208.47 32.39 208.42 C 31.75 206.81 31.09 205.19 30.43 203.59 C 30.41 203.55 30.37 203.46 30.35 203.41 C 22.55 184.06 14.74 164.70 6.85 145.39 C 6.67 144.57 6.29 142.93 6.11 142.11 L 8.25 142.77 C 19.44 151.40 30.34 160.46 41.83 168.68 C 36.08 141.27 30.18 113.87 24.96 86.35 C 26.19 87.39 27.19 88.58 27.96 89.94 C 28.35 91.42 29.34 92.59 30.71 93.25 C 31.10 93.62 31.89 94.35 32.28 94.72 C 34.26 97.91 36.69 100.79 39.45 103.33 C 43.39 107.69 47.09 112.26 50.84 116.79 C 52.22 118.67 53.76 120.43 55.36 122.13 C 56.87 123.84 58.48 125.49 59.71 127.43 C 60.61 129.02 61.74 130.47 63.09 131.71 C 63.02 129.55 62.73 127.40 62.01 125.36 C 57.36 102.06 54.14 78.38 49.78 55.04 C 48.15 43.35 46.01 31.70 43.94 20.07 C 43.27 16.09 43.13 11.94 41.63 8.15 M 91.80 173.24 C 91.29 185.79 90.10 198.37 90.16 210.91 C 83.46 205.21 76.75 199.51 70.02 193.85 C 68.41 191.87 66.64 189.90 64.20 188.96 C 64.01 191.69 64.13 194.43 64.46 197.14 C 65.57 209.09 66.12 221.10 67.64 233.01 C 96.11 232.90 124.58 232.98 153.05 232.96 C 154.42 232.91 155.79 232.82 157.16 232.67 L 157.54 232.72 C 161.43 220.79 166.56 209.23 171.06 197.49 C 172.82 195.62 173.41 193.05 173.85 190.60 L 174.05 190.09 C 174.87 188.78 175.51 187.37 176.02 185.91 C 173.98 186.45 172.04 187.38 170.65 189.02 C 168.65 190.15 166.71 191.39 164.72 192.55 C 164.67 192.57 164.58 192.63 164.53 192.66 C 156.72 197.40 148.87 202.08 141.02 206.78 C 140.93 192.02 141.25 177.26 140.85 162.51 C 140.79 162.61 140.67 162.80 140.61 162.90 L 139.68 164.44 C 139.65 164.51 139.57 164.65 139.53 164.71 L 138.63 166.44 C 138.60 166.49 138.55 166.59 138.52 166.64 C 135.17 172.87 131.67 179.03 128.48 185.34 C 128.22 186.29 127.63 186.78 126.70 186.82 C 125.67 184.73 124.99 182.51 124.32 180.29 C 121.34 187.30 119.72 194.83 117.12 201.99 C 114.91 198.24 113.01 194.33 110.98 190.48 C 110.51 189.09 110.07 187.69 109.40 186.38 C 104.12 176.19 98.92 165.96 93.32 155.94 C 91.54 161.50 92.53 167.49 91.80 173.24 Z" />
</g>
<g id="#4c9744be">
<path fill="#4c9744" opacity="0.75" d=" M 170.00 30.04 C 170.70 27.67 171.64 25.36 173.09 23.34 C 172.85 26.67 173.67 30.35 171.96 33.40 C 171.96 31.49 171.95 29.58 171.92 27.67 C 171.44 28.26 170.48 29.45 170.00 30.04 Z" />
</g>
<g id="#4f7d49a3">
<path fill="#4f7d49" opacity="0.64" d=" M 56.43 31.27 C 56.46 31.33 56.53 31.45 56.57 31.51 C 56.53 31.45 56.46 31.33 56.43 31.27 Z" />
</g>
<g id="#70bc66df">
<path fill="#70bc66" opacity="0.87" d=" M 169.28 31.57 C 169.31 31.50 169.38 31.36 169.41 31.29 C 169.38 31.36 169.31 31.50 169.28 31.57 Z" />
</g>
<g id="#609159bb">
<path fill="#609159" opacity="0.73" d=" M 168.38 33.61 C 168.40 33.56 168.45 33.45 168.47 33.40 C 168.45 33.45 168.40 33.56 168.38 33.61 Z" />
</g>
<g id="#5da354c6">
<path fill="#5da354" opacity="0.78" d=" M 168.90 58.70 C 168.54 56.77 168.82 54.82 169.62 53.04 C 170.52 54.51 170.77 58.19 168.90 58.70 Z" />
</g>
<g id="#5dac54ca">
<path fill="#5dac54" opacity="0.79" d=" M 167.81 67.61 C 167.44 65.39 167.72 63.15 168.73 61.13 C 169.37 62.96 169.81 66.74 167.81 67.61 Z" />
</g>
<g id="#60c156da">
<path fill="#60c156" opacity="0.85" d=" M 166.98 75.71 C 166.53 73.50 166.42 71.07 167.91 69.20 C 168.11 71.12 168.88 74.75 166.98 75.71 Z" />
</g>
<g id="#3d8736b3">
<path fill="#3d8736" opacity="0.70" d=" M 110.47 72.05 C 110.56 71.18 111.00 70.51 111.78 70.05 C 111.74 70.34 111.64 70.93 111.59 71.23 C 110.15 86.71 110.41 102.34 109.43 117.85 C 109.25 118.67 109.03 119.48 108.77 120.28 C 108.21 119.22 107.66 118.16 107.11 117.09 C 107.60 117.60 108.58 118.62 109.07 119.13 C 109.14 110.72 108.45 102.23 109.89 93.90 C 110.36 86.63 109.47 79.29 110.47 72.05 Z" />
</g>
<g id="#5db853d1">
<path fill="#5db853" opacity="0.82" d=" M 165.92 84.67 C 165.44 82.45 165.73 80.20 166.74 78.18 C 167.40 79.99 167.81 83.80 165.92 84.67 Z" />
</g>
<g id="#578a4fc1">
<path fill="#578a4f" opacity="0.76" d=" M 88.54 85.39 C 88.56 85.43 88.61 85.52 88.64 85.56 C 88.61 85.52 88.56 85.43 88.54 85.39 Z" />
</g>
<g id="#3b55377e">
<path fill="#3b5537" opacity="0.49" d=" M 90.43 88.52 C 90.46 88.57 90.51 88.66 90.54 88.71 C 90.51 88.66 90.46 88.57 90.43 88.52 Z" />
</g>
<g id="#387c328f">
<path fill="#387c32" opacity="0.56" d=" M 27.96 89.94 C 29.52 89.35 31.53 91.82 30.71 93.25 C 29.34 92.59 28.35 91.42 27.96 89.94 Z" />
</g>
<g id="#67b15ed3">
<path fill="#67b15e" opacity="0.83" d=" M 143.34 91.68 C 143.39 91.58 143.48 91.37 143.53 91.26 L 143.45 91.48 L 143.34 91.68 Z" />
</g>
<g id="#3d80369c">
<path fill="#3d8036" opacity="0.61" d=" M 246.65 94.87 C 247.93 93.35 249.42 92.03 250.98 90.80 C 251.45 92.93 250.47 94.82 249.18 96.42 C 249.61 95.36 250.47 93.23 250.90 92.16 C 249.46 93.04 248.05 93.94 246.65 94.87 Z" />
</g>
<g id="#598b52ab">
<path fill="#598b52" opacity="0.67" d=" M 142.34 93.59 C 142.36 93.54 142.40 93.45 142.43 93.41 C 142.40 93.45 142.36 93.54 142.34 93.59 Z" />
</g>
<g id="#33822c9d">
<path fill="#33822c" opacity="0.62" d=" M 32.28 94.72 C 34.99 97.30 37.48 100.15 39.45 103.33 C 36.69 100.79 34.26 97.91 32.28 94.72 Z" />
</g>
<g id="#5cc251d9">
<path fill="#5cc251" opacity="0.85" d=" M 164.02 101.70 C 163.45 99.48 163.75 97.20 164.77 95.16 C 165.40 97.00 165.85 100.71 164.02 101.70 Z" />
</g>
<g id="#44a43bc1">
<path fill="#44a43b" opacity="0.76" d=" M 136.79 105.43 C 137.89 103.39 138.84 101.28 140.04 99.30 C 139.39 101.97 138.37 104.55 136.90 106.88 C 136.09 105.60 135.31 104.30 134.55 103.00 C 135.11 103.61 136.23 104.82 136.79 105.43 Z" />
</g>
<g id="#58b94ed0">
<path fill="#58b94e" opacity="0.82" d=" M 162.96 110.65 C 162.45 108.44 162.82 106.19 163.79 104.16 C 164.51 105.98 164.80 109.70 162.96 110.65 Z" />
</g>
<g id="#42a339b7">
<path fill="#42a339" opacity="0.72" d=" M 220.65 116.95 C 222.22 115.03 224.09 113.33 226.31 112.17 C 224.60 113.97 222.76 115.65 220.65 116.95 Z" />
</g>
<g id="#23411f69">
<path fill="#23411f" opacity="0.41" d=" M 183.94 114.64 C 184.97 113.70 186.57 114.08 187.84 113.78 C 187.72 114.53 187.48 116.04 187.36 116.80 L 186.60 115.60 C 183.55 114.96 182.17 118.99 179.84 120.29 C 181.16 118.36 182.87 116.72 183.94 114.64 Z" />
</g>
<g id="#19301651">
<path fill="#193016" opacity="0.32" d=" M 50.84 116.79 C 52.93 117.97 54.65 119.78 55.36 122.13 C 53.76 120.43 52.22 118.67 50.84 116.79 Z" />
</g>
<g id="#58ba4ed2">
<path fill="#58ba4e" opacity="0.82" d=" M 62.01 125.36 C 62.73 127.40 63.02 129.55 63.09 131.71 C 61.74 130.47 60.61 129.02 59.71 127.43 C 60.33 127.99 61.58 129.11 62.20 129.67 C 62.15 128.60 62.06 126.44 62.01 125.36 Z" />
</g>
<g id="#36852fa0">
<path fill="#36852f" opacity="0.63" d=" M 194.70 138.85 C 196.91 136.52 199.17 134.12 202.13 132.73 C 199.93 135.08 197.37 137.06 194.70 138.85 Z" />
</g>
<g id="#466f41a1">
<path fill="#466f41" opacity="0.63" d=" M 227.49 137.55 C 227.51 137.51 227.55 137.43 227.58 137.39 C 227.55 137.43 227.51 137.51 227.49 137.55 Z" />
</g>
<g id="#52a449c0">
<path fill="#52a449" opacity="0.75" d=" M 4.91 140.21 C 6.15 140.88 7.27 141.74 8.25 142.77 L 6.11 142.11 C 6.29 142.93 6.67 144.57 6.85 145.39 C 5.79 143.84 5.12 142.07 4.91 140.21 Z" />
</g>
<g id="#46a63dbc">
<path fill="#46a63d" opacity="0.74" d=" M 222.04 147.63 C 222.98 145.03 224.33 142.61 225.89 140.33 C 224.87 142.89 223.71 145.43 222.04 147.63 Z" />
</g>
<g id="#5c9d54bd">
<path fill="#5c9d54" opacity="0.74" d=" M 221.56 148.71 C 221.59 148.66 221.63 148.56 221.66 148.51 C 221.63 148.56 221.59 148.66 221.56 148.71 Z" />
</g>
<g id="#378030a8">
<path fill="#378030" opacity="0.66" d=" M 91.80 173.24 C 92.53 167.49 91.54 161.50 93.32 155.94 C 98.92 165.96 104.12 176.19 109.40 186.38 C 110.07 187.69 110.51 189.09 110.98 190.48 C 110.40 189.53 109.80 188.60 109.19 187.67 C 105.73 180.93 102.15 174.25 98.78 167.46 C 97.06 164.19 95.68 160.67 93.11 157.93 C 92.75 163.56 93.45 169.23 92.51 174.83 C 91.40 181.05 92.67 187.41 91.36 193.62 C 90.29 199.34 91.98 205.30 90.16 210.91 C 90.10 198.37 91.29 185.79 91.80 173.24 Z" />
</g>
<g id="#67bf5cdd">
<path fill="#67bf5c" opacity="0.87" d=" M 140.61 162.90 C 140.67 162.80 140.79 162.61 140.85 162.51 L 140.61 162.90 Z" />
</g>
<g id="#5fa456c5">
<path fill="#5fa456" opacity="0.77" d=" M 139.53 164.71 C 139.57 164.65 139.65 164.51 139.68 164.44 C 139.65 164.51 139.57 164.65 139.53 164.71 Z" />
</g>
<g id="#558c4fab">
<path fill="#558c4f" opacity="0.67" d=" M 138.52 166.64 C 138.55 166.59 138.60 166.49 138.63 166.44 C 138.60 166.49 138.55 166.59 138.52 166.64 Z" />
</g>
<g id="#438d3baa">
<path fill="#438d3b" opacity="0.67" d=" M 170.65 189.02 C 172.04 187.38 173.98 186.45 176.02 185.91 C 175.51 187.37 174.87 188.78 174.05 190.09 C 174.27 189.28 174.72 187.67 174.94 186.86 C 173.50 187.56 172.07 188.28 170.65 189.02 Z" />
</g>
<g id="#378830b2">
<path fill="#378830" opacity="0.70" d=" M 64.20 188.96 C 66.64 189.90 68.41 191.87 70.02 193.85 C 67.42 193.99 66.43 191.37 65.10 189.68 C 64.45 195.20 66.06 200.59 66.05 206.08 C 66.11 209.42 66.88 212.70 66.95 216.04 C 66.95 221.40 68.52 226.69 67.72 232.06 L 67.64 233.01 C 66.12 221.10 65.57 209.09 64.46 197.14 C 64.13 194.43 64.01 191.69 64.20 188.96 Z" />
</g>
<g id="#49b23fc7">
<path fill="#49b23f" opacity="0.78" d=" M 171.06 197.49 C 171.86 195.14 172.82 192.86 173.85 190.60 C 173.41 193.05 172.82 195.62 171.06 197.49 Z" />
</g>
<g id="#59a051bf">
<path fill="#59a051" opacity="0.75" d=" M 164.53 192.66 C 164.58 192.63 164.67 192.57 164.72 192.55 C 164.67 192.57 164.58 192.63 164.53 192.66 Z" />
</g>
<g id="#64b15bd3">
<path fill="#64b15b" opacity="0.83" d=" M 194.58 199.69 C 194.61 199.63 194.67 199.51 194.70 199.45 C 194.67 199.51 194.61 199.63 194.58 199.69 Z" />
</g>
<g id="#599b51bd">
<path fill="#599b51" opacity="0.74" d=" M 193.53 201.72 C 193.56 201.68 193.60 201.60 193.62 201.56 C 193.60 201.60 193.56 201.68 193.53 201.72 Z" />
</g>
<g id="#568b4eb7">
<path fill="#568b4e" opacity="0.72" d=" M 30.35 203.41 C 30.37 203.46 30.41 203.55 30.43 203.59 C 30.41 203.55 30.37 203.46 30.35 203.41 Z" />
</g>
<g id="#568450a5">
<path fill="#568450" opacity="0.65" d=" M 32.39 208.42 C 32.41 208.47 32.44 208.56 32.46 208.60 C 32.44 208.56 32.41 208.47 32.39 208.42 Z" />
</g>
<g id="#5da154c1">
<path fill="#5da154" opacity="0.76" d=" M 35.30 215.41 C 35.32 215.46 35.36 215.56 35.38 215.61 C 35.36 215.56 35.32 215.46 35.30 215.41 Z" />
</g>
<g id="#55924daf">
<path fill="#55924d" opacity="0.69" d=" M 37.34 220.43 C 37.35 220.48 37.39 220.56 37.41 220.61 C 37.39 220.56 37.35 220.48 37.34 220.43 Z" />
</g>
<g id="#0a1a094a">
<path fill="#0a1a09" opacity="0.29" d=" M 39.07 224.63 C 39.85 226.43 40.76 228.17 41.56 229.96 C 41.72 230.69 42.04 232.15 42.20 232.88 C 31.47 233.02 20.73 232.93 10.00 232.94 C 10.00 238.59 10.00 244.24 10.00 249.89 L 9.40 249.77 C 9.46 243.96 9.38 238.14 9.43 232.33 C 19.99 231.81 30.57 232.38 41.14 232.06 C 40.18 229.66 39.43 227.18 39.07 224.63 Z" />
</g>
<g id="#65df58f6">
<path fill="#65df58" opacity="0.96" d=" M 41.56 229.96 C 42.08 231.09 42.58 232.22 43.06 233.37 C 32.37 233.42 21.66 233.12 10.97 233.49 C 10.86 238.64 10.84 243.79 10.96 248.94 C 81.78 249.02 152.60 248.97 223.42 248.96 C 223.64 243.80 223.62 238.63 223.46 233.47 C 214.86 233.16 206.26 233.37 197.66 233.39 C 197.45 232.93 197.02 232.01 196.81 231.55 C 197.40 231.94 198.02 232.31 198.65 232.65 C 207.07 232.97 215.56 232.69 224.00 232.78 C 223.99 238.52 224.03 244.25 223.98 249.98 C 165.65 250.07 107.32 249.99 48.99 250.02 C 35.99 249.94 22.99 250.18 10.00 249.89 C 10.00 244.24 10.00 238.59 10.00 232.94 C 20.73 232.93 31.47 233.02 42.20 232.88 C 42.04 232.15 41.72 230.69 41.56 229.96 Z" />
</g>
<g id="#081b0654">
<path fill="#081b06" opacity="0.33" d=" M 67.72 232.06 C 92.15 232.28 116.59 232.12 141.02 232.19 C 146.40 232.28 151.82 231.78 157.16 232.67 C 155.79 232.82 154.42 232.91 153.05 232.96 C 124.58 232.98 96.11 232.90 67.64 233.01 L 67.72 232.06 Z" />
</g>
</svg>
