<?xml version="1.0" encoding="UTF-8" ?>
<!DOCTYPE svg PUBLIC "-//W3C//DTD SVG 1.1//EN" "http://www.w3.org/Graphics/SVG/1.1/DTD/svg11.dtd">
<svg width="256pt" height="256pt" viewBox="0 0 256 256" version="1.1" xmlns="http://www.w3.org/2000/svg">
<g id="#4b944aff">
<path fill="#4b944a" opacity="1.00" d=" M 0.00 0.00 L 256.00 0.00 L 256.00 256.00 L 0.00 256.00 L 0.00 0.00 M 21.90 5.06 C 21.83 10.30 22.02 15.54 21.77 20.78 C 16.51 21.01 11.25 20.85 6.00 20.91 L 6.00 22.00 C 5.99 28.12 6.01 34.23 6.00 40.35 C 11.17 40.49 16.37 40.11 21.53 40.53 C 21.68 40.85 21.99 41.48 22.14 41.79 C 22.22 67.35 22.23 92.91 22.13 118.47 C 16.89 118.74 11.65 118.62 6.43 118.39 L 6.43 118.82 C 5.43 124.91 6.38 131.12 5.87 137.26 C 11.17 138.12 16.56 137.17 21.88 137.82 C 21.90 144.20 21.87 150.58 21.91 156.97 C 28.13 156.70 34.54 157.70 40.63 156.45 C 40.08 150.15 40.37 143.81 40.45 137.49 C 45.22 137.33 49.99 137.45 54.76 137.39 C 55.89 131.01 57.69 124.79 59.52 118.58 C 53.16 118.56 46.81 118.67 40.45 118.52 C 40.26 92.49 40.30 66.45 40.43 40.43 C 66.28 40.31 92.14 40.32 118.00 40.42 C 118.02 46.69 117.97 52.97 118.02 59.24 C 119.05 58.84 120.11 58.54 121.19 58.33 C 126.81 56.07 132.82 55.30 138.63 53.73 C 138.57 49.37 138.64 45.00 138.52 40.63 C 144.76 40.16 151.06 40.23 157.31 40.61 C 158.28 39.28 157.96 37.56 158.04 36.03 C 157.97 30.99 158.03 25.95 157.97 20.91 C 151.62 20.87 145.27 20.93 138.91 20.89 C 138.72 16.94 138.73 12.98 138.82 9.03 C 138.65 7.63 139.22 5.89 138.07 4.78 C 131.72 5.26 125.35 4.88 119.00 5.00 L 118.01 4.97 C 117.96 10.32 118.10 15.67 117.91 21.01 C 92.23 21.14 66.51 21.32 40.85 20.92 C 39.66 15.85 40.61 10.37 40.40 5.13 C 34.60 4.87 28.79 5.05 22.98 5.00 L 21.90 5.06 M 138.27 61.08 C 137.68 61.15 136.49 61.30 135.90 61.38 C 135.40 61.22 134.41 60.90 133.91 60.74 L 133.01 61.30 L 132.98 62.04 C 131.28 61.79 129.62 62.42 127.99 62.78 C 117.61 65.79 107.77 70.58 98.98 76.86 C 82.48 88.16 70.68 105.57 64.50 124.43 C 63.51 128.32 61.63 132.20 62.15 136.30 C 60.27 136.31 60.42 139.74 61.31 140.93 L 60.99 141.68 C 59.77 144.64 60.03 147.89 59.98 151.01 C 60.05 154.45 59.66 158.02 60.85 161.33 C 63.73 190.61 81.74 218.22 107.67 232.28 C 117.92 237.73 129.08 242.15 140.73 243.04 C 144.27 244.65 148.27 243.79 152.04 244.00 C 156.43 243.78 161.03 244.66 165.24 243.04 C 175.97 241.82 186.34 238.17 195.85 233.12 C 200.53 239.08 205.30 244.98 209.93 251.00 C 223.39 251.00 236.85 251.00 250.31 250.98 C 240.66 239.10 231.36 226.93 221.95 214.86 C 220.41 213.30 222.81 211.83 223.60 210.60 C 234.80 196.98 242.56 180.03 244.06 162.38 C 245.66 159.51 244.77 156.08 245.00 152.96 C 244.76 148.91 245.66 144.63 244.06 140.78 C 243.04 128.61 238.64 116.86 232.81 106.20 C 221.52 85.73 201.76 70.55 179.62 63.47 C 177.38 62.81 175.09 61.81 172.70 62.17 C 172.88 60.55 170.06 60.29 169.09 61.15 L 167.67 61.25 C 167.76 59.29 164.24 59.31 163.12 60.38 C 156.24 58.82 148.84 58.84 141.97 60.40 C 141.14 59.26 137.98 59.30 138.27 61.08 Z" />
<path fill="#4b944a" opacity="1.00" d=" M 143.94 81.47 C 144.37 81.34 145.24 81.09 145.67 80.97 C 150.22 80.99 154.77 80.93 159.31 81.02 C 163.24 81.85 167.30 82.14 171.10 83.48 C 172.42 83.95 173.75 84.42 175.12 84.74 C 188.38 88.93 200.26 97.34 208.73 108.36 C 216.76 118.42 221.40 130.91 223.01 143.61 C 223.12 149.20 223.11 154.79 222.99 160.38 C 221.56 171.23 217.92 181.83 211.91 191.01 C 202.98 203.94 190.11 214.50 174.96 219.15 C 158.04 224.62 139.05 223.63 122.85 216.26 C 102.51 207.01 87.36 187.51 83.16 165.60 C 83.12 164.09 82.91 162.59 82.33 161.19 L 82.06 160.34 C 81.87 154.73 81.91 149.12 82.01 143.51 L 82.25 142.78 C 82.90 141.40 83.09 139.88 83.13 138.38 C 86.49 120.07 97.54 103.29 113.05 92.96 C 121.31 87.68 130.57 83.65 140.28 82.10 C 141.53 82.15 142.77 81.93 143.94 81.47 M 141.19 87.51 L 141.25 88.10 C 138.55 87.69 135.91 88.66 133.38 89.46 C 128.63 91.15 123.86 92.97 119.63 95.75 C 119.28 95.94 118.59 96.31 118.25 96.49 C 117.64 103.84 118.24 111.26 117.94 118.63 C 110.86 118.48 103.78 118.75 96.70 118.47 C 93.85 123.67 90.54 129.17 90.09 135.14 C 88.50 135.53 88.25 136.46 89.33 137.95 C 87.13 142.14 87.93 147.23 87.07 151.79 C 98.22 152.13 109.45 151.20 120.55 152.28 C 120.60 158.44 120.40 164.60 120.68 170.76 C 131.11 170.67 141.55 170.65 151.98 170.76 C 152.52 164.57 151.99 158.35 152.31 152.15 C 158.45 151.42 164.65 151.98 170.83 151.81 C 170.71 141.48 171.09 131.14 170.62 120.82 L 171.36 120.17 C 165.03 119.83 158.68 120.07 152.34 120.00 C 152.04 108.80 152.30 97.58 152.21 86.37 C 149.79 86.64 147.28 86.60 144.96 87.41 C 143.66 86.35 142.40 86.38 141.19 87.51 Z" />
</g>
<g id="#7bc8e0ff">
<path fill="#7bc8e0" opacity="1.00" d=" M 21.90 5.06 L 22.98 5.00 C 22.98 10.59 23.13 16.17 22.76 21.75 C 17.18 22.04 11.59 21.91 6.00 22.00 L 6.00 20.91 C 11.25 20.85 16.51 21.01 21.77 20.78 C 22.02 15.54 21.83 10.30 21.90 5.06 Z" />
</g>
<g id="#66ccffff">
<path fill="#66ccff" opacity="1.00" d=" M 22.98 5.00 C 28.79 5.05 34.60 4.87 40.40 5.13 C 40.61 10.37 39.66 15.85 40.85 20.92 C 66.51 21.32 92.23 21.14 117.91 21.01 L 118.82 20.91 C 119.16 15.62 118.95 10.31 119.00 5.00 C 125.35 4.88 131.72 5.26 138.07 4.78 C 137.73 10.41 137.76 16.05 138.08 21.68 C 144.42 21.79 150.77 21.44 157.10 21.87 C 157.48 28.11 157.09 34.37 157.31 40.61 C 151.06 40.23 144.76 40.16 138.52 40.63 C 138.64 45.00 138.57 49.37 138.63 53.73 C 132.82 55.30 126.81 56.07 121.19 58.33 C 120.68 58.15 119.64 57.80 119.13 57.62 C 118.69 51.91 119.35 46.18 118.76 40.48 L 118.00 40.42 C 92.14 40.32 66.28 40.31 40.43 40.43 C 40.30 66.45 40.26 92.49 40.45 118.52 C 46.81 118.67 53.16 118.56 59.52 118.58 C 57.69 124.79 55.89 131.01 54.76 137.39 C 49.99 137.45 45.22 137.33 40.45 137.49 C 40.37 143.81 40.08 150.15 40.63 156.45 C 34.69 156.15 28.74 156.55 22.80 156.18 C 22.50 149.83 22.75 143.46 22.65 137.11 C 17.45 136.92 12.23 136.68 7.04 137.16 C 6.68 131.05 7.60 124.83 6.43 118.82 L 6.43 118.39 C 11.65 118.62 16.89 118.74 22.13 118.47 C 22.23 92.91 22.22 67.35 22.14 41.79 C 21.99 41.48 21.68 40.85 21.53 40.53 C 16.37 40.11 11.17 40.49 6.00 40.35 C 6.01 34.23 5.99 28.12 6.00 22.00 C 11.59 21.91 17.18 22.04 22.76 21.75 C 23.13 16.17 22.98 10.59 22.98 5.00 Z" />
<path fill="#66ccff" opacity="1.00" d=" M 141.97 60.40 C 148.84 58.84 156.24 58.82 163.12 60.38 C 164.56 60.96 166.08 61.54 167.67 61.25 L 169.09 61.15 C 169.94 62.26 171.42 62.39 172.70 62.17 C 175.09 61.81 177.38 62.81 179.62 63.47 C 201.76 70.55 221.52 85.73 232.81 106.20 C 238.64 116.86 243.04 128.61 244.06 140.78 C 244.18 147.98 244.21 155.17 244.06 162.38 C 242.56 180.03 234.80 196.98 223.60 210.60 C 222.81 211.83 220.41 213.30 221.95 214.86 C 231.36 226.93 240.66 239.10 250.31 250.98 C 236.85 251.00 223.39 251.00 209.93 251.00 C 205.30 244.98 200.53 239.08 195.85 233.12 C 186.34 238.17 175.97 241.82 165.24 243.04 C 157.06 243.36 148.91 243.18 140.73 243.04 C 129.08 242.15 117.92 237.73 107.67 232.28 C 81.74 218.22 63.73 190.61 60.85 161.33 C 60.88 154.78 60.71 148.23 60.99 141.68 L 61.31 140.93 C 62.09 139.51 62.48 137.90 62.15 136.30 C 61.63 132.20 63.51 128.32 64.50 124.43 C 70.68 105.57 82.48 88.16 98.98 76.86 C 107.77 70.58 117.61 65.79 127.99 62.78 C 129.62 62.42 131.28 61.79 132.98 62.04 C 134.04 62.25 135.02 62.03 135.90 61.38 C 136.49 61.30 137.68 61.15 138.27 61.08 C 139.55 61.45 140.82 60.94 141.97 60.40 M 145.67 80.97 C 145.24 81.09 144.37 81.34 143.94 81.47 C 143.20 80.12 139.86 80.17 140.28 82.10 C 130.57 83.65 121.31 87.68 113.05 92.96 C 97.54 103.29 86.49 120.07 83.13 138.38 C 81.08 138.08 80.98 141.75 82.25 142.78 L 82.01 143.51 C 80.52 146.08 81.04 149.16 80.90 151.99 C 81.00 154.79 80.62 157.80 82.06 160.34 L 82.33 161.19 C 81.05 162.21 81.07 165.92 83.16 165.60 C 87.36 187.51 102.51 207.01 122.85 216.26 C 139.05 223.63 158.04 224.62 174.96 219.15 C 190.11 214.50 202.98 203.94 211.91 191.01 C 217.92 181.83 221.56 171.23 222.99 160.38 C 224.38 157.46 223.99 154.16 224.08 151.04 C 224.01 148.54 224.29 145.87 223.01 143.61 C 221.40 130.91 216.76 118.42 208.73 108.36 C 200.26 97.34 188.38 88.93 175.12 84.74 C 175.97 82.64 172.11 81.92 171.10 83.48 C 167.30 82.14 163.24 81.85 159.31 81.02 C 155.06 79.16 149.97 79.39 145.67 80.97 Z" />
<path fill="#66ccff" opacity="1.00" d=" M 144.96 87.41 C 147.28 86.60 149.79 86.64 152.21 86.37 C 152.30 97.58 152.04 108.80 152.34 120.00 L 152.42 120.79 C 158.47 121.17 164.57 121.18 170.62 120.82 C 171.09 131.14 170.71 141.48 170.83 151.81 C 164.65 151.98 158.45 151.42 152.31 152.15 C 151.99 158.35 152.52 164.57 151.98 170.76 C 141.55 170.65 131.11 170.67 120.68 170.76 C 120.40 164.60 120.60 158.44 120.55 152.28 C 109.45 151.20 98.22 152.13 87.07 151.79 C 87.93 147.23 87.13 142.14 89.33 137.95 C 90.07 137.13 90.32 136.20 90.09 135.14 C 90.54 129.17 93.85 123.67 96.70 118.47 C 103.78 118.75 110.86 118.48 117.94 118.63 L 118.86 118.65 C 119.49 111.02 118.28 103.31 119.63 95.75 C 123.86 92.97 128.63 91.15 133.38 89.46 C 135.91 88.66 138.55 87.69 141.25 88.10 C 142.54 88.41 143.81 87.95 144.96 87.41 Z" />
</g>
<g id="#89eaf4ff">
<path fill="#89eaf4" opacity="1.00" d=" M 118.01 4.97 L 119.00 5.00 C 118.95 10.31 119.16 15.62 118.82 20.91 L 117.91 21.01 C 118.10 15.67 117.96 10.32 118.01 4.97 Z" />
</g>
<g id="#85c9d5ff">
<path fill="#85c9d5" opacity="1.00" d=" M 138.07 4.78 C 139.22 5.89 138.65 7.63 138.82 9.03 C 138.73 12.98 138.72 16.94 138.91 20.89 C 145.27 20.93 151.62 20.87 157.97 20.91 C 158.03 25.95 157.97 30.99 158.04 36.03 C 157.96 37.56 158.28 39.28 157.31 40.61 C 157.09 34.37 157.48 28.11 157.10 21.87 C 150.77 21.44 144.42 21.79 138.08 21.68 C 137.76 16.05 137.73 10.41 138.07 4.78 Z" />
</g>
<g id="#8ae7f0ff">
<path fill="#8ae7f0" opacity="1.00" d=" M 118.00 40.42 L 118.76 40.48 C 119.35 46.18 118.69 51.91 119.13 57.62 C 119.64 57.80 120.68 58.15 121.19 58.33 C 120.11 58.54 119.05 58.84 118.02 59.24 C 117.97 52.97 118.02 46.69 118.00 40.42 Z" />
</g>
<g id="#96d6d0ff">
<path fill="#96d6d0" opacity="1.00" d=" M 138.27 61.08 C 137.98 59.30 141.14 59.26 141.97 60.40 C 140.82 60.94 139.55 61.45 138.27 61.08 Z" />
</g>
<g id="#90d1c9ff">
<path fill="#90d1c9" opacity="1.00" d=" M 163.12 60.38 C 164.24 59.31 167.76 59.29 167.67 61.25 C 166.08 61.54 164.56 60.96 163.12 60.38 Z" />
</g>
<g id="#92dee1ff">
<path fill="#92dee1" opacity="1.00" d=" M 133.01 61.30 L 133.91 60.74 C 134.41 60.90 135.40 61.22 135.90 61.38 C 135.02 62.03 134.04 62.25 132.98 62.04 L 133.01 61.30 Z" />
</g>
<g id="#8ed7d6ff">
<path fill="#8ed7d6" opacity="1.00" d=" M 169.09 61.15 C 170.06 60.29 172.88 60.55 172.70 62.17 C 171.42 62.39 169.94 62.26 169.09 61.15 Z" />
</g>
<g id="#86e2f4ff">
<path fill="#86e2f4" opacity="1.00" d=" M 145.67 80.97 C 149.97 79.39 155.06 79.16 159.31 81.02 C 154.77 80.93 150.22 80.99 145.67 80.97 Z" />
</g>
<g id="#8ed3d6ff">
<path fill="#8ed3d6" opacity="1.00" d=" M 140.28 82.10 C 139.86 80.17 143.20 80.12 143.94 81.47 C 142.77 81.93 141.53 82.15 140.28 82.10 Z" />
</g>
<g id="#81cbd1ff">
<path fill="#81cbd1" opacity="1.00" d=" M 171.10 83.48 C 172.11 81.92 175.97 82.64 175.12 84.74 C 173.75 84.42 172.42 83.95 171.10 83.48 Z" />
</g>
<g id="#93dfdfff">
<path fill="#93dfdf" opacity="1.00" d=" M 141.19 87.51 C 142.40 86.38 143.66 86.35 144.96 87.41 C 143.81 87.95 142.54 88.41 141.25 88.10 L 141.19 87.51 Z" />
</g>
<g id="#88e8f2ff">
<path fill="#88e8f2" opacity="1.00" d=" M 118.25 96.49 C 118.59 96.31 119.28 95.94 119.63 95.75 C 118.28 103.31 119.49 111.02 118.86 118.65 L 117.94 118.63 C 118.24 111.26 117.64 103.84 118.25 96.49 Z" />
</g>
<g id="#7de2fdff">
<path fill="#7de2fd" opacity="1.00" d=" M 6.43 118.82 C 7.60 124.83 6.68 131.05 7.04 137.16 L 5.87 137.26 C 6.38 131.12 5.43 124.91 6.43 118.82 Z" />
</g>
<g id="#85e6f4ff">
<path fill="#85e6f4" opacity="1.00" d=" M 152.34 120.00 C 158.68 120.07 165.03 119.83 171.36 120.17 L 170.62 120.82 C 164.57 121.18 158.47 121.17 152.42 120.79 L 152.34 120.00 Z" />
</g>
<g id="#91d9dbff">
<path fill="#91d9db" opacity="1.00" d=" M 89.33 137.95 C 88.25 136.46 88.50 135.53 90.09 135.14 C 90.32 136.20 90.07 137.13 89.33 137.95 Z" />
</g>
<g id="#8fd4d1ff">
<path fill="#8fd4d1" opacity="1.00" d=" M 61.31 140.93 C 60.42 139.74 60.27 136.31 62.15 136.30 C 62.48 137.90 62.09 139.51 61.31 140.93 Z" />
</g>
<g id="#7dc0c3ff">
<path fill="#7dc0c3" opacity="1.00" d=" M 5.87 137.26 L 7.04 137.16 C 12.23 136.68 17.45 136.92 22.65 137.11 C 22.75 143.46 22.50 149.83 22.80 156.18 C 28.74 156.55 34.69 156.15 40.63 156.45 C 34.54 157.70 28.13 156.70 21.91 156.97 C 21.87 150.58 21.90 144.20 21.88 137.82 C 16.56 137.17 11.17 138.12 5.87 137.26 Z" />
</g>
<g id="#88cac3ff">
<path fill="#88cac3" opacity="1.00" d=" M 82.25 142.78 C 80.98 141.75 81.08 138.08 83.13 138.38 C 83.09 139.88 82.90 141.40 82.25 142.78 Z" />
</g>
<g id="#8cd2d6ff">
<path fill="#8cd2d6" opacity="1.00" d=" M 244.06 140.78 C 245.66 144.63 244.76 148.91 245.00 152.96 C 244.77 156.08 245.66 159.51 244.06 162.38 C 244.21 155.17 244.18 147.98 244.06 140.78 Z" />
</g>
<g id="#93c8bdff">
<path fill="#93c8bd" opacity="1.00" d=" M 59.98 151.01 C 60.03 147.89 59.77 144.64 60.99 141.68 C 60.71 148.23 60.88 154.78 60.85 161.33 C 59.66 158.02 60.05 154.45 59.98 151.01 Z" />
</g>
<g id="#8fdce5ff">
<path fill="#8fdce5" opacity="1.00" d=" M 80.90 151.99 C 81.04 149.16 80.52 146.08 82.01 143.51 C 81.91 149.12 81.87 154.73 82.06 160.34 C 80.62 157.80 81.00 154.79 80.90 151.99 Z" />
</g>
<g id="#96d4cfff">
<path fill="#96d4cf" opacity="1.00" d=" M 223.01 143.61 C 224.29 145.87 224.01 148.54 224.08 151.04 C 223.99 154.16 224.38 157.46 222.99 160.38 C 223.11 154.79 223.12 149.20 223.01 143.61 Z" />
</g>
<g id="#8bcfceff">
<path fill="#8bcfce" opacity="1.00" d=" M 82.33 161.19 C 82.91 162.59 83.12 164.09 83.16 165.60 C 81.07 165.92 81.05 162.21 82.33 161.19 Z" />
</g>
<g id="#85d5deff">
<path fill="#85d5de" opacity="1.00" d=" M 140.73 243.04 C 148.91 243.18 157.06 243.36 165.24 243.04 C 161.03 244.66 156.43 243.78 152.04 244.00 C 148.27 243.79 144.27 244.65 140.73 243.04 Z" />
</g>
</svg>
