<?xml version="1.0" encoding="UTF-8" ?>
<!DOCTYPE svg PUBLIC "-//W3C//DTD SVG 1.1//EN" "http://www.w3.org/Graphics/SVG/1.1/DTD/svg11.dtd">
<svg width="256pt" height="256pt" viewBox="0 0 256 256" version="1.1" xmlns="http://www.w3.org/2000/svg">
<g id="#fefefeff">
<path fill="#fefefe" opacity="1.00" d=" M 0.00 0.00 L 256.00 0.00 L 256.00 256.00 L 0.00 256.00 L 0.00 0.00 M 147.05 69.81 C 144.10 72.72 144.97 77.26 144.70 81.00 C 136.31 81.54 128.00 82.82 119.63 83.51 C 118.92 85.17 118.21 86.84 117.51 88.51 C 111.74 88.64 105.88 87.91 100.17 88.98 C 97.75 89.23 96.87 91.64 95.79 93.44 C 65.52 93.52 35.25 93.44 4.98 93.48 C 5.02 94.91 5.06 96.33 5.10 97.77 C 34.40 97.65 63.70 97.83 93.00 97.67 C 96.45 97.47 99.57 99.17 102.90 99.67 C 106.48 99.94 110.08 99.69 113.67 99.65 C 112.46 102.71 111.28 105.78 110.11 108.85 C 118.35 108.40 126.65 108.74 134.85 107.63 C 140.44 107.29 146.07 107.57 151.62 106.64 C 157.47 106.48 163.32 106.34 169.13 105.55 C 176.81 105.91 184.38 104.26 192.06 104.45 C 189.23 98.39 185.58 92.75 182.39 86.88 C 180.58 83.85 179.10 80.59 176.86 77.85 C 175.45 77.15 173.83 78.16 172.35 78.30 C 172.45 77.06 172.55 75.82 172.64 74.58 C 170.36 72.05 167.32 70.52 164.12 69.53 C 158.43 69.76 152.71 69.13 147.05 69.81 M 239.91 103.56 C 181.15 109.05 122.45 115.30 63.65 120.41 C 60.35 120.86 56.67 120.01 53.66 121.70 C 46.37 126.91 40.85 134.06 34.48 140.27 C 38.79 139.90 43.11 139.69 47.43 139.51 C 46.24 140.99 45.03 142.45 43.77 143.87 C 39.70 149.57 35.20 154.96 31.16 160.68 C 34.95 164.62 38.41 168.87 42.11 172.89 C 46.55 177.77 50.42 183.31 55.76 187.26 C 59.13 187.73 62.55 187.44 65.94 187.47 C 115.99 187.44 166.03 187.49 216.08 187.45 C 220.34 178.83 225.37 170.64 230.00 162.23 C 226.24 157.28 222.48 152.33 218.96 147.21 C 217.60 148.03 216.24 148.84 214.87 149.65 C 215.42 154.98 220.39 157.90 222.80 162.27 C 220.34 168.02 216.51 173.06 213.48 178.52 C 161.08 178.48 108.67 178.41 56.26 178.56 C 50.31 172.44 44.30 166.39 38.44 160.18 C 44.57 153.75 49.30 146.19 54.95 139.37 C 73.30 138.38 91.67 137.76 110.04 137.06 C 119.01 136.13 128.06 136.73 137.03 135.76 C 143.40 135.21 149.81 135.65 156.19 135.16 C 161.47 134.65 166.78 134.24 172.09 134.42 C 176.50 134.44 180.02 137.47 183.92 139.08 C 187.36 140.75 191.28 140.25 194.97 140.30 C 209.44 140.23 223.92 140.28 238.39 140.29 C 242.08 129.97 245.65 119.61 249.69 109.43 C 250.60 107.16 250.81 104.71 251.09 102.31 C 247.39 102.95 243.66 103.41 239.91 103.56 M 124.25 145.06 C 114.37 141.52 101.91 149.08 102.17 159.97 C 101.34 169.13 109.96 177.52 119.03 176.92 C 127.59 177.11 134.64 169.23 135.30 161.04 C 135.60 154.00 130.65 147.55 124.25 145.06 M 71.27 145.06 C 65.51 146.75 61.64 152.27 60.69 158.02 C 58.97 167.41 67.28 177.55 76.99 176.91 C 87.29 177.27 95.92 165.76 92.68 155.95 C 90.38 147.03 79.79 142.10 71.27 145.06 M 155.18 145.04 C 149.02 147.15 144.07 153.35 144.30 160.02 C 143.84 168.63 151.27 177.03 160.02 176.91 C 169.09 177.64 177.83 169.13 176.91 159.98 C 177.44 149.18 164.95 141.50 155.18 145.04 M 185.17 158.96 C 183.82 168.46 195.32 176.67 203.87 172.32 C 207.32 171.04 209.54 168.01 211.64 165.16 C 211.63 161.72 211.62 158.28 211.61 154.84 C 209.47 152.45 207.51 149.80 204.80 148.03 C 196.88 143.64 185.19 149.59 185.17 158.96 Z" />
</g>
<g id="#6eefffff">
<path fill="#6eefff" opacity="1.00" d=" M 147.05 69.81 C 152.71 69.13 158.43 69.76 164.12 69.53 C 167.32 70.52 170.36 72.05 172.64 74.58 C 172.55 75.82 172.45 77.06 172.35 78.30 C 173.83 78.16 175.45 77.15 176.86 77.85 C 179.10 80.59 180.58 83.85 182.39 86.88 C 185.58 92.75 189.23 98.39 192.06 104.45 C 184.38 104.26 176.81 105.91 169.13 105.55 C 163.32 106.34 157.47 106.48 151.62 106.64 C 146.07 107.57 140.44 107.29 134.85 107.63 C 126.65 108.74 118.35 108.40 110.11 108.85 C 111.28 105.78 112.46 102.71 113.67 99.65 C 110.08 99.69 106.48 99.94 102.90 99.67 C 99.57 99.17 96.45 97.47 93.00 97.67 C 63.70 97.83 34.40 97.65 5.10 97.77 C 5.06 96.33 5.02 94.91 4.98 93.48 C 35.25 93.44 65.52 93.52 95.79 93.44 C 96.87 91.64 97.75 89.23 100.17 88.98 C 105.88 87.91 111.74 88.64 117.51 88.51 C 118.21 86.84 118.92 85.17 119.63 83.51 C 128.00 82.82 136.31 81.54 144.70 81.00 C 144.97 77.26 144.10 72.72 147.05 69.81 Z" />
<path fill="#6eefff" opacity="1.00" d=" M 239.91 103.56 C 243.66 103.41 247.39 102.95 251.09 102.31 C 250.81 104.71 250.60 107.16 249.69 109.43 C 245.65 119.61 242.08 129.97 238.39 140.29 C 223.92 140.28 209.44 140.23 194.97 140.30 C 191.28 140.25 187.36 140.75 183.92 139.08 C 180.02 137.47 176.50 134.44 172.09 134.42 C 166.78 134.24 161.47 134.65 156.19 135.16 C 149.81 135.65 143.40 135.21 137.03 135.76 C 128.06 136.73 119.01 136.13 110.04 137.06 C 91.67 137.76 73.30 138.38 54.95 139.37 C 49.30 146.19 44.57 153.75 38.44 160.18 C 44.30 166.39 50.31 172.44 56.26 178.56 C 108.67 178.41 161.08 178.48 213.48 178.52 C 216.51 173.06 220.34 168.02 222.80 162.27 C 220.39 157.90 215.42 154.98 214.87 149.65 C 216.24 148.84 217.60 148.03 218.96 147.21 C 222.48 152.33 226.24 157.28 230.00 162.23 C 225.37 170.64 220.34 178.83 216.08 187.45 C 166.03 187.49 115.99 187.44 65.94 187.47 C 62.55 187.44 59.13 187.73 55.76 187.26 C 50.42 183.31 46.55 177.77 42.11 172.89 C 38.41 168.87 34.95 164.62 31.16 160.68 C 35.20 154.96 39.70 149.57 43.77 143.87 C 45.03 142.45 46.24 140.99 47.43 139.51 C 43.11 139.69 38.79 139.90 34.48 140.27 C 40.85 134.06 46.37 126.91 53.66 121.70 C 56.67 120.01 60.35 120.86 63.65 120.41 C 122.45 115.30 181.15 109.05 239.91 103.56 Z" />
<path fill="#6eefff" opacity="1.00" d=" M 124.25 145.06 C 130.65 147.55 135.60 154.00 135.30 161.04 C 134.64 169.23 127.59 177.11 119.03 176.92 C 109.96 177.52 101.34 169.13 102.17 159.97 C 101.91 149.08 114.37 141.52 124.25 145.06 Z" />
<path fill="#6eefff" opacity="1.00" d=" M 71.27 145.06 C 79.79 142.10 90.38 147.03 92.68 155.95 C 95.92 165.76 87.29 177.27 76.99 176.91 C 67.28 177.55 58.97 167.41 60.69 158.02 C 61.64 152.27 65.51 146.75 71.27 145.06 Z" />
<path fill="#6eefff" opacity="1.00" d=" M 155.18 145.04 C 164.95 141.50 177.44 149.18 176.91 159.98 C 177.83 169.13 169.09 177.64 160.02 176.91 C 151.27 177.03 143.84 168.63 144.30 160.02 C 144.07 153.35 149.02 147.15 155.18 145.04 Z" />
<path fill="#6eefff" opacity="1.00" d=" M 185.17 158.96 C 185.19 149.59 196.88 143.64 204.80 148.03 C 207.51 149.80 209.47 152.45 211.61 154.84 C 211.62 158.28 211.63 161.72 211.64 165.16 C 209.54 168.01 207.32 171.04 203.87 172.32 C 195.32 176.67 183.82 168.46 185.17 158.96 Z" />
</g>
</svg>
