<?xml version="1.0" encoding="UTF-8" ?>
<!DOCTYPE svg PUBLIC "-//W3C//DTD SVG 1.1//EN" "http://www.w3.org/Graphics/SVG/1.1/DTD/svg11.dtd">
<svg width="256pt" height="256pt" viewBox="0 0 256 256" version="1.1" xmlns="http://www.w3.org/2000/svg">
<g id="#66ccffff">
<path fill="#66ccff" opacity="1.00" d=" M 21.67 5.11 C 27.99 4.93 34.32 4.94 40.64 5.09 C 40.62 10.27 40.30 15.48 40.75 20.64 L 41.06 21.80 C 59.36 22.29 77.70 21.85 96.01 22.00 C 103.56 21.91 111.12 22.25 118.67 21.75 C 118.85 16.17 118.76 10.58 118.81 5.00 C 125.44 5.01 132.08 4.99 138.72 5.01 C 138.71 10.20 138.70 15.40 138.72 20.60 C 145.21 20.75 151.70 20.57 158.19 20.71 C 158.26 27.31 158.20 33.91 158.23 40.51 C 151.73 40.68 145.23 40.51 138.73 40.62 C 138.70 45.02 138.71 49.41 138.72 53.81 C 134.52 55.16 130.06 55.50 125.86 56.87 C 123.25 57.73 120.65 58.66 117.96 59.22 C 117.92 53.01 117.95 46.81 117.94 40.60 C 92.15 40.57 66.36 40.57 40.58 40.60 C 40.57 66.56 40.51 92.52 40.61 118.48 C 46.96 118.56 53.32 118.42 59.68 118.57 C 57.82 124.72 55.84 130.88 55.07 137.29 C 50.25 137.22 45.35 136.75 40.57 137.47 C 39.81 143.63 40.46 149.86 40.24 156.06 C 34.46 156.10 28.68 156.17 22.90 155.99 C 22.58 149.81 23.03 143.62 22.71 137.44 L 21.84 137.34 C 16.90 137.01 11.94 137.09 7.00 137.25 C 6.75 130.99 7.73 124.62 6.13 118.48 C 11.30 118.53 16.47 118.50 21.64 118.50 C 21.72 92.52 21.79 66.54 21.61 40.57 C 16.40 40.60 11.20 40.58 6.00 40.58 C 6.00 33.94 5.92 27.29 6.05 20.65 C 11.26 20.65 16.47 20.69 21.67 20.62 C 21.73 15.45 21.72 10.28 21.67 5.11 Z" />
<path fill="#66ccff" opacity="1.00" d=" M 76.90 98.95 C 94.45 73.17 126.00 57.83 157.07 59.34 C 160.98 60.20 165.36 59.24 168.94 61.27 C 170.03 62.05 171.39 62.43 172.72 62.08 C 174.27 61.73 175.82 62.30 177.31 62.67 C 200.27 69.20 220.70 84.63 232.59 105.41 C 238.61 116.21 243.14 128.18 244.13 140.56 C 244.32 147.92 244.44 155.27 244.16 162.64 C 243.57 172.09 240.60 181.36 236.71 189.97 C 233.04 198.79 227.32 206.53 221.24 213.82 C 231.00 226.16 240.66 238.58 250.31 251.00 C 236.81 251.00 223.32 250.99 209.83 251.00 C 205.14 245.16 200.52 239.25 195.90 233.36 C 194.68 234.02 193.40 234.56 192.18 235.24 C 191.67 235.47 190.65 235.95 190.14 236.18 C 185.95 238.27 181.40 239.40 177.02 240.99 C 156.51 246.64 134.24 244.80 114.82 236.15 C 114.32 235.89 113.33 235.38 112.83 235.12 C 112.33 234.89 111.32 234.44 110.81 234.21 C 92.78 225.13 77.95 209.89 69.34 191.63 C 63.46 179.63 60.44 166.33 60.01 153.00 C 59.96 133.82 65.93 114.69 76.90 98.95 M 145.47 81.06 L 143.95 81.20 L 145.17 81.49 C 129.98 82.96 115.45 89.84 104.26 100.16 C 92.16 111.48 84.47 127.13 82.16 143.49 C 80.65 145.68 80.99 148.43 80.90 150.94 C 81.03 154.06 80.45 157.47 82.19 160.26 C 85.23 183.11 99.53 204.29 120.18 214.77 C 138.60 224.26 161.02 224.92 180.17 217.16 C 188.51 213.40 196.38 208.41 202.74 201.78 C 214.04 190.87 220.75 175.85 222.95 160.42 C 224.54 155.04 224.67 148.89 222.97 143.54 C 221.39 132.50 217.74 121.66 211.44 112.40 C 201.56 97.41 185.55 86.66 168.05 82.82 C 165.29 81.74 162.23 81.89 159.40 81.01 C 155.06 79.20 149.83 79.40 145.47 81.06 Z" />
<path fill="#66ccff" opacity="1.00" d=" M 147.91 86.75 C 149.42 86.54 150.92 86.35 152.43 86.17 C 152.53 97.41 152.40 108.65 152.50 119.90 C 158.64 119.91 164.78 119.90 170.92 119.90 C 170.81 130.71 171.03 141.52 170.80 152.33 C 164.69 152.30 158.58 152.22 152.47 152.37 C 152.45 158.51 152.49 164.65 152.45 170.79 C 141.80 170.87 131.15 170.90 120.50 170.78 C 120.43 164.64 120.48 158.51 120.46 152.38 C 109.41 152.20 98.36 152.32 87.31 152.32 C 86.94 140.54 90.65 128.97 96.16 118.65 C 103.40 118.33 110.65 118.57 117.90 118.51 L 118.86 118.52 C 119.11 111.25 119.06 103.98 118.90 96.72 L 118.88 96.04 C 127.61 90.70 137.64 87.16 147.91 86.75 Z" />
</g>
<g id="#7bc9e3f4">
<path fill="#7bc9e3" opacity="0.96" d=" M 117.94 5.00 L 118.81 5.00 C 118.76 10.58 118.85 16.17 118.67 21.75 C 111.12 22.25 103.56 21.91 96.01 22.00 C 77.70 21.85 59.36 22.29 41.06 21.80 L 40.75 20.64 C 66.48 20.62 92.20 20.66 117.92 20.62 C 117.96 15.41 117.93 10.20 117.94 5.00 Z" />
</g>
<g id="#86c7cee4">
<path fill="#86c7ce" opacity="0.89" d=" M 168.94 61.27 C 169.88 60.38 172.91 60.36 172.72 62.08 C 171.39 62.43 170.03 62.05 168.94 61.27 Z" />
</g>
<g id="#85e2f4fe">
<path fill="#85e2f4" opacity="1.00" d=" M 145.47 81.06 C 149.83 79.40 155.06 79.20 159.40 81.01 C 154.76 80.96 150.11 80.94 145.47 81.06 Z" />
</g>
<g id="#151c1e45">
<path fill="#151c1e" opacity="0.27" d=" M 143.95 81.20 L 145.47 81.06 C 150.11 80.94 154.76 80.96 159.40 81.01 C 162.23 81.89 165.29 81.74 168.05 82.82 C 160.46 81.76 152.82 81.53 145.17 81.49 L 143.95 81.20 Z" />
</g>
<g id="#89eaf4ff">
<path fill="#89eaf4" opacity="1.00" d=" M 118.06 95.81 L 118.90 96.72 C 119.06 103.98 119.11 111.25 118.86 118.52 L 117.90 118.51 C 118.06 110.94 117.78 103.37 118.06 95.81 Z" />
</g>
<g id="#7de2fdff">
<path fill="#7de2fd" opacity="1.00" d=" M 6.13 118.48 C 7.73 124.62 6.75 130.99 7.00 137.25 L 5.83 137.33 C 6.26 131.05 5.73 124.75 6.13 118.48 Z" />
</g>
<g id="#364b5180">
<path fill="#364b51" opacity="0.50" d=" M 5.83 137.33 L 7.00 137.25 C 11.94 137.09 16.90 137.01 21.84 137.34 C 22.29 143.86 21.96 150.40 22.14 156.94 C 28.18 157.05 34.21 156.98 40.24 157.00 L 40.24 156.06 C 40.46 149.86 39.81 143.63 40.57 137.47 C 45.35 136.75 50.25 137.22 55.07 137.29 C 50.67 139.02 45.64 137.62 40.99 138.07 C 40.95 144.56 41.17 151.06 40.85 157.54 C 34.41 157.55 27.97 157.77 21.54 157.39 C 20.95 150.97 21.38 144.51 21.26 138.07 C 16.51 137.96 11.75 138.25 7.01 137.98 C 6.71 137.81 6.12 137.49 5.83 137.33 Z" />
</g>
<g id="#78b9d2e7">
<path fill="#78b9d2" opacity="0.91" d=" M 21.84 137.34 L 22.71 137.44 C 23.03 143.62 22.58 149.81 22.90 155.99 C 28.68 156.17 34.46 156.10 40.24 156.06 L 40.24 157.00 C 34.21 156.98 28.18 157.05 22.14 156.94 C 21.96 150.40 22.29 143.86 21.84 137.34 Z" />
</g>
<g id="#84c3cfe7">
<path fill="#84c3cf" opacity="0.91" d=" M 244.13 140.56 C 245.73 144.52 244.93 148.86 245.12 153.01 C 245.00 156.23 245.62 159.63 244.16 162.64 C 244.44 155.27 244.32 147.92 244.13 140.56 Z" />
</g>
<g id="#8cd7e2f7">
<path fill="#8cd7e2" opacity="0.97" d=" M 80.90 150.94 C 80.99 148.43 80.65 145.68 82.16 143.49 C 82.00 149.08 81.96 154.68 82.19 160.26 C 80.45 157.47 81.03 154.06 80.90 150.94 Z" />
</g>
<g id="#90c8c9eb">
<path fill="#90c8c9" opacity="0.92" d=" M 222.97 143.54 C 224.67 148.89 224.54 155.04 222.95 160.42 C 223.11 154.79 223.09 149.16 222.97 143.54 Z" />
</g>
</svg>
