<?xml version="1.0" encoding="UTF-8" ?>
<!DOCTYPE svg PUBLIC "-//W3C//DTD SVG 1.1//EN" "http://www.w3.org/Graphics/SVG/1.1/DTD/svg11.dtd">
<svg width="256pt" height="256pt" viewBox="0 0 256 256" version="1.1" xmlns="http://www.w3.org/2000/svg">
<g id="#684d2695">
<path fill="#684d26" opacity="0.58" d=" M 193.08 13.37 C 194.73 14.45 196.29 15.67 197.64 17.11 C 213.27 32.89 229.08 48.51 244.72 64.28 C 247.00 66.49 249.26 68.74 251.24 71.23 C 231.65 52.72 213.15 33.06 193.75 14.34 C 193.33 25.40 194.03 36.50 193.42 47.54 C 189.69 48.42 185.82 47.88 182.03 47.97 C 147.03 47.97 112.04 47.97 77.04 47.99 C 66.65 47.95 56.64 51.06 47.20 55.16 C 57.44 48.59 70.04 46.76 82.01 47.18 C 119.00 47.22 156.00 47.15 192.99 47.23 C 193.05 35.95 192.88 24.66 193.08 13.37 Z" />
</g>
<g id="#fe8a24ff">
<path fill="#fe8a24" opacity="1.00" d=" M 193.75 14.34 C 213.15 33.06 231.65 52.72 251.24 71.23 C 250.98 72.75 250.64 74.31 249.33 75.28 C 232.20 92.13 215.49 109.42 198.21 126.11 C 197.93 117.08 197.91 108.05 198.07 99.02 C 198.13 96.28 198.10 93.48 197.23 90.85 C 158.84 90.93 120.45 90.89 82.06 90.87 C 65.25 90.23 48.59 95.93 34.56 104.93 C 24.40 111.12 15.11 118.61 6.65 126.95 C 6.72 125.99 6.86 124.05 6.93 123.08 C 8.94 119.01 8.78 114.50 9.61 110.15 C 14.55 91.74 23.38 73.68 38.14 61.17 C 40.87 58.76 44.04 56.93 47.20 55.16 C 56.64 51.06 66.65 47.95 77.04 47.99 C 112.04 47.97 147.03 47.97 182.03 47.97 C 185.82 47.88 189.69 48.42 193.42 47.54 C 194.03 36.50 193.33 25.40 193.75 14.34 Z" />
<path fill="#fe8a24" opacity="1.00" d=" M 243.48 136.59 C 245.76 134.49 247.82 132.06 250.64 130.65 C 249.21 143.88 245.38 156.79 239.81 168.85 C 235.64 177.48 230.28 185.66 223.22 192.21 C 221.01 193.97 218.87 195.81 216.73 197.66 C 215.13 198.86 213.44 199.94 211.68 200.88 C 202.40 205.37 192.39 208.90 181.98 209.01 C 142.55 208.98 103.12 209.03 63.69 208.98 C 63.24 220.16 63.54 231.36 63.52 242.54 L 62.57 242.54 C 46.70 227.03 31.17 211.18 15.43 195.55 C 12.07 192.33 9.05 188.74 5.34 185.90 C 7.27 183.60 9.18 181.28 11.39 179.24 C 27.40 163.80 42.65 147.57 58.82 132.30 C 59.19 143.42 58.90 154.55 59.01 165.68 C 59.26 165.68 59.76 165.68 60.01 165.68 C 97.35 165.67 134.68 165.68 172.02 165.68 C 178.18 165.64 184.42 166.01 190.49 164.69 C 210.38 160.62 228.48 150.06 243.48 136.59 Z" />
</g>
<g id="#76572b93">
<path fill="#76572b" opacity="0.58" d=" M 7.57 117.67 C 11.98 96.60 20.19 74.38 38.14 61.17 C 23.38 73.68 14.55 91.74 9.61 110.15 C 8.78 114.50 8.94 119.01 6.93 123.08 C 6.93 121.26 6.85 119.39 7.57 117.67 Z" />
</g>
<g id="#64593795">
<path fill="#645937" opacity="0.58" d=" M 34.56 104.93 C 48.59 95.93 65.25 90.23 82.06 90.87 C 120.45 90.89 158.84 90.93 197.23 90.85 L 197.13 92.00 C 155.06 92.02 113.00 91.95 70.93 92.03 C 58.01 93.54 46.14 99.35 34.56 104.93 Z" />
</g>
<g id="#fa9f3bfd">
<path fill="#fa9f3b" opacity="1.00" d=" M 197.23 90.85 C 198.10 93.48 198.13 96.28 198.07 99.02 C 197.91 108.05 197.93 117.08 198.21 126.11 C 198.06 126.55 197.75 127.44 197.59 127.88 C 196.58 123.99 197.09 119.95 196.99 115.98 C 197.08 107.99 196.80 99.99 197.13 92.00 L 197.23 90.85 Z" />
</g>
<g id="#c88437d8">
<path fill="#c88437" opacity="0.85" d=" M 56.67 132.61 C 57.80 131.49 59.00 130.44 60.25 129.45 C 60.13 129.79 59.90 130.46 59.78 130.79 C 59.54 131.17 59.06 131.92 58.82 132.30 C 42.65 147.57 27.40 163.80 11.39 179.24 C 9.18 181.28 7.27 183.60 5.34 185.90 C 4.58 183.70 6.97 182.57 8.14 181.13 C 24.35 164.99 40.52 148.81 56.67 132.61 Z" />
</g>
<g id="#f89d3afd">
<path fill="#f89d3a" opacity="1.00" d=" M 58.82 132.30 C 59.06 131.92 59.54 131.17 59.78 130.79 C 60.29 142.41 59.85 154.05 60.01 165.68 C 59.76 165.68 59.26 165.68 59.01 165.68 C 58.90 154.55 59.19 143.42 58.82 132.30 Z" />
</g>
<g id="#87612e97">
<path fill="#87612e" opacity="0.59" d=" M 216.73 197.66 C 218.87 195.81 221.01 193.97 223.22 192.21 C 221.34 194.34 219.14 196.17 216.73 197.66 Z" />
</g>
<g id="#5a421f96">
<path fill="#5a421f" opacity="0.59" d=" M 181.98 209.01 C 192.39 208.90 202.40 205.37 211.68 200.88 C 203.71 206.58 193.72 209.04 184.04 209.78 C 144.04 209.85 104.03 209.80 64.02 209.81 C 63.99 221.01 64.01 232.21 64.00 243.41 C 63.33 243.20 61.98 242.77 61.31 242.56 L 62.57 242.54 L 63.52 242.54 C 63.54 231.36 63.24 220.16 63.69 208.98 C 103.12 209.03 142.55 208.98 181.98 209.01 Z" />
</g>
</svg>
