<?xml version="1.0" encoding="UTF-8" ?>
<!DOCTYPE svg PUBLIC "-//W3C//DTD SVG 1.1//EN" "http://www.w3.org/Graphics/SVG/1.1/DTD/svg11.dtd">
<svg width="256pt" height="256pt" viewBox="0 0 256 256" version="1.1" xmlns="http://www.w3.org/2000/svg">
<g id="#7f837eff">
<path fill="#7f837e" opacity="1.00" d=" M 0.00 0.00 L 65.10 0.00 C 64.52 0.82 63.96 1.65 63.41 2.49 C 61.29 2.94 59.16 3.41 56.99 3.50 C 39.07 3.66 21.12 3.25 3.20 3.69 C 3.14 22.91 3.27 42.13 3.16 61.35 L 3.02 61.97 C 2.02 61.83 1.01 61.69 0.00 61.55 L 0.00 0.00 Z" />
<path fill="#7f837e" opacity="1.00" d=" M 127.73 0.00 L 193.17 0.00 C 192.55 0.82 191.96 1.65 191.37 2.49 C 189.25 2.95 187.13 3.44 184.95 3.51 C 167.03 3.67 149.10 3.23 131.18 3.70 C 131.18 22.83 131.26 41.95 131.15 61.08 C 131.13 61.61 131.08 62.68 131.06 63.21 C 128.64 65.40 125.86 67.17 122.45 67.07 C 122.63 66.23 122.98 64.57 123.16 63.73 C 124.72 63.77 126.27 63.81 127.83 63.85 C 127.73 43.71 127.86 23.58 127.76 3.44 C 127.75 2.29 127.74 1.15 127.73 0.00 Z" />
<path fill="#7f837e" opacity="1.00" d=" M 191.23 74.24 C 192.59 75.29 193.96 76.33 195.29 77.42 C 195.05 85.93 195.23 94.44 195.20 102.95 C 195.10 108.62 195.71 114.36 194.46 119.95 C 192.33 119.46 188.49 120.97 187.31 119.02 L 187.95 118.81 C 189.25 118.96 190.55 119.10 191.86 119.24 C 191.84 105.82 191.81 92.40 191.89 78.98 C 191.89 77.38 191.71 75.77 191.23 74.24 Z" />
<path fill="#7f837e" opacity="1.00" d=" M 50.21 123.77 C 51.30 126.79 52.54 129.77 53.97 132.64 C 51.62 131.00 48.65 131.52 45.96 131.46 C 31.70 131.74 17.42 131.14 3.17 131.75 C 3.25 150.94 3.23 170.13 3.21 189.31 L 2.74 190.00 C 1.83 189.82 0.91 189.64 0.00 189.43 L 0.00 128.01 C 0.78 127.98 2.33 127.91 3.10 127.87 C 19.09 127.65 35.08 127.83 51.07 127.79 C 50.96 127.23 50.73 126.13 50.62 125.58 C 50.51 125.13 50.31 124.22 50.21 123.77 Z" />
<path fill="#7f837e" opacity="1.00" d=" M 124.12 156.91 C 126.21 155.85 128.23 154.67 130.26 153.49 C 131.83 158.86 131.03 164.49 131.18 170.00 C 131.05 176.01 131.46 182.03 131.03 188.04 C 131.08 191.76 127.83 194.90 124.21 195.18 C 118.73 195.90 113.18 195.42 107.68 195.46 C 107.29 195.12 106.52 194.43 106.14 194.09 C 106.60 193.23 107.06 192.38 107.54 191.53 C 114.29 192.09 121.07 191.66 127.84 191.83 C 127.78 179.70 127.75 167.57 127.85 155.44 C 126.61 155.93 125.36 156.42 124.12 156.91 Z" />
<path fill="#7f837e" opacity="1.00" d=" M 191.95 235.79 C 192.75 235.78 194.36 235.75 195.17 235.73 C 195.13 241.72 195.36 247.71 195.00 253.70 C 194.95 254.27 194.84 255.42 194.79 256.00 L 192.23 256.00 C 191.80 249.27 191.94 242.53 191.95 235.79 Z" />
</g>
<g id="#5d615cff">
<path fill="#5d615c" opacity="1.00" d=" M 65.10 0.00 L 124.68 0.00 C 124.57 0.82 124.34 2.46 124.22 3.28 C 105.25 3.54 86.27 3.37 67.29 3.36 C 67.11 22.68 67.44 42.00 67.14 61.32 C 66.24 61.38 64.46 61.50 63.57 61.56 C 63.46 42.42 63.41 23.27 63.61 4.13 C 62.54 4.09 61.47 4.03 60.40 3.95 C 60.37 23.08 60.67 42.21 60.32 61.34 C 41.28 61.59 22.21 61.50 3.16 61.35 C 3.27 42.13 3.14 22.91 3.20 3.69 C 21.12 3.25 39.07 3.66 56.99 3.50 C 59.16 3.41 61.29 2.94 63.41 2.49 C 63.96 1.65 64.52 0.82 65.10 0.00 Z" />
<path fill="#5d615c" opacity="1.00" d=" M 131.06 63.21 C 133.80 63.48 136.56 63.69 139.32 63.70 C 139.03 64.92 138.76 66.15 138.52 67.39 C 136.14 67.40 133.76 67.42 131.39 67.44 C 130.87 82.78 131.76 98.16 130.93 113.49 C 129.04 110.47 127.49 107.25 126.17 103.95 C 126.53 104.44 127.26 105.43 127.62 105.92 C 127.66 93.25 127.55 80.59 127.67 67.92 C 126.52 67.93 125.37 67.95 124.23 67.96 C 124.17 77.48 124.87 87.05 123.77 96.53 C 120.98 87.00 120.68 76.82 122.45 67.07 C 125.86 67.17 128.64 65.40 131.06 63.21 Z" />
<path fill="#5d615c" opacity="1.00" d=" M 198.24 67.63 C 210.07 67.46 221.90 67.41 233.72 67.66 C 234.05 68.86 234.37 70.07 234.69 71.29 C 234.76 71.63 234.91 72.33 234.99 72.67 C 235.13 76.91 235.14 81.15 234.96 85.38 C 232.07 104.67 213.95 120.02 194.46 119.95 C 195.71 114.36 195.10 108.62 195.20 102.95 C 195.23 94.44 195.05 85.93 195.29 77.42 C 199.09 79.40 197.96 83.82 198.19 87.33 C 198.34 93.76 197.02 100.48 198.85 106.72 C 200.50 109.38 205.21 109.15 206.09 105.95 C 206.65 99.65 206.16 93.29 206.29 86.96 C 206.13 83.39 206.71 79.71 205.86 76.21 C 204.04 73.59 201.22 71.94 198.87 69.87 C 198.71 69.31 198.40 68.19 198.24 67.63 Z" />
<path fill="#5d615c" opacity="1.00" d=" M 251.05 67.88 L 252.01 67.72 C 252.61 75.14 252.23 82.59 252.33 90.02 C 252.27 101.73 252.46 113.44 252.18 125.14 C 244.11 125.69 235.98 124.69 227.94 125.72 C 236.08 119.88 242.63 111.92 246.80 102.80 C 249.02 97.80 251.10 92.52 251.03 86.96 C 251.07 80.60 250.89 74.24 251.05 67.88 Z" />
<path fill="#5d615c" opacity="1.00" d=" M 146.50 131.61 C 153.84 130.52 161.59 132.83 168.63 130.06 L 168.68 130.09 C 170.83 131.35 173.13 132.32 175.53 133.02 C 178.34 134.00 181.23 134.74 184.10 135.53 C 185.50 136.01 186.87 136.57 188.25 137.12 C 188.63 154.49 188.51 171.90 188.32 189.28 C 185.09 189.40 181.86 189.55 178.64 189.76 C 167.44 179.76 153.99 172.24 139.54 168.12 C 135.75 181.93 132.39 195.85 128.36 209.58 C 127.48 205.08 127.50 200.49 127.67 195.92 C 126.53 195.91 125.39 195.91 124.25 195.90 C 124.54 205.08 123.96 214.28 124.54 223.45 L 124.51 223.74 C 124.33 224.33 123.99 225.51 123.81 226.10 C 120.73 225.99 116.57 227.41 114.89 223.90 C 112.52 217.96 109.69 212.22 107.11 206.37 C 106.13 203.82 105.10 201.28 103.91 198.82 C 104.52 197.45 105.13 196.08 105.79 194.73 L 106.14 194.09 C 106.52 194.43 107.29 195.12 107.68 195.46 C 113.18 195.42 118.73 195.90 124.21 195.18 C 127.83 194.90 131.08 191.76 131.03 188.04 C 131.46 182.03 131.05 176.01 131.18 170.00 C 131.03 164.49 131.83 158.86 130.26 153.49 C 138.10 148.75 144.63 141.95 149.08 133.94 C 148.22 133.16 147.36 132.38 146.50 131.61 Z" />
<path fill="#5d615c" opacity="1.00" d=" M 191.81 136.84 C 193.16 136.87 194.52 136.88 195.88 136.88 C 194.68 141.85 195.42 146.97 195.27 152.01 C 195.14 164.47 195.41 176.93 195.16 189.38 C 194.26 189.42 192.45 189.49 191.55 189.53 C 191.39 176.01 191.52 162.50 191.51 148.99 C 191.56 144.94 191.22 140.86 191.81 136.84 Z" />
<path fill="#5d615c" opacity="1.00" d=" M 0.00 189.43 C 0.91 189.64 1.83 189.82 2.74 190.00 C 3.17 190.39 4.02 191.17 4.45 191.56 C 12.83 191.74 21.22 191.27 29.59 191.89 C 28.26 193.37 26.94 194.86 25.65 196.38 C 18.33 194.76 10.69 195.65 3.25 195.82 C 3.24 214.92 3.42 234.03 3.17 253.13 C 3.14 253.85 3.07 255.28 3.03 256.00 L 0.00 256.00 L 0.00 189.43 Z" />
<path fill="#5d615c" opacity="1.00" d=" M 74.39 191.68 L 75.35 191.74 C 75.57 192.61 76.01 194.37 76.23 195.25 C 84.21 195.40 92.20 195.59 100.17 195.17 C 100.21 194.57 100.30 193.38 100.34 192.78 C 101.03 193.97 101.73 195.15 102.40 196.35 C 103.11 198.25 102.58 200.24 102.06 202.10 C 98.74 210.21 95.88 218.50 92.45 226.56 C 89.36 227.51 85.96 226.91 82.75 227.07 C 79.86 215.30 77.06 203.50 74.39 191.68 Z" />
<path fill="#5d615c" opacity="1.00" d=" M 195.15 195.71 C 214.08 195.20 233.03 195.77 251.96 195.45 C 252.46 200.95 252.39 206.47 252.32 211.99 C 252.16 225.71 252.54 239.43 252.18 253.14 C 239.12 253.55 226.04 253.18 212.97 253.35 C 206.98 253.49 200.96 252.89 195.00 253.70 C 195.36 247.71 195.13 241.72 195.17 235.73 C 197.23 235.69 199.30 235.55 201.36 235.35 C 200.34 227.22 198.38 219.19 194.87 211.75 C 195.26 206.41 195.23 201.06 195.15 195.71 Z" />
<path fill="#5d615c" opacity="1.00" d=" M 67.15 235.65 C 86.18 235.86 105.21 235.52 124.24 235.79 C 124.35 241.58 124.49 247.38 124.19 253.18 C 106.79 253.64 89.38 253.21 71.97 253.33 C 70.29 253.39 68.62 253.53 66.95 253.78 C 67.41 247.74 67.16 241.69 67.15 235.65 Z" />
<path fill="#5d615c" opacity="1.00" d=" M 127.71 235.86 C 128.59 235.89 130.35 235.94 131.23 235.97 C 131.23 241.70 131.32 247.43 131.19 253.17 C 130.06 253.33 128.93 253.49 127.79 253.66 C 127.39 247.73 127.62 241.79 127.71 235.86 Z" />
</g>
<g id="#3f433eff">
<path fill="#3f433e" opacity="1.00" d=" M 124.68 0.00 L 127.73 0.00 C 127.74 1.15 127.75 2.29 127.76 3.44 C 126.60 3.66 124.29 3.24 124.44 5.08 C 124.30 20.05 124.46 35.04 124.35 50.03 C 124.28 53.56 124.74 57.07 124.91 60.59 C 124.58 61.00 123.93 61.83 123.60 62.25 C 123.86 61.34 124.38 59.52 124.64 58.60 C 107.19 49.95 84.67 52.15 69.39 64.31 C 67.42 64.00 65.45 63.70 63.48 63.40 C 63.65 65.26 63.83 67.12 64.00 68.99 C 55.42 76.84 50.10 87.94 48.48 99.39 C 47.40 105.07 47.41 110.96 48.63 116.62 C 49.00 119.03 49.58 121.41 50.21 123.77 C 50.31 124.22 50.51 125.13 50.62 125.58 C 34.80 125.77 18.98 125.36 3.17 125.77 C 3.44 106.31 3.20 86.84 3.30 67.38 C 22.32 67.29 41.34 67.62 60.36 67.25 C 60.39 66.33 60.46 64.48 60.49 63.56 C 41.81 63.41 23.13 63.52 4.45 63.49 C 4.10 63.11 3.38 62.35 3.02 61.97 L 3.16 61.35 C 22.21 61.50 41.28 61.59 60.32 61.34 C 60.67 42.21 60.37 23.08 60.40 3.95 C 61.47 4.03 62.54 4.09 63.61 4.13 C 63.41 23.27 63.46 42.42 63.57 61.56 C 64.46 61.50 66.24 61.38 67.14 61.32 C 67.44 42.00 67.11 22.68 67.29 3.36 C 86.27 3.37 105.25 3.54 124.22 3.28 C 124.34 2.46 124.57 0.82 124.68 0.00 Z" />
<path fill="#3f433e" opacity="1.00" d=" M 131.39 67.44 C 133.76 67.42 136.14 67.40 138.52 67.39 C 138.32 68.35 138.13 69.31 137.94 70.28 C 136.49 75.98 136.53 82.16 137.90 87.88 C 140.06 103.13 149.05 116.84 161.39 125.86 C 154.40 125.13 147.34 125.25 140.34 125.74 C 136.78 122.00 133.61 117.90 130.93 113.49 C 131.76 98.16 130.87 82.78 131.39 67.44 Z" />
<path fill="#3f433e" opacity="1.00" d=" M 155.37 67.98 L 156.12 67.62 C 165.12 67.53 174.16 67.18 183.14 67.83 C 185.05 69.31 186.87 70.91 188.79 72.39 C 187.47 87.81 189.04 103.36 187.95 118.81 L 187.31 119.02 C 186.88 119.06 186.02 119.13 185.58 119.16 C 174.71 115.42 163.87 108.75 158.88 97.97 C 158.24 96.29 157.38 94.71 156.49 93.16 C 155.35 90.63 154.72 87.91 154.21 85.20 C 154.08 81.34 154.07 77.48 154.22 73.62 C 154.56 71.74 154.56 69.73 155.37 67.98 Z" />
<path fill="#3f433e" opacity="1.00" d=" M 206.21 135.22 C 210.11 134.40 213.88 133.09 217.59 131.65 C 229.05 132.18 240.54 131.95 252.02 131.76 C 252.26 135.16 252.40 138.58 252.35 141.99 C 252.20 157.72 252.49 173.45 252.19 189.17 C 234.11 189.57 216.03 189.18 197.95 189.31 C 196.21 188.95 195.30 190.49 194.41 191.66 C 193.69 191.63 192.27 191.58 191.56 191.55 C 191.63 192.92 191.69 194.30 191.75 195.68 C 190.76 195.62 189.77 195.55 188.78 195.53 C 188.67 194.52 188.45 192.50 188.34 191.50 C 185.80 191.53 183.26 191.60 180.72 191.73 C 180.04 191.06 179.34 190.40 178.64 189.76 C 181.86 189.55 185.09 189.40 188.32 189.28 C 188.51 171.90 188.63 154.49 188.25 137.12 C 186.87 136.57 185.50 136.01 184.10 135.53 C 189.97 136.38 195.93 136.26 201.83 135.95 C 203.33 136.37 204.97 136.25 206.21 135.22 M 191.81 136.84 C 191.22 140.86 191.56 144.94 191.51 148.99 C 191.52 162.50 191.39 176.01 191.55 189.53 C 192.45 189.49 194.26 189.42 195.16 189.38 C 195.41 176.93 195.14 164.47 195.27 152.01 C 195.42 146.97 194.68 141.85 195.88 136.88 C 194.52 136.88 193.16 136.87 191.81 136.84 Z" />
<path fill="#3f433e" opacity="1.00" d=" M 67.23 171.31 C 67.46 164.04 66.89 156.76 67.61 149.51 C 74.10 154.61 81.62 158.51 89.70 160.32 C 90.98 161.24 92.58 161.36 94.09 161.03 C 94.41 161.09 95.04 161.22 95.36 161.29 C 99.64 162.47 104.14 162.17 108.43 161.23 C 108.91 161.15 109.87 160.99 110.35 160.91 C 113.89 160.58 117.35 159.69 120.62 158.28 C 121.80 157.86 122.97 157.41 124.12 156.91 C 124.58 167.68 124.49 178.48 124.22 189.26 C 119.10 189.52 113.98 189.48 108.86 189.20 C 110.39 186.53 111.78 183.79 113.28 181.11 C 113.44 180.85 113.76 180.32 113.92 180.05 C 106.90 179.96 99.88 179.99 92.87 180.02 C 93.03 180.29 93.36 180.83 93.53 181.09 C 95.17 183.97 96.73 186.90 98.48 189.71 C 90.31 189.54 82.13 189.52 73.96 189.78 C 72.44 183.54 71.03 177.27 69.66 170.99 C 69.06 171.07 67.84 171.23 67.23 171.31 Z" />
<path fill="#3f433e" opacity="1.00" d=" M 131.23 235.97 C 140.82 236.39 150.42 236.05 160.01 236.16 C 169.57 236.07 179.15 236.41 188.70 235.93 C 188.52 241.84 188.63 247.76 188.64 253.67 C 169.48 253.73 150.30 253.22 131.16 253.90 L 131.19 253.17 C 131.32 247.43 131.23 241.70 131.23 235.97 Z" />
</g>
<g id="#5c605bff">
<path fill="#5c605b" opacity="1.00" d=" M 193.17 0.00 L 256.00 0.00 L 256.00 3.43 C 254.67 3.46 253.35 3.49 252.02 3.51 C 233.11 3.86 214.17 3.13 195.27 3.87 C 195.22 9.68 195.38 15.49 195.15 21.30 C 194.29 21.29 192.57 21.27 191.71 21.27 C 191.55 15.49 191.61 9.71 191.66 3.93 C 190.54 3.94 189.42 3.95 188.30 3.96 C 188.31 9.72 188.38 15.47 188.37 21.22 L 188.37 22.13 C 166.15 24.30 146.53 40.71 139.88 61.91 C 136.98 61.52 134.07 61.26 131.15 61.08 C 131.26 41.95 131.18 22.83 131.18 3.70 C 149.10 3.23 167.03 3.67 184.95 3.51 C 187.13 3.44 189.25 2.95 191.37 2.49 C 191.96 1.65 192.55 0.82 193.17 0.00 Z" />
<path fill="#5c605b" opacity="1.00" d=" M 159.39 58.85 C 165.51 48.21 176.58 40.56 188.73 38.69 C 187.81 46.14 188.65 53.66 188.13 61.14 C 185.62 59.28 183.36 57.06 180.61 55.55 C 178.64 54.77 176.69 55.83 175.22 57.09 C 174.58 58.41 174.00 59.75 173.41 61.09 C 169.02 61.53 164.58 61.65 160.20 61.10 C 160.00 60.54 159.59 59.41 159.39 58.85 Z" />
<path fill="#5c605b" opacity="1.00" d=" M 191.71 38.43 C 192.60 38.41 194.39 38.38 195.29 38.36 C 195.21 45.98 195.37 53.61 195.20 61.23 C 194.06 61.38 192.92 61.54 191.79 61.69 C 191.42 53.94 191.66 46.18 191.71 38.43 Z" />
<path fill="#5c605b" opacity="1.00" d=" M 3.17 131.75 C 17.42 131.14 31.70 131.74 45.96 131.46 C 48.65 131.52 51.62 131.00 53.97 132.64 C 55.80 136.18 57.94 139.56 60.48 142.63 C 60.26 152.63 60.17 162.65 60.60 172.65 C 49.59 175.67 39.81 182.04 31.59 189.83 C 22.17 188.82 12.66 189.66 3.21 189.31 C 3.23 170.13 3.25 150.94 3.17 131.75 Z" />
<path fill="#5c605b" opacity="1.00" d=" M 63.94 146.30 C 65.14 147.39 66.36 148.47 67.61 149.51 C 66.89 156.76 67.46 164.04 67.23 171.31 C 66.06 171.47 64.90 171.67 63.74 171.89 C 63.54 163.36 63.38 154.81 63.94 146.30 Z" />
</g>
<g id="#272b26ff">
<path fill="#272b26" opacity="1.00" d=" M 124.44 5.08 C 124.29 3.24 126.60 3.66 127.76 3.44 C 127.86 23.58 127.73 43.71 127.83 63.85 C 126.27 63.81 124.72 63.77 123.16 63.73 C 123.27 63.36 123.49 62.62 123.60 62.25 C 123.93 61.83 124.58 61.00 124.91 60.59 C 124.74 57.07 124.28 53.56 124.35 50.03 C 124.46 35.04 124.30 20.05 124.44 5.08 Z" />
<path fill="#272b26" opacity="1.00" d=" M 124.12 156.91 C 125.36 156.42 126.61 155.93 127.85 155.44 C 127.75 167.57 127.78 179.70 127.84 191.83 C 121.07 191.66 114.29 192.09 107.54 191.53 C 107.87 190.95 108.53 189.78 108.86 189.20 C 113.98 189.48 119.10 189.52 124.22 189.26 C 124.49 178.48 124.58 167.68 124.12 156.91 Z" />
<path fill="#272b26" opacity="1.00" d=" M 184.58 195.93 C 185.97 195.76 187.37 195.60 188.78 195.53 C 189.77 195.55 190.76 195.62 191.75 195.68 C 191.90 199.00 191.82 202.33 191.52 205.64 C 191.04 204.88 190.09 203.36 189.61 202.60 C 189.57 202.54 189.49 202.42 189.45 202.36 C 189.11 201.83 188.43 200.76 188.08 200.23 C 187.95 198.90 187.26 198.03 186.01 197.61 C 185.65 197.19 184.94 196.35 184.58 195.93 Z" />
</g>
<g id="#2c302bff">
<path fill="#2c302b" opacity="1.00" d=" M 252.02 3.51 C 253.35 3.49 254.67 3.46 256.00 3.43 L 256.00 63.84 C 254.00 63.84 251.99 63.84 249.99 63.85 L 250.02 63.37 C 250.04 63.02 250.09 62.32 250.11 61.97 C 253.13 60.44 252.20 56.77 252.38 54.02 C 252.11 37.19 252.73 20.34 252.02 3.51 Z" />
<path fill="#2c302b" opacity="1.00" d=" M 187.95 118.81 C 189.04 103.36 187.47 87.81 188.79 72.39 C 189.40 72.85 190.62 73.78 191.23 74.24 C 191.71 75.77 191.89 77.38 191.89 78.98 C 191.81 92.40 191.84 105.82 191.86 119.24 C 190.55 119.10 189.25 118.96 187.95 118.81 Z" />
<path fill="#2c302b" opacity="1.00" d=" M 252.02 131.76 C 253.34 131.70 254.67 131.64 256.00 131.59 L 256.00 191.91 C 235.47 191.64 214.93 192.12 194.41 191.66 C 195.30 190.49 196.21 188.95 197.95 189.31 C 216.03 189.18 234.11 189.57 252.19 189.17 C 252.49 173.45 252.20 157.72 252.35 141.99 C 252.40 138.58 252.26 135.16 252.02 131.76 Z" />
<path fill="#2c302b" opacity="1.00" d=" M 60.29 236.09 C 61.47 235.95 62.66 235.82 63.85 235.72 C 63.89 242.48 63.61 249.25 64.18 256.00 L 3.03 256.00 C 3.07 255.28 3.14 253.85 3.17 253.13 C 22.16 253.40 41.17 253.47 60.15 253.16 C 60.50 247.47 60.26 241.78 60.29 236.09 Z" />
</g>
<g id="#494d48ff">
<path fill="#494d48" opacity="1.00" d=" M 188.30 3.96 C 189.42 3.95 190.54 3.94 191.66 3.93 C 191.61 9.71 191.55 15.49 191.71 21.27 C 190.59 21.25 189.48 21.24 188.37 21.22 C 188.38 15.47 188.31 9.72 188.30 3.96 Z" />
<path fill="#494d48" opacity="1.00" d=" M 188.73 38.69 C 189.47 38.62 190.96 38.49 191.71 38.43 C 191.66 46.18 191.42 53.94 191.79 61.69 C 192.92 61.54 194.06 61.38 195.20 61.23 L 195.16 61.88 C 195.13 62.36 195.06 63.32 195.02 63.80 C 194.14 63.82 192.38 63.86 191.50 63.88 C 190.39 62.95 189.26 62.04 188.13 61.14 C 188.65 53.66 187.81 46.14 188.73 38.69 Z" />
<path fill="#494d48" opacity="1.00" d=" M 124.23 67.96 C 125.37 67.95 126.52 67.93 127.67 67.92 C 127.55 80.59 127.66 93.25 127.62 105.92 C 127.26 105.43 126.53 104.44 126.17 103.95 C 125.16 101.55 124.41 99.05 123.77 96.53 C 124.87 87.05 124.17 77.48 124.23 67.96 Z" />
<path fill="#494d48" opacity="1.00" d=" M 60.48 142.63 C 61.58 143.91 62.73 145.13 63.94 146.30 C 63.38 154.81 63.54 163.36 63.74 171.89 C 62.69 172.11 61.64 172.36 60.60 172.65 C 60.17 162.65 60.26 152.63 60.48 142.63 Z" />
<path fill="#494d48" opacity="1.00" d=" M 124.25 195.90 C 125.39 195.91 126.53 195.91 127.67 195.92 C 127.50 200.49 127.48 205.08 128.36 209.58 C 127.28 214.26 125.92 218.85 124.54 223.45 C 123.96 214.28 124.54 205.08 124.25 195.90 Z" />
<path fill="#494d48" opacity="1.00" d=" M 124.24 235.79 C 125.39 235.81 126.55 235.83 127.71 235.86 C 127.62 241.79 127.39 247.73 127.79 253.66 C 128.93 253.49 130.06 253.33 131.19 253.17 L 131.16 253.90 C 131.12 254.43 131.05 255.48 131.01 256.00 L 66.72 256.00 C 66.78 255.44 66.89 254.33 66.95 253.78 C 68.62 253.53 70.29 253.39 71.97 253.33 C 89.38 253.21 106.79 253.64 124.19 253.18 C 124.49 247.38 124.35 241.58 124.24 235.79 Z" />
</g>
<g id="#3f423eff">
<path fill="#3f423e" opacity="1.00" d=" M 195.27 3.87 C 214.17 3.13 233.11 3.86 252.02 3.51 C 252.73 20.34 252.11 37.19 252.38 54.02 C 252.20 56.77 253.13 60.44 250.11 61.97 C 249.58 60.85 248.95 59.80 248.22 58.81 L 248.05 58.12 C 247.91 56.52 247.23 55.05 246.25 53.80 C 241.13 44.17 233.76 35.66 224.44 29.90 C 222.14 28.01 219.46 26.64 216.54 26.01 C 207.59 22.73 197.90 20.85 188.37 22.13 L 188.37 21.22 C 189.48 21.24 190.59 21.25 191.71 21.27 C 192.57 21.27 194.29 21.29 195.15 21.30 C 195.38 15.49 195.22 9.68 195.27 3.87 Z" />
<path fill="#3f423e" opacity="1.00" d=" M 195.29 38.36 C 205.11 38.57 214.88 42.41 221.95 49.27 C 222.81 50.27 223.71 51.23 224.68 52.13 C 227.40 54.88 229.58 58.14 231.13 61.69 C 219.15 61.60 207.14 61.38 195.16 61.88 L 195.20 61.23 C 195.37 53.61 195.21 45.98 195.29 38.36 Z" />
<path fill="#3f423e" opacity="1.00" d=" M 3.25 195.82 C 10.69 195.65 18.33 194.76 25.65 196.38 C 19.02 204.50 13.69 213.69 9.54 223.31 C 9.49 223.43 9.39 223.66 9.34 223.77 L 9.08 224.37 C 7.89 225.70 7.17 227.36 6.96 229.13 C 6.39 231.17 5.66 233.17 4.97 235.18 C 70.43 235.39 135.90 235.04 201.36 235.35 C 199.30 235.55 197.23 235.69 195.17 235.73 C 194.36 235.75 192.75 235.78 191.95 235.79 C 191.14 235.83 189.51 235.89 188.70 235.93 C 179.15 236.41 169.57 236.07 160.01 236.16 C 150.42 236.05 140.82 236.39 131.23 235.97 C 130.35 235.94 128.59 235.89 127.71 235.86 C 126.55 235.83 125.39 235.81 124.24 235.79 C 105.21 235.52 86.18 235.86 67.15 235.65 C 66.33 235.67 64.68 235.70 63.85 235.72 C 62.66 235.82 61.47 235.95 60.29 236.09 C 60.26 241.78 60.50 247.47 60.15 253.16 C 41.17 253.47 22.16 253.40 3.17 253.13 C 3.42 234.03 3.24 214.92 3.25 195.82 Z" />
</g>
<g id="#441effff">
<path fill="#441eff" opacity="1.00" d=" M 139.88 61.91 C 146.53 40.71 166.15 24.30 188.37 22.13 C 197.90 20.85 207.59 22.73 216.54 26.01 C 219.07 27.51 221.71 28.81 224.44 29.90 C 233.76 35.66 241.13 44.17 246.25 53.80 C 245.07 55.51 246.13 57.64 248.05 58.12 L 248.22 58.81 C 247.82 60.52 247.98 62.83 250.02 63.37 L 249.99 63.85 L 249.95 64.90 C 250.23 65.45 250.79 66.55 251.07 67.10 L 251.05 67.88 C 250.89 74.24 251.07 80.60 251.03 86.96 C 251.10 92.52 249.02 97.80 246.80 102.80 C 242.63 111.92 236.08 119.88 227.94 125.72 C 227.35 126.11 226.17 126.88 225.57 127.27 C 223.87 128.32 222.12 129.31 220.37 130.27 C 219.45 130.75 218.52 131.21 217.59 131.65 C 213.88 133.09 210.11 134.40 206.21 135.22 C 204.73 134.45 202.89 134.55 201.83 135.95 C 195.93 136.26 189.97 136.38 184.10 135.53 C 181.23 134.74 178.34 134.00 175.53 133.02 C 173.50 131.51 171.18 130.50 168.68 130.09 L 168.63 130.06 C 166.47 128.84 164.31 127.64 162.17 126.39 L 161.39 125.86 C 149.05 116.84 140.06 103.13 137.90 87.88 C 137.85 82.01 137.82 76.14 137.94 70.28 C 138.13 69.31 138.32 68.35 138.52 67.39 C 138.76 66.15 139.03 64.92 139.32 63.70 C 139.46 63.25 139.74 62.36 139.88 61.91 M 159.39 58.85 C 158.86 59.89 158.31 60.92 157.87 62.00 C 156.67 63.44 155.90 65.23 155.77 67.11 L 156.12 67.62 L 155.37 67.98 C 154.56 69.73 154.56 71.74 154.22 73.62 C 153.96 73.97 153.43 74.67 153.17 75.02 C 152.97 78.36 152.08 82.32 154.21 85.20 C 154.72 87.91 155.35 90.63 156.49 93.16 C 155.00 94.76 156.59 98.69 158.88 97.97 C 163.87 108.75 174.71 115.42 185.58 119.16 C 186.02 119.13 186.88 119.06 187.31 119.02 C 188.49 120.97 192.33 119.46 194.46 119.95 C 213.95 120.02 232.07 104.67 234.96 85.38 C 236.66 81.51 236.61 76.57 234.99 72.67 C 234.91 72.33 234.76 71.63 234.69 71.29 C 234.21 68.67 233.45 66.11 232.54 63.61 L 232.31 63.62 C 232.02 63.14 231.43 62.17 231.13 61.69 C 229.58 58.14 227.40 54.88 224.68 52.13 C 226.22 50.57 223.57 47.92 221.95 49.27 C 214.88 42.41 205.11 38.57 195.29 38.36 C 194.39 38.38 192.60 38.41 191.71 38.43 C 190.96 38.49 189.47 38.62 188.73 38.69 C 176.58 40.56 165.51 48.21 159.39 58.85 Z" />
<path fill="#441eff" opacity="1.00" d=" M 175.22 57.09 C 176.69 55.83 178.64 54.77 180.61 55.55 C 183.36 57.06 185.62 59.28 188.13 61.14 C 189.26 62.04 190.39 62.95 191.50 63.88 C 193.89 65.95 196.36 67.93 198.87 69.87 C 201.22 71.94 204.04 73.59 205.86 76.21 C 206.71 79.71 206.13 83.39 206.29 86.96 C 206.16 93.29 206.65 99.65 206.09 105.95 C 205.21 109.15 200.50 109.38 198.85 106.72 C 198.90 100.26 199.56 93.70 198.19 87.33 C 197.96 83.82 199.09 79.40 195.29 77.42 C 193.96 76.33 192.59 75.29 191.23 74.24 C 190.62 73.78 189.40 72.85 188.79 72.39 C 186.87 70.91 185.05 69.31 183.14 67.83 C 180.22 65.45 177.00 63.33 174.77 60.23 C 174.88 59.45 175.11 57.87 175.22 57.09 Z" />
<path fill="#441eff" opacity="1.00" d=" M 139.54 168.12 C 153.99 172.24 167.44 179.76 178.64 189.76 C 179.34 190.40 180.04 191.06 180.72 191.73 C 182.04 193.10 183.33 194.50 184.58 195.93 C 184.94 196.35 185.65 197.19 186.01 197.61 C 185.87 199.13 186.56 200.01 188.08 200.23 C 188.43 200.76 189.11 201.83 189.45 202.36 C 189.49 202.42 189.57 202.54 189.61 202.60 C 190.09 203.36 191.04 204.88 191.52 205.64 C 192.69 207.65 193.80 209.69 194.87 211.75 C 198.38 219.19 200.34 227.22 201.36 235.35 C 135.90 235.04 70.43 235.39 4.97 235.18 C 5.66 233.17 6.39 231.17 6.96 229.13 C 9.21 228.73 9.27 226.16 9.08 224.37 L 9.34 223.77 C 9.39 223.66 9.49 223.43 9.54 223.31 C 13.69 213.69 19.02 204.50 25.65 196.38 C 26.94 194.86 28.26 193.37 29.59 191.89 C 30.24 191.19 30.91 190.50 31.59 189.83 C 39.81 182.04 49.59 175.67 60.60 172.65 C 61.64 172.36 62.69 172.11 63.74 171.89 C 64.90 171.67 66.06 171.47 67.23 171.31 C 67.84 171.23 69.06 171.07 69.66 170.99 C 71.03 177.27 72.44 183.54 73.96 189.78 C 74.07 190.26 74.28 191.21 74.39 191.68 C 77.06 203.50 79.86 215.30 82.75 227.07 C 85.96 226.91 89.36 227.51 92.45 226.56 C 95.88 218.50 98.74 210.21 102.06 202.10 C 102.37 201.73 102.99 200.99 103.30 200.62 C 104.57 202.54 105.86 204.44 107.11 206.37 C 109.69 212.22 112.52 217.96 114.89 223.90 C 115.29 224.95 115.67 226.01 116.05 227.08 C 118.83 227.07 121.62 226.99 124.40 226.82 C 124.42 226.05 124.48 224.51 124.51 223.74 L 124.54 223.45 C 125.92 218.85 127.28 214.26 128.36 209.58 C 132.39 195.85 135.75 181.93 139.54 168.12 Z" />
</g>
<g id="#56488cff">
<path fill="#56488c" opacity="1.00" d=" M 216.54 26.01 C 219.46 26.64 222.14 28.01 224.44 29.90 C 221.71 28.81 219.07 27.51 216.54 26.01 Z" />
</g>
<g id="#5e41d9ff">
<path fill="#5e41d9" opacity="1.00" d=" M 221.95 49.27 C 223.57 47.92 226.22 50.57 224.68 52.13 C 223.71 51.23 222.81 50.27 221.95 49.27 Z" />
</g>
<g id="#441fffff">
<path fill="#441fff" opacity="1.00" d=" M 69.39 64.31 C 84.67 52.15 107.19 49.95 124.64 58.60 C 124.38 59.52 123.86 61.34 123.60 62.25 C 123.49 62.62 123.27 63.36 123.16 63.73 C 122.98 64.57 122.63 66.23 122.45 67.07 C 120.68 76.82 120.98 87.00 123.77 96.53 C 124.41 99.05 125.16 101.55 126.17 103.95 C 127.49 107.25 129.04 110.47 130.93 113.49 C 133.61 117.90 136.78 122.00 140.34 125.74 C 141.09 126.54 141.86 127.34 142.65 128.12 C 143.90 129.32 145.20 130.46 146.50 131.61 C 147.36 132.38 148.22 133.16 149.08 133.94 C 144.63 141.95 138.10 148.75 130.26 153.49 C 128.23 154.67 126.21 155.85 124.12 156.91 C 122.97 157.41 121.80 157.86 120.62 158.28 C 117.08 158.65 113.62 159.49 110.35 160.91 C 109.87 160.99 108.91 161.15 108.43 161.23 C 104.07 161.01 99.71 161.09 95.36 161.29 C 95.04 161.22 94.41 161.09 94.09 161.03 C 93.06 159.56 91.16 159.43 89.70 160.32 C 81.62 158.51 74.10 154.61 67.61 149.51 C 66.36 148.47 65.14 147.39 63.94 146.30 C 62.73 145.13 61.58 143.91 60.48 142.63 C 57.94 139.56 55.80 136.18 53.97 132.64 C 52.54 129.77 51.30 126.79 50.21 123.77 C 49.58 121.41 49.00 119.03 48.63 116.62 C 49.08 110.88 48.95 105.12 48.48 99.39 C 50.10 87.94 55.42 76.84 64.00 68.99 C 65.78 67.41 67.57 65.84 69.39 64.31 Z" />
</g>
<g id="#654ad4ff">
<path fill="#654ad4" opacity="1.00" d=" M 246.25 53.80 C 247.23 55.05 247.91 56.52 248.05 58.12 C 246.13 57.64 245.07 55.51 246.25 53.80 Z" />
</g>
<g id="#474b46ff">
<path fill="#474b46" opacity="1.00" d=" M 173.41 61.09 C 174.00 59.75 174.58 58.41 175.22 57.09 C 175.11 57.87 174.88 59.45 174.77 60.23 C 175.34 61.45 175.96 62.64 176.57 63.84 C 170.16 63.46 163.73 63.52 157.32 63.83 C 157.46 63.37 157.74 62.45 157.87 62.00 C 158.31 60.92 158.86 59.89 159.39 58.85 C 159.59 59.41 160.00 60.54 160.20 61.10 C 164.58 61.65 169.02 61.53 173.41 61.09 Z" />
</g>
<g id="#694ed2ff">
<path fill="#694ed2" opacity="1.00" d=" M 248.22 58.81 C 248.95 59.80 249.58 60.85 250.11 61.97 C 250.09 62.32 250.04 63.02 250.02 63.37 C 247.98 62.83 247.82 60.52 248.22 58.81 Z" />
</g>
<g id="#616560ff">
<path fill="#616560" opacity="1.00" d=" M 174.77 60.23 C 177.00 63.33 180.22 65.45 183.14 67.83 C 174.16 67.18 165.12 67.53 156.12 67.62 L 155.77 67.11 C 155.90 65.23 156.67 63.44 157.87 62.00 C 157.74 62.45 157.46 63.37 157.32 63.83 C 163.73 63.52 170.16 63.46 176.57 63.84 C 175.96 62.64 175.34 61.45 174.77 60.23 Z" />
</g>
<g id="#5c615bff">
<path fill="#5c615b" opacity="1.00" d=" M 0.00 61.55 C 1.01 61.69 2.02 61.83 3.02 61.97 C 3.38 62.35 4.10 63.11 4.45 63.49 C 23.13 63.52 41.81 63.41 60.49 63.56 C 60.46 64.48 60.39 66.33 60.36 67.25 C 41.34 67.62 22.32 67.29 3.30 67.38 C 3.20 86.84 3.44 106.31 3.17 125.77 C 3.15 126.29 3.12 127.35 3.10 127.87 C 2.33 127.91 0.78 127.98 0.00 128.01 L 0.00 61.55 Z" />
<path fill="#5c615b" opacity="1.00" d=" M 220.37 130.27 C 222.12 129.31 223.87 128.32 225.57 127.27 C 234.66 128.08 243.80 127.17 252.89 127.85 C 252.60 128.92 252.31 129.99 252.02 131.07 C 244.68 131.46 237.34 131.05 230.01 131.30 C 226.76 131.45 223.51 131.13 220.37 130.27 Z" />
<path fill="#5c615b" opacity="1.00" d=" M 180.72 191.73 C 183.26 191.60 185.80 191.53 188.34 191.50 C 188.45 192.50 188.67 194.52 188.78 195.53 C 187.37 195.60 185.97 195.76 184.58 195.93 C 183.33 194.50 182.04 193.10 180.72 191.73 Z" />
</g>
<g id="#464a45ff">
<path fill="#464a45" opacity="1.00" d=" M 131.15 61.08 C 134.07 61.26 136.98 61.52 139.88 61.91 C 139.74 62.36 139.46 63.25 139.32 63.70 C 136.56 63.69 133.80 63.48 131.06 63.21 C 131.08 62.68 131.13 61.61 131.15 61.08 Z" />
<path fill="#464a45" opacity="1.00" d=" M 3.21 189.31 C 12.66 189.66 22.17 188.82 31.59 189.83 C 30.91 190.50 30.24 191.19 29.59 191.89 C 21.22 191.27 12.83 191.74 4.45 191.56 C 4.02 191.17 3.17 190.39 2.74 190.00 L 3.21 189.31 Z" />
</g>
<g id="#252924ff">
<path fill="#252924" opacity="1.00" d=" M 195.16 61.88 C 207.14 61.38 219.15 61.60 231.13 61.69 C 231.43 62.17 232.02 63.14 232.31 63.62 C 219.89 63.99 207.45 63.65 195.02 63.80 C 195.06 63.32 195.13 62.36 195.16 61.88 Z" />
<path fill="#252924" opacity="1.00" d=" M 140.34 125.74 C 147.34 125.25 154.40 125.13 161.39 125.86 L 162.17 126.39 L 163.30 127.71 C 156.42 127.97 149.52 127.42 142.65 128.12 C 141.86 127.34 141.09 126.54 140.34 125.74 Z" />
<path fill="#252924" opacity="1.00" d=" M 3.17 125.77 C 18.98 125.36 34.80 125.77 50.62 125.58 C 50.73 126.13 50.96 127.23 51.07 127.79 C 35.08 127.83 19.09 127.65 3.10 127.87 C 3.12 127.35 3.15 126.29 3.17 125.77 Z" />
<path fill="#252924" opacity="1.00" d=" M 73.96 189.78 C 82.13 189.52 90.31 189.54 98.48 189.71 C 98.77 190.17 99.34 191.09 99.63 191.55 C 91.54 191.99 83.44 191.73 75.35 191.74 L 74.39 191.68 C 74.28 191.21 74.07 190.26 73.96 189.78 Z" />
</g>
<g id="#7e827dff">
<path fill="#7e827d" opacity="1.00" d=" M 232.31 63.62 L 232.54 63.61 C 233.45 66.11 234.21 68.67 234.69 71.29 C 234.37 70.07 234.05 68.86 233.72 67.66 C 221.90 67.41 210.07 67.46 198.24 67.63 C 198.40 68.19 198.71 69.31 198.87 69.87 C 196.36 67.93 193.89 65.95 191.50 63.88 C 192.38 63.86 194.14 63.82 195.02 63.80 C 207.45 63.65 219.89 63.99 232.31 63.62 Z" />
<path fill="#7e827d" opacity="1.00" d=" M 162.17 126.39 C 164.31 127.64 166.47 128.84 168.63 130.06 C 161.59 132.83 153.84 130.52 146.50 131.61 C 145.20 130.46 143.90 129.32 142.65 128.12 C 149.52 127.42 156.42 127.97 163.30 127.71 L 162.17 126.39 Z" />
<path fill="#7e827d" opacity="1.00" d=" M 99.63 191.55 C 99.81 191.85 100.16 192.47 100.34 192.78 C 100.30 193.38 100.21 194.57 100.17 195.17 C 92.20 195.59 84.21 195.40 76.23 195.25 C 76.01 194.37 75.57 192.61 75.35 191.74 C 83.44 191.73 91.54 191.99 99.63 191.55 Z" />
<path fill="#7e827d" opacity="1.00" d=" M 191.56 191.55 C 192.27 191.58 193.69 191.63 194.41 191.66 C 214.93 192.12 235.47 191.64 256.00 191.91 L 256.00 195.39 C 254.65 195.40 253.31 195.42 251.96 195.45 C 233.03 195.77 214.08 195.20 195.15 195.71 C 195.23 201.06 195.26 206.41 194.87 211.75 C 193.80 209.69 192.69 207.65 191.52 205.64 C 191.82 202.33 191.90 199.00 191.75 195.68 C 191.69 194.30 191.63 192.92 191.56 191.55 Z" />
<path fill="#7e827d" opacity="1.00" d=" M 63.85 235.72 C 64.68 235.70 66.33 235.67 67.15 235.65 C 67.16 241.69 67.41 247.74 66.95 253.78 C 66.89 254.33 66.78 255.44 66.72 256.00 L 64.18 256.00 C 63.61 249.25 63.89 242.48 63.85 235.72 Z" />
</g>
<g id="#78758bff">
<path fill="#78758b" opacity="1.00" d=" M 63.48 63.40 C 65.45 63.70 67.42 64.00 69.39 64.31 C 67.57 65.84 65.78 67.41 64.00 68.99 C 63.83 67.12 63.65 65.26 63.48 63.40 Z" />
</g>
<g id="#70746fff">
<path fill="#70746f" opacity="1.00" d=" M 249.99 63.85 C 251.99 63.84 254.00 63.84 256.00 63.84 L 256.00 67.26 C 254.66 67.40 253.33 67.54 252.01 67.72 L 251.05 67.88 L 251.07 67.10 C 250.79 66.55 250.23 65.45 249.95 64.90 L 249.99 63.85 Z" />
</g>
<g id="#856cd1ff">
<path fill="#856cd1" opacity="1.00" d=" M 249.95 64.90 C 250.23 65.45 250.79 66.55 251.07 67.10 C 250.79 66.55 250.23 65.45 249.95 64.90 Z" />
</g>
<g id="#4a4e49ff">
<path fill="#4a4e49" opacity="1.00" d=" M 252.01 67.72 C 253.33 67.54 254.66 67.40 256.00 67.26 L 256.00 131.59 C 254.67 131.64 253.34 131.70 252.02 131.76 C 240.54 131.95 229.05 132.18 217.59 131.65 C 218.52 131.21 219.45 130.75 220.37 130.27 C 223.51 131.13 226.76 131.45 230.01 131.30 C 237.34 131.05 244.68 131.46 252.02 131.07 C 252.31 129.99 252.60 128.92 252.89 127.85 C 243.80 127.17 234.66 128.08 225.57 127.27 C 226.17 126.88 227.35 126.11 227.94 125.72 C 235.98 124.69 244.11 125.69 252.18 125.14 C 252.46 113.44 252.27 101.73 252.33 90.02 C 252.23 82.59 252.61 75.14 252.01 67.72 Z" />
<path fill="#4a4e49" opacity="1.00" d=" M 251.96 195.45 C 253.31 195.42 254.65 195.40 256.00 195.39 L 256.00 256.00 L 194.79 256.00 C 194.84 255.42 194.95 254.27 195.00 253.70 C 200.96 252.89 206.98 253.49 212.97 253.35 C 226.04 253.18 239.12 253.55 252.18 253.14 C 252.54 239.43 252.16 225.71 252.32 211.99 C 252.39 206.47 252.46 200.95 251.96 195.45 Z" />
</g>
<g id="#5e49a9ff">
<path fill="#5e49a9" opacity="1.00" d=" M 137.90 87.88 C 136.53 82.16 136.49 75.98 137.94 70.28 C 137.82 76.14 137.85 82.01 137.90 87.88 Z" />
</g>
<g id="#6b4eddff">
<path fill="#6b4edd" opacity="1.00" d=" M 234.99 72.67 C 236.61 76.57 236.66 81.51 234.96 85.38 C 235.14 81.15 235.13 76.91 234.99 72.67 Z" />
</g>
<g id="#603fecff">
<path fill="#603fec" opacity="1.00" d=" M 153.17 75.02 C 153.43 74.67 153.96 73.97 154.22 73.62 C 154.07 77.48 154.08 81.34 154.21 85.20 C 152.08 82.32 152.97 78.36 153.17 75.02 Z" />
</g>
<g id="#6e4bf2ff">
<path fill="#6e4bf2" opacity="1.00" d=" M 198.19 87.33 C 199.56 93.70 198.90 100.26 198.85 106.72 C 197.02 100.48 198.34 93.76 198.19 87.33 Z" />
</g>
<g id="#5c41d2ff">
<path fill="#5c41d2" opacity="1.00" d=" M 156.49 93.16 C 157.38 94.71 158.24 96.29 158.88 97.97 C 156.59 98.69 155.00 94.76 156.49 93.16 Z" />
</g>
<g id="#5d3de8ff">
<path fill="#5d3de8" opacity="1.00" d=" M 48.63 116.62 C 47.41 110.96 47.40 105.07 48.48 99.39 C 48.95 105.12 49.08 110.88 48.63 116.62 Z" />
</g>
<g id="#654ad8ff">
<path fill="#654ad8" opacity="1.00" d=" M 168.68 130.09 C 171.18 130.50 173.50 131.51 175.53 133.02 C 173.13 132.32 170.83 131.35 168.68 130.09 Z" />
</g>
<g id="#7259c8ff">
<path fill="#7259c8" opacity="1.00" d=" M 201.83 135.95 C 202.89 134.55 204.73 134.45 206.21 135.22 C 204.97 136.25 203.33 136.37 201.83 135.95 Z" />
</g>
<g id="#6145d4ff">
<path fill="#6145d4" opacity="1.00" d=" M 110.35 160.91 C 113.62 159.49 117.08 158.65 120.62 158.28 C 117.35 159.69 113.89 160.58 110.35 160.91 Z" />
</g>
<g id="#6c4edeff">
<path fill="#6c4ede" opacity="1.00" d=" M 89.70 160.32 C 91.16 159.43 93.06 159.56 94.09 161.03 C 92.58 161.36 90.98 161.24 89.70 160.32 Z" />
</g>
<g id="#7059bdff">
<path fill="#7059bd" opacity="1.00" d=" M 95.36 161.29 C 99.71 161.09 104.07 161.01 108.43 161.23 C 104.14 162.17 99.64 162.47 95.36 161.29 Z" />
</g>
<g id="#6352a4ff">
<path fill="#6352a4" opacity="1.00" d=" M 92.87 180.02 C 99.88 179.99 106.90 179.96 113.92 180.05 C 113.76 180.32 113.44 180.85 113.28 181.11 C 106.69 180.89 100.11 180.90 93.53 181.09 C 93.36 180.83 93.03 180.29 92.87 180.02 Z" />
</g>
<g id="#441efeff">
<path fill="#441efe" opacity="1.00" d=" M 93.53 181.09 C 100.11 180.90 106.69 180.89 113.28 181.11 C 111.78 183.79 110.39 186.53 108.86 189.20 C 108.53 189.78 107.87 190.95 107.54 191.53 C 107.06 192.38 106.60 193.23 106.14 194.09 L 105.79 194.73 C 104.67 195.29 103.53 195.82 102.40 196.35 C 101.73 195.15 101.03 193.97 100.34 192.78 C 100.16 192.47 99.81 191.85 99.63 191.55 C 99.34 191.09 98.77 190.17 98.48 189.71 C 96.73 186.90 95.17 183.97 93.53 181.09 Z" />
</g>
<g id="#6449d8ff">
<path fill="#6449d8" opacity="1.00" d=" M 102.40 196.35 C 103.53 195.82 104.67 195.29 105.79 194.73 C 105.13 196.08 104.52 197.45 103.91 198.82 C 105.10 201.28 106.13 203.82 107.11 206.37 C 105.86 204.44 104.57 202.54 103.30 200.62 C 102.99 200.99 102.37 201.73 102.06 202.10 C 102.58 200.24 103.11 198.25 102.40 196.35 Z" />
</g>
<g id="#6148caff">
<path fill="#6148ca" opacity="1.00" d=" M 186.01 197.61 C 187.26 198.03 187.95 198.90 188.08 200.23 C 186.56 200.01 185.87 199.13 186.01 197.61 Z" />
</g>
<g id="#6a52c0ff">
<path fill="#6a52c0" opacity="1.00" d=" M 189.45 202.36 C 189.49 202.42 189.57 202.54 189.61 202.60 C 189.57 202.54 189.49 202.42 189.45 202.36 Z" />
</g>
<g id="#795fcbff">
<path fill="#795fcb" opacity="1.00" d=" M 9.34 223.77 C 9.39 223.66 9.49 223.43 9.54 223.31 C 9.49 223.43 9.39 223.66 9.34 223.77 Z" />
</g>
<g id="#735bc8ff">
<path fill="#735bc8" opacity="1.00" d=" M 114.89 223.90 C 116.57 227.41 120.73 225.99 123.81 226.10 C 123.99 225.51 124.33 224.33 124.51 223.74 C 124.48 224.51 124.42 226.05 124.40 226.82 C 121.62 226.99 118.83 227.07 116.05 227.08 C 115.67 226.01 115.29 224.95 114.89 223.90 Z" />
</g>
<g id="#684eceff">
<path fill="#684ece" opacity="1.00" d=" M 6.96 229.13 C 7.17 227.36 7.89 225.70 9.08 224.37 C 9.27 226.16 9.21 228.73 6.96 229.13 Z" />
</g>
<g id="#343833ff">
<path fill="#343833" opacity="1.00" d=" M 188.70 235.93 C 189.51 235.89 191.14 235.83 191.95 235.79 C 191.94 242.53 191.80 249.27 192.23 256.00 L 131.01 256.00 C 131.05 255.48 131.12 254.43 131.16 253.90 C 150.30 253.22 169.48 253.73 188.64 253.67 C 188.63 247.76 188.52 241.84 188.70 235.93 Z" />
</g>
</svg>
