<?xml version="1.0" encoding="UTF-8" ?>
<!DOCTYPE svg PUBLIC "-//W3C//DTD SVG 1.1//EN" "http://www.w3.org/Graphics/SVG/1.1/DTD/svg11.dtd">
<svg width="256pt" height="256pt" viewBox="0 0 256 256" version="1.1" xmlns="http://www.w3.org/2000/svg">
<g id="#4b944aff">
<path fill="#4b944a" opacity="1.00" d=" M 0.00 0.00 L 256.00 0.00 L 256.00 256.00 L 0.00 256.00 L 0.00 0.00 M 138.29 6.08 C 135.81 5.98 133.11 6.43 131.41 8.42 C 127.49 12.62 124.72 18.03 123.80 23.72 C 122.65 27.33 122.58 31.19 122.99 34.94 C 119.98 33.94 116.88 33.09 113.70 32.94 C 112.96 31.02 108.04 31.00 107.30 32.93 C 101.40 33.04 98.38 39.18 97.14 44.15 C 95.09 51.91 99.62 59.72 105.75 64.23 C 111.26 67.97 114.31 75.02 121.17 76.77 C 126.24 77.52 132.24 77.89 136.49 74.49 C 139.58 71.97 139.31 67.56 138.56 64.05 C 140.13 61.44 143.64 61.83 146.21 60.96 C 152.23 60.45 158.15 57.78 162.30 53.35 C 164.80 50.72 165.45 46.58 163.75 43.36 C 161.77 39.45 158.48 36.30 154.88 33.86 C 154.91 33.42 154.96 32.52 154.98 32.08 C 159.61 31.45 163.91 27.48 164.07 22.68 C 166.02 21.98 165.99 17.04 164.01 16.37 C 164.07 14.17 162.34 12.54 160.89 11.11 C 158.04 8.58 154.59 6.21 150.63 6.13 C 150.68 4.12 147.05 4.01 146.09 5.42 C 145.29 5.42 143.71 5.43 142.91 5.43 C 141.92 4.08 138.33 4.10 138.29 6.08 M 117.78 95.85 C 111.35 96.28 104.98 97.73 99.03 100.21 C 99.35 102.06 99.67 103.91 100.04 105.76 C 99.70 111.60 99.68 117.47 100.08 123.31 C 98.52 133.44 97.62 143.74 94.75 153.62 C 83.37 188.07 66.37 220.39 46.89 250.90 C 101.24 251.09 155.59 251.01 209.94 250.94 C 203.62 240.03 198.42 228.53 192.67 217.33 C 184.09 200.11 176.06 182.63 167.77 165.28 C 163.51 157.08 159.88 148.51 157.70 139.51 C 156.32 134.20 155.84 128.72 154.89 123.33 C 155.32 117.46 155.32 111.56 154.96 105.69 C 155.35 103.55 155.64 101.40 155.91 99.24 C 149.48 97.50 142.90 96.22 136.24 95.78 C 130.23 94.37 123.78 94.40 117.78 95.85 Z" />
<path fill="#4b944a" opacity="1.00" d=" M 99.40 198.26 C 99.05 188.12 105.56 178.69 113.95 173.48 C 117.86 179.87 121.32 186.52 124.97 193.06 C 124.06 194.77 123.22 196.50 122.47 198.29 C 114.81 197.79 107.06 197.86 99.40 198.26 Z" />
<path fill="#4b944a" opacity="1.00" d=" M 125.05 203.71 C 127.03 203.66 129.01 203.54 130.99 203.62 C 132.95 205.26 133.88 207.75 135.15 209.90 C 137.48 214.53 140.54 218.80 142.23 223.73 C 133.50 228.52 122.90 227.99 114.08 223.76 C 117.32 216.86 121.44 210.42 125.05 203.71 Z" />
</g>
<g id="#e1534fff">
<path fill="#e1534f" opacity="1.00" d=" M 138.29 6.08 C 138.33 4.10 141.92 4.08 142.91 5.43 C 141.41 5.89 139.86 6.18 138.29 6.08 Z" />
</g>
<g id="#ff1414ff">
<path fill="#ff1414" opacity="1.00" d=" M 142.91 5.43 C 143.71 5.43 145.29 5.42 146.09 5.42 C 147.56 5.87 149.08 6.15 150.63 6.13 C 154.59 6.21 158.04 8.58 160.89 11.11 C 162.34 12.54 164.07 14.17 164.01 16.37 C 164.02 18.48 164.04 20.58 164.07 22.68 C 163.91 27.48 159.61 31.45 154.98 32.08 C 152.80 31.39 152.68 34.21 154.88 33.86 C 158.48 36.30 161.77 39.45 163.75 43.36 C 165.45 46.58 164.80 50.72 162.30 53.35 C 158.15 57.78 152.23 60.45 146.21 60.96 C 143.47 61.09 140.74 61.05 138.01 61.02 C 138.19 62.03 138.38 63.04 138.56 64.05 C 139.31 67.56 139.58 71.97 136.49 74.49 C 132.24 77.89 126.24 77.52 121.17 76.77 C 114.31 75.02 111.26 67.97 105.75 64.23 C 99.62 59.72 95.09 51.91 97.14 44.15 C 98.38 39.18 101.40 33.04 107.30 32.93 C 109.43 32.96 111.56 32.97 113.70 32.94 C 116.88 33.09 119.98 33.94 122.99 34.94 L 123.84 35.26 C 123.89 31.41 123.80 27.56 123.80 23.72 C 124.72 18.03 127.49 12.62 131.41 8.42 C 133.11 6.43 135.81 5.98 138.29 6.08 C 139.86 6.18 141.41 5.89 142.91 5.43 Z" />
<path fill="#ff1414" opacity="1.00" d=" M 99.03 100.21 C 104.98 97.73 111.35 96.28 117.78 95.85 C 123.93 95.86 130.09 95.85 136.24 95.78 C 142.90 96.22 149.48 97.50 155.91 99.24 C 155.64 101.40 155.35 103.55 154.96 105.69 C 153.61 111.49 153.62 117.52 154.89 123.33 C 155.84 128.72 156.32 134.20 157.70 139.51 C 159.88 148.51 163.51 157.08 167.77 165.28 C 176.06 182.63 184.09 200.11 192.67 217.33 C 198.42 228.53 203.62 240.03 209.94 250.94 C 155.59 251.01 101.24 251.09 46.89 250.90 C 66.37 220.39 83.37 188.07 94.75 153.62 C 97.62 143.74 98.52 133.44 100.08 123.31 C 101.36 117.53 101.49 111.52 100.04 105.76 C 99.67 103.91 99.35 102.06 99.03 100.21 M 99.40 198.26 L 98.52 198.55 C 106.77 199.23 115.17 199.41 123.40 198.43 L 122.47 198.29 C 123.22 196.50 124.06 194.77 124.97 193.06 C 121.32 186.52 117.86 179.87 113.95 173.48 C 105.56 178.69 99.05 188.12 99.40 198.26 M 131.63 193.15 C 132.45 194.74 133.23 196.36 133.96 197.99 L 134.09 198.89 C 141.92 198.61 149.94 199.88 157.65 198.21 C 157.17 188.07 151.27 178.90 142.87 173.43 C 138.70 179.75 135.43 186.61 131.63 193.15 M 125.49 196.57 C 124.84 198.12 124.90 201.26 127.27 200.98 C 126.66 202.80 130.29 202.75 129.62 200.97 L 130.67 201.18 C 131.05 199.81 132.15 198.24 131.19 196.86 C 130.02 194.88 126.76 194.47 125.49 196.57 M 125.05 203.71 C 121.44 210.42 117.32 216.86 114.08 223.76 C 122.90 227.99 133.50 228.52 142.23 223.73 C 140.54 218.80 137.48 214.53 135.15 209.90 C 133.88 207.75 132.95 205.26 130.99 203.62 C 129.01 203.54 127.03 203.66 125.05 203.71 Z" />
</g>
<g id="#d95953ff">
<path fill="#d95953" opacity="1.00" d=" M 146.09 5.42 C 147.05 4.01 150.68 4.12 150.63 6.13 C 149.08 6.15 147.56 5.87 146.09 5.42 Z" />
</g>
<g id="#c3675bff">
<path fill="#c3675b" opacity="1.00" d=" M 164.01 16.37 C 165.99 17.04 166.02 21.98 164.07 22.68 C 164.04 20.58 164.02 18.48 164.01 16.37 Z" />
</g>
<g id="#e34845ff">
<path fill="#e34845" opacity="1.00" d=" M 122.99 34.94 C 122.58 31.19 122.65 27.33 123.80 23.72 C 123.80 27.56 123.89 31.41 123.84 35.26 L 122.99 34.94 Z" />
</g>
<g id="#c86860ff">
<path fill="#c86860" opacity="1.00" d=" M 107.30 32.93 C 108.04 31.00 112.96 31.02 113.70 32.94 C 111.56 32.97 109.43 32.96 107.30 32.93 Z" />
</g>
<g id="#ba6a58ff">
<path fill="#ba6a58" opacity="1.00" d=" M 154.88 33.86 C 152.68 34.21 152.80 31.39 154.98 32.08 C 154.96 32.52 154.91 33.42 154.88 33.86 Z" />
</g>
<g id="#947a5eff">
<path fill="#947a5e" opacity="1.00" d=" M 138.01 61.02 C 140.74 61.05 143.47 61.09 146.21 60.96 C 143.64 61.83 140.13 61.44 138.56 64.05 C 138.38 63.04 138.19 62.03 138.01 61.02 Z" />
</g>
<g id="#cf574eff">
<path fill="#cf574e" opacity="1.00" d=" M 117.78 95.85 C 123.78 94.40 130.23 94.37 136.24 95.78 C 130.09 95.85 123.93 95.86 117.78 95.85 Z" />
</g>
<g id="#ec3937ff">
<path fill="#ec3937" opacity="1.00" d=" M 100.04 105.76 C 101.49 111.52 101.36 117.53 100.08 123.31 C 99.68 117.47 99.70 111.60 100.04 105.76 Z" />
</g>
<g id="#e83b39ff">
<path fill="#e83b39" opacity="1.00" d=" M 154.89 123.33 C 153.62 117.52 153.61 111.49 154.96 105.69 C 155.32 111.56 155.32 117.46 154.89 123.33 Z" />
</g>
<g id="#4b934aff">
<path fill="#4b934a" opacity="1.00" d=" M 131.63 193.15 C 135.43 186.61 138.70 179.75 142.87 173.43 C 151.27 178.90 157.17 188.07 157.65 198.21 C 149.76 197.82 141.86 198.12 133.96 197.99 C 133.23 196.36 132.45 194.74 131.63 193.15 Z" />
</g>
<g id="#4a9249ff">
<path fill="#4a9249" opacity="1.00" d=" M 125.49 196.57 C 126.76 194.47 130.02 194.88 131.19 196.86 C 132.15 198.24 131.05 199.81 130.67 201.18 L 129.62 200.97 C 129.03 200.98 127.86 200.98 127.27 200.98 C 124.90 201.26 124.84 198.12 125.49 196.57 Z" />
</g>
<g id="#ea4d4cff">
<path fill="#ea4d4c" opacity="1.00" d=" M 99.40 198.26 C 107.06 197.86 114.81 197.79 122.47 198.29 L 123.40 198.43 C 115.17 199.41 106.77 199.23 98.52 198.55 L 99.40 198.26 Z" />
</g>
<g id="#e94f4eff">
<path fill="#e94f4e" opacity="1.00" d=" M 133.96 197.99 C 141.86 198.12 149.76 197.82 157.65 198.21 C 149.94 199.88 141.92 198.61 134.09 198.89 L 133.96 197.99 Z" />
</g>
<g id="#cc5e55ff">
<path fill="#cc5e55" opacity="1.00" d=" M 127.27 200.98 C 127.86 200.98 129.03 200.98 129.62 200.97 C 130.29 202.75 126.66 202.80 127.27 200.98 Z" />
</g>
</svg>
