<?xml version="1.0" encoding="UTF-8" ?>
<!DOCTYPE svg PUBLIC "-//W3C//DTD SVG 1.1//EN" "http://www.w3.org/Graphics/SVG/1.1/DTD/svg11.dtd">
<svg width="20pt" height="20pt" viewBox="0 0 20 20" version="1.1" xmlns="http://www.w3.org/2000/svg">
<g id="#666a65ff">
<path fill="#666a65" opacity="1.00" d=" M 0.00 0.00 L 7.95 0.00 C 6.77 0.64 5.62 1.32 4.49 2.05 C 3.45 3.12 2.66 4.41 1.75 5.59 C 1.31 5.32 0.44 4.78 0.00 4.51 L 0.00 0.00 Z" />
</g>
<g id="#005effff">
<path fill="#005eff" opacity="1.00" d=" M 7.95 0.00 L 11.99 0.00 C 12.18 1.42 13.77 1.97 15.02 1.74 C 15.33 2.45 15.95 3.85 16.27 4.55 C 13.26 1.15 8.63 0.24 4.49 2.05 C 5.62 1.32 6.77 0.64 7.95 0.00 Z" />
</g>
<g id="#626561ff">
<path fill="#626561" opacity="1.00" d=" M 11.99 0.00 L 14.47 0.00 C 14.61 0.44 14.88 1.31 15.02 1.74 C 13.77 1.97 12.18 1.42 11.99 0.00 Z" />
</g>
<g id="#3f433eff">
<path fill="#3f433e" opacity="1.00" d=" M 14.47 0.00 L 20.00 0.00 L 20.00 4.47 C 19.33 4.74 18.00 5.29 17.33 5.56 C 17.06 5.31 16.53 4.80 16.27 4.55 C 15.95 3.85 15.33 2.45 15.02 1.74 C 14.88 1.31 14.61 0.44 14.47 0.00 Z" />
<path fill="#3f433e" opacity="1.00" d=" M -0.00 14.59 C 1.29 14.73 2.59 14.88 3.88 15.03 C 3.92 15.45 3.99 16.30 4.03 16.73 C 4.06 17.55 4.11 19.18 4.13 20.00 L 0.00 20.00 L 0.00 14.59 Z" />
</g>
<g id="#0000ffff">
<path fill="#0000ff" opacity="1.00" d=" M 4.49 2.05 C 8.63 0.24 13.26 1.15 16.27 4.55 C 16.53 4.80 17.06 5.31 17.33 5.56 C 16.96 7.01 16.58 8.47 16.09 9.88 L 15.25 9.96 C 14.88 8.56 14.47 7.17 14.06 5.78 L 13.82 4.98 C 10.91 5.00 7.99 4.99 5.08 4.94 C 4.75 6.34 4.41 7.74 4.11 9.16 C 3.58 8.88 2.53 8.32 2.00 8.04 C 1.94 7.43 1.81 6.20 1.75 5.59 C 2.66 4.41 3.45 3.12 4.49 2.05 Z" />
<path fill="#0000ff" opacity="1.00" d=" M 6.28 13.43 L 7.45 14.11 C 8.94 15.20 11.02 15.64 12.68 14.66 C 12.88 15.22 13.29 16.34 13.49 16.90 C 10.84 16.96 8.19 16.96 5.55 16.88 C 5.73 16.02 6.09 14.30 6.28 13.43 Z" />
</g>
<g id="#444943ff">
<path fill="#444943" opacity="1.00" d=" M 0.00 4.51 C 0.44 4.78 1.31 5.32 1.75 5.59 C 1.81 6.20 1.94 7.43 2.00 8.04 C 2.00 8.41 1.99 9.15 1.99 9.52 C 1.49 9.66 0.50 9.96 0.00 10.11 L 0.00 4.51 Z" />
</g>
<g id="#b1b16cff">
<path fill="#b1b16c" opacity="1.00" d=" M 5.08 4.94 C 7.99 4.99 10.91 5.00 13.82 4.98 L 14.06 5.78 C 11.43 5.81 8.81 5.83 6.19 5.85 C 5.50 6.95 4.80 8.06 4.11 9.16 C 4.41 7.74 4.75 6.34 5.08 4.94 Z" />
</g>
<g id="#60645fff">
<path fill="#60645f" opacity="1.00" d=" M 17.33 5.56 C 18.00 5.29 19.33 4.74 20.00 4.47 L 20.00 9.58 C 18.70 9.68 17.39 9.78 16.09 9.88 C 16.58 8.47 16.96 7.01 17.33 5.56 Z" />
<path fill="#60645f" opacity="1.00" d=" M 0.00 10.11 C 0.50 9.96 1.49 9.66 1.99 9.52 C 2.73 10.31 3.56 11.01 4.46 11.61 C 5.50 12.39 6.49 13.23 7.45 14.11 L 6.28 13.43 C 5.13 12.33 4.16 14.09 3.88 15.03 C 2.59 14.88 1.29 14.73 -0.00 14.59 L 0.00 10.11 Z" />
</g>
<g id="#ffff80ff">
<path fill="#ffff80" opacity="1.00" d=" M 6.19 5.85 C 8.81 5.83 11.43 5.81 14.06 5.78 C 14.47 7.17 14.88 8.56 15.25 9.96 L 13.69 10.08 C 14.02 10.59 14.67 11.60 14.99 12.10 C 14.61 12.29 13.86 12.65 13.49 12.83 L 13.01 13.05 C 11.17 13.47 9.29 13.71 7.45 14.11 C 6.49 13.23 5.50 12.39 4.46 11.61 C 4.37 11.00 4.20 9.77 4.11 9.16 C 4.80 8.06 5.50 6.95 6.19 5.85 M 7.28 7.12 C 5.88 7.89 5.80 8.57 7.04 9.17 C 8.43 8.45 8.50 7.77 7.28 7.12 M 11.05 7.32 C 10.72 8.74 11.26 9.29 12.68 8.95 C 12.95 7.59 12.41 7.05 11.05 7.32 M 8.58 10.78 C 9.82 11.53 10.54 11.22 10.73 9.85 C 9.50 9.11 8.78 9.41 8.58 10.78 Z" />
</g>
<g id="#000000ff">
<path fill="#000000" opacity="1.00" d=" M 7.28 7.12 C 8.50 7.77 8.43 8.45 7.04 9.17 C 5.80 8.57 5.88 7.89 7.28 7.12 Z" />
<path fill="#000000" opacity="1.00" d=" M 11.05 7.32 C 12.41 7.05 12.95 7.59 12.68 8.95 C 11.26 9.29 10.72 8.74 11.05 7.32 Z" />
</g>
<g id="#0d0d73ff">
<path fill="#0d0d73" opacity="1.00" d=" M 2.00 8.04 C 2.53 8.32 3.58 8.88 4.11 9.16 C 4.20 9.77 4.37 11.00 4.46 11.61 C 3.56 11.01 2.73 10.31 1.99 9.52 C 1.99 9.15 2.00 8.41 2.00 8.04 Z" />
</g>
<g id="#c0c060ff">
<path fill="#c0c060" opacity="1.00" d=" M 8.58 10.78 C 8.78 9.41 9.50 9.11 10.73 9.85 C 10.54 11.22 9.82 11.53 8.58 10.78 Z" />
</g>
<g id="#3d413cff">
<path fill="#3d413c" opacity="1.00" d=" M 13.69 10.08 L 15.25 9.96 L 16.09 9.88 C 17.39 9.78 18.70 9.68 20.00 9.58 L 20.00 14.80 C 18.36 14.86 16.71 14.93 15.07 15.00 C 14.67 14.46 13.88 13.38 13.49 12.83 C 13.86 12.65 14.61 12.29 14.99 12.10 C 14.67 11.60 14.02 10.59 13.69 10.08 Z" />
</g>
<g id="#0080ffff">
<path fill="#0080ff" opacity="1.00" d=" M 3.88 15.03 C 4.16 14.09 5.13 12.33 6.28 13.43 C 6.09 14.30 5.73 16.02 5.55 16.88 C 5.17 16.84 4.41 16.77 4.03 16.73 C 3.99 16.30 3.92 15.45 3.88 15.03 Z" />
<path fill="#0080ff" opacity="1.00" d=" M 13.01 13.05 L 13.49 12.83 C 13.88 13.38 14.67 14.46 15.07 15.00 C 15.05 15.44 15.02 16.33 15.01 16.78 C 14.63 16.81 13.87 16.87 13.49 16.90 C 13.29 16.34 12.88 15.22 12.68 14.66 C 12.76 14.26 12.93 13.45 13.01 13.05 Z" />
</g>
<g id="#000080ff">
<path fill="#000080" opacity="1.00" d=" M 7.45 14.11 C 9.29 13.71 11.17 13.47 13.01 13.05 C 12.93 13.45 12.76 14.26 12.68 14.66 C 11.02 15.64 8.94 15.20 7.45 14.11 Z" />
</g>
<g id="#5e625dff">
<path fill="#5e625d" opacity="1.00" d=" M 15.07 15.00 C 16.71 14.93 18.36 14.86 20.00 14.80 L 20.00 20.00 L 14.95 20.00 C 14.96 19.19 14.99 17.58 15.01 16.78 C 15.02 16.33 15.05 15.44 15.07 15.00 Z" />
</g>
<g id="#804000ff">
<path fill="#804000" opacity="1.00" d=" M 4.03 16.73 C 4.41 16.77 5.17 16.84 5.55 16.88 C 8.19 16.96 10.84 16.96 13.49 16.90 C 13.87 16.87 14.63 16.81 15.01 16.78 C 14.99 17.58 14.96 19.19 14.95 20.00 L 4.13 20.00 C 4.11 19.18 4.06 17.55 4.03 16.73 M 6.35 18.18 C 6.63 19.46 7.39 19.67 8.64 18.81 C 8.36 17.52 7.59 17.31 6.35 18.18 M 10.36 18.18 C 10.63 19.46 11.40 19.67 12.65 18.81 C 12.37 17.52 11.61 17.31 10.36 18.18 Z" />
</g>
<g id="#fe8040ff">
<path fill="#fe8040" opacity="1.00" d=" M 6.35 18.18 C 7.59 17.31 8.36 17.52 8.64 18.81 C 7.39 19.67 6.63 19.46 6.35 18.18 Z" />
</g>
<g id="#ff8040ff">
<path fill="#ff8040" opacity="1.00" d=" M 10.36 18.18 C 11.61 17.31 12.37 17.52 12.65 18.81 C 11.40 19.67 10.63 19.46 10.36 18.18 Z" />
</g>
</svg>
