<?xml version="1.0" encoding="UTF-8" ?>
<!DOCTYPE svg PUBLIC "-//W3C//DTD SVG 1.1//EN" "http://www.w3.org/Graphics/SVG/1.1/DTD/svg11.dtd">
<svg width="20pt" height="20pt" viewBox="0 0 20 20" version="1.1" xmlns="http://www.w3.org/2000/svg">
<g id="#549953ff">
<path fill="#549953" opacity="1.00" d=" M 0.00 0.00 L 11.70 0.00 C 7.60 0.21 3.71 1.80 1.74 5.52 C 1.85 6.09 2.07 7.23 2.18 7.79 C 2.28 9.37 2.94 10.93 4.37 11.72 L 4.96 12.17 L 5.42 12.56 C 4.34 13.78 3.52 15.66 4.57 17.16 C 4.92 17.87 5.61 19.29 5.96 20.00 L 0.00 20.00 L 0.00 0.00 Z" />
</g>
<g id="#0000ffff">
<path fill="#0000ff" opacity="1.00" d=" M 11.70 0.00 L 12.51 0.00 L 10.98 0.01 C 13.36 1.59 15.47 3.52 17.45 5.57 C 16.90 7.12 16.42 8.70 15.80 10.24 L 15.19 9.65 C 15.04 9.14 14.74 8.12 14.59 7.61 L 14.54 7.39 L 14.47 7.21 L 14.40 7.01 L 13.78 5.00 C 10.91 5.00 8.03 5.00 5.16 4.99 C 4.71 6.18 4.27 7.38 3.84 8.58 C 3.43 8.38 2.60 7.99 2.18 7.79 C 2.07 7.23 1.85 6.09 1.74 5.52 C 3.71 1.80 7.60 0.21 11.70 0.00 Z" />
<path fill="#0000ff" opacity="1.00" d=" M 6.38 14.75 C 8.50 14.81 10.62 14.93 12.73 15.11 C 12.93 15.59 13.34 16.56 13.54 17.04 C 10.80 16.93 8.06 16.93 5.33 17.04 C 5.59 16.47 6.12 15.32 6.38 14.75 Z" />
</g>
<g id="#4b944aff">
<path fill="#4b944a" opacity="1.00" d=" M 12.51 0.00 L 20.00 0.00 L 20.00 20.00 L 13.98 20.00 C 14.03 19.27 14.14 17.81 14.19 17.08 C 15.84 16.11 15.14 12.52 13.04 13.29 C 12.54 13.47 11.55 13.85 11.06 14.03 C 9.89 13.92 8.73 13.84 7.58 13.67 C 9.85 13.23 12.03 12.40 13.99 11.15 C 14.44 10.93 15.35 10.47 15.80 10.24 C 16.42 8.70 16.90 7.12 17.45 5.57 C 15.47 3.52 13.36 1.59 10.98 0.01 L 12.51 0.00 Z" />
</g>
<g id="#8a9a64ff">
<path fill="#8a9a64" opacity="1.00" d=" M 5.16 4.99 C 8.03 5.00 10.91 5.00 13.78 5.00 L 14.40 7.01 C 11.76 5.98 8.93 5.80 6.14 5.68 C 5.56 6.94 4.98 8.20 4.40 9.47 L 3.84 8.58 C 4.27 7.38 4.71 6.18 5.16 4.99 Z" />
</g>
<g id="#ffff80ff">
<path fill="#ffff80" opacity="1.00" d=" M 6.14 5.68 C 8.93 5.80 11.76 5.98 14.40 7.01 L 14.47 7.21 C 14.50 7.31 14.56 7.51 14.59 7.61 C 14.74 8.12 15.04 9.14 15.19 9.65 C 14.89 10.02 14.29 10.78 13.99 11.15 C 12.03 12.40 9.85 13.23 7.58 13.67 C 6.92 13.29 5.61 12.54 4.96 12.17 L 4.37 11.72 C 4.38 11.16 4.40 10.03 4.40 9.47 C 4.98 8.20 5.56 6.94 6.14 5.68 M 7.27 7.13 C 5.88 7.89 5.81 8.58 7.06 9.17 C 8.44 8.46 8.51 7.78 7.27 7.13 M 11.05 7.35 C 10.70 8.76 11.24 9.30 12.66 8.95 C 12.95 7.59 12.41 7.05 11.05 7.35 M 8.59 10.76 C 9.84 11.52 10.54 11.20 10.69 9.81 C 9.45 9.07 8.75 9.38 8.59 10.76 Z" />
</g>
<g id="#000000ff">
<path fill="#000000" opacity="1.00" d=" M 7.27 7.13 C 8.51 7.78 8.44 8.46 7.06 9.17 C 5.81 8.58 5.88 7.89 7.27 7.13 Z" />
<path fill="#000000" opacity="1.00" d=" M 11.05 7.35 C 12.41 7.05 12.95 7.59 12.66 8.95 C 11.24 9.30 10.70 8.76 11.05 7.35 Z" />
</g>
<g id="#8fa253ff">
<path fill="#8fa253" opacity="1.00" d=" M 14.47 7.21 L 14.54 7.39 L 14.59 7.61 C 14.56 7.51 14.50 7.31 14.47 7.21 Z" />
</g>
<g id="#000099ff">
<path fill="#000099" opacity="1.00" d=" M 2.18 7.79 C 2.60 7.99 3.43 8.38 3.84 8.58 L 4.40 9.47 C 4.40 10.03 4.38 11.16 4.37 11.72 C 2.94 10.93 2.28 9.37 2.18 7.79 Z" />
</g>
<g id="#93a556ff">
<path fill="#93a556" opacity="1.00" d=" M 8.59 10.76 C 8.75 9.38 9.45 9.07 10.69 9.81 C 10.54 11.20 9.84 11.52 8.59 10.76 Z" />
</g>
<g id="#132672ff">
<path fill="#132672" opacity="1.00" d=" M 13.99 11.15 C 14.29 10.78 14.89 10.02 15.19 9.65 L 15.80 10.24 C 15.35 10.47 14.44 10.93 13.99 11.15 Z" />
</g>
<g id="#1a1d83ff">
<path fill="#1a1d83" opacity="1.00" d=" M 4.96 12.17 C 5.61 12.54 6.92 13.29 7.58 13.67 C 8.73 13.84 9.89 13.92 11.06 14.03 C 11.55 13.85 12.54 13.47 13.04 13.29 C 12.96 13.74 12.81 14.65 12.73 15.11 C 10.62 14.93 8.50 14.81 6.38 14.75 C 6.14 14.20 5.66 13.10 5.42 12.56 L 4.96 12.17 Z" />
</g>
<g id="#0080ffff">
<path fill="#0080ff" opacity="1.00" d=" M 5.42 12.56 C 5.66 13.10 6.14 14.20 6.38 14.75 C 6.12 15.32 5.59 16.47 5.33 17.04 L 4.57 17.16 C 3.52 15.66 4.34 13.78 5.42 12.56 Z" />
</g>
<g id="#027ff9ff">
<path fill="#027ff9" opacity="1.00" d=" M 13.04 13.29 C 15.14 12.52 15.84 16.11 14.19 17.08 L 13.54 17.04 C 13.34 16.56 12.93 15.59 12.73 15.11 C 12.81 14.65 12.96 13.74 13.04 13.29 Z" />
</g>
<g id="#5f5722ff">
<path fill="#5f5722" opacity="1.00" d=" M 4.57 17.16 L 5.33 17.04 C 8.06 16.93 10.80 16.93 13.54 17.04 L 14.19 17.08 C 14.14 17.81 14.03 19.27 13.98 20.00 L 5.96 20.00 C 5.61 19.29 4.92 17.87 4.57 17.16 M 6.42 18.17 C 6.64 19.50 7.36 19.73 8.57 18.83 C 8.35 17.49 7.64 17.27 6.42 18.17 M 10.39 18.82 C 10.93 18.81 12.03 18.81 12.57 18.81 C 13.14 17.21 9.79 17.22 10.39 18.82 Z" />
</g>
<g id="#ff8040ff">
<path fill="#ff8040" opacity="1.00" d=" M 6.42 18.17 C 7.64 17.27 8.35 17.49 8.57 18.83 C 7.36 19.73 6.64 19.50 6.42 18.17 Z" />
<path fill="#ff8040" opacity="1.00" d=" M 10.39 18.82 C 9.79 17.22 13.14 17.21 12.57 18.81 C 12.03 18.81 10.93 18.81 10.39 18.82 Z" />
</g>
</svg>
