<?xml version="1.0" encoding="UTF-8" ?>
<!DOCTYPE svg PUBLIC "-//W3C//DTD SVG 1.1//EN" "http://www.w3.org/Graphics/SVG/1.1/DTD/svg11.dtd">
<svg width="20pt" height="20pt" viewBox="0 0 20 20" version="1.1" xmlns="http://www.w3.org/2000/svg">
<g id="#0e61ddfe">
<path fill="#0e61dd" opacity="1.00" d=" M 7.77 0.00 L 11.55 0.00 C 13.45 1.11 15.24 2.47 16.34 4.42 C 14.61 3.18 12.91 1.78 10.85 1.14 C 8.71 1.04 6.61 1.56 4.52 1.91 L 5.31 1.30 C 5.92 0.97 7.16 0.32 7.77 0.00 Z" />
</g>
<g id="#0000ffff">
<path fill="#0000ff" opacity="1.00" d=" M 4.52 1.91 C 6.61 1.56 8.71 1.04 10.85 1.14 C 12.91 1.78 14.61 3.18 16.34 4.42 C 16.53 4.69 16.91 5.24 17.10 5.52 C 17.10 7.48 16.42 9.31 15.68 11.09 L 14.74 10.47 C 14.71 9.79 14.63 8.42 14.60 7.74 C 14.57 7.61 14.51 7.36 14.48 7.24 L 14.33 6.70 L 13.87 5.00 C 10.96 5.00 8.04 4.99 5.13 4.97 C 4.61 6.70 4.08 8.43 3.58 10.16 L 4.85 9.73 C 4.87 10.25 4.90 11.29 4.91 11.81 C 4.53 11.63 3.77 11.27 3.38 11.09 C 2.75 9.29 2.21 7.46 1.77 5.60 C 2.68 4.37 3.55 3.11 4.52 1.91 Z" />
<path fill="#0000ff" opacity="1.00" d=" M 6.49 13.75 L 6.97 13.81 L 6.85 14.05 C 8.55 15.06 10.64 15.23 12.52 14.70 L 12.85 14.63 C 12.96 15.10 13.18 16.04 13.28 16.51 C 10.76 17.17 8.14 16.94 5.56 16.82 C 5.80 16.05 6.26 14.52 6.49 13.75 Z" />
</g>
<g id="#8a9a64ff">
<path fill="#8a9a64" opacity="1.00" d=" M 5.13 4.97 C 8.04 4.99 10.96 5.00 13.87 5.00 L 14.33 6.70 C 11.72 5.75 8.93 5.86 6.20 5.85 C 5.32 7.29 4.45 8.72 3.58 10.16 C 4.08 8.43 4.61 6.70 5.13 4.97 Z" />
</g>
<g id="#ffff80ff">
<path fill="#ffff80" opacity="1.00" d=" M 6.20 5.85 C 8.93 5.86 11.72 5.75 14.33 6.70 L 14.48 7.24 C 14.51 7.36 14.57 7.61 14.60 7.74 C 14.63 8.42 14.71 9.79 14.74 10.47 C 14.57 10.66 14.22 11.05 14.05 11.25 C 11.34 13.27 7.77 14.09 4.91 11.81 C 4.90 11.29 4.87 10.25 4.85 9.73 L 3.58 10.16 C 4.45 8.72 5.32 7.29 6.20 5.85 M 7.28 7.11 C 5.88 7.89 5.79 8.58 7.03 9.16 C 8.42 8.45 8.50 7.77 7.28 7.11 M 11.06 7.31 C 10.72 8.74 11.26 9.29 12.69 8.94 C 12.95 7.60 12.40 7.05 11.06 7.31 M 8.44 10.77 C 9.70 11.51 10.47 11.21 10.75 9.87 C 9.50 9.15 8.73 9.45 8.44 10.77 Z" />
</g>
<g id="#000000ff">
<path fill="#000000" opacity="1.00" d=" M 7.28 7.11 C 8.50 7.77 8.42 8.45 7.03 9.16 C 5.79 8.58 5.88 7.89 7.28 7.11 Z" />
<path fill="#000000" opacity="1.00" d=" M 11.06 7.31 C 12.40 7.05 12.95 7.60 12.69 8.94 C 11.26 9.29 10.72 8.74 11.06 7.31 Z" />
</g>
<g id="#8fa253ff">
<path fill="#8fa253" opacity="1.00" d=" M 14.48 7.24 C 14.51 7.36 14.57 7.61 14.60 7.74 C 14.57 7.61 14.51 7.36 14.48 7.24 Z" />
</g>
<g id="#93a556ff">
<path fill="#93a556" opacity="1.00" d=" M 8.44 10.77 C 8.73 9.45 9.50 9.15 10.75 9.87 C 10.47 11.21 9.70 11.51 8.44 10.77 Z" />
</g>
<g id="#0080ffff">
<path fill="#0080ff" opacity="1.00" d=" M 4.96 12.79 C 5.34 13.03 6.11 13.51 6.49 13.75 C 6.26 14.52 5.80 16.05 5.56 16.82 L 4.78 17.08 C 3.28 16.04 4.30 14.03 4.96 12.79 Z" />
</g>
<g id="#000080ff">
<path fill="#000080" opacity="1.00" d=" M 6.97 13.81 C 8.97 13.66 10.97 13.51 12.97 13.36 C 12.94 13.68 12.88 14.31 12.85 14.63 L 12.52 14.70 C 10.64 15.23 8.55 15.06 6.85 14.05 L 6.97 13.81 Z" />
</g>
<g id="#027ff9ff">
<path fill="#027ff9" opacity="1.00" d=" M 12.97 13.36 C 13.23 13.24 13.77 12.99 14.03 12.87 C 15.14 13.97 15.87 16.63 13.85 17.22 L 13.28 16.51 C 13.18 16.04 12.96 15.10 12.85 14.63 C 12.88 14.31 12.94 13.68 12.97 13.36 Z" />
</g>
<g id="#714a11ff">
<path fill="#714a11" opacity="1.00" d=" M 4.78 17.08 L 5.56 16.82 C 8.14 16.94 10.76 17.17 13.28 16.51 L 13.85 17.22 C 13.94 17.91 14.11 19.30 14.19 20.00 L 5.08 20.00 C 5.01 19.27 4.86 17.81 4.78 17.08 M 6.35 18.16 C 6.59 19.44 7.35 19.67 8.63 18.83 C 8.39 17.54 7.62 17.32 6.35 18.16 M 10.35 18.20 C 10.66 19.46 11.45 19.66 12.69 18.79 C 12.37 17.52 11.59 17.32 10.35 18.20 Z" />
</g>
<g id="#e37537ff">
<path fill="#e37537" opacity="1.00" d=" M 6.35 18.16 C 7.62 17.32 8.39 17.54 8.63 18.83 C 7.35 19.67 6.59 19.44 6.35 18.16 Z" />
</g>
<g id="#f67d3dff">
<path fill="#f67d3d" opacity="1.00" d=" M 10.35 18.20 C 11.59 17.32 12.37 17.52 12.69 18.79 C 11.45 19.66 10.66 19.46 10.35 18.20 Z" />
</g>
</svg>
