<?xml version="1.0" encoding="UTF-8" ?>
<!DOCTYPE svg PUBLIC "-//W3C//DTD SVG 1.1//EN" "http://www.w3.org/Graphics/SVG/1.1/DTD/svg11.dtd">
<svg width="36pt" height="37pt" viewBox="0 0 36 37" version="1.1" xmlns="http://www.w3.org/2000/svg">
<g id="#506901ff">
<path fill="#506901" opacity="1.00" d=" M 0.00 0.00 L 2.69 0.00 C 3.73 1.64 1.18 3.31 0.00 1.83 L 0.00 0.00 Z" />
</g>
<g id="#e60600ff">
<path fill="#e60600" opacity="1.00" d=" M 2.69 0.00 L 10.56 0.00 C 6.77 2.54 3.32 5.55 0.00 8.67 L 0.00 1.83 C 1.18 3.31 3.73 1.64 2.69 0.00 Z" />
</g>
<g id="#e6c202ff">
<path fill="#e6c202" opacity="1.00" d=" M 10.56 0.00 L 15.91 0.00 C 11.91 3.32 6.81 5.45 3.99 10.01 C 2.66 10.43 1.33 10.83 0.00 11.23 L 0.00 8.67 C 3.32 5.55 6.77 2.54 10.56 0.00 Z" />
</g>
<g id="#e6e363ff">
<path fill="#e6e363" opacity="1.00" d=" M 15.91 0.00 L 17.65 0.00 C 17.89 1.54 18.13 3.07 18.36 4.61 C 19.08 3.08 19.78 1.54 20.46 0.00 L 21.64 0.00 C 27.22 3.21 30.40 9.21 36.00 12.42 L 36.00 12.98 C 34.30 14.41 32.52 15.74 30.76 17.09 C 27.34 13.24 24.56 7.60 18.86 6.99 C 16.76 7.83 15.10 9.44 13.33 10.79 C 12.94 9.15 12.55 7.52 12.16 5.88 C 9.83 7.69 7.56 9.58 5.32 11.50 C 6.16 12.76 6.98 14.01 7.81 15.28 C 5.17 14.59 2.54 13.84 0.00 12.86 L 0.00 11.23 C 1.33 10.83 2.66 10.43 3.99 10.01 C 6.81 5.45 11.91 3.32 15.91 0.00 Z" />
</g>
<g id="#e6e3afff">
<path fill="#e6e3af" opacity="1.00" d=" M 17.65 0.00 L 20.46 0.00 C 19.78 1.54 19.08 3.08 18.36 4.61 C 18.13 3.07 17.89 1.54 17.65 0.00 Z" />
</g>
<g id="#e6c304ff">
<path fill="#e6c304" opacity="1.00" d=" M 21.64 0.00 L 27.51 0.00 C 29.92 2.97 31.37 7.86 36.00 7.68 L 36.00 12.42 C 30.40 9.21 27.22 3.21 21.64 0.00 Z" />
</g>
<g id="#e60c00ff">
<path fill="#e60c00" opacity="1.00" d=" M 27.51 0.00 L 35.33 0.00 C 33.97 1.10 34.63 3.07 36.00 3.80 L 36.00 7.68 C 31.37 7.86 29.92 2.97 27.51 0.00 Z" />
</g>
<g id="#367f00ff">
<path fill="#367f00" opacity="1.00" d=" M 35.33 0.00 L 36.00 0.00 L 36.00 3.80 C 34.63 3.07 33.97 1.10 35.33 0.00 Z" />
</g>
<g id="#e6e3c6ff">
<path fill="#e6e3c6" opacity="1.00" d=" M 5.32 11.50 C 7.56 9.58 9.83 7.69 12.16 5.88 C 12.55 7.52 12.94 9.15 13.33 10.79 C 15.10 9.44 16.76 7.83 18.86 6.99 C 24.56 7.60 27.34 13.24 30.76 17.09 C 32.52 15.74 34.30 14.41 36.00 12.98 L 36.00 16.64 C 32.63 17.96 29.07 18.71 25.67 19.93 C 23.25 20.59 22.47 23.22 21.28 25.14 C 20.35 25.04 19.42 24.94 18.49 24.85 C 19.08 28.55 19.81 32.23 20.20 35.96 C 20.79 36.22 21.98 36.74 22.57 37.00 L 9.61 37.00 C 11.61 36.47 13.57 35.82 15.51 35.11 C 13.51 34.41 11.50 33.73 9.51 33.02 C 12.61 31.78 15.86 32.16 18.83 33.58 C 17.95 29.33 15.41 25.66 14.37 21.45 C 13.28 21.95 12.19 22.45 11.10 22.96 C 9.70 21.80 8.31 20.63 6.92 19.47 C 4.61 20.24 2.29 20.97 0.00 21.81 L 0.00 12.86 C 2.54 13.84 5.17 14.59 7.81 15.28 C 6.98 14.01 6.16 12.76 5.32 11.50 Z" />
</g>
<g id="#e6e364ff">
<path fill="#e6e364" opacity="1.00" d=" M 25.67 19.93 C 29.07 18.71 32.63 17.96 36.00 16.64 L 36.00 21.39 C 35.48 23.41 34.88 25.41 34.30 27.41 C 31.95 27.61 29.61 27.82 27.27 28.04 C 28.15 29.32 29.04 30.59 29.93 31.87 C 27.23 32.10 24.53 32.31 21.84 32.54 C 23.61 34.07 25.38 35.60 27.26 37.00 L 22.57 37.00 C 21.98 36.74 20.79 36.22 20.20 35.96 C 19.81 32.23 19.08 28.55 18.49 24.85 C 19.42 24.94 20.35 25.04 21.28 25.14 C 22.47 23.22 23.25 20.59 25.67 19.93 Z" />
</g>
<g id="#e6e362ff">
<path fill="#e6e362" opacity="1.00" d=" M 0.00 21.81 C 2.29 20.97 4.61 20.24 6.92 19.47 C 8.31 20.63 9.70 21.80 11.10 22.96 C 12.19 22.45 13.28 21.95 14.37 21.45 C 15.41 25.66 17.95 29.33 18.83 33.58 C 15.86 32.16 12.61 31.78 9.51 33.02 C 11.50 33.73 13.51 34.41 15.51 35.11 C 13.57 35.82 11.61 36.47 9.61 37.00 L 7.64 37.00 C 7.84 34.59 8.06 32.18 8.29 29.77 C 5.55 28.76 2.79 27.82 0.00 26.95 L 0.00 21.81 Z" />
</g>
<g id="#e69d00ff">
<path fill="#e69d00" opacity="1.00" d=" M 34.30 27.41 C 34.88 25.41 35.48 23.41 36.00 21.39 L 36.00 29.43 C 34.73 30.46 33.42 31.43 32.11 32.40 C 31.89 33.93 31.68 35.47 31.46 37.00 L 27.26 37.00 C 25.38 35.60 23.61 34.07 21.84 32.54 C 24.53 32.31 27.23 32.10 29.93 31.87 C 29.04 30.59 28.15 29.32 27.27 28.04 C 29.61 27.82 31.95 27.61 34.30 27.41 Z" />
</g>
<g id="#e6a000ff">
<path fill="#e6a000" opacity="1.00" d=" M 0.00 26.95 C 2.79 27.82 5.55 28.76 8.29 29.77 C 8.06 32.18 7.84 34.59 7.64 37.00 L 0.78 37.00 C 1.41 36.85 2.66 36.56 3.29 36.41 C 3.75 36.27 4.68 35.99 5.14 35.86 C 5.25 33.90 5.27 31.95 5.30 30.00 C 3.53 29.79 1.77 29.60 0.00 29.40 L 0.00 26.95 Z" />
</g>
<g id="#e30600ff">
<path fill="#e30600" opacity="1.00" d=" M 0.00 29.40 C 1.77 29.60 3.53 29.79 5.30 30.00 C 5.27 31.95 5.25 33.90 5.14 35.86 C 4.68 35.99 3.75 36.27 3.29 36.41 C 2.98 35.21 2.68 34.01 2.38 32.81 C 1.78 32.41 0.59 31.59 0.00 31.18 L 0.00 29.40 Z" />
</g>
<g id="#e70400ff">
<path fill="#e70400" opacity="1.00" d=" M 32.11 32.40 C 33.42 31.43 34.73 30.46 36.00 29.43 L 36.00 31.97 C 34.39 32.61 34.39 33.22 36.00 33.80 L 36.00 37.00 L 31.46 37.00 C 31.68 35.47 31.89 33.93 32.11 32.40 Z" />
</g>
<g id="#468002ff">
<path fill="#468002" opacity="1.00" d=" M 0.00 31.18 C 0.59 31.59 1.78 32.41 2.38 32.81 C 2.68 34.01 2.98 35.21 3.29 36.41 C 2.66 36.56 1.41 36.85 0.78 37.00 L 0.00 37.00 L 0.00 31.18 Z" />
</g>
<g id="#457400ff">
<path fill="#457400" opacity="1.00" d=" M 36.00 33.80 C 34.39 33.22 34.39 32.61 36.00 31.97 L 36.00 33.80 Z" />
</g>
</svg>
