<?xml version="1.0" encoding="UTF-8" ?>
<!DOCTYPE svg PUBLIC "-//W3C//DTD SVG 1.1//EN" "http://www.w3.org/Graphics/SVG/1.1/DTD/svg11.dtd">
<svg width="20pt" height="20pt" viewBox="0 0 20 20" version="1.1" xmlns="http://www.w3.org/2000/svg">
<g id="#005effff">
<path fill="#005eff" opacity="1.00" d=" M 9.50 0.00 L 13.63 0.00 L 14.15 0.91 C 14.69 1.15 15.78 1.62 16.32 1.85 C 14.03 1.98 11.76 0.55 9.49 1.38 C 7.94 2.28 6.46 3.30 4.98 4.31 L 4.95 3.36 C 6.26 1.64 8.09 1.22 9.50 0.00 Z" />
</g>
<g id="#0000ffff">
<path fill="#0000ff" opacity="1.00" d=" M 9.49 1.38 C 11.76 0.55 14.03 1.98 16.32 1.85 C 17.29 2.65 18.30 3.43 18.15 4.83 C 18.06 6.56 18.18 8.50 16.91 9.85 C 15.54 10.00 14.17 10.07 12.79 10.06 L 12.02 9.97 C 12.01 8.27 12.38 6.28 10.71 5.21 C 8.84 5.15 6.97 5.01 5.10 5.17 L 4.98 4.31 C 6.46 3.30 7.94 2.28 9.49 1.38 M 14.12 7.16 C 13.63 8.79 14.21 9.34 15.85 8.82 C 16.34 7.19 15.77 6.64 14.12 7.16 Z" />
<path fill="#0000ff" opacity="1.00" d=" M 6.78 13.62 C 7.66 14.04 8.49 14.84 9.55 14.56 C 9.73 15.15 10.07 16.32 10.25 16.91 C 8.89 16.77 7.81 17.25 7.00 18.34 C 6.94 17.16 6.84 14.80 6.78 13.62 Z" />
<path fill="#0000ff" opacity="1.00" d=" M 13.26 15.16 L 13.96 15.23 C 13.95 15.68 13.94 16.56 13.93 17.00 L 13.06 16.96 C 13.11 16.51 13.21 15.61 13.26 15.16 Z" />
</g>
<g id="#ffff80ff">
<path fill="#ffff80" opacity="1.00" d=" M 5.10 5.17 C 6.97 5.01 8.84 5.15 10.71 5.21 C 12.38 6.28 12.01 8.27 12.02 9.97 C 11.90 10.59 11.66 11.83 11.54 12.45 C 10.79 12.62 9.31 12.96 8.56 13.13 C 6.75 14.18 5.68 12.65 5.97 10.99 C 4.71 11.22 3.74 10.78 3.03 9.66 C 2.36 8.14 4.17 7.52 5.02 6.67 C 5.04 6.29 5.08 5.55 5.10 5.17 M 5.93 6.67 C 6.75 7.33 8.83 9.35 9.10 7.03 C 9.48 5.40 5.85 5.26 5.93 6.67 Z" />
</g>
<g id="#040889ff">
<path fill="#040889" opacity="1.00" d=" M 18.15 4.83 C 20.25 6.47 18.47 9.37 17.40 11.09 C 15.99 10.40 13.29 12.09 12.79 10.06 C 14.17 10.07 15.54 10.00 16.91 9.85 C 18.18 8.50 18.06 6.56 18.15 4.83 Z" />
</g>
<g id="#000000ff">
<path fill="#000000" opacity="1.00" d=" M 5.93 6.67 C 5.85 5.26 9.48 5.40 9.10 7.03 C 8.83 9.35 6.75 7.33 5.93 6.67 Z" />
</g>
<g id="#0080ffff">
<path fill="#0080ff" opacity="1.00" d=" M 14.12 7.16 C 15.77 6.64 16.34 7.19 15.85 8.82 C 14.21 9.34 13.63 8.79 14.12 7.16 Z" />
<path fill="#0080ff" opacity="1.00" d=" M 9.55 14.17 C 10.13 14.15 11.28 14.12 11.86 14.10 C 11.87 14.82 11.91 16.25 11.93 16.96 C 11.51 16.95 10.67 16.92 10.25 16.91 C 10.07 16.32 9.73 15.15 9.55 14.56 L 9.55 14.17 Z" />
</g>
<g id="#c0c060ff">
<path fill="#c0c060" opacity="1.00" d=" M 12.02 9.97 L 12.79 10.06 C 13.29 12.09 15.99 10.40 17.40 11.09 C 16.78 12.04 15.97 12.69 14.98 13.02 C 14.04 13.70 13.00 14.06 11.86 14.10 C 11.28 14.12 10.13 14.15 9.55 14.17 C 9.30 13.91 8.81 13.39 8.56 13.13 C 9.31 12.96 10.79 12.62 11.54 12.45 C 11.66 11.83 11.90 10.59 12.02 9.97 Z" />
</g>
<g id="#000080ff">
<path fill="#000080" opacity="1.00" d=" M 11.86 14.10 C 13.00 14.06 14.04 13.70 14.98 13.02 C 14.58 14.73 16.01 17.34 14.04 18.33 L 13.93 17.00 C 13.94 16.56 13.95 15.68 13.96 15.23 L 13.26 15.16 C 13.21 15.61 13.11 16.51 13.06 16.96 L 11.93 16.96 C 11.91 16.25 11.87 14.82 11.86 14.10 Z" />
</g>
<g id="#7e4202ff">
<path fill="#7e4202" opacity="1.00" d=" M 7.00 18.34 C 7.81 17.25 8.89 16.77 10.25 16.91 C 10.67 16.92 11.51 16.95 11.93 16.96 L 13.06 16.96 L 13.93 17.00 L 14.04 18.33 C 14.00 18.75 13.94 19.58 13.90 20.00 L 13.14 20.00 C 13.77 16.62 8.42 17.58 7.63 20.00 L 6.99 20.00 C 6.99 19.59 6.99 18.76 7.00 18.34 Z" />
</g>
<g id="#ff8040ff">
<path fill="#ff8040" opacity="1.00" d=" M 7.63 20.00 C 8.42 17.58 13.77 16.62 13.14 20.00 L 7.63 20.00 Z" />
</g>
</svg>
