<?xml version="1.0" encoding="UTF-8" ?>
<!DOCTYPE svg PUBLIC "-//W3C//DTD SVG 1.1//EN" "http://www.w3.org/Graphics/SVG/1.1/DTD/svg11.dtd">
<svg width="20pt" height="20pt" viewBox="0 0 20 20" version="1.1" xmlns="http://www.w3.org/2000/svg">
<g id="#4b944aff">
<path fill="#4b944a" opacity="1.00" d=" M 0.00 0.00 L 10.22 0.00 C 8.31 0.89 6.32 1.93 5.32 3.90 L 4.97 5.22 C 4.67 6.78 3.69 8.06 2.58 9.16 C 4.35 10.87 6.44 12.16 8.67 13.20 L 9.28 13.62 C 8.73 13.58 7.63 13.48 7.09 13.43 C 7.04 15.13 6.99 16.82 6.95 18.52 C 6.93 18.89 6.89 19.63 6.86 20.00 L 0.00 20.00 L 0.00 0.00 Z" />
<path fill="#4b944a" opacity="1.00" d=" M 13.32 0.00 L 20.00 0.00 L 20.00 20.00 L 14.26 20.00 C 14.28 19.71 14.31 19.14 14.33 18.86 C 14.66 16.94 14.96 15.01 15.21 13.08 C 15.98 12.49 16.73 11.88 17.47 11.25 C 18.87 9.28 19.00 6.81 18.51 4.52 C 17.39 2.42 15.20 1.29 13.32 0.00 Z" />
</g>
<g id="#0000ffff">
<path fill="#0000ff" opacity="1.00" d=" M 10.22 0.00 L 13.32 0.00 C 15.20 1.29 17.39 2.42 18.51 4.52 C 18.03 6.24 18.32 8.50 16.80 9.74 C 15.33 10.02 13.84 10.23 12.35 10.34 L 12.20 10.32 C 12.10 8.52 11.77 6.73 11.03 5.07 C 9.01 5.12 6.99 5.15 4.97 5.22 L 5.32 3.90 C 6.32 1.93 8.31 0.89 10.22 0.00 M 14.18 7.16 C 13.65 8.78 14.20 9.34 15.83 8.84 C 16.36 7.21 15.81 6.65 14.18 7.16 Z" />
<path fill="#0000ff" opacity="1.00" d=" M 13.33 16.85 C 11.50 15.15 14.99 14.57 14.25 16.78 L 13.33 16.85 Z" />
</g>
<g id="#ffff80ff">
<path fill="#ffff80" opacity="1.00" d=" M 4.97 5.22 C 6.99 5.15 9.01 5.12 11.03 5.07 C 11.77 6.73 12.10 8.52 12.20 10.32 C 11.87 12.18 10.40 12.93 8.67 13.20 C 6.44 12.16 4.35 10.87 2.58 9.16 C 3.69 8.06 4.67 6.78 4.97 5.22 M 6.28 6.07 C 5.64 7.39 7.93 8.67 8.90 7.70 C 9.79 6.22 7.30 5.07 6.28 6.07 Z" />
</g>
<g id="#040889ff">
<path fill="#040889" opacity="1.00" d=" M 18.51 4.52 C 19.00 6.81 18.87 9.28 17.47 11.25 C 15.75 10.99 14.05 10.67 12.35 10.34 C 13.84 10.23 15.33 10.02 16.80 9.74 C 18.32 8.50 18.03 6.24 18.51 4.52 Z" />
</g>
<g id="#000000ff">
<path fill="#000000" opacity="1.00" d=" M 6.28 6.07 C 7.30 5.07 9.79 6.22 8.90 7.70 C 7.93 8.67 5.64 7.39 6.28 6.07 Z" />
</g>
<g id="#0080ffff">
<path fill="#0080ff" opacity="1.00" d=" M 14.18 7.16 C 15.81 6.65 16.36 7.21 15.83 8.84 C 14.20 9.34 13.65 8.78 14.18 7.16 Z" />
<path fill="#0080ff" opacity="1.00" d=" M 10.02 14.12 C 10.45 14.13 11.31 14.14 11.73 14.15 C 11.77 14.85 11.84 16.25 11.88 16.95 C 11.46 16.96 10.63 16.99 10.22 17.00 C 10.17 16.28 10.07 14.84 10.02 14.12 Z" />
</g>
<g id="#c0c060ff">
<path fill="#c0c060" opacity="1.00" d=" M 12.20 10.32 L 12.35 10.34 C 14.05 10.67 15.75 10.99 17.47 11.25 C 16.73 11.88 15.98 12.49 15.21 13.08 C 14.06 13.48 12.91 13.83 11.73 14.15 C 11.31 14.14 10.45 14.13 10.02 14.12 L 9.28 13.62 L 8.67 13.20 C 10.40 12.93 11.87 12.18 12.20 10.32 Z" />
</g>
<g id="#000080ff">
<path fill="#000080" opacity="1.00" d=" M 11.73 14.15 C 12.91 13.83 14.06 13.48 15.21 13.08 C 14.96 15.01 14.66 16.94 14.33 18.86 L 14.25 16.78 C 14.99 14.57 11.50 15.15 13.33 16.85 L 11.88 16.95 C 11.84 16.25 11.77 14.85 11.73 14.15 Z" />
</g>
<g id="#0000f2ff">
<path fill="#0000f2" opacity="1.00" d=" M 7.09 13.43 C 7.63 13.48 8.73 13.58 9.28 13.62 L 10.02 14.12 C 10.07 14.84 10.17 16.28 10.22 17.00 C 9.77 17.01 8.88 17.03 8.44 17.04 C 8.07 17.41 7.32 18.15 6.95 18.52 C 6.99 16.82 7.04 15.13 7.09 13.43 Z" />
</g>
<g id="#7e4202ff">
<path fill="#7e4202" opacity="1.00" d=" M 8.44 17.04 C 8.88 17.03 9.77 17.01 10.22 17.00 C 10.63 16.99 11.46 16.96 11.88 16.95 L 13.33 16.85 L 14.25 16.78 L 14.33 18.86 C 14.31 19.14 14.28 19.71 14.26 20.00 L 14.14 20.00 C 12.98 18.51 11.32 17.91 9.50 17.83 C 9.00 18.37 8.01 19.46 7.51 20.00 L 6.86 20.00 C 6.89 19.63 6.93 18.89 6.95 18.52 C 7.32 18.15 8.07 17.41 8.44 17.04 Z" />
</g>
<g id="#ff8040ff">
<path fill="#ff8040" opacity="1.00" d=" M 9.50 17.83 C 11.32 17.91 12.98 18.51 14.14 20.00 L 7.51 20.00 C 8.01 19.46 9.00 18.37 9.50 17.83 Z" />
</g>
</svg>
