<?xml version="1.0" encoding="UTF-8" ?>
<!DOCTYPE svg PUBLIC "-//W3C//DTD SVG 1.1//EN" "http://www.w3.org/Graphics/SVG/1.1/DTD/svg11.dtd">
<svg width="20pt" height="20pt" viewBox="0 0 20 20" version="1.1" xmlns="http://www.w3.org/2000/svg">
<g id="#636762ff">
<path fill="#636762" opacity="1.00" d=" M 0.00 0.00 L 5.57 0.00 C 5.47 0.75 5.27 2.24 5.17 2.99 C 5.20 3.53 5.26 4.62 5.29 5.16 C 3.53 4.96 1.77 4.77 0.00 4.59 L 0.00 0.00 Z" />
</g>
<g id="#434842ff">
<path fill="#434842" opacity="1.00" d=" M 5.57 0.00 L 9.24 0.00 C 8.13 1.31 6.76 2.35 5.17 2.99 C 5.27 2.24 5.47 0.75 5.57 0.00 Z" />
</g>
<g id="#0000ffff">
<path fill="#0000ff" opacity="1.00" d=" M 9.24 0.00 L 13.35 0.00 C 15.37 1.18 17.50 2.47 18.57 4.64 C 18.22 6.17 18.10 7.82 17.31 9.22 C 15.98 10.33 14.01 10.01 12.41 10.39 L 12.20 10.37 C 12.01 8.60 11.67 6.85 11.22 5.13 C 9.25 5.12 7.27 5.12 5.29 5.16 C 5.26 4.62 5.20 3.53 5.17 2.99 C 6.76 2.35 8.13 1.31 9.24 0.00 M 14.20 7.16 C 13.63 8.77 14.17 9.34 15.81 8.88 C 16.38 7.26 15.84 6.69 14.20 7.16 Z" />
<path fill="#0000ff" opacity="1.00" d=" M 6.83 13.66 C 7.66 14.28 8.58 14.74 9.58 15.05 C 9.78 15.50 10.19 16.41 10.39 16.86 C 9.22 17.19 8.08 17.59 6.96 18.04 C 6.93 17.02 6.87 14.98 6.84 13.96 L 6.83 13.66 Z" />
<path fill="#0000ff" opacity="1.00" d=" M 13.32 16.83 C 11.46 15.12 14.97 14.56 14.22 16.79 L 13.32 16.83 Z" />
</g>
<g id="#3e423dff">
<path fill="#3e423d" opacity="1.00" d=" M 13.35 0.00 L 20.00 0.00 L 20.00 14.94 C 18.33 14.91 16.66 14.88 14.99 14.86 C 15.08 14.41 15.27 13.52 15.36 13.08 C 16.04 12.46 16.71 11.84 17.37 11.20 C 18.74 9.28 18.98 6.92 18.57 4.64 C 17.50 2.47 15.37 1.18 13.35 0.00 Z" />
<path fill="#3e423d" opacity="1.00" d=" M 5.10 10.91 L 5.81 11.43 C 6.05 11.84 6.54 12.66 6.78 13.06 L 6.83 13.66 L 6.84 13.96 C 4.94 15.45 4.92 17.83 4.66 20.00 L 0.00 20.00 L 0.00 14.99 C 1.40 14.92 2.80 14.86 4.20 14.80 C 4.50 13.51 4.80 12.21 5.10 10.91 Z" />
</g>
<g id="#3d413cff">
<path fill="#3d413c" opacity="1.00" d=" M 0.00 4.59 C 1.77 4.77 3.53 4.96 5.29 5.16 C 4.42 6.77 3.49 8.34 2.67 9.97 C 2.00 9.88 0.67 9.70 0.00 9.61 L 0.00 4.59 Z" />
</g>
<g id="#ffff80ff">
<path fill="#ffff80" opacity="1.00" d=" M 5.29 5.16 C 7.27 5.12 9.25 5.12 11.22 5.13 C 11.67 6.85 12.01 8.60 12.20 10.37 C 11.79 11.18 11.36 11.98 10.91 12.76 C 10.30 12.78 9.09 12.82 8.49 12.84 C 8.06 12.90 7.21 13.01 6.78 13.06 C 6.54 12.66 6.05 11.84 5.81 11.43 L 5.10 10.91 C 4.49 10.67 3.28 10.20 2.67 9.97 C 3.49 8.34 4.42 6.77 5.29 5.16 M 6.33 6.06 C 5.65 7.37 7.94 8.71 8.90 7.67 C 9.78 6.21 7.34 5.02 6.33 6.06 Z" />
</g>
<g id="#00008cff">
<path fill="#00008c" opacity="1.00" d=" M 18.57 4.64 C 18.98 6.92 18.74 9.28 17.37 11.20 C 15.72 10.93 14.07 10.64 12.41 10.39 C 14.01 10.01 15.98 10.33 17.31 9.22 C 18.10 7.82 18.22 6.17 18.57 4.64 Z" />
</g>
<g id="#000000ff">
<path fill="#000000" opacity="1.00" d=" M 6.33 6.06 C 7.34 5.02 9.78 6.21 8.90 7.67 C 7.94 8.71 5.65 7.37 6.33 6.06 Z" />
</g>
<g id="#0080ffff">
<path fill="#0080ff" opacity="1.00" d=" M 14.20 7.16 C 15.84 6.69 16.38 7.26 15.81 8.88 C 14.17 9.34 13.63 8.77 14.20 7.16 Z" />
<path fill="#0080ff" opacity="1.00" d=" M 9.86 14.31 C 10.32 14.26 11.25 14.15 11.71 14.10 C 11.78 14.79 11.92 16.18 11.99 16.87 C 11.59 16.87 10.79 16.86 10.39 16.86 C 10.19 16.41 9.78 15.50 9.58 15.05 L 9.86 14.31 Z" />
</g>
<g id="#60645fff">
<path fill="#60645f" opacity="1.00" d=" M 0.00 9.61 C 0.67 9.70 2.00 9.88 2.67 9.97 C 3.28 10.20 4.49 10.67 5.10 10.91 C 4.80 12.21 4.50 13.51 4.20 14.80 C 2.80 14.86 1.40 14.92 0.00 14.99 L 0.00 9.61 Z" />
<path fill="#60645f" opacity="1.00" d=" M 4.66 20.00 C 4.92 17.83 4.94 15.45 6.84 13.96 C 6.87 14.98 6.93 17.02 6.96 18.04 C 6.94 18.53 6.91 19.51 6.90 20.00 L 4.66 20.00 Z" />
</g>
<g id="#c0c060ff">
<path fill="#c0c060" opacity="1.00" d=" M 12.20 10.37 L 12.41 10.39 C 14.07 10.64 15.72 10.93 17.37 11.20 C 16.71 11.84 16.04 12.46 15.36 13.08 C 14.85 13.27 13.84 13.66 13.33 13.86 C 12.92 13.92 12.11 14.04 11.71 14.10 C 11.25 14.15 10.32 14.26 9.86 14.31 C 9.52 13.94 8.83 13.21 8.49 12.84 C 9.09 12.82 10.30 12.78 10.91 12.76 C 11.36 11.98 11.79 11.18 12.20 10.37 Z" />
</g>
<g id="#0000a0ff">
<path fill="#0000a0" opacity="1.00" d=" M 6.78 13.06 C 7.21 13.01 8.06 12.90 8.49 12.84 C 8.83 13.21 9.52 13.94 9.86 14.31 L 9.58 15.05 C 8.58 14.74 7.66 14.28 6.83 13.66 L 6.78 13.06 Z" />
</g>
<g id="#000080ff">
<path fill="#000080" opacity="1.00" d=" M 13.33 13.86 C 13.84 13.66 14.85 13.27 15.36 13.08 C 15.27 13.52 15.08 14.41 14.99 14.86 C 14.78 16.21 14.60 17.56 14.45 18.92 L 14.22 16.79 C 14.97 14.56 11.46 15.12 13.32 16.83 L 11.99 16.87 C 11.92 16.18 11.78 14.79 11.71 14.10 C 12.11 14.04 12.92 13.92 13.33 13.86 Z" />
</g>
<g id="#5d615cff">
<path fill="#5d615c" opacity="1.00" d=" M 14.99 14.86 C 16.66 14.88 18.33 14.91 20.00 14.94 L 20.00 20.00 L 14.58 20.00 C 14.54 19.73 14.48 19.19 14.45 18.92 C 14.60 17.56 14.78 16.21 14.99 14.86 Z" />
</g>
<g id="#804000ff">
<path fill="#804000" opacity="1.00" d=" M 6.96 18.04 C 8.08 17.59 9.22 17.19 10.39 16.86 C 10.79 16.86 11.59 16.87 11.99 16.87 L 13.32 16.83 L 14.22 16.79 L 14.45 18.92 C 14.48 19.19 14.54 19.73 14.58 20.00 L 14.51 20.00 C 12.96 19.12 11.39 18.28 9.74 17.60 C 9.17 18.20 8.03 19.40 7.45 20.00 L 6.90 20.00 C 6.91 19.51 6.94 18.53 6.96 18.04 Z" />
</g>
<g id="#ff8040ff">
<path fill="#ff8040" opacity="1.00" d=" M 9.74 17.60 C 11.39 18.28 12.96 19.12 14.51 20.00 L 7.45 20.00 C 8.03 19.40 9.17 18.20 9.74 17.60 Z" />
</g>
</svg>
