<?xml version="1.0" encoding="UTF-8" ?>
<!DOCTYPE svg PUBLIC "-//W3C//DTD SVG 1.1//EN" "http://www.w3.org/Graphics/SVG/1.1/DTD/svg11.dtd">
<svg width="20pt" height="20pt" viewBox="0 0 20 20" version="1.1" xmlns="http://www.w3.org/2000/svg">
<g id="#4b944aff">
<path fill="#4b944a" opacity="1.00" d=" M 0.00 0.00 L 7.65 0.00 C 5.55 0.60 3.81 1.96 2.03 3.16 C 1.91 3.69 1.68 4.74 1.56 5.26 C 1.03 7.27 1.01 9.59 2.60 11.15 C 3.32 11.82 4.06 12.48 4.80 13.12 C 4.98 15.05 5.12 17.00 5.85 18.82 C 5.95 19.11 6.15 19.70 6.25 20.00 L 0.00 20.00 L 0.00 0.00 Z" />
<path fill="#4b944a" opacity="1.00" d=" M 10.36 0.00 L 20.00 0.00 L 20.00 20.00 L 13.19 20.00 C 13.16 19.57 13.09 18.70 13.06 18.26 C 12.94 16.36 12.86 14.46 12.76 12.56 L 13.17 12.36 C 14.64 11.53 16.20 10.60 17.04 9.07 C 16.20 7.61 15.03 6.38 13.99 5.07 L 15.51 4.38 C 13.90 2.79 12.28 1.21 10.36 0.00 Z" />
</g>
<g id="#0000ffff">
<path fill="#0000ff" opacity="1.00" d=" M 7.65 0.00 L 10.36 0.00 C 12.28 1.21 13.90 2.79 15.51 4.38 L 13.99 5.07 C 12.05 5.37 9.40 4.42 8.21 6.49 C 7.96 7.72 7.86 8.96 7.91 10.22 L 7.66 10.27 C 6.17 10.22 4.71 10.04 3.26 9.74 C 1.77 8.79 1.98 6.75 1.56 5.26 C 1.68 4.74 1.91 3.69 2.03 3.16 C 3.81 1.96 5.55 0.60 7.65 0.00 M 4.16 7.19 C 3.65 8.83 4.21 9.37 5.83 8.83 C 6.33 7.19 5.77 6.65 4.16 7.19 Z" />
<path fill="#0000ff" opacity="1.00" d=" M 5.78 16.76 C 4.90 14.60 8.54 15.12 6.69 16.82 L 5.78 16.76 Z" />
</g>
<g id="#ffff80ff">
<path fill="#ffff80" opacity="1.00" d=" M 8.21 6.49 C 9.40 4.42 12.05 5.37 13.99 5.07 C 15.03 6.38 16.20 7.61 17.04 9.07 C 16.20 10.60 14.64 11.53 13.17 12.36 L 12.76 12.56 C 12.51 12.68 12.01 12.91 11.76 13.02 C 11.09 13.01 9.76 12.97 9.09 12.95 C 8.65 12.06 8.26 11.15 7.91 10.22 C 7.86 8.96 7.96 7.72 8.21 6.49 M 11.08 7.67 C 12.02 8.67 14.44 7.42 13.70 6.08 C 12.73 5.06 10.24 6.24 11.08 7.67 Z" />
</g>
<g id="#00008dff">
<path fill="#00008d" opacity="1.00" d=" M 2.60 11.15 C 1.01 9.59 1.03 7.27 1.56 5.26 C 1.98 6.75 1.77 8.79 3.26 9.74 C 4.71 10.04 6.17 10.22 7.66 10.27 C 6.02 10.81 4.30 11.00 2.60 11.15 Z" />
</g>
<g id="#000000ff">
<path fill="#000000" opacity="1.00" d=" M 11.08 7.67 C 10.24 6.24 12.73 5.06 13.70 6.08 C 14.44 7.42 12.02 8.67 11.08 7.67 Z" />
</g>
<g id="#0080ffff">
<path fill="#0080ff" opacity="1.00" d=" M 4.16 7.19 C 5.77 6.65 6.33 7.19 5.83 8.83 C 4.21 9.37 3.65 8.83 4.16 7.19 Z" />
<path fill="#0080ff" opacity="1.00" d=" M 8.31 14.13 C 8.73 14.14 9.56 14.17 9.98 14.18 C 9.92 14.88 9.82 16.27 9.76 16.96 C 9.36 16.95 8.54 16.92 8.14 16.91 C 8.18 16.21 8.27 14.82 8.31 14.13 Z" />
</g>
<g id="#c0c060ff">
<path fill="#c0c060" opacity="1.00" d=" M 7.66 10.27 L 7.91 10.22 C 8.26 11.15 8.65 12.06 9.09 12.95 C 9.76 12.97 11.09 13.01 11.76 13.02 C 11.31 13.31 10.42 13.89 9.98 14.18 C 9.56 14.17 8.73 14.14 8.31 14.13 C 7.13 13.85 5.96 13.51 4.80 13.12 C 4.06 12.48 3.32 11.82 2.60 11.15 C 4.30 11.00 6.02 10.81 7.66 10.27 Z" />
</g>
<g id="#000080ff">
<path fill="#000080" opacity="1.00" d=" M 4.80 13.12 C 5.96 13.51 7.13 13.85 8.31 14.13 C 8.27 14.82 8.18 16.21 8.14 16.91 L 6.69 16.82 C 8.54 15.12 4.90 14.60 5.78 16.76 L 5.85 18.82 C 5.12 17.00 4.98 15.05 4.80 13.12 Z" />
</g>
<g id="#0000dfff">
<path fill="#0000df" opacity="1.00" d=" M 11.76 13.02 C 12.01 12.91 12.51 12.68 12.76 12.56 C 12.86 14.46 12.94 16.36 13.06 18.26 C 12.08 17.52 10.98 17.09 9.76 16.96 C 9.82 16.27 9.92 14.88 9.98 14.18 C 10.42 13.89 11.31 13.31 11.76 13.02 Z" />
</g>
<g id="#7f4101ff">
<path fill="#7f4101" opacity="1.00" d=" M 5.78 16.76 L 6.69 16.82 L 8.14 16.91 C 8.54 16.92 9.36 16.95 9.76 16.96 C 10.98 17.09 12.08 17.52 13.06 18.26 C 13.09 18.70 13.16 19.57 13.19 20.00 L 12.72 20.00 C 12.16 19.49 11.05 18.47 10.50 17.96 C 8.78 17.95 6.77 17.75 6.57 20.00 L 6.25 20.00 C 6.15 19.70 5.95 19.11 5.85 18.82 L 5.78 16.76 Z" />
</g>
<g id="#ff8040ff">
<path fill="#ff8040" opacity="1.00" d=" M 6.57 20.00 C 6.77 17.75 8.78 17.95 10.50 17.96 C 11.05 18.47 12.16 19.49 12.72 20.00 L 6.57 20.00 Z" />
</g>
</svg>
