<?xml version="1.0" encoding="UTF-8" ?>
<!DOCTYPE svg PUBLIC "-//W3C//DTD SVG 1.1//EN" "http://www.w3.org/Graphics/SVG/1.1/DTD/svg11.dtd">
<svg width="20pt" height="20pt" viewBox="0 0 20 20" version="1.1" xmlns="http://www.w3.org/2000/svg">
<g id="#005effff">
<path fill="#005eff" opacity="1.00" d=" M 6.73 0.00 L 10.55 0.00 C 12.07 0.99 13.77 1.84 14.79 3.42 L 14.85 4.32 C 13.35 3.02 11.79 1.61 9.81 1.09 C 7.65 1.00 5.55 1.63 3.45 2.02 L 4.32 1.27 C 4.92 0.96 6.12 0.32 6.73 0.00 Z" />
</g>
<g id="#0000ffff">
<path fill="#0000ff" opacity="1.00" d=" M 3.45 2.02 C 5.55 1.63 7.65 1.00 9.81 1.09 C 11.79 1.61 13.35 3.02 14.85 4.32 L 14.92 5.31 C 12.99 5.20 11.04 5.13 9.10 5.05 C 8.12 6.55 7.88 8.30 7.90 10.06 C 6.15 10.74 4.27 10.88 2.43 11.04 C 2.32 10.55 2.12 9.56 2.02 9.07 C 2.15 7.69 2.11 6.31 1.90 4.94 C 1.94 4.56 2.02 3.81 2.06 3.44 C 2.41 3.08 3.10 2.37 3.45 2.02 M 4.18 7.16 C 3.64 8.78 4.19 9.34 5.82 8.84 C 6.36 7.22 5.81 6.66 4.18 7.16 Z" />
<path fill="#0000ff" opacity="1.00" d=" M 10.42 14.48 C 11.37 14.49 12.33 14.39 13.26 14.63 C 13.21 15.53 13.11 17.35 13.05 18.26 C 12.08 17.48 10.98 16.99 9.77 16.77 C 9.93 16.20 10.26 15.06 10.42 14.48 Z" />
<path fill="#0000ff" opacity="1.00" d=" M 5.84 16.82 C 4.92 14.61 8.43 15.02 6.72 16.87 L 5.84 16.82 Z" />
</g>
<g id="#0d1a77ff">
<path fill="#0d1a77" opacity="1.00" d=" M 2.02 9.07 C 0.33 8.46 0.30 5.68 1.90 4.94 C 2.11 6.31 2.15 7.69 2.02 9.07 Z" />
</g>
<g id="#ffff80ff">
<path fill="#ffff80" opacity="1.00" d=" M 9.10 5.05 C 11.04 5.13 12.99 5.20 14.92 5.31 C 15.01 7.04 17.01 7.95 17.04 9.63 C 16.10 10.55 14.98 11.12 13.67 11.36 L 14.74 12.52 C 13.53 12.88 12.32 13.24 11.11 13.59 C 9.46 13.03 7.89 11.97 7.90 10.06 C 7.88 8.30 8.12 6.55 9.10 5.05 M 11.10 7.70 C 12.06 8.66 14.34 7.37 13.77 6.08 C 12.74 5.14 10.16 6.18 11.10 7.70 Z" />
</g>
<g id="#000000ff">
<path fill="#000000" opacity="1.00" d=" M 11.10 7.70 C 10.16 6.18 12.74 5.14 13.77 6.08 C 14.34 7.37 12.06 8.66 11.10 7.70 Z" />
</g>
<g id="#0080ffff">
<path fill="#0080ff" opacity="1.00" d=" M 4.18 7.16 C 5.81 6.66 6.36 7.22 5.82 8.84 C 4.19 9.34 3.64 8.78 4.18 7.16 Z" />
<path fill="#0080ff" opacity="1.00" d=" M 8.81 14.12 C 9.19 14.09 9.96 14.03 10.35 14.00 L 10.42 14.48 C 10.26 15.06 9.93 16.20 9.77 16.77 C 9.33 16.81 8.45 16.89 8.01 16.93 C 8.21 16.23 8.61 14.82 8.81 14.12 Z" />
</g>
<g id="#c0c060ff">
<path fill="#c0c060" opacity="1.00" d=" M 2.43 11.04 C 4.27 10.88 6.15 10.74 7.90 10.06 C 7.89 11.97 9.46 13.03 11.11 13.59 C 10.92 13.69 10.54 13.90 10.35 14.00 C 9.96 14.03 9.19 14.09 8.81 14.12 C 7.99 13.97 6.35 13.66 5.53 13.51 L 4.84 13.11 C 4.02 12.44 3.21 11.75 2.43 11.04 Z" />
</g>
<g id="#000080ff">
<path fill="#000080" opacity="1.00" d=" M 4.84 13.11 L 5.53 13.51 C 6.35 13.66 7.99 13.97 8.81 14.12 C 8.61 14.82 8.21 16.23 8.01 16.93 L 6.72 16.87 C 8.43 15.02 4.92 14.61 5.84 16.82 L 5.93 18.62 L 5.21 17.40 C 5.01 15.98 4.94 14.54 4.84 13.11 Z" />
</g>
<g id="#7f4101ff">
<path fill="#7f4101" opacity="1.00" d=" M 5.84 16.82 L 6.72 16.87 L 8.01 16.93 C 8.45 16.89 9.33 16.81 9.77 16.77 C 10.98 16.99 12.08 17.48 13.05 18.26 C 13.05 18.69 13.04 19.56 13.03 20.00 L 12.68 20.00 C 12.12 19.48 11.01 18.45 10.46 17.93 C 8.72 17.91 6.87 17.89 6.44 20.00 L 6.11 20.00 C 6.07 19.65 5.98 18.96 5.93 18.62 L 5.84 16.82 Z" />
</g>
<g id="#ff8040ff">
<path fill="#ff8040" opacity="1.00" d=" M 6.44 20.00 C 6.87 17.89 8.72 17.91 10.46 17.93 C 11.01 18.45 12.12 19.48 12.68 20.00 L 6.44 20.00 Z" />
</g>
</svg>
