<?xml version="1.0" encoding="UTF-8" ?>
<!DOCTYPE svg PUBLIC "-//W3C//DTD SVG 1.1//EN" "http://www.w3.org/Graphics/SVG/1.1/DTD/svg11.dtd">
<svg width="20pt" height="20pt" viewBox="0 0 20 20" version="1.1" xmlns="http://www.w3.org/2000/svg">
<g id="#676c66ff">
<path fill="#676c66" opacity="1.00" d=" M 0.00 0.00 L 7.44 0.00 C 4.87 0.66 2.92 2.44 1.42 4.54 L 0.43 5.26 L 0.00 5.56 L 0.00 0.00 Z" />
<path fill="#676c66" opacity="1.00" d=" M 0.00 9.47 L 0.51 9.75 C 1.06 10.11 2.15 10.84 2.70 11.20 C 3.34 11.75 3.99 12.31 4.63 12.87 C 4.74 13.32 4.95 14.22 5.05 14.67 C 3.37 14.66 1.68 14.65 0.00 14.64 L 0.00 9.47 Z" />
</g>
<g id="#0000ffff">
<path fill="#0000ff" opacity="1.00" d=" M 7.44 0.00 L 10.96 0.00 C 11.65 1.59 13.23 2.42 14.79 2.94 C 14.76 3.51 14.70 4.64 14.67 5.21 C 12.76 5.13 10.84 5.10 8.93 5.05 C 8.25 6.74 7.92 8.52 7.82 10.33 L 7.62 10.36 C 5.99 10.06 4.07 10.38 2.67 9.34 C 1.70 7.95 1.80 6.13 1.42 4.54 C 2.92 2.44 4.87 0.66 7.44 0.00 M 4.18 7.16 C 3.65 8.79 4.20 9.34 5.83 8.84 C 6.36 7.21 5.81 6.65 4.18 7.16 Z" />
<path fill="#0000ff" opacity="1.00" d=" M 10.30 14.95 C 11.35 15.01 12.25 14.68 12.99 13.96 L 13.03 14.62 C 13.04 15.52 13.08 17.31 13.10 18.20 C 12.02 17.57 10.87 17.12 9.65 16.85 C 9.81 16.38 10.14 15.42 10.30 14.95 Z" />
<path fill="#0000ff" opacity="1.00" d=" M 5.78 16.77 C 4.97 14.58 8.55 15.14 6.69 16.82 L 5.78 16.77 Z" />
</g>
<g id="#60645fff">
<path fill="#60645f" opacity="1.00" d=" M 10.96 0.00 L 14.31 0.00 C 14.43 0.74 14.67 2.21 14.79 2.94 C 13.23 2.42 11.65 1.59 10.96 0.00 Z" />
</g>
<g id="#3e423dff">
<path fill="#3e423d" opacity="1.00" d=" M 14.31 0.00 L 20.00 0.00 L 20.00 4.71 C 18.22 4.87 16.44 5.02 14.67 5.21 C 14.70 4.64 14.76 3.51 14.79 2.94 C 14.67 2.21 14.43 0.74 14.31 0.00 Z" />
</g>
<g id="#454a44ff">
<path fill="#454a44" opacity="1.00" d=" M 0.00 5.56 L 0.43 5.26 C 1.73 6.39 1.85 8.60 0.51 9.75 L 0.00 9.47 L 0.00 5.56 Z" />
</g>
<g id="#06067aff">
<path fill="#06067a" opacity="1.00" d=" M 0.43 5.26 L 1.42 4.54 C 1.80 6.13 1.70 7.95 2.67 9.34 C 4.07 10.38 5.99 10.06 7.62 10.36 C 5.98 10.68 4.34 10.95 2.70 11.20 C 2.15 10.84 1.06 10.11 0.51 9.75 C 1.85 8.60 1.73 6.39 0.43 5.26 Z" />
</g>
<g id="#ffff80ff">
<path fill="#ffff80" opacity="1.00" d=" M 8.93 5.05 C 10.84 5.10 12.76 5.13 14.67 5.21 C 15.46 6.71 16.44 8.09 17.57 9.36 C 16.91 9.82 15.59 10.73 14.93 11.18 C 14.67 11.30 14.17 11.54 13.91 11.66 C 12.39 12.25 10.80 12.81 9.14 12.80 C 8.65 12.01 8.21 11.18 7.82 10.33 C 7.92 8.52 8.25 6.74 8.93 5.05 M 11.08 7.68 C 12.06 8.68 14.42 7.41 13.67 6.05 C 12.68 5.04 10.26 6.25 11.08 7.68 Z" />
</g>
<g id="#5e625dff">
<path fill="#5e625d" opacity="1.00" d=" M 14.67 5.21 C 16.44 5.02 18.22 4.87 20.00 4.71 L 20.00 10.30 C 19.39 10.06 18.17 9.60 17.57 9.36 C 16.44 8.09 15.46 6.71 14.67 5.21 Z" />
<path fill="#5e625d" opacity="1.00" d=" M 14.97 15.01 C 16.65 14.92 18.32 14.82 20.00 14.73 L 20.00 20.00 L 14.92 20.00 C 14.94 18.34 14.96 16.67 14.97 15.01 Z" />
</g>
<g id="#000000ff">
<path fill="#000000" opacity="1.00" d=" M 11.08 7.68 C 10.26 6.25 12.68 5.04 13.67 6.05 C 14.42 7.41 12.06 8.68 11.08 7.68 Z" />
</g>
<g id="#0080ffff">
<path fill="#0080ff" opacity="1.00" d=" M 4.18 7.16 C 5.81 6.65 6.36 7.21 5.83 8.84 C 4.20 9.34 3.65 8.79 4.18 7.16 Z" />
<path fill="#0080ff" opacity="1.00" d=" M 8.23 14.10 C 8.68 14.12 9.59 14.16 10.04 14.18 L 10.30 14.95 C 10.14 15.42 9.81 16.38 9.65 16.85 C 9.25 16.86 8.45 16.87 8.05 16.87 C 8.10 16.18 8.19 14.80 8.23 14.10 Z" />
</g>
<g id="#c3c362ff">
<path fill="#c3c362" opacity="1.00" d=" M 7.62 10.36 L 7.82 10.33 C 8.21 11.18 8.65 12.01 9.14 12.80 C 10.80 12.81 12.39 12.25 13.91 11.66 C 13.70 12.04 13.26 12.80 13.05 13.18 C 11.87 12.84 10.87 13.17 10.04 14.18 C 9.59 14.16 8.68 14.12 8.23 14.10 C 7.84 14.04 7.06 13.92 6.67 13.86 C 6.16 13.61 5.14 13.12 4.63 12.87 C 3.99 12.31 3.34 11.75 2.70 11.20 C 4.34 10.95 5.98 10.68 7.62 10.36 Z" />
</g>
<g id="#3d413cff">
<path fill="#3d413c" opacity="1.00" d=" M 14.93 11.18 C 15.59 10.73 16.91 9.82 17.57 9.36 C 18.17 9.60 19.39 10.06 20.00 10.30 L 20.00 14.73 C 18.32 14.82 16.65 14.92 14.97 15.01 C 14.96 16.67 14.94 18.34 14.92 20.00 L 13.51 20.00 C 13.40 19.55 13.20 18.65 13.10 18.20 C 13.08 17.31 13.04 15.52 13.03 14.62 C 14.96 14.93 15.43 12.60 14.93 11.18 Z" />
<path fill="#3d413c" opacity="1.00" d=" M 0.00 14.64 C 1.68 14.65 3.37 14.66 5.05 14.67 C 5.30 16.04 5.52 17.42 5.70 18.80 C 5.68 19.10 5.65 19.70 5.64 20.00 L 0.00 20.00 L 0.00 14.64 Z" />
</g>
<g id="#5a5e59ff">
<path fill="#5a5e59" opacity="1.00" d=" M 13.91 11.66 C 14.17 11.54 14.67 11.30 14.93 11.18 C 15.43 12.60 14.96 14.93 13.03 14.62 L 12.99 13.96 L 13.05 13.18 C 13.26 12.80 13.70 12.04 13.91 11.66 Z" />
</g>
<g id="#000080ff">
<path fill="#000080" opacity="1.00" d=" M 4.63 12.87 C 5.14 13.12 6.16 13.61 6.67 13.86 C 7.06 13.92 7.84 14.04 8.23 14.10 C 8.19 14.80 8.10 16.18 8.05 16.87 L 6.69 16.82 C 8.55 15.14 4.97 14.58 5.78 16.77 L 5.70 18.80 C 5.52 17.42 5.30 16.04 5.05 14.67 C 4.95 14.22 4.74 13.32 4.63 12.87 Z" />
</g>
<g id="#0000a0ff">
<path fill="#0000a0" opacity="1.00" d=" M 10.04 14.18 C 10.87 13.17 11.87 12.84 13.05 13.18 L 12.99 13.96 C 12.25 14.68 11.35 15.01 10.30 14.95 L 10.04 14.18 Z" />
</g>
<g id="#804000ff">
<path fill="#804000" opacity="1.00" d=" M 5.78 16.77 L 6.69 16.82 L 8.05 16.87 C 8.45 16.87 9.25 16.86 9.65 16.85 C 10.87 17.12 12.02 17.57 13.10 18.20 C 13.20 18.65 13.40 19.55 13.51 20.00 L 12.86 20.00 C 12.24 19.46 10.99 18.39 10.36 17.86 C 8.69 17.96 6.94 18.10 6.38 20.00 L 5.64 20.00 C 5.65 19.70 5.68 19.10 5.70 18.80 L 5.78 16.77 Z" />
</g>
<g id="#ff8040ff">
<path fill="#ff8040" opacity="1.00" d=" M 6.38 20.00 C 6.94 18.10 8.69 17.96 10.36 17.86 C 10.99 18.39 12.24 19.46 12.86 20.00 L 6.38 20.00 Z" />
</g>
</svg>
