<?xml version="1.0" encoding="UTF-8" ?>
<!DOCTYPE svg PUBLIC "-//W3C//DTD SVG 1.1//EN" "http://www.w3.org/Graphics/SVG/1.1/DTD/svg11.dtd">
<svg width="20pt" height="20pt" viewBox="0 0 20 20" version="1.1" xmlns="http://www.w3.org/2000/svg">
<g id="#005effff">
<path fill="#005eff" opacity="1.00" d=" M 7.72 0.00 L 11.54 0.00 C 13.47 1.09 15.37 2.37 16.30 4.48 C 14.58 3.23 12.90 1.78 10.85 1.12 C 8.68 1.02 6.57 1.59 4.45 1.95 L 5.31 1.28 C 5.91 0.96 7.12 0.32 7.72 0.00 Z" />
</g>
<g id="#0000ffff">
<path fill="#0000ff" opacity="1.00" d=" M 4.45 1.95 C 6.57 1.59 8.68 1.02 10.85 1.12 C 12.90 1.78 14.58 3.23 16.30 4.48 C 16.48 4.72 16.85 5.22 17.03 5.46 C 17.32 7.62 16.31 9.55 15.35 11.40 L 14.66 10.33 C 14.85 8.79 14.61 7.28 14.13 5.82 L 13.90 4.97 C 10.98 5.01 8.07 5.01 5.16 4.97 C 4.60 6.67 4.03 8.38 3.61 10.12 L 4.88 9.71 C 4.89 10.24 4.91 11.29 4.91 11.81 C 3.64 11.04 2.92 9.66 1.98 8.55 C 1.99 7.52 2.00 6.50 2.00 5.47 C 2.79 4.28 3.57 3.07 4.45 1.95 Z" />
<path fill="#0000ff" opacity="1.00" d=" M 6.52 13.80 L 7.00 13.86 L 6.88 14.05 C 8.65 14.91 10.97 15.68 12.77 14.49 C 12.99 15.11 13.44 16.33 13.66 16.95 C 10.92 16.95 8.18 16.93 5.44 16.87 L 5.99 15.41 C 6.12 15.01 6.39 14.20 6.52 13.80 Z" />
</g>
<g id="#b1b16cff">
<path fill="#b1b16c" opacity="1.00" d=" M 5.16 4.97 C 8.07 5.01 10.98 5.01 13.90 4.97 L 14.13 5.82 C 11.47 5.84 8.80 5.84 6.14 5.84 C 5.30 7.27 4.46 8.70 3.61 10.12 C 4.03 8.38 4.60 6.67 5.16 4.97 Z" />
</g>
<g id="#ffff80ff">
<path fill="#ffff80" opacity="1.00" d=" M 6.14 5.84 C 8.80 5.84 11.47 5.84 14.13 5.82 C 14.61 7.28 14.85 8.79 14.66 10.33 C 14.57 10.59 14.39 11.12 14.30 11.38 C 11.39 12.99 7.76 14.46 4.91 11.81 C 4.91 11.29 4.89 10.24 4.88 9.71 L 3.61 10.12 C 4.46 8.70 5.30 7.27 6.14 5.84 M 7.28 7.11 C 5.87 7.89 5.78 8.58 7.01 9.16 C 8.41 8.41 8.50 7.73 7.28 7.11 M 11.04 7.29 C 10.74 8.70 11.29 9.26 12.70 8.96 C 12.96 7.60 12.40 7.05 11.04 7.29 M 8.44 10.79 C 9.70 11.54 10.47 11.26 10.75 9.95 C 9.48 9.20 8.71 9.47 8.44 10.79 Z" />
</g>
<g id="#000000ff">
<path fill="#000000" opacity="1.00" d=" M 7.28 7.11 C 8.50 7.73 8.41 8.41 7.01 9.16 C 5.78 8.58 5.87 7.89 7.28 7.11 Z" />
<path fill="#000000" opacity="1.00" d=" M 11.04 7.29 C 12.40 7.05 12.96 7.60 12.70 8.96 C 11.29 9.26 10.74 8.70 11.04 7.29 Z" />
</g>
<g id="#c0c060ff">
<path fill="#c0c060" opacity="1.00" d=" M 8.44 10.79 C 8.71 9.47 9.48 9.20 10.75 9.95 C 10.47 11.26 9.70 11.54 8.44 10.79 Z" />
</g>
<g id="#0080ffff">
<path fill="#0080ff" opacity="1.00" d=" M 4.93 12.73 C 5.33 13.00 6.12 13.53 6.52 13.80 C 6.39 14.20 6.12 15.01 5.99 15.41 C 3.84 16.99 3.74 13.75 4.93 12.73 Z" />
<path fill="#0080ff" opacity="1.00" d=" M 12.88 12.92 L 13.47 12.69 C 15.01 13.68 15.60 15.82 14.37 17.29 L 13.66 16.95 C 13.44 16.33 12.99 15.11 12.77 14.49 C 12.80 14.10 12.86 13.31 12.88 12.92 Z" />
</g>
<g id="#000080ff">
<path fill="#000080" opacity="1.00" d=" M 7.00 13.86 C 8.99 13.79 11.05 13.79 12.88 12.92 C 12.86 13.31 12.80 14.10 12.77 14.49 C 10.97 15.68 8.65 14.91 6.88 14.05 L 7.00 13.86 Z" />
</g>
<g id="#804000ff">
<path fill="#804000" opacity="1.00" d=" M 5.22 17.46 L 5.44 16.87 C 8.18 16.93 10.92 16.95 13.66 16.95 L 14.37 17.29 C 14.23 17.66 13.96 18.39 13.83 18.76 C 12.21 19.03 10.59 19.35 9.07 20.00 L 4.83 20.00 C 4.93 19.37 5.12 18.10 5.22 17.46 M 6.25 18.21 C 6.62 19.43 7.45 19.62 8.74 18.78 C 8.38 17.56 7.54 17.37 6.25 18.21 Z" />
</g>
<g id="#ff8040ff">
<path fill="#ff8040" opacity="1.00" d=" M 6.25 18.21 C 7.54 17.37 8.38 17.56 8.74 18.78 C 7.45 19.62 6.62 19.43 6.25 18.21 Z" />
</g>
</svg>
