<?xml version="1.0" encoding="UTF-8" ?>
<!DOCTYPE svg PUBLIC "-//W3C//DTD SVG 1.1//EN" "http://www.w3.org/Graphics/SVG/1.1/DTD/svg11.dtd">
<svg width="20pt" height="20pt" viewBox="0 0 20 20" version="1.1" xmlns="http://www.w3.org/2000/svg">
<g id="#0080ffff">
<path fill="#0080ff" opacity="1.00" d=" M 7.30 0.00 L 11.72 0.00 L 12.13 0.33 C 10.71 1.63 8.31 1.63 6.89 0.33 L 7.30 0.00 Z" />
<path fill="#0080ff" opacity="1.00" d=" M 5.34 12.97 L 5.84 13.39 C 5.95 13.88 6.16 14.87 6.27 15.36 C 6.06 15.81 5.62 16.70 5.40 17.14 L 4.66 17.22 C 3.02 16.20 4.15 13.88 5.34 12.97 Z" />
</g>
<g id="#0000ffff">
<path fill="#0000ff" opacity="1.00" d=" M 2.22 5.43 C 2.94 3.09 5.00 1.68 6.89 0.33 C 8.31 1.63 10.71 1.63 12.13 0.33 C 14.84 2.13 17.85 5.06 16.92 8.65 C 16.17 9.55 15.28 10.32 14.39 11.08 C 11.03 10.69 7.62 10.79 4.29 11.45 C 3.17 9.67 1.19 7.71 2.22 5.43 Z" />
<path fill="#0000ff" opacity="1.00" d=" M 5.84 13.39 C 8.47 14.15 11.20 13.82 13.85 13.34 C 13.66 14.02 13.28 15.39 13.09 16.07 C 10.83 15.77 8.55 15.57 6.27 15.36 C 6.16 14.87 5.95 13.88 5.84 13.39 Z" />
</g>
<g id="#c0c060ff">
<path fill="#c0c060" opacity="1.00" d=" M 4.29 11.45 C 7.62 10.79 11.03 10.69 14.39 11.08 C 14.32 11.43 14.16 12.12 14.09 12.47 L 13.85 13.34 C 11.20 13.82 8.47 14.15 5.84 13.39 L 5.34 12.97 C 5.08 12.59 4.55 11.83 4.29 11.45 Z" />
</g>
<g id="#136592c0">
<path fill="#136592" opacity="0.75" d=" M 13.85 13.34 L 14.09 12.47 C 14.59 14.96 14.83 17.48 15.12 20.00 L 14.50 20.00 C 14.11 18.96 13.73 17.92 13.37 16.88 L 13.09 16.07 C 13.28 15.39 13.66 14.02 13.85 13.34 Z" />
</g>
<g id="#000080ff">
<path fill="#000080" opacity="1.00" d=" M 6.27 15.36 C 8.55 15.57 10.83 15.77 13.09 16.07 L 13.37 16.88 C 10.71 16.94 8.05 16.98 5.40 17.14 C 5.62 16.70 6.06 15.81 6.27 15.36 Z" />
</g>
<g id="#774304f5">
<path fill="#774304" opacity="0.96" d=" M 4.66 17.22 L 5.40 17.14 C 8.05 16.98 10.71 16.94 13.37 16.88 C 13.73 17.92 14.11 18.96 14.50 20.00 L 9.36 20.00 C 7.70 19.25 6.07 18.39 4.66 17.22 M 10.55 18.09 C 10.68 19.55 11.31 19.81 12.45 18.86 C 12.32 17.41 11.69 17.15 10.55 18.09 Z" />
</g>
<g id="#81402081">
<path fill="#814020" opacity="0.51" d=" M 10.55 18.09 C 11.69 17.15 12.32 17.41 12.45 18.86 C 11.31 19.81 10.68 19.55 10.55 18.09 Z" />
</g>
</svg>
