<?xml version="1.0" encoding="UTF-8" ?>
<!DOCTYPE svg PUBLIC "-//W3C//DTD SVG 1.1//EN" "http://www.w3.org/Graphics/SVG/1.1/DTD/svg11.dtd">
<svg width="20pt" height="20pt" viewBox="0 0 20 20" version="1.1" xmlns="http://www.w3.org/2000/svg">
<g id="#666a65ff">
<path fill="#666a65" opacity="1.00" d=" M 0.00 0.00 L 7.90 0.00 C 6.78 0.64 5.69 1.32 4.62 2.05 C 3.43 3.17 2.49 4.52 1.41 5.74 C 1.06 5.35 0.35 4.57 0.00 4.18 L 0.00 0.00 Z" />
</g>
<g id="#005effff">
<path fill="#005eff" opacity="1.00" d=" M 7.90 0.00 L 11.96 0.00 C 12.00 1.53 13.77 1.89 14.98 1.74 C 15.31 2.41 15.96 3.76 16.29 4.44 C 14.58 3.16 12.87 1.73 10.76 1.16 C 8.68 0.91 6.62 1.56 4.62 2.05 C 5.69 1.32 6.78 0.64 7.90 0.00 Z" />
</g>
<g id="#626561ff">
<path fill="#626561" opacity="1.00" d=" M 11.96 0.00 L 14.38 0.00 C 14.53 0.43 14.83 1.30 14.98 1.74 C 13.77 1.89 12.00 1.53 11.96 0.00 Z" />
</g>
<g id="#3f433eff">
<path fill="#3f433e" opacity="1.00" d=" M 14.38 0.00 L 20.00 0.00 L 20.00 4.35 C 19.30 4.68 17.90 5.34 17.21 5.67 C 16.98 5.36 16.52 4.75 16.29 4.44 C 15.96 3.76 15.31 2.41 14.98 1.74 C 14.83 1.30 14.53 0.43 14.38 0.00 Z" />
<path fill="#3f433e" opacity="1.00" d=" M 0.00 14.77 C 1.26 14.80 2.51 14.82 3.77 14.84 C 3.98 15.42 4.40 16.57 4.61 17.15 C 4.87 17.49 5.39 18.17 5.64 18.51 C 7.01 19.08 8.42 19.57 9.83 20.00 L 0.00 20.00 L 0.00 14.77 Z" />
</g>
<g id="#0000ffff">
<path fill="#0000ff" opacity="1.00" d=" M 4.62 2.05 C 6.62 1.56 8.68 0.91 10.76 1.16 C 12.87 1.73 14.58 3.16 16.29 4.44 C 16.52 4.75 16.98 5.36 17.21 5.67 C 16.89 7.23 16.59 8.80 16.28 10.36 C 11.57 9.93 6.87 9.31 2.24 8.35 C 2.04 7.70 1.62 6.39 1.41 5.74 C 2.49 4.52 3.43 3.17 4.62 2.05 Z" />
<path fill="#0000ff" opacity="1.00" d=" M 5.82 13.14 C 6.27 13.34 7.16 13.73 7.61 13.93 C 8.87 13.98 10.14 13.98 11.40 13.93 C 11.80 13.74 12.60 13.35 13.00 13.16 C 13.10 13.90 13.31 15.38 13.41 16.13 C 10.97 16.27 8.51 16.08 6.18 15.30 C 6.09 14.76 5.91 13.68 5.82 13.14 Z" />
</g>
<g id="#444943ff">
<path fill="#444943" opacity="1.00" d=" M 0.00 4.18 C 0.35 4.57 1.06 5.35 1.41 5.74 C 1.62 6.39 2.04 7.70 2.24 8.35 C 2.38 8.80 2.67 9.71 2.81 10.16 C 2.11 10.02 0.70 9.74 0.00 9.61 L 0.00 4.18 Z" />
</g>
<g id="#60645fff">
<path fill="#60645f" opacity="1.00" d=" M 17.21 5.67 C 17.90 5.34 19.30 4.68 20.00 4.35 L 20.00 9.45 C 18.76 9.76 17.52 10.06 16.28 10.36 C 16.59 8.80 16.89 7.23 17.21 5.67 Z" />
<path fill="#60645f" opacity="1.00" d=" M 0.00 9.61 C 0.70 9.74 2.11 10.02 2.81 10.16 C 3.00 10.37 3.40 10.79 3.59 10.99 C 4.04 11.45 4.93 12.37 5.37 12.83 C 4.97 13.33 4.17 14.34 3.77 14.84 C 2.51 14.82 1.26 14.80 0.00 14.77 L 0.00 9.61 Z" />
</g>
<g id="#03037dff">
<path fill="#03037d" opacity="1.00" d=" M 2.24 8.35 C 6.87 9.31 11.57 9.93 16.28 10.36 C 16.08 10.51 15.69 10.80 15.49 10.95 C 11.53 11.10 7.56 10.99 3.59 10.99 C 3.40 10.79 3.00 10.37 2.81 10.16 C 2.67 9.71 2.38 8.80 2.24 8.35 Z" />
</g>
<g id="#3d413cff">
<path fill="#3d413c" opacity="1.00" d=" M 16.28 10.36 C 17.52 10.06 18.76 9.76 20.00 9.45 L 20.00 14.73 C 18.35 14.84 16.70 14.96 15.06 15.08 C 14.67 14.51 13.89 13.38 13.50 12.81 C 14.00 12.35 14.99 11.41 15.49 10.95 C 15.69 10.80 16.08 10.51 16.28 10.36 Z" />
</g>
<g id="#c0c060ff">
<path fill="#c0c060" opacity="1.00" d=" M 3.59 10.99 C 7.56 10.99 11.53 11.10 15.49 10.95 C 14.99 11.41 14.00 12.35 13.50 12.81 L 13.00 13.16 C 12.60 13.35 11.80 13.74 11.40 13.93 C 10.14 13.98 8.87 13.98 7.61 13.93 C 7.16 13.73 6.27 13.34 5.82 13.14 L 5.37 12.83 C 4.93 12.37 4.04 11.45 3.59 10.99 Z" />
</g>
<g id="#0080ffff">
<path fill="#0080ff" opacity="1.00" d=" M 5.37 12.83 L 5.82 13.14 C 5.91 13.68 6.09 14.76 6.18 15.30 C 5.95 15.76 5.50 16.67 5.28 17.12 L 4.61 17.15 C 4.40 16.57 3.98 15.42 3.77 14.84 C 4.17 14.34 4.97 13.33 5.37 12.83 Z" />
<path fill="#0080ff" opacity="1.00" d=" M 13.00 13.16 L 13.50 12.81 C 13.89 13.38 14.67 14.51 15.06 15.08 L 14.96 15.87 C 14.58 15.93 13.80 16.06 13.41 16.13 C 13.31 15.38 13.10 13.90 13.00 13.16 Z" />
</g>
<g id="#181966ff">
<path fill="#181966" opacity="1.00" d=" M 6.18 15.30 C 8.51 16.08 10.97 16.27 13.41 16.13 C 13.80 16.06 14.58 15.93 14.96 15.87 C 14.83 17.25 14.71 18.62 14.59 20.00 L 14.34 20.00 C 14.35 19.19 14.36 17.56 14.36 16.75 C 11.34 16.91 8.31 17.01 5.28 17.12 C 5.50 16.67 5.95 15.76 6.18 15.30 Z" />
</g>
<g id="#5e625dff">
<path fill="#5e625d" opacity="1.00" d=" M 15.06 15.08 C 16.70 14.96 18.35 14.84 20.00 14.73 L 20.00 20.00 L 14.59 20.00 C 14.71 18.62 14.83 17.25 14.96 15.87 L 15.06 15.08 Z" />
</g>
<g id="#804000ff">
<path fill="#804000" opacity="1.00" d=" M 4.61 17.15 L 5.28 17.12 C 8.31 17.01 11.34 16.91 14.36 16.75 C 14.36 17.56 14.35 19.19 14.34 20.00 L 9.83 20.00 C 8.42 19.57 7.01 19.08 5.64 18.51 C 5.39 18.17 4.87 17.49 4.61 17.15 M 10.48 18.13 C 10.65 19.51 11.33 19.75 12.52 18.85 C 12.34 17.46 11.66 17.22 10.48 18.13 Z" />
</g>
<g id="#ff8040ff">
<path fill="#ff8040" opacity="1.00" d=" M 10.48 18.13 C 11.66 17.22 12.34 17.46 12.52 18.85 C 11.33 19.75 10.65 19.51 10.48 18.13 Z" />
</g>
</svg>
