<?xml version="1.0" encoding="UTF-8" ?>
<!DOCTYPE svg PUBLIC "-//W3C//DTD SVG 1.1//EN" "http://www.w3.org/Graphics/SVG/1.1/DTD/svg11.dtd">
<svg width="20pt" height="20pt" viewBox="0 0 20 20" version="1.1" xmlns="http://www.w3.org/2000/svg">
<g id="#519750ff">
<path fill="#519750" opacity="1.00" d=" M 0.00 0.00 L 7.34 0.00 L 6.93 0.33 C 4.27 2.25 0.57 5.28 2.60 8.94 C 2.90 9.48 3.51 10.55 3.81 11.09 C 4.11 11.61 4.72 12.66 5.02 13.18 C 3.29 13.93 4.08 16.69 6.00 16.07 L 5.61 16.91 C 5.14 17.94 4.68 18.97 4.22 20.00 L 0.00 20.00 L 0.00 0.00 Z" />
</g>
<g id="#0080ffff">
<path fill="#0080ff" opacity="1.00" d=" M 7.34 0.00 L 11.73 0.00 L 12.12 0.34 C 10.75 1.62 8.29 1.63 6.93 0.33 L 7.34 0.00 Z" />
<path fill="#0080ff" opacity="1.00" d=" M 5.02 13.18 L 5.71 13.33 C 5.88 13.83 6.21 14.82 6.38 15.32 L 6.00 16.07 C 4.08 16.69 3.29 13.93 5.02 13.18 Z" />
<path fill="#0080ff" opacity="1.00" d=" M 13.29 13.31 L 13.87 13.18 C 15.45 14.08 15.70 17.38 13.25 16.96 L 12.64 16.48 C 12.80 15.69 13.13 14.10 13.29 13.31 Z" />
</g>
<g id="#4f964dff">
<path fill="#4f964d" opacity="1.00" d=" M 11.73 0.00 L 20.00 0.00 L 20.00 20.00 L 4.22 20.00 C 4.68 18.97 5.14 17.94 5.61 16.91 C 8.15 17.00 10.70 17.04 13.25 16.96 C 15.70 17.38 15.45 14.08 13.87 13.18 C 14.21 12.66 14.89 11.64 15.23 11.12 C 15.43 10.82 15.82 10.23 16.01 9.93 C 18.92 6.13 14.94 2.57 12.12 0.34 L 11.73 0.00 M 6.48 18.02 C 6.65 19.43 7.31 19.67 8.48 18.75 C 8.31 17.33 7.65 17.09 6.48 18.02 Z" />
</g>
<g id="#0000ffff">
<path fill="#0000ff" opacity="1.00" d=" M 2.60 8.94 C 0.57 5.28 4.27 2.25 6.93 0.33 C 8.29 1.63 10.75 1.62 12.12 0.34 C 14.94 2.57 18.92 6.13 16.01 9.93 C 11.52 9.87 7.06 9.37 2.60 8.94 Z" />
<path fill="#0000ff" opacity="1.00" d=" M 5.71 13.33 C 8.20 14.04 10.80 14.05 13.29 13.31 C 13.13 14.10 12.80 15.69 12.64 16.48 C 10.57 16.01 8.47 15.69 6.38 15.32 C 6.21 14.82 5.88 13.83 5.71 13.33 Z" />
</g>
<g id="#000080ff">
<path fill="#000080" opacity="1.00" d=" M 2.60 8.94 C 7.06 9.37 11.52 9.87 16.01 9.93 C 15.82 10.23 15.43 10.82 15.23 11.12 C 11.42 11.06 7.62 10.98 3.81 11.09 C 3.51 10.55 2.90 9.48 2.60 8.94 Z" />
<path fill="#000080" opacity="1.00" d=" M 6.38 15.32 C 8.47 15.69 10.57 16.01 12.64 16.48 L 13.25 16.96 C 10.70 17.04 8.15 17.00 5.61 16.91 L 6.00 16.07 L 6.38 15.32 Z" />
</g>
<g id="#c0c060ff">
<path fill="#c0c060" opacity="1.00" d=" M 3.81 11.09 C 7.62 10.98 11.42 11.06 15.23 11.12 C 14.89 11.64 14.21 12.66 13.87 13.18 L 13.29 13.31 C 10.80 14.05 8.20 14.04 5.71 13.33 L 5.02 13.18 C 4.72 12.66 4.11 11.61 3.81 11.09 Z" />
</g>
<g id="#ff8040ff">
<path fill="#ff8040" opacity="1.00" d=" M 6.48 18.02 C 7.65 17.09 8.31 17.33 8.48 18.75 C 7.31 19.67 6.65 19.43 6.48 18.02 Z" />
</g>
</svg>
