<?xml version="1.0" encoding="UTF-8" ?>
<!DOCTYPE svg PUBLIC "-//W3C//DTD SVG 1.1//EN" "http://www.w3.org/Graphics/SVG/1.1/DTD/svg11.dtd">
<svg width="20pt" height="20pt" viewBox="0 0 20 20" version="1.1" xmlns="http://www.w3.org/2000/svg">
<g id="#0349b3bc">
<path fill="#0349b3" opacity="0.74" d=" M 7.69 0.00 L 11.41 0.00 C 12.41 0.67 13.36 1.39 14.29 2.16 C 11.23 0.88 7.86 1.00 4.73 1.91 C 5.70 1.24 6.68 0.61 7.69 0.00 Z" />
</g>
<g id="#0000ffff">
<path fill="#0000ff" opacity="1.00" d=" M 4.73 1.91 C 7.86 1.00 11.23 0.88 14.29 2.16 C 14.57 2.46 15.13 3.06 15.41 3.36 C 15.46 3.42 15.57 3.55 15.63 3.62 C 15.96 4.07 16.62 4.98 16.95 5.44 C 16.97 6.45 16.97 7.47 16.92 8.49 C 16.64 8.91 16.07 9.75 15.79 10.17 L 15.23 9.47 C 14.82 8.27 14.45 7.06 14.07 5.85 L 13.81 5.00 C 10.98 4.99 8.15 5.00 5.31 5.00 C 4.73 6.38 4.13 7.75 3.46 9.10 L 2.74 9.37 C 2.41 8.08 2.11 6.79 1.81 5.50 C 2.75 4.28 3.58 2.95 4.73 1.91 Z" />
<path fill="#0000ff" opacity="1.00" d=" M 10.55 14.29 C 11.27 13.83 11.99 13.37 12.70 12.89 C 12.80 13.70 13.00 15.31 13.10 16.12 L 12.97 17.06 C 10.48 16.95 7.98 16.90 5.49 16.81 C 5.71 16.03 6.16 14.45 6.39 13.67 C 7.78 13.83 9.17 14.03 10.55 14.29 Z" />
</g>
<g id="#0458a2ad">
<path fill="#0458a2" opacity="0.68" d=" M 15.41 3.36 C 15.46 3.42 15.57 3.55 15.63 3.62 C 15.57 3.55 15.46 3.42 15.41 3.36 Z" />
</g>
<g id="#b1b16cff">
<path fill="#b1b16c" opacity="1.00" d=" M 5.31 5.00 C 8.15 5.00 10.98 4.99 13.81 5.00 L 14.07 5.85 C 11.50 5.89 8.84 5.45 6.33 6.17 C 5.29 7.06 4.39 8.10 3.46 9.10 C 4.13 7.75 4.73 6.38 5.31 5.00 Z" />
</g>
<g id="#ffff80ff">
<path fill="#ffff80" opacity="1.00" d=" M 6.33 6.17 C 8.84 5.45 11.50 5.89 14.07 5.85 C 14.45 7.06 14.82 8.27 15.23 9.47 C 14.34 10.43 13.48 11.42 12.66 12.44 C 10.19 13.64 7.45 13.51 5.09 12.10 C 5.20 10.71 4.66 9.71 3.46 9.10 C 4.39 8.10 5.29 7.06 6.33 6.17 M 7.29 7.10 C 5.88 7.90 5.79 8.58 7.02 9.16 C 8.42 8.42 8.51 7.74 7.29 7.10 M 11.04 7.30 C 10.73 8.73 11.29 9.28 12.71 8.96 C 12.95 7.60 12.39 7.05 11.04 7.30 M 8.41 10.14 C 8.64 11.43 9.38 11.63 10.63 10.72 C 10.40 9.43 9.66 9.23 8.41 10.14 Z" />
</g>
<g id="#000000ff">
<path fill="#000000" opacity="1.00" d=" M 7.29 7.10 C 8.51 7.74 8.42 8.42 7.02 9.16 C 5.79 8.58 5.88 7.90 7.29 7.10 Z" />
<path fill="#000000" opacity="1.00" d=" M 11.04 7.30 C 12.39 7.05 12.95 7.60 12.71 8.96 C 11.29 9.28 10.73 8.73 11.04 7.30 Z" />
</g>
<g id="#355763fe">
<path fill="#355763" opacity="1.00" d=" M 2.74 9.37 L 3.46 9.10 C 4.66 9.71 5.20 10.71 5.09 12.10 C 3.80 11.78 2.81 10.72 2.74 9.37 Z" />
</g>
<g id="#c0c060ff">
<path fill="#c0c060" opacity="1.00" d=" M 8.41 10.14 C 9.66 9.23 10.40 9.43 10.63 10.72 C 9.38 11.63 8.64 11.43 8.41 10.14 Z" />
</g>
<g id="#2f7faefe">
<path fill="#2f7fae" opacity="1.00" d=" M 12.66 12.44 C 13.48 11.42 14.34 10.43 15.23 9.47 L 15.79 10.17 C 14.00 11.83 13.93 13.83 15.16 15.87 C 14.64 15.93 13.61 16.06 13.10 16.12 C 13.00 15.31 12.80 13.70 12.70 12.89 L 12.66 12.44 Z" />
</g>
<g id="#0080ffff">
<path fill="#0080ff" opacity="1.00" d=" M 4.89 12.84 C 5.26 13.05 6.01 13.46 6.39 13.67 C 6.16 14.45 5.71 16.03 5.49 16.81 L 4.70 17.31 C 3.53 15.99 4.01 14.16 4.89 12.84 Z" />
</g>
<g id="#804000ff">
<path fill="#804000" opacity="1.00" d=" M 4.70 17.31 L 5.49 16.81 C 7.98 16.90 10.48 16.95 12.97 17.06 L 13.91 17.13 C 13.96 17.85 14.07 19.28 14.13 20.00 L 9.84 20.00 C 8.34 19.38 6.75 19.04 5.16 18.73 C 5.04 18.38 4.81 17.66 4.70 17.31 M 10.31 18.21 C 10.65 19.44 11.47 19.63 12.74 18.78 C 12.40 17.55 11.59 17.36 10.31 18.21 Z" />
</g>
<g id="#ff8040ff">
<path fill="#ff8040" opacity="1.00" d=" M 10.31 18.21 C 11.59 17.36 12.40 17.55 12.74 18.78 C 11.47 19.63 10.65 19.44 10.31 18.21 Z" />
</g>
</svg>
