<?xml version="1.0" encoding="UTF-8" ?>
<!DOCTYPE svg PUBLIC "-//W3C//DTD SVG 1.1//EN" "http://www.w3.org/Graphics/SVG/1.1/DTD/svg11.dtd">
<svg width="20pt" height="20pt" viewBox="0 0 20 20" version="1.1" xmlns="http://www.w3.org/2000/svg">
<g id="#4e934fff">
<path fill="#4e934f" opacity="1.00" d=" M 0.00 0.00 L 7.21 0.00 C 4.29 1.64 -0.44 6.44 3.56 9.29 C 4.41 10.39 5.21 11.54 6.00 12.70 C 4.65 13.91 3.07 15.53 4.68 17.27 C 5.40 19.24 7.80 19.19 9.43 20.00 L 0.00 20.00 L 0.00 0.00 Z" />
</g>
<g id="#0215f9ff">
<path fill="#0215f9" opacity="1.00" d=" M 7.21 0.00 L 11.79 0.00 C 15.11 1.78 19.48 6.87 15.18 9.93 C 15.95 2.78 3.91 2.71 3.56 9.29 C -0.44 6.44 4.29 1.64 7.21 0.00 Z" />
</g>
<g id="#4f954eff">
<path fill="#4f954e" opacity="1.00" d=" M 11.79 0.00 L 20.00 0.00 L 20.00 20.00 L 14.34 20.00 C 13.95 18.93 13.55 17.87 13.13 16.81 C 15.33 15.58 15.04 14.17 12.98 12.95 C 13.61 11.88 14.36 10.87 15.18 9.93 C 19.48 6.87 15.11 1.78 11.79 0.00 Z" />
</g>
<g id="#d8d86cff">
<path fill="#d8d86c" opacity="1.00" d=" M 3.56 9.29 C 3.91 2.71 15.95 2.78 15.18 9.93 C 14.36 10.87 13.61 11.88 12.98 12.95 C 11.08 13.46 9.15 13.80 7.23 14.17 C 6.92 13.80 6.31 13.07 6.00 12.70 C 5.21 11.54 4.41 10.39 3.56 9.29 Z" />
</g>
<g id="#0037faff">
<path fill="#0037fa" opacity="1.00" d=" M 4.68 17.27 C 3.07 15.53 4.65 13.91 6.00 12.70 C 6.31 13.07 6.92 13.80 7.23 14.17 C 8.79 16.50 13.34 15.97 12.98 12.95 C 15.04 14.17 15.33 15.58 13.13 16.81 C 10.31 16.96 7.50 17.11 4.68 17.27 Z" />
</g>
<g id="#000080ff">
<path fill="#000080" opacity="1.00" d=" M 7.23 14.17 C 9.15 13.80 11.08 13.46 12.98 12.95 C 13.34 15.97 8.79 16.50 7.23 14.17 Z" />
</g>
<g id="#885715ff">
<path fill="#885715" opacity="1.00" d=" M 4.68 17.27 C 7.50 17.11 10.31 16.96 13.13 16.81 C 13.55 17.87 13.95 18.93 14.34 20.00 L 9.43 20.00 C 7.80 19.19 5.40 19.24 4.68 17.27 Z" />
</g>
</svg>
