<?xml version="1.0" encoding="UTF-8" ?>
<!DOCTYPE svg PUBLIC "-//W3C//DTD SVG 1.1//EN" "http://www.w3.org/Graphics/SVG/1.1/DTD/svg11.dtd">
<svg width="20pt" height="20pt" viewBox="0 0 20 20" version="1.1" xmlns="http://www.w3.org/2000/svg">
<g id="#565a55ff">
<path fill="#565a55" opacity="1.00" d=" M 0.00 0.00 L 7.32 0.00 L 6.90 0.33 C 4.19 2.20 0.58 5.28 2.71 8.91 C 2.99 9.44 3.56 10.51 3.84 11.04 C 4.13 11.57 4.71 12.62 4.99 13.14 C 3.20 13.85 3.99 16.72 5.96 16.00 L 5.63 16.78 C 5.22 17.85 4.80 18.93 4.37 20.00 L 0.00 20.00 L 0.00 0.00 Z" />
</g>
<g id="#0080ffff">
<path fill="#0080ff" opacity="1.00" d=" M 7.32 0.00 L 11.75 0.00 L 12.14 0.33 C 10.76 1.60 8.28 1.62 6.90 0.33 L 7.32 0.00 Z" />
<path fill="#0080ff" opacity="1.00" d=" M 4.99 13.14 L 5.67 13.30 C 5.83 13.79 6.14 14.78 6.29 15.27 L 5.96 16.00 C 3.99 16.72 3.20 13.85 4.99 13.14 Z" />
<path fill="#0080ff" opacity="1.00" d=" M 13.31 13.27 L 13.88 13.13 C 15.46 14.05 15.80 17.40 13.27 16.89 L 12.67 16.41 C 12.83 15.62 13.15 14.05 13.31 13.27 Z" />
</g>
<g id="#43443fff">
<path fill="#43443f" opacity="1.00" d=" M 11.75 0.00 L 20.00 0.00 L 20.00 20.00 L 4.37 20.00 C 4.80 18.93 5.22 17.85 5.63 16.78 C 8.18 16.85 10.72 16.90 13.27 16.89 C 15.80 17.40 15.46 14.05 13.88 13.13 C 14.21 12.64 14.86 11.65 15.19 11.16 C 15.38 10.87 15.76 10.30 15.95 10.01 C 18.95 6.30 15.14 2.42 12.14 0.33 L 11.75 0.00 M 6.49 18.13 C 6.66 19.52 7.33 19.76 8.51 18.85 C 8.34 17.45 7.67 17.21 6.49 18.13 Z" />
</g>
<g id="#0000ffff">
<path fill="#0000ff" opacity="1.00" d=" M 2.71 8.91 C 0.58 5.28 4.19 2.20 6.90 0.33 C 8.28 1.62 10.76 1.60 12.14 0.33 C 15.14 2.42 18.95 6.30 15.95 10.01 C 11.52 9.88 7.12 9.34 2.71 8.91 Z" />
<path fill="#0000ff" opacity="1.00" d=" M 5.67 13.30 C 8.17 14.07 10.81 14.08 13.31 13.27 C 13.15 14.05 12.83 15.62 12.67 16.41 C 10.56 15.96 8.42 15.65 6.29 15.27 C 6.14 14.78 5.83 13.79 5.67 13.30 Z" />
</g>
<g id="#000080ff">
<path fill="#000080" opacity="1.00" d=" M 2.71 8.91 C 7.12 9.34 11.52 9.88 15.95 10.01 C 15.76 10.30 15.38 10.87 15.19 11.16 C 11.41 11.06 7.62 10.96 3.84 11.04 C 3.56 10.51 2.99 9.44 2.71 8.91 Z" />
<path fill="#000080" opacity="1.00" d=" M 6.29 15.27 C 8.42 15.65 10.56 15.96 12.67 16.41 L 13.27 16.89 C 10.72 16.90 8.18 16.85 5.63 16.78 L 5.96 16.00 L 6.29 15.27 Z" />
</g>
<g id="#c0c060ff">
<path fill="#c0c060" opacity="1.00" d=" M 3.84 11.04 C 7.62 10.96 11.41 11.06 15.19 11.16 C 14.86 11.65 14.21 12.64 13.88 13.13 L 13.31 13.27 C 10.81 14.08 8.17 14.07 5.67 13.30 L 4.99 13.14 C 4.71 12.62 4.13 11.57 3.84 11.04 Z" />
</g>
<g id="#ff8040ff">
<path fill="#ff8040" opacity="1.00" d=" M 6.49 18.13 C 7.67 17.21 8.34 17.45 8.51 18.85 C 7.33 19.76 6.66 19.52 6.49 18.13 Z" />
</g>
</svg>
