<?xml version="1.0" encoding="UTF-8" ?>
<!DOCTYPE svg PUBLIC "-//W3C//DTD SVG 1.1//EN" "http://www.w3.org/Graphics/SVG/1.1/DTD/svg11.dtd">
<svg width="20pt" height="20pt" viewBox="0 0 20 20" version="1.1" xmlns="http://www.w3.org/2000/svg">
<g id="#0119fdff">
<path fill="#0119fd" opacity="1.00" d=" M 9.23 0.00 L 13.81 0.00 C 15.67 1.26 17.34 2.82 18.42 4.82 C 17.80 6.25 17.75 7.71 18.27 9.19 C 16.52 9.42 14.81 9.85 13.14 10.39 L 12.53 10.15 C 12.68 5.79 9.69 4.02 5.70 5.19 C 4.15 2.58 7.71 1.42 9.23 0.00 Z" />
</g>
<g id="#f1f179fc">
<path fill="#f1f179" opacity="1.00" d=" M 5.70 5.19 C 9.69 4.02 12.68 5.79 12.53 10.15 C 11.61 11.47 10.65 12.94 8.95 13.30 C 8.52 13.26 7.66 13.18 7.22 13.14 C 4.17 10.89 1.27 8.25 5.90 5.89 C 7.87 10.64 10.86 5.23 5.70 5.19 Z" />
</g>
<g id="#1b346dff">
<path fill="#1b346d" opacity="1.00" d=" M 18.42 4.82 C 19.69 6.03 19.54 8.04 18.27 9.19 C 17.75 7.71 17.80 6.25 18.42 4.82 Z" />
</g>
<g id="#000000ff">
<path fill="#000000" opacity="1.00" d=" M 5.90 5.89 C 7.87 10.64 10.86 5.23 5.70 5.19 Z" />
</g>
<g id="#000080ff">
<path fill="#000080" opacity="1.00" d=" M 13.14 10.39 C 14.81 9.85 16.52 9.42 18.27 9.19 C 17.97 9.70 17.38 10.72 17.08 11.24 C 15.70 11.42 14.35 11.00 13.14 10.39 Z" />
</g>
<g id="#bcbc60fd">
<path fill="#bcbc60" opacity="1.00" d=" M 12.53 10.15 L 13.14 10.39 C 14.35 11.00 15.70 11.42 17.08 11.24 C 16.44 11.97 15.79 12.69 15.13 13.40 C 13.07 13.43 11.01 13.39 8.95 13.30 C 10.65 12.94 11.61 11.47 12.53 10.15 Z" />
</g>
<g id="#031dc4ff">
<path fill="#031dc4" opacity="1.00" d=" M 7.22 13.14 C 7.66 13.18 8.52 13.26 8.95 13.30 C 11.01 13.39 13.07 13.43 15.13 13.40 C 15.11 14.49 15.10 15.58 15.10 16.67 C 12.34 16.72 9.57 16.74 6.81 16.72 C 6.95 15.52 7.09 14.33 7.22 13.14 Z" />
</g>
<g id="#7f4000fe">
<path fill="#7f4000" opacity="1.00" d=" M 3.37 20.00 C 4.30 18.70 5.40 17.51 6.81 16.72 C 9.57 16.74 12.34 16.72 15.10 16.67 C 16.50 17.29 16.97 18.72 17.55 20.00 L 16.56 20.00 C 15.71 16.86 12.12 17.88 10.75 20.00 L 10.19 20.00 C 9.90 16.50 5.84 18.29 4.39 20.00 L 3.37 20.00 Z" />
</g>
<g id="#f97d3dff">
<path fill="#f97d3d" opacity="1.00" d=" M 4.39 20.00 C 5.84 18.29 9.90 16.50 10.19 20.00 L 4.39 20.00 Z" />
</g>
<g id="#fa7d3dff">
<path fill="#fa7d3d" opacity="1.00" d=" M 10.75 20.00 C 12.12 17.88 15.71 16.86 16.56 20.00 L 10.75 20.00 Z" />
</g>
</svg>
