<?xml version="1.0" encoding="UTF-8" ?>
<!DOCTYPE svg PUBLIC "-//W3C//DTD SVG 1.1//EN" "http://www.w3.org/Graphics/SVG/1.1/DTD/svg11.dtd">
<svg width="20pt" height="20pt" viewBox="0 0 20 20" version="1.1" xmlns="http://www.w3.org/2000/svg">
<g id="#50544eff">
<path fill="#50544e" opacity="1.00" d=" M 0.00 0.00 L 9.24 0.00 C 7.66 1.42 4.17 2.56 5.72 5.19 L 5.89 5.87 C 1.38 8.19 4.13 10.97 7.05 13.31 C 6.98 14.44 6.91 15.57 6.82 16.70 C 5.45 17.55 4.34 18.73 3.36 20.00 L 0.00 20.00 L 0.00 0.00 Z" />
</g>
<g id="#0119fdff">
<path fill="#0119fd" opacity="1.00" d=" M 9.24 0.00 L 13.79 0.00 C 17.09 1.92 19.56 4.76 18.03 9.11 C 16.39 9.47 14.79 9.92 13.19 10.41 L 12.56 10.19 C 12.64 5.85 9.76 3.99 5.72 5.19 C 4.17 2.56 7.66 1.42 9.24 0.00 Z" />
</g>
<g id="#45484dff">
<path fill="#45484d" opacity="1.00" d=" M 13.79 0.00 L 20.00 0.00 L 20.00 20.00 L 17.60 20.00 C 16.95 18.76 16.34 17.46 15.16 16.64 C 15.12 15.55 15.10 14.46 15.10 13.37 C 15.80 12.69 16.49 11.99 17.16 11.29 C 17.38 10.74 17.81 9.65 18.03 9.11 C 19.56 4.76 17.09 1.92 13.79 0.00 Z" />
</g>
<g id="#f2f27aff">
<path fill="#f2f27a" opacity="1.00" d=" M 5.72 5.19 C 9.76 3.99 12.64 5.85 12.56 10.19 C 11.59 11.51 10.55 12.90 8.89 13.37 C 8.43 13.35 7.51 13.32 7.05 13.31 C 4.13 10.97 1.38 8.19 5.89 5.87 C 7.82 10.63 10.87 5.28 5.72 5.19 Z" />
</g>
<g id="#000000ff">
<path fill="#000000" opacity="1.00" d=" M 5.89 5.87 C 7.82 10.63 10.87 5.28 5.72 5.19 Z" />
</g>
<g id="#000080ff">
<path fill="#000080" opacity="1.00" d=" M 13.19 10.41 C 14.79 9.92 16.39 9.47 18.03 9.11 C 17.81 9.65 17.38 10.74 17.16 11.29 C 15.78 11.36 14.44 10.94 13.19 10.41 Z" />
</g>
<g id="#bebe60ff">
<path fill="#bebe60" opacity="1.00" d=" M 12.56 10.19 L 13.19 10.41 C 14.44 10.94 15.78 11.36 17.16 11.29 C 16.49 11.99 15.80 12.69 15.10 13.37 C 13.03 13.41 10.96 13.41 8.89 13.37 C 10.55 12.90 11.59 11.51 12.56 10.19 Z" />
</g>
<g id="#031dc4ff">
<path fill="#031dc4" opacity="1.00" d=" M 7.05 13.31 C 7.51 13.32 8.43 13.35 8.89 13.37 C 10.96 13.41 13.03 13.41 15.10 13.37 C 15.10 14.46 15.12 15.55 15.16 16.64 C 12.38 16.70 9.60 16.72 6.82 16.70 C 6.91 15.57 6.98 14.44 7.05 13.31 Z" />
</g>
<g id="#804000ff">
<path fill="#804000" opacity="1.00" d=" M 3.36 20.00 C 4.34 18.73 5.45 17.55 6.82 16.70 C 9.60 16.72 12.38 16.70 15.16 16.64 C 16.34 17.46 16.95 18.76 17.60 20.00 L 16.62 20.00 C 15.55 16.98 12.19 17.82 10.77 20.00 L 10.22 20.00 C 9.78 16.55 5.86 18.30 4.38 20.00 L 3.36 20.00 Z" />
</g>
<g id="#f97d3dff">
<path fill="#f97d3d" opacity="1.00" d=" M 4.38 20.00 C 5.86 18.30 9.78 16.55 10.22 20.00 L 4.38 20.00 Z" />
</g>
<g id="#fa7d3dff">
<path fill="#fa7d3d" opacity="1.00" d=" M 10.77 20.00 C 12.19 17.82 15.55 16.98 16.62 20.00 L 10.77 20.00 Z" />
</g>
</svg>
