<?xml version="1.0" encoding="UTF-8" ?>
<!DOCTYPE svg PUBLIC "-//W3C//DTD SVG 1.1//EN" "http://www.w3.org/Graphics/SVG/1.1/DTD/svg11.dtd">
<svg width="20pt" height="20pt" viewBox="0 0 20 20" version="1.1" xmlns="http://www.w3.org/2000/svg">
<g id="#4f954eff">
<path fill="#4f954e" opacity="1.00" d=" M 0.00 0.00 L 7.23 0.00 C 3.02 2.02 -0.13 7.61 4.04 11.36 C 4.28 11.73 4.77 12.46 5.01 12.82 C 3.84 14.40 4.36 15.78 5.86 16.84 C 5.45 17.89 5.05 18.94 4.66 20.00 L 0.00 20.00 L 0.00 0.00 Z" />
<path fill="#4f954e" opacity="1.00" d=" M 11.77 0.00 L 20.00 0.00 L 20.00 20.00 L 9.56 20.00 C 11.20 19.20 13.60 19.26 14.35 17.30 C 15.59 15.95 14.37 14.31 13.99 12.89 C 14.24 12.51 14.73 11.76 14.97 11.38 C 19.10 7.60 16.00 2.03 11.77 0.00 Z" />
</g>
<g id="#0012f5ff">
<path fill="#0012f5" opacity="1.00" d=" M 7.23 0.00 L 11.77 0.00 C 16.00 2.03 19.10 7.60 14.97 11.38 C 17.23 2.34 1.57 2.29 4.04 11.36 C -0.13 7.61 3.02 2.02 7.23 0.00 Z" />
</g>
<g id="#d7d76cff">
<path fill="#d7d76c" opacity="1.00" d=" M 4.04 11.36 C 1.57 2.29 17.23 2.34 14.97 11.38 C 14.73 11.76 14.24 12.51 13.99 12.89 L 13.39 13.42 C 11.30 13.43 9.22 13.71 7.19 14.19 C 6.64 13.85 5.55 13.17 5.01 12.82 C 4.77 12.46 4.28 11.73 4.04 11.36 Z" />
</g>
<g id="#0037faff">
<path fill="#0037fa" opacity="1.00" d=" M 5.01 12.82 C 5.55 13.17 6.64 13.85 7.19 14.19 C 9.25 15.96 12.73 16.30 13.39 13.42 L 13.99 12.89 C 14.37 14.31 15.59 15.95 14.35 17.30 C 11.52 17.15 8.69 17.00 5.86 16.84 C 4.36 15.78 3.84 14.40 5.01 12.82 Z" />
</g>
<g id="#000080ff">
<path fill="#000080" opacity="1.00" d=" M 7.19 14.19 C 9.22 13.71 11.30 13.43 13.39 13.42 C 12.73 16.30 9.25 15.96 7.19 14.19 Z" />
</g>
<g id="#8d4e0dff">
<path fill="#8d4e0d" opacity="1.00" d=" M 4.66 20.00 C 5.05 18.94 5.45 17.89 5.86 16.84 C 8.69 17.00 11.52 17.15 14.35 17.30 C 13.60 19.26 11.20 19.20 9.56 20.00 L 4.66 20.00 Z" />
</g>
</svg>
