<?xml version="1.0" encoding="UTF-8" ?>
<!DOCTYPE svg PUBLIC "-//W3C//DTD SVG 1.1//EN" "http://www.w3.org/Graphics/SVG/1.1/DTD/svg11.dtd">
<svg width="20pt" height="20pt" viewBox="0 0 20 20" version="1.1" xmlns="http://www.w3.org/2000/svg">
<g id="#666a65ff">
<path fill="#666a65" opacity="1.00" d=" M 0.00 0.00 L 7.97 0.00 C 6.76 0.62 5.57 1.28 4.40 1.99 C 3.50 3.17 2.69 4.40 1.82 5.60 C 1.36 5.34 0.45 4.83 0.00 4.58 L 0.00 0.00 Z" />
</g>
<g id="#005effff">
<path fill="#005eff" opacity="1.00" d=" M 7.97 0.00 L 11.83 0.00 C 12.46 1.16 13.66 2.03 15.03 1.80 C 15.34 2.50 15.95 3.88 16.25 4.58 C 14.60 3.21 12.94 1.65 10.79 1.14 C 8.63 0.95 6.51 1.63 4.40 1.99 C 5.57 1.28 6.76 0.62 7.97 0.00 Z" />
</g>
<g id="#626561ff">
<path fill="#626561" opacity="1.00" d=" M 11.83 0.00 L 14.50 0.00 C 14.63 0.45 14.90 1.35 15.03 1.80 C 13.66 2.03 12.46 1.16 11.83 0.00 Z" />
</g>
<g id="#3f433eff">
<path fill="#3f433e" opacity="1.00" d=" M 14.50 0.00 L 20.00 0.00 L 20.00 4.36 C 19.32 4.66 17.95 5.24 17.27 5.53 C 17.01 5.29 16.50 4.81 16.25 4.58 C 15.95 3.88 15.34 2.50 15.03 1.80 C 14.90 1.35 14.63 0.45 14.50 0.00 Z" />
</g>
<g id="#0000ffff">
<path fill="#0000ff" opacity="1.00" d=" M 4.40 1.99 C 6.51 1.63 8.63 0.95 10.79 1.14 C 12.94 1.65 14.60 3.21 16.25 4.58 C 16.50 4.81 17.01 5.29 17.27 5.53 C 17.00 7.03 16.72 8.53 16.01 9.90 L 15.24 9.96 C 14.86 8.56 14.46 7.17 14.06 5.78 L 13.83 4.97 C 10.92 5.01 8.01 5.01 5.09 4.92 C 4.75 6.35 4.37 7.77 4.08 9.20 C 3.58 8.90 2.56 8.29 2.06 7.98 C 2.00 7.38 1.88 6.20 1.82 5.60 C 2.69 4.40 3.50 3.17 4.40 1.99 Z" />
<path fill="#0000ff" opacity="1.00" d=" M 6.29 13.47 L 7.40 14.13 C 8.90 15.34 11.06 15.50 12.75 14.59 C 13.00 15.18 13.50 16.35 13.74 16.94 C 11.04 16.94 8.33 16.98 5.63 16.94 L 6.01 15.46 C 6.08 14.96 6.22 13.97 6.29 13.47 Z" />
</g>
<g id="#444943ff">
<path fill="#444943" opacity="1.00" d=" M 0.00 4.58 C 0.45 4.83 1.36 5.34 1.82 5.60 C 1.88 6.20 2.00 7.38 2.06 7.98 C 2.06 8.31 2.06 8.97 2.06 9.30 C 1.55 9.55 0.52 10.04 0.00 10.29 L 0.00 4.58 Z" />
</g>
<g id="#b1b16cff">
<path fill="#b1b16c" opacity="1.00" d=" M 5.09 4.92 C 8.01 5.01 10.92 5.01 13.83 4.97 L 14.06 5.78 C 11.43 5.80 8.79 5.83 6.16 5.88 C 5.47 6.98 4.77 8.09 4.08 9.20 C 4.37 7.77 4.75 6.35 5.09 4.92 Z" />
</g>
<g id="#60645fff">
<path fill="#60645f" opacity="1.00" d=" M 17.27 5.53 C 17.95 5.24 19.32 4.66 20.00 4.36 L 20.00 9.58 C 18.67 9.68 17.34 9.79 16.01 9.90 C 16.72 8.53 17.00 7.03 17.27 5.53 Z" />
<path fill="#60645f" opacity="1.00" d=" M 0.00 10.29 C 0.52 10.04 1.55 9.55 2.06 9.30 C 2.55 10.36 3.34 11.14 4.43 11.62 C 5.53 12.31 6.53 13.15 7.40 14.13 L 6.29 13.47 C 5.00 12.25 3.77 14.32 3.77 15.49 C 2.52 15.11 1.26 14.73 -0.00 14.35 L 0.00 10.29 Z" />
</g>
<g id="#ffff80ff">
<path fill="#ffff80" opacity="1.00" d=" M 6.16 5.88 C 8.79 5.83 11.43 5.80 14.06 5.78 C 14.46 7.17 14.86 8.56 15.24 9.96 L 13.70 10.08 C 14.02 10.58 14.65 11.57 14.97 12.07 C 14.59 12.26 13.84 12.64 13.46 12.83 L 13.00 13.04 C 11.15 13.48 9.26 13.72 7.40 14.13 C 6.53 13.15 5.53 12.31 4.43 11.62 C 4.34 11.01 4.17 9.81 4.08 9.20 C 4.77 8.09 5.47 6.98 6.16 5.88 M 7.28 7.11 C 5.88 7.89 5.79 8.57 7.02 9.16 C 8.41 8.44 8.50 7.76 7.28 7.11 M 11.05 7.30 C 10.72 8.73 11.27 9.28 12.70 8.95 C 12.95 7.60 12.40 7.05 11.05 7.30 M 8.53 10.77 C 9.77 11.51 10.52 11.20 10.79 9.85 C 9.55 9.12 8.80 9.43 8.53 10.77 Z" />
</g>
<g id="#000000ff">
<path fill="#000000" opacity="1.00" d=" M 7.28 7.11 C 8.50 7.76 8.41 8.44 7.02 9.16 C 5.79 8.57 5.88 7.89 7.28 7.11 Z" />
<path fill="#000000" opacity="1.00" d=" M 11.05 7.30 C 12.40 7.05 12.95 7.60 12.70 8.95 C 11.27 9.28 10.72 8.73 11.05 7.30 Z" />
</g>
<g id="#0d0d73ff">
<path fill="#0d0d73" opacity="1.00" d=" M 2.06 7.98 C 2.56 8.29 3.58 8.90 4.08 9.20 C 4.17 9.81 4.34 11.01 4.43 11.62 C 3.34 11.14 2.55 10.36 2.06 9.30 C 2.06 8.97 2.06 8.31 2.06 7.98 Z" />
</g>
<g id="#c0c060ff">
<path fill="#c0c060" opacity="1.00" d=" M 8.53 10.77 C 8.80 9.43 9.55 9.12 10.79 9.85 C 10.52 11.20 9.77 11.51 8.53 10.77 Z" />
</g>
<g id="#3d413cff">
<path fill="#3d413c" opacity="1.00" d=" M 13.70 10.08 L 15.24 9.96 L 16.01 9.90 C 17.34 9.79 18.67 9.68 20.00 9.58 L 20.00 14.85 C 18.36 14.89 16.71 14.94 15.07 15.00 C 14.67 14.46 13.86 13.37 13.46 12.83 C 13.84 12.64 14.59 12.26 14.97 12.07 C 14.65 11.57 14.02 10.58 13.70 10.08 Z" />
</g>
<g id="#0080ffff">
<path fill="#0080ff" opacity="1.00" d=" M 3.77 15.49 C 3.77 14.32 5.00 12.25 6.29 13.47 C 6.22 13.97 6.08 14.96 6.01 15.46 C 5.45 15.47 4.33 15.48 3.77 15.49 Z" />
<path fill="#0080ff" opacity="1.00" d=" M 13.00 13.04 L 13.46 12.83 C 13.86 13.37 14.67 14.46 15.07 15.00 C 15.07 15.54 15.07 16.62 15.07 17.16 L 14.60 17.24 L 13.74 16.94 C 13.50 16.35 13.00 15.18 12.75 14.59 C 12.81 14.20 12.94 13.43 13.00 13.04 Z" />
</g>
<g id="#000080ff">
<path fill="#000080" opacity="1.00" d=" M 7.40 14.13 C 9.26 13.72 11.15 13.48 13.00 13.04 C 12.94 13.43 12.81 14.20 12.75 14.59 C 11.06 15.50 8.90 15.34 7.40 14.13 Z" />
</g>
<g id="#3e423dff">
<path fill="#3e423d" opacity="1.00" d=" M -0.00 14.35 C 1.26 14.73 2.52 15.11 3.77 15.49 C 4.33 15.48 5.45 15.47 6.01 15.46 L 5.63 16.94 C 5.33 17.97 5.01 18.99 4.65 20.00 L 0.00 20.00 L 0.00 14.35 Z" />
</g>
<g id="#5e625dff">
<path fill="#5e625d" opacity="1.00" d=" M 15.07 15.00 C 16.71 14.94 18.36 14.89 20.00 14.85 L 20.00 20.00 L 14.54 20.00 C 14.67 19.29 14.94 17.87 15.07 17.16 C 15.07 16.62 15.07 15.54 15.07 15.00 Z" />
</g>
<g id="#804000ff">
<path fill="#804000" opacity="1.00" d=" M 4.65 20.00 C 5.01 18.99 5.33 17.97 5.63 16.94 C 8.33 16.98 11.04 16.94 13.74 16.94 L 14.60 17.24 C 13.10 18.16 11.63 19.12 10.11 20.00 L 4.65 20.00 M 6.30 18.18 C 6.60 19.43 7.39 19.64 8.69 18.81 C 8.39 17.56 7.60 17.35 6.30 18.18 Z" />
</g>
<g id="#3c3f3bff">
<path fill="#3c3f3b" opacity="1.00" d=" M 14.60 17.24 L 15.07 17.16 C 14.94 17.87 14.67 19.29 14.54 20.00 L 10.11 20.00 C 11.63 19.12 13.10 18.16 14.60 17.24 Z" />
</g>
<g id="#ff8040ff">
<path fill="#ff8040" opacity="1.00" d=" M 6.30 18.18 C 7.60 17.35 8.39 17.56 8.69 18.81 C 7.39 19.64 6.60 19.43 6.30 18.18 Z" />
</g>
</svg>
