<?xml version="1.0" encoding="UTF-8" ?>
<!DOCTYPE svg PUBLIC "-//W3C//DTD SVG 1.1//EN" "http://www.w3.org/Graphics/SVG/1.1/DTD/svg11.dtd">
<svg width="20pt" height="20pt" viewBox="0 0 20 20" version="1.1" xmlns="http://www.w3.org/2000/svg">
<g id="#666a65ff">
<path fill="#666a65" opacity="1.00" d=" M 0.00 0.00 L 7.96 0.00 C 6.76 0.64 5.59 1.33 4.44 2.07 C 3.44 3.14 2.68 4.41 1.80 5.58 C 1.35 5.32 0.45 4.79 0.00 4.52 L 0.00 0.00 Z" />
</g>
<g id="#005effff">
<path fill="#005eff" opacity="1.00" d=" M 7.96 0.00 L 11.84 0.00 C 12.49 1.15 13.65 2.05 15.04 1.80 C 15.34 2.49 15.95 3.87 16.25 4.56 C 14.58 3.22 12.92 1.66 10.78 1.12 C 8.62 0.90 6.51 1.56 4.44 2.07 C 5.59 1.33 6.76 0.64 7.96 0.00 Z" />
</g>
<g id="#626561ff">
<path fill="#626561" opacity="1.00" d=" M 11.84 0.00 L 14.50 0.00 C 14.63 0.45 14.90 1.35 15.04 1.80 C 13.65 2.05 12.49 1.15 11.84 0.00 Z" />
</g>
<g id="#3f433eff">
<path fill="#3f433e" opacity="1.00" d=" M 14.50 0.00 L 20.00 0.00 L 20.00 4.42 C 19.32 4.70 17.95 5.25 17.27 5.52 C 17.01 5.28 16.51 4.80 16.25 4.56 C 15.95 3.87 15.34 2.49 15.04 1.80 C 14.90 1.35 14.63 0.45 14.50 0.00 Z" />
<path fill="#3f433e" opacity="1.00" d=" M 0.00 14.70 C 1.24 14.73 2.48 14.77 3.72 14.80 C 3.93 15.37 4.35 16.53 4.56 17.10 C 4.80 17.46 5.27 18.19 5.50 18.55 C 6.97 19.12 8.47 19.59 9.99 20.00 L 0.00 20.00 L 0.00 14.70 Z" />
</g>
<g id="#0000ffff">
<path fill="#0000ff" opacity="1.00" d=" M 4.44 2.07 C 6.51 1.56 8.62 0.90 10.78 1.12 C 12.92 1.66 14.58 3.22 16.25 4.56 C 16.51 4.80 17.01 5.28 17.27 5.52 C 17.00 7.02 16.70 8.52 16.03 9.89 L 15.24 9.96 C 14.87 8.56 14.47 7.17 14.06 5.78 L 13.84 4.99 C 10.91 5.00 7.99 5.00 5.07 4.96 C 4.73 6.36 4.41 7.77 4.10 9.17 C 3.58 8.88 2.55 8.31 2.03 8.02 C 1.97 7.41 1.85 6.19 1.80 5.58 C 2.68 4.41 3.44 3.14 4.44 2.07 Z" />
<path fill="#0000ff" opacity="1.00" d=" M 6.27 13.39 L 7.39 14.09 C 8.87 15.39 10.92 15.30 12.69 14.75 L 13.08 15.57 L 13.60 16.78 C 10.84 16.94 8.07 16.97 5.30 17.03 C 5.54 16.12 6.03 14.30 6.27 13.39 Z" />
</g>
<g id="#444943ff">
<path fill="#444943" opacity="1.00" d=" M 0.00 4.52 C 0.45 4.79 1.35 5.32 1.80 5.58 C 1.85 6.19 1.97 7.41 2.03 8.02 C 2.03 8.39 2.02 9.12 2.02 9.49 C 1.51 9.65 0.50 9.96 0.00 10.11 L 0.00 4.52 Z" />
</g>
<g id="#b1b16cff">
<path fill="#b1b16c" opacity="1.00" d=" M 5.07 4.96 C 7.99 5.00 10.91 5.00 13.84 4.99 L 14.06 5.78 C 11.44 5.80 8.82 5.83 6.19 5.86 C 5.50 6.97 4.79 8.06 4.10 9.17 C 4.41 7.77 4.73 6.36 5.07 4.96 Z" />
</g>
<g id="#60645fff">
<path fill="#60645f" opacity="1.00" d=" M 17.27 5.52 C 17.95 5.25 19.32 4.70 20.00 4.42 L 20.00 9.58 C 18.68 9.68 17.35 9.79 16.03 9.89 C 16.70 8.52 17.00 7.02 17.27 5.52 Z" />
<path fill="#60645f" opacity="1.00" d=" M 0.00 10.11 C 0.50 9.96 1.51 9.65 2.02 9.49 C 2.69 10.35 3.50 11.06 4.44 11.61 C 5.49 12.36 6.46 13.20 7.39 14.09 L 6.27 13.39 C 5.21 12.36 4.19 14.00 3.72 14.80 C 2.48 14.77 1.24 14.73 0.00 14.70 L 0.00 10.11 Z" />
</g>
<g id="#ffff80ff">
<path fill="#ffff80" opacity="1.00" d=" M 6.19 5.86 C 8.82 5.83 11.44 5.80 14.06 5.78 C 14.47 7.17 14.87 8.56 15.24 9.96 L 13.71 10.09 C 14.03 10.59 14.66 11.59 14.97 12.09 C 14.62 12.28 13.90 12.65 13.54 12.84 L 12.95 13.11 C 11.10 13.44 9.23 13.68 7.39 14.09 C 6.46 13.20 5.49 12.36 4.44 11.61 C 4.35 11.00 4.19 9.78 4.10 9.17 C 4.79 8.06 5.50 6.97 6.19 5.86 M 7.28 7.11 C 5.88 7.89 5.79 8.58 7.02 9.16 C 8.42 8.44 8.51 7.76 7.28 7.11 M 11.05 7.31 C 10.72 8.73 11.27 9.27 12.69 8.95 C 12.95 7.60 12.40 7.05 11.05 7.31 M 8.53 10.76 C 9.76 11.51 10.52 11.21 10.79 9.86 C 9.56 9.12 8.81 9.42 8.53 10.76 Z" />
</g>
<g id="#000000ff">
<path fill="#000000" opacity="1.00" d=" M 7.28 7.11 C 8.51 7.76 8.42 8.44 7.02 9.16 C 5.79 8.58 5.88 7.89 7.28 7.11 Z" />
<path fill="#000000" opacity="1.00" d=" M 11.05 7.31 C 12.40 7.05 12.95 7.60 12.69 8.95 C 11.27 9.27 10.72 8.73 11.05 7.31 Z" />
</g>
<g id="#0d0d73ff">
<path fill="#0d0d73" opacity="1.00" d=" M 2.03 8.02 C 2.55 8.31 3.58 8.88 4.10 9.17 C 4.19 9.78 4.35 11.00 4.44 11.61 C 3.50 11.06 2.69 10.35 2.02 9.49 C 2.02 9.12 2.03 8.39 2.03 8.02 Z" />
</g>
<g id="#c0c060ff">
<path fill="#c0c060" opacity="1.00" d=" M 8.53 10.76 C 8.81 9.42 9.56 9.12 10.79 9.86 C 10.52 11.21 9.76 11.51 8.53 10.76 Z" />
</g>
<g id="#3d413cff">
<path fill="#3d413c" opacity="1.00" d=" M 13.71 10.09 L 15.24 9.96 L 16.03 9.89 C 17.35 9.79 18.68 9.68 20.00 9.58 L 20.00 14.57 C 18.43 14.80 16.85 15.01 15.29 15.32 C 14.85 14.70 13.98 13.46 13.54 12.84 C 13.90 12.65 14.62 12.28 14.97 12.09 C 14.66 11.59 14.03 10.59 13.71 10.09 Z" />
</g>
<g id="#0080ffff">
<path fill="#0080ff" opacity="1.00" d=" M 3.72 14.80 C 4.19 14.00 5.21 12.36 6.27 13.39 C 6.03 14.30 5.54 16.12 5.30 17.03 L 4.56 17.10 C 4.35 16.53 3.93 15.37 3.72 14.80 Z" />
<path fill="#0080ff" opacity="1.00" d=" M 12.95 13.11 L 13.54 12.84 C 13.98 13.46 14.85 14.70 15.29 15.32 C 14.74 15.38 13.63 15.51 13.08 15.57 L 12.69 14.75 C 12.75 14.34 12.88 13.52 12.95 13.11 Z" />
</g>
<g id="#000080ff">
<path fill="#000080" opacity="1.00" d=" M 7.39 14.09 C 9.23 13.68 11.10 13.44 12.95 13.11 C 12.88 13.52 12.75 14.34 12.69 14.75 C 10.92 15.30 8.87 15.39 7.39 14.09 Z" />
</g>
<g id="#5e625dff">
<path fill="#5e625d" opacity="1.00" d=" M 15.29 15.32 C 16.85 15.01 18.43 14.80 20.00 14.57 L 20.00 20.00 L 14.98 20.00 C 14.51 18.93 14.05 17.86 13.60 16.78 L 13.08 15.57 C 13.63 15.51 14.74 15.38 15.29 15.32 Z" />
</g>
<g id="#804000ff">
<path fill="#804000" opacity="1.00" d=" M 4.56 17.10 L 5.30 17.03 C 8.07 16.97 10.84 16.94 13.60 16.78 C 14.05 17.86 14.51 18.93 14.98 20.00 L 9.99 20.00 C 8.47 19.59 6.97 19.12 5.50 18.55 C 5.27 18.19 4.80 17.46 4.56 17.10 M 10.30 18.21 C 10.64 19.45 11.44 19.64 12.70 18.79 C 12.36 17.54 11.56 17.34 10.30 18.21 Z" />
</g>
<g id="#ff8040ff">
<path fill="#ff8040" opacity="1.00" d=" M 10.30 18.21 C 11.56 17.34 12.36 17.54 12.70 18.79 C 11.44 19.64 10.64 19.45 10.30 18.21 Z" />
</g>
</svg>
