<?xml version="1.0" encoding="UTF-8" ?>
<!DOCTYPE svg PUBLIC "-//W3C//DTD SVG 1.1//EN" "http://www.w3.org/Graphics/SVG/1.1/DTD/svg11.dtd">
<svg width="20pt" height="20pt" viewBox="0 0 20 20" version="1.1" xmlns="http://www.w3.org/2000/svg">
<g id="#4d5155ff">
<path fill="#4d5155" opacity="1.00" d=" M 0.00 0.00 L 6.22 0.00 C 2.91 1.91 0.43 4.75 1.97 9.11 C 2.19 9.65 2.62 10.74 2.84 11.29 C 3.51 11.99 4.19 12.68 4.88 13.37 C 4.90 14.48 4.91 15.60 4.90 16.71 C 3.51 17.31 3.03 18.73 2.44 20.00 L 0.00 20.00 L 0.00 0.00 Z" />
</g>
<g id="#0119fdff">
<path fill="#0119fd" opacity="1.00" d=" M 6.22 0.00 L 10.79 0.00 C 12.63 1.21 14.46 2.65 15.07 4.88 C 10.17 3.08 7.56 5.95 7.45 10.19 L 6.82 10.41 C 5.22 9.92 3.61 9.47 1.97 9.11 C 0.43 4.75 2.91 1.91 6.22 0.00 Z" />
</g>
<g id="#4e524dff">
<path fill="#4e524d" opacity="1.00" d=" M 10.79 0.00 L 20.00 0.00 L 20.00 20.00 L 16.64 20.00 C 15.67 18.71 14.55 17.53 13.19 16.66 C 13.10 15.55 13.03 14.43 12.97 13.32 C 16.00 11.08 17.82 8.21 15.07 4.88 C 14.46 2.65 12.63 1.21 10.79 0.00 Z" />
</g>
<g id="#f2f27aff">
<path fill="#f2f27a" opacity="1.00" d=" M 7.45 10.19 C 7.56 5.95 10.17 3.08 15.07 4.88 C 17.82 8.21 16.00 11.08 12.97 13.32 C 12.51 13.33 11.58 13.36 11.11 13.38 C 9.43 12.93 8.42 11.52 7.45 10.19 M 11.23 6.25 C 10.85 11.15 16.62 4.06 11.23 6.25 Z" />
</g>
<g id="#000000ff">
<path fill="#000000" opacity="1.00" d=" M 11.23 6.25 C 16.62 4.06 10.85 11.15 11.23 6.25 Z" />
</g>
<g id="#000080ff">
<path fill="#000080" opacity="1.00" d=" M 1.97 9.11 C 3.61 9.47 5.22 9.92 6.82 10.41 C 5.56 10.94 4.22 11.36 2.84 11.29 C 2.62 10.74 2.19 9.65 1.97 9.11 Z" />
</g>
<g id="#bebe60ff">
<path fill="#bebe60" opacity="1.00" d=" M 6.82 10.41 L 7.45 10.19 C 8.42 11.52 9.43 12.93 11.11 13.38 C 9.04 13.42 6.96 13.41 4.88 13.37 C 4.19 12.68 3.51 11.99 2.84 11.29 C 4.22 11.36 5.56 10.94 6.82 10.41 Z" />
</g>
<g id="#031dc4ff">
<path fill="#031dc4" opacity="1.00" d=" M 4.88 13.37 C 6.96 13.41 9.04 13.42 11.11 13.38 C 11.58 13.36 12.51 13.33 12.97 13.32 C 13.03 14.43 13.10 15.55 13.19 16.66 C 10.42 16.72 7.66 16.74 4.90 16.71 C 4.91 15.60 4.90 14.48 4.88 13.37 Z" />
</g>
<g id="#804000ff">
<path fill="#804000" opacity="1.00" d=" M 2.44 20.00 C 3.03 18.73 3.51 17.31 4.90 16.71 C 7.66 16.74 10.42 16.72 13.19 16.66 C 14.55 17.53 15.67 18.71 16.64 20.00 L 15.62 20.00 C 14.16 18.31 10.12 16.50 9.81 20.00 L 9.25 20.00 C 7.86 17.89 4.32 16.88 3.42 20.00 L 2.44 20.00 Z" />
</g>
<g id="#fa7d3dff">
<path fill="#fa7d3d" opacity="1.00" d=" M 3.42 20.00 C 4.32 16.88 7.86 17.89 9.25 20.00 L 3.42 20.00 Z" />
</g>
<g id="#f97d3dff">
<path fill="#f97d3d" opacity="1.00" d=" M 9.81 20.00 C 10.12 16.50 14.16 18.31 15.62 20.00 L 9.81 20.00 Z" />
</g>
</svg>
