<?xml version="1.0" encoding="UTF-8" ?>
<!DOCTYPE svg PUBLIC "-//W3C//DTD SVG 1.1//EN" "http://www.w3.org/Graphics/SVG/1.1/DTD/svg11.dtd">
<svg width="20pt" height="20pt" viewBox="0 0 20 20" version="1.1" xmlns="http://www.w3.org/2000/svg">
<g id="#519750ff">
<path fill="#519750" opacity="1.00" d=" M 0.00 0.00 L 7.32 0.00 L 6.92 0.35 C 4.25 2.26 0.57 5.29 2.61 8.95 C 2.91 9.49 3.51 10.56 3.81 11.10 C 4.12 11.62 4.73 12.67 5.04 13.19 C 3.46 14.10 3.33 17.37 5.70 17.00 C 8.23 17.08 10.75 17.13 13.28 17.11 C 13.71 18.08 14.16 19.04 14.62 20.00 L 0.00 20.00 L 0.00 0.00 M 10.49 18.11 C 10.66 19.51 11.33 19.75 12.50 18.84 C 12.34 17.44 11.66 17.20 10.49 18.11 Z" />
</g>
<g id="#0080ffff">
<path fill="#0080ff" opacity="1.00" d=" M 7.32 0.00 L 11.74 0.00 L 12.13 0.36 C 10.71 1.61 8.33 1.61 6.92 0.35 L 7.32 0.00 Z" />
<path fill="#0080ff" opacity="1.00" d=" M 5.04 13.19 L 5.68 13.34 C 5.86 13.82 6.23 14.78 6.41 15.26 C 6.24 15.69 5.88 16.57 5.70 17.00 C 3.33 17.37 3.46 14.10 5.04 13.19 Z" />
<path fill="#0080ff" opacity="1.00" d=" M 13.12 13.38 L 13.73 13.00 C 15.60 13.75 14.92 16.61 12.89 16.29 C 12.95 15.56 13.06 14.11 13.12 13.38 Z" />
</g>
<g id="#4e964dff">
<path fill="#4e964d" opacity="1.00" d=" M 11.74 0.00 L 20.00 0.00 L 20.00 20.00 L 14.62 20.00 C 14.16 19.04 13.71 18.08 13.28 17.11 L 12.89 16.29 C 14.92 16.61 15.60 13.75 13.73 13.00 C 14.09 12.54 14.80 11.61 15.15 11.15 C 15.37 10.86 15.80 10.28 16.02 9.98 C 18.91 6.18 14.98 2.59 12.13 0.36 L 11.74 0.00 Z" />
</g>
<g id="#0000ffff">
<path fill="#0000ff" opacity="1.00" d=" M 2.61 8.95 C 0.57 5.29 4.25 2.26 6.92 0.35 C 8.33 1.61 10.71 1.61 12.13 0.36 C 14.98 2.59 18.91 6.18 16.02 9.98 C 11.53 9.85 7.07 9.37 2.61 8.95 Z" />
<path fill="#0000ff" opacity="1.00" d=" M 5.68 13.34 C 8.12 13.98 10.68 14.06 13.12 13.38 C 13.06 14.11 12.95 15.56 12.89 16.29 C 10.73 15.92 8.57 15.64 6.41 15.26 C 6.23 14.78 5.86 13.82 5.68 13.34 Z" />
</g>
<g id="#000080ff">
<path fill="#000080" opacity="1.00" d=" M 2.61 8.95 C 7.07 9.37 11.53 9.85 16.02 9.98 C 15.80 10.28 15.37 10.86 15.15 11.15 C 11.37 11.08 7.59 10.98 3.81 11.10 C 3.51 10.56 2.91 9.49 2.61 8.95 Z" />
<path fill="#000080" opacity="1.00" d=" M 6.41 15.26 C 8.57 15.64 10.73 15.92 12.89 16.29 L 13.28 17.11 C 10.75 17.13 8.23 17.08 5.70 17.00 C 5.88 16.57 6.24 15.69 6.41 15.26 Z" />
</g>
<g id="#c0c060ff">
<path fill="#c0c060" opacity="1.00" d=" M 3.81 11.10 C 7.59 10.98 11.37 11.08 15.15 11.15 C 14.80 11.61 14.09 12.54 13.73 13.00 L 13.12 13.38 C 10.68 14.06 8.12 13.98 5.68 13.34 L 5.04 13.19 C 4.73 12.67 4.12 11.62 3.81 11.10 Z" />
</g>
<g id="#ff8040ff">
<path fill="#ff8040" opacity="1.00" d=" M 10.49 18.11 C 11.66 17.20 12.34 17.44 12.50 18.84 C 11.33 19.75 10.66 19.51 10.49 18.11 Z" />
</g>
</svg>
