<?xml version="1.0" encoding="UTF-8" ?>
<!DOCTYPE svg PUBLIC "-//W3C//DTD SVG 1.1//EN" "http://www.w3.org/Graphics/SVG/1.1/DTD/svg11.dtd">
<svg width="20pt" height="20pt" viewBox="0 0 20 20" version="1.1" xmlns="http://www.w3.org/2000/svg">
<g id="#4d9050ff">
<path fill="#4d9050" opacity="1.00" d=" M 0.00 0.00 L 6.21 0.00 C 2.67 1.76 0.73 5.30 1.74 9.30 C 2.00 9.81 2.53 10.82 2.80 11.33 C 3.44 12.03 4.08 12.72 4.73 13.42 C 5.13 14.56 5.52 15.71 5.94 16.85 C 3.85 16.77 2.78 18.02 2.46 20.00 L 0.00 20.00 L 0.00 0.00 Z" />
</g>
<g id="#0119fcff">
<path fill="#0119fc" opacity="1.00" d=" M 6.21 0.00 L 10.78 0.00 C 12.29 1.42 15.72 2.51 14.31 5.09 C 10.27 3.99 7.39 5.85 7.44 10.16 L 6.83 10.39 C 5.16 9.90 3.47 9.51 1.74 9.30 C 0.73 5.30 2.67 1.76 6.21 0.00 Z" />
</g>
<g id="#4e954dff">
<path fill="#4e954d" opacity="1.00" d=" M 10.78 0.00 L 20.00 0.00 L 20.00 20.00 L 16.64 20.00 C 15.61 18.77 14.51 17.62 13.26 16.62 C 13.08 15.47 12.91 14.32 12.76 13.17 C 15.80 10.93 18.69 8.27 14.13 5.87 L 14.31 5.09 C 15.72 2.51 12.29 1.42 10.78 0.00 Z" />
</g>
<g id="#f4f47bff">
<path fill="#f4f47b" opacity="1.00" d=" M 7.44 10.16 C 7.39 5.85 10.27 3.99 14.31 5.09 L 14.13 5.87 C 8.69 4.94 12.49 10.87 14.13 5.87 C 18.69 8.27 15.80 10.93 12.76 13.17 C 12.33 13.20 11.47 13.27 11.04 13.30 C 9.42 12.82 8.40 11.45 7.44 10.16 Z" />
</g>
<g id="#000000ff">
<path fill="#000000" opacity="1.00" d=" M 14.13 5.87 C 8.69 4.94 12.49 10.87 14.13 5.87 Z" />
</g>
<g id="#000080ff">
<path fill="#000080" opacity="1.00" d=" M 1.74 9.30 C 3.47 9.51 5.16 9.90 6.83 10.39 C 5.57 10.97 4.21 11.42 2.80 11.33 C 2.53 10.82 2.00 9.81 1.74 9.30 Z" />
</g>
<g id="#bebe60ff">
<path fill="#bebe60" opacity="1.00" d=" M 6.83 10.39 L 7.44 10.16 C 8.40 11.45 9.42 12.82 11.04 13.30 C 8.94 13.40 6.83 13.44 4.73 13.42 C 4.08 12.72 3.44 12.03 2.80 11.33 C 4.21 11.42 5.57 10.97 6.83 10.39 Z" />
</g>
<g id="#031fc7ff">
<path fill="#031fc7" opacity="1.00" d=" M 4.73 13.42 C 6.83 13.44 8.94 13.40 11.04 13.30 C 11.47 13.27 12.33 13.20 12.76 13.17 C 12.91 14.32 13.08 15.47 13.26 16.62 C 11.43 16.68 7.77 16.79 5.94 16.85 C 5.52 15.71 5.13 14.56 4.73 13.42 Z" />
</g>
<g id="#7c4706ff">
<path fill="#7c4706" opacity="1.00" d=" M 2.46 20.00 C 2.78 18.02 3.85 16.77 5.94 16.85 C 7.77 16.79 11.43 16.68 13.26 16.62 C 14.51 17.62 15.61 18.77 16.64 20.00 L 15.63 20.00 C 14.13 18.31 10.30 16.60 9.76 20.00 L 9.22 20.00 C 7.74 17.81 4.56 17.04 3.38 20.00 L 2.46 20.00 Z" />
</g>
<g id="#fa7d3dff">
<path fill="#fa7d3d" opacity="1.00" d=" M 3.38 20.00 C 4.56 17.04 7.74 17.81 9.22 20.00 L 3.38 20.00 Z" />
</g>
<g id="#f97d3dff">
<path fill="#f97d3d" opacity="1.00" d=" M 9.76 20.00 C 10.30 16.60 14.13 18.31 15.63 20.00 L 9.76 20.00 Z" />
</g>
</svg>
