<?xml version="1.0" encoding="UTF-8" ?>
<!DOCTYPE svg PUBLIC "-//W3C//DTD SVG 1.1//EN" "http://www.w3.org/Graphics/SVG/1.1/DTD/svg11.dtd">
<svg width="20pt" height="20pt" viewBox="0 0 20 20" version="1.1" xmlns="http://www.w3.org/2000/svg">
<g id="#0119f8fd">
<path fill="#0119f8" opacity="1.00" d=" M 6.21 0.00 L 10.78 0.00 C 12.24 1.40 15.79 2.54 14.33 5.09 C 10.34 4.02 7.32 5.79 7.47 10.14 L 6.85 10.38 C 5.16 9.89 3.44 9.50 1.68 9.32 C 0.12 5.53 2.98 1.78 6.21 0.00 Z" />
</g>
<g id="#f3f37afc">
<path fill="#f3f37a" opacity="1.00" d=" M 7.47 10.14 C 7.32 5.79 10.34 4.02 14.33 5.09 L 14.10 5.86 C 8.67 4.94 12.53 10.88 14.10 5.86 C 18.98 8.29 15.50 11.47 12.06 13.00 L 11.21 13.07 C 9.31 13.15 8.41 11.48 7.47 10.14 Z" />
</g>
<g id="#000000ff">
<path fill="#000000" opacity="1.00" d=" M 14.10 5.86 C 8.67 4.94 12.53 10.88 14.10 5.86 Z" />
</g>
<g id="#000080ff">
<path fill="#000080" opacity="1.00" d=" M 1.68 9.32 C 3.44 9.50 5.16 9.89 6.85 10.38 C 5.60 10.98 4.24 11.42 2.83 11.32 C 2.54 10.82 1.97 9.82 1.68 9.32 Z" />
</g>
<g id="#b7b75df7">
<path fill="#b7b75d" opacity="0.97" d=" M 6.85 10.38 L 7.47 10.14 C 8.41 11.48 9.31 13.15 11.21 13.07 C 9.10 13.23 7.00 13.35 4.89 13.40 C 4.20 12.71 3.51 12.02 2.83 11.32 C 4.24 11.42 5.60 10.98 6.85 10.38 Z" />
</g>
<g id="#031fc6fe">
<path fill="#031fc6" opacity="1.00" d=" M 4.89 13.40 C 7.00 13.35 9.10 13.23 11.21 13.07 L 12.06 13.00 C 12.53 14.22 12.92 15.46 13.33 16.71 C 10.49 16.61 7.61 16.78 4.84 16.05 C 4.85 15.39 4.88 14.07 4.89 13.40 Z" />
</g>
<g id="#713e08e6">
<path fill="#713e08" opacity="0.90" d=" M 4.84 16.05 C 7.61 16.78 10.49 16.61 13.33 16.71 C 13.73 17.00 14.53 17.59 14.93 17.89 C 13.06 18.17 10.08 17.39 9.74 20.00 L 9.23 20.00 C 7.85 17.85 4.35 16.91 3.41 20.00 L 2.46 20.00 C 3.19 18.65 3.97 17.32 4.84 16.05 Z" />
</g>
<g id="#fa7d3dff">
<path fill="#fa7d3d" opacity="1.00" d=" M 3.41 20.00 C 4.35 16.91 7.85 17.85 9.23 20.00 L 3.41 20.00 Z" />
</g>
<g id="#e67330ff">
<path fill="#e67330" opacity="1.00" d=" M 9.74 20.00 C 10.08 17.39 13.06 18.17 14.93 17.89 C 15.36 18.42 16.20 19.47 16.63 20.00 L 9.74 20.00 Z" />
</g>
</svg>
