<?xml version="1.0" encoding="UTF-8" ?>
<!DOCTYPE svg PUBLIC "-//W3C//DTD SVG 1.1//EN" "http://www.w3.org/Graphics/SVG/1.1/DTD/svg11.dtd">
<svg width="266pt" height="266pt" viewBox="0 0 266 266" version="1.1" xmlns="http://www.w3.org/2000/svg">
<g id="#5d615cff">
<path fill="#5d615c" opacity="1.00" d=" M 0.00 0.00 L 249.01 0.00 C 248.99 4.67 249.00 9.33 248.99 14.00 C 170.33 14.00 91.67 14.00 13.00 14.00 C 13.00 93.67 13.00 173.33 13.00 253.00 C 8.67 252.99 4.33 253.00 0.00 253.01 L 0.00 0.00 Z" />
</g>
<g id="#3d413cff">
<path fill="#3d413c" opacity="1.00" d=" M 249.01 0.00 L 266.00 0.00 L 266.00 266.00 L 0.00 266.00 L 0.00 253.01 C 4.33 253.00 8.67 252.99 13.00 253.00 C 13.00 173.33 13.00 93.67 13.00 14.00 C 91.67 14.00 170.33 14.00 248.99 14.00 C 249.00 9.33 248.99 4.67 249.01 0.00 Z" />
</g>
</svg>
